<?xml version="1.0" standalone="no"?>
<!DOCTYPE svg PUBLIC "-//W3C//DTD SVG 1.1//EN" "http://www.w3.org/Graphics/SVG/1.1/DTD/svg11.dtd" >
<svg xmlns="http://www.w3.org/2000/svg" xmlns:xlink="http://www.w3.org/1999/xlink" version="1.1">
<metadata>
Created by FontForge 20170731 at Sun Apr  3 01:41:12 2016
 By Aleksey,,,
Universidad Nacional de Colombia, Unidad de Medios de Comunicacio'n (Unimedios), 2012-2015.
</metadata>
<defs>
<font id="AncizarSans-RegularItalic" horiz-adv-x="498" >
  <font-face 
    font-family="Ancizar Sans"
    font-weight="400"
    font-style="italic"
    font-stretch="normal"
    units-per-em="1000"
    panose-1="2 11 6 2 4 3 0 0 0 3"
    ascent="750"
    descent="-250"
    x-height="450"
    cap-height="612"
    bbox="-105 -248 1166 860"
    underline-thickness="0"
    underline-position="0"
    slope="-4"
    unicode-range="U+0020-FB04"
  />
<missing-glyph horiz-adv-x="500" 
d="M0 0v703h500v-703h-500zM250 397l170 256h-340zM50 608v-513l170 256zM280 351l170 -256v513zM80 50h340l-170 256z" />
    <glyph glyph-name="f_f" unicode="ff" horiz-adv-x="492" 
d="M192 -230q-24 0 -48 7l16 69q31 -9 63 -9q70 0 79 132l30 423h-159l-28 -392q-8 -118 -62.5 -174t-131.5 -56q-23 0 -48 7l16 69q31 -9 63 -9q70 0 79 132l30 423h-61l6 48l59 10l2 26q8 116 63.5 164t132.5 48q31 0 51 -6l-16 -68q-28 7 -71 7q-29 0 -50 -20t-24 -61
l-6 -90h159l3 46q8 116 63.5 164t132.5 48q31 0 51 -6l-16 -68q-28 7 -71 7q-29 0 -50 -20t-24 -61l-8 -110h105l-13 -58h-96l-27 -392q-8 -117 -62 -173.5t-132 -56.5z" />
    <glyph glyph-name="fi" unicode="fi" horiz-adv-x="467" 
d="M-49 -230q-23 0 -48 7l16 69q31 -9 63 -9q70 0 79 132l30 423h-61l6 48l59 10l3 46q7 103 66 157.5t142 54.5q74 0 126 -19l-26 -72q-56 24 -128 24q-88 0 -95 -100l-6 -91h171l70 12l-33 -462h-81l28 392h-159l-28 -392q-8 -118 -62.5 -174t-131.5 -56z" />
    <glyph glyph-name="fl" unicode="fl" horiz-adv-x="500" 
d="M-49 -230q-23 0 -48 7l16 69q31 -9 63 -9q70 0 79 132l30 423h-61l6 48l59 10l3 46q7 103 66 157.5t142 54.5q39 0 82 -8l46 8q-10 -141 -18.5 -257t-13 -175t-8 -101t-4.5 -57.5t-1 -22.5q0 -34 26 -34q21 0 54 24l13 -52q-67 -45 -106 -45q-30 0 -50 20t-20 57
q0 7 1 19.5t4 49.5t7 90t12 163t18 247q-42 7 -70 7q-88 0 -95 -100l-6 -91h99l-13 -58h-90l-28 -392q-8 -118 -62.5 -174t-131.5 -56z" />
    <glyph glyph-name="f_f_i" unicode="ffi" horiz-adv-x="708" 
d="M192 -230q-24 0 -48 7l16 69q31 -9 63 -9q70 0 79 132l30 423h-159l-28 -392q-8 -118 -62.5 -174t-131.5 -56q-23 0 -48 7l16 69q31 -9 63 -9q70 0 79 132l30 423h-61l6 48l59 10l2 26q8 116 63.5 164t132.5 48q31 0 51 -6l-16 -68q-28 7 -71 7q-29 0 -50 -20t-24 -61
l-6 -90h159l3 46q7 103 66 157.5t142 54.5q74 0 126 -19l-26 -72q-56 24 -128 24q-88 0 -95 -100l-6 -91h171l70 12l-33 -462h-81l28 392h-159l-28 -392q-8 -118 -62.5 -174t-131.5 -56z" />
    <glyph glyph-name="f_f_l" unicode="ffl" horiz-adv-x="741" 
d="M192 -230q-24 0 -48 7l16 69q31 -9 63 -9q70 0 79 132l30 423h-159l-28 -392q-8 -118 -62.5 -174t-131.5 -56q-23 0 -48 7l16 69q31 -9 63 -9q70 0 79 132l30 423h-61l6 48l59 10l2 26q8 116 63.5 164t132.5 48q31 0 51 -6l-16 -68q-28 7 -71 7q-29 0 -50 -20t-24 -61
l-6 -90h159l3 46q7 103 66 157.5t142 54.5q39 0 82 -8l46 8q-10 -141 -18.5 -257t-13 -175t-8 -101t-4.5 -57.5t-1 -22.5q0 -34 26 -34q21 0 54 24l13 -52q-67 -45 -106 -45q-30 0 -50 20t-20 57q0 7 1 19.5t4 49.5t7 90t12 163t18 247q-42 7 -70 7q-88 0 -95 -100l-6 -91
h104l-13 -58h-95l-28 -392q-8 -118 -62.5 -174t-131.5 -56z" />
    <glyph glyph-name=".notdef" horiz-adv-x="500" 
d="M0 0v703h500v-703h-500zM250 397l170 256h-340zM50 608v-513l170 256zM280 351l170 -256v513zM80 50h340l-170 256z" />
    <glyph glyph-name=".null" horiz-adv-x="0" 
 />
    <glyph glyph-name="nonmarkingreturn" horiz-adv-x="333" 
 />
    <glyph glyph-name="space" unicode=" " horiz-adv-x="217" 
 />
    <glyph glyph-name="exclam" unicode="!" horiz-adv-x="306" 
d="M173 173l-68 -19q22 280 11 455l104 31q-33 -267 -47 -467zM71 43q1 17 26.5 40.5t41.5 23.5q14 0 37 -21.5t22 -37.5q-1 -18 -26.5 -40.5t-39.5 -22.5q-16 0 -39 21t-22 37z" />
    <glyph glyph-name="quotedbl" unicode="&#x22;" horiz-adv-x="326" 
d="M215 477l1 216h80l-31 -216h-50zM79 477l1 216h80l-31 -216h-50z" />
    <glyph glyph-name="numbersign" unicode="#" horiz-adv-x="528" 
d="M304 237l37 120h-114l-37 -120h114zM230 0l58 185h-114l-58 -185h-60l58 185h-104l1 15l18 37h101l37 120h-115l1 15l18 36h112l64 204h60l-64 -204h114l64 204h60l-64 -204h101l-1 -15l-18 -36h-98l-37 -120h112l-1 -15l-18 -37h-109l-58 -185h-60z" />
    <glyph glyph-name="dollar" unicode="$" 
d="M260 -140h-79l20 129q-7 -1 -21 -1q-84 0 -141 24l22 74q88 -32 165 -31q47 -1 77.5 26.5t30.5 68.5q0 38 -16.5 63.5t-63.5 49.5l-55 28q-61 31 -89.5 66t-28.5 86q0 69 47 118t121 60l-2 124h79l-19 -121q83 -3 134 -23l-20 -75q-94 32 -163 32q-40 0 -66 -26t-26 -61
q0 -34 17.5 -59t65.5 -49l57 -29q60 -30 88 -65.5t28 -83.5q0 -70 -45 -120t-120 -68z" />
    <glyph glyph-name="percent" unicode="%" horiz-adv-x="611" 
d="M314 486q-5 -65 -49 -109t-106 -44q-58 0 -90 38.5t-27 100.5q4 64 48 108.5t106 44.5q57 0 89.5 -39t28.5 -100zM29 0l487 612h67l-486 -612h-68zM251 478q7 99 -74 99q-68 0 -74 -97q-7 -99 74 -99q68 0 74 97zM569 141q-5 -65 -48.5 -109t-105.5 -44q-58 0 -90 38.5
t-28 100.5q5 64 49 108.5t106 44.5q57 0 89.5 -39t27.5 -100zM507 133q7 99 -74 99q-68 0 -74 -97q-7 -99 74 -99q68 0 74 97z" />
    <glyph glyph-name="ampersand" unicode="&#x26;" horiz-adv-x="604" 
d="M527 -40q0 -92 -89 -166l-47 43q35 31 50 53t15 49q0 38 -59 119q-93 -69 -202 -69q-72 0 -117 38.5t-45 96.5q0 105 145 197q-69 80 -69 136q0 70 54 118.5t130 48.5q85 0 138 -31l-25 -63q-70 33 -136 33q-33 0 -57.5 -22.5t-24.5 -57.5q0 -20 11.5 -42.5t25 -39
t46 -52.5t54.5 -62q69 -83 102 -124q44 64 44 132q0 64 -33 116l73 31q33 -45 33 -121q0 -107 -82 -204q65 -90 65 -157zM229 51q72 0 136 48q-33 42 -110 135q-23 27 -46 52q-98 -65 -98 -138q0 -42 35 -69.5t83 -27.5z" />
    <glyph glyph-name="quotesingle" unicode="'" horiz-adv-x="190" 
d="M79 477l1 216h80l-31 -216h-50z" />
    <glyph glyph-name="parenleft" unicode="(" horiz-adv-x="320" 
d="M279 -89l-46 -40q-183 141 -164 412q19 266 222 412l40 -40q-178 -135 -194 -372t142 -372z" />
    <glyph glyph-name="parenright" unicode=")" horiz-adv-x="320" 
d="M41 654l46 40q183 -141 164 -412q-19 -266 -222 -412l-40 40q178 135 194 372t-142 372z" />
    <glyph glyph-name="asterisk" unicode="*" horiz-adv-x="421" 
d="M243 688q12 -34 9 -80q-4 -44 -16 -72l-20 -4q-5 69 -32 134zM389 592q-18 -25 -57 -49t-79 -32l-12 19q61 45 102 100zM78 603q29 -2 66.5 -22.5t62.5 -49.5l-10 -19q-56 25 -134 30zM370 413q-30 2 -67 22.5t-63 50.5l10 18q58 -25 134 -30zM59 423q18 25 57 49t79 32
l10 -17q-54 -40 -101 -103zM204 329q-12 29 -9 78q3 43 16 75l21 3q6 -71 32 -133z" />
    <glyph glyph-name="plus" unicode="+" 
d="M448 235h-168l-12 -171h-66l12 171h-168l4 61h168l12 165h66l-12 -165h168z" />
    <glyph glyph-name="comma" unicode="," horiz-adv-x="230" 
d="M47 54q1 17 19.5 32.5t34.5 15.5q17 0 38 -22.5t20 -47.5q-3 -40 -81 -180l-51 19q52 113 54 130q0 5 -17.5 22.5t-16.5 30.5z" />
    <glyph glyph-name="hyphen" unicode="-" horiz-adv-x="320" 
d="M275 275v-15l-19 -47h-211v15l20 47h210z" />
    <glyph glyph-name="period" unicode="." horiz-adv-x="230" 
d="M34 40q1 17 24 39.5t38 22.5q16 0 39 -18.5t22 -34.5q-1 -17 -24.5 -39t-38.5 -22q-16 0 -38.5 18t-21.5 34z" />
    <glyph glyph-name="slash" unicode="/" horiz-adv-x="329" 
d="M7 -110l250 803h65l-250 -803h-65z" />
    <glyph glyph-name="zero" unicode="0" 
d="M464 384q0 -203 -68 -299.5t-180 -96.5q-84 0 -133 64.5t-49 178.5q0 200 68 296.5t179 96.5q85 0 134 -65t49 -175zM248 51q129 0 129 298q0 99 -32.5 155t-92.5 56q-131 0 -131 -295q0 -102 32 -158t95 -56z" />
    <glyph glyph-name="one" unicode="1" 
d="M325 0h-84l37 530l-155 -63l-16 75q63 18 205 70h56z" />
    <glyph glyph-name="two" unicode="2" 
d="M410 0h-371l7 64q163 151 229 233.5t67 146.5q0 50 -31 79.5t-82 29.5q-50 0 -132 -41l-17 69q86 43 173 43q79 0 129 -43t50 -117q0 -76 -69 -168.5t-223 -227.5l286 4z" />
    <glyph glyph-name="three" unicode="3" 
d="M180 -12q-82 0 -146 20l23 74q75 -24 148 -24q65 0 101.5 29.5t36.5 82.5t-37 84.5t-101 31.5q-18 0 -63 -3l-9 64q99 0 153 32.5t54 84.5q0 41 -27.5 65.5t-72.5 24.5q-64 0 -127 -34l-18 66q84 38 173 38q71 0 114 -37.5t43 -96.5q0 -56 -37.5 -97t-93.5 -61
q65 -13 99.5 -52.5t34.5 -96.5q0 -80 -68 -137.5t-180 -57.5z" />
    <glyph glyph-name="four" unicode="4" 
d="M299 198l20 302l-228 -302h208zM453 131h-78l-9 -131h-81l9 131h-292l4 57l323 424h80l-29 -414h96z" />
    <glyph glyph-name="five" unicode="5" 
d="M151 -12q-65 0 -124 18l25 73q72 -25 150 -25q65 0 103.5 34.5t38.5 88.5q0 56 -43 88.5t-115 32.5q-53 0 -99 -11l43 325h319l-16 -69h-240l-24 -183q39 7 66 7q84 0 138.5 -44t53.5 -119q1 -98 -74 -157t-202 -59z" />
    <glyph glyph-name="six" unicode="6" 
d="M445 218q0 -104 -65 -167t-149 -63q-86 0 -136 63.5t-50 182.5q0 194 77.5 292t216.5 98q63 0 115 -16l-20 -75q-67 23 -138 23q-136 0 -160 -224q80 46 149 46q75 0 117.5 -43.5t42.5 -116.5zM249 51q52 0 82.5 35t30.5 106q0 54 -30.5 87.5t-84.5 33.5q-45 0 -115 -34
q-1 -15 -1 -49q0 -85 34 -132t84 -47z" />
    <glyph glyph-name="seven" unicode="7" 
d="M181 -13l-86 24l276 526h-323l19 75h399l-4 -65q-280 -560 -281 -560z" />
    <glyph glyph-name="eight" unicode="8" 
d="M218 -12q-85 0 -135 38.5t-50 108.5q0 57 36.5 96.5t107.5 82.5q-49 30 -72 63.5t-23 83.5q0 73 58 118t137 44q73 1 118.5 -32t45.5 -90q0 -88 -128 -169q71 -40 100 -73.5t29 -84.5q0 -79 -68.5 -132.5t-155.5 -53.5zM161 480q0 -35 21 -60t79 -59q53 35 77.5 61.5
t24.5 58.5q0 36 -30.5 58.5t-79.5 22.5q-39 0 -65.5 -22.5t-26.5 -59.5zM247 50q44 0 80 25t36 70q0 40 -28 68t-107 71q-55 -34 -83 -65t-28 -68q0 -45 36.5 -73t93.5 -28z" />
    <glyph glyph-name="nine" unicode="9" 
d="M254 298q46 0 114 34q2 30 2 49q0 85 -34 132t-84 47q-52 0 -82.5 -35t-30.5 -106q0 -54 30.5 -87.5t84.5 -33.5zM148 -12q-62 0 -106 16l19 71q55 -19 101 -19q78 0 131 53t70 169q-81 -45 -147 -45q-75 0 -117.5 44t-42.5 117q0 104 65 167t149 63q86 0 136 -63.5
t50 -182.5q0 -189 -87 -289.5t-221 -100.5z" />
    <glyph glyph-name="colon" unicode=":" horiz-adv-x="230" 
d="M51 320q1 17 24 39.5t38 22.5q16 0 39 -18.5t22 -34.5q-1 -17 -24.5 -39t-38.5 -22q-16 0 -38.5 18t-21.5 34zM31 40q1 17 24 39.5t38 22.5q16 0 39 -18.5t22 -34.5q-1 -17 -24.5 -39t-38.5 -22q-16 0 -38.5 18t-21.5 34z" />
    <glyph glyph-name="semicolon" unicode=";" horiz-adv-x="230" 
d="M53 320q1 17 24 39.5t38 22.5q16 0 39 -18.5t22 -34.5q-1 -17 -24.5 -39t-38.5 -22q-16 0 -38.5 18t-21.5 34zM39 54q1 17 19.5 32.5t34.5 15.5q17 0 38 -22.5t20 -47.5q-3 -40 -81 -180l-51 19q52 113 54 130q0 5 -17.5 22.5t-16.5 30.5z" />
    <glyph glyph-name="equal" unicode="=" 
d="M429 355l-1 -15l-21 -44h-331l1 15l21 44h331zM421 235l-1 -15l-21 -44h-331l1 15l21 44h331z" />
    <glyph glyph-name="question" unicode="?" horiz-adv-x="400" 
d="M234 176l-73 -23q-39 49 -37 85q2 29 17.5 48t59.5 54q46 36 63.5 61t20.5 62q3 41 -25.5 68.5t-72.5 27.5q-34 0 -112 -46l-25 64q90 47 171 47q72 0 117 -41.5t41 -107.5q-3 -43 -31 -76t-81 -74q-35 -27 -48.5 -41t-14.5 -29q-3 -25 30 -79zM112 42q1 16 25.5 38
t39.5 22q13 0 34.5 -20.5t20.5 -36.5t-26 -37.5t-38 -21.5q-16 0 -36.5 20t-19.5 36z" />
    <glyph glyph-name="at" unicode="@" horiz-adv-x="779" 
d="M323 -151q-41 0 -81.5 11.5t-80.5 39t-69.5 68.5t-45.5 106t-11 145q8 112 50 201t102.5 140t127 77.5t132.5 26.5q143 0 225 -76t72 -212q-8 -119 -90.5 -211.5t-195.5 -117.5l-9 122q-27 -54 -61.5 -83t-63.5 -29q-43 0 -64.5 47.5t-15.5 128.5q4 59 25.5 110.5
t67 88.5t107.5 37q58 0 88 -24l-23 -331q148 81 161 256q9 105 -56 167t-184 62q-89 0 -160.5 -51t-111.5 -133.5t-47 -182.5q-9 -158 61.5 -239.5t185.5 -81.5q21 0 42 2.5t36 6t33 9t26.5 9t24 10.5t18.5 8l14 -53q-123 -54 -229 -54zM359 118q13 0 31 15t38.5 61.5
t28.5 115.5l7 96q-22 8 -52 8q-50 0 -71.5 -45.5t-26.5 -128.5q-8 -122 45 -122z" />
    <glyph glyph-name="A" unicode="A" horiz-adv-x="539" 
d="M350 260l-65 264l-108 -264h173zM414 0l-47 191h-219l-78 -191h-85l262 612h102l154 -612h-89z" />
    <glyph glyph-name="B" unicode="B" horiz-adv-x="499" 
d="M233 554h-52l-15 -212h66q55 0 88.5 28t33.5 77q0 50 -31 78.5t-90 28.5zM235 283h-73l-16 -223h86q68 0 104 28.5t36 79.5q0 53 -35.5 84t-101.5 31zM57 0l43 612h164q86 0 130 -35t44 -101q0 -98 -96 -152q50 -10 84 -43t34 -92q0 -90 -73 -139.5t-181 -49.5h-149z" />
    <glyph glyph-name="C" unicode="C" horiz-adv-x="496" 
d="M434 90l16 -60q-107 -42 -186 -42q-99 0 -164.5 68.5t-65.5 196.5q0 99 30 180.5t98.5 136t165.5 54.5q80 0 152 -29l-25 -73q-93 32 -155 32q-77 0 -126.5 -69t-49.5 -218q0 -101 49.5 -154.5t114.5 -53.5q60 0 146 31z" />
    <glyph glyph-name="D" unicode="D" horiz-adv-x="567" 
d="M100 612h181q120 0 190.5 -70t70.5 -184q0 -167 -93 -262.5t-230 -95.5h-162zM182 543l-33 -474h82q98 0 160 68.5t62 195.5q0 101 -52.5 155.5t-146.5 54.5h-72z" />
    <glyph glyph-name="E" unicode="E" horiz-adv-x="461" 
d="M57 0l43 612h329l-15 -69l-232 3l-13 -194h215l-14 -67l-206 3l-15 -221l258 3l-15 -70h-335z" />
    <glyph glyph-name="F" unicode="F" horiz-adv-x="447" 
d="M367 274l-204 2l-19 -276h-87l43 612h329l-15 -69l-232 3l-14 -205h214z" />
    <glyph glyph-name="G" unicode="G" horiz-adv-x="551" 
d="M477 37q-98 -49 -207 -49q-99 0 -167.5 68.5t-68.5 197.5q0 160 80 265t226 105q100 0 173 -33l-27 -78q-98 41 -179 41q-87 0 -135 -74t-48 -205q0 -111 50.5 -163.5t121.5 -52.5q47 0 104 15l17 230h80z" />
    <glyph glyph-name="H" unicode="H" horiz-adv-x="592" 
d="M405 0l20 284h-261l-20 -284h-87l43 612h87l-18 -259h261l18 259h87l-43 -612h-87z" />
    <glyph glyph-name="I" unicode="I" horiz-adv-x="244" 
d="M187 612l-43 -612h-87l43 612h87z" />
    <glyph glyph-name="J" unicode="J" horiz-adv-x="336" 
d="M279 612l-30 -436q-6 -88 -58 -138t-130 -50q-43 0 -76 13l19 74q44 -18 82 -18q28 0 49.5 25.5t24.5 68.5l32 461h87z" />
    <glyph glyph-name="K" unicode="K" horiz-adv-x="535" 
d="M499 0h-105l-224 329l270 283h100l-276 -281zM186 612l-43 -612h-86l43 612h86z" />
    <glyph glyph-name="L" unicode="L" horiz-adv-x="446" 
d="M57 0l43 612h87l-38 -543l258 3l-15 -72h-335z" />
    <glyph glyph-name="M" unicode="M" horiz-adv-x="774" 
d="M323 0l-134 493l-71 -493h-80l97 612h105l136 -493l202 493h106l12 -612h-86l-8 490l-202 -490h-77z" />
    <glyph glyph-name="N" unicode="N" horiz-adv-x="602" 
d="M428 0l-261 475l-33 -475h-77l42 612h83l254 -466l32 466h77l-43 -612h-74z" />
    <glyph glyph-name="O" unicode="O" horiz-adv-x="574" 
d="M540 356q0 -94 -25.5 -167.5t-68 -116t-92 -63.5t-102.5 -21q-97 0 -157.5 71.5t-60.5 196.5q0 94 25.5 167.5t68 116t92 63.5t102.5 21q97 0 157.5 -71.5t60.5 -196.5zM287 57q70 0 117 68.5t47 205.5q0 119 -47 171.5t-119 52.5q-69 0 -115 -68t-46 -206
q0 -120 45.5 -172t117.5 -52z" />
    <glyph glyph-name="P" unicode="P" horiz-adv-x="478" 
d="M233 550h-50l-18 -251h65q61 0 101.5 32.5t40.5 93.5q0 125 -139 125zM202 235h-41l-17 -235h-87l43 612h156q99 0 151.5 -42.5t52.5 -119.5q0 -95 -71 -155t-187 -60z" />
    <glyph glyph-name="Q" unicode="Q" horiz-adv-x="574" 
d="M398 -180q-32 0 -115 35t-116 35q-36 0 -80 -29l-14 63q29 14 55 18q78 30 113 46q-93 5 -150 76t-57 192q0 94 25.5 167.5t68 116t92 63.5t102.5 21q97 0 157.5 -71.5t60.5 -196.5q0 -220 -132 -317q-57 -43 -170 -100q22 -5 60 -17.5t67.5 -20t51.5 -7.5q45 0 80 26
l-5 -71q-46 -29 -94 -29zM287 57q70 0 117 68.5t47 205.5q0 119 -47 171.5t-119 52.5q-69 0 -115 -68t-46 -206q0 -120 45.5 -172t117.5 -52z" />
    <glyph glyph-name="R" unicode="R" horiz-adv-x="507" 
d="M240 550h-57l-17 -234h78q52 0 87.5 30t35.5 87q0 117 -127 117zM218 253h-56l-18 -253h-87l43 612h161q93 0 143.5 -42t50.5 -115q0 -61 -33.5 -108t-91.5 -72l141 -275h-100l-119 255q-22 -2 -34 -2z" />
    <glyph glyph-name="S" unicode="S" horiz-adv-x="442" 
d="M233 263l-55 28q-61 31 -89.5 66t-28.5 86q0 79 60 130t149 51q95 0 151 -23l-20 -75q-94 32 -163 32q-40 0 -66 -26t-26 -61q0 -34 17.5 -59t65.5 -49l57 -29q60 -30 88 -65.5t28 -83.5q0 -88 -68.5 -142.5t-173.5 -54.5q-84 0 -141 24l22 74q88 -32 165 -31
q47 -1 77.5 26.5t30.5 68.5q0 38 -16.5 63.5t-63.5 49.5z" />
    <glyph glyph-name="T" unicode="T" horiz-adv-x="502" 
d="M485 540l-174 3l-38 -543h-87l38 543l-185 -3l17 72h446z" />
    <glyph glyph-name="U" unicode="U" horiz-adv-x="595" 
d="M99 612h87q-27 -398 -27 -417q0 -69 36.5 -102.5t99.5 -33.5q60 0 93 35.5t39 115.5l27 402h84l-27 -392q-7 -114 -70.5 -173t-174.5 -59q-87 0 -142 46.5t-55 133.5q0 32 30 444z" />
    <glyph glyph-name="V" unicode="V" horiz-adv-x="544" 
d="M298 0h-101l-161 612h90l133 -521l207 521h87z" />
    <glyph glyph-name="W" unicode="W" horiz-adv-x="834" 
d="M544 0l-116 477l-191 -477h-91l-91 612h88l70 -489l191 489h78l118 -492l144 492h81l-189 -612h-92z" />
    <glyph glyph-name="X" unicode="X" horiz-adv-x="509" 
d="M384 0l-138 253l-163 -253h-93l218 321l-159 291h95l125 -227l146 227h94l-202 -296l173 -316h-96z" />
    <glyph glyph-name="Y" unicode="Y" horiz-adv-x="518" 
d="M284 0h-87l17 244l-178 368h95l139 -286l169 286h88l-226 -366z" />
    <glyph glyph-name="Z" unicode="Z" horiz-adv-x="516" 
d="M442 0h-406l4 59l336 480h-306l18 73h392l-5 -68l-334 -473h318z" />
    <glyph glyph-name="bracketleft" unicode="[" horiz-adv-x="320" 
d="M256 -66l-4 -53h-182l56 802h182l-4 -53h-116l-49 -696h117z" />
    <glyph glyph-name="backslash" unicode="\" horiz-adv-x="329" 
d="M128 693l138 -803h-65l-138 803h65z" />
    <glyph glyph-name="bracketright" unicode="]" horiz-adv-x="320" 
d="M194 -119h-182l4 53h116l49 696h-117l4 53h182z" />
    <glyph glyph-name="underscore" unicode="_" horiz-adv-x="440" 
d="M430 -101v-55h-440v55h440z" />
    <glyph glyph-name="grave" unicode="`" horiz-adv-x="329" 
d="M269 511h-70l-139 128l90 17z" />
    <glyph glyph-name="a" unicode="a" horiz-adv-x="438" 
d="M290 -12l-4 118q-29 -55 -70 -86.5t-76 -31.5q-106 0 -106 176q0 122 62.5 210t160.5 88q79 0 131 -31l-30 -431zM177 55q35 0 72 53.5t48 162.5l8 113q-36 17 -72 17q-50 0 -82 -58.5t-32 -169.5q0 -57 15.5 -87.5t42.5 -30.5z" />
    <glyph glyph-name="b" unicode="b" horiz-adv-x="454" 
d="M229 50q45 0 74 56t29 163q0 126 -59 126q-33 0 -72.5 -58.5t-53.5 -157.5l-7 -112q47 -17 89 -17zM213 -12q-49 0 -96 19l-33 -31l-30 20l45 683l82 14l-24 -360q71 129 150 129q111 0 111 -183q0 -121 -64.5 -206t-140.5 -85z" />
    <glyph glyph-name="c" unicode="c" horiz-adv-x="369" 
d="M314 112l24 -44q-88 -80 -168 -80q-62 0 -98.5 45t-36.5 140q0 133 59.5 211t140.5 78q70 0 120 -35l-30 -64q-65 39 -105 39q-31 0 -54.5 -35.5t-34 -81.5t-10.5 -91q0 -141 78 -141q45 0 115 59z" />
    <glyph glyph-name="d" unicode="d" horiz-adv-x="452" 
d="M304 -12l-6 132q-71 -132 -152 -132q-111 0 -111 183q0 121 64.5 206t140.5 85q42 0 80 -11l17 227l82 14l-47 -692zM180 55q36 0 79 69t51 186l5 72q-47 17 -92 17t-73.5 -55.5t-28.5 -162.5q0 -126 59 -126z" />
    <glyph glyph-name="e" unicode="e" horiz-adv-x="366" 
d="M176 -12q-65 0 -102.5 46t-37.5 133q0 135 59 215t140 80q51 0 80.5 -30t29.5 -72q0 -68 -67 -111t-157 -47v-19q0 -67 21 -98.5t53 -31.5q49 0 119 59l24 -44q-82 -80 -162 -80zM216 405q-35 0 -59.5 -40.5t-32.5 -115.5q65 4 103.5 32t38.5 69q0 24 -13.5 39.5
t-36.5 15.5z" />
    <glyph glyph-name="f" unicode="f" horiz-adv-x="251" 
d="M-49 -230q-23 0 -48 7l16 69q31 -9 63 -9q70 0 79 132l30 423h-61l6 48l59 10l3 46q8 116 63.5 164t132.5 48q31 0 51 -6l-16 -68q-28 7 -71 7q-29 0 -50 -20t-24 -61l-8 -110h105l-13 -58h-96l-27 -392q-8 -117 -62 -173.5t-132 -56.5z" />
    <glyph glyph-name="g" unicode="g" horiz-adv-x="380" 
d="M196 232q74 0 74 90q0 41 -22.5 64.5t-55.5 23.5q-71 0 -71 -89q0 -39 22 -64t53 -25zM351 -46q0 -58 -67.5 -104.5t-145.5 -46.5q-72 0 -112.5 26t-40.5 68q0 58 82 113l52 34q-30 16 -41.5 30.5t-12.5 32.5q1 39 63 80q-83 27 -83 117q0 69 47 113.5t122 44.5
q32 0 63 -13l67 97l48 -48l-9 -20l-73 -51q36 -36 36 -88q0 -67 -47.5 -113t-121.5 -46h-3q-38 -25 -38 -45q0 -13 25 -27t87 -40q56 -23 79.5 -48.5t23.5 -65.5zM168 -138q46 0 79 20.5t33 51.5q0 25 -24.5 44t-82.5 42q-14 6 -20 8l-34 -25q-33 -24 -46.5 -40t-13.5 -39
q0 -26 28.5 -44t80.5 -18z" />
    <glyph glyph-name="h" unicode="h" horiz-adv-x="455" 
d="M146 167v5l-12 -172h-82l47 679l82 14l-25 -363q72 132 156 132q91 0 91 -118q0 -35 -7 -106t-16 -150.5t-10 -87.5h-82q1 15 9 83.5t14 133.5t6 91q0 46 -10.5 65t-36.5 19q-34 0 -74.5 -58t-49.5 -167z" />
    <glyph glyph-name="i" unicode="i" horiz-adv-x="218" 
d="M85 598q0 16 19.5 38.5t33.5 22.5t32 -17t18 -33q0 -14 -19.5 -36.5t-33.5 -22.5t-32 16.5t-18 31.5zM84 448l82 14l-33 -462h-81z" />
    <glyph glyph-name="j" unicode="j" horiz-adv-x="218" 
d="M87 598q0 16 19.5 38.5t33.5 22.5t32 -17t18 -33q0 -14 -19.5 -36.5t-33.5 -22.5t-32 16.5t-18 31.5zM-67 -230l-11 76q18 -2 30 -2q46 0 69.5 35t29.5 118l33 452l82 14l-34 -467q-7 -104 -64 -165t-135 -61z" />
    <glyph glyph-name="k" unicode="k" horiz-adv-x="404" 
d="M321 -8q-38 41 -169 266l-19 -258h-81l49 679l82 14l-31 -433q95 70 169 190h83q-68 -115 -169 -194q112 -175 162 -235z" />
    <glyph glyph-name="l" unicode="l" horiz-adv-x="244" 
d="M213 85l13 -52q-67 -45 -106 -45q-30 0 -50 20t-20 57q0 7 1 19t4.5 49.5t8 94.5t13 176.5t19.5 273.5l82 14q-10 -141 -18.5 -255t-13 -171t-8 -96.5t-4.5 -53.5t-1 -21q0 -34 26 -34q21 0 54 24z" />
    <glyph glyph-name="m" unicode="m" horiz-adv-x="689" 
d="M146 167v2l-13 -169h-81l31 448l69 14l7 -120l-1 -8q71 128 154 128q45 0 65.5 -29t20.5 -89v-7q71 125 152 125q45 0 65.5 -29t20.5 -89q0 -27 -4 -81.5t-9 -99.5t-10.5 -100t-6.5 -63h-82q1 11 8 82.5t12.5 135.5t5.5 90q0 47 -8.5 65.5t-33.5 18.5q-30 0 -66.5 -46
t-51.5 -133q-5 -50 -13 -127t-9 -86h-82q1 11 8 82.5t12.5 135.5t5.5 90q0 47 -8.5 65.5t-33.5 18.5q-34 0 -74.5 -58t-49.5 -167z" />
    <glyph glyph-name="n" unicode="n" horiz-adv-x="455" 
d="M270 392q-32 0 -70.5 -52t-51.5 -149l-14 -191h-82l31 448l69 14l5 -130q72 130 155 130q91 0 91 -118q0 -35 -7 -106t-16 -150.5t-10 -87.5h-82q1 15 9 83.5t14 133.5t6 91q0 46 -10.5 65t-36.5 19z" />
    <glyph glyph-name="o" unicode="o" horiz-adv-x="438" 
d="M402 269q0 -69 -22 -131t-72.5 -106t-120.5 -44q-68 0 -109.5 50t-41.5 143q0 69 22 131t72.5 106t120.5 44q68 0 109.5 -50t41.5 -143zM213 44q30 0 52 22.5t32.5 59t15 71t4.5 69.5q0 140 -92 140q-40 0 -65 -41.5t-32 -87t-7 -93.5q0 -140 92 -140z" />
    <glyph glyph-name="p" unicode="p" horiz-adv-x="455" 
d="M231 50q45 0 74 56t29 163q0 126 -59 126q-36 0 -79 -69t-51 -186v3l-6 -75q50 -18 92 -18zM118 -216l-82 -14l47 678l69 14l6 -132q69 132 151 132q111 0 111 -183q0 -121 -64.5 -206t-140.5 -85q-40 0 -81 12z" />
    <glyph glyph-name="q" unicode="q" horiz-adv-x="452" 
d="M274 -230l24 350q-71 -132 -152 -132q-111 0 -111 183q0 121 64.5 206t140.5 85q54 0 104 -19l26 31l31 -12l-45 -678zM180 55q36 0 79 69t51 186v-2l5 74q-47 17 -92 17t-73.5 -55.5t-28.5 -162.5q0 -126 59 -126z" />
    <glyph glyph-name="r" unicode="r" horiz-adv-x="307" 
d="M147 165v1l-13 -166h-82l31 448l69 14l5 -132q27 68 67.5 100t83.5 32q11 0 14 -1l-16 -86q-12 3 -24 3q-119 0 -135 -213z" />
    <glyph glyph-name="s" unicode="s" horiz-adv-x="346" 
d="M152 -12q-72 0 -135 27l21 69q75 -34 132 -34q25 0 38.5 15t13.5 37q0 35 -46 73l-57 48q-31 26 -45 50.5t-14 59.5q0 58 44 93.5t100 35.5q31 0 67.5 -7.5t51.5 -14.5l-21 -66q-71 28 -114 28q-24 0 -37.5 -14t-13.5 -37q0 -31 47 -71l57 -48q33 -27 46 -50t13 -54
q0 -64 -46.5 -102t-101.5 -38z" />
    <glyph glyph-name="t" unicode="t" horiz-adv-x="324" 
d="M302 52q-84 -64 -151 -64q-37 0 -62.5 25t-25.5 66q0 32 31 313h-71l6 48l71 10q9 82 10 92l82 14l-12 -106h144l-15 -58h-135q-29 -242 -29 -281q0 -51 45 -51q37 0 94 41z" />
    <glyph glyph-name="u" unicode="u" horiz-adv-x="453" 
d="M302 -12l-5 132q-72 -132 -155 -132q-90 0 -90 118q0 35 7 106t16 149t10 87l83 13q-1 -14 -9 -86t-14.5 -139.5t-6.5 -93.5q0 -46 10.5 -65t35.5 -19q33 0 72 55t50 158l13 177l82 14l-31 -462z" />
    <glyph glyph-name="v" unicode="v" horiz-adv-x="395" 
d="M181 0h-91l-31 444l80 14l24 -388q100 114 141 380h73q-12 -122 -64.5 -253.5t-131.5 -196.5z" />
    <glyph glyph-name="w" unicode="w" horiz-adv-x="620" 
d="M326 0l-18 218q-48 -137 -134 -219l-82 1l-32 450l79 11l24 -390q47 51 82.5 135t48.5 178l-5 66h77l26 -383q55 59 89.5 161t48.5 222h73q-14 -128 -65 -256.5t-130 -193.5h-82z" />
    <glyph glyph-name="x" unicode="x" horiz-adv-x="360" 
d="M241 -5q-65 147 -78 177q-67 -84 -103 -172h-75q32 95 153 231q-74 168 -94 212l83 13q8 -19 33.5 -76t40.5 -92q57 73 94 162h75q-30 -90 -144 -220q74 -170 98 -222z" />
    <glyph glyph-name="y" unicode="y" horiz-adv-x="411" 
d="M-52 -230q-23 0 -53 6l10 75q29 -6 62 -6q110 0 199 143h-36l-66 457l81 16l57 -408q79 162 111 397h76q-6 -68 -25 -152t-56 -178.5t-86 -171.5t-121 -127.5t-153 -50.5z" />
    <glyph glyph-name="z" unicode="z" horiz-adv-x="367" 
d="M323 0h-308l4 54l227 335l-196 -5l9 66h288l-5 -56l-228 -332l220 5z" />
    <glyph glyph-name="braceleft" unicode="{" horiz-adv-x="320" 
d="M58 305q76 16 79 68q2 23 -0.5 82t0.5 109q4 62 46 96t121 34l-4 -55q-38 0 -66.5 -17.5t-31.5 -50.5q-3 -37 0 -104.5t1 -94.5q-2 -34 -24 -58.5t-51 -32.5q28 -8 46.5 -32.5t16.5 -58.5q-2 -28 -14 -95.5t-15 -103.5q-3 -33 23.5 -50.5t64.5 -17.5l-4 -55
q-79 0 -116 34t-33 96q3 49 14.5 109t13.5 82q3 53 -71 68z" />
    <glyph glyph-name="bar" unicode="|" horiz-adv-x="273" 
d="M73 -220l64 913h63l-64 -913h-63z" />
    <glyph glyph-name="braceright" unicode="}" horiz-adv-x="320" 
d="M192 282q-28 8 -46.5 32.5t-16.5 58.5q2 28 14 95.5t15 103.5q3 33 -23.5 50.5t-64.5 17.5l4 55q79 0 116 -34t33 -96q-3 -49 -14.5 -109t-13.5 -82q-3 -53 71 -68l-4 -48q-76 -16 -79 -68q-2 -23 0.5 -82t-0.5 -109q-4 -62 -46 -96t-121 -34l4 55q38 0 66.5 17.5
t31.5 50.5q3 37 0 104.5t-1 94.5q2 34 24 58.5t51 32.5z" />
    <glyph glyph-name="exclamdown" unicode="&#xa1;" horiz-adv-x="306" 
d="M215 403q-1 -17 -26.5 -40.5t-41.5 -23.5q-14 0 -37 21.5t-22 37.5q1 18 26.5 40.5t39.5 22.5q16 0 39 -21t22 -37zM113 273l68 19q-22 -280 -11 -455l-104 -31q33 267 47 467z" />
    <glyph glyph-name="cent" unicode="&#xa2;" 
d="M400 148q-50 -46 -104 -67l5 -141h-75l17 128h-11q-62 0 -98.5 45t-36.5 140q0 124 53 201t128 87l-3 124h75l-19 -125q52 -8 86 -33l-30 -64q-65 39 -105 39q-31 0 -54.5 -35.5t-34 -81.5t-10.5 -91q0 -141 78 -141q45 0 115 59z" />
    <glyph glyph-name="sterling" unicode="&#xa3;" 
d="M458 75l-20 -75h-403h-1l-21 66q70 18 96 42.5t30 78.5q2 21 -6 83h-93l1 13l24 41l45 6h15q-5 58 -3 96q6 88 66 143t152 55q81 0 127 -25l-30 -75q-74 30 -117 30q-51 0 -78.5 -25.5t-31.5 -85.5q-3 -36 3 -113h186l-20 -60h-160q3 -45 2 -71q-5 -74 -66 -132z" />
    <glyph glyph-name="section" unicode="&#xa7;" horiz-adv-x="486" 
d="M126 318q-2 -33 20.5 -56.5t82.5 -48.5q58 11 93 35t38 57q2 33 -20.5 56.5t-82.5 48.5q-58 -11 -93 -35t-38 -57zM185 -80q-79 0 -135 24l28 68q94 -35 135 -35q87 0 92 64q4 51 -76 84l-46 19q-83 35 -114 67.5t-27 88.5q4 48 41 84.5t99 56.5q-89 45 -84 121
q4 60 59 100.5t144 40.5q77 0 126 -21l-28 -68q-86 32 -126 32q-87 0 -92 -64q-4 -51 76 -84l46 -19q83 -35 114 -67.5t27 -88.5q-4 -48 -41 -84.5t-99 -56.5q89 -45 84 -121q-4 -60 -59 -100.5t-144 -40.5z" />
    <glyph glyph-name="dieresis" unicode="&#xa8;" horiz-adv-x="428" 
d="M250 595q1 15 20.5 34.5t32.5 19.5q14 0 34 -15.5t19 -29.5q-1 -15 -21 -34.5t-32 -19.5q-14 0 -34 16t-19 29zM71 595q1 15 20.5 34.5t32.5 19.5q14 0 34 -15.5t19 -29.5q-1 -15 -21 -34.5t-32 -19.5q-14 0 -34 16t-19 29z" />
    <glyph glyph-name="copyright" unicode="&#xa9;" horiz-adv-x="584" 
d="M36 244q8 116 88 186t186 70q117 0 181.5 -72.5t56.5 -183.5q-8 -116 -88 -186t-186 -70q-117 0 -181.5 72.5t-56.5 183.5zM82 244q-7 -98 48.5 -156t146.5 -58q96 0 157.5 61t67.5 153q7 98 -48.5 156t-146.5 58q-96 0 -157.5 -60.5t-67.5 -153.5zM379 156l6 -40
q-53 -22 -112 -22q-63 0 -98 39.5t-30 109.5q5 73 51 118t120 45q50 0 80 -14l-14 -44q-47 15 -87 15q-83 0 -92 -113q-4 -55 22.5 -82.5t69.5 -27.5q36 0 84 16z" />
    <glyph glyph-name="ordfeminine" unicode="&#xaa;" horiz-adv-x="254" 
d="M166 343l-3 54q-37 -54 -83 -54q-61 0 -61 89q0 58 32.5 104t93.5 46q47 0 85 -16l-16 -215zM108 383q15 0 34 26.5t27 77.5l4 55q-18 6 -37 6q-32 0 -45 -36t-13 -75q0 -54 30 -54z" />
    <glyph glyph-name="guillemotleft" unicode="&#xab;" horiz-adv-x="527" 
d="M408 32l-168 200l196 200l43 -35l-138 -165l114 -165zM218 32l-168 200l196 200l43 -35l-138 -165l114 -165z" />
    <glyph glyph-name="registered" unicode="&#xae;" horiz-adv-x="584" 
d="M46 516q8 116 88 186t186 70q117 0 181.5 -72.5t56.5 -183.5q-8 -116 -88 -186t-186 -70q-117 0 -181.5 72.5t-56.5 183.5zM92 516q-7 -98 48.5 -156t146.5 -58q96 0 157.5 61t67.5 153q7 98 -48.5 156t-146.5 58q-96 0 -157.5 -60.5t-67.5 -153.5zM298 534q57 0 61 48
q2 27 -13 40.5t-48 13.5h-30l-7 -101q12 -1 37 -1zM285 497q-16 0 -26 1l-9 -124h-56l21 300h101q50 0 76.5 -20.5t23.5 -62.5q-3 -52 -59 -78l68 -139h-62l-54 125q-16 -2 -24 -2z" />
    <glyph glyph-name="macron" unicode="&#xaf;" horiz-adv-x="433" 
d="M350 615l-1 -15l-21 -46h-245l1 15l21 46h245z" />
    <glyph glyph-name="twosuperior" unicode="&#xb2;" horiz-adv-x="273" 
d="M231 390h-210l3 40q158 123 162 173q1 26 -14 39.5t-40 13.5q-37 0 -80 -20l-12 43q51 24 114 24q46 0 72.5 -24.5t24.5 -63.5q-3 -38 -41 -79.5t-119 -101.5l153 5z" />
    <glyph glyph-name="threesuperior" unicode="&#xb3;" horiz-adv-x="271" 
d="M103 383q-43 0 -83 11l15 42q41 -11 80 -11q65 0 68 50q2 26 -16.5 40t-51.5 14q-12 0 -28 -2l-6 40q101 0 104 48q1 21 -13.5 33t-38.5 12q-32 0 -74 -17l-11 40q53 20 103 20q40 0 68 -18.5t25 -53.5q-1 -27 -22 -47t-52 -30q77 -11 74 -72q-3 -47 -47 -73t-94 -26z
" />
    <glyph glyph-name="acute" unicode="&#xb4;" horiz-adv-x="335" 
d="M54 511l139 145l88 -17l-157 -128h-70z" />
    <glyph glyph-name="paragraph" unicode="&#xb6;" horiz-adv-x="548" 
d="M323 551l-24 -343h-68q-100 0 -153 54.5t-46 144.5q6 91 67.5 148t162.5 57h222l-41 -584q-5 -77 -59.5 -120.5t-136.5 -43.5q-43 0 -75 12l17 70q163 -53 171 67l38 538h-75z" />
    <glyph glyph-name="cedilla" unicode="&#xb8;" horiz-adv-x="289" 
d="M88 -91l49 91h47l-29 -54q22 -10 31.5 -15.5t22 -14.5t16.5 -19.5t3 -24.5q-3 -36 -43 -65.5t-117 -36.5l-8 43q51 6 76.5 15.5t26.5 29.5q1 14 -16.5 24.5t-56.5 21.5z" />
    <glyph glyph-name="onesuperior" unicode="&#xb9;" horiz-adv-x="211" 
d="M147 390h-58l18 255l-71 -28l-11 47q32 8 106 32h38z" />
    <glyph glyph-name="ordmasculine" unicode="&#xba;" horiz-adv-x="254" 
d="M231 483q0 -55 -32 -97.5t-91 -42.5q-39 0 -62.5 25t-23.5 74q0 55 32 97.5t91 42.5q40 0 63 -25t23 -74zM125 380q47 0 47 103q0 63 -44 63q-47 0 -47 -104q0 -62 44 -62z" />
    <glyph glyph-name="guillemotright" unicode="&#xbb;" horiz-adv-x="527" 
d="M309 432l168 -200l-196 -200l-43 35l138 165l-114 165zM119 432l168 -200l-196 -200l-43 35l138 165l-114 165z" />
    <glyph glyph-name="questiondown" unicode="&#xbf;" horiz-adv-x="370" 
d="M265 406q-1 -16 -25.5 -38t-39.5 -22q-13 0 -34.5 20.5t-20.5 36.5t26 37.5t38 21.5q16 0 36.5 -20t19.5 -36zM143 272l73 23q39 -49 37 -85q-2 -29 -17.5 -48t-59.5 -54q-46 -36 -63.5 -61t-20.5 -62q-3 -41 25.5 -68.5t72.5 -27.5q34 0 112 46l25 -64q-90 -47 -171 -47
q-72 0 -117 41.5t-41 107.5q3 43 31 76t81 74q35 27 48.5 41t14.5 29q3 25 -30 79z" />
    <glyph glyph-name="Agrave" unicode="&#xc0;" horiz-adv-x="539" 
d="M360 661h-70l-139 128l90 17zM350 260l-65 264l-108 -264h173zM414 0l-47 191h-219l-78 -191h-85l262 612h102l154 -612h-89z" />
    <glyph glyph-name="Aacute" unicode="&#xc1;" horiz-adv-x="539" 
d="M224 661l139 145l88 -17l-157 -128h-70zM350 260l-65 264l-108 -264h173zM414 0l-47 191h-219l-78 -191h-85l262 612h102l154 -612h-89z" />
    <glyph glyph-name="Acircumflex" unicode="&#xc2;" horiz-adv-x="539" 
d="M385 661l-82 77l-92 -77h-67l134 145h60l114 -145h-67zM350 260l-65 264l-108 -264h173zM414 0l-47 191h-219l-78 -191h-85l262 612h102l154 -612h-89z" />
    <glyph glyph-name="Atilde" unicode="&#xc3;" horiz-adv-x="539" 
d="M425 777l30 -35q-57 -69 -105 -69q-19 0 -63.5 16.5t-56.5 16.5q-26 0 -68 -35l-27 35q64 67 107 67q23 0 62.5 -15t52.5 -15q32 0 68 34zM350 260l-65 264l-108 -264h173zM414 0l-47 191h-219l-78 -191h-85l262 612h102l154 -612h-89z" />
    <glyph glyph-name="Adieresis" unicode="&#xc4;" horiz-adv-x="539" 
d="M336 745q1 15 20.5 34.5t32.5 19.5q14 0 34 -15.5t19 -29.5q-1 -15 -21 -34.5t-32 -19.5q-14 0 -34 16t-19 29zM157 745q1 15 20.5 34.5t32.5 19.5q14 0 34 -15.5t19 -29.5q-1 -15 -21 -34.5t-32 -19.5q-14 0 -34 16t-19 29zM350 260l-65 264l-108 -264h173zM414 0
l-47 191h-219l-78 -191h-85l262 612h102l154 -612h-89z" />
    <glyph glyph-name="Aring" unicode="&#xc5;" horiz-adv-x="539" 
d="M399 753q-2 -36 -32.5 -62.5t-67.5 -26.5q-39 0 -64.5 24t-22.5 65q2 37 32.5 63.5t67.5 26.5q39 0 64.5 -24t22.5 -66zM260 753q-1 -20 11 -32.5t31 -12.5t33.5 12.5t15.5 32.5q1 21 -11.5 34t-31.5 13t-33 -13t-15 -34zM350 260l-65 264l-108 -264h173zM414 0l-47 191
h-219l-78 -191h-85l262 612h102l154 -612h-89z" />
    <glyph glyph-name="AE" unicode="&#xc6;" horiz-adv-x="729" 
d="M357 545l-163 -285h149l20 285h-6zM325 0l13 191h-184l-109 -191h-85l359 612h378l-15 -69l-232 3l-13 -194h215l-14 -67l-206 3l-15 -221l258 3l-15 -70h-335z" />
    <glyph glyph-name="Ccedilla" unicode="&#xc7;" horiz-adv-x="496" 
d="M342 -128q-3 -36 -43 -65.5t-117 -36.5l-8 43q51 6 76.5 15.5t26.5 29.5q1 14 -16.5 24.5t-56.5 21.5l-2 5l43 80q-92 6 -151.5 74t-59.5 190q0 99 30 180.5t98.5 136t165.5 54.5q80 0 152 -29l-25 -73q-93 32 -155 32q-77 0 -126.5 -69t-49.5 -218q0 -101 49.5 -154.5
t114.5 -53.5q60 0 146 31l16 -60q-89 -36 -158 -41l-23 -43q22 -10 31.5 -15.5t22 -14.5t16.5 -19.5t3 -24.5z" />
    <glyph glyph-name="Egrave" unicode="&#xc8;" horiz-adv-x="461" 
d="M364 661h-70l-139 128l90 17zM57 0l43 612h329l-15 -69l-232 3l-13 -194h215l-14 -67l-206 3l-15 -221l258 3l-15 -70h-335z" />
    <glyph glyph-name="Eacute" unicode="&#xc9;" horiz-adv-x="461" 
d="M178 661l139 145l88 -17l-157 -128h-70zM57 0l43 612h329l-15 -69l-232 3l-13 -194h215l-14 -67l-206 3l-15 -221l258 3l-15 -70h-335z" />
    <glyph glyph-name="Ecircumflex" unicode="&#xca;" horiz-adv-x="461" 
d="M361 661l-82 77l-92 -77h-67l134 145h60l114 -145h-67zM57 0l43 612h329l-15 -69l-232 3l-13 -194h215l-14 -67l-206 3l-15 -221l258 3l-15 -70h-335z" />
    <glyph glyph-name="Edieresis" unicode="&#xcb;" horiz-adv-x="461" 
d="M300 745q1 15 20.5 34.5t32.5 19.5q14 0 34 -15.5t19 -29.5q-1 -15 -21 -34.5t-32 -19.5q-14 0 -34 16t-19 29zM121 745q1 15 20.5 34.5t32.5 19.5q14 0 34 -15.5t19 -29.5q-1 -15 -21 -34.5t-32 -19.5q-14 0 -34 16t-19 29zM57 0l43 612h329l-15 -69l-232 3l-13 -194
h215l-14 -67l-206 3l-15 -221l258 3l-15 -70h-335z" />
    <glyph glyph-name="Igrave" unicode="&#xcc;" horiz-adv-x="246" 
d="M197 661h-70l-139 128l90 17zM187 612l-43 -612h-87l43 612h87z" />
    <glyph glyph-name="Iacute" unicode="&#xcd;" horiz-adv-x="246" 
d="M97 661l139 145l88 -17l-157 -128h-70zM187 612l-43 -612h-87l43 612h87z" />
    <glyph glyph-name="Icircumflex" unicode="&#xce;" horiz-adv-x="246" 
d="M241 661l-82 77l-92 -77h-67l134 145h60l114 -145h-67zM187 612l-43 -612h-87l43 612h87z" />
    <glyph glyph-name="Idieresis" unicode="&#xcf;" horiz-adv-x="246" 
d="M180 745q1 15 20.5 34.5t32.5 19.5q14 0 34 -15.5t19 -29.5q-1 -15 -21 -34.5t-32 -19.5q-14 0 -34 16t-19 29zM21 745q1 15 20.5 34.5t32.5 19.5q14 0 34 -15.5t19 -29.5q-1 -15 -21 -34.5t-32 -19.5q-14 0 -34 16t-19 29zM187 612l-43 -612h-87l43 612h87z" />
    <glyph glyph-name="Eth" unicode="&#xd0;" horiz-adv-x="576" 
d="M228 0h-162l20 281h-63v15l18 49h49l19 267h181q120 0 190.5 -70t70.5 -184q0 -167 -93 -262.5t-230 -95.5zM158 69h82q98 0 160 68.5t62 195.5q0 101 -52.5 155.5t-146.5 54.5h-72l-14 -198h160v-15l-18 -49h-146z" />
    <glyph glyph-name="Ntilde" unicode="&#xd1;" horiz-adv-x="602" 
d="M453 777l30 -35q-57 -69 -105 -69q-19 0 -63.5 16.5t-56.5 16.5q-26 0 -68 -35l-27 35q64 67 107 67q23 0 62.5 -15t52.5 -15q32 0 68 34zM428 0l-261 475l-33 -475h-77l42 612h83l254 -466l32 466h77l-43 -612h-74z" />
    <glyph glyph-name="Ograve" unicode="&#xd2;" horiz-adv-x="564" 
d="M406 661h-70l-139 128l90 17zM540 356q0 -94 -25.5 -167.5t-68 -116t-92 -63.5t-102.5 -21q-97 0 -157.5 71.5t-60.5 196.5q0 94 25.5 167.5t68 116t92 63.5t102.5 21q97 0 157.5 -71.5t60.5 -196.5zM287 57q70 0 117 68.5t47 205.5q0 119 -47 171.5t-119 52.5
q-69 0 -115 -68t-46 -206q0 -120 45.5 -172t117.5 -52z" />
    <glyph glyph-name="Oacute" unicode="&#xd3;" horiz-adv-x="564" 
d="M220 661l139 145l88 -17l-157 -128h-70zM540 356q0 -94 -25.5 -167.5t-68 -116t-92 -63.5t-102.5 -21q-97 0 -157.5 71.5t-60.5 196.5q0 94 25.5 167.5t68 116t92 63.5t102.5 21q97 0 157.5 -71.5t60.5 -196.5zM287 57q70 0 117 68.5t47 205.5q0 119 -47 171.5t-119 52.5
q-69 0 -115 -68t-46 -206q0 -120 45.5 -172t117.5 -52z" />
    <glyph glyph-name="Ocircumflex" unicode="&#xd4;" horiz-adv-x="564" 
d="M406 661l-82 77l-92 -77h-67l134 145h60l114 -145h-67zM540 356q0 -94 -25.5 -167.5t-68 -116t-92 -63.5t-102.5 -21q-97 0 -157.5 71.5t-60.5 196.5q0 94 25.5 167.5t68 116t92 63.5t102.5 21q97 0 157.5 -71.5t60.5 -196.5zM287 57q70 0 117 68.5t47 205.5
q0 119 -47 171.5t-119 52.5q-69 0 -115 -68t-46 -206q0 -120 45.5 -172t117.5 -52z" />
    <glyph glyph-name="Otilde" unicode="&#xd5;" horiz-adv-x="564" 
d="M445 777l30 -35q-57 -69 -105 -69q-19 0 -63.5 16.5t-56.5 16.5q-26 0 -68 -35l-27 35q64 67 107 67q23 0 62.5 -15t52.5 -15q32 0 68 34zM540 356q0 -94 -25.5 -167.5t-68 -116t-92 -63.5t-102.5 -21q-97 0 -157.5 71.5t-60.5 196.5q0 94 25.5 167.5t68 116t92 63.5
t102.5 21q97 0 157.5 -71.5t60.5 -196.5zM287 57q70 0 117 68.5t47 205.5q0 119 -47 171.5t-119 52.5q-69 0 -115 -68t-46 -206q0 -120 45.5 -172t117.5 -52z" />
    <glyph glyph-name="Odieresis" unicode="&#xd6;" horiz-adv-x="564" 
d="M352 745q1 15 20.5 34.5t32.5 19.5q14 0 34 -15.5t19 -29.5q-1 -15 -21 -34.5t-32 -19.5q-14 0 -34 16t-19 29zM173 745q1 15 20.5 34.5t32.5 19.5q14 0 34 -15.5t19 -29.5q-1 -15 -21 -34.5t-32 -19.5q-14 0 -34 16t-19 29zM540 356q0 -94 -25.5 -167.5t-68 -116
t-92 -63.5t-102.5 -21q-97 0 -157.5 71.5t-60.5 196.5q0 94 25.5 167.5t68 116t92 63.5t102.5 21q97 0 157.5 -71.5t60.5 -196.5zM287 57q70 0 117 68.5t47 205.5q0 119 -47 171.5t-119 52.5q-69 0 -115 -68t-46 -206q0 -120 45.5 -172t117.5 -52z" />
    <glyph glyph-name="multiply" unicode="&#xd7;" 
d="M361 99l-116 125l-133 -125l-39 43l133 124l-115 124l46 42l115 -123l132 123l40 -42l-133 -124l115 -124z" />
    <glyph glyph-name="Oslash" unicode="&#xd8;" horiz-adv-x="574" 
d="M124 281q0 -124 53 -180l178 439q-30 15 -70 15q-69 0 -115 -68t-46 -206zM287 57q70 0 117 68.5t47 205.5q0 115 -49 174l-178 -437q28 -11 63 -11zM252 -12q-32 0 -57 7l-32 -78h-61l41 100q-109 67 -109 239q0 94 25.5 167.5t68 116t92 63.5t102.5 21q34 0 63 -9
l32 78h61l-41 -102q103 -69 103 -235q0 -94 -25.5 -167.5t-68 -116t-92 -63.5t-102.5 -21z" />
    <glyph glyph-name="Ugrave" unicode="&#xd9;" horiz-adv-x="589" 
d="M400 661h-70l-139 128l90 17zM99 612h87q-27 -398 -27 -417q0 -69 36.5 -102.5t99.5 -33.5q60 0 93 35.5t39 115.5l27 402h84l-27 -392q-7 -114 -70.5 -173t-174.5 -59q-87 0 -142 46.5t-55 133.5q0 32 30 444z" />
    <glyph glyph-name="Uacute" unicode="&#xda;" horiz-adv-x="589" 
d="M194 661l139 145l88 -17l-157 -128h-70zM99 612h87q-27 -398 -27 -417q0 -69 36.5 -102.5t99.5 -33.5q60 0 93 35.5t39 115.5l27 402h84l-27 -392q-7 -114 -70.5 -173t-174.5 -59q-87 0 -142 46.5t-55 133.5q0 32 30 444z" />
    <glyph glyph-name="Ucircumflex" unicode="&#xdb;" horiz-adv-x="589" 
d="M402 661l-82 77l-92 -77h-67l134 145h60l114 -145h-67zM99 612h87q-27 -398 -27 -417q0 -69 36.5 -102.5t99.5 -33.5q60 0 93 35.5t39 115.5l27 402h84l-27 -392q-7 -114 -70.5 -173t-174.5 -59q-87 0 -142 46.5t-55 133.5q0 32 30 444z" />
    <glyph glyph-name="Udieresis" unicode="&#xdc;" horiz-adv-x="589" 
d="M346 745q1 15 20.5 34.5t32.5 19.5q14 0 34 -15.5t19 -29.5q-1 -15 -21 -34.5t-32 -19.5q-14 0 -34 16t-19 29zM167 745q1 15 20.5 34.5t32.5 19.5q14 0 34 -15.5t19 -29.5q-1 -15 -21 -34.5t-32 -19.5q-14 0 -34 16t-19 29zM99 612h87q-27 -398 -27 -417
q0 -69 36.5 -102.5t99.5 -33.5q60 0 93 35.5t39 115.5l27 402h84l-27 -392q-7 -114 -70.5 -173t-174.5 -59q-87 0 -142 46.5t-55 133.5q0 32 30 444z" />
    <glyph glyph-name="Yacute" unicode="&#xdd;" horiz-adv-x="504" 
d="M214 661l139 145l88 -17l-157 -128h-70zM284 0h-87l17 244l-178 368h95l139 -286l169 286h88l-226 -366z" />
    <glyph glyph-name="Thorn" unicode="&#xde;" horiz-adv-x="470" 
d="M233 442h-58l-18 -251h73q61 0 101.5 32.5t40.5 93.5q0 125 -139 125zM202 127h-49l-9 -127h-87l43 612h87l-8 -108h77q99 0 151.5 -42.5t52.5 -119.5q0 -95 -71 -155t-187 -60z" />
    <glyph glyph-name="germandbls" unicode="&#xdf;" horiz-adv-x="467" 
d="M281 -12q-41 0 -91 14l16 71q58 -23 106 -23q22 0 39 14t17 37q0 25 -16 48.5t-70 64.5q-63 48 -63 110q0 34 21.5 67t47 56t47 53.5t21.5 59.5q0 37 -26 62t-72 25q-87 0 -93 -132l-26 -513q-5 -102 -59 -167t-135 -65q-21 0 -40 7l16 67q26 -8 51 -8q35 0 57 27.5
t25 85.5l26 530q6 113 67 171t144 58q59 0 100.5 -36.5t41.5 -92.5q0 -30 -22 -62t-48.5 -55.5t-48.5 -51.5t-22 -50q0 -28 12 -48t52 -50q88 -68 89 -131q0 -60 -47.5 -101.5t-116.5 -41.5z" />
    <glyph glyph-name="agrave" unicode="&#xe0;" horiz-adv-x="440" 
d="M356 511h-70l-139 128l90 17zM290 -12l-4 118q-29 -55 -70 -86.5t-76 -31.5q-106 0 -106 176q0 122 62.5 210t160.5 88q79 0 131 -31l-30 -431zM177 55q35 0 72 53.5t48 162.5l8 113q-36 17 -72 17q-50 0 -82 -58.5t-32 -169.5q0 -57 15.5 -87.5t42.5 -30.5z" />
    <glyph glyph-name="aacute" unicode="&#xe1;" horiz-adv-x="440" 
d="M196 511l139 145l88 -17l-157 -128h-70zM290 -12l-4 118q-29 -55 -70 -86.5t-76 -31.5q-106 0 -106 176q0 122 62.5 210t160.5 88q79 0 131 -31l-30 -431zM177 55q35 0 72 53.5t48 162.5l8 113q-36 17 -72 17q-50 0 -82 -58.5t-32 -169.5q0 -57 15.5 -87.5t42.5 -30.5z
" />
    <glyph glyph-name="acircumflex" unicode="&#xe2;" horiz-adv-x="440" 
d="M348 511l-82 77l-92 -77h-67l134 145h60l114 -145h-67zM290 -12l-4 118q-29 -55 -70 -86.5t-76 -31.5q-106 0 -106 176q0 122 62.5 210t160.5 88q79 0 131 -31l-30 -431zM177 55q35 0 72 53.5t48 162.5l8 113q-36 17 -72 17q-50 0 -82 -58.5t-32 -169.5q0 -57 15.5 -87.5
t42.5 -30.5z" />
    <glyph glyph-name="atilde" unicode="&#xe3;" horiz-adv-x="440" 
d="M396 627l30 -35q-57 -69 -105 -69q-19 0 -63.5 16.5t-56.5 16.5q-26 0 -68 -35l-27 35q64 67 107 67q23 0 62.5 -15t52.5 -15q32 0 68 34zM290 -12l-4 118q-29 -55 -70 -86.5t-76 -31.5q-106 0 -106 176q0 122 62.5 210t160.5 88q79 0 131 -31l-30 -431zM177 55
q35 0 72 53.5t48 162.5l8 113q-36 17 -72 17q-50 0 -82 -58.5t-32 -169.5q0 -57 15.5 -87.5t42.5 -30.5z" />
    <glyph glyph-name="adieresis" unicode="&#xe4;" horiz-adv-x="440" 
d="M293 595q1 15 20.5 34.5t32.5 19.5q14 0 34 -15.5t19 -29.5q-1 -15 -21 -34.5t-32 -19.5q-14 0 -34 16t-19 29zM114 595q1 15 20.5 34.5t32.5 19.5q14 0 34 -15.5t19 -29.5q-1 -15 -21 -34.5t-32 -19.5q-14 0 -34 16t-19 29zM290 -12l-4 118q-29 -55 -70 -86.5t-76 -31.5
q-106 0 -106 176q0 122 62.5 210t160.5 88q79 0 131 -31l-30 -431zM177 55q35 0 72 53.5t48 162.5l8 113q-36 17 -72 17q-50 0 -82 -58.5t-32 -169.5q0 -57 15.5 -87.5t42.5 -30.5z" />
    <glyph glyph-name="aring" unicode="&#xe5;" horiz-adv-x="440" 
d="M350 603q-2 -36 -32.5 -62.5t-67.5 -26.5q-39 0 -64.5 24t-22.5 65q2 37 32.5 63.5t67.5 26.5q39 0 64.5 -24t22.5 -66zM211 603q-1 -20 11 -32.5t31 -12.5t33.5 12.5t15.5 32.5q1 21 -11.5 34t-31.5 13t-33 -13t-15 -34zM290 -12l-4 118q-29 -55 -70 -86.5t-76 -31.5
q-106 0 -106 176q0 122 62.5 210t160.5 88q79 0 131 -31l-30 -431zM177 55q35 0 72 53.5t48 162.5l8 113q-36 17 -72 17q-50 0 -82 -58.5t-32 -169.5q0 -57 15.5 -87.5t42.5 -30.5z" />
    <glyph glyph-name="ae" unicode="&#xe6;" horiz-adv-x="623" 
d="M433 -12q-54 0 -89.5 32t-46.5 93q-36 -62 -79.5 -93.5t-82.5 -31.5q-44 0 -72.5 41t-28.5 125q0 133 62.5 220.5t163.5 87.5q66 0 133 -36q45 36 99 36q51 0 80.5 -30t29.5 -72q0 -68 -67 -111t-157 -47v-19q0 -67 21 -98.5t53 -31.5q49 0 119 59l24 -44
q-82 -80 -162 -80zM473 405q-35 0 -59.5 -40.5t-32.5 -115.5q65 4 103.5 32t38.5 69q0 24 -13.5 39.5t-36.5 15.5zM176 55q26 0 59 35t58 97q4 109 50 182q-53 34 -106 34t-85.5 -62t-32.5 -178q0 -50 16 -79t41 -29z" />
    <glyph glyph-name="ccedilla" unicode="&#xe7;" horiz-adv-x="373" 
d="M262 -128q-3 -36 -43 -65.5t-117 -36.5l-8 43q51 6 76.5 15.5t26.5 29.5q1 14 -16.5 24.5t-56.5 21.5l-2 5l43 79q-60 2 -95 47t-35 138q0 133 59.5 211t140.5 78q70 0 120 -35l-30 -64q-65 39 -105 39q-31 0 -54.5 -35.5t-34 -81.5t-10.5 -91q0 -141 78 -141
q45 0 115 59l24 -44q-60 -56 -123 -73l-26 -49q22 -10 31.5 -15.5t22 -14.5t16.5 -19.5t3 -24.5z" />
    <glyph glyph-name="egrave" unicode="&#xe8;" horiz-adv-x="370" 
d="M320 511h-70l-139 128l90 17zM176 -12q-65 0 -102.5 46t-37.5 133q0 135 59 215t140 80q51 0 80.5 -30t29.5 -72q0 -68 -67 -111t-157 -47v-19q0 -67 21 -98.5t53 -31.5q49 0 119 59l24 -44q-82 -80 -162 -80zM216 405q-35 0 -59.5 -40.5t-32.5 -115.5q65 4 103.5 32
t38.5 69q0 24 -13.5 39.5t-36.5 15.5z" />
    <glyph glyph-name="eacute" unicode="&#xe9;" horiz-adv-x="370" 
d="M160 511l139 145l88 -17l-157 -128h-70zM176 -12q-65 0 -102.5 46t-37.5 133q0 135 59 215t140 80q51 0 80.5 -30t29.5 -72q0 -68 -67 -111t-157 -47v-19q0 -67 21 -98.5t53 -31.5q49 0 119 59l24 -44q-82 -80 -162 -80zM216 405q-35 0 -59.5 -40.5t-32.5 -115.5
q65 4 103.5 32t38.5 69q0 24 -13.5 39.5t-36.5 15.5z" />
    <glyph glyph-name="ecircumflex" unicode="&#xea;" horiz-adv-x="370" 
d="M312 511l-82 77l-92 -77h-67l134 145h60l114 -145h-67zM176 -12q-65 0 -102.5 46t-37.5 133q0 135 59 215t140 80q51 0 80.5 -30t29.5 -72q0 -68 -67 -111t-157 -47v-19q0 -67 21 -98.5t53 -31.5q49 0 119 59l24 -44q-82 -80 -162 -80zM216 405q-35 0 -59.5 -40.5
t-32.5 -115.5q65 4 103.5 32t38.5 69q0 24 -13.5 39.5t-36.5 15.5z" />
    <glyph glyph-name="edieresis" unicode="&#xeb;" horiz-adv-x="370" 
d="M267 595q1 15 20.5 34.5t32.5 19.5q14 0 34 -15.5t19 -29.5q-1 -15 -21 -34.5t-32 -19.5q-14 0 -34 16t-19 29zM88 595q1 15 20.5 34.5t32.5 19.5q14 0 34 -15.5t19 -29.5q-1 -15 -21 -34.5t-32 -19.5q-14 0 -34 16t-19 29zM176 -12q-65 0 -102.5 46t-37.5 133
q0 135 59 215t140 80q51 0 80.5 -30t29.5 -72q0 -68 -67 -111t-157 -47v-19q0 -67 21 -98.5t53 -31.5q49 0 119 59l24 -44q-82 -80 -162 -80zM216 405q-35 0 -59.5 -40.5t-32.5 -115.5q65 4 103.5 32t38.5 69q0 24 -13.5 39.5t-36.5 15.5z" />
    <glyph glyph-name="igrave" unicode="&#xec;" horiz-adv-x="215" 
d="M175 512h-70l-139 128l90 17zM166 462l-33 -462h-81l32 448z" />
    <glyph glyph-name="iacute" unicode="&#xed;" horiz-adv-x="215" 
d="M85 512l139 145l88 -17l-157 -128h-70zM166 462l-33 -462h-81l32 448z" />
    <glyph glyph-name="icircumflex" unicode="&#xee;" horiz-adv-x="215" 
d="M217 512l-82 77l-92 -77h-67l134 145h60l114 -145h-67zM166 462l-33 -462h-81l32 448z" />
    <glyph glyph-name="idieresis" unicode="&#xef;" horiz-adv-x="215" 
d="M162 595q1 15 20.5 34.5t32.5 19.5q14 0 34 -15.5t19 -29.5q-1 -15 -21 -34.5t-32 -19.5q-14 0 -34 16t-19 29zM3 595q1 15 20.5 34.5t32.5 19.5q14 0 34 -15.5t19 -29.5q-1 -15 -21 -34.5t-32 -19.5q-14 0 -34 16t-19 29zM166 462l-33 -462h-81l32 448z" />
    <glyph glyph-name="eth" unicode="&#xf0;" horiz-adv-x="419" 
d="M161 -12q-55 0 -90.5 47t-35.5 136q0 125 65 208t143 83q27 0 54 -8q-17 73 -63 124l-98 -52l-33 37l95 50q-32 28 -80 54l41 38q57 -29 97 -61l94 50l33 -37l-89 -47q96 -100 96 -277q0 -152 -75 -248.5t-154 -96.5zM189 55q39 0 80 73.5t41 189.5q0 46 -2 68
q-43 13 -79 13q-48 0 -78 -51t-30 -159q0 -134 68 -134z" />
    <glyph glyph-name="ntilde" unicode="&#xf1;" horiz-adv-x="455" 
d="M387 627l30 -35q-57 -69 -105 -69q-19 0 -63.5 16.5t-56.5 16.5q-26 0 -68 -35l-27 35q64 67 107 67q23 0 62.5 -15t52.5 -15q32 0 68 34zM270 392q-32 0 -70.5 -52t-51.5 -149l-14 -191h-82l31 448l69 14l5 -130q72 130 155 130q91 0 91 -118q0 -35 -7 -106t-16 -150.5
t-10 -87.5h-82q1 15 9 83.5t14 133.5t6 91q0 46 -10.5 65t-36.5 19z" />
    <glyph glyph-name="ograve" unicode="&#xf2;" horiz-adv-x="438" 
d="M340 511h-70l-139 128l90 17zM402 269q0 -69 -22 -131t-72.5 -106t-120.5 -44q-68 0 -109.5 50t-41.5 143q0 69 22 131t72.5 106t120.5 44q68 0 109.5 -50t41.5 -143zM213 44q30 0 52 22.5t32.5 59t15 71t4.5 69.5q0 140 -92 140q-40 0 -65 -41.5t-32 -87t-7 -93.5
q0 -140 92 -140z" />
    <glyph glyph-name="oacute" unicode="&#xf3;" horiz-adv-x="438" 
d="M190 511l139 145l88 -17l-157 -128h-70zM402 269q0 -69 -22 -131t-72.5 -106t-120.5 -44q-68 0 -109.5 50t-41.5 143q0 69 22 131t72.5 106t120.5 44q68 0 109.5 -50t41.5 -143zM213 44q30 0 52 22.5t32.5 59t15 71t4.5 69.5q0 140 -92 140q-40 0 -65 -41.5t-32 -87
t-7 -93.5q0 -140 92 -140z" />
    <glyph glyph-name="ocircumflex" unicode="&#xf4;" horiz-adv-x="438" 
d="M342 511l-82 77l-92 -77h-67l134 145h60l114 -145h-67zM402 269q0 -69 -22 -131t-72.5 -106t-120.5 -44q-68 0 -109.5 50t-41.5 143q0 69 22 131t72.5 106t120.5 44q68 0 109.5 -50t41.5 -143zM213 44q30 0 52 22.5t32.5 59t15 71t4.5 69.5q0 140 -92 140
q-40 0 -65 -41.5t-32 -87t-7 -93.5q0 -140 92 -140z" />
    <glyph glyph-name="otilde" unicode="&#xf5;" horiz-adv-x="438" 
d="M390 627l30 -35q-57 -69 -105 -69q-19 0 -63.5 16.5t-56.5 16.5q-26 0 -68 -35l-27 35q64 67 107 67q23 0 62.5 -15t52.5 -15q32 0 68 34zM402 269q0 -69 -22 -131t-72.5 -106t-120.5 -44q-68 0 -109.5 50t-41.5 143q0 69 22 131t72.5 106t120.5 44q68 0 109.5 -50
t41.5 -143zM213 44q30 0 52 22.5t32.5 59t15 71t4.5 69.5q0 140 -92 140q-40 0 -65 -41.5t-32 -87t-7 -93.5q0 -140 92 -140z" />
    <glyph glyph-name="odieresis" unicode="&#xf6;" horiz-adv-x="438" 
d="M287 595q1 15 20.5 34.5t32.5 19.5q14 0 34 -15.5t19 -29.5q-1 -15 -21 -34.5t-32 -19.5q-14 0 -34 16t-19 29zM108 595q1 15 20.5 34.5t32.5 19.5q14 0 34 -15.5t19 -29.5q-1 -15 -21 -34.5t-32 -19.5q-14 0 -34 16t-19 29zM402 269q0 -69 -22 -131t-72.5 -106
t-120.5 -44q-68 0 -109.5 50t-41.5 143q0 69 22 131t72.5 106t120.5 44q68 0 109.5 -50t41.5 -143zM213 44q30 0 52 22.5t32.5 59t15 71t4.5 69.5q0 140 -92 140q-40 0 -65 -41.5t-32 -87t-7 -93.5q0 -140 92 -140z" />
    <glyph glyph-name="divide" unicode="&#xf7;" 
d="M200 419q1 19 23 40.5t39 21.5q19 0 40.5 -17.5t20.5 -35.5t-23.5 -39.5t-39.5 -21.5q-18 0 -39.5 17t-20.5 35zM464 295l-4 -61h-426l4 61h426zM178 101q1 18 23 40t39 22t39.5 -17.5t21.5 -35.5t-23.5 -39.5t-39.5 -21.5t-39 17t-21 35z" />
    <glyph glyph-name="oslash" unicode="&#xf8;" horiz-adv-x="438" 
d="M117 184q0 -64 22 -100l123 314q-18 8 -37 8q-40 0 -66 -41.5t-34 -88t-8 -92.5zM213 44q30 0 52.5 22.5t34 58.5t16.5 71.5t5 69.5q0 61 -21 97l-122 -312q14 -7 35 -7zM187 -12q-17 0 -33 3l-24 -62h-51l31 80q-74 46 -74 172q0 69 22 131t72.5 106t120.5 44
q20 0 35 -4l25 65h51l-32 -83q72 -47 72 -171q0 -69 -22 -131t-72.5 -106t-120.5 -44z" />
    <glyph glyph-name="ugrave" unicode="&#xf9;" horiz-adv-x="453" 
d="M332 511h-70l-139 128l90 17zM302 -12l-5 132q-72 -132 -155 -132q-90 0 -90 118q0 35 7 106t16 149t10 87l83 13q-1 -14 -9 -86t-14.5 -139.5t-6.5 -93.5q0 -46 10.5 -65t35.5 -19q33 0 72 55t50 158l13 177l82 14l-31 -462z" />
    <glyph glyph-name="uacute" unicode="&#xfa;" horiz-adv-x="453" 
d="M182 511l139 145l88 -17l-157 -128h-70zM302 -12l-5 132q-72 -132 -155 -132q-90 0 -90 118q0 35 7 106t16 149t10 87l83 13q-1 -14 -9 -86t-14.5 -139.5t-6.5 -93.5q0 -46 10.5 -65t35.5 -19q33 0 72 55t50 158l13 177l82 14l-31 -462z" />
    <glyph glyph-name="ucircumflex" unicode="&#xfb;" horiz-adv-x="453" 
d="M337 511l-82 77l-92 -77h-67l134 145h60l114 -145h-67zM302 -12l-5 132q-72 -132 -155 -132q-90 0 -90 118q0 35 7 106t16 149t10 87l83 13q-1 -14 -9 -86t-14.5 -139.5t-6.5 -93.5q0 -46 10.5 -65t35.5 -19q33 0 72 55t50 158l13 177l82 14l-31 -462z" />
    <glyph glyph-name="udieresis" unicode="&#xfc;" horiz-adv-x="453" 
d="M290 595q1 15 20.5 34.5t32.5 19.5q14 0 34 -15.5t19 -29.5q-1 -15 -21 -34.5t-32 -19.5q-14 0 -34 16t-19 29zM111 595q1 15 20.5 34.5t32.5 19.5q14 0 34 -15.5t19 -29.5q-1 -15 -21 -34.5t-32 -19.5q-14 0 -34 16t-19 29zM302 -12l-5 132q-72 -132 -155 -132
q-90 0 -90 118q0 35 7 106t16 149t10 87l83 13q-1 -14 -9 -86t-14.5 -139.5t-6.5 -93.5q0 -46 10.5 -65t35.5 -19q33 0 72 55t50 158l13 177l82 14l-31 -462z" />
    <glyph glyph-name="yacute" unicode="&#xfd;" horiz-adv-x="411" 
d="M182 511l139 145l88 -17l-157 -128h-70zM-52 -230q-23 0 -53 6l10 75q29 -6 62 -6q110 0 199 143h-36l-66 457l81 16l57 -408q79 162 111 397h76q-6 -68 -25 -152t-56 -178.5t-86 -171.5t-121 -127.5t-153 -50.5z" />
    <glyph glyph-name="thorn" unicode="&#xfe;" horiz-adv-x="452" 
d="M228 50q45 0 74 56t29 163q0 126 -59 126q-36 0 -79 -69t-51 -186v2l-5 -74q50 -18 91 -18zM117 -216l-82 -14l63 909l82 14l-25 -362q71 131 151 131q111 0 111 -183q0 -121 -64.5 -206t-140.5 -85q-39 0 -80 12z" />
    <glyph glyph-name="ydieresis" unicode="&#xff;" horiz-adv-x="411" 
d="M278 595q1 15 20.5 34.5t32.5 19.5q14 0 34 -15.5t19 -29.5q-1 -15 -21 -34.5t-32 -19.5q-14 0 -34 16t-19 29zM99 595q1 15 20.5 34.5t32.5 19.5q14 0 34 -15.5t19 -29.5q-1 -15 -21 -34.5t-32 -19.5q-14 0 -34 16t-19 29zM-52 -230q-23 0 -53 6l10 75q29 -6 62 -6
q110 0 199 143h-36l-66 457l81 16l57 -408q79 162 111 397h76q-6 -68 -25 -152t-56 -178.5t-86 -171.5t-121 -127.5t-153 -50.5z" />
    <glyph glyph-name="Amacron" unicode="&#x100;" horiz-adv-x="539" 
d="M434 765l-1 -15l-21 -46h-245l1 15l21 46h245zM350 260l-65 264l-108 -264h173zM414 0l-47 191h-219l-78 -191h-85l262 612h102l154 -612h-89z" />
    <glyph glyph-name="amacron" unicode="&#x101;" horiz-adv-x="440" 
d="M395 615l-1 -15l-21 -46h-245l1 15l21 46h245zM290 -12l-4 118q-29 -55 -70 -86.5t-76 -31.5q-106 0 -106 176q0 122 62.5 210t160.5 88q79 0 131 -31l-30 -431zM177 55q35 0 72 53.5t48 162.5l8 113q-36 17 -72 17q-50 0 -82 -58.5t-32 -169.5q0 -57 15.5 -87.5
t42.5 -30.5z" />
    <glyph glyph-name="Abreve" unicode="&#x102;" horiz-adv-x="539" 
d="M303 728q76 0 99 89h50q-4 -63 -51 -109t-107 -46q-65 0 -98 44.5t-29 110.5h50q12 -89 86 -89zM350 260l-65 264l-108 -264h173zM414 0l-47 191h-219l-78 -191h-85l262 612h102l154 -612h-89z" />
    <glyph glyph-name="abreve" unicode="&#x103;" horiz-adv-x="440" 
d="M260 578q76 0 99 89h50q-4 -63 -51 -109t-107 -46q-65 0 -98 44.5t-29 110.5h50q12 -89 86 -89zM290 -12l-4 118q-29 -55 -70 -86.5t-76 -31.5q-106 0 -106 176q0 122 62.5 210t160.5 88q79 0 131 -31l-30 -431zM177 55q35 0 72 53.5t48 162.5l8 113q-36 17 -72 17
q-50 0 -82 -58.5t-32 -169.5q0 -57 15.5 -87.5t42.5 -30.5z" />
    <glyph glyph-name="Aogonek" unicode="&#x104;" horiz-adv-x="539" 
d="M350 260l-65 264l-108 -264h173zM436 0h-22l-47 191h-219l-78 -191h-85l262 612h102l154 -612h-10q-44 -31 -72.5 -64.5t-29.5 -61.5q-1 -19 10.5 -30t29.5 -11q16 0 42 13l11 -41q-40 -21 -76 -21q-40 0 -60 22t-18 59q3 37 34.5 73.5t71.5 61.5z" />
    <glyph glyph-name="aogonek" unicode="&#x105;" horiz-adv-x="440" 
d="M272 -216q-40 0 -60 22t-18 59q5 65 96 128l-4 113q-29 -55 -70 -86.5t-76 -31.5q-106 0 -106 176q0 122 62.5 210t160.5 88q79 0 131 -31l-30 -431h-1q-44 -31 -72.5 -64.5t-29.5 -61.5q-1 -19 10.5 -30t29.5 -11q16 0 42 13l11 -41q-40 -21 -76 -21zM177 55
q35 0 72 53.5t48 162.5l8 113q-36 17 -72 17q-50 0 -82 -58.5t-32 -169.5q0 -57 15.5 -87.5t42.5 -30.5z" />
    <glyph glyph-name="Cacute" unicode="&#x106;" horiz-adv-x="496" 
d="M225 661l139 145l88 -17l-157 -128h-70zM434 90l16 -60q-107 -42 -186 -42q-99 0 -164.5 68.5t-65.5 196.5q0 99 30 180.5t98.5 136t165.5 54.5q80 0 152 -29l-25 -73q-93 32 -155 32q-77 0 -126.5 -69t-49.5 -218q0 -101 49.5 -154.5t114.5 -53.5q60 0 146 31z" />
    <glyph glyph-name="cacute" unicode="&#x107;" horiz-adv-x="373" 
d="M184 511l139 145l88 -17l-157 -128h-70zM314 112l24 -44q-88 -80 -168 -80q-62 0 -98.5 45t-36.5 140q0 133 59.5 211t140.5 78q70 0 120 -35l-30 -64q-65 39 -105 39q-31 0 -54.5 -35.5t-34 -81.5t-10.5 -91q0 -141 78 -141q45 0 115 59z" />
    <glyph glyph-name="Ccircumflex" unicode="&#x108;" horiz-adv-x="496" 
d="M419 661l-82 77l-92 -77h-67l134 145h60l114 -145h-67zM434 90l16 -60q-107 -42 -186 -42q-99 0 -164.5 68.5t-65.5 196.5q0 99 30 180.5t98.5 136t165.5 54.5q80 0 152 -29l-25 -73q-93 32 -155 32q-77 0 -126.5 -69t-49.5 -218q0 -101 49.5 -154.5t114.5 -53.5
q60 0 146 31z" />
    <glyph glyph-name="ccircumflex" unicode="&#x109;" horiz-adv-x="373" 
d="M331 511l-82 77l-92 -77h-67l134 145h60l114 -145h-67zM314 112l24 -44q-88 -80 -168 -80q-62 0 -98.5 45t-36.5 140q0 133 59.5 211t140.5 78q70 0 120 -35l-30 -64q-65 39 -105 39q-31 0 -54.5 -35.5t-34 -81.5t-10.5 -91q0 -141 78 -141q45 0 115 59z" />
    <glyph glyph-name="Cdotaccent" unicode="&#x10a;" horiz-adv-x="496" 
d="M272 740q1 16 23 38t37 22t37 -17.5t21 -33.5t-23.5 -37.5t-36.5 -21.5q-16 0 -37.5 17.5t-20.5 32.5zM434 90l16 -60q-107 -42 -186 -42q-99 0 -164.5 68.5t-65.5 196.5q0 99 30 180.5t98.5 136t165.5 54.5q80 0 152 -29l-25 -73q-93 32 -155 32q-77 0 -126.5 -69
t-49.5 -218q0 -101 49.5 -154.5t114.5 -53.5q60 0 146 31z" />
    <glyph glyph-name="cdotaccent" unicode="&#x10b;" horiz-adv-x="373" 
d="M179 590q1 16 23 38t37 22t37 -17.5t21 -33.5t-23.5 -37.5t-36.5 -21.5q-16 0 -37.5 17.5t-20.5 32.5zM314 112l24 -44q-88 -80 -168 -80q-62 0 -98.5 45t-36.5 140q0 133 59.5 211t140.5 78q70 0 120 -35l-30 -64q-65 39 -105 39q-31 0 -54.5 -35.5t-34 -81.5t-10.5 -91
q0 -141 78 -141q45 0 115 59z" />
    <glyph glyph-name="Ccaron" unicode="&#x10c;" horiz-adv-x="496" 
d="M345 665h-60l-114 145h67l82 -77l92 77h67zM434 90l16 -60q-107 -42 -186 -42q-99 0 -164.5 68.5t-65.5 196.5q0 99 30 180.5t98.5 136t165.5 54.5q80 0 152 -29l-25 -73q-93 32 -155 32q-77 0 -126.5 -69t-49.5 -218q0 -101 49.5 -154.5t114.5 -53.5q60 0 146 31z" />
    <glyph glyph-name="ccaron" unicode="&#x10d;" horiz-adv-x="373" 
d="M268 515h-60l-114 145h67l82 -77l92 77h67zM314 112l24 -44q-88 -80 -168 -80q-62 0 -98.5 45t-36.5 140q0 133 59.5 211t140.5 78q70 0 120 -35l-30 -64q-65 39 -105 39q-31 0 -54.5 -35.5t-34 -81.5t-10.5 -91q0 -141 78 -141q45 0 115 59z" />
    <glyph glyph-name="Dcaron" unicode="&#x10e;" horiz-adv-x="567" 
d="M309 665h-60l-114 145h67l82 -77l92 77h67zM100 612h181q120 0 190.5 -70t70.5 -184q0 -167 -93 -262.5t-230 -95.5h-162zM182 543l-33 -474h82q98 0 160 68.5t62 195.5q0 101 -52.5 155.5t-146.5 54.5h-72z" />
    <glyph glyph-name="dcaron" unicode="&#x10f;" horiz-adv-x="532" 
d="M480 661q2 12 19.5 22t33.5 10q15 0 26 -25.5t9 -52.5q-4 -51 -83 -152l-34 22q45 70 47 101q1 20 -8.5 45.5t-9.5 29.5zM304 -12l-6 132q-71 -132 -152 -132q-111 0 -111 183q0 121 64.5 206t140.5 85q42 0 80 -11l17 227l82 14l-47 -692zM180 55q36 0 79 69t51 186
l5 72q-47 17 -92 17t-73.5 -55.5t-28.5 -162.5q0 -126 59 -126z" />
    <glyph glyph-name="Dcroat" unicode="&#x110;" horiz-adv-x="577" 
d="M229 0h-162l20 281h-64v15l18 49h50l19 267h181q120 0 190.5 -70t70.5 -184q0 -167 -93 -262.5t-230 -95.5zM159 69h82q98 0 160 68.5t62 195.5q0 101 -52.5 155.5t-146.5 54.5h-72l-14 -198h159v-15l-18 -49h-145z" />
    <glyph glyph-name="dcroat" unicode="&#x111;" horiz-adv-x="454" 
d="M304 -12l-6 132q-71 -132 -152 -132q-111 0 -111 183q0 121 64.5 206t140.5 85q42 0 80 -11l8 101h-130l2 15l20 37h112l5 74l82 14l-6 -88h70l-2 -15l-20 -37h-52l-37 -552zM180 55q36 0 79 69t51 186l5 72q-47 17 -92 17t-73.5 -55.5t-28.5 -162.5q0 -126 59 -126z" />
    <glyph glyph-name="Emacron" unicode="&#x112;" horiz-adv-x="461" 
d="M406 765l-1 -15l-21 -46h-245l1 15l21 46h245zM57 0l43 612h329l-15 -69l-232 3l-13 -194h215l-14 -67l-206 3l-15 -221l258 3l-15 -70h-335z" />
    <glyph glyph-name="emacron" unicode="&#x113;" horiz-adv-x="370" 
d="M369 615l-1 -15l-21 -46h-245l1 15l21 46h245zM176 -12q-65 0 -102.5 46t-37.5 133q0 135 59 215t140 80q51 0 80.5 -30t29.5 -72q0 -68 -67 -111t-157 -47v-19q0 -67 21 -98.5t53 -31.5q49 0 119 59l24 -44q-82 -80 -162 -80zM216 405q-35 0 -59.5 -40.5t-32.5 -115.5
q65 4 103.5 32t38.5 69q0 24 -13.5 39.5t-36.5 15.5z" />
    <glyph glyph-name="Ebreve" unicode="&#x114;" horiz-adv-x="461" 
d="M267 728q76 0 99 89h50q-4 -63 -51 -109t-107 -46q-65 0 -98 44.5t-29 110.5h50q12 -89 86 -89zM57 0l43 612h329l-15 -69l-232 3l-13 -194h215l-14 -67l-206 3l-15 -221l258 3l-15 -70h-335z" />
    <glyph glyph-name="ebreve" unicode="&#x115;" horiz-adv-x="370" 
d="M224 578q76 0 99 89h50q-4 -63 -51 -109t-107 -46q-65 0 -98 44.5t-29 110.5h50q12 -89 86 -89zM176 -12q-65 0 -102.5 46t-37.5 133q0 135 59 215t140 80q51 0 80.5 -30t29.5 -72q0 -68 -67 -111t-157 -47v-19q0 -67 21 -98.5t53 -31.5q49 0 119 59l24 -44
q-82 -80 -162 -80zM216 405q-35 0 -59.5 -40.5t-32.5 -115.5q65 4 103.5 32t38.5 69q0 24 -13.5 39.5t-36.5 15.5z" />
    <glyph glyph-name="Edotaccent" unicode="&#x116;" horiz-adv-x="461" 
d="M220 740q1 16 23 38t37 22t37 -17.5t21 -33.5t-23.5 -37.5t-36.5 -21.5q-16 0 -37.5 17.5t-20.5 32.5zM57 0l43 612h329l-15 -69l-232 3l-13 -194h215l-14 -67l-206 3l-15 -221l258 3l-15 -70h-335z" />
    <glyph glyph-name="edotaccent" unicode="&#x117;" horiz-adv-x="370" 
d="M161 590q1 16 23 38t37 22t37 -17.5t21 -33.5t-23.5 -37.5t-36.5 -21.5q-16 0 -37.5 17.5t-20.5 32.5zM176 -12q-65 0 -102.5 46t-37.5 133q0 135 59 215t140 80q51 0 80.5 -30t29.5 -72q0 -68 -67 -111t-157 -47v-19q0 -67 21 -98.5t53 -31.5q49 0 119 59l24 -44
q-82 -80 -162 -80zM216 405q-35 0 -59.5 -40.5t-32.5 -115.5q65 4 103.5 32t38.5 69q0 24 -13.5 39.5t-36.5 15.5z" />
    <glyph glyph-name="Eogonek" unicode="&#x118;" horiz-adv-x="461" 
d="M57 0l43 612h329l-15 -69l-232 3l-13 -194h215l-14 -67l-206 3l-15 -221l258 3l-15 -70h-335zM219 -135q3 37 34.5 73.5t71.5 61.5h57q-44 -31 -72.5 -64.5t-29.5 -61.5q-1 -19 10.5 -30t29.5 -11q16 0 42 13l11 -41q-40 -21 -76 -21q-40 0 -60 22t-18 59z" />
    <glyph glyph-name="eogonek" unicode="&#x119;" horiz-adv-x="370" 
d="M220 -176q-40 0 -60 22t-18 59q3 41 43 83h-9q-65 0 -102.5 46t-37.5 133q0 135 59 215t140 80q51 0 80.5 -30t29.5 -72q0 -68 -67 -111t-157 -47v-19q0 -67 21 -98.5t53 -31.5q49 0 119 59l24 -44q-27 -25 -49 -39q-83 -64 -86 -115q-1 -19 10.5 -30t29.5 -11
q16 0 42 13l11 -41q-40 -21 -76 -21zM216 405q-35 0 -59.5 -40.5t-32.5 -115.5q65 4 103.5 32t38.5 69q0 24 -13.5 39.5t-36.5 15.5z" />
    <glyph glyph-name="Ecaron" unicode="&#x11a;" horiz-adv-x="461" 
d="M299 665h-60l-114 145h67l82 -77l92 77h67zM57 0l43 612h329l-15 -69l-232 3l-13 -194h215l-14 -67l-206 3l-15 -221l258 3l-15 -70h-335z" />
    <glyph glyph-name="ecaron" unicode="&#x11b;" horiz-adv-x="370" 
d="M252 515h-60l-114 145h67l82 -77l92 77h67zM176 -12q-65 0 -102.5 46t-37.5 133q0 135 59 215t140 80q51 0 80.5 -30t29.5 -72q0 -68 -67 -111t-157 -47v-19q0 -67 21 -98.5t53 -31.5q49 0 119 59l24 -44q-82 -80 -162 -80zM216 405q-35 0 -59.5 -40.5t-32.5 -115.5
q65 4 103.5 32t38.5 69q0 24 -13.5 39.5t-36.5 15.5z" />
    <glyph glyph-name="Gcircumflex" unicode="&#x11c;" horiz-adv-x="547" 
d="M429 661l-82 77l-92 -77h-67l134 145h60l114 -145h-67zM477 37q-98 -49 -207 -49q-99 0 -167.5 68.5t-68.5 197.5q0 160 80 265t226 105q100 0 173 -33l-27 -78q-98 41 -179 41q-87 0 -135 -74t-48 -205q0 -111 50.5 -163.5t121.5 -52.5q47 0 104 15l17 230h80z" />
    <glyph glyph-name="gcircumflex" unicode="&#x11d;" horiz-adv-x="380" 
d="M196 232q74 0 74 90q0 41 -22.5 64.5t-55.5 23.5q-71 0 -71 -89q0 -39 22 -64t53 -25zM351 -46q0 -58 -67.5 -104.5t-145.5 -46.5q-72 0 -112.5 26t-40.5 68q0 58 82 113l52 34q-30 16 -41.5 30.5t-12.5 32.5q1 39 63 80q-83 27 -83 117q0 69 47 113.5t122 44.5
q32 0 63 -13l43 62h-30l-82 77l-92 -77h-67l134 145h60l94 -120l7 10l48 -48l-9 -20l-73 -51q36 -36 36 -88q0 -67 -47.5 -113t-121.5 -46h-3q-38 -25 -38 -45q0 -13 25 -27t87 -40q56 -23 79.5 -48.5t23.5 -65.5zM168 -138q46 0 79 20.5t33 51.5q0 25 -24.5 44t-82.5 42
q-14 6 -20 8l-34 -25q-33 -24 -46.5 -40t-13.5 -39q0 -26 28.5 -44t80.5 -18z" />
    <glyph glyph-name="Gbreve" unicode="&#x11e;" horiz-adv-x="547" 
d="M336 728q76 0 99 89h50q-4 -63 -51 -109t-107 -46q-65 0 -98 44.5t-29 110.5h50q12 -89 86 -89zM477 37q-98 -49 -207 -49q-99 0 -167.5 68.5t-68.5 197.5q0 160 80 265t226 105q100 0 173 -33l-27 -78q-98 41 -179 41q-87 0 -135 -74t-48 -205q0 -111 50.5 -163.5
t121.5 -52.5q47 0 104 15l17 230h80z" />
    <glyph glyph-name="gbreve" unicode="&#x11f;" horiz-adv-x="380" 
d="M202 578q76 0 99 89h50q-4 -63 -51 -109t-107 -46q-65 0 -98 44.5t-29 110.5h50q12 -89 86 -89zM196 232q74 0 74 90q0 41 -22.5 64.5t-55.5 23.5q-71 0 -71 -89q0 -39 22 -64t53 -25zM351 -46q0 -58 -67.5 -104.5t-145.5 -46.5q-72 0 -112.5 26t-40.5 68q0 58 82 113
l52 34q-30 16 -41.5 30.5t-12.5 32.5q1 39 63 80q-83 27 -83 117q0 69 47 113.5t122 44.5q32 0 63 -13l67 97l48 -48l-9 -20l-73 -51q36 -36 36 -88q0 -67 -47.5 -113t-121.5 -46h-3q-38 -25 -38 -45q0 -13 25 -27t87 -40q56 -23 79.5 -48.5t23.5 -65.5zM168 -138
q46 0 79 20.5t33 51.5q0 25 -24.5 44t-82.5 42q-14 6 -20 8l-34 -25q-33 -24 -46.5 -40t-13.5 -39q0 -26 28.5 -44t80.5 -18z" />
    <glyph glyph-name="Gdotaccent" unicode="&#x120;" horiz-adv-x="547" 
d="M275 740q1 16 23 38t37 22t37 -17.5t21 -33.5t-23.5 -37.5t-36.5 -21.5q-16 0 -37.5 17.5t-20.5 32.5zM477 37q-98 -49 -207 -49q-99 0 -167.5 68.5t-68.5 197.5q0 160 80 265t226 105q100 0 173 -33l-27 -78q-98 41 -179 41q-87 0 -135 -74t-48 -205q0 -111 50.5 -163.5
t121.5 -52.5q47 0 104 15l17 230h80z" />
    <glyph glyph-name="gdotaccent" unicode="&#x121;" horiz-adv-x="380" 
d="M146 590q1 16 23 38t37 22t37 -17.5t21 -33.5t-23.5 -37.5t-36.5 -21.5q-16 0 -37.5 17.5t-20.5 32.5zM196 232q74 0 74 90q0 41 -22.5 64.5t-55.5 23.5q-71 0 -71 -89q0 -39 22 -64t53 -25zM351 -46q0 -58 -67.5 -104.5t-145.5 -46.5q-72 0 -112.5 26t-40.5 68
q0 58 82 113l52 34q-30 16 -41.5 30.5t-12.5 32.5q1 39 63 80q-83 27 -83 117q0 69 47 113.5t122 44.5q32 0 63 -13l67 97l48 -48l-9 -20l-73 -51q36 -36 36 -88q0 -67 -47.5 -113t-121.5 -46h-3q-38 -25 -38 -45q0 -13 25 -27t87 -40q56 -23 79.5 -48.5t23.5 -65.5z
M168 -138q46 0 79 20.5t33 51.5q0 25 -24.5 44t-82.5 42q-14 6 -20 8l-34 -25q-33 -24 -46.5 -40t-13.5 -39q0 -26 28.5 -44t80.5 -18z" />
    <glyph glyph-name="Gcommaaccent" unicode="&#x122;" horiz-adv-x="547" 
d="M477 37q-98 -49 -207 -49q-99 0 -167.5 68.5t-68.5 197.5q0 160 80 265t226 105q100 0 173 -33l-27 -78q-98 41 -179 41q-87 0 -135 -74t-48 -205q0 -111 50.5 -163.5t121.5 -52.5q47 0 104 15l17 230h80zM223 -84q2 14 17 27t30 13t33.5 -21.5t17.5 -39.5
q-2 -31 -71 -143l-43 17q42 76 44 99q0 4 -14.5 20.5t-13.5 27.5z" />
    <glyph glyph-name="gcommaaccent" unicode="&#x123;" horiz-adv-x="380" 
d="M262 550q-2 -14 -17 -27t-30 -13t-33.5 21.5t-17.5 39.5q2 31 71 143l43 -17q-42 -76 -44 -99q0 -4 14.5 -20.5t13.5 -27.5zM196 232q74 0 74 90q0 41 -22.5 64.5t-55.5 23.5q-71 0 -71 -89q0 -39 22 -64t53 -25zM351 -46q0 -58 -67.5 -104.5t-145.5 -46.5
q-72 0 -112.5 26t-40.5 68q0 58 82 113l52 34q-30 16 -41.5 30.5t-12.5 32.5q1 39 63 80q-83 27 -83 117q0 69 47 113.5t122 44.5q32 0 63 -13l67 97l48 -48l-9 -20l-73 -51q36 -36 36 -88q0 -67 -47.5 -113t-121.5 -46h-3q-38 -25 -38 -45q0 -13 25 -27t87 -40
q56 -23 79.5 -48.5t23.5 -65.5zM168 -138q46 0 79 20.5t33 51.5q0 25 -24.5 44t-82.5 42q-14 6 -20 8l-34 -25q-33 -24 -46.5 -40t-13.5 -39q0 -26 28.5 -44t80.5 -18z" />
    <glyph glyph-name="Hcircumflex" unicode="&#x124;" horiz-adv-x="586" 
d="M416 661l-82 77l-92 -77h-67l134 145h60l114 -145h-67zM405 0l20 284h-261l-20 -284h-87l43 612h87l-18 -259h261l18 259h87l-43 -612h-87z" />
    <glyph glyph-name="hcircumflex" unicode="&#x125;" horiz-adv-x="454" 
d="M239 696l-82 77l-92 -77h-67l134 145h60l114 -145h-67zM146 167v5l-12 -172h-82l47 679l82 14l-25 -363q72 132 156 132q91 0 91 -118q0 -35 -7 -106t-16 -150.5t-10 -87.5h-82q1 15 9 83.5t14 133.5t6 91q0 46 -10.5 65t-36.5 19q-34 0 -74.5 -58t-49.5 -167z" />
    <glyph glyph-name="Hbar" unicode="&#x126;" horiz-adv-x="605" 
d="M439 353l6 94h-261l-6 -94h261zM414 0l20 284h-261l-20 -284h-87l31 447h-61v15l18 43h47l8 107h87l-8 -107h261l8 107h87l-8 -107h63v-15l-18 -43h-49l-31 -447h-87z" />
    <glyph glyph-name="hbar" unicode="&#x127;" horiz-adv-x="454" 
d="M146 167v5l-12 -172h-82l38 552h-85l2 15l20 37h67l5 75l82 14l-6 -89h129l-2 -15l-20 -37h-111l-15 -222q72 132 156 132q91 0 91 -118q0 -35 -7 -106t-16 -150.5t-10 -87.5h-82q1 15 9 83.5t14 133.5t6 91q0 46 -10.5 65t-36.5 19q-34 0 -74.5 -58t-49.5 -167z" />
    <glyph glyph-name="Itilde" unicode="&#x128;" horiz-adv-x="246" 
d="M278 777l30 -35q-57 -69 -102 -69q-19 0 -59.5 16.5t-52.5 16.5q-23 0 -65 -35l-27 35q64 67 104 67q23 0 58.5 -15t48.5 -15q29 0 65 34zM187 612l-43 -612h-87l43 612h87z" />
    <glyph glyph-name="itilde" unicode="&#x129;" horiz-adv-x="215" 
d="M261 627l30 -35q-57 -69 -105 -69q-19 0 -63.5 16.5t-56.5 16.5q-26 0 -68 -35l-27 35q64 67 107 67q23 0 62.5 -15t52.5 -15q32 0 68 34zM166 462l-33 -462h-81l32 448z" />
    <glyph glyph-name="Imacron" unicode="&#x12a;" horiz-adv-x="246" 
d="M283 765l-1 -15l-21 -46h-245l1 15l21 46h245zM187 612l-43 -612h-87l43 612h87z" />
    <glyph glyph-name="imacron" unicode="&#x12b;" horiz-adv-x="215" 
d="M271 615l-1 -15l-21 -46h-245l1 15l21 46h245zM166 462l-33 -462h-81l32 448z" />
    <glyph glyph-name="Ibreve" unicode="&#x12c;" horiz-adv-x="246" 
d="M154 728q76 0 99 89h50q-4 -63 -51 -109t-107 -46q-65 0 -98 44.5t-29 110.5h50q12 -89 86 -89zM187 612l-43 -612h-87l43 612h87z" />
    <glyph glyph-name="ibreve" unicode="&#x12d;" horiz-adv-x="215" 
d="M137 578q76 0 99 89h50q-4 -63 -51 -109t-107 -46q-65 0 -98 44.5t-29 110.5h50q12 -89 86 -89zM166 462l-33 -462h-81l32 448z" />
    <glyph glyph-name="Iogonek" unicode="&#x12e;" horiz-adv-x="246" 
d="M78 0h-21l43 612h87l-43 -612h-9q-44 -31 -72.5 -64.5t-29.5 -61.5q-1 -19 10.5 -30t29.5 -11q16 0 42 13l11 -41q-40 -21 -76 -21q-40 0 -60 22t-18 59q3 37 34.5 73.5t71.5 61.5z" />
    <glyph glyph-name="iogonek" unicode="&#x12f;" horiz-adv-x="215" 
d="M85 598q0 16 19.5 38.5t33.5 22.5t32 -17t18 -33q0 -14 -19.5 -36.5t-33.5 -22.5t-32 16.5t-18 31.5zM75 0h-23l32 448l82 14l-33 -462h-1q-44 -31 -72.5 -64.5t-29.5 -61.5q-1 -19 10.5 -30t29.5 -11q16 0 42 13l11 -41q-40 -21 -76 -21q-40 0 -60 22t-18 59
q3 37 34.5 73.5t71.5 61.5z" />
    <glyph glyph-name="Idotaccent" unicode="&#x130;" horiz-adv-x="246" 
d="M95 740q1 16 23 38t37 22t37 -17.5t21 -33.5t-23.5 -37.5t-36.5 -21.5q-16 0 -37.5 17.5t-20.5 32.5zM187 612l-43 -612h-87l43 612h87z" />
    <glyph glyph-name="dotlessi" unicode="&#x131;" horiz-adv-x="215" 
d="M166 462l-33 -462h-81l32 448z" />
    <glyph glyph-name="IJ" unicode="&#x132;" horiz-adv-x="591" 
d="M187 612l-43 -612h-87l43 612h87zM534 612l-30 -436q-6 -88 -58 -138t-130 -50q-43 0 -76 13l19 74q44 -18 82 -18q28 0 49.5 25.5t24.5 68.5l32 461h87z" />
    <glyph glyph-name="ij" unicode="&#x133;" horiz-adv-x="431" 
d="M303 598q0 16 19.5 38.5t33.5 22.5t32 -17t18 -33q0 -14 -19.5 -36.5t-33.5 -22.5t-32 16.5t-18 31.5zM85 598q0 16 19.5 38.5t33.5 22.5t32 -17t18 -33q0 -14 -19.5 -36.5t-33.5 -22.5t-32 16.5t-18 31.5zM84 448l82 14l-33 -462h-81zM149 -230l-11 76q18 -2 30 -2
q46 0 69.5 35t29.5 118l33 452l82 14l-34 -467q-7 -104 -64 -165t-135 -61z" />
    <glyph glyph-name="Jcircumflex" unicode="&#x134;" horiz-adv-x="329" 
d="M326 661l-82 77l-92 -77h-67l134 145h60l114 -145h-67zM279 612l-30 -436q-6 -88 -58 -138t-130 -50q-43 0 -76 13l19 74q44 -18 82 -18q28 0 49.5 25.5t24.5 68.5l32 461h87z" />
    <glyph glyph-name="jcircumflex" unicode="&#x135;" horiz-adv-x="218" 
d="M218 511l-82 77l-92 -77h-67l134 145h60l114 -145h-67zM-67 -230l-11 76q18 -2 30 -2q46 0 69.5 35t29.5 118l33 452l82 14l-34 -467q-7 -104 -64 -165t-135 -61z" />
    <glyph glyph-name="Kcommaaccent" unicode="&#x136;" horiz-adv-x="535" 
d="M499 0h-105l-224 329l270 283h100l-276 -281zM186 612l-43 -612h-86l43 612h86zM198 -84q2 14 17 27t30 13t33.5 -21.5t17.5 -39.5q-2 -31 -71 -143l-43 17q42 76 44 99q0 4 -14.5 20.5t-13.5 27.5z" />
    <glyph glyph-name="kcommaaccent" unicode="&#x137;" horiz-adv-x="410" 
d="M321 -8q-38 41 -169 266l-19 -258h-81l49 679l82 14l-31 -433q95 70 169 190h83q-68 -115 -169 -194q112 -175 162 -235zM157 -84q2 14 17 27t30 13t33.5 -21.5t17.5 -39.5q-2 -31 -71 -143l-43 17q42 76 44 99q0 4 -14.5 20.5t-13.5 27.5z" />
    <glyph glyph-name="Lacute" unicode="&#x139;" horiz-adv-x="438" 
d="M84 661l139 145l88 -17l-157 -128h-70zM57 0l43 612h87l-38 -543l258 3l-15 -72h-335z" />
    <glyph glyph-name="lacute" unicode="&#x13a;" horiz-adv-x="250" 
d="M90 715l139 145l88 -17l-157 -128h-70zM213 85l13 -52q-67 -45 -106 -45q-30 0 -50 20t-20 57q0 7 1 19t4.5 49.5t8 94.5t13 176.5t19.5 273.5l82 14q-10 -141 -18.5 -255t-13 -171t-8 -96.5t-4.5 -53.5t-1 -21q0 -34 26 -34q21 0 54 24z" />
    <glyph glyph-name="Lcommaaccent" unicode="&#x13b;" horiz-adv-x="438" 
d="M57 0l43 612h87l-38 -543l258 3l-15 -72h-335zM176 -84q2 14 17 27t30 13t33.5 -21.5t17.5 -39.5q-2 -31 -71 -143l-43 17q42 76 44 99q0 4 -14.5 20.5t-13.5 27.5z" />
    <glyph glyph-name="lcommaaccent" unicode="&#x13c;" horiz-adv-x="250" 
d="M213 85l13 -52q-67 -45 -106 -45q-30 0 -50 20t-20 57q0 7 1 19t4.5 49.5t8 94.5t13 176.5t19.5 273.5l82 14q-10 -141 -18.5 -255t-13 -171t-8 -96.5t-4.5 -53.5t-1 -21q0 -34 26 -34q21 0 54 24zM79 -84q2 14 17 27t30 13t33.5 -21.5t17.5 -39.5q-2 -31 -71 -143
l-43 17q42 76 44 99q0 4 -14.5 20.5t-13.5 27.5z" />
    <glyph glyph-name="Lcaron" unicode="&#x13d;" horiz-adv-x="445" 
d="M344 661q2 12 19.5 22t33.5 10q15 0 26 -25.5t9 -52.5q-4 -51 -83 -152l-34 22q45 70 47 101q1 20 -8.5 45.5t-9.5 29.5zM57 0l43 612h87l-38 -543l258 3l-15 -72h-335z" />
    <glyph glyph-name="lcaron" unicode="&#x13e;" horiz-adv-x="290" 
d="M239 661q2 12 19.5 22t33.5 10q15 0 26 -25.5t9 -52.5q-4 -51 -83 -152l-34 22q45 70 47 101q1 20 -8.5 45.5t-9.5 29.5zM213 85l13 -52q-67 -45 -106 -45q-30 0 -50 20t-20 57q0 7 1 19t4.5 49.5t8 94.5t13 176.5t19.5 273.5l82 14q-10 -141 -18.5 -255t-13 -171
t-8 -96.5t-4.5 -53.5t-1 -21q0 -34 26 -34q21 0 54 24z" />
    <glyph glyph-name="Ldot" unicode="&#x13f;" horiz-adv-x="438" 
d="M286 311q1 16 23 38t37 22t37 -17.5t21 -33.5t-23.5 -37.5t-36.5 -21.5q-16 0 -37.5 17.5t-20.5 32.5zM57 0l43 612h87l-38 -543l258 3l-15 -72h-335z" />
    <glyph glyph-name="ldot" unicode="&#x140;" horiz-adv-x="295" 
d="M213 85l13 -52q-67 -45 -106 -45q-30 0 -50 20t-20 57q0 7 1 19t4.5 49.5t8 94.5t13 176.5t19.5 273.5l82 14q-10 -141 -18.5 -255t-13 -171t-8 -96.5t-4.5 -53.5t-1 -21q0 -34 26 -34q21 0 54 24zM197 256q1 16 23 38t37 22t37 -17.5t21 -33.5t-23.5 -37.5t-36.5 -21.5
q-16 0 -37.5 17.5t-20.5 32.5z" />
    <glyph glyph-name="Lslash" unicode="&#x141;" horiz-adv-x="452" 
d="M63 0l18 255l-63 -26l5 69l63 26l20 288h87l-18 -250l144 60l-5 -69l-143 -60l-16 -224l258 3l-15 -72h-335z" />
    <glyph glyph-name="lslash" unicode="&#x142;" horiz-adv-x="265" 
d="M120 -12q-30 0 -50 20t-20 57q0 5 0.5 11.5t2 21t3 34.5t4.5 59.5t7 87.5l-53 -23l5 66l53 23q16 220 24 333l82 14q-7 -96 -23 -312l85 36l-5 -66l-85 -36q-4 -46 -7 -86t-4.5 -60.5t-3 -36.5t-2 -23.5t-0.5 -12.5q0 -34 26 -34q21 0 54 24l13 -52q-67 -45 -106 -45z
" />
    <glyph glyph-name="Nacute" unicode="&#x143;" horiz-adv-x="602" 
d="M248 661l139 145l88 -17l-157 -128h-70zM428 0l-261 475l-33 -475h-77l42 612h83l254 -466l32 466h77l-43 -612h-74z" />
    <glyph glyph-name="nacute" unicode="&#x144;" horiz-adv-x="455" 
d="M182 511l139 145l88 -17l-157 -128h-70zM270 392q-32 0 -70.5 -52t-51.5 -149l-14 -191h-82l31 448l69 14l5 -130q72 130 155 130q91 0 91 -118q0 -35 -7 -106t-16 -150.5t-10 -87.5h-82q1 15 9 83.5t14 133.5t6 91q0 46 -10.5 65t-36.5 19z" />
    <glyph glyph-name="Ncommaaccent" unicode="&#x145;" horiz-adv-x="602" 
d="M428 0l-261 475l-33 -475h-77l42 612h83l254 -466l32 466h77l-43 -612h-74zM243 -84q2 14 17 27t30 13t33.5 -21.5t17.5 -39.5q-2 -31 -71 -143l-43 17q42 76 44 99q0 4 -14.5 20.5t-13.5 27.5z" />
    <glyph glyph-name="ncommaaccent" unicode="&#x146;" horiz-adv-x="455" 
d="M270 392q-32 0 -70.5 -52t-51.5 -149l-14 -191h-82l31 448l69 14l5 -130q72 130 155 130q91 0 91 -118q0 -35 -7 -106t-16 -150.5t-10 -87.5h-82q1 15 9 83.5t14 133.5t6 91q0 46 -10.5 65t-36.5 19zM159 -84q2 14 17 27t30 13t33.5 -21.5t17.5 -39.5q-2 -31 -71 -143
l-43 17q42 76 44 99q0 4 -14.5 20.5t-13.5 27.5z" />
    <glyph glyph-name="Ncaron" unicode="&#x147;" horiz-adv-x="602" 
d="M349 665h-60l-114 145h67l82 -77l92 77h67zM428 0l-261 475l-33 -475h-77l42 612h83l254 -466l32 466h77l-43 -612h-74z" />
    <glyph glyph-name="ncaron" unicode="&#x148;" horiz-adv-x="455" 
d="M279 515h-60l-114 145h67l82 -77l92 77h67zM270 392q-32 0 -70.5 -52t-51.5 -149l-14 -191h-82l31 448l69 14l5 -130q72 130 155 130q91 0 91 -118q0 -35 -7 -106t-16 -150.5t-10 -87.5h-82q1 15 9 83.5t14 133.5t6 91q0 46 -10.5 65t-36.5 19z" />
    <glyph glyph-name="Eng" unicode="&#x14a;" horiz-adv-x="602" 
d="M327 -180q-35 0 -76 16l21 73q41 -19 77 -19q70 0 76 93l1 20l-259 472l-33 -475h-77l42 612h83l254 -466l32 466h77l-41 -577l-1 -27q-5 -89 -53.5 -138.5t-122.5 -49.5z" />
    <glyph glyph-name="eng" unicode="&#x14b;" horiz-adv-x="455" 
d="M170 -230l-11 76q18 -2 30 -2q46 0 70.5 36.5t33.5 128.5q1 16 8 89.5t11.5 128.5t4.5 81q0 46 -10.5 65t-36.5 19q-32 0 -70.5 -52t-51.5 -149l-14 -191h-82l31 448l69 14l5 -130q72 130 155 130q91 0 91 -118q0 -33 -5.5 -97t-13 -139.5t-8.5 -85.5q-9 -122 -67.5 -187
t-138.5 -65z" />
    <glyph glyph-name="Omacron" unicode="&#x14c;" horiz-adv-x="564" 
d="M450 765l-1 -15l-21 -46h-245l1 15l21 46h245zM540 356q0 -94 -25.5 -167.5t-68 -116t-92 -63.5t-102.5 -21q-97 0 -157.5 71.5t-60.5 196.5q0 94 25.5 167.5t68 116t92 63.5t102.5 21q97 0 157.5 -71.5t60.5 -196.5zM287 57q70 0 117 68.5t47 205.5q0 119 -47 171.5
t-119 52.5q-69 0 -115 -68t-46 -206q0 -120 45.5 -172t117.5 -52z" />
    <glyph glyph-name="omacron" unicode="&#x14d;" horiz-adv-x="438" 
d="M389 615l-1 -15l-21 -46h-245l1 15l21 46h245zM402 269q0 -69 -22 -131t-72.5 -106t-120.5 -44q-68 0 -109.5 50t-41.5 143q0 69 22 131t72.5 106t120.5 44q68 0 109.5 -50t41.5 -143zM213 44q30 0 52 22.5t32.5 59t15 71t4.5 69.5q0 140 -92 140q-40 0 -65 -41.5
t-32 -87t-7 -93.5q0 -140 92 -140z" />
    <glyph glyph-name="Obreve" unicode="&#x14e;" horiz-adv-x="564" 
d="M304 728q76 0 99 89h50q-4 -63 -51 -109t-107 -46q-65 0 -98 44.5t-29 110.5h50q12 -89 86 -89zM540 356q0 -94 -25.5 -167.5t-68 -116t-92 -63.5t-102.5 -21q-97 0 -157.5 71.5t-60.5 196.5q0 94 25.5 167.5t68 116t92 63.5t102.5 21q97 0 157.5 -71.5t60.5 -196.5z
M287 57q70 0 117 68.5t47 205.5q0 119 -47 171.5t-119 52.5q-69 0 -115 -68t-46 -206q0 -120 45.5 -172t117.5 -52z" />
    <glyph glyph-name="obreve" unicode="&#x14f;" horiz-adv-x="438" 
d="M254 578q76 0 99 89h50q-4 -63 -51 -109t-107 -46q-65 0 -98 44.5t-29 110.5h50q12 -89 86 -89zM402 269q0 -69 -22 -131t-72.5 -106t-120.5 -44q-68 0 -109.5 50t-41.5 143q0 69 22 131t72.5 106t120.5 44q68 0 109.5 -50t41.5 -143zM213 44q30 0 52 22.5t32.5 59t15 71
t4.5 69.5q0 140 -92 140q-40 0 -65 -41.5t-32 -87t-7 -93.5q0 -140 92 -140z" />
    <glyph glyph-name="Ohungarumlaut" unicode="&#x150;" horiz-adv-x="564" 
d="M279 661l139 145l88 -17l-157 -128h-70zM154 661l139 145l88 -17l-157 -128h-70zM540 356q0 -94 -25.5 -167.5t-68 -116t-92 -63.5t-102.5 -21q-97 0 -157.5 71.5t-60.5 196.5q0 94 25.5 167.5t68 116t92 63.5t102.5 21q97 0 157.5 -71.5t60.5 -196.5zM287 57
q70 0 117 68.5t47 205.5q0 119 -47 171.5t-119 52.5q-69 0 -115 -68t-46 -206q0 -120 45.5 -172t117.5 -52z" />
    <glyph glyph-name="ohungarumlaut" unicode="&#x151;" horiz-adv-x="438" 
d="M249 511l139 145l88 -17l-157 -128h-70zM124 511l139 145l88 -17l-157 -128h-70zM402 269q0 -69 -22 -131t-72.5 -106t-120.5 -44q-68 0 -109.5 50t-41.5 143q0 69 22 131t72.5 106t120.5 44q68 0 109.5 -50t41.5 -143zM213 44q30 0 52 22.5t32.5 59t15 71t4.5 69.5
q0 140 -92 140q-40 0 -65 -41.5t-32 -87t-7 -93.5q0 -140 92 -140z" />
    <glyph glyph-name="OE" unicode="&#x152;" horiz-adv-x="766" 
d="M286 57q45 0 82 29l30 424q-43 45 -112 45q-70 0 -116 -67t-46 -207q0 -114 45 -169t117 -55zM362 0l1 13q-50 -25 -111 -25q-100 0 -159 73t-59 200q0 171 84 267t202 96q47 0 85 -18v6h329l-15 -69l-232 3l-13 -194h215l-14 -67l-206 3l-15 -221l258 3l-15 -70h-335z
" />
    <glyph glyph-name="oe" unicode="&#x153;" horiz-adv-x="643" 
d="M453 -12q-83 0 -118 71q-58 -71 -148 -71q-68 0 -109.5 50t-41.5 143q0 69 22 131t72.5 106t120.5 44q86 0 125 -74q57 74 136 74q51 0 80.5 -30t29.5 -72q0 -68 -67 -111t-157 -47v-19q0 -67 21 -98.5t53 -31.5q49 0 119 59l24 -44q-82 -80 -162 -80zM213 44
q30 0 52 22.5t32.5 59t15 71t4.5 69.5q0 140 -92 140q-40 0 -65 -41.5t-32 -87t-7 -93.5q0 -140 92 -140zM493 405q-34 0 -58.5 -39.5t-32.5 -112.5q0 -3 -1 -4q65 4 103.5 32t38.5 69q0 24 -13.5 39.5t-36.5 15.5z" />
    <glyph glyph-name="Racute" unicode="&#x154;" horiz-adv-x="507" 
d="M173 661l139 145l88 -17l-157 -128h-70zM240 550h-57l-17 -234h78q52 0 87.5 30t35.5 87q0 117 -127 117zM218 253h-56l-18 -253h-87l43 612h161q93 0 143.5 -42t50.5 -115q0 -61 -33.5 -108t-91.5 -72l141 -275h-100l-119 255q-22 -2 -34 -2z" />
    <glyph glyph-name="racute" unicode="&#x155;" horiz-adv-x="307" 
d="M149 511l139 145l88 -17l-157 -128h-70zM147 165v1l-13 -166h-82l31 448l69 14l5 -132q27 68 67.5 100t83.5 32q11 0 14 -1l-16 -86q-12 3 -24 3q-119 0 -135 -213z" />
    <glyph glyph-name="Rcommaaccent" unicode="&#x156;" horiz-adv-x="507" 
d="M240 550h-57l-17 -234h78q52 0 87.5 30t35.5 87q0 117 -127 117zM218 253h-56l-18 -253h-87l43 612h161q93 0 143.5 -42t50.5 -115q0 -61 -33.5 -108t-91.5 -72l141 -275h-100l-119 255q-22 -2 -34 -2zM195 -84q2 14 17 27t30 13t33.5 -21.5t17.5 -39.5q-2 -31 -71 -143
l-43 17q42 76 44 99q0 4 -14.5 20.5t-13.5 27.5z" />
    <glyph glyph-name="rcommaaccent" unicode="&#x157;" horiz-adv-x="307" 
d="M147 165v1l-13 -166h-82l31 448l69 14l5 -132q27 68 67.5 100t83.5 32q11 0 14 -1l-16 -86q-12 3 -24 3q-119 0 -135 -213zM42 -84q2 14 17 27t30 13t33.5 -21.5t17.5 -39.5q-2 -31 -71 -143l-43 17q42 76 44 99q0 4 -14.5 20.5t-13.5 27.5z" />
    <glyph glyph-name="Rcaron" unicode="&#x158;" horiz-adv-x="507" 
d="M284 665h-60l-114 145h67l82 -77l92 77h67zM240 550h-57l-17 -234h78q52 0 87.5 30t35.5 87q0 117 -127 117zM218 253h-56l-18 -253h-87l43 612h161q93 0 143.5 -42t50.5 -115q0 -61 -33.5 -108t-91.5 -72l141 -275h-100l-119 255q-22 -2 -34 -2z" />
    <glyph glyph-name="rcaron" unicode="&#x159;" horiz-adv-x="307" 
d="M231 515h-60l-114 145h67l82 -77l92 77h67zM147 165v1l-13 -166h-82l31 448l69 14l5 -132q27 68 67.5 100t83.5 32q11 0 14 -1l-16 -86q-12 3 -24 3q-119 0 -135 -213z" />
    <glyph glyph-name="Sacute" unicode="&#x15a;" horiz-adv-x="441" 
d="M187 661l139 145l88 -17l-157 -128h-70zM233 263l-55 28q-61 31 -89.5 66t-28.5 86q0 79 60 130t149 51q95 0 151 -23l-20 -75q-94 32 -163 32q-40 0 -66 -26t-26 -61q0 -34 17.5 -59t65.5 -49l57 -29q60 -30 88 -65.5t28 -83.5q0 -88 -68.5 -142.5t-173.5 -54.5
q-84 0 -141 24l22 74q88 -32 165 -31q47 -1 77.5 26.5t30.5 68.5q0 38 -16.5 63.5t-63.5 49.5z" />
    <glyph glyph-name="sacute" unicode="&#x15b;" horiz-adv-x="346" 
d="M149 511l139 145l88 -17l-157 -128h-70zM152 -12q-72 0 -135 27l21 69q75 -34 132 -34q25 0 38.5 15t13.5 37q0 35 -46 73l-57 48q-31 26 -45 50.5t-14 59.5q0 58 44 93.5t100 35.5q31 0 67.5 -7.5t51.5 -14.5l-21 -66q-71 28 -114 28q-24 0 -37.5 -14t-13.5 -37
q0 -31 47 -71l57 -48q33 -27 46 -50t13 -54q0 -64 -46.5 -102t-101.5 -38z" />
    <glyph glyph-name="Scircumflex" unicode="&#x15c;" horiz-adv-x="441" 
d="M365 661l-82 77l-92 -77h-67l134 145h60l114 -145h-67zM233 263l-55 28q-61 31 -89.5 66t-28.5 86q0 79 60 130t149 51q95 0 151 -23l-20 -75q-94 32 -163 32q-40 0 -66 -26t-26 -61q0 -34 17.5 -59t65.5 -49l57 -29q60 -30 88 -65.5t28 -83.5q0 -88 -68.5 -142.5
t-173.5 -54.5q-84 0 -141 24l22 74q88 -32 165 -31q47 -1 77.5 26.5t30.5 68.5q0 38 -16.5 63.5t-63.5 49.5z" />
    <glyph glyph-name="scircumflex" unicode="&#x15d;" horiz-adv-x="346" 
d="M298 511l-82 77l-92 -77h-67l134 145h60l114 -145h-67zM152 -12q-72 0 -135 27l21 69q75 -34 132 -34q25 0 38.5 15t13.5 37q0 35 -46 73l-57 48q-31 26 -45 50.5t-14 59.5q0 58 44 93.5t100 35.5q31 0 67.5 -7.5t51.5 -14.5l-21 -66q-71 28 -114 28q-24 0 -37.5 -14
t-13.5 -37q0 -31 47 -71l57 -48q33 -27 46 -50t13 -54q0 -64 -46.5 -102t-101.5 -38z" />
    <glyph glyph-name="Scedilla" unicode="&#x15e;" horiz-adv-x="441" 
d="M94 -230l-8 43q51 6 76.5 15.5t26.5 29.5q1 14 -16.5 24.5t-56.5 21.5l-2 5l43 79q-84 0 -139 24l22 74q88 -32 165 -31q47 -1 77.5 26.5t30.5 68.5q0 38 -16.5 63.5t-63.5 49.5l-55 28q-61 31 -89.5 66t-28.5 86q0 79 60 130t149 51q95 0 151 -23l-20 -75
q-94 32 -163 32q-40 0 -66 -26t-26 -61q0 -34 17.5 -59t65.5 -49l57 -29q60 -30 88 -65.5t28 -83.5q0 -77 -54 -129.5t-142 -64.5l-24 -45q22 -10 31.5 -15.5t22 -14.5t16.5 -19.5t3 -24.5q-3 -36 -43 -65.5t-117 -36.5z" />
    <glyph glyph-name="scedilla" unicode="&#x15f;" horiz-adv-x="346" 
d="M58 -230l-8 43q51 6 76.5 15.5t26.5 29.5q1 14 -16.5 24.5t-56.5 21.5l-2 5l43 80q-56 5 -104 26l21 69q75 -34 132 -34q25 0 38.5 15t13.5 37q0 35 -46 73l-57 48q-31 26 -45 50.5t-14 59.5q0 58 44 93.5t100 35.5q31 0 67.5 -7.5t51.5 -14.5l-21 -66q-71 28 -114 28
q-24 0 -37.5 -14t-13.5 -37q0 -31 47 -71l57 -48q33 -27 46 -50t13 -54q0 -59 -40 -96t-92 -43l-23 -43q22 -10 31.5 -15.5t22 -14.5t16.5 -19.5t3 -24.5q-3 -36 -43 -65.5t-117 -36.5z" />
    <glyph glyph-name="Scaron" unicode="&#x160;" horiz-adv-x="441" 
d="M301 665h-60l-114 145h67l82 -77l92 77h67zM233 263l-55 28q-61 31 -89.5 66t-28.5 86q0 79 60 130t149 51q95 0 151 -23l-20 -75q-94 32 -163 32q-40 0 -66 -26t-26 -61q0 -34 17.5 -59t65.5 -49l57 -29q60 -30 88 -65.5t28 -83.5q0 -88 -68.5 -142.5t-173.5 -54.5
q-84 0 -141 24l22 74q88 -32 165 -31q47 -1 77.5 26.5t30.5 68.5q0 38 -16.5 63.5t-63.5 49.5z" />
    <glyph glyph-name="scaron" unicode="&#x161;" horiz-adv-x="346" 
d="M239 515h-60l-114 145h67l82 -77l92 77h67zM152 -12q-72 0 -135 27l21 69q75 -34 132 -34q25 0 38.5 15t13.5 37q0 35 -46 73l-57 48q-31 26 -45 50.5t-14 59.5q0 58 44 93.5t100 35.5q31 0 67.5 -7.5t51.5 -14.5l-21 -66q-71 28 -114 28q-24 0 -37.5 -14t-13.5 -37
q0 -31 47 -71l57 -48q33 -27 46 -50t13 -54q0 -64 -46.5 -102t-101.5 -38z" />
    <glyph glyph-name="Tcommaaccent" unicode="&#x162;" horiz-adv-x="502" 
d="M485 540l-174 3l-38 -543h-87l38 543l-185 -3l17 72h446zM165 -84q2 14 17 27t30 13t33.5 -21.5t17.5 -39.5q-2 -31 -71 -143l-43 17q42 76 44 99q0 4 -14.5 20.5t-13.5 27.5z" />
    <glyph glyph-name="tcommaaccent" unicode="&#x163;" horiz-adv-x="324" 
d="M302 52q-84 -64 -151 -64q-37 0 -62.5 25t-25.5 66q0 32 31 313h-71l6 48l71 10q9 82 10 92l82 14l-12 -106h144l-15 -58h-135q-29 -242 -29 -281q0 -51 45 -51q37 0 94 41zM114 -84q2 14 17 27t30 13t33.5 -21.5t17.5 -39.5q-2 -31 -71 -143l-43 17q42 76 44 99
q0 4 -14.5 20.5t-13.5 27.5z" />
    <glyph glyph-name="Tcaron" unicode="&#x164;" horiz-adv-x="502" 
d="M304 665h-60l-114 145h67l82 -77l92 77h67zM485 540l-174 3l-38 -543h-87l38 543l-185 -3l17 72h446z" />
    <glyph glyph-name="tcaron" unicode="&#x165;" horiz-adv-x="324" 
d="M256 686q2 12 19.5 22t33.5 10q15 0 26 -25.5t9 -52.5q-4 -51 -83 -152l-34 22q45 70 47 101q1 20 -8.5 45.5t-9.5 29.5zM302 52q-84 -64 -151 -64q-37 0 -62.5 25t-25.5 66q0 32 31 313h-71l6 48l71 10q9 82 10 92l82 14l-12 -106h144l-15 -58h-135q-29 -242 -29 -281
q0 -51 45 -51q37 0 94 41z" />
    <glyph glyph-name="Tbar" unicode="&#x166;" horiz-adv-x="502" 
d="M428 308h-134l-21 -308h-87l21 308h-154l2 15l20 43h136l13 177l-185 -3l17 72h446l-17 -72l-174 3l-13 -177h152l-2 -15z" />
    <glyph glyph-name="tbar" unicode="&#x167;" horiz-adv-x="324" 
d="M302 52q-84 -64 -151 -64q-37 0 -62.5 25t-25.5 66q0 31 12 144h-62l2 15l20 37h46q5 57 13 117h-71l6 48l71 10q9 82 10 92l82 14l-12 -106h144l-15 -58h-135q-3 -25 -8 -66t-6 -51h128l-2 -15l-20 -37h-112q-9 -81 -9 -112q0 -51 45 -51q37 0 94 41z" />
    <glyph glyph-name="Utilde" unicode="&#x168;" horiz-adv-x="589" 
d="M455 777l30 -35q-57 -69 -105 -69q-19 0 -63.5 16.5t-56.5 16.5q-26 0 -68 -35l-27 35q64 67 107 67q23 0 62.5 -15t52.5 -15q32 0 68 34zM99 612h87q-27 -398 -27 -417q0 -69 36.5 -102.5t99.5 -33.5q60 0 93 35.5t39 115.5l27 402h84l-27 -392q-7 -114 -70.5 -173
t-174.5 -59q-87 0 -142 46.5t-55 133.5q0 32 30 444z" />
    <glyph glyph-name="utilde" unicode="&#x169;" horiz-adv-x="453" 
d="M386 627l30 -35q-57 -69 -105 -69q-19 0 -63.5 16.5t-56.5 16.5q-26 0 -68 -35l-27 35q64 67 107 67q23 0 62.5 -15t52.5 -15q32 0 68 34zM302 -12l-5 132q-72 -132 -155 -132q-90 0 -90 118q0 35 7 106t16 149t10 87l83 13q-1 -14 -9 -86t-14.5 -139.5t-6.5 -93.5
q0 -46 10.5 -65t35.5 -19q33 0 72 55t50 158l13 177l82 14l-31 -462z" />
    <glyph glyph-name="Umacron" unicode="&#x16a;" horiz-adv-x="589" 
d="M454 765l-1 -15l-21 -46h-245l1 15l21 46h245zM99 612h87q-27 -398 -27 -417q0 -69 36.5 -102.5t99.5 -33.5q60 0 93 35.5t39 115.5l27 402h84l-27 -392q-7 -114 -70.5 -173t-174.5 -59q-87 0 -142 46.5t-55 133.5q0 32 30 444z" />
    <glyph glyph-name="umacron" unicode="&#x16b;" horiz-adv-x="453" 
d="M391 615l-1 -15l-21 -46h-245l1 15l21 46h245zM302 -12l-5 132q-72 -132 -155 -132q-90 0 -90 118q0 35 7 106t16 149t10 87l83 13q-1 -14 -9 -86t-14.5 -139.5t-6.5 -93.5q0 -46 10.5 -65t35.5 -19q33 0 72 55t50 158l13 177l82 14l-31 -462z" />
    <glyph glyph-name="Ubreve" unicode="&#x16c;" horiz-adv-x="589" 
d="M330 728q76 0 99 89h50q-4 -63 -51 -109t-107 -46q-65 0 -98 44.5t-29 110.5h50q12 -89 86 -89zM99 612h87q-27 -398 -27 -417q0 -69 36.5 -102.5t99.5 -33.5q60 0 93 35.5t39 115.5l27 402h84l-27 -392q-7 -114 -70.5 -173t-174.5 -59q-87 0 -142 46.5t-55 133.5
q0 32 30 444z" />
    <glyph glyph-name="ubreve" unicode="&#x16d;" horiz-adv-x="453" 
d="M256 578q76 0 99 89h50q-4 -63 -51 -109t-107 -46q-65 0 -98 44.5t-29 110.5h50q12 -89 86 -89zM302 -12l-5 132q-72 -132 -155 -132q-90 0 -90 118q0 35 7 106t16 149t10 87l83 13q-1 -14 -9 -86t-14.5 -139.5t-6.5 -93.5q0 -46 10.5 -65t35.5 -19q33 0 72 55t50 158
l13 177l82 14l-31 -462z" />
    <glyph glyph-name="Uring" unicode="&#x16e;" horiz-adv-x="589" 
d="M426 753q-2 -36 -32.5 -62.5t-67.5 -26.5q-39 0 -64.5 24t-22.5 65q2 37 32.5 63.5t67.5 26.5q39 0 64.5 -24t22.5 -66zM287 753q-1 -20 11 -32.5t31 -12.5t33.5 12.5t15.5 32.5q1 21 -11.5 34t-31.5 13t-33 -13t-15 -34zM99 612h87q-27 -398 -27 -417q0 -69 36.5 -102.5
t99.5 -33.5q60 0 93 35.5t39 115.5l27 402h84l-27 -392q-7 -114 -70.5 -173t-174.5 -59q-87 0 -142 46.5t-55 133.5q0 32 30 444z" />
    <glyph glyph-name="uring" unicode="&#x16f;" horiz-adv-x="453" 
d="M346 603q-2 -36 -32.5 -62.5t-67.5 -26.5q-39 0 -64.5 24t-22.5 65q2 37 32.5 63.5t67.5 26.5q39 0 64.5 -24t22.5 -66zM207 603q-1 -20 11 -32.5t31 -12.5t33.5 12.5t15.5 32.5q1 21 -11.5 34t-31.5 13t-33 -13t-15 -34zM302 -12l-5 132q-72 -132 -155 -132
q-90 0 -90 118q0 35 7 106t16 149t10 87l83 13q-1 -14 -9 -86t-14.5 -139.5t-6.5 -93.5q0 -46 10.5 -65t35.5 -19q33 0 72 55t50 158l13 177l82 14l-31 -462z" />
    <glyph glyph-name="Uhungarumlaut" unicode="&#x170;" horiz-adv-x="589" 
d="M292 661l139 145l88 -17l-157 -128h-70zM167 661l139 145l88 -17l-157 -128h-70zM99 612h87q-27 -398 -27 -417q0 -69 36.5 -102.5t99.5 -33.5q60 0 93 35.5t39 115.5l27 402h84l-27 -392q-7 -114 -70.5 -173t-174.5 -59q-87 0 -142 46.5t-55 133.5q0 32 30 444z" />
    <glyph glyph-name="uhungarumlaut" unicode="&#x171;" horiz-adv-x="453" 
d="M245 511l139 145l88 -17l-157 -128h-70zM120 511l139 145l88 -17l-157 -128h-70zM302 -12l-5 132q-72 -132 -155 -132q-90 0 -90 118q0 35 7 106t16 149t10 87l83 13q-1 -14 -9 -86t-14.5 -139.5t-6.5 -93.5q0 -46 10.5 -65t35.5 -19q33 0 72 55t50 158l13 177l82 14
l-31 -462z" />
    <glyph glyph-name="Uogonek" unicode="&#x172;" horiz-adv-x="589" 
d="M311 -196q-40 0 -60 22t-18 59q4 52 65 104q-10 -1 -32 -1q-87 0 -142 46.5t-55 133.5q0 32 30 444h87q-27 -398 -27 -417q0 -69 36.5 -102.5t99.5 -33.5q60 0 93 35.5t39 115.5l27 402h84l-27 -392q-10 -162 -131 -211q-83 -64 -86 -115q-1 -19 10.5 -30t29.5 -11
q16 0 42 13l11 -41q-40 -21 -76 -21z" />
    <glyph glyph-name="uogonek" unicode="&#x173;" horiz-adv-x="453" 
d="M284 -216q-40 0 -60 22t-18 59q5 65 96 128l-5 127q-72 -132 -155 -132q-90 0 -90 118q0 35 7 106t16 149t10 87l83 13q-1 -14 -9 -86t-14.5 -139.5t-6.5 -93.5q0 -46 10.5 -65t35.5 -19q33 0 72 55t50 158l13 177l82 14l-31 -462h-1q-44 -31 -72.5 -64.5t-29.5 -61.5
q-1 -19 10.5 -30t29.5 -11q16 0 42 13l11 -41q-40 -21 -76 -21z" />
    <glyph glyph-name="Wcircumflex" unicode="&#x174;" horiz-adv-x="834" 
d="M538 661l-82 77l-92 -77h-67l134 145h60l114 -145h-67zM554 0l-116 477l-191 -477h-91l-91 612h88l70 -489l191 489h78l118 -492l144 492h81l-189 -612h-92z" />
    <glyph glyph-name="wcircumflex" unicode="&#x175;" horiz-adv-x="636" 
d="M429 511l-82 77l-92 -77h-67l134 145h60l114 -145h-67zM326 0l-18 218q-48 -137 -134 -219l-82 1l-32 450l79 11l24 -390q47 51 82.5 135t48.5 178l-5 66h77l26 -383q55 59 89.5 161t48.5 222h73q-14 -128 -65 -256.5t-130 -193.5h-82z" />
    <glyph glyph-name="Ycircumflex" unicode="&#x176;" horiz-adv-x="504" 
d="M376 661l-82 77l-92 -77h-67l134 145h60l114 -145h-67zM284 0h-87l17 244l-178 368h95l139 -286l169 286h88l-226 -366z" />
    <glyph glyph-name="ycircumflex" unicode="&#x177;" horiz-adv-x="411" 
d="M318 511l-82 77l-92 -77h-67l134 145h60l114 -145h-67zM-52 -230q-23 0 -53 6l10 75q29 -6 62 -6q110 0 199 143h-36l-66 457l81 16l57 -408q79 162 111 397h76q-6 -68 -25 -152t-56 -178.5t-86 -171.5t-121 -127.5t-153 -50.5z" />
    <glyph glyph-name="Ydieresis" unicode="&#x178;" horiz-adv-x="504" 
d="M321 745q1 15 20.5 34.5t32.5 19.5q14 0 34 -15.5t19 -29.5q-1 -15 -21 -34.5t-32 -19.5q-14 0 -34 16t-19 29zM142 745q1 15 20.5 34.5t32.5 19.5q14 0 34 -15.5t19 -29.5q-1 -15 -21 -34.5t-32 -19.5q-14 0 -34 16t-19 29zM284 0h-87l17 244l-178 368h95l139 -286
l169 286h88l-226 -366z" />
    <glyph glyph-name="Zacute" unicode="&#x179;" horiz-adv-x="516" 
d="M178 661l139 145l88 -17l-157 -128h-70zM442 0h-406l4 59l336 480h-306l18 73h392l-5 -68l-334 -473h318z" />
    <glyph glyph-name="zacute" unicode="&#x17a;" horiz-adv-x="367" 
d="M139 511l139 145l88 -17l-157 -128h-70zM323 0h-308l4 54l227 335l-196 -5l9 66h288l-5 -56l-228 -332l220 5z" />
    <glyph glyph-name="Zdotaccent" unicode="&#x17b;" horiz-adv-x="516" 
d="M225 740q1 16 23 38t37 22t37 -17.5t21 -33.5t-23.5 -37.5t-36.5 -21.5q-16 0 -37.5 17.5t-20.5 32.5zM442 0h-406l4 59l336 480h-306l18 73h392l-5 -68l-334 -473h318z" />
    <glyph glyph-name="zdotaccent" unicode="&#x17c;" horiz-adv-x="367" 
d="M142 590q1 16 23 38t37 22t37 -17.5t21 -33.5t-23.5 -37.5t-36.5 -21.5q-16 0 -37.5 17.5t-20.5 32.5zM323 0h-308l4 54l227 335l-196 -5l9 66h288l-5 -56l-228 -332l220 5z" />
    <glyph glyph-name="Zcaron" unicode="&#x17d;" horiz-adv-x="516" 
d="M299 665h-60l-114 145h67l82 -77l92 77h67zM442 0h-406l4 59l336 480h-306l18 73h392l-5 -68l-334 -473h318z" />
    <glyph glyph-name="zcaron" unicode="&#x17e;" horiz-adv-x="367" 
d="M238 515h-60l-114 145h67l82 -77l92 77h67zM323 0h-308l4 54l227 335l-196 -5l9 66h288l-5 -56l-228 -332l220 5z" />
    <glyph glyph-name="Acaron" unicode="&#x1cd;" horiz-adv-x="539" 
d="M328 665h-60l-114 145h67l82 -77l92 77h67zM350 260l-65 264l-108 -264h173zM414 0l-47 191h-219l-78 -191h-85l262 612h102l154 -612h-89z" />
    <glyph glyph-name="acaron" unicode="&#x1ce;" horiz-adv-x="440" 
d="M288 515h-60l-114 145h67l82 -77l92 77h67zM290 -12l-4 118q-29 -55 -70 -86.5t-76 -31.5q-106 0 -106 176q0 122 62.5 210t160.5 88q79 0 131 -31l-30 -431zM177 55q35 0 72 53.5t48 162.5l8 113q-36 17 -72 17q-50 0 -82 -58.5t-32 -169.5q0 -57 15.5 -87.5t42.5 -30.5
z" />
    <glyph glyph-name="AEacute" unicode="&#x1fc;" horiz-adv-x="729" 
d="M374 661l139 145l88 -17l-157 -128h-70zM357 545l-163 -285h149l20 285h-6zM325 0l13 191h-184l-109 -191h-85l359 612h378l-15 -69l-232 3l-13 -194h215l-14 -67l-206 3l-15 -221l258 3l-15 -70h-335z" />
    <glyph glyph-name="aeacute" unicode="&#x1fd;" horiz-adv-x="623" 
d="M329 511l139 145l88 -17l-157 -128h-70zM433 -12q-54 0 -89.5 32t-46.5 93q-36 -62 -79.5 -93.5t-82.5 -31.5q-44 0 -72.5 41t-28.5 125q0 133 62.5 220.5t163.5 87.5q66 0 133 -36q45 36 99 36q51 0 80.5 -30t29.5 -72q0 -68 -67 -111t-157 -47v-19q0 -67 21 -98.5
t53 -31.5q49 0 119 59l24 -44q-82 -80 -162 -80zM473 405q-35 0 -59.5 -40.5t-32.5 -115.5q65 4 103.5 32t38.5 69q0 24 -13.5 39.5t-36.5 15.5zM176 55q26 0 59 35t58 97q4 109 50 182q-53 34 -106 34t-85.5 -62t-32.5 -178q0 -50 16 -79t41 -29z" />
    <glyph glyph-name="Oslashacute" unicode="&#x1fe;" horiz-adv-x="574" 
d="M229 661l139 145l88 -17l-157 -128h-70zM124 281q0 -124 53 -180l178 439q-30 15 -70 15q-69 0 -115 -68t-46 -206zM287 57q70 0 117 68.5t47 205.5q0 115 -49 174l-178 -437q28 -11 63 -11zM252 -12q-32 0 -57 7l-32 -78h-61l41 100q-109 67 -109 239q0 94 25.5 167.5
t68 116t92 63.5t102.5 21q34 0 63 -9l32 78h61l-41 -102q103 -69 103 -235q0 -94 -25.5 -167.5t-68 -116t-92 -63.5t-102.5 -21z" />
    <glyph glyph-name="oslashacute" unicode="&#x1ff;" horiz-adv-x="438" 
d="M169 511l139 145l88 -17l-157 -128h-70zM117 184q0 -64 22 -100l123 314q-18 8 -37 8q-40 0 -66 -41.5t-34 -88t-8 -92.5zM213 44q30 0 52.5 22.5t34 58.5t16.5 71.5t5 69.5q0 61 -21 97l-122 -312q14 -7 35 -7zM187 -12q-17 0 -33 3l-24 -62h-51l31 80q-74 46 -74 172
q0 69 22 131t72.5 106t120.5 44q20 0 35 -4l25 65h51l-32 -83q72 -47 72 -171q0 -69 -22 -131t-72.5 -106t-120.5 -44z" />
    <glyph glyph-name="Scommaaccent" unicode="&#x218;" horiz-adv-x="441" 
d="M233 263l-55 28q-61 31 -89.5 66t-28.5 86q0 79 60 130t149 51q95 0 151 -23l-20 -75q-94 32 -163 32q-40 0 -66 -26t-26 -61q0 -34 17.5 -59t65.5 -49l57 -29q60 -30 88 -65.5t28 -83.5q0 -88 -68.5 -142.5t-173.5 -54.5q-84 0 -141 24l22 74q88 -32 165 -31
q47 -1 77.5 26.5t30.5 68.5q0 38 -16.5 63.5t-63.5 49.5zM149 -84q2 14 17 27t30 13t33.5 -21.5t17.5 -39.5q-2 -31 -71 -143l-43 17q42 76 44 99q0 4 -14.5 20.5t-13.5 27.5z" />
    <glyph glyph-name="scommaaccent" unicode="&#x219;" horiz-adv-x="346" 
d="M152 -12q-72 0 -135 27l21 69q75 -34 132 -34q25 0 38.5 15t13.5 37q0 35 -46 73l-57 48q-31 26 -45 50.5t-14 59.5q0 58 44 93.5t100 35.5q31 0 67.5 -7.5t51.5 -14.5l-21 -66q-71 28 -114 28q-24 0 -37.5 -14t-13.5 -37q0 -31 47 -71l57 -48q33 -27 46 -50t13 -54
q0 -64 -46.5 -102t-101.5 -38zM89 -84q2 14 17 27t30 13t33.5 -21.5t17.5 -39.5q-2 -31 -71 -143l-43 17q42 76 44 99q0 4 -14.5 20.5t-13.5 27.5z" />
    <glyph glyph-name="uni021A" unicode="&#x21a;" horiz-adv-x="502" 
d="M206 0h-20l38 543l-185 -3l17 72h446l-17 -72l-174 3l-38 -543h-20l-29 -54q22 -10 31.5 -15.5t22 -14.5t16.5 -19.5t3 -24.5q-3 -36 -43 -65.5t-117 -36.5l-8 43q51 6 76.5 15.5t26.5 29.5q1 14 -16.5 24.5t-56.5 21.5l-2 5z" />
    <glyph glyph-name="uni021B" unicode="&#x21b;" horiz-adv-x="324" 
d="M239 -128q-3 -36 -43 -65.5t-117 -36.5l-8 43q51 6 76.5 15.5t26.5 29.5q1 14 -16.5 24.5t-56.5 21.5l-2 5l43 79q-34 4 -56.5 28.5t-22.5 62.5q0 32 31 313h-71l6 48l71 10q9 82 10 92l82 14l-12 -106h144l-15 -58h-135q-29 -242 -29 -281q0 -51 45 -51q37 0 94 41
l18 -49q-60 -46 -111 -59l-25 -47q22 -10 31.5 -15.5t22 -14.5t16.5 -19.5t3 -24.5z" />
    <glyph glyph-name="circumflex" unicode="&#x2c6;" horiz-adv-x="417" 
d="M295 511l-82 77l-92 -77h-67l134 145h60l114 -145h-67z" />
    <glyph glyph-name="caron" unicode="&#x2c7;" horiz-adv-x="417" 
d="M228 515h-60l-114 145h67l82 -77l92 77h67z" />
    <glyph glyph-name="breve" unicode="&#x2d8;" horiz-adv-x="428" 
d="M207 578q76 0 99 89h50q-4 -63 -51 -109t-107 -46q-65 0 -98 44.5t-29 110.5h50q12 -89 86 -89z" />
    <glyph glyph-name="dotaccent" unicode="&#x2d9;" horiz-adv-x="217" 
d="M49 590q1 16 23 38t37 22t37 -17.5t21 -33.5t-23.5 -37.5t-36.5 -21.5q-16 0 -37.5 17.5t-20.5 32.5z" />
    <glyph glyph-name="ring" unicode="&#x2da;" horiz-adv-x="338" 
d="M262 603q-2 -36 -32.5 -62.5t-67.5 -26.5q-39 0 -64.5 24t-22.5 65q2 37 32.5 63.5t67.5 26.5q39 0 64.5 -24t22.5 -66zM123 603q-1 -20 11 -32.5t31 -12.5t33.5 12.5t15.5 32.5q1 21 -11.5 34t-31.5 13t-33 -13t-15 -34z" />
    <glyph glyph-name="ogonek" unicode="&#x2db;" horiz-adv-x="306" 
d="M72 -135q3 37 34.5 73.5t71.5 61.5h57q-44 -31 -72.5 -64.5t-29.5 -61.5q-1 -19 10.5 -30t29.5 -11q16 0 42 13l11 -41q-40 -21 -76 -21q-40 0 -60 22t-18 59z" />
    <glyph glyph-name="tilde" unicode="&#x2dc;" horiz-adv-x="410" 
d="M335 627l30 -35q-57 -69 -105 -69q-19 0 -63.5 16.5t-56.5 16.5q-26 0 -68 -35l-27 35q64 67 107 67q23 0 62.5 -15t52.5 -15q32 0 68 34z" />
    <glyph glyph-name="hungarumlaut" unicode="&#x2dd;" horiz-adv-x="464" 
d="M181 511l139 145l88 -17l-157 -128h-70zM56 511l139 145l88 -17l-157 -128h-70z" />
    <glyph glyph-name="commaaccent" unicode="&#x326;" horiz-adv-x="245" 
d="M81 -84q2 14 17 27t30 13t33.5 -21.5t17.5 -39.5q-2 -31 -71 -143l-43 17q42 76 44 99q0 4 -14.5 20.5t-13.5 27.5z" />
    <glyph glyph-name="Wgrave" unicode="&#x1e80;" horiz-adv-x="834" 
d="M506 661h-70l-139 128l90 17zM544 0l-116 477l-191 -477h-91l-91 612h88l70 -489l191 489h78l118 -492l144 492h81l-189 -612h-92z" />
    <glyph glyph-name="wgrave" unicode="&#x1e81;" horiz-adv-x="636" 
d="M407 511h-70l-139 128l90 17zM326 0l-18 218q-48 -137 -134 -219l-82 1l-32 450l79 11l24 -390q47 51 82.5 135t48.5 178l-5 66h77l26 -383q55 59 89.5 161t48.5 222h73q-14 -128 -65 -256.5t-130 -193.5h-82z" />
    <glyph glyph-name="Wacute" unicode="&#x1e82;" horiz-adv-x="834" 
d="M390 661l139 145l88 -17l-157 -128h-70zM544 0l-116 477l-191 -477h-91l-91 612h88l70 -489l191 489h78l118 -492l144 492h81l-189 -612h-92z" />
    <glyph glyph-name="wacute" unicode="&#x1e83;" horiz-adv-x="636" 
d="M287 511l139 145l88 -17l-157 -128h-70zM326 0l-18 218q-48 -137 -134 -219l-82 1l-32 450l79 11l24 -390q47 51 82.5 135t48.5 178l-5 66h77l26 -383q55 59 89.5 161t48.5 222h73q-14 -128 -65 -256.5t-130 -193.5h-82z" />
    <glyph glyph-name="Wdieresis" unicode="&#x1e84;" horiz-adv-x="834" 
d="M482 745q1 15 20.5 34.5t32.5 19.5q14 0 34 -15.5t19 -29.5q-1 -15 -21 -34.5t-32 -19.5q-14 0 -34 16t-19 29zM303 745q1 15 20.5 34.5t32.5 19.5q14 0 34 -15.5t19 -29.5q-1 -15 -21 -34.5t-32 -19.5q-14 0 -34 16t-19 29zM544 0l-116 477l-191 -477h-91l-91 612h88
l70 -489l191 489h78l118 -492l144 492h81l-189 -612h-92z" />
    <glyph glyph-name="wdieresis" unicode="&#x1e85;" horiz-adv-x="636" 
d="M379 595q1 15 20.5 34.5t32.5 19.5q14 0 34 -15.5t19 -29.5q-1 -15 -21 -34.5t-32 -19.5q-14 0 -34 16t-19 29zM200 595q1 15 20.5 34.5t32.5 19.5q14 0 34 -15.5t19 -29.5q-1 -15 -21 -34.5t-32 -19.5q-14 0 -34 16t-19 29zM326 0l-18 218q-48 -137 -134 -219l-82 1
l-32 450l79 11l24 -390q47 51 82.5 135t48.5 178l-5 66h77l26 -383q55 59 89.5 161t48.5 222h73q-14 -128 -65 -256.5t-130 -193.5h-82z" />
    <glyph glyph-name="Ygrave" unicode="&#x1ef2;" horiz-adv-x="504" 
d="M380 661h-70l-139 128l90 17zM284 0h-87l17 244l-178 368h95l139 -286l169 286h88l-226 -366z" />
    <glyph glyph-name="ygrave" unicode="&#x1ef3;" horiz-adv-x="411" 
d="M322 511h-70l-139 128l90 17zM-52 -230q-23 0 -53 6l10 75q29 -6 62 -6q110 0 199 143h-36l-66 457l81 16l57 -408q79 162 111 397h76q-6 -68 -25 -152t-56 -178.5t-86 -171.5t-121 -127.5t-153 -50.5z" />
    <glyph glyph-name="endash" unicode="&#x2013;" horiz-adv-x="455" 
d="M410 273v-15l-19 -45h-346v15l20 45h345z" />
    <glyph glyph-name="emdash" unicode="&#x2014;" horiz-adv-x="655" 
d="M610 273v-15l-19 -45h-546v15l20 45h545z" />
    <glyph glyph-name="quoteleft" unicode="&#x2018;" horiz-adv-x="230" 
d="M181 504q-1 -17 -19.5 -32.5t-34.5 -15.5q-17 0 -38 22.5t-20 47.5q3 40 81 180l51 -19q-52 -113 -54 -130q0 -5 17.5 -22.5t16.5 -30.5z" />
    <glyph glyph-name="quoteright" unicode="&#x2019;" horiz-adv-x="230" 
d="M89 644q1 17 19.5 32.5t34.5 15.5q17 0 38 -22.5t20 -47.5q-3 -40 -81 -180l-51 19q52 113 54 130q0 5 -17.5 22.5t-16.5 30.5z" />
    <glyph glyph-name="quotesinglbase" unicode="&#x201a;" horiz-adv-x="230" 
d="M47 49q1 17 19.5 32.5t34.5 15.5q17 0 38 -22.5t20 -47.5q-3 -40 -81 -180l-51 19q52 113 54 130q0 5 -17.5 22.5t-16.5 30.5z" />
    <glyph glyph-name="quotedblleft" unicode="&#x201c;" horiz-adv-x="388" 
d="M339 504q-1 -17 -19.5 -32.5t-34.5 -15.5q-17 0 -38 22.5t-20 47.5q3 40 81 180l51 -19q-52 -113 -54 -130q0 -5 17.5 -22.5t16.5 -30.5zM181 504q-1 -17 -19.5 -32.5t-34.5 -15.5q-17 0 -38 22.5t-20 47.5q3 40 81 180l51 -19q-52 -113 -54 -130q0 -5 17.5 -22.5
t16.5 -30.5z" />
    <glyph glyph-name="quotedblright" unicode="&#x201d;" horiz-adv-x="383" 
d="M242 644q1 17 19.5 32.5t34.5 15.5q17 0 38 -22.5t20 -47.5q-3 -40 -81 -180l-51 19q52 113 54 130q0 5 -17.5 22.5t-16.5 30.5zM89 644q1 17 19.5 32.5t34.5 15.5q17 0 38 -22.5t20 -47.5q-3 -40 -81 -180l-51 19q52 113 54 130q0 5 -17.5 22.5t-16.5 30.5z" />
    <glyph glyph-name="quotedblbase" unicode="&#x201e;" horiz-adv-x="385" 
d="M202 49q1 17 19.5 32.5t34.5 15.5q17 0 38 -22.5t20 -47.5q-3 -40 -81 -180l-51 19q52 113 54 130q0 5 -17.5 22.5t-16.5 30.5zM47 49q1 17 19.5 32.5t34.5 15.5q17 0 38 -22.5t20 -47.5q-3 -40 -81 -180l-51 19q52 113 54 130q0 5 -17.5 22.5t-16.5 30.5z" />
    <glyph glyph-name="bullet" unicode="&#x2022;" horiz-adv-x="308" 
d="M54 263q2 28 39.5 65.5t62.5 37.5q26 0 62.5 -31t34.5 -58q-1 -27 -39 -64.5t-62 -37.5q-26 0 -62.5 30.5t-35.5 57.5z" />
    <glyph glyph-name="ellipsis" unicode="&#x2026;" horiz-adv-x="737" 
d="M34 40q1 17 24 39.5t38 22.5q16 0 39 -18.5t22 -34.5q-1 -17 -24.5 -39t-38.5 -22q-16 0 -38.5 18t-21.5 34zM541 40q1 17 24 39.5t38 22.5q16 0 39 -18.5t22 -34.5q-1 -17 -24.5 -39t-38.5 -22q-16 0 -38.5 18t-21.5 34zM287 40q1 17 24 39.5t38 22.5q16 0 39 -18.5
t22 -34.5q-1 -17 -24.5 -39t-38.5 -22q-16 0 -38.5 18t-21.5 34z" />
    <glyph glyph-name="guilsinglleft" unicode="&#x2039;" horiz-adv-x="332" 
d="M213 32l-168 200l196 200l43 -35l-138 -165l114 -165z" />
    <glyph glyph-name="guilsinglright" unicode="&#x203a;" horiz-adv-x="332" 
d="M119 432l168 -200l-196 -200l-43 35l138 165l-114 165z" />
    <glyph glyph-name="fraction" unicode="&#x2044;" horiz-adv-x="211" 
d="M-81 4l322 629l51 -24l-322 -629z" />
    <glyph glyph-name="Euro" unicode="&#x20ac;" 
d="M477 29q-76 -41 -184 -41q-213 0 -231 219h-80l19 50l51 10h9q0 18 1 28q2 24 4 37h-75l18 50l52 10h16q28 112 99 172t171 60q43 0 90.5 -8.5t71.5 -19.5l-29 -76q-66 31 -159 31q-60 0 -99 -36.5t-55 -122.5h249l-21 -60h-236q0 -2 -0.5 -8t-0.5 -8q-2 -36 -2 -49h221
l-21 -60h-196q11 -76 50 -109.5t106 -33.5q81 0 152 34z" />
    <glyph glyph-name="minus" unicode="&#x2212;" 
d="M437 298l-4 -65h-372l4 65h372z" />
    <glyph glyph-name="idotaccent" horiz-adv-x="230" 
d="M85 598q0 16 19.5 38.5t33.5 22.5t32 -17t18 -33q0 -14 -19.5 -36.5t-33.5 -22.5t-32 16.5t-18 31.5zM84 448l82 14l-33 -462h-81z" />
    <glyph glyph-name="caron.alt" horiz-adv-x="277" 
d="M109 661q2 12 19.5 22t33.5 10q15 0 26 -25.5t9 -52.5q-4 -51 -83 -152l-34 22q45 70 47 101q1 20 -8.5 45.5t-9.5 29.5z" />
    <glyph glyph-name="caron.alt.sc" horiz-adv-x="277" 
d="M109 471q2 12 19.5 22t33.5 10q15 0 26 -25.5t9 -52.5q-4 -51 -83 -152l-34 22q45 70 47 101q1 20 -8.5 45.5t-9.5 29.5z" />
    <glyph glyph-name="caron.alt.case" horiz-adv-x="277" 
d="M109 581q2 12 19.5 22t33.5 10q15 0 26 -25.5t9 -52.5q-4 -51 -83 -152l-34 22q45 70 47 101q1 20 -8.5 45.5t-9.5 29.5z" />
    <glyph glyph-name="commaaccent.case" horiz-adv-x="245" 
d="M81 -84q2 14 17 27t30 13t33.5 -21.5t17.5 -39.5q-2 -31 -71 -143l-43 17q42 76 44 99q0 4 -14.5 20.5t-13.5 27.5z" />
    <glyph glyph-name="acute.case" horiz-adv-x="335" 
d="M54 661l139 145l88 -17l-157 -128h-70z" />
    <glyph glyph-name="grave.case" horiz-adv-x="329" 
d="M269 661h-70l-139 128l90 17z" />
    <glyph glyph-name="hungarumlaut.case" horiz-adv-x="464" 
d="M181 661l139 145l88 -17l-157 -128h-70zM56 661l139 145l88 -17l-157 -128h-70z" />
    <glyph glyph-name="circumflex.case" horiz-adv-x="417" 
d="M295 661l-82 77l-92 -77h-67l134 145h60l114 -145h-67z" />
    <glyph glyph-name="caron.case" horiz-adv-x="417" 
d="M228 665h-60l-114 145h67l82 -77l92 77h67z" />
    <glyph glyph-name="breve.case" horiz-adv-x="428" 
d="M207 728q76 0 99 89h50q-4 -63 -51 -109t-107 -46q-65 0 -98 44.5t-29 110.5h50q12 -89 86 -89z" />
    <glyph glyph-name="tilde.case" horiz-adv-x="410" 
d="M335 777l30 -35q-57 -69 -105 -69q-19 0 -63.5 16.5t-56.5 16.5q-26 0 -68 -35l-27 35q64 67 107 67q23 0 62.5 -15t52.5 -15q32 0 68 34z" />
    <glyph glyph-name="macron.case" horiz-adv-x="433" 
d="M350 765l-1 -15l-21 -46h-245l1 15l21 46h245z" />
    <glyph glyph-name="dieresis.case" horiz-adv-x="428" 
d="M250 745q1 15 20.5 34.5t32.5 19.5q14 0 34 -15.5t19 -29.5q-1 -15 -21 -34.5t-32 -19.5q-14 0 -34 16t-19 29zM71 745q1 15 20.5 34.5t32.5 19.5q14 0 34 -15.5t19 -29.5q-1 -15 -21 -34.5t-32 -19.5q-14 0 -34 16t-19 29z" />
    <glyph glyph-name="dotaccent.case" horiz-adv-x="217" 
d="M49 740q1 16 23 38t37 22t37 -17.5t21 -33.5t-23.5 -37.5t-36.5 -21.5q-16 0 -37.5 17.5t-20.5 32.5z" />
    <glyph glyph-name="ring.case" horiz-adv-x="338" 
d="M262 753q-2 -36 -32.5 -62.5t-67.5 -26.5q-39 0 -64.5 24t-22.5 65q2 37 32.5 63.5t67.5 26.5q39 0 64.5 -24t22.5 -66zM123 753q-1 -20 11 -32.5t31 -12.5t33.5 12.5t15.5 32.5q1 21 -11.5 34t-31.5 13t-33 -13t-15 -34z" />
    <glyph glyph-name="cedilla.case" horiz-adv-x="289" 
d="M88 -91l49 91h47l-29 -54q22 -10 31.5 -15.5t22 -14.5t16.5 -19.5t3 -24.5q-3 -36 -43 -65.5t-117 -36.5l-8 43q51 6 76.5 15.5t26.5 29.5q1 14 -16.5 24.5t-56.5 21.5z" />
    <glyph glyph-name="ogonek.case" horiz-adv-x="306" 
d="M72 -135q3 37 34.5 73.5t71.5 61.5h57q-44 -31 -72.5 -64.5t-29.5 -61.5q-1 -19 10.5 -30t29.5 -11q16 0 42 13l11 -41q-40 -21 -76 -21q-40 0 -60 22t-18 59z" />
    <glyph glyph-name="zero.fit" 
d="M464 384q0 -203 -68 -299.5t-180 -96.5q-84 0 -133 64.5t-49 178.5q0 200 68 296.5t179 96.5q85 0 134 -65t49 -175zM248 51q129 0 129 298q0 99 -32.5 155t-92.5 56q-131 0 -131 -295q0 -102 32 -158t95 -56z" />
    <glyph glyph-name="one.fit" horiz-adv-x="354" 
d="M254 0h-84l37 530l-155 -63l-16 75q63 18 205 70h56z" />
    <glyph glyph-name="two.fit" horiz-adv-x="477" 
d="M404 0h-371l7 64q163 151 229 233.5t67 146.5q0 50 -31 79.5t-82 29.5q-50 0 -132 -41l-17 69q86 43 173 43q79 0 129 -43t50 -117q0 -76 -69 -168.5t-223 -227.5l286 4z" />
    <glyph glyph-name="three.fit" horiz-adv-x="442" 
d="M152 -12q-82 0 -146 20l23 74q75 -24 148 -24q65 0 101.5 29.5t36.5 82.5t-37 84.5t-101 31.5q-18 0 -63 -3l-9 64q99 0 153 32.5t54 84.5q0 41 -27.5 65.5t-72.5 24.5q-64 0 -127 -34l-18 66q84 38 173 38q71 0 114 -37.5t43 -96.5q0 -56 -37.5 -97t-93.5 -61
q65 -13 99.5 -52.5t34.5 -96.5q0 -80 -68 -137.5t-180 -57.5z" />
    <glyph glyph-name="four.fit" horiz-adv-x="531" 
d="M314 198l20 302l-228 -302h208zM468 131h-78l-9 -131h-81l9 131h-292l4 57l323 424h80l-29 -414h96z" />
    <glyph glyph-name="five.fit" horiz-adv-x="482" 
d="M148 -12q-65 0 -124 18l25 73q72 -25 150 -25q65 0 103.5 34.5t38.5 88.5q0 56 -43 88.5t-115 32.5q-53 0 -99 -11l43 325h319l-16 -69h-240l-24 -183q39 7 66 7q84 0 138.5 -44t53.5 -119q1 -98 -74 -157t-202 -59z" />
    <glyph glyph-name="six.fit" horiz-adv-x="477" 
d="M434 218q0 -104 -65 -167t-149 -63q-86 0 -136 63.5t-50 182.5q0 194 77.5 292t216.5 98q63 0 115 -16l-20 -75q-67 23 -138 23q-136 0 -160 -224q80 46 149 46q75 0 117.5 -43.5t42.5 -116.5zM238 51q52 0 82.5 35t30.5 106q0 54 -30.5 87.5t-84.5 33.5q-45 0 -115 -34
q-1 -15 -1 -49q0 -85 34 -132t84 -47z" />
    <glyph glyph-name="seven.fit" horiz-adv-x="474" 
d="M171 -13l-86 24l276 526h-323l19 75h399l-4 -65q-280 -560 -281 -560z" />
    <glyph glyph-name="eight.fit" horiz-adv-x="478" 
d="M212 -12q-85 0 -135 38.5t-50 108.5q0 57 36.5 96.5t107.5 82.5q-49 30 -72 63.5t-23 83.5q0 73 58 118t137 44q73 1 118.5 -32t45.5 -90q0 -88 -128 -169q71 -40 100 -73.5t29 -84.5q0 -79 -68.5 -132.5t-155.5 -53.5zM155 480q0 -35 21 -60t79 -59q53 35 77.5 61.5
t24.5 58.5q0 36 -30.5 58.5t-79.5 22.5q-39 0 -65.5 -22.5t-26.5 -59.5zM241 50q44 0 80 25t36 70q0 40 -28 68t-107 71q-55 -34 -83 -65t-28 -68q0 -45 36.5 -73t93.5 -28z" />
    <glyph glyph-name="nine.fit" horiz-adv-x="482" 
d="M246 298q46 0 114 34q2 30 2 49q0 85 -34 132t-84 47q-52 0 -82.5 -35t-30.5 -106q0 -54 30.5 -87.5t84.5 -33.5zM140 -12q-62 0 -106 16l19 71q55 -19 101 -19q78 0 131 53t70 169q-81 -45 -147 -45q-75 0 -117.5 44t-42.5 117q0 104 65 167t149 63q86 0 136 -63.5
t50 -182.5q0 -189 -87 -289.5t-221 -100.5z" />
    <glyph glyph-name="zero.osf" horiz-adv-x="487" 
d="M458 284q0 -132 -67.5 -214t-172.5 -82q-85 0 -137 58t-52 158q0 130 67.5 213t170.5 83q85 0 138 -58t53 -158zM248 58q54 0 90.5 53t36.5 147q0 84 -37 127.5t-101 43.5q-54 0 -91 -53.5t-37 -145.5q0 -85 38 -128.5t101 -43.5z" />
    <glyph glyph-name="one.osf" horiz-adv-x="331" 
d="M240 0h-84l30 408l-155 -63l-16 75q63 18 205 70h56z" />
    <glyph glyph-name="two.osf" horiz-adv-x="447" 
d="M395 0h-371l7 64q152 93 212.5 156.5t60.5 113.5q0 43 -30.5 69t-81.5 26q-50 0 -132 -41l-17 69q86 43 173 43q80 0 129 -40t49 -112q0 -125 -249 -280l266 4z" />
    <glyph glyph-name="three.osf" horiz-adv-x="418" 
d="M134 -136q-82 0 -146 20l23 74q75 -24 148 -24q65 0 101.5 29.5t36.5 82.5t-37 84.5t-101 31.5q-18 0 -63 -3l-9 64q99 0 153 32.5t54 84.5q0 41 -27.5 65.5t-72.5 24.5q-64 0 -127 -34l-18 66q84 38 173 38q71 0 114 -37.5t43 -96.5q0 -56 -37.5 -97t-93.5 -61
q65 -13 99.5 -52.5t34.5 -96.5q0 -80 -68 -137.5t-180 -57.5z" />
    <glyph glyph-name="four.osf" horiz-adv-x="460" 
d="M279 67l21 310l-229 -310h208zM433 0h-78l-9 -131h-81l9 131h-292l4 57l324 433h80l-30 -423h96z" />
    <glyph glyph-name="five.osf" horiz-adv-x="423" 
d="M106 -134q-65 0 -124 18l25 73q72 -25 150 -25q65 0 103.5 34.5t38.5 88.5q0 56 -43 88.5t-115 32.5q-53 0 -99 -11l43 325h319l-16 -69h-240l-24 -183q39 7 66 7q84 0 138.5 -44t53.5 -119q1 -98 -74 -157t-202 -59z" />
    <glyph glyph-name="six.osf" horiz-adv-x="477" 
d="M442 218q0 -104 -65 -167t-149 -63q-86 0 -136 63.5t-50 182.5q0 194 77.5 292t216.5 98q63 0 115 -16l-20 -75q-67 23 -138 23q-136 0 -160 -224q80 46 149 46q75 0 117.5 -43.5t42.5 -116.5zM246 51q52 0 82.5 35t30.5 106q0 54 -30.5 87.5t-84.5 33.5q-45 0 -115 -34
q-1 -15 -1 -49q0 -85 34 -132t84 -47z" />
    <glyph glyph-name="seven.osf" horiz-adv-x="435" 
d="M150 -135l-80 24l276 526h-329l19 75h399l-4 -65q-280 -560 -281 -560z" />
    <glyph glyph-name="eight.osf" horiz-adv-x="477" 
d="M214 -12q-85 0 -135 38.5t-50 108.5q0 57 36.5 96.5t107.5 82.5q-49 30 -72 63.5t-23 83.5q0 73 58 118t137 44q73 1 118.5 -32t45.5 -90q0 -88 -128 -169q71 -40 100 -73.5t29 -84.5q0 -79 -68.5 -132.5t-155.5 -53.5zM157 480q0 -35 21 -60t79 -59q53 35 77.5 61.5
t24.5 58.5q0 36 -30.5 58.5t-79.5 22.5q-39 0 -65.5 -22.5t-26.5 -59.5zM243 50q44 0 80 25t36 70q0 40 -28 68t-107 71q-55 -34 -83 -65t-28 -68q0 -45 36.5 -73t93.5 -28z" />
    <glyph glyph-name="nine.osf" horiz-adv-x="474" 
d="M231 174q46 0 114 34q2 30 2 49q0 85 -34 132t-84 47q-52 0 -82.5 -35t-30.5 -106q0 -54 30.5 -87.5t84.5 -33.5zM125 -136q-62 0 -106 16l19 71q55 -19 101 -19q78 0 131 53t70 169q-81 -45 -147 -45q-75 0 -117.5 44t-42.5 117q0 104 65 167t149 63q86 0 136 -63.5
t50 -182.5q0 -189 -87 -289.5t-221 -100.5z" />
    <glyph glyph-name="zero.tosf" horiz-adv-x="475" 
d="M452 284q0 -132 -67.5 -214t-172.5 -82q-85 0 -137 58t-52 158q0 130 67.5 213t170.5 83q85 0 138 -58t53 -158zM242 58q54 0 90.5 53t36.5 147q0 84 -37 127.5t-101 43.5q-54 0 -91 -53.5t-37 -145.5q0 -85 38 -128.5t101 -43.5z" />
    <glyph glyph-name="one.tosf" horiz-adv-x="475" 
d="M331 0h-84l30 408l-155 -63l-16 75q63 18 205 70h56z" />
    <glyph glyph-name="two.tosf" horiz-adv-x="475" 
d="M411 0h-371l7 64q152 93 212.5 156.5t60.5 113.5q0 43 -30.5 69t-81.5 26q-50 0 -132 -41l-17 69q86 43 173 43q80 0 129 -40t49 -112q0 -125 -249 -280l266 4z" />
    <glyph glyph-name="three.tosf" horiz-adv-x="475" 
d="M161 -136q-82 0 -146 20l23 74q75 -24 148 -24q65 0 101.5 29.5t36.5 82.5t-37 84.5t-101 31.5q-18 0 -63 -3l-9 64q99 0 153 32.5t54 84.5q0 41 -27.5 65.5t-72.5 24.5q-64 0 -127 -34l-18 66q84 38 173 38q71 0 114 -37.5t43 -96.5q0 -56 -37.5 -97t-93.5 -61
q65 -13 99.5 -52.5t34.5 -96.5q0 -80 -68 -137.5t-180 -57.5z" />
    <glyph glyph-name="four.tosf" horiz-adv-x="475" 
d="M289 67l21 310l-229 -310h208zM443 0h-78l-9 -131h-81l9 131h-292l4 57l324 433h80l-30 -423h96z" />
    <glyph glyph-name="five.tosf" horiz-adv-x="475" 
d="M135 -134q-65 0 -124 18l25 73q72 -25 150 -25q65 0 103.5 34.5t38.5 88.5q0 56 -43 88.5t-115 32.5q-53 0 -99 -11l43 325h319l-16 -69h-240l-24 -183q38 7 66 7q84 0 138.5 -44t53.5 -119q1 -98 -74 -157t-202 -59z" />
    <glyph glyph-name="six.tosf" horiz-adv-x="475" 
d="M445 218q0 -104 -65 -167t-149 -63q-86 0 -136 63.5t-50 182.5q0 194 77.5 292t216.5 98q63 0 115 -16l-20 -75q-67 23 -138 23q-136 0 -160 -224q80 46 149 46q75 0 117.5 -43.5t42.5 -116.5zM249 51q52 0 82.5 35t30.5 106q0 54 -30.5 87.5t-84.5 33.5q-45 0 -115 -34
q-1 -15 -1 -49q0 -85 34 -132t84 -47z" />
    <glyph glyph-name="seven.tosf" horiz-adv-x="475" 
d="M179 -135l-80 24l276 526h-329l19 75h399l-4 -65q-280 -560 -281 -560z" />
    <glyph glyph-name="eight.tosf" horiz-adv-x="475" 
d="M211 -12q-85 0 -135 38.5t-50 108.5q0 57 36.5 96.5t107.5 82.5q-49 30 -72 63.5t-23 83.5q0 73 58 118t137 44q73 1 118.5 -32t45.5 -90q0 -88 -128 -169q71 -40 100 -73.5t29 -84.5q0 -79 -68.5 -132.5t-155.5 -53.5zM154 480q0 -35 21 -60t79 -59q53 35 77.5 61.5
t24.5 58.5q0 36 -30.5 58.5t-79.5 22.5q-39 0 -65.5 -22.5t-26.5 -59.5zM240 50q44 0 80 25t36 70q0 40 -28 68t-107 71q-55 -34 -83 -65t-28 -68q0 -45 36.5 -73t93.5 -28z" />
    <glyph glyph-name="nine.tosf" horiz-adv-x="475" 
d="M236 174q46 0 114 34q2 30 2 49q0 85 -34 132t-84 47q-52 0 -82.5 -35t-30.5 -106q0 -54 30.5 -87.5t84.5 -33.5zM130 -136q-62 0 -106 16l19 71q55 -19 101 -19q78 0 131 53t70 169q-81 -45 -147 -45q-75 0 -117.5 44t-42.5 117q0 104 65 167t149 63q86 0 136 -63.5
t50 -182.5q0 -189 -87 -289.5t-221 -100.5z" />
    <glyph glyph-name="A.sc" horiz-adv-x="451" 
d="M285 199l-50 214l-89 -214h139zM332 0l-33 139h-177l-58 -139h-79l214 490h101l118 -490h-86z" />
    <glyph glyph-name="Agrave.sc" horiz-adv-x="451" 
d="M308 541h-70l-139 128l90 17zM285 199l-50 214l-89 -214h139zM332 0l-33 139h-177l-58 -139h-79l214 490h101l118 -490h-86z" />
    <glyph glyph-name="Aacute.sc" horiz-adv-x="451" 
d="M203 541l139 145l88 -17l-157 -128h-70zM285 199l-50 214l-89 -214h139zM332 0l-33 139h-177l-58 -139h-79l214 490h101l118 -490h-86z" />
    <glyph glyph-name="Acircumflex.sc" horiz-adv-x="451" 
d="M345 541l-82 77l-92 -77h-67l134 145h60l114 -145h-67zM285 199l-50 214l-89 -214h139zM332 0l-33 139h-177l-58 -139h-79l214 490h101l118 -490h-86z" />
    <glyph glyph-name="Atilde.sc" horiz-adv-x="451" 
d="M390 657l30 -35q-57 -69 -105 -69q-19 0 -63.5 16.5t-56.5 16.5q-26 0 -68 -35l-27 35q64 67 107 67q23 0 62.5 -15t52.5 -15q32 0 68 34zM285 199l-50 214l-89 -214h139zM332 0l-33 139h-177l-58 -139h-79l214 490h101l118 -490h-86z" />
    <glyph glyph-name="Adieresis.sc" horiz-adv-x="451" 
d="M291 625q1 15 20.5 34.5t32.5 19.5q14 0 34 -15.5t19 -29.5q-1 -15 -21 -34.5t-32 -19.5q-14 0 -34 16t-19 29zM112 625q1 15 20.5 34.5t32.5 19.5q14 0 34 -15.5t19 -29.5q-1 -15 -21 -34.5t-32 -19.5q-14 0 -34 16t-19 29zM285 199l-50 214l-89 -214h139zM332 0
l-33 139h-177l-58 -139h-79l214 490h101l118 -490h-86z" />
    <glyph glyph-name="Aring.sc" horiz-adv-x="451" 
d="M357 633q-2 -36 -32.5 -62.5t-67.5 -26.5q-39 0 -64.5 24t-22.5 65q2 37 32.5 63.5t67.5 26.5q39 0 64.5 -24t22.5 -66zM218 633q-1 -20 11 -32.5t31 -12.5t33.5 12.5t15.5 32.5q1 21 -11.5 34t-31.5 13t-33 -13t-15 -34zM285 199l-50 214l-89 -214h139zM332 0l-33 139
h-177l-58 -139h-79l214 490h101l118 -490h-86z" />
    <glyph glyph-name="Amacron.sc" horiz-adv-x="451" 
d="M397 645l-1 -15l-21 -46h-245l1 15l21 46h245zM285 199l-50 214l-89 -214h139zM332 0l-33 139h-177l-58 -139h-79l214 490h101l118 -490h-86z" />
    <glyph glyph-name="Abreve.sc" horiz-adv-x="451" 
d="M262 608q76 0 99 89h50q-4 -63 -51 -109t-107 -46q-65 0 -98 44.5t-29 110.5h50q12 -89 86 -89zM285 199l-50 214l-89 -214h139zM332 0l-33 139h-177l-58 -139h-79l214 490h101l118 -490h-86z" />
    <glyph glyph-name="Aogonek.sc" horiz-adv-x="451" 
d="M285 199l-50 214l-89 -214h139zM360 0h-28l-33 139h-177l-58 -139h-79l214 490h101l118 -490h-1q-44 -31 -72.5 -64.5t-29.5 -61.5q-1 -19 10.5 -30t29.5 -11q16 0 42 13l11 -41q-40 -21 -76 -21q-40 0 -60 22t-18 59q3 37 34.5 73.5t71.5 61.5z" />
    <glyph glyph-name="Acaron.sc" horiz-adv-x="451" 
d="M288 545h-60l-114 145h67l82 -77l92 77h67zM285 199l-50 214l-89 -214h139zM332 0l-33 139h-177l-58 -139h-79l214 490h101l118 -490h-86z" />
    <glyph glyph-name="B.sc" horiz-adv-x="462" 
d="M227 437h-44l-12 -161h59q39 0 65 20.5t26 56.5q0 38 -26.5 61t-67.5 23zM228 223h-61l-12 -168h85q43 0 69 20.5t26 57.5q0 41 -28 65.5t-79 24.5zM66 0l36 490h147q72 0 113.5 -32t41.5 -86q0 -74 -79 -114q97 -22 97 -106q0 -69 -60 -110.5t-160 -41.5h-136z" />
    <glyph glyph-name="C.sc" horiz-adv-x="437" 
d="M379 80l15 -59q-79 -32 -153 -33q-94 1 -151 58t-57 166q0 137 71 212.5t186 75.5q70 0 130 -22l-22 -68q-67 24 -135 24q-65 0 -102.5 -51.5t-37.5 -159.5q0 -81 40 -123.5t100 -42.5q57 0 116 23z" />
    <glyph glyph-name="Ccedilla.sc" horiz-adv-x="437" 
d="M322 -128q-3 -36 -43 -65.5t-117 -36.5l-8 43q51 6 76.5 15.5t26.5 29.5q1 14 -16.5 24.5t-56.5 21.5l-2 5l43 80q-88 5 -140 62t-52 161q0 137 71 212.5t186 75.5q70 0 130 -22l-22 -68q-67 24 -135 24q-65 0 -102.5 -51.5t-37.5 -159.5q0 -81 40 -123.5t100 -42.5
q57 0 116 23l15 -59q-63 -25 -121 -31l-24 -44q22 -10 31.5 -15.5t22 -14.5t16.5 -19.5t3 -24.5z" />
    <glyph glyph-name="Cacute.sc" horiz-adv-x="437" 
d="M198 541l139 145l88 -17l-157 -128h-70zM379 80l15 -59q-79 -32 -153 -33q-94 1 -151 58t-57 166q0 137 71 212.5t186 75.5q70 0 130 -22l-22 -68q-67 24 -135 24q-65 0 -102.5 -51.5t-37.5 -159.5q0 -81 40 -123.5t100 -42.5q57 0 116 23z" />
    <glyph glyph-name="Ccircumflex.sc" horiz-adv-x="437" 
d="M373 541l-82 77l-92 -77h-67l134 145h60l114 -145h-67zM379 80l15 -59q-79 -32 -153 -33q-94 1 -151 58t-57 166q0 137 71 212.5t186 75.5q70 0 130 -22l-22 -68q-67 24 -135 24q-65 0 -102.5 -51.5t-37.5 -159.5q0 -81 40 -123.5t100 -42.5q57 0 116 23z" />
    <glyph glyph-name="Cdotaccent.sc" horiz-adv-x="437" 
d="M231 620q1 16 23 38t37 22t37 -17.5t21 -33.5t-23.5 -37.5t-36.5 -21.5q-16 0 -37.5 17.5t-20.5 32.5zM379 80l15 -59q-79 -32 -153 -33q-94 1 -151 58t-57 166q0 137 71 212.5t186 75.5q70 0 130 -22l-22 -68q-67 24 -135 24q-65 0 -102.5 -51.5t-37.5 -159.5
q0 -81 40 -123.5t100 -42.5q57 0 116 23z" />
    <glyph glyph-name="Ccaron.sc" horiz-adv-x="437" 
d="M317 545h-60l-114 145h67l82 -77l92 77h67zM379 80l15 -59q-79 -32 -153 -33q-94 1 -151 58t-57 166q0 137 71 212.5t186 75.5q70 0 130 -22l-22 -68q-67 24 -135 24q-65 0 -102.5 -51.5t-37.5 -159.5q0 -81 40 -123.5t100 -42.5q57 0 116 23z" />
    <glyph glyph-name="D.sc" horiz-adv-x="515" 
d="M102 490h158q102 0 162 -56.5t60 -150.5q0 -133 -78.5 -208t-201.5 -75h-136zM185 432l-28 -373h76q73 0 116 51t43 151q0 82 -42.5 126.5t-111.5 44.5h-53z" />
    <glyph glyph-name="Dcaron.sc" horiz-adv-x="515" 
d="M299 545h-60l-114 145h67l82 -77l92 77h67zM102 490h158q102 0 162 -56.5t60 -150.5q0 -133 -78.5 -208t-201.5 -75h-136zM185 432l-28 -373h76q73 0 116 51t43 151q0 82 -42.5 126.5t-111.5 44.5h-53z" />
    <glyph glyph-name="E.sc" horiz-adv-x="437" 
d="M66 0l36 490h293l-15 -63l-195 3l-11 -146h183l-14 -61l-173 3l-12 -164l218 3l-15 -65h-295z" />
    <glyph glyph-name="Egrave.sc" horiz-adv-x="437" 
d="M363 541h-70l-139 128l90 17zM66 0l36 490h293l-15 -63l-195 3l-11 -146h183l-14 -61l-173 3l-12 -164l218 3l-15 -65h-295z" />
    <glyph glyph-name="Eacute.sc" horiz-adv-x="437" 
d="M146 541l139 145l88 -17l-157 -128h-70zM66 0l36 490h293l-15 -63l-195 3l-11 -146h183l-14 -61l-173 3l-12 -164l218 3l-15 -65h-295z" />
    <glyph glyph-name="Ecircumflex.sc" horiz-adv-x="437" 
d="M340 541l-82 77l-92 -77h-67l134 145h60l114 -145h-67zM66 0l36 490h293l-15 -63l-195 3l-11 -146h183l-14 -61l-173 3l-12 -164l218 3l-15 -65h-295z" />
    <glyph glyph-name="Edieresis.sc" horiz-adv-x="437" 
d="M291 625q1 15 20.5 34.5t32.5 19.5q14 0 34 -15.5t19 -29.5q-1 -15 -21 -34.5t-32 -19.5q-14 0 -34 16t-19 29zM112 625q1 15 20.5 34.5t32.5 19.5q14 0 34 -15.5t19 -29.5q-1 -15 -21 -34.5t-32 -19.5q-14 0 -34 16t-19 29zM66 0l36 490h293l-15 -63l-195 3l-11 -146
h183l-14 -61l-173 3l-12 -164l218 3l-15 -65h-295z" />
    <glyph glyph-name="Emacron.sc" horiz-adv-x="437" 
d="M390 645l-1 -15l-21 -46h-245l1 15l21 46h245zM66 0l36 490h293l-15 -63l-195 3l-11 -146h183l-14 -61l-173 3l-12 -164l218 3l-15 -65h-295z" />
    <glyph glyph-name="Ebreve.sc" horiz-adv-x="437" 
d="M256 608q76 0 99 89h50q-4 -63 -51 -109t-107 -46q-65 0 -98 44.5t-29 110.5h50q12 -89 86 -89zM66 0l36 490h293l-15 -63l-195 3l-11 -146h183l-14 -61l-173 3l-12 -164l218 3l-15 -65h-295z" />
    <glyph glyph-name="Edotaccent.sc" horiz-adv-x="437" 
d="M191 620q1 16 23 38t37 22t37 -17.5t21 -33.5t-23.5 -37.5t-36.5 -21.5q-16 0 -37.5 17.5t-20.5 32.5zM66 0l36 490h293l-15 -63l-195 3l-11 -146h183l-14 -61l-173 3l-12 -164l218 3l-15 -65h-295z" />
    <glyph glyph-name="Eogonek.sc" horiz-adv-x="437" 
d="M66 0l36 490h293l-15 -63l-195 3l-11 -146h183l-14 -61l-173 3l-12 -164l218 3l-15 -65h-295zM198 -135q3 37 34.5 73.5t71.5 61.5h57q-44 -31 -72.5 -64.5t-29.5 -61.5q-1 -19 10.5 -30t29.5 -11q16 0 42 13l11 -41q-40 -21 -76 -21q-40 0 -60 22t-18 59z" />
    <glyph glyph-name="Ecaron.sc" horiz-adv-x="437" 
d="M283 545h-60l-114 145h67l82 -77l92 77h67zM66 0l36 490h293l-15 -63l-195 3l-11 -146h183l-14 -61l-173 3l-12 -164l218 3l-15 -65h-295z" />
    <glyph glyph-name="F.sc" horiz-adv-x="419" 
d="M342 215l-173 2l-16 -217h-87l36 490h293l-15 -63l-195 3l-12 -154h184z" />
    <glyph glyph-name="G.sc" horiz-adv-x="468" 
d="M409 24q-83 -35 -166 -35q-93 0 -151.5 58t-58.5 165q0 134 70.5 211.5t187.5 77.5q93 0 153 -28l-31 -69q-66 30 -149 30q-64 0 -102 -50t-39 -154q1 -89 41.5 -132.5t97.5 -43.5q34 0 69 8l14 188h81z" />
    <glyph glyph-name="Gcircumflex.sc" horiz-adv-x="468" 
d="M373 541l-82 77l-92 -77h-67l134 145h60l114 -145h-67zM409 24q-83 -35 -166 -35q-93 0 -151.5 58t-58.5 165q0 134 70.5 211.5t187.5 77.5q93 0 153 -28l-31 -69q-66 30 -149 30q-64 0 -102 -50t-39 -154q1 -89 41.5 -132.5t97.5 -43.5q34 0 69 8l14 188h81z" />
    <glyph glyph-name="Gbreve.sc" horiz-adv-x="468" 
d="M289 608q76 0 99 89h50q-4 -63 -51 -109t-107 -46q-65 0 -98 44.5t-29 110.5h50q12 -89 86 -89zM409 24q-83 -35 -166 -35q-93 0 -151.5 58t-58.5 165q0 134 70.5 211.5t187.5 77.5q93 0 153 -28l-31 -69q-66 30 -149 30q-64 0 -102 -50t-39 -154q1 -89 41.5 -132.5
t97.5 -43.5q34 0 69 8l14 188h81z" />
    <glyph glyph-name="Gdotaccent.sc" horiz-adv-x="468" 
d="M233 620q1 16 23 38t37 22t37 -17.5t21 -33.5t-23.5 -37.5t-36.5 -21.5q-16 0 -37.5 17.5t-20.5 32.5zM409 24q-83 -35 -166 -35q-93 0 -151.5 58t-58.5 165q0 134 70.5 211.5t187.5 77.5q93 0 153 -28l-31 -69q-66 30 -149 30q-64 0 -102 -50t-39 -154
q1 -89 41.5 -132.5t97.5 -43.5q34 0 69 8l14 188h81z" />
    <glyph glyph-name="Gcommaaccent.sc" horiz-adv-x="468" 
d="M409 24q-83 -35 -166 -35q-93 0 -151.5 58t-58.5 165q0 134 70.5 211.5t187.5 77.5q93 0 153 -28l-31 -69q-66 30 -149 30q-64 0 -102 -50t-39 -154q1 -89 41.5 -132.5t97.5 -43.5q34 0 69 8l14 188h81zM201 -84q2 14 17 27t30 13t33.5 -21.5t17.5 -39.5q-2 -31 -71 -143
l-43 17q42 76 44 99q0 4 -14.5 20.5t-13.5 27.5z" />
    <glyph glyph-name="H.sc" horiz-adv-x="547" 
d="M357 0l16 222h-204l-16 -222h-87l36 490h87l-15 -203h204l15 203h88l-36 -490h-88z" />
    <glyph glyph-name="Hcircumflex.sc" horiz-adv-x="547" 
d="M386 541l-82 77l-92 -77h-67l134 145h60l114 -145h-67zM357 0l16 222h-204l-16 -222h-87l36 490h87l-15 -203h204l15 203h88l-36 -490h-88z" />
    <glyph glyph-name="I.sc" horiz-adv-x="255" 
d="M189 490l-36 -490h-87l36 490h87z" />
    <glyph glyph-name="Igrave.sc" horiz-adv-x="255" 
d="M205 541h-70l-139 128l90 17zM189 490l-36 -490h-87l36 490h87z" />
    <glyph glyph-name="Iacute.sc" horiz-adv-x="255" 
d="M98 541l139 145l88 -17l-157 -128h-70zM189 490l-36 -490h-87l36 490h87z" />
    <glyph glyph-name="Icircumflex.sc" horiz-adv-x="255" 
d="M241 541l-82 77l-92 -77h-67l134 145h60l114 -145h-67zM189 490l-36 -490h-87l36 490h87z" />
    <glyph glyph-name="Idieresis.sc" horiz-adv-x="255" 
d="M187 625q1 15 20.5 34.5t32.5 19.5q14 0 34 -15.5t19 -29.5q-1 -15 -21 -34.5t-32 -19.5q-14 0 -34 16t-19 29zM8 625q1 15 20.5 34.5t32.5 19.5q14 0 34 -15.5t19 -29.5q-1 -15 -21 -34.5t-32 -19.5q-14 0 -34 16t-19 29zM189 490l-36 -490h-87l36 490h87z" />
    <glyph glyph-name="Itilde.sc" horiz-adv-x="255" 
d="M281 657l30 -35q-57 -69 -105 -69q-19 0 -63.5 16.5t-56.5 16.5q-26 0 -68 -35l-27 35q64 67 107 67q23 0 62.5 -15t52.5 -15q32 0 68 34zM189 490l-36 -490h-87l36 490h87z" />
    <glyph glyph-name="Imacron.sc" horiz-adv-x="255" 
d="M289 645l-1 -15l-21 -46h-245l1 15l21 46h245zM189 490l-36 -490h-87l36 490h87z" />
    <glyph glyph-name="Ibreve.sc" horiz-adv-x="255" 
d="M155 608q76 0 99 89h50q-4 -63 -51 -109t-107 -46q-65 0 -98 44.5t-29 110.5h50q12 -89 86 -89zM189 490l-36 -490h-87l36 490h87z" />
    <glyph glyph-name="Iogonek.sc" horiz-adv-x="255" 
d="M95 0h-29l36 490h87l-36 -490h-1q-44 -31 -72.5 -64.5t-29.5 -61.5q-1 -19 10.5 -30t29.5 -11q16 0 42 13l11 -41q-40 -21 -76 -21q-40 0 -60 22t-18 59q3 37 34.5 73.5t71.5 61.5z" />
    <glyph glyph-name="Idotaccent.sc" horiz-adv-x="255" 
d="M94 620q1 16 23 38t37 22t37 -17.5t21 -33.5t-23.5 -37.5t-36.5 -21.5q-16 0 -37.5 17.5t-20.5 32.5zM189 490l-36 -490h-87l36 490h87z" />
    <glyph glyph-name="J.sc" horiz-adv-x="325" 
d="M259 490l-26 -349q-6 -74 -50 -113t-112 -39q-39 0 -71 13l21 71q37 -16 65 -16q55 0 59 64l27 369h87z" />
    <glyph glyph-name="Jcircumflex.sc" horiz-adv-x="305" 
d="M307 541l-82 77l-92 -77h-67l134 145h60l114 -145h-67zM259 490l-26 -349q-6 -74 -50 -113t-112 -39q-39 0 -71 13l21 71q37 -16 65 -16q55 0 59 64l27 369h87z" />
    <glyph glyph-name="K.sc" horiz-adv-x="486" 
d="M344 0l-169 262l205 228h103l-216 -222l185 -268h-108zM189 490l-36 -490h-87l36 490h87z" />
    <glyph glyph-name="Kcommaaccent.sc" horiz-adv-x="486" 
d="M344 0l-169 262l205 228h103l-216 -222l185 -268h-108zM189 490l-36 -490h-87l36 490h87zM181 -84q2 14 17 27t30 13t33.5 -21.5t17.5 -39.5q-2 -31 -71 -143l-43 17q42 76 44 99q0 4 -14.5 20.5t-13.5 27.5z" />
    <glyph glyph-name="L.sc" horiz-adv-x="404" 
d="M66 0l36 490h87l-31 -425l222 3l-16 -68h-298z" />
    <glyph glyph-name="Lacute.sc" horiz-adv-x="404" 
d="M107 541l139 145l88 -17l-157 -128h-70zM66 0l36 490h87l-31 -425l222 3l-16 -68h-298z" />
    <glyph glyph-name="Lcommaaccent.sc" horiz-adv-x="404" 
d="M66 0l36 490h87l-31 -425l222 3l-16 -68h-298zM161 -84q2 14 17 27t30 13t33.5 -21.5t17.5 -39.5q-2 -31 -71 -143l-43 17q42 76 44 99q0 4 -14.5 20.5t-13.5 27.5z" />
    <glyph glyph-name="Lcaron.sc" horiz-adv-x="404" 
d="M290 471q2 12 19.5 22t33.5 10q15 0 26 -25.5t9 -52.5q-4 -51 -83 -152l-34 22q45 70 47 101q1 20 -8.5 45.5t-9.5 29.5zM66 0l36 490h87l-31 -425l222 3l-16 -68h-298z" />
    <glyph glyph-name="M.sc" horiz-adv-x="677" 
d="M283 0l-113 375l-56 -375h-80l82 490h101l113 -370l160 370h103l15 -490h-85l-9 375l-162 -375h-69z" />
    <glyph glyph-name="N.sc" horiz-adv-x="561" 
d="M386 0l-216 359l-27 -359h-77l36 490h80l211 -354l25 354h77l-36 -490h-73z" />
    <glyph glyph-name="Ntilde.sc" horiz-adv-x="561" 
d="M438 657l30 -35q-57 -69 -105 -69q-19 0 -63.5 16.5t-56.5 16.5q-26 0 -68 -35l-27 35q64 67 107 67q23 0 62.5 -15t52.5 -15q32 0 68 34zM386 0l-216 359l-27 -359h-77l36 490h80l211 -354l25 354h77l-36 -490h-73z" />
    <glyph glyph-name="Nacute.sc" horiz-adv-x="561" 
d="M229 541l139 145l88 -17l-157 -128h-70zM386 0l-216 359l-27 -359h-77l36 490h80l211 -354l25 354h77l-36 -490h-73z" />
    <glyph glyph-name="Ncommaaccent.sc" horiz-adv-x="561" 
d="M386 0l-216 359l-27 -359h-77l36 490h80l211 -354l25 354h77l-36 -490h-73zM201 -84q2 14 17 27t30 13t33.5 -21.5t17.5 -39.5q-2 -31 -71 -143l-43 17q42 76 44 99q0 4 -14.5 20.5t-13.5 27.5z" />
    <glyph glyph-name="Ncaron.sc" horiz-adv-x="561" 
d="M326 545h-60l-114 145h67l82 -77l92 77h67zM386 0l-216 359l-27 -359h-77l36 490h80l211 -354l25 354h77l-36 -490h-73z" />
    <glyph glyph-name="O.sc" horiz-adv-x="499" 
d="M466 276q0 -134 -68 -211t-172 -77q-92 1 -142.5 61.5t-50.5 163.5q0 130 68.5 208.5t170.5 78.5q92 0 143 -60.5t51 -163.5zM253 53q58 0 90.5 53t32.5 160q0 84 -35 127.5t-91 43.5q-59 0 -93 -53.5t-34 -160.5q0 -85 35.5 -127.5t94.5 -42.5z" />
    <glyph glyph-name="Ograve.sc" horiz-adv-x="499" 
d="M387 541h-70l-139 128l90 17zM466 276q0 -134 -68 -211t-172 -77q-92 1 -142.5 61.5t-50.5 163.5q0 130 68.5 208.5t170.5 78.5q92 0 143 -60.5t51 -163.5zM253 53q58 0 90.5 53t32.5 160q0 84 -35 127.5t-91 43.5q-59 0 -93 -53.5t-34 -160.5q0 -85 35.5 -127.5
t94.5 -42.5z" />
    <glyph glyph-name="Oacute.sc" horiz-adv-x="499" 
d="M190 541l139 145l88 -17l-157 -128h-70zM466 276q0 -134 -68 -211t-172 -77q-92 1 -142.5 61.5t-50.5 163.5q0 130 68.5 208.5t170.5 78.5q92 0 143 -60.5t51 -163.5zM253 53q58 0 90.5 53t32.5 160q0 84 -35 127.5t-91 43.5q-59 0 -93 -53.5t-34 -160.5
q0 -85 35.5 -127.5t94.5 -42.5z" />
    <glyph glyph-name="Ocircumflex.sc" horiz-adv-x="499" 
d="M364 541l-82 77l-92 -77h-67l134 145h60l114 -145h-67zM466 276q0 -134 -68 -211t-172 -77q-92 1 -142.5 61.5t-50.5 163.5q0 130 68.5 208.5t170.5 78.5q92 0 143 -60.5t51 -163.5zM253 53q58 0 90.5 53t32.5 160q0 84 -35 127.5t-91 43.5q-59 0 -93 -53.5t-34 -160.5
q0 -85 35.5 -127.5t94.5 -42.5z" />
    <glyph glyph-name="Otilde.sc" horiz-adv-x="499" 
d="M409 657l30 -35q-57 -69 -105 -69q-19 0 -63.5 16.5t-56.5 16.5q-26 0 -68 -35l-27 35q64 67 107 67q23 0 62.5 -15t52.5 -15q32 0 68 34zM466 276q0 -134 -68 -211t-172 -77q-92 1 -142.5 61.5t-50.5 163.5q0 130 68.5 208.5t170.5 78.5q92 0 143 -60.5t51 -163.5z
M253 53q58 0 90.5 53t32.5 160q0 84 -35 127.5t-91 43.5q-59 0 -93 -53.5t-34 -160.5q0 -85 35.5 -127.5t94.5 -42.5z" />
    <glyph glyph-name="Odieresis.sc" horiz-adv-x="499" 
d="M320 625q1 15 20.5 34.5t32.5 19.5q14 0 34 -15.5t19 -29.5q-1 -15 -21 -34.5t-32 -19.5q-14 0 -34 16t-19 29zM141 625q1 15 20.5 34.5t32.5 19.5q14 0 34 -15.5t19 -29.5q-1 -15 -21 -34.5t-32 -19.5q-14 0 -34 16t-19 29zM466 276q0 -134 -68 -211t-172 -77
q-92 1 -142.5 61.5t-50.5 163.5q0 130 68.5 208.5t170.5 78.5q92 0 143 -60.5t51 -163.5zM253 53q58 0 90.5 53t32.5 160q0 84 -35 127.5t-91 43.5q-59 0 -93 -53.5t-34 -160.5q0 -85 35.5 -127.5t94.5 -42.5z" />
    <glyph glyph-name="Omacron.sc" horiz-adv-x="499" 
d="M414 645l-1 -15l-21 -46h-245l1 15l21 46h245zM466 276q0 -134 -68 -211t-172 -77q-92 1 -142.5 61.5t-50.5 163.5q0 130 68.5 208.5t170.5 78.5q92 0 143 -60.5t51 -163.5zM253 53q58 0 90.5 53t32.5 160q0 84 -35 127.5t-91 43.5q-59 0 -93 -53.5t-34 -160.5
q0 -85 35.5 -127.5t94.5 -42.5z" />
    <glyph glyph-name="Obreve.sc" horiz-adv-x="499" 
d="M278 608q76 0 99 89h50q-4 -63 -51 -109t-107 -46q-65 0 -98 44.5t-29 110.5h50q12 -89 86 -89zM466 276q0 -134 -68 -211t-172 -77q-92 1 -142.5 61.5t-50.5 163.5q0 130 68.5 208.5t170.5 78.5q92 0 143 -60.5t51 -163.5zM253 53q58 0 90.5 53t32.5 160q0 84 -35 127.5
t-91 43.5q-59 0 -93 -53.5t-34 -160.5q0 -85 35.5 -127.5t94.5 -42.5z" />
    <glyph glyph-name="Ohungarumlaut.sc" horiz-adv-x="499" 
d="M267 541l139 145l88 -17l-157 -128h-70zM142 541l139 145l88 -17l-157 -128h-70zM466 276q0 -134 -68 -211t-172 -77q-92 1 -142.5 61.5t-50.5 163.5q0 130 68.5 208.5t170.5 78.5q92 0 143 -60.5t51 -163.5zM253 53q58 0 90.5 53t32.5 160q0 84 -35 127.5t-91 43.5
q-59 0 -93 -53.5t-34 -160.5q0 -85 35.5 -127.5t94.5 -42.5z" />
    <glyph glyph-name="P.sc" horiz-adv-x="437" 
d="M225 432h-40l-14 -189h64q42 0 69.5 23.5t27.5 68.5q0 46 -27.5 71.5t-79.5 25.5zM201 184h-34l-14 -184h-87l36 490h134q90 0 138 -34.5t48 -101.5q0 -73 -63 -121.5t-158 -48.5z" />
    <glyph glyph-name="Q.sc" horiz-adv-x="499" 
d="M353 -150q-39 0 -109 24t-83 24q-27 0 -55 -21l-25 59q65 16 132 52q-86 6 -133 66t-47 159q0 130 68.5 208.5t170.5 78.5q92 0 143 -60.5t51 -163.5q0 -164 -100 -241q-63 -55 -162 -94q11 -2 47.5 -8.5t63.5 -10t48 -3.5q44 0 76 19v-61q-36 -27 -86 -27zM253 53
q58 0 90.5 53t32.5 160q0 84 -35 127.5t-91 43.5q-59 0 -93 -53.5t-34 -160.5q0 -85 35.5 -127.5t94.5 -42.5z" />
    <glyph glyph-name="R.sc" horiz-adv-x="477" 
d="M226 432h-41l-13 -172h58q98 0 98 84q0 39 -27.5 63.5t-74.5 24.5zM207 200h-39l-15 -200h-87l36 490h151q78 0 121 -34.5t43 -96.5q0 -42 -27.5 -78t-74.5 -58l129 -223h-98l-108 202q-20 -2 -31 -2z" />
    <glyph glyph-name="Racute.sc" horiz-adv-x="477" 
d="M178 541l139 145l88 -17l-157 -128h-70zM226 432h-41l-13 -172h58q98 0 98 84q0 39 -27.5 63.5t-74.5 24.5zM207 200h-39l-15 -200h-87l36 490h151q78 0 121 -34.5t43 -96.5q0 -42 -27.5 -78t-74.5 -58l129 -223h-98l-108 202q-20 -2 -31 -2z" />
    <glyph glyph-name="Rcommaaccent.sc" horiz-adv-x="477" 
d="M226 432h-41l-13 -172h58q98 0 98 84q0 39 -27.5 63.5t-74.5 24.5zM207 200h-39l-15 -200h-87l36 490h151q78 0 121 -34.5t43 -96.5q0 -42 -27.5 -78t-74.5 -58l129 -223h-98l-108 202q-20 -2 -31 -2zM171 -84q2 14 17 27t30 13t33.5 -21.5t17.5 -39.5q-2 -31 -71 -143
l-43 17q42 76 44 99q0 4 -14.5 20.5t-13.5 27.5z" />
    <glyph glyph-name="Rcaron.sc" horiz-adv-x="477" 
d="M278 545h-60l-114 145h67l82 -77l92 77h67zM226 432h-41l-13 -172h58q98 0 98 84q0 39 -27.5 63.5t-74.5 24.5zM207 200h-39l-15 -200h-87l36 490h151q78 0 121 -34.5t43 -96.5q0 -42 -27.5 -78t-74.5 -58l129 -223h-98l-108 202q-20 -2 -31 -2z" />
    <glyph glyph-name="S.sc" horiz-adv-x="413" 
d="M222 201l-56 26q-56 26 -79.5 57t-23.5 75q0 61 52 101t130 40q87 0 137 -19l-21 -70q-73 26 -141 26q-31 0 -53.5 -16t-22.5 -43q0 -50 67 -81l57 -26q101 -46 101 -125q0 -69 -57 -113t-149 -44q-79 0 -134 20l21 72q72 -29 150 -29q34 0 59.5 18.5t25.5 47.5
q0 54 -63 83z" />
    <glyph glyph-name="Sacute.sc" horiz-adv-x="413" 
d="M167 541l139 145l88 -17l-157 -128h-70zM222 201l-56 26q-56 26 -79.5 57t-23.5 75q0 61 52 101t130 40q87 0 137 -19l-21 -70q-73 26 -141 26q-31 0 -53.5 -16t-22.5 -43q0 -50 67 -81l57 -26q101 -46 101 -125q0 -69 -57 -113t-149 -44q-79 0 -134 20l21 72
q72 -29 150 -29q34 0 59.5 18.5t25.5 47.5q0 54 -63 83z" />
    <glyph glyph-name="Scircumflex.sc" horiz-adv-x="413" 
d="M341 541l-82 77l-92 -77h-67l134 145h60l114 -145h-67zM222 201l-56 26q-56 26 -79.5 57t-23.5 75q0 61 52 101t130 40q87 0 137 -19l-21 -70q-73 26 -141 26q-31 0 -53.5 -16t-22.5 -43q0 -50 67 -81l57 -26q101 -46 101 -125q0 -69 -57 -113t-149 -44q-79 0 -134 20
l21 72q72 -29 150 -29q34 0 59.5 18.5t25.5 47.5q0 54 -63 83z" />
    <glyph glyph-name="Scedilla.sc" horiz-adv-x="413" 
d="M91 -230l-8 43q51 6 76.5 15.5t26.5 29.5q1 14 -16.5 24.5t-56.5 21.5l-2 5l43 80q-73 1 -125 20l21 72q72 -29 150 -29q34 0 59.5 18.5t25.5 47.5q0 54 -63 83l-56 26q-56 26 -79.5 57t-23.5 75q0 61 52 101t130 40q87 0 137 -19l-21 -70q-73 26 -141 26
q-31 0 -53.5 -16t-22.5 -43q0 -50 67 -81l57 -26q101 -46 101 -125q0 -61 -45.5 -103t-121.5 -52l-24 -45q22 -10 31.5 -15.5t22 -14.5t16.5 -19.5t3 -24.5q-3 -36 -43 -65.5t-117 -36.5z" />
    <glyph glyph-name="Scaron.sc" horiz-adv-x="413" 
d="M274 545h-60l-114 145h67l82 -77l92 77h67zM222 201l-56 26q-56 26 -79.5 57t-23.5 75q0 61 52 101t130 40q87 0 137 -19l-21 -70q-73 26 -141 26q-31 0 -53.5 -16t-22.5 -43q0 -50 67 -81l57 -26q101 -46 101 -125q0 -69 -57 -113t-149 -44q-79 0 -134 20l21 72
q72 -29 150 -29q34 0 59.5 18.5t25.5 47.5q0 54 -63 83z" />
    <glyph glyph-name="Scommaaccent.sc" horiz-adv-x="413" 
d="M222 201l-56 26q-56 26 -79.5 57t-23.5 75q0 61 52 101t130 40q87 0 137 -19l-21 -70q-73 26 -141 26q-31 0 -53.5 -16t-22.5 -43q0 -50 67 -81l57 -26q101 -46 101 -125q0 -69 -57 -113t-149 -44q-79 0 -134 20l21 72q72 -29 150 -29q34 0 59.5 18.5t25.5 47.5
q0 54 -63 83zM131 -84q2 14 17 27t30 13t33.5 -21.5t17.5 -39.5q-2 -31 -71 -143l-43 17q42 76 44 99q0 4 -14.5 20.5t-13.5 27.5z" />
    <glyph glyph-name="T.sc" horiz-adv-x="421" 
d="M415 422l-146 3l-31 -425h-87l31 425l-156 -3l16 68h388z" />
    <glyph glyph-name="Tcommaaccent.sc" horiz-adv-x="421" 
d="M415 422l-146 3l-31 -425h-87l31 425l-156 -3l16 68h388zM141 -84q2 14 17 27t30 13t33.5 -21.5t17.5 -39.5q-2 -31 -71 -143l-43 17q42 76 44 99q0 4 -14.5 20.5t-13.5 27.5z" />
    <glyph glyph-name="Tcaron.sc" horiz-adv-x="421" 
d="M264 545h-60l-114 145h67l82 -77l92 77h67zM415 422l-146 3l-31 -425h-87l31 425l-156 -3l16 68h388z" />
    <glyph glyph-name="U.sc" horiz-adv-x="546" 
d="M97 490h87q-22 -315 -22 -329q0 -102 111 -102q93 0 100 105l23 326h84l-22 -309q-7 -93 -62 -142.5t-152 -49.5q-80 0 -126 38.5t-46 111.5q0 28 25 351z" />
    <glyph glyph-name="Ugrave.sc" horiz-adv-x="546" 
d="M396 541h-70l-139 128l90 17zM97 490h87q-22 -315 -22 -329q0 -102 111 -102q93 0 100 105l23 326h84l-22 -309q-7 -93 -62 -142.5t-152 -49.5q-80 0 -126 38.5t-46 111.5q0 28 25 351z" />
    <glyph glyph-name="Uacute.sc" horiz-adv-x="546" 
d="M209 541l139 145l88 -17l-157 -128h-70zM97 490h87q-22 -315 -22 -329q0 -102 111 -102q93 0 100 105l23 326h84l-22 -309q-7 -93 -62 -142.5t-152 -49.5q-80 0 -126 38.5t-46 111.5q0 28 25 351z" />
    <glyph glyph-name="Ucircumflex.sc" horiz-adv-x="546" 
d="M388 541l-82 77l-92 -77h-67l134 145h60l114 -145h-67zM97 490h87q-22 -315 -22 -329q0 -102 111 -102q93 0 100 105l23 326h84l-22 -309q-7 -93 -62 -142.5t-152 -49.5q-80 0 -126 38.5t-46 111.5q0 28 25 351z" />
    <glyph glyph-name="Udieresis.sc" horiz-adv-x="546" 
d="M339 625q1 15 20.5 34.5t32.5 19.5q14 0 34 -15.5t19 -29.5q-1 -15 -21 -34.5t-32 -19.5q-14 0 -34 16t-19 29zM160 625q1 15 20.5 34.5t32.5 19.5q14 0 34 -15.5t19 -29.5q-1 -15 -21 -34.5t-32 -19.5q-14 0 -34 16t-19 29zM97 490h87q-22 -315 -22 -329
q0 -102 111 -102q93 0 100 105l23 326h84l-22 -309q-7 -93 -62 -142.5t-152 -49.5q-80 0 -126 38.5t-46 111.5q0 28 25 351z" />
    <glyph glyph-name="Utilde.sc" horiz-adv-x="546" 
d="M426 657l30 -35q-57 -69 -105 -69q-19 0 -63.5 16.5t-56.5 16.5q-26 0 -68 -35l-27 35q64 67 107 67q23 0 62.5 -15t52.5 -15q32 0 68 34zM97 490h87q-22 -315 -22 -329q0 -102 111 -102q93 0 100 105l23 326h84l-22 -309q-7 -93 -62 -142.5t-152 -49.5q-80 0 -126 38.5
t-46 111.5q0 28 25 351z" />
    <glyph glyph-name="Umacron.sc" horiz-adv-x="546" 
d="M433 645l-1 -15l-21 -46h-245l1 15l21 46h245zM97 490h87q-22 -315 -22 -329q0 -102 111 -102q93 0 100 105l23 326h84l-22 -309q-7 -93 -62 -142.5t-152 -49.5q-80 0 -126 38.5t-46 111.5q0 28 25 351z" />
    <glyph glyph-name="Ubreve.sc" horiz-adv-x="546" 
d="M296 608q76 0 99 89h50q-4 -63 -51 -109t-107 -46q-65 0 -98 44.5t-29 110.5h50q12 -89 86 -89zM97 490h87q-22 -315 -22 -329q0 -102 111 -102q93 0 100 105l23 326h84l-22 -309q-7 -93 -62 -142.5t-152 -49.5q-80 0 -126 38.5t-46 111.5q0 28 25 351z" />
    <glyph glyph-name="Uring.sc" horiz-adv-x="546" 
d="M395 633q-2 -36 -32.5 -62.5t-67.5 -26.5q-39 0 -64.5 24t-22.5 65q2 37 32.5 63.5t67.5 26.5q39 0 64.5 -24t22.5 -66zM256 633q-1 -20 11 -32.5t31 -12.5t33.5 12.5t15.5 32.5q1 21 -11.5 34t-31.5 13t-33 -13t-15 -34zM97 490h87q-22 -315 -22 -329q0 -102 111 -102
q93 0 100 105l23 326h84l-22 -309q-7 -93 -62 -142.5t-152 -49.5q-80 0 -126 38.5t-46 111.5q0 28 25 351z" />
    <glyph glyph-name="Uhungarumlaut.sc" horiz-adv-x="546" 
d="M286 541l139 145l88 -17l-157 -128h-70zM161 541l139 145l88 -17l-157 -128h-70zM97 490h87q-22 -315 -22 -329q0 -102 111 -102q93 0 100 105l23 326h84l-22 -309q-7 -93 -62 -142.5t-152 -49.5q-80 0 -126 38.5t-46 111.5q0 28 25 351z" />
    <glyph glyph-name="Uogonek.sc" horiz-adv-x="546" 
d="M286 -196q-40 0 -60 22t-18 59q4 52 66 105q-10 -1 -30 -1q-80 0 -126 38.5t-46 111.5q0 28 25 351h87q-22 -315 -22 -329q0 -102 111 -102q93 0 100 105l23 326h84l-22 -309q-8 -114 -87 -161q-44 -31 -72.5 -64.5t-29.5 -61.5q-1 -19 10.5 -30t29.5 -11q16 0 42 13
l11 -41q-40 -21 -76 -21z" />
    <glyph glyph-name="V.sc" horiz-adv-x="482" 
d="M262 0h-91l-142 490h91l110 -392l170 392h86z" />
    <glyph glyph-name="W.sc" horiz-adv-x="724" 
d="M464 0l-95 372l-153 -372h-89l-80 490h90l57 -379l152 379h79l96 -380l111 380h80l-155 -490h-93z" />
    <glyph glyph-name="Wcircumflex.sc" horiz-adv-x="724" 
d="M476 541l-82 77l-92 -77h-67l134 145h60l114 -145h-67zM464 0l-95 372l-153 -372h-89l-80 490h90l57 -379l152 379h79l96 -380l111 380h80l-155 -490h-93z" />
    <glyph glyph-name="Wgrave.sc" horiz-adv-x="724" 
d="M449 541h-70l-139 128l90 17zM464 0l-95 372l-153 -372h-89l-80 490h90l57 -379l152 379h79l96 -380l111 380h80l-155 -490h-93z" />
    <glyph glyph-name="Wacute.sc" horiz-adv-x="724" 
d="M342 541l139 145l88 -17l-157 -128h-70zM464 0l-95 372l-153 -372h-89l-80 490h90l57 -379l152 379h79l96 -380l111 380h80l-155 -490h-93z" />
    <glyph glyph-name="Wdieresis.sc" horiz-adv-x="724" 
d="M435 625q1 15 20.5 34.5t32.5 19.5q14 0 34 -15.5t19 -29.5q-1 -15 -21 -34.5t-32 -19.5q-14 0 -34 16t-19 29zM256 625q1 15 20.5 34.5t32.5 19.5q14 0 34 -15.5t19 -29.5q-1 -15 -21 -34.5t-32 -19.5q-14 0 -34 16t-19 29zM464 0l-95 372l-153 -372h-89l-80 490h90
l57 -379l152 379h79l96 -380l111 380h80l-155 -490h-93z" />
    <glyph glyph-name="X.sc" horiz-adv-x="456" 
d="M323 0l-105 188l-127 -188h-94l182 257l-131 233h95l94 -166l112 166h95l-169 -235l144 -255h-96z" />
    <glyph glyph-name="Y.sc" horiz-adv-x="451" 
d="M251 0h-87l14 191l-145 299h94l107 -220l128 220h89l-186 -298z" />
    <glyph glyph-name="Yacute.sc" horiz-adv-x="451" 
d="M198 541l139 145l88 -17l-157 -128h-70zM251 0h-87l14 191l-145 299h94l107 -220l128 220h89l-186 -298z" />
    <glyph glyph-name="Ycircumflex.sc" horiz-adv-x="451" 
d="M336 541l-82 77l-92 -77h-67l134 145h60l114 -145h-67zM251 0h-87l14 191l-145 299h94l107 -220l128 220h89l-186 -298z" />
    <glyph glyph-name="Ydieresis.sc" horiz-adv-x="451" 
d="M294 625q1 15 20.5 34.5t32.5 19.5q14 0 34 -15.5t19 -29.5q-1 -15 -21 -34.5t-32 -19.5q-14 0 -34 16t-19 29zM115 625q1 15 20.5 34.5t32.5 19.5q14 0 34 -15.5t19 -29.5q-1 -15 -21 -34.5t-32 -19.5q-14 0 -34 16t-19 29zM251 0h-87l14 191l-145 299h94l107 -220
l128 220h89l-186 -298z" />
    <glyph glyph-name="Ygrave.sc" horiz-adv-x="451" 
d="M365 541h-70l-139 128l90 17zM251 0h-87l14 191l-145 299h94l107 -220l128 220h89l-186 -298z" />
    <glyph glyph-name="Z.sc" horiz-adv-x="455" 
d="M382 0h-346l3 61l278 363h-252l17 66h337l-4 -63l-279 -362h262z" />
    <glyph glyph-name="Zacute.sc" horiz-adv-x="455" 
d="M179 541l139 145l88 -17l-157 -128h-70zM382 0h-346l3 61l278 363h-252l17 66h337l-4 -63l-279 -362h262z" />
    <glyph glyph-name="Zdotaccent.sc" horiz-adv-x="455" 
d="M195 620q1 16 23 38t37 22t37 -17.5t21 -33.5t-23.5 -37.5t-36.5 -21.5q-16 0 -37.5 17.5t-20.5 32.5zM382 0h-346l3 61l278 363h-252l17 66h337l-4 -63l-279 -362h262z" />
    <glyph glyph-name="Zcaron.sc" horiz-adv-x="455" 
d="M287 545h-60l-114 145h67l82 -77l92 77h67zM382 0h-346l3 61l278 363h-252l17 66h337l-4 -63l-279 -362h262z" />
    <glyph glyph-name="AE.sc" horiz-adv-x="638" 
d="M309 430l-134 -231h123l17 231h-6zM283 0l10 139h-153l-81 -139h-86l296 490h343l-15 -63l-195 3l-11 -146h183l-14 -61l-173 2l-12 -163l218 3l-15 -65h-295z" />
    <glyph glyph-name="AEacute.sc" horiz-adv-x="638" 
d="M329 541l139 145l88 -17l-157 -128h-70zM309 430l-134 -231h123l17 231h-6zM283 0l10 139h-153l-81 -139h-86l296 490h343l-15 -63l-195 3l-11 -146h183l-14 -61l-173 2l-12 -163l218 3l-15 -65h-295z" />
    <glyph glyph-name="Eth.sc" horiz-adv-x="515" 
d="M202 0h-136l17 225h-50l4 57h50l15 208h158q102 0 162 -56.5t60 -150.5q0 -133 -78.5 -208t-201.5 -75zM157 59h76q73 0 116 51t43 151q0 82 -42.5 126.5t-111.5 44.5h-53l-11 -150h124l-12 -57h-117z" />
    <glyph glyph-name="Oslash.sc" horiz-adv-x="499" 
d="M123 223q0 -78 32 -123l149 325q-24 12 -54 12q-59 0 -93 -53.5t-34 -160.5zM253 53q58 0 90.5 53t32.5 160q0 76 -30 120l-147 -322q22 -11 54 -11zM226 -12q-29 0 -58 8l-28 -62h-61l39 85q-85 57 -85 194q0 130 68.5 208.5t170.5 78.5q34 0 62 -9l29 63h60l-39 -86
q82 -57 82 -192q0 -134 -68 -211t-172 -77z" />
    <glyph glyph-name="Oslashacute.sc" horiz-adv-x="499" 
d="M190 541l139 145l88 -17l-157 -128h-70zM123 223q0 -78 32 -123l149 325q-24 12 -54 12q-59 0 -93 -53.5t-34 -160.5zM253 53q58 0 90.5 53t32.5 160q0 76 -30 120l-147 -322q22 -11 54 -11zM226 -12q-29 0 -58 8l-28 -62h-61l39 85q-85 57 -85 194q0 130 68.5 208.5
t170.5 78.5q34 0 62 -9l29 63h60l-39 -86q82 -57 82 -192q0 -134 -68 -211t-172 -77z" />
    <glyph glyph-name="Thorn.sc" horiz-adv-x="446" 
d="M225 347h-47l-13 -189h70q42 0 69.5 23.5t27.5 68.5q0 46 -27.5 71.5t-79.5 25.5zM201 99h-41l-7 -99h-87l36 490h87l-6 -85h53q90 0 138 -34.5t48 -101.5q0 -73 -63 -121.5t-158 -48.5z" />
    <glyph glyph-name="Dcroat.sc" horiz-adv-x="515" 
d="M202 0h-136l17 225h-50l4 57h50l15 208h158q102 0 162 -56.5t60 -150.5q0 -133 -78.5 -208t-201.5 -75zM157 59h76q73 0 116 51t43 151q0 82 -42.5 126.5t-111.5 44.5h-53l-11 -150h124l-12 -57h-117z" />
    <glyph glyph-name="Hbar.sc" horiz-adv-x="547" 
d="M378 287l5 73h-204l-5 -73h204zM357 0l16 222h-204l-16 -222h-87l26 360h-69v15l17 37h56l6 78h87l-6 -78h204l6 78h88l-6 -78h70v-15l-17 -37h-57l-26 -360h-88z" />
    <glyph glyph-name="IJ.sc" horiz-adv-x="536" 
d="M189 490l-36 -490h-87l36 490h87zM470 490l-26 -349q-6 -74 -50 -113t-112 -39q-39 0 -71 13l21 71q37 -16 65 -16q55 0 59 64l27 369h87z" />
    <glyph glyph-name="Ldot.sc" horiz-adv-x="404" 
d="M268 276q1 16 23 38t37 22t37 -17.5t21 -33.5t-23.5 -37.5t-36.5 -21.5q-16 0 -37.5 17.5t-20.5 32.5zM66 0l36 490h87l-31 -425l222 3l-16 -68h-298z" />
    <glyph glyph-name="Lslash.sc" horiz-adv-x="404" 
d="M66 0l15 202l-59 -23l4 61l59 23l17 227h87l-14 -191l113 44l-4 -61l-114 -45l-12 -172l222 3l-16 -68h-298z" />
    <glyph glyph-name="Eng.sc" horiz-adv-x="561" 
d="M304 -147q-42 0 -71 12l20 68q37 -16 69 -16q25 0 40.5 17.5t18.5 50.5l2 21l-213 353l-27 -359h-77l36 490h80l211 -354l25 354h77l-36 -490q-7 -66 -50.5 -106.5t-104.5 -40.5z" />
    <glyph glyph-name="OE.sc" horiz-adv-x="687" 
d="M251 53q39 0 71 25l23 316q-33 43 -92 43q-65 0 -97.5 -56t-32.5 -158q0 -88 35 -129t93 -41zM316 0v5q-39 -15 -93 -17q-91 1 -140.5 63t-49.5 158q0 129 67 210t175 81q43 0 77 -15v5h293l-15 -63l-195 3l-11 -146h183l-14 -61l-173 3l-12 -164l218 3l-15 -65h-295z
" />
    <glyph glyph-name="Tbar.sc" horiz-adv-x="421" 
d="M362 248h-106l-18 -248h-87l18 248h-128l1 14l19 40h112l9 123l-156 -3l16 68h388l-15 -68l-146 3l-9 -123h122l-1 -14z" />
    <glyph glyph-name="commaaccent.sc" horiz-adv-x="245" 
d="M81 -84q2 14 17 27t30 13t33.5 -21.5t17.5 -39.5q-2 -31 -71 -143l-43 17q42 76 44 99q0 4 -14.5 20.5t-13.5 27.5z" />
    <glyph glyph-name="acute.sc" horiz-adv-x="335" 
d="M54 541l139 145l88 -17l-157 -128h-70z" />
    <glyph glyph-name="grave.sc" horiz-adv-x="329" 
d="M269 541h-70l-139 128l90 17z" />
    <glyph glyph-name="hungarumlaut.sc" horiz-adv-x="464" 
d="M181 541l139 145l88 -17l-157 -128h-70zM56 541l139 145l88 -17l-157 -128h-70z" />
    <glyph glyph-name="circumflex.sc" horiz-adv-x="417" 
d="M295 541l-82 77l-92 -77h-67l134 145h60l114 -145h-67z" />
    <glyph glyph-name="caron.sc" horiz-adv-x="417" 
d="M228 545h-60l-114 145h67l82 -77l92 77h67z" />
    <glyph glyph-name="breve.sc" horiz-adv-x="428" 
d="M207 608q76 0 99 89h50q-4 -63 -51 -109t-107 -46q-65 0 -98 44.5t-29 110.5h50q12 -89 86 -89z" />
    <glyph glyph-name="tilde.sc" horiz-adv-x="410" 
d="M335 657l30 -35q-57 -69 -105 -69q-19 0 -63.5 16.5t-56.5 16.5q-26 0 -68 -35l-27 35q64 67 107 67q23 0 62.5 -15t52.5 -15q32 0 68 34z" />
    <glyph glyph-name="macron.sc" horiz-adv-x="433" 
d="M350 645l-1 -15l-21 -46h-245l1 15l21 46h245z" />
    <glyph glyph-name="dieresis.sc" horiz-adv-x="428" 
d="M250 625q1 15 20.5 34.5t32.5 19.5q14 0 34 -15.5t19 -29.5q-1 -15 -21 -34.5t-32 -19.5q-14 0 -34 16t-19 29zM71 625q1 15 20.5 34.5t32.5 19.5q14 0 34 -15.5t19 -29.5q-1 -15 -21 -34.5t-32 -19.5q-14 0 -34 16t-19 29z" />
    <glyph glyph-name="dotaccent.sc" horiz-adv-x="217" 
d="M49 620q1 16 23 38t37 22t37 -17.5t21 -33.5t-23.5 -37.5t-36.5 -21.5q-16 0 -37.5 17.5t-20.5 32.5z" />
    <glyph glyph-name="ring.sc" horiz-adv-x="338" 
d="M262 633q-2 -36 -32.5 -62.5t-67.5 -26.5q-39 0 -64.5 24t-22.5 65q2 37 32.5 63.5t67.5 26.5q39 0 64.5 -24t22.5 -66zM123 633q-1 -20 11 -32.5t31 -12.5t33.5 12.5t15.5 32.5q1 21 -11.5 34t-31.5 13t-33 -13t-15 -34z" />
    <glyph glyph-name="cedilla.sc" horiz-adv-x="289" 
d="M88 -91l49 91h47l-29 -54q22 -10 31.5 -15.5t22 -14.5t16.5 -19.5t3 -24.5q-3 -36 -43 -65.5t-117 -36.5l-8 43q51 6 76.5 15.5t26.5 29.5q1 14 -16.5 24.5t-56.5 21.5z" />
    <glyph glyph-name="ogonek.sc" horiz-adv-x="306" 
d="M72 -135q3 37 34.5 73.5t71.5 61.5h57q-44 -31 -72.5 -64.5t-29.5 -61.5q-1 -19 10.5 -30t29.5 -11q16 0 42 13l11 -41q-40 -21 -76 -21q-40 0 -60 22t-18 59z" />
    <glyph glyph-name="Dotlessi.sc" horiz-adv-x="258" 
d="M192 490l-36 -490h-90l36 490h90z" />
    <glyph glyph-name="Tcedilla.sc" horiz-adv-x="421" 
d="M171 0h-20l31 425l-156 -3l16 68h388l-15 -68l-146 3l-31 -425h-20l-29 -54q22 -10 31.5 -15.5t22 -14.5t16.5 -19.5t3 -24.5q-3 -36 -43 -65.5t-117 -36.5l-8 43q51 6 76.5 15.5t26.5 29.5q1 14 -16.5 24.5t-56.5 21.5l-2 5z" />
    <glyph glyph-name="f_f.sc" horiz-adv-x="808" 
d="M342 215l-173 2l-16 -217h-87l36 490h293l-15 -63l-195 3l-12 -154h184zM731 215l-173 2l-16 -217h-87l36 490h293l-15 -63l-195 3l-12 -154h184z" />
    <glyph glyph-name="f_f_i.sc" horiz-adv-x="1040" 
d="M974 490l-36 -490h-87l36 490h87zM342 215l-173 2l-16 -217h-87l36 490h293l-15 -63l-195 3l-12 -154h184zM732 215l-173 2l-16 -217h-87l36 490h293l-15 -63l-195 3l-12 -154h184z" />
    <glyph glyph-name="f_f_l.sc" horiz-adv-x="1190" 
d="M342 215l-173 2l-16 -217h-87l36 490h293l-15 -63l-195 3l-12 -154h184zM738 215l-173 2l-16 -217h-87l36 490h293l-15 -63l-195 3l-12 -154h184zM852 0l36 490h87l-31 -425l222 3l-16 -68h-298z" />
    <glyph glyph-name="fi.sc" horiz-adv-x="645" 
d="M579 490l-36 -490h-87l36 490h87zM342 215l-173 2l-16 -217h-87l36 490h293l-15 -63l-195 3l-12 -154h184z" />
    <glyph glyph-name="fl.sc" horiz-adv-x="800" 
d="M342 215l-173 2l-16 -217h-87l36 490h293l-15 -63l-195 3l-12 -154h184zM462 0l36 490h87l-31 -425l222 3l-16 -68h-298z" />
    </font>
</defs>
</svg>
