<?xml version="1.0" standalone="no"?>
<!DOCTYPE svg PUBLIC "-//W3C//DTD SVG 1.1//EN" "http://www.w3.org/Graphics/SVG/1.1/DTD/svg11.dtd" >
<svg xmlns="http://www.w3.org/2000/svg" xmlns:xlink="http://www.w3.org/1999/xlink" version="1.1">
<metadata>
Created by FontForge 20170731 at Sun Apr  3 01:41:57 2016
 By Aleksey,,,
Universidad Nacional de Colombia, Unidad de Medios de Comunicacio'n (Unimedios), 2012-2015.
</metadata>
<defs>
<font id="AncizarSans-Black" horiz-adv-x="528" >
  <font-face 
    font-family="Ancizar Sans Black"
    font-weight="850"
    font-stretch="normal"
    units-per-em="1000"
    panose-1="2 11 10 2 4 3 0 0 0 3"
    ascent="750"
    descent="-250"
    x-height="450"
    cap-height="612"
    bbox="-71 -270 1458 873"
    underline-thickness="0"
    underline-position="0"
    unicode-range="U+0020-FB04"
  />
<missing-glyph horiz-adv-x="600" 
d="M50 0v703h500v-703h-500zM300 397l170 256h-340zM100 608v-513l170 256zM330 351l170 -256v513zM130 50h340l-170 256z" />
    <glyph glyph-name="f_f" unicode="ff" horiz-adv-x="591" 
d="M223 504v-54h106v41q0 39 9 71q-38 6 -51 6q-64 0 -64 -64zM329 0v335h-106v-335h-173v335h-55v105l40 10h15v3q0 64 21 113t50.5 74.5t67.5 41t63.5 19.5t48.5 4q69 0 137 -21q58 30 130 30q52 0 88 -10l-33 -127q-14 7 -56 7q-65 0 -65 -79v-55h102l-11 -115h-91v-335
h-173z" />
    <glyph glyph-name="fi" unicode="fi" horiz-adv-x="552" 
d="M335 0v335h-106v-335h-173v335h-61v105l61 10v12q0 61 19.5 108t48.5 73.5t66.5 43.5t69.5 22.5t63 4.5q102 3 193 -33l-42 -145q-31 13 -81.5 23t-82.5 10q-81 0 -81 -62v-57h133l146 21v-471h-173z" />
    <glyph glyph-name="fl" unicode="fl" horiz-adv-x="576" 
d="M473 -19q-139 0 -139 139v448q-8 1 -24 1q-81 0 -81 -62v-57h76l-12 -115h-64v-335h-173v335h-61v105l61 10v12q0 61 19.5 108t48.5 73.5t66.5 43.5t69.5 22.5t63 4.5q82 3 159 -23l26 3v-535q0 -36 36 -36q12 0 32 5l11 -128q-53 -19 -114 -19z" />
    <glyph glyph-name="f_f_i" unicode="ffi" horiz-adv-x="825" 
d="M223 504v-54h106v12q0 54 16 99q-38 7 -58 7q-64 0 -64 -64zM329 0v335h-106v-335h-173v335h-55v105l40 10h15v3q0 64 21 113t50.5 74.5t67.5 41t63.5 19.5t48.5 4q79 0 147 -25q68 36 148 34q102 3 193 -33l-41 -145q-32 13 -82.5 23t-82.5 10q-81 0 -81 -62v-57h134
l145 21v-471h-173v335h-106v-335h-173z" />
    <glyph glyph-name="f_f_l" unicode="ffl" horiz-adv-x="850" 
d="M223 504v-54h106v12q0 54 16 99q-38 7 -58 7q-64 0 -64 -64zM746 -19q-139 0 -139 139v448q-8 1 -24 1q-81 0 -81 -62v-57h76l-12 -115h-64v-335h-173v335h-106v-335h-173v335h-55v105l40 10h15v3q0 64 21 113t50.5 74.5t67.5 41t63.5 19.5t48.5 4q79 0 147 -25
q68 36 148 34q84 3 159 -23l26 3v-535q0 -36 36 -36q12 0 32 5l11 -128q-53 -19 -114 -19z" />
    <glyph glyph-name=".notdef" horiz-adv-x="600" 
d="M50 0v703h500v-703h-500zM300 397l170 256h-340zM100 608v-513l170 256zM330 351l170 -256v513zM130 50h340l-170 256z" />
    <glyph glyph-name=".null" horiz-adv-x="0" 
 />
    <glyph glyph-name="nonmarkingreturn" horiz-adv-x="333" 
 />
    <glyph glyph-name="space" unicode=" " horiz-adv-x="219" 
 />
    <glyph glyph-name="exclam" unicode="!" horiz-adv-x="326" 
d="M229 184l-130 -19q-5 326 -21 448l165 31q-14 -362 -14 -460zM68 45q0 24 37 57t59 33q20 0 56.5 -31t36.5 -54q0 -18 -36 -48t-55 -30q-21 0 -59.5 28.5t-38.5 44.5z" />
    <glyph glyph-name="quotedbl" unicode="&#x22;" horiz-adv-x="385" 
d="M217 434l-15 259h156l-22 -259h-119zM48 434l-21 259h156l-15 -259h-120z" />
    <glyph glyph-name="numbersign" unicode="#" horiz-adv-x="637" 
d="M355 250l23 96h-111l-23 -96h111zM294 0l41 170h-111l-41 -170h-93l41 170h-115v15l38 65h97l23 96h-128v15l38 67h110l45 184h93l-45 -184h111l45 184h93l-45 -184h126v-15l-37 -67h-109l-23 -96h139v-15l-37 -65h-122l-41 -170h-93z" />
    <glyph glyph-name="dollar" unicode="$" horiz-adv-x="555" 
d="M334 -151h-123l11 133q-105 4 -172 32l25 159q116 -51 198 -51q24 0 37 13t13 34t-17 34t-65 28q-102 35 -143.5 80.5t-41.5 115.5q0 75 44.5 127t125.5 69l-11 133h123l-10 -125q99 -6 159 -30l-35 -148q-95 40 -180 40q-22 0 -34 -12.5t-12 -29.5q0 -13 4 -21.5
t24 -20.5t59 -24q100 -31 144 -71.5t44 -113.5q0 -82 -48.5 -138t-130.5 -74z" />
    <glyph glyph-name="percent" unicode="%" horiz-adv-x="709" 
d="M344 482q0 -73 -46.5 -119.5t-118.5 -46.5q-70 0 -109.5 39t-39.5 113q0 71 46.5 117.5t119.5 46.5q69 0 108.5 -38.5t39.5 -111.5zM28 0l532 612h117l-533 -612h-116zM239 474q0 83 -59 83q-46 0 -46 -81q0 -84 60 -84q45 0 45 82zM679 148q0 -73 -47 -120t-119 -47
q-70 0 -109.5 39.5t-39.5 113.5q0 71 46.5 117t119.5 46q69 0 109 -38t40 -111zM573 140q0 83 -59 83q-24 0 -34.5 -19.5t-10.5 -61.5q0 -84 59 -84q45 0 45 82z" />
    <glyph glyph-name="ampersand" unicode="&#x26;" horiz-adv-x="643" 
d="M673 11l-156 -49q-44 31 -83 68q-90 -48 -193 -47q-106 -2 -171 45.5t-65 135.5q0 101 114 169q-35 34 -50 62.5t-15 65.5q0 74 62 121.5t170 45.5q98 0 170 -26l-47 -130q-74 31 -139 28q-30 -2 -40 -9.5t-10 -23.5t23 -42t91 -80q28 -20 116 -108q10 32 10 64
q0 26 -8 53.5t-19 39.5l151 51q36 -57 36 -139q0 -91 -65 -175q98 -98 118 -95v-25zM285 109q25 0 58 14q-58 63 -105 106q-15 14 -38 33q-24 -24 -24 -62q0 -35 25 -63t84 -28z" />
    <glyph glyph-name="quotesingle" unicode="'" horiz-adv-x="210" 
d="M46 434l-19 259h156l-20 -259h-117z" />
    <glyph glyph-name="parenleft" unicode="(" horiz-adv-x="342" 
d="M349 -97l-61 -62q-104 61 -164.5 188.5t-60.5 269.5q0 137 60.5 260t164.5 197l61 -61q-83 -69 -134.5 -177.5t-51.5 -218.5q0 -122 49.5 -225.5t136.5 -170.5z" />
    <glyph glyph-name="parenright" unicode=")" horiz-adv-x="342" 
d="M-7 695l61 62q104 -61 164.5 -188.5t60.5 -269.5q0 -137 -60.5 -260t-164.5 -197l-61 61q83 69 134.5 177.5t51.5 218.5q0 122 -49.5 225.5t-136.5 170.5z" />
    <glyph glyph-name="asterisk" unicode="*" horiz-adv-x="384" 
d="M212 681q13 -22 13 -71q0 -37 -9 -67l-35 -4q-8 73 -52 120zM354 581q-32 -34 -57 -47t-60 -21l-20 21q41 29 78 107zM55 605q47 -8 73.5 -23t47.5 -42l-10 -32q-51 22 -127 14zM337 409q-38 8 -61 19t-32 20t-24 29l8 29q59 -23 134 -15zM45 438l19.5 19.5t17.5 14.5
t14.5 10t14.5 8t13.5 5.5t16 5t17.5 5.5l22 -28q-42 -31 -74 -98zM182 338q-11 26 -11 71q0 27 9 62l32 7q10 -70 54 -122z" />
    <glyph glyph-name="plus" unicode="+" horiz-adv-x="555" 
d="M478 215h-146v-149h-110v149h-146v103h146v145h110v-145h146v-103z" />
    <glyph glyph-name="comma" unicode="," horiz-adv-x="246" 
d="M32 76q0 29 27 53.5t56 24.5q33 0 66.5 -32.5t33.5 -76.5q0 -66 -98 -206l-86 32q5 9 14 25.5t12.5 23.5t10 19.5t9 19t5.5 16t4 17.5t1 16t-27.5 30t-27.5 38z" />
    <glyph glyph-name="hyphen" unicode="-" horiz-adv-x="357" 
d="M323 297v-28l-28 -78h-261v28l38 78h251z" />
    <glyph glyph-name="period" unicode="." horiz-adv-x="246" 
d="M19 60q0 25 36.5 58.5t62.5 33.5q27 0 68 -27t41 -52t-37 -58.5t-61 -33.5q-28 0 -69 27.5t-41 51.5z" />
    <glyph glyph-name="slash" unicode="/" horiz-adv-x="383" 
d="M46 -110l194 803h97l-194 -803h-97z" />
    <glyph glyph-name="zero" unicode="0" horiz-adv-x="555" 
d="M547 318q0 -162 -76 -249.5t-216 -87.5q-134 0 -191 77.5t-57 235.5q0 162 76 249.5t216 87.5q133 0 190.5 -78t57.5 -235zM362 306q0 129 -20.5 170t-75.5 41q-26 0 -41 -16.5t-22.5 -62.5t-7.5 -132q0 -89 9 -134t27.5 -60.5t55.5 -15.5q40 0 57.5 43t17.5 167z" />
    <glyph glyph-name="one" unicode="1" horiz-adv-x="555" 
d="M401 0h-169v472l-127 -55l-37 119q102 32 234 76h99v-612z" />
    <glyph glyph-name="two" unicode="2" horiz-adv-x="555" 
d="M483 0h-441v102q42 38 56.5 51.5t53.5 51t57 58.5t42.5 51.5t34.5 54t10 42.5q0 43 -25 64.5t-62 21.5q-71 0 -140 -33l-37 119q122 48 225 48t165.5 -47.5t62.5 -128.5q0 -82 -57.5 -159t-173.5 -172l252 14z" />
    <glyph glyph-name="three" unicode="3" horiz-adv-x="555" 
d="M237 -19q-90 0 -183 30l31 128q95 -31 148 -31q58 0 82 14.5t24 52.5q0 29 -24.5 52.5t-73.5 23.5q-5 0 -81 -4l-14 108q81 0 127.5 23t46.5 60q0 24 -18 44t-57 20q-79 0 -139 -31l-33 114q39 17 104 31.5t118 14.5q80 0 142 -37.5t62 -110.5q0 -48 -31.5 -86t-81.5 -61
q130 -29 130 -148q0 -88 -80 -147.5t-199 -59.5z" />
    <glyph glyph-name="four" unicode="4" horiz-adv-x="555" 
d="M321 209v208l-147 -208h147zM530 85h-50v-85h-159v85h-298v125l311 414h146v-415h89z" />
    <glyph glyph-name="five" unicode="5" horiz-adv-x="555" 
d="M201 -19q-80 0 -168 24l30 127q33 -13 83 -23t83 -10q50 0 76.5 18.5t26.5 50.5q0 95 -155 95q-19 0 -57 -2.5t-46 -2.5l24 354h388l-18 -135h-237l-7 -87q26 2 42 2q100 0 170.5 -51.5t70.5 -142.5q0 -92 -83.5 -154.5t-222.5 -62.5z" />
    <glyph glyph-name="six" unicode="6" horiz-adv-x="555" 
d="M534 213q0 -100 -74 -166t-194 -66q-117 0 -182 76t-65 207q0 178 90 272.5t238 94.5q67 0 155 -21l-27 -137q-24 11 -69.5 19.5t-75.5 8.5q-52 0 -81 -24.5t-40 -94.5q57 18 108 18q102 0 159.5 -47.5t57.5 -139.5zM294 94q33 0 47 20.5t14 63.5q0 47 -19.5 77.5
t-61.5 30.5q-39 0 -73 -12v-15q0 -165 93 -165z" />
    <glyph glyph-name="seven" unicode="7" horiz-adv-x="555" 
d="M299 -13l-180 47q65 155 216 442l-301 -5l27 142h462v-110q-40 -81 -116 -255.5t-108 -260.5z" />
    <glyph glyph-name="eight" unicode="8" horiz-adv-x="555" 
d="M260 -19q-106 0 -170 42.5t-64 113.5q0 52 30 89.5t90 70.5q-95 64 -95 152q0 83 69 133t187 50q83 0 140.5 -39t57.5 -101q0 -45 -25 -79t-78 -66q78 -43 102.5 -80t24.5 -90q0 -75 -76 -135.5t-193 -60.5zM204 476q0 -25 21.5 -42t84.5 -44q51 44 51 83
q0 22 -26.5 37.5t-58.5 15.5q-42 0 -57 -11.5t-15 -38.5zM283 91q89 0 89 63q0 25 -24.5 41.5t-95.5 45.5q-3 1 -8 3.5t-8 3.5q-28 -19 -40.5 -37.5t-12.5 -48.5q0 -26 28.5 -48.5t71.5 -22.5z" />
    <glyph glyph-name="nine" unicode="9" horiz-adv-x="555" 
d="M283 327q42 0 69 12v24q0 77 -27 117.5t-62 40.5q-32 0 -46.5 -19t-14.5 -67q0 -47 19.5 -77.5t61.5 -30.5zM188 -19q-74 0 -156 24l20 125q78 -26 154 -26q100 0 132 127q-45 -18 -89 -18q-118 0 -172 54.5t-54 145.5q0 95 66 157.5t191 62.5q251 0 251 -284
q0 -88 -28 -159t-76 -116t-109 -69t-130 -24z" />
    <glyph glyph-name="colon" unicode=":" horiz-adv-x="246" 
d="M19 340q0 25 36.5 58.5t62.5 33.5q27 0 68 -27t41 -52t-37 -58.5t-61 -33.5q-28 0 -69 27.5t-41 51.5zM19 60q0 25 36.5 58.5t62.5 33.5q27 0 68 -27t41 -52t-37 -58.5t-61 -33.5q-28 0 -69 27.5t-41 51.5z" />
    <glyph glyph-name="semicolon" unicode=";" horiz-adv-x="246" 
d="M19 340q0 25 36.5 58.5t62.5 33.5q27 0 68 -27t41 -52t-37 -58.5t-61 -33.5q-28 0 -69 27.5t-41 51.5zM29 76q0 29 27 53.5t56 24.5q33 0 66.5 -32.5t33.5 -76.5q0 -66 -98 -206l-86 32q5 9 14 25.5t12.5 23.5t10 19.5t9 19t5.5 16t4 17.5t1 16t-27.5 30t-27.5 38z" />
    <glyph glyph-name="equal" unicode="=" horiz-adv-x="555" 
d="M461 394v-15l-29 -87h-337v15l28 87h338zM461 237v-15l-29 -87h-337v15l28 87h338z" />
    <glyph glyph-name="question" unicode="?" horiz-adv-x="459" 
d="M293 198l-151 -34q-35 45 -35 74q0 30 13.5 49.5t52.5 52.5q45 37 62 62t17 61q0 16 -19 34.5t-42 18.5q-31 0 -52.5 -8.5t-67.5 -37.5l-53 116q47 25 104.5 42.5t98.5 17.5q92 0 151.5 -47.5t59.5 -123.5q0 -69 -105 -150q-31 -25 -43 -40t-12 -30q0 -8 21 -57zM119 40
q0 26 35 59t59 33q20 0 55.5 -31t35.5 -56t-36 -58.5t-56 -33.5q-24 0 -58.5 31.5t-34.5 55.5z" />
    <glyph glyph-name="at" unicode="@" horiz-adv-x="918" 
d="M420 -151q-46 0 -93.5 10.5t-98.5 38.5t-90.5 69t-65 108.5t-25.5 151.5q0 89 28.5 164t74.5 126.5t105.5 88t122 53t123.5 16.5q163 0 266.5 -77t103.5 -212q0 -125 -95.5 -217t-235.5 -115l-18 101q-55 -89 -121 -89q-51 0 -89 41.5t-38 134.5q0 43 14 84t41.5 76
t75 56.5t108.5 21.5q20 0 41 -3t30.5 -5t36 -9.5t30.5 -8.5v-274q81 61 81 186q0 93 -65.5 139t-173.5 46q-149 0 -225 -80.5t-76 -223.5q0 -62 18 -110.5t45.5 -77.5t64.5 -48.5t72 -26.5t70 -7q91 0 186 38l36 -112q-126 -54 -264 -54zM451 168q56 0 66 113v109
q-20 2 -34 2q-41 0 -55.5 -35t-14.5 -101q0 -43 12 -65.5t26 -22.5z" />
    <glyph glyph-name="A" unicode="A" horiz-adv-x="602" 
d="M359 243l-64 219l-66 -219h130zM429 0l-36 123h-200l-37 -123h-166l200 612h237l185 -612h-183z" />
    <glyph glyph-name="B" unicode="B" horiz-adv-x="556" 
d="M342 425q0 69 -112 75v-137q58 2 85 16.5t27 45.5zM284 115q88 0 88 64q0 39 -32.5 61t-95.5 22h-14v-145q32 -2 54 -2zM51 0v612h224q238 0 238 -145q0 -85 -93 -136q57 -15 94 -52t37 -96q0 -84 -78.5 -133.5t-215.5 -49.5h-206z" />
    <glyph glyph-name="C" unicode="C" horiz-adv-x="559" 
d="M514 150l17 -128q-29 -17 -85 -29t-118 -12q-131 0 -217 81.5t-86 232.5q0 147 92 241.5t250 94.5q85 0 166 -24l-29 -143q-84 26 -152 26q-69 0 -106.5 -39t-37.5 -135q0 -53 17.5 -92.5t45 -59t54.5 -28.5t54 -9q79 0 135 23z" />
    <glyph glyph-name="D" unicode="D" horiz-adv-x="648" 
d="M51 612h265q139 0 222.5 -73.5t83.5 -221.5q0 -158 -102 -243t-266 -85q-91 0 -203 14v609zM230 486v-360q12 -4 46 -4q81 0 122.5 40.5t41.5 129.5q0 103 -50.5 148.5t-120.5 45.5h-39z" />
    <glyph glyph-name="E" unicode="E" horiz-adv-x="490" 
d="M51 0v612h401l-15 -132l-207 2v-110h195l-10 -124l-185 2v-118l238 3l-15 -135h-402z" />
    <glyph glyph-name="F" unicode="F" horiz-adv-x="481" 
d="M413 236l-183 3v-239h-179v612h401l-15 -132l-207 3v-124h195z" />
    <glyph glyph-name="G" unicode="G" horiz-adv-x="603" 
d="M554 21q-128 -40 -218 -40q-139 0 -225 78.5t-86 228.5q0 167 102 255t253 88q101 0 180 -32l-33 -139q-28 12 -74 23.5t-80 11.5q-90 0 -127.5 -43.5t-37.5 -135.5q0 -62 16 -103.5t43 -59.5t49.5 -24.5t47.5 -6.5t36 1l-1 181h155v-283z" />
    <glyph glyph-name="H" unicode="H" horiz-adv-x="657" 
d="M427 0v241h-197v-241h-179v612h179v-230h197v230h179v-612h-179z" />
    <glyph glyph-name="I" unicode="I" horiz-adv-x="281" 
d="M230 612v-612h-179v612h179z" />
    <glyph glyph-name="J" unicode="J" horiz-adv-x="395" 
d="M333 612v-425q0 -101 -60.5 -153.5t-156.5 -52.5q-75 0 -115 20l24 136q45 -17 73 -17q26 0 41 13t15 48v431h179z" />
    <glyph glyph-name="K" unicode="K" horiz-adv-x="625" 
d="M631 0h-213l-188 319l189 293h199l-211 -276zM230 612v-612h-179v612h179z" />
    <glyph glyph-name="L" unicode="L" horiz-adv-x="483" 
d="M51 0v612h179v-480l240 3l-17 -135h-402z" />
    <glyph glyph-name="M" unicode="M" horiz-adv-x="887" 
d="M355 0l-121 368l-30 -368h-166l73 612h206l129 -378l139 378h194l70 -612h-176l-28 374l-133 -374h-157z" />
    <glyph glyph-name="N" unicode="N" horiz-adv-x="654" 
d="M441 0l-230 337v-337h-160v612h178l213 -325v325h161v-612h-162z" />
    <glyph glyph-name="O" unicode="O" horiz-adv-x="688" 
d="M662 318q0 -155 -94 -246t-249 -91q-135 0 -214.5 84t-79.5 229q0 155 95 246t250 91q135 0 213.5 -84t78.5 -229zM478 290q0 212 -152 212q-56 0 -86 -41.5t-30 -138.5q0 -212 153 -212q56 0 85.5 40.5t29.5 139.5z" />
    <glyph glyph-name="P" unicode="P" horiz-adv-x="542" 
d="M231 497h-1v-174h19q102 0 102 84q0 90 -120 90zM252 202q-14 0 -22 1v-203h-179v612h246q111 0 173.5 -49.5t62.5 -138.5q0 -104 -80.5 -163t-200.5 -59z" />
    <glyph glyph-name="Q" unicode="Q" horiz-adv-x="688" 
d="M662 318q0 -155 -94 -246t-249 -91q-135 0 -214.5 84t-79.5 229q0 155 95 246t250 91q135 0 213.5 -84t78.5 -229zM478 290q0 212 -152 212q-56 0 -86 -41.5t-30 -138.5q0 -212 153 -212q56 0 85.5 40.5t29.5 139.5zM111 -70q75 40 135 40q48 0 143 -21.5t167 -21.5
q64 0 105 41v-138q-19 -17 -55.5 -31t-69.5 -14q-65 0 -164.5 37t-123.5 37q-44 0 -101 -43z" />
    <glyph glyph-name="R" unicode="R" horiz-adv-x="577" 
d="M275 338q32 0 54.5 17.5t22.5 48.5q0 93 -122 93v-157q24 -2 45 -2zM248 227q-11 0 -18 1v-228h-179v612h254q107 0 168 -45.5t61 -129.5q0 -98 -101 -160l146 -277h-192l-105 229q-22 -2 -34 -2z" />
    <glyph glyph-name="S" unicode="S" horiz-adv-x="499" 
d="M219 231q-102 35 -143.5 80.5t-41.5 115.5q0 93 66 148.5t183 55.5q107 0 182 -30l-35 -148q-95 40 -180 40q-22 0 -34 -12.5t-12 -29.5q0 -13 4 -21.5t24 -20.5t59 -24q100 -31 144 -71.5t44 -113.5q0 -100 -70.5 -159.5t-179.5 -59.5q-120 0 -201 33l25 159
q116 -51 198 -51q24 0 37 13t13 34t-17 34t-65 28z" />
    <glyph glyph-name="T" unicode="T" horiz-adv-x="522" 
d="M512 477l-159 3v-480h-178v480l-184 -3l20 135h520z" />
    <glyph glyph-name="U" unicode="U" horiz-adv-x="634" 
d="M45 212v400h179v-369q0 -110 108 -110q35 0 59 20t24 55v404h174v-386q0 -114 -77 -180.5t-205 -64.5q-262 4 -262 231z" />
    <glyph glyph-name="V" unicode="V" horiz-adv-x="601" 
d="M412 0h-232l-200 612h191l138 -433l126 433h184z" />
    <glyph glyph-name="W" unicode="W" horiz-adv-x="909" 
d="M557 0l-106 335l-112 -335h-203l-125 612h181l74 -385l120 385h160l117 -381l70 381h166l-134 -612h-208z" />
    <glyph glyph-name="X" unicode="X" horiz-adv-x="604" 
d="M403 0l-115 176l-93 -176h-200l196 324l-188 288h206l105 -160l88 160h201l-194 -306l200 -306h-206z" />
    <glyph glyph-name="Y" unicode="Y" horiz-adv-x="566" 
d="M370 209v-209h-178v209l-212 403h195l117 -227l118 227h174z" />
    <glyph glyph-name="Z" unicode="Z" horiz-adv-x="525" 
d="M497 0h-470v115l255 361l-261 -5l25 141h445v-113l-253 -365l284 5z" />
    <glyph glyph-name="bracketleft" unicode="[" horiz-adv-x="342" 
d="M335 -57v-79h-230v871h230v-79h-130v-713h130z" />
    <glyph glyph-name="backslash" unicode="\" horiz-adv-x="383" 
d="M143 693l194 -803h-97l-194 803h97z" />
    <glyph glyph-name="bracketright" unicode="]" horiz-adv-x="342" 
d="M237 -136h-230v79h130v713h-130v79h230v-871z" />
    <glyph glyph-name="underscore" unicode="_" horiz-adv-x="440" 
d="M440 -101v-98h-440v98h440z" />
    <glyph glyph-name="grave" unicode="`" horiz-adv-x="361" 
d="M331 500h-142l-159 141l172 30z" />
    <glyph glyph-name="a" unicode="a" horiz-adv-x="474" 
d="M317 -19l-29 46q-71 -46 -127 -46q-63 0 -104 38.5t-41 101.5q0 73 58.5 114t190.5 49q-1 30 -15.5 40t-45.5 10q-59 0 -141 -30l-29 120q129 45 221 45q180 0 180 -161v-304zM221 96q17 0 44 10v76q-25 3 -39 3q-33 0 -45.5 -10.5t-12.5 -32.5q0 -18 13 -32t40 -14z" />
    <glyph glyph-name="b" unicode="b" horiz-adv-x="543" 
d="M270 106q41 0 60.5 27.5t19.5 93.5q0 64 -26.5 90.5t-65.5 26.5q-24 0 -48 -8v-222q36 -8 60 -8zM294 -19q-72 0 -163 17l-34 -22l-60 12v683l173 23v-260q70 36 126 35q83 -2 136.5 -60.5t53.5 -172.5q0 -119 -72.5 -187t-159.5 -68z" />
    <glyph glyph-name="c" unicode="c" horiz-adv-x="429" 
d="M393 133l17 -120q-82 -32 -156 -32q-100 0 -170 56t-70 168q0 129 75 196.5t185 67.5q76 0 140 -27l-31 -130q-15 10 -50.5 18t-52.5 7q-48 1 -69.5 -23t-21.5 -83q0 -61 33.5 -88.5t77.5 -27.5q51 0 93 18z" />
    <glyph glyph-name="d" unicode="d" horiz-adv-x="545" 
d="M287 107q22 0 48 7v221q-34 9 -62 9q-39 0 -58.5 -27.5t-19.5 -93.5q0 -64 26.5 -90t65.5 -26zM383 -19l-33 44q-74 -45 -142 -44q-83 2 -136 60.5t-53 172.5q0 119 72.5 187t159.5 68q51 0 84 -4v206l173 23v-690z" />
    <glyph glyph-name="e" unicode="e" horiz-adv-x="466" 
d="M229 363q-22 0 -32 -17t-13 -60h102q0 38 -15.5 57.5t-41.5 19.5zM443 26q-86 -45 -204 -45q-96 0 -160.5 56t-64.5 175t64 188t176 69q47 0 81.5 -12.5t54 -31.5t31 -48t15 -55.5t3.5 -60.5q0 -37 -6 -71h-247q15 -80 92 -80q61 0 140 27z" />
    <glyph glyph-name="f" unicode="f" horiz-adv-x="318" 
d="M319 335h-90v-335h-173v335h-61v105l61 10v41q0 110 70.5 166.5t168.5 56.5q52 0 88 -10l-33 -127q-14 7 -56 7q-65 0 -65 -79v-55h102z" />
    <glyph glyph-name="g" unicode="g" horiz-adv-x="471" 
d="M256 304q0 72 -55 72q-19 0 -25.5 -13.5t-6.5 -49.5q0 -72 55 -72q17 0 24.5 14.5t7.5 48.5zM467 -16q0 -90 -80.5 -154t-204.5 -64q-99 0 -147 36t-48 85q0 20 8 37.5t16 26t20.5 18.5t13.5 11l29 19q-45 26 -45 76q0 44 56 94q-81 39 -81 130q0 77 58 123.5t166 46.5
q76 0 125 -30q117 31 118 30v-132h-19l-34 7q2 -16 2 -27q0 -75 -61 -123t-159 -48h-18q-3 -6 -3 -16q0 -22 40 -21l107 -2q72 -2 106.5 -30t34.5 -93zM221 -116q40 0 65 17t25 40q0 25 -48 26l-90 5l-5 1q-24 -29 -24 -42q0 -19 19 -33t58 -14z" />
    <glyph glyph-name="h" unicode="h" horiz-adv-x="535" 
d="M256 344q-28 0 -46 -12v-332h-173v671l173 23v-257q72 32 130 32q149 0 149 -142v-327h-173v277q0 24 -5.5 39t-17 20.5t-18 6.5t-19.5 1z" />
    <glyph glyph-name="i" unicode="i" horiz-adv-x="247" 
d="M23 596q0 27 34 64t61 37t66.5 -31t39.5 -57t-35 -63t-60 -37q-27 0 -66.5 31t-39.5 56zM37 448l173 23v-471h-173v448z" />
    <glyph glyph-name="j" unicode="j" horiz-adv-x="247" 
d="M30 596q0 27 34 64t61 37q26 0 65.5 -31t39.5 -57t-35 -63t-60 -37q-27 0 -66 31t-39 56zM37 -25v473l173 21v-474q0 -99 -55.5 -164t-170.5 -65l-27 134q37 1 58.5 21t21.5 54z" />
    <glyph glyph-name="k" unicode="k" horiz-adv-x="529" 
d="M37 0v678l173 16v-694h-173zM531 0h-191l-129 243l-1 1l138 206h177l-142 -197z" />
    <glyph glyph-name="l" unicode="l" horiz-adv-x="267" 
d="M266 128l11 -128q-53 -19 -114 -19q-139 0 -139 139v554l174 20v-535q0 -36 36 -36q12 0 32 5z" />
    <glyph glyph-name="m" unicode="m" horiz-adv-x="802" 
d="M259 343q-33 0 -49 -12v-331h-173v446l123 23l29 -42q82 42 156 42q78 0 114 -42q79 42 158 42q66 0 105.5 -33.5t39.5 -106.5v-329h-173v277q0 23 -5 37.5t-15 20t-18 7t-20 1.5q-17 0 -41 -8v-6v-329h-173v277q0 23 -5 37.5t-15 20t-18 7t-20 1.5z" />
    <glyph glyph-name="n" unicode="n" 
d="M255 344q-30 0 -45 -13v-331h-173v446l123 23l29 -42q80 42 151 42q67 0 108 -34t41 -106v-329h-173v277q0 30 -11 45.5t-22 18.5t-28 3z" />
    <glyph glyph-name="o" unicode="o" horiz-adv-x="529" 
d="M335 213q0 83 -21.5 110.5t-59.5 27.5q-14 0 -22.5 -3t-18 -14t-14 -35t-4.5 -62q0 -83 21 -110.5t59 -27.5q14 0 23 3t18.5 13.5t14 35t4.5 62.5zM511 234q0 -116 -72 -184.5t-190 -66.5q-106 -2 -168 55.5t-62 177.5q0 115 71 184t187 69q234 0 234 -235z" />
    <glyph glyph-name="p" unicode="p" horiz-adv-x="545" 
d="M272 106q39 0 58.5 27.5t19.5 93.5q0 64 -26.5 91t-65.5 27q-26 0 -48 -9v-221q34 -9 62 -9zM210 -217l-173 -23v686l121 23l29 -48q81 49 149 48q83 -2 136.5 -60.5t53.5 -172.5q0 -119 -72.5 -187t-159.5 -68q-51 0 -84 4v-202z" />
    <glyph glyph-name="q" unicode="q" horiz-adv-x="543" 
d="M333 -231v249q-69 -35 -125 -34q-83 2 -136 60t-53 172q0 119 72.5 187t159.5 68q73 0 164 -17l31 20l59 -12v-670zM287 108q22 0 46 8v222q-36 8 -58 8q-41 0 -60.5 -27.5t-19.5 -93.5q0 -64 26.5 -90.5t65.5 -26.5z" />
    <glyph glyph-name="r" unicode="r" horiz-adv-x="345" 
d="M286 324q-39 2 -76 -9v-315h-173v446l123 23l36 -51q61 51 108 51q10 0 52 -6l-20 -144q-18 5 -50 5z" />
    <glyph glyph-name="s" unicode="s" horiz-adv-x="421" 
d="M202 -19q-101 0 -188 32l33 130q100 -39 162 -39q15 0 23.5 3.5t9.5 6.5v4q0 1 0.5 5t0.5 7t-2 8t-6 8.5t-11.5 8t-18.5 7.5l-75 22q-57 18 -81 48.5t-24 80.5q0 67 57.5 111.5t147.5 44.5q86 0 164 -21l-25 -129q-80 32 -147 32q-37 0 -37 -21q0 -7 1.5 -11.5t11 -11
t27.5 -11.5l79 -22q103 -29 103 -133q0 -43 -21.5 -76t-54.5 -50t-66 -25.5t-63 -8.5z" />
    <glyph glyph-name="t" unicode="t" horiz-adv-x="370" 
d="M354 15q-75 -34 -145 -34q-66 0 -111 36t-44 112l3 206h-59v105l60 10l1 85l172 22l-1 -107h131l-10 -115h-123l-2 -137q-1 -43 12.5 -62.5t46.5 -19.5q14 0 24.5 1.5t15 2.5t10.5 3.5t9 3.5z" />
    <glyph glyph-name="u" unicode="u" 
d="M373 -19l-35 41q-82 -41 -150 -41q-67 0 -108 34t-41 106v325l173 23v-296q0 -23 5.5 -37.5t16 -20t18.5 -7t20 -1.5q32 0 46 12v327l173 23v-465z" />
    <glyph glyph-name="v" unicode="v" horiz-adv-x="495" 
d="M358 0h-229l-132 440l180 22l75 -314l78 302h168z" />
    <glyph glyph-name="w" unicode="w" horiz-adv-x="745" 
d="M443 0l-71 228l-85 -228h-177l-112 440l174 22l55 -284l73 262l154 22l82 -280l46 268h165l-124 -450h-180z" />
    <glyph glyph-name="x" unicode="x" horiz-adv-x="491" 
d="M301 0l-71 100l-63 -100h-181l158 222l-154 218l185 22l77 -108l67 96h181l-163 -215l168 -235h-204z" />
    <glyph glyph-name="y" unicode="y" horiz-adv-x="495" 
d="M106 -241q-51 0 -84 11l-5 130q80 -10 122.5 10t66.5 77q0 2 2 6.5t2 6.5h-80l-141 441l181 21l85 -308q38 150 67 296h171q-3 -12 -23 -88.5t-38.5 -146t-41.5 -149t-38 -118.5q-31 -94 -95 -141.5t-151 -47.5z" />
    <glyph glyph-name="z" unicode="z" horiz-adv-x="437" 
d="M413 0h-392v111l179 214l-185 1l11 124h381v-122l-179 -208l196 -1z" />
    <glyph glyph-name="braceleft" unicode="{" horiz-adv-x="342" 
d="M67 346q34 -5 54.5 13.5t20.5 46.5q0 23 -10 97.5t-10 123.5q0 59 57 94.5t140 35.5v-83q-38 0 -64.5 -17.5t-26.5 -50.5q0 -36 7.5 -112.5t7.5 -104.5q0 -33 -21 -58t-50 -33q29 -8 50 -33t21 -58q0 -27 -7.5 -102t-7.5 -112q0 -33 26.5 -50.5t64.5 -17.5v-83
q-83 0 -140 35.5t-57 94.5q0 49 10 122.5t10 96.5q0 28 -20.5 46.5t-54.5 13.5v95z" />
    <glyph glyph-name="bar" unicode="|" horiz-adv-x="358" 
d="M127 -220v913h104v-913h-104z" />
    <glyph glyph-name="braceright" unicode="}" horiz-adv-x="342" 
d="M170 302q-29 8 -50 33t-21 58q0 27 7.5 102t7.5 112q0 33 -26.5 50.5t-64.5 17.5v83q83 0 140 -35.5t57 -94.5q0 -49 -10 -122.5t-10 -96.5q0 -28 20.5 -46.5t54.5 -13.5v-95q-34 5 -54.5 -13.5t-20.5 -46.5q0 -23 10 -97.5t10 -123.5q0 -59 -57 -94.5t-140 -35.5v83
q38 0 64.5 17.5t26.5 50.5q0 36 -7.5 113t-7.5 104q0 33 21 58t50 33z" />
    <glyph glyph-name="exclamdown" unicode="&#xa1;" horiz-adv-x="326" 
d="M258 410q0 -24 -37 -57t-59 -33q-20 0 -56.5 31t-36.5 54q0 18 36 48t55 30q21 0 59.5 -28.5t38.5 -44.5zM97 271l130 19q5 -326 21 -448l-165 -31q14 362 14 460z" />
    <glyph glyph-name="cent" unicode="&#xa2;" horiz-adv-x="555" 
d="M477 93q-55 -22 -106 -29l13 -135h-127l17 135q-84 12 -138.5 67t-54.5 154q0 108 53.5 173t139.5 84l-15 134h127l-15 -128q56 -3 110 -26l-31 -130q-15 10 -50.5 18t-52.5 7q-48 1 -69.5 -23t-21.5 -83q0 -61 33.5 -88.5t77.5 -27.5q51 0 93 18z" />
    <glyph glyph-name="sterling" unicode="&#xa3;" horiz-adv-x="555" 
d="M515 140l-21 -140h-427h-1l-26 109q50 6 74 21.5t24 56.5q0 15 -8 63h-94v13l14 68l36 23h21q-7 39 -7 61q0 96 66 156t171 60q89 0 157 -30l-42 -123q-13 4 -32 10t-28 9t-25.5 5t-36.5 2q-23 0 -43 -15.5t-20 -45.5q0 -37 7 -89h167l-29 -104h-123q4 -38 4 -51
q0 -37 -23 -71z" />
    <glyph glyph-name="section" unicode="&#xa7;" horiz-adv-x="479" 
d="M227 256l5 -2q37 2 56.5 16t19.5 35q0 19 -13 30t-42 24l-4 1q-38 -2 -57.5 -16t-19.5 -35q0 -18 13.5 -29.5t41.5 -23.5zM208 -110q-95 0 -160 34l42 127q11 -4 35.5 -13.5t36 -13.5t28 -8t29.5 -4q45 0 48 31q0 32 -42 45l-76 26q-69 21 -105.5 57t-36.5 103
q0 101 100 154q-60 43 -60 117q0 77 66 128.5t159 51.5q100 0 162 -34l-43 -127q-10 4 -36 13.5t-37 13.5t-28 8t-29 4q-45 0 -48 -32q0 -32 42 -45l75 -25q69 -22 105.5 -58t36.5 -103q0 -100 -100 -153q60 -46 60 -117q0 -77 -65.5 -128.5t-158.5 -51.5z" />
    <glyph glyph-name="dieresis" unicode="&#xa8;" horiz-adv-x="564" 
d="M292 575q0 24 30.5 57.5t54.5 33.5q25 0 60 -28t35 -54q0 -23 -31 -55.5t-53 -32.5q-26 0 -61 27.5t-35 51.5zM92 575q0 24 30.5 57.5t53.5 33.5q26 0 61 -28t35 -54q0 -23 -31.5 -55.5t-53.5 -32.5q-25 0 -60 27.5t-35 51.5z" />
    <glyph glyph-name="copyright" unicode="&#xa9;" horiz-adv-x="662" 
d="M49 264q0 127 83 204.5t199 77.5q128 0 205 -80t77 -202q0 -129 -82.5 -206t-199.5 -77q-130 0 -206 80t-76 203zM110 266q0 -107 64 -168t161 -61q99 0 159 66t60 163q0 104 -62 165.5t-157 61.5q-104 0 -164.5 -62t-60.5 -165zM444 195l13 -64q-49 -30 -126 -30
q-70 0 -117 41.5t-47 113.5q0 80 49 131.5t135 51.5q79 0 100 -19l-20 -74q-41 15 -77 15q-41 0 -59 -21.5t-20 -67.5q0 -40 24.5 -65.5t71.5 -25.5q34 0 73 14z" />
    <glyph glyph-name="ordfeminine" unicode="&#xaa;" horiz-adv-x="269" 
d="M195 341l-25 24q-39 -24 -72 -24q-29 0 -55.5 17t-26.5 46q0 73 140 86v4q0 22 -18 22q-17 0 -85 -15l-19 63q65 20 122 20q107 0 107 -83v-154zM130 400q14 0 26 6v27h-9q-39 0 -39 -17q0 -16 22 -16z" />
    <glyph glyph-name="guillemotleft" unicode="&#xab;" horiz-adv-x="538" 
d="M398 2l-180 230l180 230l102 -45l-100 -185l100 -185zM186 2l-179 230l179 230l102 -45l-100 -185l100 -185z" />
    <glyph glyph-name="registered" unicode="&#xae;" horiz-adv-x="662" 
d="M49 523q0 127 83 204.5t199 77.5q128 0 205 -80t77 -202q0 -129 -82.5 -206t-199.5 -77q-130 0 -206 80t-76 203zM110 525q0 -108 64 -169t161 -61q99 0 159 66.5t60 163.5q0 104 -62 165.5t-157 61.5q-104 0 -164.5 -62t-60.5 -165zM330 543q11 0 22.5 10t11.5 25
q0 19 -16 34t-46 15v-83q2 0 11 -0.5t17 -0.5zM313 480q-7 0 -11 -1v-105h-110v317h144q68 0 104.5 -25.5t36.5 -72.5q0 -51 -49 -83l69 -136h-114l-43 107q-9 -1 -27 -1z" />
    <glyph glyph-name="macron" unicode="&#xaf;" horiz-adv-x="460" 
d="M380 635v-15l-29 -101h-271v15l29 101h271z" />
    <glyph glyph-name="twosuperior" unicode="&#xb2;" horiz-adv-x="290" 
d="M261 390h-243v66q144 84 144 132q0 40 -41 40q-51 0 -89 -25l-21 76q66 26 134 26q124 0 124 -97q0 -38 -29.5 -71.5t-91.5 -71.5l129 7z" />
    <glyph glyph-name="threesuperior" unicode="&#xb3;" horiz-adv-x="284" 
d="M112 381q-67 0 -101 9l18 70q52 -11 77 -11q56 0 56 33q0 30 -45 30q-16 0 -42 -2l-9 68q50 0 71 6.5t22 23.5q-1 17 -10.5 22.5t-31.5 5.5q-40 0 -75 -15l-21 62q52 22 126 22q50 0 81.5 -19t31.5 -53q0 -28 -22.5 -49t-56.5 -31q94 -11 94 -71q0 -47 -52 -74t-111 -27z
" />
    <glyph glyph-name="acute" unicode="&#xb4;" horiz-adv-x="361" 
d="M30 500l129 171l172 -30l-159 -141h-142z" />
    <glyph glyph-name="paragraph" unicode="&#xb6;" horiz-adv-x="574" 
d="M312 477v-328h-68q-106 0 -170.5 56.5t-64.5 168.5t66 175t172 63h276v-571q0 -82 -59.5 -129.5t-142.5 -47.5q-66 0 -120 19l19 128q44 -14 73 -16t44.5 8.5t21.5 28t6 46.5v399h-53z" />
    <glyph glyph-name="cedilla" unicode="&#xb8;" horiz-adv-x="311" 
d="M75 -100l50 100h64l-21 -50q89 -27 89 -78q0 -41 -46 -75t-139 -38l-18 65q96 9 96 34q0 23 -72 37z" />
    <glyph glyph-name="onesuperior" unicode="&#xb9;" horiz-adv-x="241" 
d="M201 390h-108v211l-53 -21l-23 82q32 11 123 34h61v-306z" />
    <glyph glyph-name="ordmasculine" unicode="&#xba;" horiz-adv-x="305" 
d="M286 467q0 -57 -42 -91.5t-104 -34.5q-126 0 -126 117q0 57 42 91.5t105 34.5q125 0 125 -117zM178 457q0 64 -33 64q-22 0 -22 -52q0 -66 33 -66q22 0 22 54z" />
    <glyph glyph-name="guillemotright" unicode="&#xbb;" horiz-adv-x="538" 
d="M351 462l180 -230l-180 -230l-101 43l100 187l-100 182zM140 462l180 -230l-180 -230l-102 43l100 187l-100 182z" />
    <glyph glyph-name="questiondown" unicode="&#xbf;" horiz-adv-x="407" 
d="M301 408q0 -26 -35 -59t-59 -33q-20 0 -55.5 31t-35.5 56t36 58.5t56 33.5q24 0 58.5 -31.5t34.5 -55.5zM127 250l151 34q35 -45 35 -74q0 -30 -13.5 -49.5t-52.5 -52.5q-45 -37 -62 -62t-17 -61q0 -16 19 -34.5t42 -18.5q31 0 52.5 8.5t67.5 37.5l53 -116
q-47 -25 -104.5 -42.5t-98.5 -17.5q-92 0 -151.5 47.5t-59.5 123.5q0 69 105 150q31 25 43 40t12 30q0 8 -21 57z" />
    <glyph glyph-name="Agrave" unicode="&#xc0;" horiz-adv-x="602" 
d="M424 650h-142l-159 141l172 30zM359 243l-64 219l-66 -219h130zM429 0l-36 123h-200l-37 -123h-166l200 612h237l185 -612h-183z" />
    <glyph glyph-name="Aacute" unicode="&#xc1;" horiz-adv-x="602" 
d="M190 650l129 171l172 -30l-159 -141h-142zM359 243l-64 219l-66 -219h130zM429 0l-36 123h-200l-37 -123h-166l200 612h237l185 -612h-183z" />
    <glyph glyph-name="Acircumflex" unicode="&#xc2;" horiz-adv-x="602" 
d="M365 650l-72 64l-72 -64h-121l113 171h160l115 -171h-123zM359 243l-64 219l-66 -219h130zM429 0l-36 123h-200l-37 -123h-166l200 612h237l185 -612h-183z" />
    <glyph glyph-name="Atilde" unicode="&#xc3;" horiz-adv-x="602" 
d="M446 818l57 -59q-9 -32 -54 -72t-76 -40q-19 0 -70.5 16.5t-63.5 16.5q-17 0 -37 -16.5t-28 -27.5l-52 70q-2 0 20 24t52 48.5t49 24.5q23 0 70 -17t60 -17q30 0 73 49zM359 243l-64 219l-66 -219h130zM429 0l-36 123h-200l-37 -123h-166l200 612h237l185 -612h-183z" />
    <glyph glyph-name="Adieresis" unicode="&#xc4;" horiz-adv-x="602" 
d="M307 725q0 24 30.5 57.5t54.5 33.5q25 0 60 -28t35 -54q0 -23 -31 -55.5t-53 -32.5q-26 0 -61 27.5t-35 51.5zM107 725q0 24 30.5 57.5t53.5 33.5q26 0 61 -28t35 -54q0 -23 -31.5 -55.5t-53.5 -32.5q-25 0 -60 27.5t-35 51.5zM359 243l-64 219l-66 -219h130zM429 0
l-36 123h-200l-37 -123h-166l200 612h237l185 -612h-183z" />
    <glyph glyph-name="Aring" unicode="&#xc5;" horiz-adv-x="602" 
d="M419 754q0 -43 -33 -75t-78 -32q-48 0 -79 29t-31 78q0 44 33 75.5t78 31.5q48 0 79 -28t31 -79zM267 754q0 -17 11.5 -29t29.5 -12t30 12t12 29q0 19 -12 31t-30 12t-29.5 -12t-11.5 -31zM359 243l-64 219l-66 -219h130zM429 0l-36 123h-200l-37 -123h-166l200 612h237
l185 -612h-183z" />
    <glyph glyph-name="AE" unicode="&#xc6;" horiz-adv-x="797" 
d="M346 468l-100 -225h114v226zM360 0v123h-167l-55 -123h-176l310 612h489l-15 -132l-207 2v-110h195l-10 -124l-185 2v-118l238 3l-15 -135h-402z" />
    <glyph glyph-name="Ccedilla" unicode="&#xc7;" horiz-adv-x="559" 
d="M444 -128q0 -41 -46 -75t-139 -38l-18 65q96 9 96 34q0 23 -72 37l-3 5l41 82q-122 8 -200 89t-78 224q0 147 92 241.5t250 94.5q85 0 166 -24l-29 -143q-84 26 -152 26q-69 0 -106.5 -39t-37.5 -135q0 -53 17.5 -92.5t45 -59t54.5 -28.5t54 -9q79 0 135 23l17 -128
q-56 -32 -162 -40l-14 -32q89 -27 89 -78z" />
    <glyph glyph-name="Egrave" unicode="&#xc8;" horiz-adv-x="490" 
d="M407 650h-142l-159 141l172 30zM51 0v612h401l-15 -132l-207 2v-110h195l-10 -124l-185 2v-118l238 3l-15 -135h-402z" />
    <glyph glyph-name="Eacute" unicode="&#xc9;" horiz-adv-x="490" 
d="M125 650l129 171l172 -30l-159 -141h-142zM51 0v612h401l-15 -132l-207 2v-110h195l-10 -124l-185 2v-118l238 3l-15 -135h-402z" />
    <glyph glyph-name="Ecircumflex" unicode="&#xca;" horiz-adv-x="490" 
d="M331 650l-72 64l-72 -64h-121l113 171h160l115 -171h-123zM51 0v612h401l-15 -132l-207 2v-110h195l-10 -124l-185 2v-118l238 3l-15 -135h-402z" />
    <glyph glyph-name="Edieresis" unicode="&#xcb;" horiz-adv-x="490" 
d="M269 725q0 24 30.5 57.5t54.5 33.5q25 0 60 -28t35 -54q0 -23 -31 -55.5t-53 -32.5q-26 0 -61 27.5t-35 51.5zM69 725q0 24 30.5 57.5t53.5 33.5q26 0 61 -28t35 -54q0 -23 -31.5 -55.5t-53.5 -32.5q-25 0 -60 27.5t-35 51.5zM51 0v612h401l-15 -132l-207 2v-110h195
l-10 -124l-185 2v-118l238 3l-15 -135h-402z" />
    <glyph glyph-name="Igrave" unicode="&#xcc;" horiz-adv-x="281" 
d="M247 650h-142l-159 141l172 30zM230 612v-612h-179v612h179z" />
    <glyph glyph-name="Iacute" unicode="&#xcd;" horiz-adv-x="281" 
d="M29 650l129 171l172 -30l-159 -141h-142zM230 612v-612h-179v612h179z" />
    <glyph glyph-name="Icircumflex" unicode="&#xce;" horiz-adv-x="281" 
d="M210 650l-72 64l-72 -64h-121l113 171h160l115 -171h-123zM230 612v-612h-179v612h179z" />
    <glyph glyph-name="Idieresis" unicode="&#xcf;" horiz-adv-x="281" 
d="M152 736q0 24 30.5 57.5t54.5 33.5q25 0 60 -28t35 -54q0 -23 -31.5 -55.5t-53.5 -32.5q-25 0 -60 27.5t-35 51.5zM-53 736q0 24 30.5 57.5t54.5 33.5q25 0 60 -28t35 -54q0 -23 -31.5 -55.5t-53.5 -32.5q-25 0 -60 27.5t-35 51.5zM230 612v-612h-179v612h179z" />
    <glyph glyph-name="Eth" unicode="&#xd0;" horiz-adv-x="653" 
d="M259 -11q-91 0 -203 14v244h-56v116h56v249h265q139 0 222.5 -73.5t83.5 -221.5q0 -158 -102 -243t-266 -85zM281 122q81 0 122.5 40.5t41.5 129.5q0 103 -50.5 148.5t-120.5 45.5h-39v-123h127l-10 -116h-117v-121q12 -4 46 -4z" />
    <glyph glyph-name="Ntilde" unicode="&#xd1;" horiz-adv-x="654" 
d="M467 818l57 -59q-9 -32 -54 -72t-76 -40q-19 0 -70.5 16.5t-63.5 16.5q-17 0 -37 -16.5t-28 -27.5l-52 70q-2 0 20 24t52 48.5t49 24.5q23 0 70 -17t60 -17q30 0 73 49zM441 0l-230 337v-337h-160v612h178l213 -325v325h161v-612h-162z" />
    <glyph glyph-name="Ograve" unicode="&#xd2;" horiz-adv-x="688" 
d="M474 650h-142l-159 141l172 30zM662 318q0 -155 -94 -246t-249 -91q-135 0 -214.5 84t-79.5 229q0 155 95 246t250 91q135 0 213.5 -84t78.5 -229zM478 290q0 212 -152 212q-56 0 -86 -41.5t-30 -138.5q0 -212 153 -212q56 0 85.5 40.5t29.5 139.5z" />
    <glyph glyph-name="Oacute" unicode="&#xd3;" horiz-adv-x="688" 
d="M213 650l129 171l172 -30l-159 -141h-142zM662 318q0 -155 -94 -246t-249 -91q-135 0 -214.5 84t-79.5 229q0 155 95 246t250 91q135 0 213.5 -84t78.5 -229zM478 290q0 212 -152 212q-56 0 -86 -41.5t-30 -138.5q0 -212 153 -212q56 0 85.5 40.5t29.5 139.5z" />
    <glyph glyph-name="Ocircumflex" unicode="&#xd4;" horiz-adv-x="688" 
d="M418 650l-72 64l-72 -64h-121l113 171h160l115 -171h-123zM662 318q0 -155 -94 -246t-249 -91q-135 0 -214.5 84t-79.5 229q0 155 95 246t250 91q135 0 213.5 -84t78.5 -229zM478 290q0 212 -152 212q-56 0 -86 -41.5t-30 -138.5q0 -212 153 -212q56 0 85.5 40.5
t29.5 139.5z" />
    <glyph glyph-name="Otilde" unicode="&#xd5;" horiz-adv-x="688" 
d="M468 818l57 -59q-9 -32 -54 -72t-76 -40q-19 0 -70.5 16.5t-63.5 16.5q-17 0 -37 -16.5t-28 -27.5l-52 70q-2 0 20 24t52 48.5t49 24.5q23 0 70 -17t60 -17q30 0 73 49zM662 318q0 -155 -94 -246t-249 -91q-135 0 -214.5 84t-79.5 229q0 155 95 246t250 91
q135 0 213.5 -84t78.5 -229zM478 290q0 212 -152 212q-56 0 -86 -41.5t-30 -138.5q0 -212 153 -212q56 0 85.5 40.5t29.5 139.5z" />
    <glyph glyph-name="Odieresis" unicode="&#xd6;" horiz-adv-x="688" 
d="M361 725q0 24 30.5 57.5t54.5 33.5q25 0 60 -28t35 -54q0 -23 -31 -55.5t-53 -32.5q-26 0 -61 27.5t-35 51.5zM161 725q0 24 30.5 57.5t53.5 33.5q26 0 61 -28t35 -54q0 -23 -31.5 -55.5t-53.5 -32.5q-25 0 -60 27.5t-35 51.5zM662 318q0 -155 -94 -246t-249 -91
q-135 0 -214.5 84t-79.5 229q0 155 95 246t250 91q135 0 213.5 -84t78.5 -229zM478 290q0 212 -152 212q-56 0 -86 -41.5t-30 -138.5q0 -212 153 -212q56 0 85.5 40.5t29.5 139.5z" />
    <glyph glyph-name="multiply" unicode="&#xd7;" horiz-adv-x="555" 
d="M387 84l-109 110l-110 -110l-72 73l109 109l-109 109l73 72l109 -108l108 108l73 -72l-109 -109l109 -109z" />
    <glyph glyph-name="Oslash" unicode="&#xd8;" horiz-adv-x="688" 
d="M210 322q0 -80 21 -128l145 301q-21 7 -50 7q-56 0 -86 -41.5t-30 -138.5zM363 110q56 0 85.5 40.5t29.5 139.5q0 80 -21 128l-145 -301q22 -7 51 -7zM319 -19q-36 0 -69 6l-34 -70h-119l53 110q-125 81 -125 267q0 155 95 246t250 91q37 0 68 -6l33 68h119l-52 -108
q124 -80 124 -267q0 -155 -94 -246t-249 -91z" />
    <glyph glyph-name="Ugrave" unicode="&#xd9;" horiz-adv-x="634" 
d="M447 650h-142l-159 141l172 30zM45 212v400h179v-369q0 -110 108 -110q35 0 59 20t24 55v404h174v-386q0 -114 -77 -180.5t-205 -64.5q-262 4 -262 231z" />
    <glyph glyph-name="Uacute" unicode="&#xda;" horiz-adv-x="634" 
d="M181 650l129 171l172 -30l-159 -141h-142zM45 212v400h179v-369q0 -110 108 -110q35 0 59 20t24 55v404h174v-386q0 -114 -77 -180.5t-205 -64.5q-262 4 -262 231z" />
    <glyph glyph-name="Ucircumflex" unicode="&#xdb;" horiz-adv-x="634" 
d="M395 650l-72 64l-72 -64h-121l113 171h160l115 -171h-123zM45 212v400h179v-369q0 -110 108 -110q35 0 59 20t24 55v404h174v-386q0 -114 -77 -180.5t-205 -64.5q-262 4 -262 231z" />
    <glyph glyph-name="Udieresis" unicode="&#xdc;" horiz-adv-x="634" 
d="M335 725q0 24 30.5 57.5t54.5 33.5q25 0 60 -28t35 -54q0 -23 -31 -55.5t-53 -32.5q-26 0 -61 27.5t-35 51.5zM135 725q0 24 30.5 57.5t53.5 33.5q26 0 61 -28t35 -54q0 -23 -31.5 -55.5t-53.5 -32.5q-25 0 -60 27.5t-35 51.5zM45 212v400h179v-369q0 -110 108 -110
q35 0 59 20t24 55v404h174v-386q0 -114 -77 -180.5t-205 -64.5q-262 4 -262 231z" />
    <glyph glyph-name="Yacute" unicode="&#xdd;" horiz-adv-x="566" 
d="M178 650l129 171l172 -30l-159 -141h-142zM370 209v-209h-178v209l-212 403h195l117 -227l118 227h174z" />
    <glyph glyph-name="Thorn" unicode="&#xde;" horiz-adv-x="542" 
d="M249 232q102 0 102 84q0 90 -120 90h-1v-174h19zM252 112q-14 0 -22 1v-113h-179v612h179v-91h67q111 0 173.5 -49.5t62.5 -138.5q0 -103 -80 -162t-201 -59z" />
    <glyph glyph-name="germandbls" unicode="&#xdf;" horiz-adv-x="535" 
d="M355 151l-54 36q-67 42 -67 126q0 43 20 84.5t39.5 74.5t19.5 56q0 24 -23 38.5t-44 14.5q-23 0 -29.5 -11.5t-6.5 -46.5v-523h-173v506q0 95 64.5 151.5t165.5 56.5q90 0 148 -47t58 -104q0 -36 -13.5 -70.5t-30 -55.5t-30 -41.5t-13.5 -32.5q0 -33 27 -54l49 -36
q50 -35 64 -61.5t14 -75.5q0 -65 -57.5 -108.5t-138.5 -43.5q-72 0 -114 20l13 118q14 -8 46 -14.5t45 -6.5q50 0 50 21q0 12 -29 29z" />
    <glyph glyph-name="agrave" unicode="&#xe0;" horiz-adv-x="474" 
d="M382 500h-142l-159 141l172 30zM317 -19l-29 46q-71 -46 -127 -46q-63 0 -104 38.5t-41 101.5q0 73 58.5 114t190.5 49q-1 30 -15.5 40t-45.5 10q-59 0 -141 -30l-29 120q129 45 221 45q180 0 180 -161v-304zM221 96q17 0 44 10v76q-25 3 -39 3q-33 0 -45.5 -10.5
t-12.5 -32.5q0 -18 13 -32t40 -14z" />
    <glyph glyph-name="aacute" unicode="&#xe1;" horiz-adv-x="474" 
d="M128 500l129 171l172 -30l-159 -141h-142zM317 -19l-29 46q-71 -46 -127 -46q-63 0 -104 38.5t-41 101.5q0 73 58.5 114t190.5 49q-1 30 -15.5 40t-45.5 10q-59 0 -141 -30l-29 120q129 45 221 45q180 0 180 -161v-304zM221 96q17 0 44 10v76q-25 3 -39 3
q-33 0 -45.5 -10.5t-12.5 -32.5q0 -18 13 -32t40 -14z" />
    <glyph glyph-name="acircumflex" unicode="&#xe2;" horiz-adv-x="474" 
d="M319 500l-72 64l-72 -64h-121l113 171h160l115 -171h-123zM317 -19l-29 46q-71 -46 -127 -46q-63 0 -104 38.5t-41 101.5q0 73 58.5 114t190.5 49q-1 30 -15.5 40t-45.5 10q-59 0 -141 -30l-29 120q129 45 221 45q180 0 180 -161v-304zM221 96q17 0 44 10v76q-25 3 -39 3
q-33 0 -45.5 -10.5t-12.5 -32.5q0 -18 13 -32t40 -14z" />
    <glyph glyph-name="atilde" unicode="&#xe3;" horiz-adv-x="474" 
d="M370 668l57 -59q-9 -32 -54 -72t-76 -40q-19 0 -70.5 16.5t-63.5 16.5q-17 0 -37 -16.5t-28 -27.5l-52 70q-2 0 20 24t52 48.5t49 24.5q23 0 70 -17t60 -17q30 0 73 49zM317 -19l-29 46q-71 -46 -127 -46q-63 0 -104 38.5t-41 101.5q0 73 58.5 114t190.5 49
q-1 30 -15.5 40t-45.5 10q-59 0 -141 -30l-29 120q129 45 221 45q180 0 180 -161v-304zM221 96q17 0 44 10v76q-25 3 -39 3q-33 0 -45.5 -10.5t-12.5 -32.5q0 -18 13 -32t40 -14z" />
    <glyph glyph-name="adieresis" unicode="&#xe4;" horiz-adv-x="474" 
d="M254 575q0 24 30.5 57.5t54.5 33.5q25 0 60 -28t35 -54q0 -23 -31 -55.5t-53 -32.5q-26 0 -61 27.5t-35 51.5zM54 575q0 24 30.5 57.5t53.5 33.5q26 0 61 -28t35 -54q0 -23 -31.5 -55.5t-53.5 -32.5q-25 0 -60 27.5t-35 51.5zM317 -19l-29 46q-71 -46 -127 -46
q-63 0 -104 38.5t-41 101.5q0 73 58.5 114t190.5 49q-1 30 -15.5 40t-45.5 10q-59 0 -141 -30l-29 120q129 45 221 45q180 0 180 -161v-304zM221 96q17 0 44 10v76q-25 3 -39 3q-33 0 -45.5 -10.5t-12.5 -32.5q0 -18 13 -32t40 -14z" />
    <glyph glyph-name="aring" unicode="&#xe5;" horiz-adv-x="474" 
d="M364 604q0 -43 -33 -75t-78 -32q-48 0 -79 29t-31 78q0 44 33 75.5t78 31.5q48 0 79 -28t31 -79zM212 604q0 -17 11.5 -29t29.5 -12t30 12t12 29q0 19 -12 31t-30 12t-29.5 -12t-11.5 -31zM317 -19l-29 46q-71 -46 -127 -46q-63 0 -104 38.5t-41 101.5q0 73 58.5 114
t190.5 49q-1 30 -15.5 40t-45.5 10q-59 0 -141 -30l-29 120q129 45 221 45q180 0 180 -161v-304zM221 96q17 0 44 10v76q-25 3 -39 3q-33 0 -45.5 -10.5t-12.5 -32.5q0 -18 13 -32t40 -14z" />
    <glyph glyph-name="ae" unicode="&#xe6;" horiz-adv-x="723" 
d="M488 363q-24 0 -35.5 -16.5t-14.5 -60.5h103q0 38 -14.5 57.5t-38.5 19.5zM700 26q-70 -45 -192 -45q-106 0 -166 60q-86 -60 -174 -60q-68 0 -110 38t-42 102q0 74 59 115t193 49q-2 26 -14 37t-47 11q-69 0 -142 -30l-31 121q129 45 221 45q81 0 125 -35q56 35 129 35
q187 0 187 -203q0 -25 -6 -76h-248q17 -80 95 -80q80 0 137 27zM221 96q27 0 74 18q-1 5 -5 15l-22 7v45q-24 4 -42 4q-33 0 -45.5 -10.5t-12.5 -32.5q0 -18 13 -32t40 -14z" />
    <glyph glyph-name="ccedilla" unicode="&#xe7;" horiz-adv-x="429" 
d="M351 -128q0 -41 -46 -75t-139 -38l-18 65q96 9 96 34q0 23 -72 37l-3 5l42 84q-86 12 -141.5 66.5t-55.5 154.5q0 129 75 196.5t185 67.5q76 0 140 -27l-31 -130q-15 10 -50.5 18t-52.5 7q-48 1 -69.5 -23t-21.5 -83q0 -61 33.5 -88.5t77.5 -27.5q51 0 93 18l17 -120
q-73 -28 -135 -31l-13 -32q89 -27 89 -78z" />
    <glyph glyph-name="egrave" unicode="&#xe8;" horiz-adv-x="466" 
d="M374 500h-142l-159 141l172 30zM229 363q-22 0 -32 -17t-13 -60h102q0 38 -15.5 57.5t-41.5 19.5zM443 26q-86 -45 -204 -45q-96 0 -160.5 56t-64.5 175t64 188t176 69q47 0 81.5 -12.5t54 -31.5t31 -48t15 -55.5t3.5 -60.5q0 -37 -6 -71h-247q15 -80 92 -80q61 0 140 27
z" />
    <glyph glyph-name="eacute" unicode="&#xe9;" horiz-adv-x="466" 
d="M130 500l129 171l172 -30l-159 -141h-142zM229 363q-22 0 -32 -17t-13 -60h102q0 38 -15.5 57.5t-41.5 19.5zM443 26q-86 -45 -204 -45q-96 0 -160.5 56t-64.5 175t64 188t176 69q47 0 81.5 -12.5t54 -31.5t31 -48t15 -55.5t3.5 -60.5q0 -37 -6 -71h-247q15 -80 92 -80
q61 0 140 27z" />
    <glyph glyph-name="ecircumflex" unicode="&#xea;" horiz-adv-x="466" 
d="M328 500l-72 64l-72 -64h-121l113 171h160l115 -171h-123zM229 363q-22 0 -32 -17t-13 -60h102q0 38 -15.5 57.5t-41.5 19.5zM443 26q-86 -45 -204 -45q-96 0 -160.5 56t-64.5 175t64 188t176 69q47 0 81.5 -12.5t54 -31.5t31 -48t15 -55.5t3.5 -60.5q0 -37 -6 -71h-247
q15 -80 92 -80q61 0 140 27z" />
    <glyph glyph-name="edieresis" unicode="&#xeb;" horiz-adv-x="466" 
d="M249 575q0 24 30.5 57.5t54.5 33.5q25 0 60 -28t35 -54q0 -23 -31 -55.5t-53 -32.5q-26 0 -61 27.5t-35 51.5zM49 575q0 24 30.5 57.5t53.5 33.5q26 0 61 -28t35 -54q0 -23 -31.5 -55.5t-53.5 -32.5q-25 0 -60 27.5t-35 51.5zM229 363q-22 0 -32 -17t-13 -60h102
q0 38 -15.5 57.5t-41.5 19.5zM443 26q-86 -45 -204 -45q-96 0 -160.5 56t-64.5 175t64 188t176 69q47 0 81.5 -12.5t54 -31.5t31 -48t15 -55.5t3.5 -60.5q0 -37 -6 -71h-247q15 -80 92 -80q61 0 140 27z" />
    <glyph glyph-name="igrave" unicode="&#xec;" horiz-adv-x="247" 
d="M250 500h-142l-159 141l172 30zM212 471v-471h-173v448z" />
    <glyph glyph-name="iacute" unicode="&#xed;" horiz-adv-x="247" 
d="M14 500l129 171l172 -30l-159 -141h-142zM208 471v-471h-173v448z" />
    <glyph glyph-name="icircumflex" unicode="&#xee;" horiz-adv-x="247" 
d="M198 500l-72 64l-72 -64h-121l113 171h160l115 -171h-123zM208 471v-471h-173v448z" />
    <glyph glyph-name="idieresis" unicode="&#xef;" horiz-adv-x="247" 
d="M126 593q0 24 30.5 57.5t54.5 33.5q25 0 60 -28.5t35 -53.5q0 -23 -31.5 -56t-53.5 -33q-25 0 -60 28t-35 52zM-66 593q0 24 30.5 57.5t53.5 33.5q25 0 60.5 -28.5t35.5 -53.5q0 -23 -31.5 -56t-53.5 -33q-25 0 -60 28t-35 52zM206 471v-471h-173v448z" />
    <glyph glyph-name="eth" unicode="&#xf0;" horiz-adv-x="531" 
d="M244 -19q-96 0 -163 56t-67 169q0 56 16.5 101.5t42.5 75t60 49.5t68 28.5t68 8.5q12 0 34 -2q-19 38 -60 74l-93 -61l-70 60l85 55q-32 18 -88 49l62 71q75 -19 136 -50l86 56l67 -59l-72 -47q84 -65 122 -150t38 -168q0 -163 -76 -239.5t-196 -76.5zM373 449v-1
q1 0 0 1zM267 105q39 0 54 28.5t14 126.5q0 33 -2 79q-25 7 -47 7q-52 0 -72.5 -23.5t-20.5 -98.5q0 -64 24.5 -91.5t49.5 -27.5z" />
    <glyph glyph-name="ntilde" unicode="&#xf1;" 
d="M401 668l57 -59q-9 -32 -54 -72t-76 -40q-19 0 -70.5 16.5t-63.5 16.5q-17 0 -37 -16.5t-28 -27.5l-52 70q-2 0 20 24t52 48.5t49 24.5q23 0 70 -17t60 -17q30 0 73 49zM255 344q-30 0 -45 -13v-331h-173v446l123 23l29 -42q80 42 151 42q67 0 108 -34t41 -106v-329h-173
v277q0 30 -11 45.5t-22 18.5t-28 3z" />
    <glyph glyph-name="ograve" unicode="&#xf2;" horiz-adv-x="529" 
d="M411 500h-142l-159 141l172 30zM335 213q0 83 -21.5 110.5t-59.5 27.5q-14 0 -22.5 -3t-18 -14t-14 -35t-4.5 -62q0 -83 21 -110.5t59 -27.5q14 0 23 3t18.5 13.5t14 35t4.5 62.5zM511 234q0 -116 -72 -184.5t-190 -66.5q-106 -2 -168 55.5t-62 177.5q0 115 71 184
t187 69q234 0 234 -235z" />
    <glyph glyph-name="oacute" unicode="&#xf3;" horiz-adv-x="529" 
d="M136 500l129 171l172 -30l-159 -141h-142zM335 213q0 83 -21.5 110.5t-59.5 27.5q-14 0 -22.5 -3t-18 -14t-14 -35t-4.5 -62q0 -83 21 -110.5t59 -27.5q14 0 23 3t18.5 13.5t14 35t4.5 62.5zM511 234q0 -116 -72 -184.5t-190 -66.5q-106 -2 -168 55.5t-62 177.5
q0 115 71 184t187 69q234 0 234 -235z" />
    <glyph glyph-name="ocircumflex" unicode="&#xf4;" horiz-adv-x="529" 
d="M342 500l-72 64l-72 -64h-121l113 171h160l115 -171h-123zM335 213q0 83 -21.5 110.5t-59.5 27.5q-14 0 -22.5 -3t-18 -14t-14 -35t-4.5 -62q0 -83 21 -110.5t59 -27.5q14 0 23 3t18.5 13.5t14 35t4.5 62.5zM511 234q0 -116 -72 -184.5t-190 -66.5q-106 -2 -168 55.5
t-62 177.5q0 115 71 184t187 69q234 0 234 -235z" />
    <glyph glyph-name="otilde" unicode="&#xf5;" horiz-adv-x="529" 
d="M411 668l57 -59q-9 -32 -54 -72t-76 -40q-19 0 -70.5 16.5t-63.5 16.5q-17 0 -37 -16.5t-28 -27.5l-52 70q-2 0 20 24t52 48.5t49 24.5q23 0 70 -17t60 -17q30 0 73 49zM335 213q0 83 -21.5 110.5t-59.5 27.5q-14 0 -22.5 -3t-18 -14t-14 -35t-4.5 -62q0 -83 21 -110.5
t59 -27.5q14 0 23 3t18.5 13.5t14 35t4.5 62.5zM511 234q0 -116 -72 -184.5t-190 -66.5q-106 -2 -168 55.5t-62 177.5q0 115 71 184t187 69q234 0 234 -235z" />
    <glyph glyph-name="odieresis" unicode="&#xf6;" horiz-adv-x="529" 
d="M279 575q0 24 30.5 57.5t54.5 33.5q25 0 60 -28t35 -54q0 -23 -31 -55.5t-53 -32.5q-26 0 -61 27.5t-35 51.5zM79 575q0 24 30.5 57.5t53.5 33.5q26 0 61 -28t35 -54q0 -23 -31.5 -55.5t-53.5 -32.5q-25 0 -60 27.5t-35 51.5zM335 213q0 83 -21.5 110.5t-59.5 27.5
q-14 0 -22.5 -3t-18 -14t-14 -35t-4.5 -62q0 -83 21 -110.5t59 -27.5q14 0 23 3t18.5 13.5t14 35t4.5 62.5zM511 234q0 -116 -72 -184.5t-190 -66.5q-106 -2 -168 55.5t-62 177.5q0 115 71 184t187 69q234 0 234 -235z" />
    <glyph glyph-name="divide" unicode="&#xf7;" horiz-adv-x="555" 
d="M193 432q0 33 26 60.5t56 27.5q29 0 61 -22.5t32 -52.5q0 -33 -27 -60t-58 -27q-32 0 -61 21t-29 53zM492 319v-102h-426v102h426zM193 92q0 33 26 60.5t56 27.5q32 0 62.5 -22t30.5 -52q0 -33 -27 -60t-58 -27q-33 0 -61.5 21t-28.5 52z" />
    <glyph glyph-name="oslash" unicode="&#xf8;" horiz-adv-x="529" 
d="M195 237q0 -31 3 -53l86 163q-13 4 -30 4q-14 0 -22.5 -3t-18 -14t-14 -35t-4.5 -62zM275 99q14 0 23 3t18.5 13.5t14 35t4.5 62.5q0 36 -4 56l-87 -165q13 -5 31 -5zM249 -17q-40 0 -66 5l-31 -59h-89l46 88q-90 56 -90 199q0 115 71 184t187 69q37 0 68 -6l32 60h88
l-46 -87q92 -55 92 -202q0 -116 -72 -184.5t-190 -66.5z" />
    <glyph glyph-name="ugrave" unicode="&#xf9;" 
d="M424 500h-142l-159 141l172 30zM373 -19l-35 41q-82 -41 -150 -41q-67 0 -108 34t-41 106v325l173 23v-296q0 -23 5.5 -37.5t16 -20t18.5 -7t20 -1.5q32 0 46 12v327l173 23v-465z" />
    <glyph glyph-name="uacute" unicode="&#xfa;" 
d="M147 500l129 171l172 -30l-159 -141h-142zM373 -19l-35 41q-82 -41 -150 -41q-67 0 -108 34t-41 106v325l173 23v-296q0 -23 5.5 -37.5t16 -20t18.5 -7t20 -1.5q32 0 46 12v327l173 23v-465z" />
    <glyph glyph-name="ucircumflex" unicode="&#xfb;" 
d="M364 500l-72 64l-72 -64h-121l113 171h160l115 -171h-123zM373 -19l-35 41q-82 -41 -150 -41q-67 0 -108 34t-41 106v325l173 23v-296q0 -23 5.5 -37.5t16 -20t18.5 -7t20 -1.5q32 0 46 12v327l173 23v-465z" />
    <glyph glyph-name="udieresis" unicode="&#xfc;" 
d="M290 575q0 24 30.5 57.5t54.5 33.5q25 0 60 -28t35 -54q0 -23 -31 -55.5t-53 -32.5q-26 0 -61 27.5t-35 51.5zM90 575q0 24 30.5 57.5t53.5 33.5q26 0 61 -28t35 -54q0 -23 -31.5 -55.5t-53.5 -32.5q-25 0 -60 27.5t-35 51.5zM373 -19l-35 41q-82 -41 -150 -41
q-67 0 -108 34t-41 106v325l173 23v-296q0 -23 5.5 -37.5t16 -20t18.5 -7t20 -1.5q32 0 46 12v327l173 23v-465z" />
    <glyph glyph-name="yacute" unicode="&#xfd;" horiz-adv-x="495" 
d="M118 500l129 171l172 -30l-159 -141h-142zM106 -241q-51 0 -84 11l-5 130q80 -10 122.5 10t66.5 77q0 2 2 6.5t2 6.5h-80l-141 441l181 21l85 -308q38 150 67 296h171q-3 -12 -23 -88.5t-38.5 -146t-41.5 -149t-38 -118.5q-31 -94 -95 -141.5t-151 -47.5z" />
    <glyph glyph-name="thorn" unicode="&#xfe;" horiz-adv-x="538" 
d="M272 106q39 0 58.5 27.5t19.5 93.5q0 64 -26.5 91t-65.5 27q-26 0 -48 -9v-221q34 -9 62 -9zM210 -217l-173 -23v914l173 22v-262q70 36 126 35q83 -2 136.5 -60.5t53.5 -172.5q0 -119 -72.5 -187t-159.5 -68q-51 0 -84 4v-202z" />
    <glyph glyph-name="ydieresis" unicode="&#xff;" horiz-adv-x="495" 
d="M258 575q0 24 30.5 57.5t54.5 33.5q25 0 60 -28t35 -54q0 -23 -31 -55.5t-53 -32.5q-26 0 -61 27.5t-35 51.5zM58 575q0 24 30.5 57.5t53.5 33.5q26 0 61 -28t35 -54q0 -23 -31.5 -55.5t-53.5 -32.5q-25 0 -60 27.5t-35 51.5zM106 -241q-51 0 -84 11l-5 130
q80 -10 122.5 10t66.5 77q0 2 2 6.5t2 6.5h-80l-141 441l181 21l85 -308q38 150 67 296h171q-3 -12 -23 -88.5t-38.5 -146t-41.5 -149t-38 -118.5q-31 -94 -95 -141.5t-151 -47.5z" />
    <glyph glyph-name="Amacron" unicode="&#x100;" horiz-adv-x="602" 
d="M461 785v-15l-29 -101h-271v15l29 101h271zM359 243l-64 219l-66 -219h130zM429 0l-36 123h-200l-37 -123h-166l200 612h237l185 -612h-183z" />
    <glyph glyph-name="amacron" unicode="&#x101;" horiz-adv-x="474" 
d="M394 635v-15l-29 -101h-271v15l29 101h271zM317 -19l-29 46q-71 -46 -127 -46q-63 0 -104 38.5t-41 101.5q0 73 58.5 114t190.5 49q-1 30 -15.5 40t-45.5 10q-59 0 -141 -30l-29 120q129 45 221 45q180 0 180 -161v-304zM221 96q17 0 44 10v76q-25 3 -39 3
q-33 0 -45.5 -10.5t-12.5 -32.5q0 -18 13 -32t40 -14z" />
    <glyph glyph-name="Abreve" unicode="&#x102;" horiz-adv-x="602" 
d="M306 755q70 0 80 78h98q0 -83 -55 -133t-128 -50q-79 0 -126.5 48.5t-47.5 134.5h98q10 -78 81 -78zM359 243l-64 219l-66 -219h130zM429 0l-36 123h-200l-37 -123h-166l200 612h237l185 -612h-183z" />
    <glyph glyph-name="abreve" unicode="&#x103;" horiz-adv-x="474" 
d="M280 605q70 0 80 78h98q0 -83 -55 -133t-128 -50q-79 0 -126.5 48.5t-47.5 134.5h98q10 -78 81 -78zM317 -19l-29 46q-71 -46 -127 -46q-63 0 -104 38.5t-41 101.5q0 73 58.5 114t190.5 49q-1 30 -15.5 40t-45.5 10q-59 0 -141 -30l-29 120q129 45 221 45q180 0 180 -161
v-304zM221 96q17 0 44 10v76q-25 3 -39 3q-33 0 -45.5 -10.5t-12.5 -32.5q0 -18 13 -32t40 -14z" />
    <glyph glyph-name="Aogonek" unicode="&#x104;" horiz-adv-x="602" 
d="M359 243l-64 219l-66 -219h130zM531 0h-102l-36 123h-200l-37 -123h-166l200 612h237l185 -612h2q-101 -70 -101 -119q0 -14 10.5 -23.5t25.5 -9.5q30 0 50 11l22 -71q-15 -8 -45 -17t-50 -9q-52 0 -84.5 27t-32.5 74q0 32 31 69t91 68z" />
    <glyph glyph-name="aogonek" unicode="&#x105;" horiz-adv-x="474" 
d="M334 -238q-52 0 -84.5 27t-32.5 74q0 29 24.5 61.5t72.5 61.5l-26 41q-71 -46 -127 -46q-63 0 -104 38.5t-41 101.5q0 73 58.5 114t190.5 49q-1 30 -15.5 40t-45.5 10q-59 0 -141 -30l-29 120q129 45 221 45q180 0 180 -161v-304l-21 -4h8q-101 -70 -101 -119
q0 -14 10.5 -23.5t25.5 -9.5q30 0 50 11l22 -71q-15 -8 -45 -17t-50 -9zM221 96q17 0 44 10v76q-25 3 -39 3q-33 0 -45.5 -10.5t-12.5 -32.5q0 -18 13 -32t40 -14z" />
    <glyph glyph-name="Cacute" unicode="&#x106;" horiz-adv-x="559" 
d="M203 650l129 171l172 -30l-159 -141h-142zM514 150l17 -128q-29 -17 -85 -29t-118 -12q-131 0 -217 81.5t-86 232.5q0 147 92 241.5t250 94.5q85 0 166 -24l-29 -143q-84 26 -152 26q-69 0 -106.5 -39t-37.5 -135q0 -53 17.5 -92.5t45 -59t54.5 -28.5t54 -9q79 0 135 23z
" />
    <glyph glyph-name="cacute" unicode="&#x107;" horiz-adv-x="429" 
d="M113 500l129 171l172 -30l-159 -141h-142zM393 133l17 -120q-82 -32 -156 -32q-100 0 -170 56t-70 168q0 129 75 196.5t185 67.5q76 0 140 -27l-31 -130q-15 10 -50.5 18t-52.5 7q-48 1 -69.5 -23t-21.5 -83q0 -61 33.5 -88.5t77.5 -27.5q51 0 93 18z" />
    <glyph glyph-name="Ccircumflex" unicode="&#x108;" horiz-adv-x="559" 
d="M396 650l-72 64l-72 -64h-121l113 171h160l115 -171h-123zM514 150l17 -128q-29 -17 -85 -29t-118 -12q-131 0 -217 81.5t-86 232.5q0 147 92 241.5t250 94.5q85 0 166 -24l-29 -143q-84 26 -152 26q-69 0 -106.5 -39t-37.5 -135q0 -53 17.5 -92.5t45 -59t54.5 -28.5
t54 -9q79 0 135 23z" />
    <glyph glyph-name="ccircumflex" unicode="&#x109;" horiz-adv-x="429" 
d="M332 500l-72 64l-72 -64h-121l113 171h160l115 -171h-123zM393 133l17 -120q-82 -32 -156 -32q-100 0 -170 56t-70 168q0 129 75 196.5t185 67.5q76 0 140 -27l-31 -130q-15 10 -50.5 18t-52.5 7q-48 1 -69.5 -23t-21.5 -83q0 -61 33.5 -88.5t77.5 -27.5q51 0 93 18z" />
    <glyph glyph-name="Cdotaccent" unicode="&#x10a;" horiz-adv-x="559" 
d="M225 747q0 27 34 64t61 37q26 0 65.5 -31t39.5 -57t-35 -63t-60 -37q-27 0 -66 30.5t-39 56.5zM514 150l17 -128q-29 -17 -85 -29t-118 -12q-131 0 -217 81.5t-86 232.5q0 147 92 241.5t250 94.5q85 0 166 -24l-29 -143q-84 26 -152 26q-69 0 -106.5 -39t-37.5 -135
q0 -53 17.5 -92.5t45 -59t54.5 -28.5t54 -9q79 0 135 23z" />
    <glyph glyph-name="cdotaccent" unicode="&#x10b;" horiz-adv-x="429" 
d="M198 597q0 27 34 64t61 37q26 0 65.5 -31t39.5 -57t-35 -63t-60 -37q-27 0 -66 30.5t-39 56.5zM393 133l17 -120q-82 -32 -156 -32q-100 0 -170 56t-70 168q0 129 75 196.5t185 67.5q76 0 140 -27l-31 -130q-15 10 -50.5 18t-52.5 7q-48 1 -69.5 -23t-21.5 -83
q0 -61 33.5 -88.5t77.5 -27.5q51 0 93 18z" />
    <glyph glyph-name="Ccaron" unicode="&#x10c;" horiz-adv-x="559" 
d="M416 656h-160l-115 171h123l72 -63l72 63h121zM514 150l17 -128q-29 -17 -85 -29t-118 -12q-131 0 -217 81.5t-86 232.5q0 147 92 241.5t250 94.5q85 0 166 -24l-29 -143q-84 26 -152 26q-69 0 -106.5 -39t-37.5 -135q0 -53 17.5 -92.5t45 -59t54.5 -28.5t54 -9
q79 0 135 23z" />
    <glyph glyph-name="ccaron" unicode="&#x10d;" horiz-adv-x="429" 
d="M341 506h-160l-115 171h123l72 -63l72 63h121zM393 133l17 -120q-82 -32 -156 -32q-100 0 -170 56t-70 168q0 129 75 196.5t185 67.5q76 0 140 -27l-31 -130q-15 10 -50.5 18t-52.5 7q-48 1 -69.5 -23t-21.5 -83q0 -61 33.5 -88.5t77.5 -27.5q51 0 93 18z" />
    <glyph glyph-name="Dcaron" unicode="&#x10e;" horiz-adv-x="648" 
d="M376 656h-160l-115 171h123l72 -63l72 63h121zM51 612h265q139 0 222.5 -73.5t83.5 -221.5q0 -158 -102 -243t-266 -85q-91 0 -203 14v609zM230 486v-360q12 -4 46 -4q81 0 122.5 40.5t41.5 129.5q0 103 -50.5 148.5t-120.5 45.5h-39z" />
    <glyph glyph-name="dcaron" unicode="&#x10f;" horiz-adv-x="729" 
d="M581 641q-1 20 29.5 37t56.5 17q29 0 45.5 -37t16.5 -76q0 -62 -101 -202l-67 33q34 67 34 136q0 20 -7 49t-7 43zM287 107q22 0 48 7v221q-34 9 -62 9q-39 0 -58.5 -27.5t-19.5 -93.5q0 -64 26.5 -90t65.5 -26zM383 -19l-33 44q-74 -45 -142 -44q-83 2 -136 60.5
t-53 172.5q0 119 72.5 187t159.5 68q51 0 84 -4v206l173 23v-690z" />
    <glyph glyph-name="Dcroat" unicode="&#x110;" horiz-adv-x="653" 
d="M259 -11q-91 0 -203 14v244h-56v116h56v249h265q139 0 222.5 -73.5t83.5 -221.5q0 -158 -102 -243t-266 -85zM281 122q81 0 122.5 40.5t41.5 129.5q0 103 -50.5 148.5t-120.5 45.5h-39v-123h127l-10 -116h-117v-121q12 -4 46 -4z" />
    <glyph glyph-name="dcroat" unicode="&#x111;" horiz-adv-x="545" 
d="M287 107q22 0 48 7v221q-34 9 -62 9q-39 0 -58.5 -27.5t-19.5 -93.5q0 -64 26.5 -90t65.5 -26zM383 -19l-33 44q-74 -45 -142 -44q-83 2 -136 60.5t-53 172.5q0 119 72.5 187t159.5 68q51 0 84 -4v63h-130v15l29 74h101v54l173 23v-77h82v-15l-29 -74h-53v-524z" />
    <glyph glyph-name="Emacron" unicode="&#x112;" horiz-adv-x="490" 
d="M408 785v-15l-29 -101h-271v15l29 101h271zM51 0v612h401l-15 -132l-207 2v-110h195l-10 -124l-185 2v-118l238 3l-15 -135h-402z" />
    <glyph glyph-name="emacron" unicode="&#x113;" horiz-adv-x="466" 
d="M390 635v-15l-29 -101h-271v15l29 101h271zM229 363q-22 0 -32 -17t-13 -60h102q0 38 -15.5 57.5t-41.5 19.5zM443 26q-86 -45 -204 -45q-96 0 -160.5 56t-64.5 175t64 188t176 69q47 0 81.5 -12.5t54 -31.5t31 -48t15 -55.5t3.5 -60.5q0 -37 -6 -71h-247q15 -80 92 -80
q61 0 140 27z" />
    <glyph glyph-name="Ebreve" unicode="&#x114;" horiz-adv-x="490" 
d="M265 755q70 0 80 78h98q0 -83 -55 -133t-128 -50q-79 0 -126.5 48.5t-47.5 134.5h98q10 -78 81 -78zM51 0v612h401l-15 -132l-207 2v-110h195l-10 -124l-185 2v-118l238 3l-15 -135h-402z" />
    <glyph glyph-name="ebreve" unicode="&#x115;" horiz-adv-x="466" 
d="M274 605q70 0 80 78h98q0 -83 -55 -133t-128 -50q-79 0 -126.5 48.5t-47.5 134.5h98q10 -78 81 -78zM229 363q-22 0 -32 -17t-13 -60h102q0 38 -15.5 57.5t-41.5 19.5zM443 26q-86 -45 -204 -45q-96 0 -160.5 56t-64.5 175t64 188t176 69q47 0 81.5 -12.5t54 -31.5
t31 -48t15 -55.5t3.5 -60.5q0 -37 -6 -71h-247q15 -80 92 -80q61 0 140 27z" />
    <glyph glyph-name="Edotaccent" unicode="&#x116;" horiz-adv-x="490" 
d="M168 747q0 27 34 64t61 37q26 0 65.5 -31t39.5 -57t-35 -63t-60 -37q-27 0 -66 30.5t-39 56.5zM51 0v612h401l-15 -132l-207 2v-110h195l-10 -124l-185 2v-118l238 3l-15 -135h-402z" />
    <glyph glyph-name="edotaccent" unicode="&#x117;" horiz-adv-x="466" 
d="M142 597q0 27 34 64t61 37q26 0 65.5 -31t39.5 -57t-35 -63t-60 -37q-27 0 -66 30.5t-39 56.5zM229 363q-22 0 -32 -17t-13 -60h102q0 38 -15.5 57.5t-41.5 19.5zM443 26q-86 -45 -204 -45q-96 0 -160.5 56t-64.5 175t64 188t176 69q47 0 81.5 -12.5t54 -31.5t31 -48
t15 -55.5t3.5 -60.5q0 -37 -6 -71h-247q15 -80 92 -80q61 0 140 27z" />
    <glyph glyph-name="Eogonek" unicode="&#x118;" horiz-adv-x="490" 
d="M51 0v612h401l-15 -132l-207 2v-110h195l-10 -124l-185 2v-118l238 3l-15 -135h-402zM253 -137q0 32 31 69t91 68h83q-101 -70 -101 -119q0 -14 10.5 -23.5t25.5 -9.5q30 0 50 11l22 -71q-15 -8 -45 -17t-50 -9q-52 0 -84.5 27t-32.5 74z" />
    <glyph glyph-name="eogonek" unicode="&#x119;" horiz-adv-x="466" 
d="M229 363q-22 0 -32 -17t-13 -60h102q0 38 -15.5 57.5t-41.5 19.5zM416 -204q-15 -8 -45 -17t-50 -9q-52 0 -84.5 27t-32.5 74q0 57 79 112q-28 -2 -44 -2q-96 0 -160.5 56t-64.5 175t64 188t176 69q47 0 81.5 -12.5t54 -31.5t31 -48t15 -55.5t3.5 -60.5q0 -37 -6 -71
h-247q15 -80 92 -80q61 0 140 27l25 -111q-26 -13 -41 -18h7q-101 -70 -101 -119q0 -14 10.5 -23.5t25.5 -9.5q30 0 50 11z" />
    <glyph glyph-name="Ecaron" unicode="&#x11a;" horiz-adv-x="490" 
d="M347 656h-160l-115 171h123l72 -63l72 63h121zM51 0v612h401l-15 -132l-207 2v-110h195l-10 -124l-185 2v-118l238 3l-15 -135h-402z" />
    <glyph glyph-name="ecaron" unicode="&#x11b;" horiz-adv-x="466" 
d="M315 506h-160l-115 171h123l72 -63l72 63h121zM229 363q-22 0 -32 -17t-13 -60h102q0 38 -15.5 57.5t-41.5 19.5zM443 26q-86 -45 -204 -45q-96 0 -160.5 56t-64.5 175t64 188t176 69q47 0 81.5 -12.5t54 -31.5t31 -48t15 -55.5t3.5 -60.5q0 -37 -6 -71h-247
q15 -80 92 -80q61 0 140 27z" />
    <glyph glyph-name="Gcircumflex" unicode="&#x11c;" horiz-adv-x="603" 
d="M409 650l-72 64l-72 -64h-121l113 171h160l115 -171h-123zM554 21q-128 -40 -218 -40q-139 0 -225 78.5t-86 228.5q0 167 102 255t253 88q101 0 180 -32l-33 -139q-28 12 -74 23.5t-80 11.5q-90 0 -127.5 -43.5t-37.5 -135.5q0 -62 16 -103.5t43 -59.5t49.5 -24.5
t47.5 -6.5t36 1l-1 181h155v-283z" />
    <glyph glyph-name="gcircumflex" unicode="&#x11d;" horiz-adv-x="471" 
d="M304 500l-72 64l-72 -64h-121l113 171h160l115 -171h-123zM256 304q0 72 -55 72q-19 0 -25.5 -13.5t-6.5 -49.5q0 -72 55 -72q17 0 24.5 14.5t7.5 48.5zM467 -16q0 -90 -80.5 -154t-204.5 -64q-99 0 -147 36t-48 85q0 20 8 37.5t16 26t20.5 18.5t13.5 11l29 19
q-45 26 -45 76q0 44 56 94q-81 39 -81 130q0 77 58 123.5t166 46.5q76 0 125 -30q117 31 118 30v-132h-19l-34 7q2 -16 2 -27q0 -75 -61 -123t-159 -48h-18q-3 -6 -3 -16q0 -22 40 -21l107 -2q72 -2 106.5 -30t34.5 -93zM221 -116q40 0 65 17t25 40q0 25 -48 26l-90 5l-5 1
q-24 -29 -24 -42q0 -19 19 -33t58 -14z" />
    <glyph glyph-name="Gbreve" unicode="&#x11e;" horiz-adv-x="603" 
d="M340 755q70 0 80 78h98q0 -83 -55 -133t-128 -50q-79 0 -126.5 48.5t-47.5 134.5h98q10 -78 81 -78zM554 21q-128 -40 -218 -40q-139 0 -225 78.5t-86 228.5q0 167 102 255t253 88q101 0 180 -32l-33 -139q-28 12 -74 23.5t-80 11.5q-90 0 -127.5 -43.5t-37.5 -135.5
q0 -62 16 -103.5t43 -59.5t49.5 -24.5t47.5 -6.5t36 1l-1 181h155v-283z" />
    <glyph glyph-name="gbreve" unicode="&#x11f;" horiz-adv-x="471" 
d="M269 605q70 0 80 78h98q0 -83 -55 -133t-128 -50q-79 0 -126.5 48.5t-47.5 134.5h98q10 -78 81 -78zM256 304q0 72 -55 72q-19 0 -25.5 -13.5t-6.5 -49.5q0 -72 55 -72q17 0 24.5 14.5t7.5 48.5zM467 -16q0 -90 -80.5 -154t-204.5 -64q-99 0 -147 36t-48 85q0 20 8 37.5
t16 26t20.5 18.5t13.5 11l29 19q-45 26 -45 76q0 44 56 94q-81 39 -81 130q0 77 58 123.5t166 46.5q76 0 125 -30q117 31 118 30v-132h-19l-34 7q2 -16 2 -27q0 -75 -61 -123t-159 -48h-18q-3 -6 -3 -16q0 -22 40 -21l107 -2q72 -2 106.5 -30t34.5 -93zM221 -116q40 0 65 17
t25 40q0 25 -48 26l-90 5l-5 1q-24 -29 -24 -42q0 -19 19 -33t58 -14z" />
    <glyph glyph-name="Gdotaccent" unicode="&#x120;" horiz-adv-x="603" 
d="M228 747q0 27 34 64t61 37q26 0 65.5 -31t39.5 -57t-35 -63t-60 -37q-27 0 -66 30.5t-39 56.5zM554 21q-128 -40 -218 -40q-139 0 -225 78.5t-86 228.5q0 167 102 255t253 88q101 0 180 -32l-33 -139q-28 12 -74 23.5t-80 11.5q-90 0 -127.5 -43.5t-37.5 -135.5
q0 -62 16 -103.5t43 -59.5t49.5 -24.5t47.5 -6.5t36 1l-1 181h155v-283z" />
    <glyph glyph-name="gdotaccent" unicode="&#x121;" horiz-adv-x="471" 
d="M131 597q0 27 34 64t61 37q26 0 65.5 -31t39.5 -57t-35 -63t-60 -37q-27 0 -66 30.5t-39 56.5zM256 304q0 72 -55 72q-19 0 -25.5 -13.5t-6.5 -49.5q0 -72 55 -72q17 0 24.5 14.5t7.5 48.5zM467 -16q0 -90 -80.5 -154t-204.5 -64q-99 0 -147 36t-48 85q0 20 8 37.5t16 26
t20.5 18.5t13.5 11l29 19q-45 26 -45 76q0 44 56 94q-81 39 -81 130q0 77 58 123.5t166 46.5q76 0 125 -30q117 31 118 30v-132h-19l-34 7q2 -16 2 -27q0 -75 -61 -123t-159 -48h-18q-3 -6 -3 -16q0 -22 40 -21l107 -2q72 -2 106.5 -30t34.5 -93zM221 -116q40 0 65 17t25 40
q0 25 -48 26l-90 5l-5 1q-24 -29 -24 -42q0 -19 19 -33t58 -14z" />
    <glyph glyph-name="Gcommaaccent" unicode="&#x122;" horiz-adv-x="603" 
d="M554 21q-128 -40 -218 -40q-139 0 -225 78.5t-86 228.5q0 167 102 255t253 88q101 0 180 -32l-33 -139q-28 12 -74 23.5t-80 11.5q-90 0 -127.5 -43.5t-37.5 -135.5q0 -62 16 -103.5t43 -59.5t49.5 -24.5t47.5 -6.5t36 1l-1 181h155v-283zM262 -104q0 21 24.5 44t47.5 23
t50 -27.5t27 -44.5q0 -52 -76 -161l-77 30q4 10 14.5 29.5t18.5 35t8 21.5t-18.5 23.5t-18.5 26.5z" />
    <glyph glyph-name="gcommaaccent" unicode="&#x123;" horiz-adv-x="471" 
d="M287 568q0 -21 -24.5 -44t-47.5 -23t-50 27.5t-27 44.5q0 52 76 161l77 -30q-4 -10 -14.5 -29.5t-18.5 -35t-8 -21.5t18.5 -23.5t18.5 -26.5zM256 304q0 72 -55 72q-19 0 -25.5 -13.5t-6.5 -49.5q0 -72 55 -72q17 0 24.5 14.5t7.5 48.5zM467 -16q0 -90 -80.5 -154
t-204.5 -64q-99 0 -147 36t-48 85q0 20 8 37.5t16 26t20.5 18.5t13.5 11l29 19q-45 26 -45 76q0 44 56 94q-81 39 -81 130q0 77 58 123.5t166 46.5q76 0 125 -30q117 31 118 30v-132h-19l-34 7q2 -16 2 -27q0 -75 -61 -123t-159 -48h-18q-3 -6 -3 -16q0 -22 40 -21l107 -2
q72 -2 106.5 -30t34.5 -93zM221 -116q40 0 65 17t25 40q0 25 -48 26l-90 5l-5 1q-24 -29 -24 -42q0 -19 19 -33t58 -14z" />
    <glyph glyph-name="Hcircumflex" unicode="&#x124;" horiz-adv-x="657" 
d="M400 650l-72 64l-72 -64h-121l113 171h160l115 -171h-123zM427 0v241h-197v-241h-179v612h179v-230h197v230h179v-612h-179z" />
    <glyph glyph-name="hcircumflex" unicode="&#x125;" horiz-adv-x="535" 
d="M201 701l-72 64l-72 -64h-121l113 171h160l115 -171h-123zM256 344q-28 0 -46 -12v-332h-173v671l173 23v-257q72 32 130 32q149 0 149 -142v-327h-173v277q0 24 -5.5 39t-17 20.5t-18 6.5t-19.5 1z" />
    <glyph glyph-name="Hbar" unicode="&#x126;" horiz-adv-x="657" 
d="M427 382v60h-197v-60h197zM427 0v241h-197v-241h-179v442h-60v24l25 91h35v55h179v-55h197v55h179v-55h59v-24l-24 -91h-35v-442h-179z" />
    <glyph glyph-name="hbar" unicode="&#x127;" 
d="M256 344q-28 0 -46 -12v-332h-173v528h-66v15l30 74h36v54l173 23v-77h146v-15l-30 -74h-116v-91q72 32 130 32q149 0 149 -142v-327h-173v277q0 24 -5.5 39t-17 20.5t-18 6.5t-19.5 1z" />
    <glyph glyph-name="Itilde" unicode="&#x128;" horiz-adv-x="281" 
d="M264 818l46 -55q-18 -21 -29 -31.5t-35 -24t-48 -13.5q-14 0 -59.5 15t-55.5 15q-13 0 -28.5 -8.5t-25 -17t-8.5 -9.5l-50 52l9 11q10 12 21.5 23.5t26 24.5t30.5 21.5t29 8.5q18 0 60 -14t53 -14q32 0 64 16zM230 612v-612h-179v612h179z" />
    <glyph glyph-name="itilde" unicode="&#x129;" horiz-adv-x="247" 
d="M250 668l42 -81q-17 -23 -47 -45.5t-53 -22.5q-19 0 -73.5 18.5t-66.5 18.5q-5 0 -10.5 -2t-11.5 -6t-10.5 -7.5t-12.5 -10.5t-12 -10l-46 71q-1 1 19 22t47.5 42.5t42.5 21.5q23 0 73 -18.5t63 -18.5q8 0 17 4t21 12.5t18 11.5zM210 471v-471h-173v448z" />
    <glyph glyph-name="Imacron" unicode="&#x12a;" horiz-adv-x="281" 
d="M288 795v-15l-28 -78h-252v15l29 78h251zM230 612v-612h-179v612h179z" />
    <glyph glyph-name="imacron" unicode="&#x12b;" horiz-adv-x="247" 
d="M256 645v-15l-28 -96h-233v15l29 96h232zM212 471v-471h-173v448z" />
    <glyph glyph-name="Ibreve" unicode="&#x12c;" horiz-adv-x="281" 
d="M147 760q64 0 64 78h104q0 -83 -51.5 -133t-122.5 -50q-76 0 -119.5 48t-43.5 135h103q-3 -78 66 -78zM230 612v-612h-179v612h179z" />
    <glyph glyph-name="ibreve" unicode="&#x12d;" horiz-adv-x="247" 
d="M130 606q60 0 67 67h99q0 -79 -50.5 -124t-122.5 -45q-78 0 -118.5 42.5t-40.5 126.5h99q2 -67 67 -67zM208 471v-471h-173v448z" />
    <glyph glyph-name="Iogonek" unicode="&#x12e;" horiz-adv-x="281" 
d="M151 0h-100v612h179v-612h4q-101 -70 -101 -119q0 -14 10.5 -23.5t25.5 -9.5q30 0 50 11l22 -71q-15 -8 -45 -17t-50 -9q-52 0 -84.5 27t-32.5 74q0 32 31 69t91 68z" />
    <glyph glyph-name="iogonek" unicode="&#x12f;" horiz-adv-x="247" 
d="M23 596q0 27 34 64t61 37t66.5 -31t39.5 -57t-35 -63t-60 -37q-27 0 -66.5 31t-39.5 56zM146 0h-109v448l173 23v-471h19q-101 -70 -101 -119q0 -14 10.5 -23.5t25.5 -9.5q30 0 50 11l22 -71q-15 -8 -45 -17t-50 -9q-52 0 -84.5 27t-32.5 74q0 32 31 69t91 68z" />
    <glyph glyph-name="Idotaccent" unicode="&#x130;" horiz-adv-x="281" 
d="M42 747q0 27 34 64t61 37q26 0 65.5 -31t39.5 -57t-35 -63t-60 -37q-27 0 -66 30.5t-39 56.5zM230 612v-612h-179v612h179z" />
    <glyph glyph-name="dotlessi" unicode="&#x131;" horiz-adv-x="247" 
d="M210 471v-471h-173v448z" />
    <glyph glyph-name="IJ" unicode="&#x132;" horiz-adv-x="655" 
d="M230 612v-612h-179v612h179zM593 612v-425q0 -101 -60.5 -153.5t-156.5 -52.5q-75 0 -115 20l24 136q45 -17 73 -17q26 0 41 13t15 48v431h179z" />
    <glyph glyph-name="ij" unicode="&#x133;" horiz-adv-x="497" 
d="M275 596q0 27 34 64t61 37q26 0 65.5 -31t39.5 -57t-35 -63t-60 -37q-27 0 -66 31t-39 56zM23 596q0 27 34 64t61 37t66.5 -31t39.5 -57t-35 -63t-60 -37q-27 0 -66.5 31t-39.5 56zM37 448l173 23v-471h-173v448zM282 -25v473l173 21v-474q0 -99 -55.5 -164t-170.5 -65
l-27 134q37 1 58.5 21t21.5 54z" />
    <glyph glyph-name="Jcircumflex" unicode="&#x134;" horiz-adv-x="395" 
d="M313 650l-72 64l-72 -64h-121l113 171h160l115 -171h-123zM333 612v-425q0 -101 -60.5 -153.5t-156.5 -52.5q-75 0 -115 20l24 136q45 -17 73 -17q26 0 41 13t15 48v431h179z" />
    <glyph glyph-name="jcircumflex" unicode="&#x135;" horiz-adv-x="247" 
d="M194 500l-72 64l-72 -64h-121l113 171h160l115 -171h-123zM37 -25v473l173 21v-474q0 -99 -55.5 -164t-170.5 -65l-27 134q37 1 58.5 21t21.5 54z" />
    <glyph glyph-name="Kcommaaccent" unicode="&#x136;" horiz-adv-x="625" 
d="M631 0h-213l-188 319l189 293h199l-211 -276zM230 612v-612h-179v612h179zM231 -104q0 21 24.5 44t47.5 23t50 -27.5t27 -44.5q0 -52 -76 -161l-77 30q4 10 14.5 29.5t18.5 35t8 21.5t-18.5 23.5t-18.5 26.5z" />
    <glyph glyph-name="kcommaaccent" unicode="&#x137;" horiz-adv-x="536" 
d="M37 0v678l173 16v-694h-173zM531 0h-191l-129 243l-1 1l138 206h177l-142 -197zM195 -104q0 21 24.5 44t47.5 23t50 -27.5t27 -44.5q0 -52 -76 -161l-77 30q4 10 14.5 29.5t18.5 35t8 21.5t-18.5 23.5t-18.5 26.5z" />
    <glyph glyph-name="Lacute" unicode="&#x139;" horiz-adv-x="483" 
d="M25 650l129 171l172 -30l-159 -141h-142zM51 0v612h179v-480l240 3l-17 -135h-402z" />
    <glyph glyph-name="lacute" unicode="&#x13a;" horiz-adv-x="267" 
d="M5 702l129 171l172 -30l-159 -141h-142zM266 128l11 -128q-53 -19 -114 -19q-139 0 -139 139v554l174 20v-535q0 -36 36 -36q12 0 32 5z" />
    <glyph glyph-name="Lcommaaccent" unicode="&#x13b;" horiz-adv-x="483" 
d="M51 0v612h179v-480l240 3l-17 -135h-402zM172 -104q0 21 24.5 44t47.5 23t50 -27.5t27 -44.5q0 -52 -76 -161l-77 30q4 10 14.5 29.5t18.5 35t8 21.5t-18.5 23.5t-18.5 26.5z" />
    <glyph glyph-name="lcommaaccent" unicode="&#x13c;" horiz-adv-x="267" 
d="M266 128l11 -128q-53 -19 -114 -19q-139 0 -139 139v554l174 20v-535q0 -36 36 -36q12 0 32 5zM89 -104q0 21 24.5 44t47.5 23t50 -27.5t27 -44.5q0 -52 -76 -161l-77 30q4 10 14.5 29.5t18.5 35t8 21.5t-18.5 23.5t-18.5 26.5z" />
    <glyph glyph-name="Lcaron" unicode="&#x13d;" horiz-adv-x="504" 
d="M51 0v612h179v-480l240 3l-17 -135h-402z" />
    <glyph glyph-name="lcaron" unicode="&#x13e;" horiz-adv-x="433" 
d="M285 641q-1 20 29.5 37t56.5 17q29 0 45.5 -37t16.5 -76q0 -62 -101 -202l-67 33q34 67 34 136q0 20 -7 49t-7 43zM266 128l11 -128q-53 -19 -114 -19q-139 0 -139 139v554l174 20v-535q0 -36 36 -36q12 0 32 5z" />
    <glyph glyph-name="Ldot" unicode="&#x13f;" horiz-adv-x="506" 
d="M269 328q0 27 34 64t61 37q26 0 65.5 -31t39.5 -57t-35 -63t-60 -37q-27 0 -66 30.5t-39 56.5zM51 0v612h179v-480l240 3l-17 -135h-402z" />
    <glyph glyph-name="ldot" unicode="&#x140;" horiz-adv-x="452" 
d="M266 128l11 -128q-53 -19 -114 -19q-139 0 -139 139v554l174 20v-535q0 -36 36 -36q12 0 32 5zM245 291q0 27 34 64t61 37q26 0 65.5 -31t39.5 -57t-35 -63t-60 -37q-27 0 -66 30.5t-39 56.5z" />
    <glyph glyph-name="Lslash" unicode="&#x141;" horiz-adv-x="496" 
d="M81 0v224l-59 -24v119l59 24v269h179v-198l125 50v-119l-125 -50v-163l240 3l-17 -135h-402z" />
    <glyph glyph-name="lslash" unicode="&#x142;" horiz-adv-x="313" 
d="M178 -19q-139 0 -139 139v126l-47 -19v119l47 19v309l174 20v-260l79 32v-119l-79 -32v-156q0 -36 36 -36q12 0 32 5l11 -128q-53 -19 -114 -19z" />
    <glyph glyph-name="Nacute" unicode="&#x143;" horiz-adv-x="654" 
d="M209 650l129 171l172 -30l-159 -141h-142zM441 0l-230 337v-337h-160v612h178l213 -325v325h161v-612h-162z" />
    <glyph glyph-name="nacute" unicode="&#x144;" 
d="M151 500l129 171l172 -30l-159 -141h-142zM255 344q-30 0 -45 -13v-331h-173v446l123 23l29 -42q80 42 151 42q67 0 108 -34t41 -106v-329h-173v277q0 30 -11 45.5t-22 18.5t-28 3z" />
    <glyph glyph-name="Ncommaaccent" unicode="&#x145;" horiz-adv-x="654" 
d="M441 0l-230 337v-337h-160v612h178l213 -325v325h161v-612h-162zM256 -104q0 21 24.5 44t47.5 23t50 -27.5t27 -44.5q0 -52 -76 -161l-77 30q4 10 14.5 29.5t18.5 35t8 21.5t-18.5 23.5t-18.5 26.5z" />
    <glyph glyph-name="ncommaaccent" unicode="&#x146;" 
d="M255 344q-30 0 -45 -13v-331h-173v446l123 23l29 -42q80 42 151 42q67 0 108 -34t41 -106v-329h-173v277q0 30 -11 45.5t-22 18.5t-28 3zM188 -104q0 21 24.5 44t47.5 23t50 -27.5t27 -44.5q0 -52 -76 -161l-77 30q4 10 14.5 29.5t18.5 35t8 21.5t-18.5 23.5t-18.5 26.5z
" />
    <glyph glyph-name="Ncaron" unicode="&#x147;" horiz-adv-x="654" 
d="M414 656h-160l-115 171h123l72 -63l72 63h121zM441 0l-230 337v-337h-160v612h178l213 -325v325h161v-612h-162z" />
    <glyph glyph-name="ncaron" unicode="&#x148;" 
d="M356 506h-160l-115 171h123l72 -63l72 63h121zM255 344q-30 0 -45 -13v-331h-173v446l123 23l29 -42q80 42 151 42q67 0 108 -34t41 -106v-329h-173v277q0 30 -11 45.5t-22 18.5t-28 3z" />
    <glyph glyph-name="Eng" unicode="&#x14a;" horiz-adv-x="654" 
d="M396 -188q-75 0 -115 17l22 138q56 -23 92 -23q39 0 39 63v3l-223 327v-337h-160v612h178l213 -325v325h161v-612h-2q-9 -85 -64 -136.5t-141 -51.5z" />
    <glyph glyph-name="eng" unicode="&#x14b;" 
d="M263 -234l-27 134q80 2 80 71v306q0 30 -11 45.5t-22 18.5t-28 3q-30 0 -45 -13v-331h-173v446l123 23l29 -42q80 42 151 42q67 0 108 -34t41 -106v-334q0 -99 -55.5 -164t-170.5 -65z" />
    <glyph glyph-name="Omacron" unicode="&#x14c;" horiz-adv-x="688" 
d="M489 785v-15l-29 -101h-271v15l29 101h271zM662 318q0 -155 -94 -246t-249 -91q-135 0 -214.5 84t-79.5 229q0 155 95 246t250 91q135 0 213.5 -84t78.5 -229zM478 290q0 212 -152 212q-56 0 -86 -41.5t-30 -138.5q0 -212 153 -212q56 0 85.5 40.5t29.5 139.5z" />
    <glyph glyph-name="omacron" unicode="&#x14d;" horiz-adv-x="529" 
d="M420 635v-15l-29 -101h-271v15l29 101h271zM335 213q0 83 -21.5 110.5t-59.5 27.5q-14 0 -22.5 -3t-18 -14t-14 -35t-4.5 -62q0 -83 21 -110.5t59 -27.5q14 0 23 3t18.5 13.5t14 35t4.5 62.5zM511 234q0 -116 -72 -184.5t-190 -66.5q-106 -2 -168 55.5t-62 177.5
q0 115 71 184t187 69q234 0 234 -235z" />
    <glyph glyph-name="Obreve" unicode="&#x14e;" horiz-adv-x="688" 
d="M354 755q70 0 80 78h98q0 -83 -55 -133t-128 -50q-79 0 -126.5 48.5t-47.5 134.5h98q10 -78 81 -78zM662 318q0 -155 -94 -246t-249 -91q-135 0 -214.5 84t-79.5 229q0 155 95 246t250 91q135 0 213.5 -84t78.5 -229zM478 290q0 212 -152 212q-56 0 -86 -41.5t-30 -138.5
q0 -212 153 -212q56 0 85.5 40.5t29.5 139.5z" />
    <glyph glyph-name="obreve" unicode="&#x14f;" horiz-adv-x="529" 
d="M301 605q70 0 80 78h98q0 -83 -55 -133t-128 -50q-79 0 -126.5 48.5t-47.5 134.5h98q10 -78 81 -78zM335 213q0 83 -21.5 110.5t-59.5 27.5q-14 0 -22.5 -3t-18 -14t-14 -35t-4.5 -62q0 -83 21 -110.5t59 -27.5q14 0 23 3t18.5 13.5t14 35t4.5 62.5zM511 234
q0 -116 -72 -184.5t-190 -66.5q-106 -2 -168 55.5t-62 177.5q0 115 71 184t187 69q234 0 234 -235z" />
    <glyph glyph-name="Ohungarumlaut" unicode="&#x150;" horiz-adv-x="688" 
d="M343 650l107 171l172 -30l-138 -141h-141zM153 650l107 171l171 -30l-137 -141h-141zM662 318q0 -155 -94 -246t-249 -91q-135 0 -214.5 84t-79.5 229q0 155 95 246t250 91q135 0 213.5 -84t78.5 -229zM478 290q0 212 -152 212q-56 0 -86 -41.5t-30 -138.5
q0 -212 153 -212q56 0 85.5 40.5t29.5 139.5z" />
    <glyph glyph-name="ohungarumlaut" unicode="&#x151;" horiz-adv-x="529" 
d="M296 500l107 171l172 -30l-138 -141h-141zM106 500l107 171l171 -30l-137 -141h-141zM335 213q0 83 -21.5 110.5t-59.5 27.5q-14 0 -22.5 -3t-18 -14t-14 -35t-4.5 -62q0 -83 21 -110.5t59 -27.5q14 0 23 3t18.5 13.5t14 35t4.5 62.5zM511 234q0 -116 -72 -184.5
t-190 -66.5q-106 -2 -168 55.5t-62 177.5q0 115 71 184t187 69q234 0 234 -235z" />
    <glyph glyph-name="OE" unicode="&#x152;" horiz-adv-x="870" 
d="M365 110q42 0 70 25v323q-36 44 -108 44q-117 0 -117 -180q0 -116 40.5 -164t114.5 -48zM837 0h-375q-67 -19 -144 -19q-134 0 -213.5 84t-79.5 229q0 155 95 246t251 91q59 0 124 -19h341l-15 -132l-207 2v-110h195l-10 -124l-185 2v-118l238 3z" />
    <glyph glyph-name="oe" unicode="&#x153;" horiz-adv-x="796" 
d="M558 363q-22 0 -32 -17t-13 -60h102q0 38 -15.5 57.5t-41.5 19.5zM335 213q0 83 -21.5 110.5t-59.5 27.5q-14 0 -22.5 -3t-18 -14t-14 -35t-4.5 -62q0 -83 21 -110.5t59 -27.5q14 0 23 3t18.5 13.5t14 35t4.5 62.5zM772 26q-86 -45 -204 -45q-92 0 -153 49
q-67 -48 -166 -47q-106 -2 -168 55.5t-62 177.5q0 115 71 184t187 69q99 0 158 -44q61 44 148 44q47 0 81.5 -12.5t54 -31.5t31 -48t15 -55.5t3.5 -60.5q0 -37 -6 -71h-247q15 -80 92 -80q61 0 140 27z" />
    <glyph glyph-name="Racute" unicode="&#x154;" horiz-adv-x="577" 
d="M133 650l129 171l172 -30l-159 -141h-142zM275 338q32 0 54.5 17.5t22.5 48.5q0 93 -122 93v-157q24 -2 45 -2zM248 227q-11 0 -18 1v-228h-179v612h254q107 0 168 -45.5t61 -129.5q0 -98 -101 -160l146 -277h-192l-105 229q-22 -2 -34 -2z" />
    <glyph glyph-name="racute" unicode="&#x155;" horiz-adv-x="345" 
d="M84 500l129 171l172 -30l-159 -141h-142zM286 324q-39 2 -76 -9v-315h-173v446l123 23l36 -51q61 51 108 51q10 0 52 -6l-20 -144q-18 5 -50 5z" />
    <glyph glyph-name="Rcommaaccent" unicode="&#x156;" horiz-adv-x="577" 
d="M275 338q32 0 54.5 17.5t22.5 48.5q0 93 -122 93v-157q24 -2 45 -2zM248 227q-11 0 -18 1v-228h-179v612h254q107 0 168 -45.5t61 -129.5q0 -98 -101 -160l146 -277h-192l-105 229q-22 -2 -34 -2zM213 -104q0 21 24.5 44t47.5 23t50 -27.5t27 -44.5q0 -52 -76 -161
l-77 30q4 10 14.5 29.5t18.5 35t8 21.5t-18.5 23.5t-18.5 26.5z" />
    <glyph glyph-name="rcommaaccent" unicode="&#x157;" horiz-adv-x="345" 
d="M286 324q-39 2 -76 -9v-315h-173v446l123 23l36 -51q61 51 108 51q10 0 52 -6l-20 -144q-18 5 -50 5zM59 -104q0 21 24.5 44t47.5 23t50 -27.5t27 -44.5q0 -52 -76 -161l-77 30q4 10 14.5 29.5t18.5 35t8 21.5t-18.5 23.5t-18.5 26.5z" />
    <glyph glyph-name="Rcaron" unicode="&#x158;" horiz-adv-x="577" 
d="M357 656h-160l-115 171h123l72 -63l72 63h121zM275 338q32 0 54.5 17.5t22.5 48.5q0 93 -122 93v-157q24 -2 45 -2zM248 227q-11 0 -18 1v-228h-179v612h254q107 0 168 -45.5t61 -129.5q0 -98 -101 -160l146 -277h-192l-105 229q-22 -2 -34 -2z" />
    <glyph glyph-name="rcaron" unicode="&#x159;" horiz-adv-x="345" 
d="M281 506h-160l-115 171h123l72 -63l72 63h121zM286 324q-39 2 -76 -9v-315h-173v446l123 23l36 -51q61 51 108 51q10 0 52 -6l-20 -144q-18 5 -50 5z" />
    <glyph glyph-name="Sacute" unicode="&#x15a;" horiz-adv-x="499" 
d="M149 650l129 171l172 -30l-159 -141h-142zM219 231q-102 35 -143.5 80.5t-41.5 115.5q0 93 66 148.5t183 55.5q107 0 182 -30l-35 -148q-95 40 -180 40q-22 0 -34 -12.5t-12 -29.5q0 -13 4 -21.5t24 -20.5t59 -24q100 -31 144 -71.5t44 -113.5q0 -100 -70.5 -159.5
t-179.5 -59.5q-120 0 -201 33l25 159q116 -51 198 -51q24 0 37 13t13 34t-17 34t-65 28z" />
    <glyph glyph-name="sacute" unicode="&#x15b;" horiz-adv-x="421" 
d="M105 500l129 171l172 -30l-159 -141h-142zM202 -19q-101 0 -188 32l33 130q100 -39 162 -39q15 0 23.5 3.5t9.5 6.5v4q0 1 0.5 5t0.5 7t-2 8t-6 8.5t-11.5 8t-18.5 7.5l-75 22q-57 18 -81 48.5t-24 80.5q0 67 57.5 111.5t147.5 44.5q86 0 164 -21l-25 -129
q-80 32 -147 32q-37 0 -37 -21q0 -7 1.5 -11.5t11 -11t27.5 -11.5l79 -22q103 -29 103 -133q0 -43 -21.5 -76t-54.5 -50t-66 -25.5t-63 -8.5z" />
    <glyph glyph-name="Scircumflex" unicode="&#x15c;" horiz-adv-x="499" 
d="M333 650l-72 64l-72 -64h-121l113 171h160l115 -171h-123zM219 231q-102 35 -143.5 80.5t-41.5 115.5q0 93 66 148.5t183 55.5q107 0 182 -30l-35 -148q-95 40 -180 40q-22 0 -34 -12.5t-12 -29.5q0 -13 4 -21.5t24 -20.5t59 -24q100 -31 144 -71.5t44 -113.5
q0 -100 -70.5 -159.5t-179.5 -59.5q-120 0 -201 33l25 159q116 -51 198 -51q24 0 37 13t13 34t-17 34t-65 28z" />
    <glyph glyph-name="scircumflex" unicode="&#x15d;" horiz-adv-x="421" 
d="M299 500l-72 64l-72 -64h-121l113 171h160l115 -171h-123zM202 -19q-101 0 -188 32l33 130q100 -39 162 -39q15 0 23.5 3.5t9.5 6.5v4q0 1 0.5 5t0.5 7t-2 8t-6 8.5t-11.5 8t-18.5 7.5l-75 22q-57 18 -81 48.5t-24 80.5q0 67 57.5 111.5t147.5 44.5q86 0 164 -21
l-25 -129q-80 32 -147 32q-37 0 -37 -21q0 -7 1.5 -11.5t11 -11t27.5 -11.5l79 -22q103 -29 103 -133q0 -43 -21.5 -76t-54.5 -50t-66 -25.5t-63 -8.5z" />
    <glyph glyph-name="Scedilla" unicode="&#x15e;" horiz-adv-x="499" 
d="M162 -241l-18 65q96 9 96 34q0 23 -72 37l-3 5l41 81q-107 4 -178 33l25 159q116 -51 198 -51q24 0 37 13t13 34t-17 34t-65 28q-102 35 -143.5 80.5t-41.5 115.5q0 93 66 148.5t183 55.5q107 0 182 -30l-35 -148q-95 40 -180 40q-22 0 -34 -12.5t-12 -29.5
q0 -13 4 -21.5t24 -20.5t59 -24q100 -31 144 -71.5t44 -113.5q0 -90 -57 -147t-150 -69l-14 -34q89 -27 89 -78q0 -41 -46 -75t-139 -38z" />
    <glyph glyph-name="scedilla" unicode="&#x15f;" horiz-adv-x="421" 
d="M126 -241l-18 65q96 9 96 34q0 23 -72 37l-3 5l41 82q-77 3 -156 31l33 130q100 -39 162 -39q15 0 23.5 3.5t9.5 6.5v4q0 1 0.5 5t0.5 7t-2 8t-6 8.5t-11.5 8t-18.5 7.5l-75 22q-57 18 -81 48.5t-24 80.5q0 67 57.5 111.5t147.5 44.5q86 0 164 -21l-25 -129
q-80 32 -147 32q-37 0 -37 -21q0 -7 1.5 -11.5t11 -11t27.5 -11.5l79 -22q103 -29 103 -133q0 -71 -51.5 -110t-119.5 -48l-14 -33q89 -27 89 -78q0 -41 -46 -75t-139 -38z" />
    <glyph glyph-name="Scaron" unicode="&#x160;" horiz-adv-x="499" 
d="M343 656h-160l-115 171h123l72 -63l72 63h121zM219 231q-102 35 -143.5 80.5t-41.5 115.5q0 93 66 148.5t183 55.5q107 0 182 -30l-35 -148q-95 40 -180 40q-22 0 -34 -12.5t-12 -29.5q0 -13 4 -21.5t24 -20.5t59 -24q100 -31 144 -71.5t44 -113.5q0 -100 -70.5 -159.5
t-179.5 -59.5q-120 0 -201 33l25 159q116 -51 198 -51q24 0 37 13t13 34t-17 34t-65 28z" />
    <glyph glyph-name="scaron" unicode="&#x161;" horiz-adv-x="421" 
d="M313 506h-160l-115 171h123l72 -63l72 63h121zM202 -19q-101 0 -188 32l33 130q100 -39 162 -39q15 0 23.5 3.5t9.5 6.5v4q0 1 0.5 5t0.5 7t-2 8t-6 8.5t-11.5 8t-18.5 7.5l-75 22q-57 18 -81 48.5t-24 80.5q0 67 57.5 111.5t147.5 44.5q86 0 164 -21l-25 -129
q-80 32 -147 32q-37 0 -37 -21q0 -7 1.5 -11.5t11 -11t27.5 -11.5l79 -22q103 -29 103 -133q0 -43 -21.5 -76t-54.5 -50t-66 -25.5t-63 -8.5z" />
    <glyph glyph-name="Tcommaaccent" unicode="&#x162;" horiz-adv-x="522" 
d="M512 477l-159 3v-480h-178v480l-184 -3l20 135h520zM178 -104q0 21 24.5 44t47.5 23t50 -27.5t27 -44.5q0 -52 -76 -161l-77 30q4 10 14.5 29.5t18.5 35t8 21.5t-18.5 23.5t-18.5 26.5z" />
    <glyph glyph-name="tcommaaccent" unicode="&#x163;" horiz-adv-x="370" 
d="M354 15q-75 -34 -145 -34q-66 0 -111 36t-44 112l3 206h-59v105l60 10l1 85l172 22l-1 -107h131l-10 -115h-123l-2 -137q-1 -43 12.5 -62.5t46.5 -19.5q14 0 24.5 1.5t15 2.5t10.5 3.5t9 3.5zM106 -104q0 21 24.5 44t47.5 23t50 -27.5t27 -44.5q0 -52 -76 -161l-77 30
q4 10 14.5 29.5t18.5 35t8 21.5t-18.5 23.5t-18.5 26.5z" />
    <glyph glyph-name="Tcaron" unicode="&#x164;" horiz-adv-x="522" 
d="M341 656h-160l-115 171h123l72 -63l72 63h121zM512 477l-159 3v-480h-178v480l-184 -3l20 135h520z" />
    <glyph glyph-name="tcaron" unicode="&#x165;" horiz-adv-x="370" 
d="M296 725q-1 20 29.5 37t56.5 17q29 0 45.5 -37t16.5 -76q0 -62 -101 -202l-67 33q34 67 34 136q0 20 -7 49t-7 43zM354 15q-75 -34 -145 -34q-66 0 -111 36t-44 112l3 206h-59v105l60 10l1 85l172 22l-1 -107h131l-10 -115h-123l-2 -137q-1 -43 12.5 -62.5t46.5 -19.5
q14 0 24.5 1.5t15 2.5t10.5 3.5t9 3.5z" />
    <glyph glyph-name="Tbar" unicode="&#x166;" horiz-adv-x="522" 
d="M464 249h-111v-249h-178v249h-161v15l25 100h136v116l-184 -3l20 135h520l-19 -135l-159 3v-116h135v-15z" />
    <glyph glyph-name="tbar" unicode="&#x167;" horiz-adv-x="370" 
d="M354 15q-75 -34 -145 -34q-66 0 -111 36t-44 112l1 64h-56v15l30 74h27l1 53h-59v105l60 10l1 85l172 22l-1 -107h131l-10 -115h-123l-1 -53h131v-15l-30 -74h-102q-1 -39 12.5 -58t46.5 -19q14 0 24.5 1.5t15 2.5t10.5 3.5t9 3.5z" />
    <glyph glyph-name="Utilde" unicode="&#x168;" horiz-adv-x="634" 
d="M460 818l57 -59q-9 -32 -54 -72t-76 -40q-19 0 -70.5 16.5t-63.5 16.5q-17 0 -37 -16.5t-28 -27.5l-52 70q-2 0 20 24t52 48.5t49 24.5q23 0 70 -17t60 -17q30 0 73 49zM45 212v400h179v-369q0 -110 108 -110q35 0 59 20t24 55v404h174v-386q0 -114 -77 -180.5
t-205 -64.5q-262 4 -262 231z" />
    <glyph glyph-name="utilde" unicode="&#x169;" 
d="M423 668l57 -59q-9 -32 -54 -72t-76 -40q-19 0 -70.5 16.5t-63.5 16.5q-17 0 -37 -16.5t-28 -27.5l-52 70q-2 0 20 24t52 48.5t49 24.5q23 0 70 -17t60 -17q30 0 73 49zM373 -19l-35 41q-82 -41 -150 -41q-67 0 -108 34t-41 106v325l173 23v-296q0 -23 5.5 -37.5t16 -20
t18.5 -7t20 -1.5q32 0 46 12v327l173 23v-465z" />
    <glyph glyph-name="Umacron" unicode="&#x16a;" horiz-adv-x="634" 
d="M480 785v-15l-29 -101h-271v15l29 101h271zM45 212v400h179v-369q0 -110 108 -110q35 0 59 20t24 55v404h174v-386q0 -114 -77 -180.5t-205 -64.5q-262 4 -262 231z" />
    <glyph glyph-name="umacron" unicode="&#x16b;" 
d="M440 635v-15l-29 -101h-271v15l29 101h271zM373 -19l-35 41q-82 -41 -150 -41q-67 0 -108 34t-41 106v325l173 23v-296q0 -23 5.5 -37.5t16 -20t18.5 -7t20 -1.5q32 0 46 12v327l173 23v-465z" />
    <glyph glyph-name="Ubreve" unicode="&#x16c;" horiz-adv-x="634" 
d="M327 755q70 0 80 78h98q0 -83 -55 -133t-128 -50q-79 0 -126.5 48.5t-47.5 134.5h98q10 -78 81 -78zM45 212v400h179v-369q0 -110 108 -110q35 0 59 20t24 55v404h174v-386q0 -114 -77 -180.5t-205 -64.5q-262 4 -262 231z" />
    <glyph glyph-name="ubreve" unicode="&#x16d;" 
d="M318 605q70 0 80 78h98q0 -83 -55 -133t-128 -50q-79 0 -126.5 48.5t-47.5 134.5h98q10 -78 81 -78zM373 -19l-35 41q-82 -41 -150 -41q-67 0 -108 34t-41 106v325l173 23v-296q0 -23 5.5 -37.5t16 -20t18.5 -7t20 -1.5q32 0 46 12v327l173 23v-465z" />
    <glyph glyph-name="Uring" unicode="&#x16e;" horiz-adv-x="634" 
d="M435 754q0 -43 -33 -75t-78 -32q-48 0 -79 29t-31 78q0 44 33 75.5t78 31.5q48 0 79 -28t31 -79zM283 754q0 -17 11.5 -29t29.5 -12t30 12t12 29q0 19 -12 31t-30 12t-29.5 -12t-11.5 -31zM45 212v400h179v-369q0 -110 108 -110q35 0 59 20t24 55v404h174v-386
q0 -114 -77 -180.5t-205 -64.5q-262 4 -262 231z" />
    <glyph glyph-name="uring" unicode="&#x16f;" 
d="M396 604q0 -43 -33 -75t-78 -32q-48 0 -79 29t-31 78q0 44 33 75.5t78 31.5q48 0 79 -28t31 -79zM244 604q0 -17 11.5 -29t29.5 -12t30 12t12 29q0 19 -12 31t-30 12t-29.5 -12t-11.5 -31zM373 -19l-35 41q-82 -41 -150 -41q-67 0 -108 34t-41 106v325l173 23v-296
q0 -23 5.5 -37.5t16 -20t18.5 -7t20 -1.5q32 0 46 12v327l173 23v-465z" />
    <glyph glyph-name="Uhungarumlaut" unicode="&#x170;" horiz-adv-x="634" 
d="M292 650l107 171l172 -30l-138 -141h-141zM102 650l107 171l171 -30l-137 -141h-141zM45 212v400h179v-369q0 -110 108 -110q35 0 59 20t24 55v404h174v-386q0 -114 -77 -180.5t-205 -64.5q-262 4 -262 231z" />
    <glyph glyph-name="uhungarumlaut" unicode="&#x171;" 
d="M299 500l107 171l172 -30l-138 -141h-141zM109 500l107 171l171 -30l-137 -141h-141zM373 -19l-35 41q-82 -41 -150 -41q-67 0 -108 34t-41 106v325l173 23v-296q0 -23 5.5 -37.5t16 -20t18.5 -7t20 -1.5q32 0 46 12v327l173 23v-465z" />
    <glyph glyph-name="Uogonek" unicode="&#x172;" horiz-adv-x="634" 
d="M390 -218q-52 0 -84.5 27t-32.5 74q0 50 61 99q-9 -1 -27 -1q-262 4 -262 231v400h179v-369q0 -110 108 -110q35 0 59 20t24 55v404h174v-386q0 -141 -113 -206h2q-101 -70 -101 -119q0 -14 10.5 -23.5t25.5 -9.5q30 0 50 11l22 -71q-15 -8 -45 -17t-50 -9z" />
    <glyph glyph-name="uogonek" unicode="&#x173;" 
d="M404 -238q-52 0 -84.5 27t-32.5 74q0 61 90 119l-4 -1l-35 41q-82 -41 -150 -41q-67 0 -108 34t-41 106v325l173 23v-296q0 -23 5.5 -37.5t16 -20t18.5 -7t20 -1.5q32 0 46 12v327l173 23v-465l-21 -4h22q-101 -70 -101 -119q0 -14 10.5 -23.5t25.5 -9.5q30 0 50 11
l22 -71q-15 -8 -45 -17t-50 -9z" />
    <glyph glyph-name="Wcircumflex" unicode="&#x174;" horiz-adv-x="909" 
d="M536 650l-72 64l-72 -64h-121l113 171h160l115 -171h-123zM557 0l-106 335l-112 -335h-203l-125 612h181l74 -385l120 385h160l117 -381l70 381h166l-134 -612h-208z" />
    <glyph glyph-name="wcircumflex" unicode="&#x175;" horiz-adv-x="745" 
d="M462 500l-72 64l-72 -64h-121l113 171h160l115 -171h-123zM443 0l-71 228l-85 -228h-177l-112 440l174 22l55 -284l73 262l154 22l82 -280l46 268h165l-124 -450h-180z" />
    <glyph glyph-name="Ycircumflex" unicode="&#x176;" horiz-adv-x="566" 
d="M373 650l-72 64l-72 -64h-121l113 171h160l115 -171h-123zM370 209v-209h-178v209l-212 403h195l117 -227l118 227h174z" />
    <glyph glyph-name="ycircumflex" unicode="&#x177;" horiz-adv-x="495" 
d="M321 500l-72 64l-72 -64h-121l113 171h160l115 -171h-123zM106 -241q-51 0 -84 11l-5 130q80 -10 122.5 10t66.5 77q0 2 2 6.5t2 6.5h-80l-141 441l181 21l85 -308q38 150 67 296h171q-3 -12 -23 -88.5t-38.5 -146t-41.5 -149t-38 -118.5q-31 -94 -95 -141.5t-151 -47.5z
" />
    <glyph glyph-name="Ydieresis" unicode="&#x178;" horiz-adv-x="566" 
d="M313 725q0 24 30.5 57.5t54.5 33.5q25 0 60 -28t35 -54q0 -23 -31 -55.5t-53 -32.5q-26 0 -61 27.5t-35 51.5zM113 725q0 24 30.5 57.5t53.5 33.5q26 0 61 -28t35 -54q0 -23 -31.5 -55.5t-53.5 -32.5q-25 0 -60 27.5t-35 51.5zM370 209v-209h-178v209l-212 403h195
l117 -227l118 227h174z" />
    <glyph glyph-name="Zacute" unicode="&#x179;" horiz-adv-x="525" 
d="M148 650l129 171l172 -30l-159 -141h-142zM497 0h-470v115l255 361l-261 -5l25 141h445v-113l-253 -365l284 5z" />
    <glyph glyph-name="zacute" unicode="&#x17a;" horiz-adv-x="437" 
d="M97 500l129 171l172 -30l-159 -141h-142zM413 0h-392v111l179 214l-185 1l11 124h381v-122l-179 -208l196 -1z" />
    <glyph glyph-name="Zdotaccent" unicode="&#x17b;" horiz-adv-x="525" 
d="M176 747q0 27 34 64t61 37q26 0 65.5 -31t39.5 -57t-35 -63t-60 -37q-27 0 -66 30.5t-39 56.5zM497 0h-470v115l255 361l-261 -5l25 141h445v-113l-253 -365l284 5z" />
    <glyph glyph-name="zdotaccent" unicode="&#x17c;" horiz-adv-x="437" 
d="M138 597q0 27 34 64t61 37q26 0 65.5 -31t39.5 -57t-35 -63t-60 -37q-27 0 -66 30.5t-39 56.5zM413 0h-392v111l179 214l-185 1l11 124h381v-122l-179 -208l196 -1z" />
    <glyph glyph-name="Zcaron" unicode="&#x17d;" horiz-adv-x="525" 
d="M354 656h-160l-115 171h123l72 -63l72 63h121zM497 0h-470v115l255 361l-261 -5l25 141h445v-113l-253 -365l284 5z" />
    <glyph glyph-name="zcaron" unicode="&#x17e;" horiz-adv-x="437" 
d="M314 506h-160l-115 171h123l72 -63l72 63h121zM413 0h-392v111l179 214l-185 1l11 124h381v-122l-179 -208l196 -1z" />
    <glyph glyph-name="Acaron" unicode="&#x1cd;" horiz-adv-x="602" 
d="M389 656h-160l-115 171h123l72 -63l72 63h121zM359 243l-64 219l-66 -219h130zM429 0l-36 123h-200l-37 -123h-166l200 612h237l185 -612h-183z" />
    <glyph glyph-name="acaron" unicode="&#x1ce;" horiz-adv-x="474" 
d="M334 506h-160l-115 171h123l72 -63l72 63h121zM317 -19l-29 46q-71 -46 -127 -46q-63 0 -104 38.5t-41 101.5q0 73 58.5 114t190.5 49q-1 30 -15.5 40t-45.5 10q-59 0 -141 -30l-29 120q129 45 221 45q180 0 180 -161v-304zM221 96q17 0 44 10v76q-25 3 -39 3
q-33 0 -45.5 -10.5t-12.5 -32.5q0 -18 13 -32t40 -14z" />
    <glyph glyph-name="AEacute" unicode="&#x1fc;" horiz-adv-x="797" 
d="M354 650l129 171l172 -30l-159 -141h-142zM346 468l-100 -225h114v226zM360 0v123h-167l-55 -123h-176l310 612h489l-15 -132l-207 2v-110h195l-10 -124l-185 2v-118l238 3l-15 -135h-402z" />
    <glyph glyph-name="aeacute" unicode="&#x1fd;" horiz-adv-x="723" 
d="M274 500l129 171l172 -30l-159 -141h-142zM488 363q-24 0 -35.5 -16.5t-14.5 -60.5h103q0 38 -14.5 57.5t-38.5 19.5zM700 26q-70 -45 -192 -45q-106 0 -166 60q-86 -60 -174 -60q-68 0 -110 38t-42 102q0 74 59 115t193 49q-2 26 -14 37t-47 11q-69 0 -142 -30l-31 121
q129 45 221 45q81 0 125 -35q56 35 129 35q187 0 187 -203q0 -25 -6 -76h-248q17 -80 95 -80q80 0 137 27zM221 96q27 0 74 18q-1 5 -5 15l-22 7v45q-24 4 -42 4q-33 0 -45.5 -10.5t-12.5 -32.5q0 -18 13 -32t40 -14z" />
    <glyph glyph-name="Oslashacute" unicode="&#x1fe;" horiz-adv-x="688" 
d="M218 650l129 171l172 -30l-159 -141h-142zM210 322q0 -80 21 -128l145 301q-21 7 -50 7q-56 0 -86 -41.5t-30 -138.5zM363 110q56 0 85.5 40.5t29.5 139.5q0 80 -21 128l-145 -301q22 -7 51 -7zM319 -19q-36 0 -69 6l-34 -70h-119l53 110q-125 81 -125 267q0 155 95 246
t250 91q37 0 68 -6l33 68h119l-52 -108q124 -80 124 -267q0 -155 -94 -246t-249 -91z" />
    <glyph glyph-name="oslashacute" unicode="&#x1ff;" horiz-adv-x="520" 
d="M146 500l129 171l172 -30l-159 -141h-142zM195 237q0 -31 3 -53l86 163q-13 4 -30 4q-14 0 -22.5 -3t-18 -14t-14 -35t-4.5 -62zM275 99q14 0 23 3t18.5 13.5t14 35t4.5 62.5q0 36 -4 56l-87 -165q13 -5 31 -5zM249 -17q-40 0 -66 5l-31 -59h-89l46 88q-90 56 -90 199
q0 115 71 184t187 69q37 0 68 -6l32 60h88l-46 -87q92 -55 92 -202q0 -116 -72 -184.5t-190 -66.5z" />
    <glyph glyph-name="Scommaaccent" unicode="&#x218;" horiz-adv-x="499" 
d="M219 231q-102 35 -143.5 80.5t-41.5 115.5q0 93 66 148.5t183 55.5q107 0 182 -30l-35 -148q-95 40 -180 40q-22 0 -34 -12.5t-12 -29.5q0 -13 4 -21.5t24 -20.5t59 -24q100 -31 144 -71.5t44 -113.5q0 -100 -70.5 -159.5t-179.5 -59.5q-120 0 -201 33l25 159
q116 -51 198 -51q24 0 37 13t13 34t-17 34t-65 28zM188 -104q0 21 24.5 44t47.5 23t50 -27.5t27 -44.5q0 -52 -76 -161l-77 30q4 10 14.5 29.5t18.5 35t8 21.5t-18.5 23.5t-18.5 26.5z" />
    <glyph glyph-name="scommaaccent" unicode="&#x219;" horiz-adv-x="421" 
d="M202 -19q-101 0 -188 32l33 130q100 -39 162 -39q15 0 23.5 3.5t9.5 6.5v4q0 1 0.5 5t0.5 7t-2 8t-6 8.5t-11.5 8t-18.5 7.5l-75 22q-57 18 -81 48.5t-24 80.5q0 67 57.5 111.5t147.5 44.5q86 0 164 -21l-25 -129q-80 32 -147 32q-37 0 -37 -21q0 -7 1.5 -11.5t11 -11
t27.5 -11.5l79 -22q103 -29 103 -133q0 -43 -21.5 -76t-54.5 -50t-66 -25.5t-63 -8.5zM144 -104q0 21 24.5 44t47.5 23t50 -27.5t27 -44.5q0 -52 -76 -161l-77 30q4 10 14.5 29.5t18.5 35t8 21.5t-18.5 23.5t-18.5 26.5z" />
    <glyph glyph-name="uni021A" unicode="&#x21a;" horiz-adv-x="522" 
d="M235 0h-60v480l-184 -3l20 135h520l-19 -135l-159 3v-480h-54l-21 -50q89 -27 89 -78q0 -41 -46 -75t-139 -38l-18 65q96 9 96 34q0 23 -72 37l-3 5z" />
    <glyph glyph-name="uni021B" unicode="&#x21b;" horiz-adv-x="370" 
d="M302 -128q0 -41 -46 -75t-139 -38l-18 65q96 9 96 34q0 23 -72 37l-3 5l43 86q-110 24 -109 143l3 206h-59v105l60 10l1 85l172 22l-1 -107h131l-10 -115h-123l-2 -137q-1 -43 12.5 -62.5t46.5 -19.5q14 0 24.5 1.5t15 2.5t10.5 3.5t9 3.5l10 -112q-67 -30 -128 -33
l-13 -32q89 -27 89 -78z" />
    <glyph glyph-name="circumflex" unicode="&#x2c6;" horiz-adv-x="493" 
d="M317 500l-72 64l-72 -64h-121l113 171h160l115 -171h-123z" />
    <glyph glyph-name="caron" unicode="&#x2c7;" horiz-adv-x="493" 
d="M327 506h-160l-115 171h123l72 -63l72 63h121z" />
    <glyph glyph-name="breve" unicode="&#x2d8;" horiz-adv-x="563" 
d="M282 605q70 0 80 78h98q0 -83 -55 -133t-128 -50q-79 0 -126.5 48.5t-47.5 134.5h98q10 -78 81 -78z" />
    <glyph glyph-name="dotaccent" unicode="&#x2d9;" horiz-adv-x="391" 
d="M95 597q0 27 34 64t61 37q26 0 65.5 -31t39.5 -57t-35 -63t-60 -37q-27 0 -66 30.5t-39 56.5z" />
    <glyph glyph-name="ring" unicode="&#x2da;" horiz-adv-x="391" 
d="M306 604q0 -43 -33 -75t-78 -32q-48 0 -79 29t-31 78q0 44 33 75.5t78 31.5q48 0 79 -28t31 -79zM154 604q0 -17 11.5 -29t29.5 -12t30 12t12 29q0 19 -12 31t-30 12t-29.5 -12t-11.5 -31z" />
    <glyph glyph-name="ogonek" unicode="&#x2db;" horiz-adv-x="381" 
d="M83 -137q0 32 31 69t91 68h83q-101 -70 -101 -119q0 -14 10.5 -23.5t25.5 -9.5q30 0 50 11l22 -71q-15 -8 -45 -17t-50 -9q-52 0 -84.5 27t-32.5 74z" />
    <glyph glyph-name="tilde" unicode="&#x2dc;" 
d="M396 668l57 -59q-9 -32 -54 -72t-76 -40q-19 0 -70.5 16.5t-63.5 16.5q-17 0 -37 -16.5t-28 -27.5l-52 70q-2 0 20 24t52 48.5t49 24.5q23 0 70 -17t60 -17q30 0 73 49z" />
    <glyph glyph-name="hungarumlaut" unicode="&#x2dd;" horiz-adv-x="538" 
d="M223 500l107 171l172 -30l-138 -141h-141zM33 500l107 171l171 -30l-137 -141h-141z" />
    <glyph glyph-name="commaaccent" unicode="&#x326;" horiz-adv-x="252" 
d="M53 -104q0 21 24.5 44t47.5 23t50 -27.5t27 -44.5q0 -52 -76 -161l-77 30q4 10 14.5 29.5t18.5 35t8 21.5t-18.5 23.5t-18.5 26.5z" />
    <glyph glyph-name="Wgrave" unicode="&#x1e80;" horiz-adv-x="909" 
d="M558 650h-142l-159 141l172 30zM557 0l-106 335l-112 -335h-203l-125 612h181l74 -385l120 385h160l117 -381l70 381h166l-134 -612h-208z" />
    <glyph glyph-name="wgrave" unicode="&#x1e81;" horiz-adv-x="745" 
d="M489 500h-142l-159 141l172 30zM443 0l-71 228l-85 -228h-177l-112 440l174 22l55 -284l73 262l154 22l82 -280l46 268h165l-124 -450h-180z" />
    <glyph glyph-name="Wacute" unicode="&#x1e82;" horiz-adv-x="909" 
d="M367 650l129 171l172 -30l-159 -141h-142zM557 0l-106 335l-112 -335h-203l-125 612h181l74 -385l120 385h160l117 -381l70 381h166l-134 -612h-208z" />
    <glyph glyph-name="wacute" unicode="&#x1e83;" horiz-adv-x="745" 
d="M264 500l129 171l172 -30l-159 -141h-142zM443 0l-71 228l-85 -228h-177l-112 440l174 22l55 -284l73 262l154 22l82 -280l46 268h165l-124 -450h-180z" />
    <glyph glyph-name="Wdieresis" unicode="&#x1e84;" horiz-adv-x="909" 
d="M477 725q0 24 30.5 57.5t54.5 33.5q25 0 60 -28t35 -54q0 -23 -31 -55.5t-53 -32.5q-26 0 -61 27.5t-35 51.5zM277 725q0 24 30.5 57.5t53.5 33.5q26 0 61 -28t35 -54q0 -23 -31.5 -55.5t-53.5 -32.5q-25 0 -60 27.5t-35 51.5zM557 0l-106 335l-112 -335h-203l-125 612
h181l74 -385l120 385h160l117 -381l70 381h166l-134 -612h-208z" />
    <glyph glyph-name="wdieresis" unicode="&#x1e85;" horiz-adv-x="745" 
d="M401 575q0 24 30.5 57.5t54.5 33.5q25 0 60 -28t35 -54q0 -23 -31 -55.5t-53 -32.5q-26 0 -61 27.5t-35 51.5zM201 575q0 24 30.5 57.5t53.5 33.5q26 0 61 -28t35 -54q0 -23 -31.5 -55.5t-53.5 -32.5q-25 0 -60 27.5t-35 51.5zM443 0l-71 228l-85 -228h-177l-112 440
l174 22l55 -284l73 262l154 22l82 -280l46 268h165l-124 -450h-180z" />
    <glyph glyph-name="Ygrave" unicode="&#x1ef2;" horiz-adv-x="566" 
d="M386 650h-142l-159 141l172 30zM370 209v-209h-178v209l-212 403h195l117 -227l118 227h174z" />
    <glyph glyph-name="ygrave" unicode="&#x1ef3;" horiz-adv-x="495" 
d="M384 500h-142l-159 141l172 30zM106 -241q-51 0 -84 11l-5 130q80 -10 122.5 10t66.5 77q0 2 2 6.5t2 6.5h-80l-141 441l181 21l85 -308q38 150 67 296h171q-3 -12 -23 -88.5t-38.5 -146t-41.5 -149t-38 -118.5q-31 -94 -95 -141.5t-151 -47.5z" />
    <glyph glyph-name="endash" unicode="&#x2013;" horiz-adv-x="459" 
d="M425 299v-28l-27 -80h-364v28l38 80h353z" />
    <glyph glyph-name="emdash" unicode="&#x2014;" horiz-adv-x="683" 
d="M649 299v-28l-28 -80h-587v28l38 80h577z" />
    <glyph glyph-name="quoteleft" unicode="&#x2018;" horiz-adv-x="246" 
d="M213 478q0 -29 -26.5 -53.5t-55.5 -24.5q-33 0 -66.5 32.5t-33.5 76.5q0 66 98 206l86 -32q-5 -9 -14 -25.5t-12.5 -23.5t-10 -19.5t-9 -19t-5.5 -16t-4 -17.5t-1 -16t27 -30.5t27 -37.5z" />
    <glyph glyph-name="quoteright" unicode="&#x2019;" horiz-adv-x="246" 
d="M32 616q0 29 27 53.5t56 24.5q33 0 66.5 -32.5t33.5 -76.5q0 -66 -98 -206l-86 32q5 9 14 25.5t12.5 23.5t10 19.5t9 19t5.5 16t4 17.5t1 16t-27.5 30t-27.5 38z" />
    <glyph glyph-name="quotesinglbase" unicode="&#x201a;" horiz-adv-x="246" 
d="M32 84q0 29 27 53.5t56 24.5q33 0 66.5 -32.5t33.5 -76.5q0 -66 -98 -206l-86 32q5 9 14 25.5t12.5 23.5t10 19.5t9 19t5.5 16t4 17.5t1 16t-27.5 30t-27.5 38z" />
    <glyph glyph-name="quotedblleft" unicode="&#x201c;" horiz-adv-x="452" 
d="M419 478q0 -29 -26.5 -53.5t-55.5 -24.5q-33 0 -66.5 32.5t-33.5 76.5q0 66 98 206l86 -32q-5 -9 -14 -25.5t-12.5 -23.5t-10 -19.5t-9 -19t-5.5 -16t-4 -17.5t-1 -16t27 -30.5t27 -37.5zM213 478q0 -29 -26.5 -53.5t-55.5 -24.5q-33 0 -66.5 32.5t-33.5 76.5
q0 66 98 206l86 -32q-5 -9 -14 -25.5t-12.5 -23.5t-10 -19.5t-9 -19t-5.5 -16t-4 -17.5t-1 -16t27 -30.5t27 -37.5z" />
    <glyph glyph-name="quotedblright" unicode="&#x201d;" horiz-adv-x="457" 
d="M244 616q0 29 27 53.5t56 24.5q33 0 66.5 -32.5t33.5 -76.5q0 -66 -98 -206l-86 32q5 9 14 25.5t12.5 23.5t10 19.5t9 19t5.5 16t4 17.5t1 16t-27.5 30t-27.5 38zM32 616q0 29 27 53.5t56 24.5q33 0 66.5 -32.5t33.5 -76.5q0 -66 -98 -206l-86 32q5 9 14 25.5t12.5 23.5
t10 19.5t9 19t5.5 16t4 17.5t1 16t-27.5 30t-27.5 38z" />
    <glyph glyph-name="quotedblbase" unicode="&#x201e;" horiz-adv-x="455" 
d="M241 84q0 29 27 53.5t56 24.5q33 0 66.5 -32.5t33.5 -76.5q0 -66 -98 -206l-86 32q5 9 14 25.5t12.5 23.5t10 19.5t9 19t5.5 16t4 17.5t1 16t-27.5 30t-27.5 38zM32 84q0 29 27 53.5t56 24.5q33 0 66.5 -32.5t33.5 -76.5q0 -66 -98 -206l-86 32q5 9 14 25.5t12.5 23.5
t10 19.5t9 19t5.5 16t4 17.5t1 16t-27.5 30t-27.5 38z" />
    <glyph glyph-name="bullet" unicode="&#x2022;" horiz-adv-x="508" 
d="M96 252q0 44 55 104t94 60q41 0 103.5 -48.5t62.5 -92.5q0 -45 -55 -104t-93 -59q-43 0 -105 48t-62 92z" />
    <glyph glyph-name="ellipsis" unicode="&#x2026;" horiz-adv-x="712" 
d="M19 38q0 26 36.5 61.5t62.5 35.5t67.5 -29.5t41.5 -54.5t-37 -60.5t-61 -35.5q-28 0 -69 29.5t-41 53.5zM485 38q0 26 36.5 61.5t62.5 35.5t67.5 -29.5t41.5 -54.5t-37.5 -60.5t-61.5 -35.5q-27 0 -68 29.5t-41 53.5zM253 38q0 26 36.5 61.5t62.5 35.5t67 -29.5t41 -54.5
t-37 -60.5t-61 -35.5q-27 0 -68 29.5t-41 53.5z" />
    <glyph glyph-name="guilsinglleft" unicode="&#x2039;" horiz-adv-x="332" 
d="M192 2l-180 230l180 230l102 -45l-100 -185l100 -185z" />
    <glyph glyph-name="guilsinglright" unicode="&#x203a;" horiz-adv-x="332" 
d="M140 462l180 -230l-180 -230l-102 43l100 187l-100 182z" />
    <glyph glyph-name="fraction" unicode="&#x2044;" horiz-adv-x="307" 
d="M-60 2l347 653l80 -48l-348 -653z" />
    <glyph glyph-name="Euro" unicode="&#x20ac;" horiz-adv-x="555" 
d="M531 22q-29 -17 -85 -29t-118 -12q-202 0 -245 200h-81l24 85l46 17v12v26h-63l21 85l40 19h14q47 206 283 206q85 0 166 -24l-29 -143q-84 26 -156 26q-40 0 -59.5 -14.5t-26.5 -50.5h194l-28 -104h-173v-5q0 -22 1 -32h166l-28 -103h-112q32 -54 97 -54q79 0 135 23z
" />
    <glyph glyph-name="minus" unicode="&#x2212;" horiz-adv-x="555" 
d="M463 320v-109h-372v109h372z" />
    <glyph glyph-name="idotaccent" horiz-adv-x="247" 
d="M23 596q0 27 34 64t61 37t66.5 -31t39.5 -57t-35 -63t-60 -37q-27 0 -66.5 31t-39.5 56zM37 448l173 23v-471h-173v448z" />
    <glyph glyph-name="caron.alt" horiz-adv-x="307" 
d="M90 641q-1 20 29.5 37t56.5 17q29 0 45.5 -37t16.5 -76q0 -62 -101 -202l-67 33q34 67 34 136q0 20 -7 49t-7 43z" />
    <glyph glyph-name="caron.alt.sc" horiz-adv-x="354" 
d="M114 501q-2 20 29 37t56 17q29 0 45.5 -37t16.5 -76q0 -61 -100 -202l-68 33q35 66 35 136q0 20 -7 49t-7 43z" />
    <glyph glyph-name="caron.alt.case" horiz-adv-x="354" 
d="M114 557q-2 20 29 37t56 17q29 0 45.5 -37t16.5 -76q0 -61 -100 -202l-68 33q35 66 35 136q0 20 -7 49t-7 43z" />
    <glyph glyph-name="commaaccent.case" horiz-adv-x="252" 
d="M53 -104q0 21 24.5 44t47.5 23t50 -27.5t27 -44.5q0 -52 -76 -161l-77 30q4 10 14.5 29.5t18.5 35t8 21.5t-18.5 23.5t-18.5 26.5z" />
    <glyph glyph-name="acute.case" horiz-adv-x="361" 
d="M30 650l129 171l172 -30l-159 -141h-142z" />
    <glyph glyph-name="grave.case" horiz-adv-x="361" 
d="M331 650h-142l-159 141l172 30z" />
    <glyph glyph-name="hungarumlaut.case" horiz-adv-x="538" 
d="M223 650l107 171l172 -30l-138 -141h-141zM33 650l107 171l171 -30l-137 -141h-141z" />
    <glyph glyph-name="circumflex.case" horiz-adv-x="493" 
d="M317 650l-72 64l-72 -64h-121l113 171h160l115 -171h-123z" />
    <glyph glyph-name="caron.case" horiz-adv-x="493" 
d="M327 656h-160l-115 171h123l72 -63l72 63h121z" />
    <glyph glyph-name="breve.case" horiz-adv-x="563" 
d="M282 755q70 0 80 78h98q0 -83 -55 -133t-128 -50q-79 0 -126.5 48.5t-47.5 134.5h98q10 -78 81 -78z" />
    <glyph glyph-name="tilde.case" 
d="M396 818l57 -59q-9 -32 -54 -72t-76 -40q-19 0 -70.5 16.5t-63.5 16.5q-17 0 -37 -16.5t-28 -27.5l-52 70q-2 0 20 24t52 48.5t49 24.5q23 0 70 -17t60 -17q30 0 73 49z" />
    <glyph glyph-name="macron.case" horiz-adv-x="460" 
d="M380 785v-15l-29 -101h-271v15l29 101h271z" />
    <glyph glyph-name="dieresis.case" horiz-adv-x="564" 
d="M292 725q0 24 30.5 57.5t54.5 33.5q25 0 60 -28t35 -54q0 -23 -31 -55.5t-53 -32.5q-26 0 -61 27.5t-35 51.5zM92 725q0 24 30.5 57.5t53.5 33.5q26 0 61 -28t35 -54q0 -23 -31.5 -55.5t-53.5 -32.5q-25 0 -60 27.5t-35 51.5z" />
    <glyph glyph-name="dotaccent.case" horiz-adv-x="391" 
d="M95 747q0 27 34 64t61 37q26 0 65.5 -31t39.5 -57t-35 -63t-60 -37q-27 0 -66 30.5t-39 56.5z" />
    <glyph glyph-name="ring.case" horiz-adv-x="391" 
d="M306 754q0 -43 -33 -75t-78 -32q-48 0 -79 29t-31 78q0 44 33 75.5t78 31.5q48 0 79 -28t31 -79zM154 754q0 -17 11.5 -29t29.5 -12t30 12t12 29q0 19 -12 31t-30 12t-29.5 -12t-11.5 -31z" />
    <glyph glyph-name="cedilla.case" horiz-adv-x="311" 
d="M75 -100l50 100h64l-21 -50q89 -27 89 -78q0 -41 -46 -75t-139 -38l-18 65q96 9 96 34q0 23 -72 37z" />
    <glyph glyph-name="ogonek.case" horiz-adv-x="381" 
d="M83 -137q0 32 31 69t91 68h83q-101 -70 -101 -119q0 -14 10.5 -23.5t25.5 -9.5q30 0 50 11l22 -71q-15 -8 -45 -17t-50 -9q-52 0 -84.5 27t-32.5 74z" />
    <glyph glyph-name="zero.fit" horiz-adv-x="591" 
d="M565 318q0 -162 -76 -249.5t-216 -87.5q-134 0 -191 77.5t-57 235.5q0 162 76 249.5t216 87.5q133 0 190.5 -78t57.5 -235zM380 306q0 129 -20.5 170t-75.5 41q-26 0 -41 -16.5t-22.5 -62.5t-7.5 -132q0 -89 9 -134t27.5 -60.5t55.5 -15.5q40 0 57.5 43t17.5 167z" />
    <glyph glyph-name="one.fit" horiz-adv-x="392" 
d="M341 0h-169v472l-127 -55l-37 119q102 32 234 76h99v-612z" />
    <glyph glyph-name="two.fit" horiz-adv-x="509" 
d="M472 0h-441v102q42 38 56.5 51.5t53.5 51t57 58.5t42.5 51.5t34.5 54t10 42.5q0 43 -25 64.5t-62 21.5q-71 0 -140 -33l-37 119q122 48 225 48t165.5 -47.5t62.5 -128.5q0 -82 -57.5 -159t-173.5 -172l252 14z" />
    <glyph glyph-name="three.fit" horiz-adv-x="484" 
d="M200 -19q-90 0 -183 30l31 128q95 -31 148 -31q58 0 82 14.5t24 52.5q0 29 -24.5 52.5t-73.5 23.5q-5 0 -81 -4l-14 108q81 0 127.5 23t46.5 60q0 24 -18 44t-57 20q-79 0 -139 -31l-33 114q39 17 104 31.5t118 14.5q80 0 142 -37.5t62 -110.5q0 -48 -31.5 -86t-81.5 -61
q130 -29 130 -148q0 -88 -80 -147.5t-199 -59.5z" />
    <glyph glyph-name="four.fit" horiz-adv-x="541" 
d="M302 209v208l-147 -208h147zM511 85h-50v-85h-159v85h-298v125l311 414h146v-415h89z" />
    <glyph glyph-name="five.fit" horiz-adv-x="517" 
d="M190 -19q-80 0 -168 24l30 127q33 -13 83 -23t83 -10q50 0 76.5 18.5t26.5 50.5q0 95 -155 95q-19 0 -57 -2.5t-46 -2.5l24 354h388l-18 -135h-237l-7 -87q26 2 42 2q100 0 170.5 -51.5t70.5 -142.5q0 -92 -83.5 -154.5t-222.5 -62.5z" />
    <glyph glyph-name="six.fit" horiz-adv-x="540" 
d="M527 213q0 -100 -74 -166t-194 -66q-117 0 -182 76t-65 207q0 178 90 272.5t238 94.5q68 0 155 -21l-27 -137q-24 11 -69.5 19.5t-75.5 8.5q-52 0 -81 -24.5t-40 -94.5q57 18 108 18q102 0 159.5 -47.5t57.5 -139.5zM287 94q33 0 47 20.5t14 63.5q0 47 -19.5 77.5
t-61.5 30.5q-39 0 -73 -12v-15q0 -165 93 -165z" />
    <glyph glyph-name="seven.fit" horiz-adv-x="511" 
d="M267 -13l-180 47q65 155 216 442l-301 -5l27 142h462v-110q-40 -81 -116 -255.5t-108 -260.5z" />
    <glyph glyph-name="eight.fit" horiz-adv-x="513" 
d="M239 -19q-106 0 -170 42.5t-64 113.5q0 52 30 89.5t90 70.5q-95 64 -95 152q0 83 69 133t187 50q83 0 140.5 -39t57.5 -101q0 -45 -25 -79t-78 -66q78 -43 102.5 -80t24.5 -90q0 -75 -76 -135.5t-193 -60.5zM183 476q0 -25 21.5 -42t84.5 -44q51 44 51 83
q0 22 -26.5 37.5t-58.5 15.5q-42 0 -57 -11.5t-15 -38.5zM262 91q89 0 89 63q0 25 -24.5 41.5t-95.5 45.5q-2 1 -7.5 3.5t-8.5 3.5q-28 -19 -40.5 -37.5t-12.5 -48.5q0 -26 28.5 -48.5t71.5 -22.5z" />
    <glyph glyph-name="nine.fit" horiz-adv-x="537" 
d="M276 327q42 0 69 12v24q0 77 -27 117.5t-62 40.5q-32 0 -46.5 -19t-14.5 -67q0 -47 19.5 -77.5t61.5 -30.5zM181 -19q-74 0 -156 24l20 125q78 -26 154 -26q100 0 132 127q-45 -18 -89 -18q-118 0 -172 54.5t-54 145.5q0 95 66 157.5t191 62.5q251 0 251 -284
q0 -88 -28 -159t-76 -116t-109 -69t-130 -24z" />
    <glyph glyph-name="zero.osf" horiz-adv-x="550" 
d="M526 272q0 -122 -72.5 -206.5t-194.5 -84.5q-115 0 -175.5 76.5t-60.5 194.5q0 123 72.5 208.5t195.5 85.5q116 0 175.5 -76.5t59.5 -197.5zM375 254q0 67 -27.5 107.5t-78.5 40.5t-72.5 -31.5t-21.5 -98.5t28 -106t80 -39q50 0 71 30t21 97z" />
    <glyph glyph-name="one.osf" horiz-adv-x="363" 
d="M325 0h-175v376q-63 -25 -122 -42l-31 127q115 31 222 68h106v-529z" />
    <glyph glyph-name="two.osf" horiz-adv-x="497" 
d="M448 0h-418v117q126 87 173.5 136.5t47.5 86.5q0 35 -19 51.5t-63 16.5q-47 0 -106 -29l-34 125q97 40 194 40q104 0 162 -44.5t58 -118.5q0 -138 -191 -256l220 11z" />
    <glyph glyph-name="three.osf" horiz-adv-x="444" 
d="M421 118q0 -101 -106.5 -167t-289.5 -54l-22 127q52 -3 84 -4t66.5 2t53.5 11t31 23.5t12 39.5q0 35 -33 53.5t-79 18.5q-12 0 -28 1t-25 0l-18 109q60 -1 100 6t55.5 21t20 24.5t4.5 24.5q0 25 -22.5 43.5t-70.5 18.5q-61 0 -123 -21l-23 118q3 4 31 11.5t70.5 14.5
t75.5 7q66 0 112 -15t68 -40t30.5 -48t8.5 -48q0 -35 -26 -78t-74 -69q56 -16 86.5 -50.5t30.5 -79.5z" />
    <glyph glyph-name="four.osf" horiz-adv-x="539" 
d="M264 119v208l-129 -208h129zM429 -94l-165 -20v114h-292v97l284 431h173v-409h91l-19 -119h-72v-94z" />
    <glyph glyph-name="five.osf" horiz-adv-x="468" 
d="M54 -103l-42 132q88 -1 145.5 5t83.5 19.5t34.5 27t8.5 33.5q0 84 -205 84q-16 0 -36 -3l17 334h385l-24 -134h-214l-6 -72q127 -1 190.5 -50t63.5 -139q0 -96 -101.5 -164t-299.5 -73z" />
    <glyph glyph-name="six.osf" horiz-adv-x="531" 
d="M252 -19q-123 0 -182.5 70t-59.5 190q0 73 31.5 141t83 119.5t114.5 89t130 56.5l71 -117q-79 -30 -132.5 -64.5t-84.5 -87.5q50 15 89 15q102 0 152 -52t50 -141q0 -91 -72 -155t-190 -64zM269 97q14 0 28 4.5t28 23t14 48.5q0 105 -96 105q-32 0 -55 -12q-3 -22 -3 -48
q0 -56 23.5 -88.5t60.5 -32.5z" />
    <glyph glyph-name="seven.osf" horiz-adv-x="479" 
d="M245 -103l-181 43q152 308 232 451h-291l20 138h449v-132q-30 -55 -72 -146t-93.5 -209.5t-63.5 -144.5z" />
    <glyph glyph-name="eight.osf" horiz-adv-x="510" 
d="M237 -19q-111 0 -172.5 42.5t-61.5 122.5q0 89 118 165q-48 28 -72.5 61.5t-24.5 81.5q0 77 68.5 127t178.5 50q95 0 155.5 -42.5t60.5 -109.5q0 -45 -28 -78.5t-88 -67.5q77 -42 106 -76t29 -89q0 -78 -74.5 -132.5t-194.5 -54.5zM189 467q0 -23 19.5 -41.5t63.5 -42.5
q53 41 53 80q0 27 -21.5 40t-52.5 13q-26 0 -44 -12.5t-18 -36.5zM265 103q71 0 71 49q0 28 -20.5 50t-82.5 53q-29 -24 -41.5 -41t-12.5 -42q0 -35 24.5 -52t61.5 -17z" />
    <glyph glyph-name="nine.osf" horiz-adv-x="531" 
d="M142 -103l-68 119q174 58 226 131q-41 -13 -75 -13q-92 0 -149 47.5t-57 143.5q0 95 71.5 158t181.5 63q102 0 173 -64t71 -185q0 -125 -99 -237.5t-275 -162.5zM284 252q26 0 54 11q1 10 1 34q0 44 -8.5 73.5t-23.5 41t-27 15t-28 3.5q-56 0 -56 -81q0 -46 25 -71.5
t63 -25.5z" />
    <glyph glyph-name="zero.tosf" horiz-adv-x="514" 
d="M509 272q0 -122 -72.5 -206.5t-194.5 -84.5q-115 0 -175.5 76.5t-60.5 194.5q0 123 72.5 208.5t195.5 85.5q116 0 175.5 -76.5t59.5 -197.5zM358 254q0 67 -27.5 107.5t-78.5 40.5t-72.5 -31.5t-21.5 -98.5t28 -106t80 -39q50 0 71 30t21 97z" />
    <glyph glyph-name="one.tosf" horiz-adv-x="514" 
d="M396 0h-175v376q-63 -25 -122 -42l-31 127q115 31 222 68h106v-529z" />
    <glyph glyph-name="two.tosf" horiz-adv-x="514" 
d="M458 0h-418v117q126 87 173.5 136.5t47.5 86.5q0 35 -19 51.5t-63 16.5q-47 0 -106 -29l-34 125q97 40 194 40q104 0 162 -44.5t58 -118.5q0 -138 -191 -256l220 11z" />
    <glyph glyph-name="three.tosf" horiz-adv-x="514" 
d="M463 118q0 -101 -106.5 -167t-289.5 -54l-22 127q52 -3 84 -4t66.5 2t53.5 11t31 23.5t12 39.5q0 35 -33 53.5t-79 18.5q-12 0 -28 1t-25 0l-18 109q60 -1 100 6t55.5 21t20 24.5t4.5 24.5q0 25 -22.5 43.5t-70.5 18.5q-61 0 -123 -21l-23 118q3 4 31 11.5t70.5 14.5
t75.5 7q66 0 112 -15t68 -40t30.5 -48t8.5 -48q0 -35 -26 -78t-74 -69q56 -16 86.5 -50.5t30.5 -79.5z" />
    <glyph glyph-name="four.tosf" horiz-adv-x="514" 
d="M284 119v208l-129 -208h129zM449 -94l-165 -20v114h-292v97l284 431h173v-409h91l-19 -119h-72v-94z" />
    <glyph glyph-name="five.tosf" horiz-adv-x="514" 
d="M74 -103l-42 132q88 -1 145.5 5t83.5 19.5t34.5 27t8.5 33.5q0 84 -205 84q-17 0 -36 -3l17 334h385l-24 -134h-214l-6 -72q127 -1 190.5 -50t63.5 -139q0 -96 -101.5 -164t-299.5 -73z" />
    <glyph glyph-name="six.tosf" horiz-adv-x="514" 
d="M248 -19q-123 0 -182.5 70t-59.5 190q0 73 31.5 141t83 119.5t114.5 89t130 56.5l71 -117q-79 -30 -132.5 -64.5t-84.5 -87.5q50 15 89 15q102 0 152 -52t50 -141q0 -91 -72 -155t-190 -64zM265 97q14 0 28 4.5t28 23t14 48.5q0 105 -96 105q-32 0 -55 -12q-3 -22 -3 -48
q0 -56 23.5 -88.5t60.5 -32.5z" />
    <glyph glyph-name="seven.tosf" horiz-adv-x="514" 
d="M257 -103l-181 43q152 308 232 451h-291l20 138h449v-132q-30 -55 -72 -146t-93.5 -209.5t-63.5 -144.5z" />
    <glyph glyph-name="eight.tosf" horiz-adv-x="514" 
d="M238 -19q-111 0 -172.5 42.5t-61.5 122.5q0 89 118 165q-48 28 -72.5 61.5t-24.5 81.5q0 77 68.5 127t178.5 50q95 0 155.5 -42.5t60.5 -109.5q0 -45 -28 -78.5t-88 -67.5q77 -42 106 -76t29 -89q0 -78 -74.5 -132.5t-194.5 -54.5zM190 467q0 -23 19.5 -41.5t63.5 -42.5
q53 41 53 80q0 27 -21.5 40t-52.5 13q-26 0 -44 -12.5t-18 -36.5zM266 103q71 0 71 49q0 28 -20.5 50t-82.5 53q-29 -24 -41.5 -41t-12.5 -42q0 -35 24.5 -52t61.5 -17z" />
    <glyph glyph-name="nine.tosf" horiz-adv-x="514" 
d="M129 -103l-68 119q174 58 226 131q-41 -13 -75 -13q-92 0 -149 47.5t-57 143.5q0 95 71.5 158t181.5 63q102 0 173 -64t71 -185q0 -125 -99 -237.5t-275 -162.5zM271 252q27 0 54 11q1 10 1 34q0 44 -8.5 73.5t-23.5 41t-27 15t-28 3.5q-56 0 -56 -81q0 -46 25 -71.5
t63 -25.5z" />
    <glyph glyph-name="A.sc" horiz-adv-x="547" 
d="M320 209l-51 180l-54 -180h105zM379 0l-23 82h-179l-24 -82h-167l180 529h228l168 -529h-183z" />
    <glyph glyph-name="Agrave.sc" horiz-adv-x="547" 
d="M387 574h-142l-159 141l172 30zM320 209l-51 180l-54 -180h105zM379 0l-23 82h-179l-24 -82h-167l180 529h228l168 -529h-183z" />
    <glyph glyph-name="Aacute.sc" horiz-adv-x="547" 
d="M171 574l129 171l172 -30l-159 -141h-142zM320 209l-51 180l-54 -180h105zM379 0l-23 82h-179l-24 -82h-167l180 529h228l168 -529h-183z" />
    <glyph glyph-name="Acircumflex.sc" horiz-adv-x="547" 
d="M354 574l-72 63l-72 -63h-121l113 171h160l115 -171h-123zM320 209l-51 180l-54 -180h105zM379 0l-23 82h-179l-24 -82h-167l180 529h228l168 -529h-183z" />
    <glyph glyph-name="Atilde.sc" horiz-adv-x="547" 
d="M421 741l57 -59q-9 -32 -54 -72t-76 -40q-19 0 -70.5 16.5t-63.5 16.5q-17 0 -38 -17t-27 -27l-52 70q-1 1 20.5 25t51.5 48t49 24q23 0 70 -17t60 -17q28 0 73 49zM320 209l-51 180l-54 -180h105zM379 0l-23 82h-179l-24 -82h-167l180 529h228l168 -529h-183z" />
    <glyph glyph-name="Adieresis.sc" horiz-adv-x="547" 
d="M299 649q0 24 30.5 57.5t54.5 33.5q25 0 60 -28.5t35 -53.5q0 -23 -31 -56t-53 -33q-26 0 -61 27.5t-35 52.5zM99 649q0 24 30.5 57.5t53.5 33.5q25 0 60.5 -28.5t35.5 -53.5q0 -23 -31.5 -56t-53.5 -33q-25 0 -60 28t-35 52zM320 209l-51 180l-54 -180h105zM379 0
l-23 82h-179l-24 -82h-167l180 529h228l168 -529h-183z" />
    <glyph glyph-name="Aring.sc" horiz-adv-x="547" 
d="M393 677q0 -43 -33 -74.5t-78 -31.5q-47 0 -78.5 29t-31.5 77q0 44 33 76t78 32q48 0 79 -28.5t31 -79.5zM241 677q0 -17 11.5 -28.5t29.5 -11.5t30 11.5t12 28.5q0 19 -12 31t-30 12t-29.5 -12t-11.5 -31zM320 209l-51 180l-54 -180h105zM379 0l-23 82h-179l-24 -82
h-167l180 529h228l168 -529h-183z" />
    <glyph glyph-name="Amacron.sc" horiz-adv-x="547" 
d="M435 708v-15l-29 -100h-271v15l29 100h271zM320 209l-51 180l-54 -180h105zM379 0l-23 82h-179l-24 -82h-167l180 529h228l168 -529h-183z" />
    <glyph glyph-name="Abreve.sc" horiz-adv-x="547" 
d="M290 679q70 0 80 78h98q0 -83 -55 -133t-128 -50q-79 0 -126.5 48.5t-47.5 134.5h98q10 -78 81 -78zM320 209l-51 180l-54 -180h105zM379 0l-23 82h-179l-24 -82h-167l180 529h228l168 -529h-183z" />
    <glyph glyph-name="Aogonek.sc" horiz-adv-x="547" 
d="M320 209l-51 180l-54 -180h105zM478 0h-99l-23 82h-179l-24 -82h-167l180 529h228l168 -529h-1q-101 -70 -101 -119q0 -14 10.5 -23.5t25.5 -9.5q30 0 50 11l22 -71q-15 -8 -45 -17t-50 -9q-52 0 -84.5 27t-32.5 74q0 32 31 69t91 68z" />
    <glyph glyph-name="Acaron.sc" horiz-adv-x="547" 
d="M365 580h-160l-115 171h123l72 -64l72 64h121zM320 209l-51 180l-54 -180h105zM379 0l-23 82h-179l-24 -82h-167l180 529h228l168 -529h-183z" />
    <glyph glyph-name="B.sc" horiz-adv-x="546" 
d="M276 314q18 0 37.5 13t19.5 41q0 57 -102 63v-114q42 -3 45 -3zM276 99q75 0 75 55q0 71 -115 71h-5v-122q24 -4 45 -4zM58 0v529h218q107 0 166 -32.5t59 -94.5q0 -85 -99 -123q63 -11 93.5 -43.5t30.5 -79.5q0 -72 -69.5 -114t-196.5 -42h-202z" />
    <glyph glyph-name="C.sc" horiz-adv-x="533" 
d="M484 140l22 -122q-82 -37 -198 -37q-120 0 -198.5 69.5t-78.5 200.5q0 126 86.5 211.5t236.5 85.5q106 0 150 -23l-27 -135q-77 23 -135 23t-90 -30.5t-32 -107.5q0 -78 38 -118t100 -40q69 0 126 23z" />
    <glyph glyph-name="Ccedilla.sc" horiz-adv-x="533" 
d="M448 -128q0 -41 -46 -75t-139 -38l-18 65q96 9 96 34q0 23 -72 37l-3 5l41 81q-120 1 -198 70.5t-78 199.5q0 126 86.5 211.5t236.5 85.5q106 0 150 -23l-27 -135q-77 23 -135 23t-90 -30.5t-32 -107.5q0 -78 38 -118t100 -40q69 0 126 23l22 -122q-62 -28 -133 -34
l-14 -34q89 -27 89 -78z" />
    <glyph glyph-name="Cacute.sc" horiz-adv-x="533" 
d="M224 574l129 171l172 -30l-159 -141h-142zM484 140l22 -122q-82 -37 -198 -37q-120 0 -198.5 69.5t-78.5 200.5q0 126 86.5 211.5t236.5 85.5q106 0 150 -23l-27 -135q-77 23 -135 23t-90 -30.5t-32 -107.5q0 -78 38 -118t100 -40q69 0 126 23z" />
    <glyph glyph-name="Ccircumflex.sc" horiz-adv-x="533" 
d="M401 574l-72 63l-72 -63h-121l113 171h160l115 -171h-123zM484 140l22 -122q-82 -37 -198 -37q-120 0 -198.5 69.5t-78.5 200.5q0 126 86.5 211.5t236.5 85.5q106 0 150 -23l-27 -135q-77 23 -135 23t-90 -30.5t-32 -107.5q0 -78 38 -118t100 -40q69 0 126 23z" />
    <glyph glyph-name="Cdotaccent.sc" horiz-adv-x="533" 
d="M240 670q0 27 34 64t61 37q26 0 65.5 -31t39.5 -57t-35 -63t-60 -37q-27 0 -66 31t-39 56zM484 140l22 -122q-82 -37 -198 -37q-120 0 -198.5 69.5t-78.5 200.5q0 126 86.5 211.5t236.5 85.5q106 0 150 -23l-27 -135q-77 23 -135 23t-90 -30.5t-32 -107.5q0 -78 38 -118
t100 -40q69 0 126 23z" />
    <glyph glyph-name="Ccaron.sc" horiz-adv-x="533" 
d="M401 580h-160l-115 171h123l72 -64l72 64h121zM484 140l22 -122q-82 -37 -198 -37q-120 0 -198.5 69.5t-78.5 200.5q0 126 86.5 211.5t236.5 85.5q106 0 150 -23l-27 -135q-77 23 -135 23t-90 -30.5t-32 -107.5q0 -78 38 -118t100 -40q69 0 126 23z" />
    <glyph glyph-name="D.sc" horiz-adv-x="607" 
d="M58 529h255q124 0 193.5 -62.5t69.5 -184.5q0 -131 -92 -210t-250 -79q-55 0 -176 16v520zM235 417v-295h4.5h3.5t8.5 -0.5t18.5 -0.5q58 0 92.5 35t34.5 105q0 72 -34 114t-82 42h-46z" />
    <glyph glyph-name="Dcaron.sc" horiz-adv-x="607" 
d="M376 580h-160l-115 171h123l72 -64l72 64h121zM58 529h255q124 0 193.5 -62.5t69.5 -184.5q0 -131 -92 -210t-250 -79q-55 0 -176 16v520zM235 417v-295h4.5h3.5t8.5 -0.5t18.5 -0.5q58 0 92.5 35t34.5 105q0 72 -34 114t-82 42h-46z" />
    <glyph glyph-name="E.sc" horiz-adv-x="502" 
d="M203 416zM58 0v529h401l-15 -115h-1q-24 0 -119 1h-1h-1h-2h-1h-1h-1h-1h-1h-1h-1h-1h-1h-1h-1h-1h-1h-2h-1h-1h-1h-1h-1h-1h-1h-1h-1h-1h-1h-1h-1h-1l-2 1h-1h-1h-1h-1h-1h-1h-1h-1h-1h-1h-1h-1h-1h-1h-2h-1h-1h-1h-1h-1h-1h-1h-1h-1h-1h-1h-1h-1h-1h-1h-1h-1h-1h-1h-1
h-1h-1h-1h-1h-1h-1h-1h-2v-86h186l-11 -111h-175v-102l229 2l-15 -119h-400z" />
    <glyph glyph-name="Egrave.sc" horiz-adv-x="502" 
d="M439 574h-142l-159 141l172 30zM203 416zM58 0v529h401l-15 -115h-1q-24 0 -119 1h-1h-1h-2h-1h-1h-1h-1h-1h-1h-1h-1h-1h-1h-1h-1h-1h-2h-1h-1h-1h-1h-1h-1h-1h-1h-1h-1h-1h-1h-1h-1l-2 1h-1h-1h-1h-1h-1h-1h-1h-1h-1h-1h-1h-1h-1h-1h-2h-1h-1h-1h-1h-1h-1h-1h-1h-1h-1
h-1h-1h-1h-1h-1h-1h-1h-1h-1h-1h-1h-1h-1h-1h-1h-1h-1h-2v-86h186l-11 -111h-175v-102l229 2l-15 -119h-400z" />
    <glyph glyph-name="Eacute.sc" horiz-adv-x="502" 
d="M151 574l129 171l172 -30l-159 -141h-142zM203 416zM58 0v529h401l-15 -115h-1q-24 0 -119 1h-1h-1h-2h-1h-1h-1h-1h-1h-1h-1h-1h-1h-1h-1h-1h-1h-2h-1h-1h-1h-1h-1h-1h-1h-1h-1h-1h-1h-1h-1h-1l-2 1h-1h-1h-1h-1h-1h-1h-1h-1h-1h-1h-1h-1h-1h-1h-2h-1h-1h-1h-1h-1h-1h-1
h-1h-1h-1h-1h-1h-1h-1h-1h-1h-1h-1h-1h-1h-1h-1h-1h-1h-1h-1h-1h-2v-86h186l-11 -111h-175v-102l229 2l-15 -119h-400z" />
    <glyph glyph-name="Ecircumflex.sc" horiz-adv-x="502" 
d="M329 574l-72 63l-72 -63h-121l113 171h160l115 -171h-123zM203 416zM58 0v529h401l-15 -115h-1q-24 0 -119 1h-1h-1h-2h-1h-1h-1h-1h-1h-1h-1h-1h-1h-1h-1h-1h-1h-2h-1h-1h-1h-1h-1h-1h-1h-1h-1h-1h-1h-1h-1h-1l-2 1h-1h-1h-1h-1h-1h-1h-1h-1h-1h-1h-1h-1h-1h-1h-2h-1h-1
h-1h-1h-1h-1h-1h-1h-1h-1h-1h-1h-1h-1h-1h-1h-1h-1h-1h-1h-1h-1h-1h-1h-1h-1h-1h-2v-86h186l-11 -111h-175v-102l229 2l-15 -119h-400z" />
    <glyph glyph-name="Edieresis.sc" horiz-adv-x="502" 
d="M269 649q0 24 30.5 57.5t54.5 33.5q25 0 60 -28.5t35 -53.5q0 -23 -31 -56t-53 -33q-26 0 -61 27.5t-35 52.5zM69 649q0 24 30.5 57.5t53.5 33.5q25 0 60.5 -28.5t35.5 -53.5q0 -23 -31.5 -56t-53.5 -33q-25 0 -60 28t-35 52zM203 416zM58 0v529h401l-15 -115h-1
q-24 0 -119 1h-1h-1h-2h-1h-1h-1h-1h-1h-1h-1h-1h-1h-1h-1h-1h-1h-2h-1h-1h-1h-1h-1h-1h-1h-1h-1h-1h-1h-1h-1h-1l-2 1h-1h-1h-1h-1h-1h-1h-1h-1h-1h-1h-1h-1h-1h-1h-2h-1h-1h-1h-1h-1h-1h-1h-1h-1h-1h-1h-1h-1h-1h-1h-1h-1h-1h-1h-1h-1h-1h-1h-1h-1h-1h-1h-2v-86h186
l-11 -111h-175v-102l229 2l-15 -119h-400z" />
    <glyph glyph-name="Emacron.sc" horiz-adv-x="502" 
d="M417 708v-15l-29 -100h-271v15l29 100h271zM203 416zM58 0v529h401l-15 -115h-1q-24 0 -119 1h-1h-1h-2h-1h-1h-1h-1h-1h-1h-1h-1h-1h-1h-1h-1h-1h-2h-1h-1h-1h-1h-1h-1h-1h-1h-1h-1h-1h-1h-1h-1l-2 1h-1h-1h-1h-1h-1h-1h-1h-1h-1h-1h-1h-1h-1h-1h-2h-1h-1h-1h-1h-1h-1
h-1h-1h-1h-1h-1h-1h-1h-1h-1h-1h-1h-1h-1h-1h-1h-1h-1h-1h-1h-1h-1h-2v-86h186l-11 -111h-175v-102l229 2l-15 -119h-400z" />
    <glyph glyph-name="Ebreve.sc" horiz-adv-x="502" 
d="M264 679q70 0 80 78h98q0 -83 -55 -133t-128 -50q-79 0 -126.5 48.5t-47.5 134.5h98q10 -78 81 -78zM203 416zM58 0v529h401l-15 -115h-1q-24 0 -119 1h-1h-1h-2h-1h-1h-1h-1h-1h-1h-1h-1h-1h-1h-1h-1h-1h-2h-1h-1h-1h-1h-1h-1h-1h-1h-1h-1h-1h-1h-1h-1l-2 1h-1h-1h-1h-1
h-1h-1h-1h-1h-1h-1h-1h-1h-1h-1h-2h-1h-1h-1h-1h-1h-1h-1h-1h-1h-1h-1h-1h-1h-1h-1h-1h-1h-1h-1h-1h-1h-1h-1h-1h-1h-1h-1h-2v-86h186l-11 -111h-175v-102l229 2l-15 -119h-400z" />
    <glyph glyph-name="Edotaccent.sc" horiz-adv-x="502" 
d="M174 670q0 27 34 64t61 37q26 0 65.5 -31t39.5 -57t-35 -63t-60 -37q-27 0 -66 31t-39 56zM203 416zM58 0v529h401l-15 -115h-1q-24 0 -119 1h-1h-1h-2h-1h-1h-1h-1h-1h-1h-1h-1h-1h-1h-1h-1h-1h-2h-1h-1h-1h-1h-1h-1h-1h-1h-1h-1h-1h-1h-1h-1l-2 1h-1h-1h-1h-1h-1h-1h-1
h-1h-1h-1h-1h-1h-1h-1h-2h-1h-1h-1h-1h-1h-1h-1h-1h-1h-1h-1h-1h-1h-1h-1h-1h-1h-1h-1h-1h-1h-1h-1h-1h-1h-1h-1h-2v-86h186l-11 -111h-175v-102l229 2l-15 -119h-400z" />
    <glyph glyph-name="Eogonek.sc" horiz-adv-x="502" 
d="M203 416zM58 0v529h401l-15 -115h-1q-24 0 -119 1h-1h-1h-2h-1h-1h-1h-1h-1h-1h-1h-1h-1h-1h-1h-1h-1h-2h-1h-1h-1h-1h-1h-1h-1h-1h-1h-1h-1h-1h-1h-1l-2 1h-1h-1h-1h-1h-1h-1h-1h-1h-1h-1h-1h-1h-1h-1h-2h-1h-1h-1h-1h-1h-1h-1h-1h-1h-1h-1h-1h-1h-1h-1h-1h-1h-1h-1h-1
h-1h-1h-1h-1h-1h-1h-1h-2v-86h186l-11 -111h-175v-102l229 2l-15 -119h-400zM249 -137q0 32 31 69t91 68h83q-101 -70 -101 -119q0 -14 10.5 -23.5t25.5 -9.5q30 0 50 11l22 -71q-15 -8 -45 -17t-50 -9q-52 0 -84.5 27t-32.5 74z" />
    <glyph glyph-name="Ecaron.sc" horiz-adv-x="502" 
d="M336 580h-160l-115 171h123l72 -64l72 64h121zM203 416zM58 0v529h401l-15 -115h-1q-24 0 -119 1h-1h-1h-2h-1h-1h-1h-1h-1h-1h-1h-1h-1h-1h-1h-1h-1h-2h-1h-1h-1h-1h-1h-1h-1h-1h-1h-1h-1h-1h-1h-1l-2 1h-1h-1h-1h-1h-1h-1h-1h-1h-1h-1h-1h-1h-1h-1h-2h-1h-1h-1h-1h-1
h-1h-1h-1h-1h-1h-1h-1h-1h-1h-1h-1h-1h-1h-1h-1h-1h-1h-1h-1h-1h-1h-1h-2v-86h186l-11 -111h-175v-102l229 2l-15 -119h-400z" />
    <glyph glyph-name="F.sc" horiz-adv-x="483" 
d="M414 190l-170 3v-193h-186v529h401l-15 -121l-200 3v-104h183z" />
    <glyph glyph-name="G.sc" horiz-adv-x="567" 
d="M523 24q-28 -18 -89.5 -31.5t-109.5 -13.5q-138 0 -215.5 69t-77.5 200q0 76 27.5 135.5t74.5 93.5t103 51.5t119 17.5q31 0 85 -7.5t74 -17.5l-24 -129q-80 23 -150 23q-122 0 -122 -147q0 -75 34.5 -114t92.5 -39q17 0 25 1l-6 147h158z" />
    <glyph glyph-name="Gcircumflex.sc" horiz-adv-x="567" 
d="M394 574l-72 63l-72 -63h-121l113 171h160l115 -171h-123zM523 24q-28 -18 -89.5 -31.5t-109.5 -13.5q-138 0 -215.5 69t-77.5 200q0 76 27.5 135.5t74.5 93.5t103 51.5t119 17.5q31 0 85 -7.5t74 -17.5l-24 -129q-80 23 -150 23q-122 0 -122 -147q0 -75 34.5 -114
t92.5 -39q17 0 25 1l-6 147h158z" />
    <glyph glyph-name="Gbreve.sc" horiz-adv-x="567" 
d="M341 679q70 0 80 78h98q0 -83 -55 -133t-128 -50q-79 0 -126.5 48.5t-47.5 134.5h98q10 -78 81 -78zM523 24q-28 -18 -89.5 -31.5t-109.5 -13.5q-138 0 -215.5 69t-77.5 200q0 76 27.5 135.5t74.5 93.5t103 51.5t119 17.5q31 0 85 -7.5t74 -17.5l-24 -129q-80 23 -150 23
q-122 0 -122 -147q0 -75 34.5 -114t92.5 -39q17 0 25 1l-6 147h158z" />
    <glyph glyph-name="Gdotaccent.sc" horiz-adv-x="567" 
d="M208 670q0 27 34 64t61 37q26 0 65.5 -31t39.5 -57t-35 -63t-60 -37q-27 0 -66 31t-39 56zM523 24q-28 -18 -89.5 -31.5t-109.5 -13.5q-138 0 -215.5 69t-77.5 200q0 76 27.5 135.5t74.5 93.5t103 51.5t119 17.5q31 0 85 -7.5t74 -17.5l-24 -129q-80 23 -150 23
q-122 0 -122 -147q0 -75 34.5 -114t92.5 -39q17 0 25 1l-6 147h158z" />
    <glyph glyph-name="Gcommaaccent.sc" horiz-adv-x="567" 
d="M523 24q-28 -18 -89.5 -31.5t-109.5 -13.5q-138 0 -215.5 69t-77.5 200q0 76 27.5 135.5t74.5 93.5t103 51.5t119 17.5q31 0 85 -7.5t74 -17.5l-24 -129q-80 23 -150 23q-122 0 -122 -147q0 -75 34.5 -114t92.5 -39q17 0 25 1l-6 147h158zM236 -104q0 21 24.5 44t47.5 23
t50 -27.5t27 -44.5q0 -52 -76 -161l-77 30q4 10 14.5 29.5t18.5 35t8 21.5t-18.5 23.5t-18.5 26.5z" />
    <glyph glyph-name="H.sc" horiz-adv-x="646" 
d="M405 0v205h-163v-205h-184v529h184v-189h163v189h183v-529h-183z" />
    <glyph glyph-name="Hcircumflex.sc" horiz-adv-x="646" 
d="M395 574l-72 63l-72 -63h-121l113 171h160l115 -171h-123zM405 0v205h-163v-205h-184v529h184v-189h163v189h183v-529h-183z" />
    <glyph glyph-name="I.sc" horiz-adv-x="302" 
d="M244 529v-529h-186v529h186z" />
    <glyph glyph-name="Igrave.sc" horiz-adv-x="302" 
d="M246 574h-142l-159 141l172 30zM244 529v-529h-186v529h186z" />
    <glyph glyph-name="Iacute.sc" horiz-adv-x="302" 
d="M72 574l129 171l172 -30l-159 -141h-142zM244 529v-529h-186v529h186z" />
    <glyph glyph-name="Icircumflex.sc" horiz-adv-x="302" 
d="M229 574l-72 63l-72 -63h-121l113 171h160l115 -171h-123zM244 529v-529h-186v529h186z" />
    <glyph glyph-name="Idieresis.sc" horiz-adv-x="302" 
d="M157 649q0 24 30.5 57.5t54.5 33.5q25 0 60 -28.5t35 -53.5q0 -23 -31 -56t-53 -33q-26 0 -61 27.5t-35 52.5zM-43 649q0 24 30.5 57.5t53.5 33.5q25 0 60.5 -28.5t35.5 -53.5q0 -23 -31.5 -56t-53.5 -33q-25 0 -60 28t-35 52zM244 529v-529h-186v529h186z" />
    <glyph glyph-name="Itilde.sc" horiz-adv-x="302" 
d="M284 741l57 -59q-9 -32 -54 -72t-76 -40q-19 0 -70.5 16.5t-63.5 16.5q-17 0 -38 -17t-27 -27l-52 70q-1 1 20.5 25t51.5 48t49 24q23 0 70 -17t60 -17q28 0 73 49zM244 529v-529h-186v529h186z" />
    <glyph glyph-name="Imacron.sc" horiz-adv-x="302" 
d="M298 708v-15l-29 -100h-271v15l29 100h271zM244 529v-529h-186v529h186z" />
    <glyph glyph-name="Ibreve.sc" horiz-adv-x="302" 
d="M152 679q70 0 80 78h98q0 -83 -55 -133t-128 -50q-79 0 -126.5 48.5t-47.5 134.5h98q10 -78 81 -78zM244 529v-529h-186v529h186z" />
    <glyph glyph-name="Iogonek.sc" horiz-adv-x="302" 
d="M159 0h-101v529h186v-529h-2q-101 -70 -101 -119q0 -14 10.5 -23.5t25.5 -9.5q30 0 50 11l22 -71q-15 -8 -45 -17t-50 -9q-52 0 -84.5 27t-32.5 74q0 32 31 69t91 68z" />
    <glyph glyph-name="Idotaccent.sc" horiz-adv-x="302" 
d="M51 670q0 27 34 64t61 37q26 0 65.5 -31t39.5 -57t-35 -63t-60 -37q-27 0 -66 31t-39 56zM244 529v-529h-186v529h186z" />
    <glyph glyph-name="J.sc" horiz-adv-x="387" 
d="M323 529v-365q0 -82 -61.5 -132.5t-153.5 -50.5q-67 0 -107 16l22 139q23 -17 60 -17q52 0 52 51v359h188z" />
    <glyph glyph-name="Jcircumflex.sc" horiz-adv-x="387" 
d="M302 574l-72 63l-72 -63h-121l113 171h160l115 -171h-123zM323 529v-365q0 -82 -61.5 -132.5t-153.5 -50.5q-67 0 -107 16l22 139q23 -17 60 -17q52 0 52 51v359h188z" />
    <glyph glyph-name="K.sc" horiz-adv-x="625" 
d="M633 0h-226l-163 280l161 249h204l-173 -233zM244 529v-529h-186v529h186z" />
    <glyph glyph-name="Kcommaaccent.sc" horiz-adv-x="625" 
d="M633 0h-226l-163 280l161 249h204l-173 -233zM244 529v-529h-186v529h186zM242 -104q0 21 24.5 44t47.5 23t50 -27.5t27 -44.5q0 -52 -76 -161l-77 30q4 10 14.5 29.5t18.5 35t8 21.5t-18.5 23.5t-18.5 26.5z" />
    <glyph glyph-name="L.sc" horiz-adv-x="474" 
d="M58 0v529h186v-408l218 5l-11 -126h-393z" />
    <glyph glyph-name="Lacute.sc" horiz-adv-x="474" 
d="M57 574l129 171l172 -30l-159 -141h-142zM58 0v529h186v-408l218 5l-11 -126h-393z" />
    <glyph glyph-name="Lcommaaccent.sc" horiz-adv-x="474" 
d="M58 0v529h186v-408l218 5l-11 -126h-393zM161 -104q0 21 24.5 44t47.5 23t50 -27.5t27 -44.5q0 -52 -76 -161l-77 30q4 10 14.5 29.5t18.5 35t8 21.5t-18.5 23.5t-18.5 26.5z" />
    <glyph glyph-name="Lcaron.sc" horiz-adv-x="496" 
d="M319 501q-2 20 29 37t56 17q29 0 45.5 -37t16.5 -76q0 -61 -100 -202l-68 33q35 66 35 136q0 20 -7 49t-7 43zM58 0v529h186v-408l218 5l-11 -126h-393z" />
    <glyph glyph-name="M.sc" horiz-adv-x="810" 
d="M329 0l-104 291l-26 -291h-174l64 529h220l105 -282l104 282h202l64 -529h-181l-25 292l-101 -292h-148z" />
    <glyph glyph-name="N.sc" horiz-adv-x="656" 
d="M423 0l-190 285v-285h-175v529h193l172 -271v271h175v-529h-175z" />
    <glyph glyph-name="Ntilde.sc" horiz-adv-x="656" 
d="M472 741l57 -59q-9 -32 -54 -72t-76 -40q-19 0 -70.5 16.5t-63.5 16.5q-17 0 -38 -17t-27 -27l-52 70q-1 1 20.5 25t51.5 48t49 24q23 0 70 -17t60 -17q28 0 73 49zM423 0l-190 285v-285h-175v529h193l172 -271v271h175v-529h-175z" />
    <glyph glyph-name="Nacute.sc" horiz-adv-x="656" 
d="M251 574l129 171l172 -30l-159 -141h-142zM423 0l-190 285v-285h-175v529h193l172 -271v271h175v-529h-175z" />
    <glyph glyph-name="Ncommaaccent.sc" horiz-adv-x="656" 
d="M423 0l-190 285v-285h-175v529h193l172 -271v271h175v-529h-175zM253 -104q0 21 24.5 44t47.5 23t50 -27.5t27 -44.5q0 -52 -76 -161l-77 30q4 10 14.5 29.5t18.5 35t8 21.5t-18.5 23.5t-18.5 26.5z" />
    <glyph glyph-name="Ncaron.sc" horiz-adv-x="656" 
d="M415 580h-160l-115 171h123l72 -64l72 64h121zM423 0l-190 285v-285h-175v529h193l172 -271v271h175v-529h-175z" />
    <glyph glyph-name="O.sc" horiz-adv-x="678" 
d="M646 276q0 -134 -91.5 -214.5t-238.5 -80.5q-140 0 -212.5 72.5t-72.5 201.5q0 134 91.5 213.5t238.5 79.5q140 0 212.5 -72t72.5 -200zM458 252q0 98 -35 137t-99 39q-47 0 -76.5 -35.5t-29.5 -114.5q0 -99 35 -137.5t101 -38.5q104 0 104 150z" />
    <glyph glyph-name="Ograve.sc" horiz-adv-x="678" 
d="M484 574h-142l-159 141l172 30zM646 276q0 -134 -91.5 -214.5t-238.5 -80.5q-140 0 -212.5 72.5t-72.5 201.5q0 134 91.5 213.5t238.5 79.5q140 0 212.5 -72t72.5 -200zM458 252q0 98 -35 137t-99 39q-47 0 -76.5 -35.5t-29.5 -114.5q0 -99 35 -137.5t101 -38.5
q104 0 104 150z" />
    <glyph glyph-name="Oacute.sc" horiz-adv-x="678" 
d="M253 574l129 171l172 -30l-159 -141h-142zM646 276q0 -134 -91.5 -214.5t-238.5 -80.5q-140 0 -212.5 72.5t-72.5 201.5q0 134 91.5 213.5t238.5 79.5q140 0 212.5 -72t72.5 -200zM458 252q0 98 -35 137t-99 39q-47 0 -76.5 -35.5t-29.5 -114.5q0 -99 35 -137.5
t101 -38.5q104 0 104 150z" />
    <glyph glyph-name="Ocircumflex.sc" horiz-adv-x="678" 
d="M406 574l-72 63l-72 -63h-121l113 171h160l115 -171h-123zM646 276q0 -134 -91.5 -214.5t-238.5 -80.5q-140 0 -212.5 72.5t-72.5 201.5q0 134 91.5 213.5t238.5 79.5q140 0 212.5 -72t72.5 -200zM458 252q0 98 -35 137t-99 39q-47 0 -76.5 -35.5t-29.5 -114.5
q0 -99 35 -137.5t101 -38.5q104 0 104 150z" />
    <glyph glyph-name="Otilde.sc" horiz-adv-x="678" 
d="M449 741l57 -59q-9 -32 -54 -72t-76 -40q-19 0 -70.5 16.5t-63.5 16.5q-17 0 -38 -17t-27 -27l-52 70q-1 1 20.5 25t51.5 48t49 24q23 0 70 -17t60 -17q28 0 73 49zM646 276q0 -134 -91.5 -214.5t-238.5 -80.5q-140 0 -212.5 72.5t-72.5 201.5q0 134 91.5 213.5
t238.5 79.5q140 0 212.5 -72t72.5 -200zM458 252q0 98 -35 137t-99 39q-47 0 -76.5 -35.5t-29.5 -114.5q0 -99 35 -137.5t101 -38.5q104 0 104 150z" />
    <glyph glyph-name="Odieresis.sc" horiz-adv-x="678" 
d="M355 649q0 24 30.5 57.5t54.5 33.5q25 0 60 -28.5t35 -53.5q0 -23 -31 -56t-53 -33q-26 0 -61 27.5t-35 52.5zM155 649q0 24 30.5 57.5t53.5 33.5q25 0 60.5 -28.5t35.5 -53.5q0 -23 -31.5 -56t-53.5 -33q-25 0 -60 28t-35 52zM646 276q0 -134 -91.5 -214.5t-238.5 -80.5
q-140 0 -212.5 72.5t-72.5 201.5q0 134 91.5 213.5t238.5 79.5q140 0 212.5 -72t72.5 -200zM458 252q0 98 -35 137t-99 39q-47 0 -76.5 -35.5t-29.5 -114.5q0 -99 35 -137.5t101 -38.5q104 0 104 150z" />
    <glyph glyph-name="Omacron.sc" horiz-adv-x="678" 
d="M505 708v-15l-29 -100h-271v15l29 100h271zM646 276q0 -134 -91.5 -214.5t-238.5 -80.5q-140 0 -212.5 72.5t-72.5 201.5q0 134 91.5 213.5t238.5 79.5q140 0 212.5 -72t72.5 -200zM458 252q0 98 -35 137t-99 39q-47 0 -76.5 -35.5t-29.5 -114.5q0 -99 35 -137.5
t101 -38.5q104 0 104 150z" />
    <glyph glyph-name="Obreve.sc" horiz-adv-x="678" 
d="M337 679q70 0 80 78h98q0 -83 -55 -133t-128 -50q-79 0 -126.5 48.5t-47.5 134.5h98q10 -78 81 -78zM646 276q0 -134 -91.5 -214.5t-238.5 -80.5q-140 0 -212.5 72.5t-72.5 201.5q0 134 91.5 213.5t238.5 79.5q140 0 212.5 -72t72.5 -200zM458 252q0 98 -35 137t-99 39
q-47 0 -76.5 -35.5t-29.5 -114.5q0 -99 35 -137.5t101 -38.5q104 0 104 150z" />
    <glyph glyph-name="Ohungarumlaut.sc" horiz-adv-x="678" 
d="M340 574l107 171l172 -30l-138 -141h-141zM150 574l107 171l171 -30l-137 -141h-141zM646 276q0 -134 -91.5 -214.5t-238.5 -80.5q-140 0 -212.5 72.5t-72.5 201.5q0 134 91.5 213.5t238.5 79.5q140 0 212.5 -72t72.5 -200zM458 252q0 98 -35 137t-99 39
q-47 0 -76.5 -35.5t-29.5 -114.5q0 -99 35 -137.5t101 -38.5q104 0 104 150z" />
    <glyph glyph-name="P.sc" 
d="M261 265q89 0 89 77q0 41 -28.5 63t-77.5 22v-162h17zM272 155q-17 0 -28 1v-156h-186v529h248q111 0 166.5 -45t55.5 -124q0 -87 -75.5 -146t-180.5 -59z" />
    <glyph glyph-name="Q.sc" horiz-adv-x="678" 
d="M646 276q0 -134 -91.5 -214.5t-238.5 -80.5q-140 0 -212.5 72.5t-72.5 201.5q0 134 91.5 213.5t238.5 79.5q140 0 212.5 -72t72.5 -200zM458 252q0 98 -35 137t-99 39q-47 0 -76.5 -35.5t-29.5 -114.5q0 -99 35 -137.5t101 -38.5q104 0 104 150zM639 -60v-109
q-52 -32 -102 -32t-143.5 34.5t-126.5 34.5q-15 0 -24.5 -1.5t-32.5 -11.5t-54 -30l-33 102q82 40 164 40q51 0 149 -26t129 -26q35 0 74 25z" />
    <glyph glyph-name="R.sc" horiz-adv-x="564" 
d="M281 291q30 0 47.5 17.5t17.5 45.5q0 37 -24 55t-78 20v-134q16 -4 37 -4zM261 185h-17v-185h-186v529h243q115 0 173.5 -38.5t58.5 -111.5q0 -97 -95 -152l129 -227h-191l-87 186q-9 -1 -28 -1z" />
    <glyph glyph-name="Racute.sc" horiz-adv-x="564" 
d="M165 574l129 171l172 -30l-159 -141h-142zM281 291q30 0 47.5 17.5t17.5 45.5q0 37 -24 55t-78 20v-134q16 -4 37 -4zM261 185h-17v-185h-186v529h243q115 0 173.5 -38.5t58.5 -111.5q0 -97 -95 -152l129 -227h-191l-87 186q-9 -1 -28 -1z" />
    <glyph glyph-name="Rcommaaccent.sc" horiz-adv-x="564" 
d="M281 291q30 0 47.5 17.5t17.5 45.5q0 37 -24 55t-78 20v-134q16 -4 37 -4zM261 185h-17v-185h-186v529h243q115 0 173.5 -38.5t58.5 -111.5q0 -97 -95 -152l129 -227h-191l-87 186q-9 -1 -28 -1zM216 -104q0 21 24.5 44t47.5 23t50 -27.5t27 -44.5q0 -52 -76 -161l-77 30
q4 10 14.5 29.5t18.5 35t8 21.5t-18.5 23.5t-18.5 26.5z" />
    <glyph glyph-name="Rcaron.sc" horiz-adv-x="564" 
d="M364 580h-160l-115 171h123l72 -64l72 64h121zM281 291q30 0 47.5 17.5t17.5 45.5q0 37 -24 55t-78 20v-134q16 -4 37 -4zM261 185h-17v-185h-186v529h243q115 0 173.5 -38.5t58.5 -111.5q0 -97 -95 -152l129 -227h-191l-87 186q-9 -1 -28 -1z" />
    <glyph glyph-name="S.sc" horiz-adv-x="495" 
d="M223 190q-105 27 -148 68.5t-43 112.5q0 79 62.5 127t166.5 48q65 0 118.5 -9t75.5 -19l-33 -128q-3 1 -23.5 7t-31 9t-31.5 7t-43.5 6t-47.5 2q-47 0 -47 -28q0 -17 20.5 -29.5t78.5 -23.5q57 -13 93.5 -31.5t53 -43.5t21.5 -47t5 -54q0 -79 -66 -131t-167 -52
q-107 0 -203 32l28 139q100 -41 190 -41q27 0 38 6.5t11 24.5q0 32 -78 48z" />
    <glyph glyph-name="Sacute.sc" horiz-adv-x="495" 
d="M156 574l129 171l172 -30l-159 -141h-142zM223 190q-105 27 -148 68.5t-43 112.5q0 79 62.5 127t166.5 48q65 0 118.5 -9t75.5 -19l-33 -128q-3 1 -23.5 7t-31 9t-31.5 7t-43.5 6t-47.5 2q-47 0 -47 -28q0 -17 20.5 -29.5t78.5 -23.5q57 -13 93.5 -31.5t53 -43.5
t21.5 -47t5 -54q0 -79 -66 -131t-167 -52q-107 0 -203 32l28 139q100 -41 190 -41q27 0 38 6.5t11 24.5q0 32 -78 48z" />
    <glyph glyph-name="Scircumflex.sc" horiz-adv-x="495" 
d="M336 574l-72 63l-72 -63h-121l113 171h160l115 -171h-123zM223 190q-105 27 -148 68.5t-43 112.5q0 79 62.5 127t166.5 48q65 0 118.5 -9t75.5 -19l-33 -128q-3 1 -23.5 7t-31 9t-31.5 7t-43.5 6t-47.5 2q-47 0 -47 -28q0 -17 20.5 -29.5t78.5 -23.5q57 -13 93.5 -31.5
t53 -43.5t21.5 -47t5 -54q0 -79 -66 -131t-167 -52q-107 0 -203 32l28 139q100 -41 190 -41q27 0 38 6.5t11 24.5q0 32 -78 48z" />
    <glyph glyph-name="Scedilla.sc" horiz-adv-x="495" 
d="M189 -241l-18 65q96 9 96 34q0 23 -72 37l-3 5l41 81q-109 1 -199 32l28 139q100 -41 190 -41q27 0 38 6.5t11 24.5q0 32 -78 48q-105 27 -148 68.5t-43 112.5q0 79 62.5 127t166.5 48q65 0 118.5 -9t75.5 -19l-33 -128q-3 1 -23.5 7t-31 9t-31.5 7t-43.5 6t-47.5 2
q-47 0 -47 -28q0 -17 20.5 -29.5t78.5 -23.5q57 -13 93.5 -31.5t53 -43.5t21.5 -47t5 -54q0 -65 -46.5 -113.5t-122.5 -63.5l-16 -37q89 -27 89 -78q0 -41 -46 -75t-139 -38z" />
    <glyph glyph-name="Scaron.sc" horiz-adv-x="495" 
d="M351 580h-160l-115 171h123l72 -64l72 64h121zM223 190q-105 27 -148 68.5t-43 112.5q0 79 62.5 127t166.5 48q65 0 118.5 -9t75.5 -19l-33 -128q-3 1 -23.5 7t-31 9t-31.5 7t-43.5 6t-47.5 2q-47 0 -47 -28q0 -17 20.5 -29.5t78.5 -23.5q57 -13 93.5 -31.5t53 -43.5
t21.5 -47t5 -54q0 -79 -66 -131t-167 -52q-107 0 -203 32l28 139q100 -41 190 -41q27 0 38 6.5t11 24.5q0 32 -78 48z" />
    <glyph glyph-name="Scommaaccent.sc" horiz-adv-x="495" 
d="M223 190q-105 27 -148 68.5t-43 112.5q0 79 62.5 127t166.5 48q65 0 118.5 -9t75.5 -19l-33 -128q-3 1 -23.5 7t-31 9t-31.5 7t-43.5 6t-47.5 2q-47 0 -47 -28q0 -17 20.5 -29.5t78.5 -23.5q57 -13 93.5 -31.5t53 -43.5t21.5 -47t5 -54q0 -79 -66 -131t-167 -52
q-107 0 -203 32l28 139q100 -41 190 -41q27 0 38 6.5t11 24.5q0 32 -78 48zM176 -104q0 21 24.5 44t47.5 23t50 -27.5t27 -44.5q0 -52 -76 -161l-77 30q4 10 14.5 29.5t18.5 35t8 21.5t-18.5 23.5t-18.5 26.5z" />
    <glyph glyph-name="T.sc" horiz-adv-x="509" 
d="M497 403l-146 3v-406h-186v406l-166 -3l16 126h495z" />
    <glyph glyph-name="Tcommaaccent.sc" horiz-adv-x="509" 
d="M497 403l-146 3v-406h-186v406l-166 -3l16 126h495zM178 -104q0 21 24.5 44t47.5 23t50 -27.5t27 -44.5q0 -52 -76 -161l-77 30q4 10 14.5 29.5t18.5 35t8 21.5t-18.5 23.5t-18.5 26.5z" />
    <glyph glyph-name="Tcaron.sc" horiz-adv-x="509" 
d="M341 580h-160l-115 171h123l72 -64l72 64h121zM497 403l-146 3v-406h-186v406l-166 -3l16 126h495z" />
    <glyph glyph-name="U.sc" horiz-adv-x="624" 
d="M53 174v355h187v-312q0 -84 75 -84q43 0 60 16t17 53v327h179v-332q0 -94 -74 -155t-198 -61q-123 0 -184.5 51t-61.5 142z" />
    <glyph glyph-name="Ugrave.sc" horiz-adv-x="624" 
d="M441 574h-142l-159 141l172 30zM53 174v355h187v-312q0 -84 75 -84q43 0 60 16t17 53v327h179v-332q0 -94 -74 -155t-198 -61q-123 0 -184.5 51t-61.5 142z" />
    <glyph glyph-name="Uacute.sc" horiz-adv-x="624" 
d="M204 574l129 171l172 -30l-159 -141h-142zM53 174v355h187v-312q0 -84 75 -84q43 0 60 16t17 53v327h179v-332q0 -94 -74 -155t-198 -61q-123 0 -184.5 51t-61.5 142z" />
    <glyph glyph-name="Ucircumflex.sc" horiz-adv-x="624" 
d="M385 574l-72 63l-72 -63h-121l113 171h160l115 -171h-123zM53 174v355h187v-312q0 -84 75 -84q43 0 60 16t17 53v327h179v-332q0 -94 -74 -155t-198 -61q-123 0 -184.5 51t-61.5 142z" />
    <glyph glyph-name="Udieresis.sc" horiz-adv-x="624" 
d="M331 649q0 24 30.5 57.5t54.5 33.5q25 0 60 -28.5t35 -53.5q0 -23 -31 -56t-53 -33q-26 0 -61 27.5t-35 52.5zM131 649q0 24 30.5 57.5t53.5 33.5q25 0 60.5 -28.5t35.5 -53.5q0 -23 -31.5 -56t-53.5 -33q-25 0 -60 28t-35 52zM53 174v355h187v-312q0 -84 75 -84
q43 0 60 16t17 53v327h179v-332q0 -94 -74 -155t-198 -61q-123 0 -184.5 51t-61.5 142z" />
    <glyph glyph-name="Utilde.sc" horiz-adv-x="624" 
d="M457 741l57 -59q-9 -32 -54 -72t-76 -40q-19 0 -70.5 16.5t-63.5 16.5q-17 0 -38 -17t-27 -27l-52 70q-1 1 20.5 25t51.5 48t49 24q23 0 70 -17t60 -17q28 0 73 49zM53 174v355h187v-312q0 -84 75 -84q43 0 60 16t17 53v327h179v-332q0 -94 -74 -155t-198 -61
q-123 0 -184.5 51t-61.5 142z" />
    <glyph glyph-name="Umacron.sc" horiz-adv-x="624" 
d="M485 708v-15l-29 -100h-271v15l29 100h271zM53 174v355h187v-312q0 -84 75 -84q43 0 60 16t17 53v327h179v-332q0 -94 -74 -155t-198 -61q-123 0 -184.5 51t-61.5 142z" />
    <glyph glyph-name="Ubreve.sc" horiz-adv-x="624" 
d="M313 679q70 0 80 78h98q0 -83 -55 -133t-128 -50q-79 0 -126.5 48.5t-47.5 134.5h98q10 -78 81 -78zM53 174v355h187v-312q0 -84 75 -84q43 0 60 16t17 53v327h179v-332q0 -94 -74 -155t-198 -61q-123 0 -184.5 51t-61.5 142z" />
    <glyph glyph-name="Uring.sc" horiz-adv-x="624" 
d="M422 677q0 -43 -33 -74.5t-78 -31.5q-47 0 -78.5 29t-31.5 77q0 44 33 76t78 32q48 0 79 -28.5t31 -79.5zM270 677q0 -17 11.5 -28.5t29.5 -11.5t30 11.5t12 28.5q0 19 -12 31t-30 12t-29.5 -12t-11.5 -31zM53 174v355h187v-312q0 -84 75 -84q43 0 60 16t17 53v327h179
v-332q0 -94 -74 -155t-198 -61q-123 0 -184.5 51t-61.5 142z" />
    <glyph glyph-name="Uhungarumlaut.sc" horiz-adv-x="624" 
d="M308 574l107 171l172 -30l-138 -141h-141zM118 574l107 171l171 -30l-137 -141h-141zM53 174v355h187v-312q0 -84 75 -84q43 0 60 16t17 53v327h179v-332q0 -94 -74 -155t-198 -61q-123 0 -184.5 51t-61.5 142z" />
    <glyph glyph-name="Uogonek.sc" horiz-adv-x="624" 
d="M420 -186q-52 0 -84.5 27t-32.5 74q0 32 29 67q-11 -1 -33 -1q-123 0 -184.5 51t-61.5 142v355h187v-312q0 -84 75 -84q43 0 60 16t17 53v327h179v-332q0 -114 -103 -175q-61 -51 -61 -89q0 -14 10.5 -23.5t25.5 -9.5q30 0 50 11l22 -71q-15 -8 -45 -17t-50 -9z" />
    <glyph glyph-name="V.sc" horiz-adv-x="586" 
d="M395 0h-215l-188 529h195l112 -348l105 348h189z" />
    <glyph glyph-name="W.sc" horiz-adv-x="827" 
d="M509 0l-96 286l-102 -286h-195l-118 529h182l60 -302l107 302h157l100 -297l60 297h166l-127 -529h-194z" />
    <glyph glyph-name="Wcircumflex.sc" horiz-adv-x="827" 
d="M505 574l-72 63l-72 -63h-121l113 171h160l115 -171h-123zM509 0l-96 286l-102 -286h-195l-118 529h182l60 -302l107 302h157l100 -297l60 297h166l-127 -529h-194z" />
    <glyph glyph-name="Wgrave.sc" horiz-adv-x="827" 
d="M526 574h-142l-159 141l172 30zM509 0l-96 286l-102 -286h-195l-118 529h182l60 -302l107 302h157l100 -297l60 297h166l-127 -529h-194z" />
    <glyph glyph-name="Wacute.sc" horiz-adv-x="827" 
d="M350 574l129 171l172 -30l-159 -141h-142zM509 0l-96 286l-102 -286h-195l-118 529h182l60 -302l107 302h157l100 -297l60 297h166l-127 -529h-194z" />
    <glyph glyph-name="Wdieresis.sc" horiz-adv-x="827" 
d="M432 649q0 24 30.5 57.5t54.5 33.5q25 0 60 -28.5t35 -53.5q0 -23 -31 -56t-53 -33q-26 0 -61 27.5t-35 52.5zM232 649q0 24 30.5 57.5t53.5 33.5q25 0 60.5 -28.5t35.5 -53.5q0 -23 -31.5 -56t-53.5 -33q-25 0 -60 28t-35 52zM509 0l-96 286l-102 -286h-195l-118 529
h182l60 -302l107 302h157l100 -297l60 297h166l-127 -529h-194z" />
    <glyph glyph-name="X.sc" horiz-adv-x="540" 
d="M362 0l-99 144l-82 -144h-202l189 281l-171 248h210l76 -114l63 114h203l-170 -258l182 -271h-199z" />
    <glyph glyph-name="Y.sc" horiz-adv-x="534" 
d="M355 185v-185h-186v185l-177 344h193l97 -190l101 190h159z" />
    <glyph glyph-name="Yacute.sc" horiz-adv-x="534" 
d="M167 574l129 171l172 -30l-159 -141h-142zM355 185v-185h-186v185l-177 344h193l97 -190l101 190h159z" />
    <glyph glyph-name="Ycircumflex.sc" horiz-adv-x="534" 
d="M353 574l-72 63l-72 -63h-121l113 171h160l115 -171h-123zM355 185v-185h-186v185l-177 344h193l97 -190l101 190h159z" />
    <glyph glyph-name="Ydieresis.sc" horiz-adv-x="534" 
d="M299 649q0 24 30.5 57.5t54.5 33.5q25 0 60 -28.5t35 -53.5q0 -23 -31 -56t-53 -33q-26 0 -61 27.5t-35 52.5zM99 649q0 24 30.5 57.5t53.5 33.5q25 0 60.5 -28.5t35.5 -53.5q0 -23 -31.5 -56t-53.5 -33q-25 0 -60 28t-35 52zM355 185v-185h-186v185l-177 344h193
l97 -190l101 190h159z" />
    <glyph glyph-name="Ygrave.sc" horiz-adv-x="534" 
d="M395 574h-142l-159 141l172 30zM355 185v-185h-186v185l-177 344h193l97 -190l101 190h159z" />
    <glyph glyph-name="Z.sc" horiz-adv-x="505" 
d="M461 0h-429v111l229 288h-238l24 130h419v-115l-223 -285h244z" />
    <glyph glyph-name="Zacute.sc" horiz-adv-x="505" 
d="M143 574l129 171l172 -30l-159 -141h-142zM461 0h-429v111l229 288h-238l24 130h419v-115l-223 -285h244z" />
    <glyph glyph-name="Zdotaccent.sc" horiz-adv-x="505" 
d="M172 670q0 27 34 64t61 37q26 0 65.5 -31t39.5 -57t-35 -63t-60 -37q-27 0 -66 31t-39 56zM461 0h-429v111l229 288h-238l24 130h419v-115l-223 -285h244z" />
    <glyph glyph-name="Zcaron.sc" horiz-adv-x="505" 
d="M342 580h-160l-115 171h123l72 -64l72 64h121zM461 0h-429v111l229 288h-238l24 130h419v-115l-223 -285h244z" />
    <glyph glyph-name="AE.sc" horiz-adv-x="742" 
d="M469 416zM305 390l-68 -162h87v163zM324 0v101h-140l-42 -101h-184l256 529h511l-15 -115h-1q-24 0 -119 1h-1h-1h-2h-1h-1h-1h-1h-1h-1h-1h-1h-1h-1h-1h-1h-1h-2h-1h-1h-1h-1h-1h-1h-1h-1h-1h-1h-1h-1h-1h-1l-2 1h-1h-1h-1h-1h-1h-1h-1h-1h-1h-1h-1h-1h-1h-1h-2h-1h-1
h-1h-1h-1h-1h-1h-1h-1h-1h-1h-1h-1h-1h-1h-1h-1h-1h-1h-1h-1h-1h-1h-1h-1h-1h-1h-2v-86h187l-12 -111h-175v-102l229 2l-15 -119h-400z" />
    <glyph glyph-name="AEacute.sc" horiz-adv-x="742" 
d="M375 574l129 171l172 -30l-159 -141h-142zM469 416zM305 390l-68 -162h87v163zM324 0v101h-140l-42 -101h-184l256 529h511l-15 -115h-1q-24 0 -119 1h-1h-1h-2h-1h-1h-1h-1h-1h-1h-1h-1h-1h-1h-1h-1h-1h-2h-1h-1h-1h-1h-1h-1h-1h-1h-1h-1h-1h-1h-1h-1l-2 1h-1h-1h-1h-1
h-1h-1h-1h-1h-1h-1h-1h-1h-1h-1h-2h-1h-1h-1h-1h-1h-1h-1h-1h-1h-1h-1h-1h-1h-1h-1h-1h-1h-1h-1h-1h-1h-1h-1h-1h-1h-1h-1h-2v-86h187l-12 -111h-175v-102l229 2l-15 -119h-400z" />
    <glyph glyph-name="Eth.sc" horiz-adv-x="615" 
d="M241 -7q-55 0 -176 16v216h-42v96h42v208h255q124 0 193.5 -62.5t69.5 -184.5q0 -131 -92 -210t-250 -79zM277 121q58 0 92.5 35t34.5 105q0 72 -34 114t-82 42h-46v-96h98l-10 -96h-88v-103h4.5h3.5t8.5 -0.5t18.5 -0.5z" />
    <glyph glyph-name="Oslash.sc" horiz-adv-x="678" 
d="M218 278q0 -66 15 -103l122 251q-20 2 -31 2q-47 0 -76.5 -35.5t-29.5 -114.5zM354 102q104 0 104 150q0 61 -14 100l-121 -248q20 -2 31 -2zM316 -19q-27 0 -51 3l-28 -57h-124l43 88q-125 65 -125 240q0 134 91.5 213.5t238.5 79.5q28 0 52 -3l27 55h124l-42 -87
q124 -64 124 -237q0 -134 -91.5 -214.5t-238.5 -80.5z" />
    <glyph glyph-name="Oslashacute.sc" horiz-adv-x="678" 
d="M220 574l129 171l172 -30l-159 -141h-142zM218 278q0 -66 15 -103l122 251q-20 2 -31 2q-47 0 -76.5 -35.5t-29.5 -114.5zM354 102q104 0 104 150q0 61 -14 100l-121 -248q20 -2 31 -2zM316 -19q-27 0 -51 3l-28 -57h-124l43 88q-125 65 -125 240q0 134 91.5 213.5
t238.5 79.5q28 0 52 -3l27 55h124l-42 -87q124 -64 124 -237q0 -134 -91.5 -214.5t-238.5 -80.5z" />
    <glyph glyph-name="Thorn.sc" 
d="M261 195q89 0 89 77q0 40 -28.5 62.5t-77.5 22.5v-162h17zM272 85q-17 0 -28 1v-86h-186v529h186v-71h62q111 0 166.5 -45t55.5 -124q0 -87 -75.5 -145.5t-180.5 -58.5z" />
    <glyph glyph-name="Dcroat.sc" horiz-adv-x="615" 
d="M241 -7q-55 0 -176 16v216h-42v96h42v208h255q124 0 193.5 -62.5t69.5 -184.5q0 -131 -92 -210t-250 -79zM277 121q58 0 92.5 35t34.5 105q0 72 -34 114t-82 42h-46v-96h98l-10 -96h-88v-103h4.5h3.5t8.5 -0.5t18.5 -0.5z" />
    <glyph glyph-name="Hbar.sc" horiz-adv-x="646" 
d="M405 340v42h-163v-42h163zM405 0v205h-163v-205h-184v382h-56v16l27 73h29v58h184v-58h163v58h183v-58h60v-17l-27 -72h-33v-382h-183z" />
    <glyph glyph-name="IJ.sc" horiz-adv-x="654" 
d="M244 529v-529h-186v529h186zM591 529v-365q0 -82 -61.5 -132.5t-153.5 -50.5q-67 0 -107 16l22 139q23 -17 60 -17q52 0 52 51v359h188z" />
    <glyph glyph-name="Ldot.sc" horiz-adv-x="496" 
d="M285 324q0 27 34 64t61 37q26 0 65.5 -31t39.5 -57t-35 -63t-60 -37q-27 0 -66 31t-39 56zM58 0v529h186v-408l218 5l-11 -126h-393z" />
    <glyph glyph-name="Lslash.sc" horiz-adv-x="474" 
d="M58 0v194l-46 -19v104l46 18v232h186v-157l95 38v-102l-95 -39v-148l218 5l-11 -126h-393z" />
    <glyph glyph-name="Eng.sc" horiz-adv-x="656" 
d="M364 -222q-77 0 -124 22l24 136q64 -26 102 -26q60 0 60 80l-192 294v-284h-176v529h197l171 -277v277h172v-503q0 -14 -1 -20l1 -1h-1q-6 -107 -68 -167t-165 -60z" />
    <glyph glyph-name="OE.sc" horiz-adv-x="856" 
d="M354 102q35 0 58 16v287q-29 23 -88 23q-47 0 -76.5 -37t-29.5 -113q0 -98 35.5 -137t100.5 -39zM813 0h-378q-65 -19 -119 -19q-138 0 -211.5 72.5t-73.5 201.5q0 134 88 213.5t228 79.5q66 0 123 -19h343l-15 -115l-200 2v-86h186l-11 -111h-175v-102l229 2z" />
    <glyph glyph-name="Tbar.sc" horiz-adv-x="509" 
d="M429 211h-78v-211h-186v211h-111v27l27 79h84v89l-166 -3l16 126h495l-13 -126l-146 3v-89h105v-27z" />
    <glyph glyph-name="commaaccent.sc" horiz-adv-x="252" 
d="M53 -104q0 21 24.5 44t47.5 23t50 -27.5t27 -44.5q0 -52 -76 -161l-77 30q4 10 14.5 29.5t18.5 35t8 21.5t-18.5 23.5t-18.5 26.5z" />
    <glyph glyph-name="acute.sc" horiz-adv-x="361" 
d="M30 574l129 171l172 -30l-159 -141h-142z" />
    <glyph glyph-name="grave.sc" horiz-adv-x="361" 
d="M331 574h-142l-159 141l172 30z" />
    <glyph glyph-name="hungarumlaut.sc" horiz-adv-x="538" 
d="M223 574l107 171l172 -30l-138 -141h-141zM33 574l107 171l171 -30l-137 -141h-141z" />
    <glyph glyph-name="circumflex.sc" horiz-adv-x="493" 
d="M317 574l-72 63l-72 -63h-121l113 171h160l115 -171h-123z" />
    <glyph glyph-name="caron.sc" horiz-adv-x="493" 
d="M327 580h-160l-115 171h123l72 -64l72 64h121z" />
    <glyph glyph-name="breve.sc" horiz-adv-x="563" 
d="M282 679q70 0 80 78h98q0 -83 -55 -133t-128 -50q-79 0 -126.5 48.5t-47.5 134.5h98q10 -78 81 -78z" />
    <glyph glyph-name="tilde.sc" 
d="M396 741l57 -59q-9 -32 -54 -72t-76 -40q-19 0 -70.5 16.5t-63.5 16.5q-17 0 -38 -17t-27 -27l-52 70q-1 1 20.5 25t51.5 48t49 24q23 0 70 -17t60 -17q28 0 73 49z" />
    <glyph glyph-name="macron.sc" horiz-adv-x="460" 
d="M380 708v-15l-29 -100h-271v15l29 100h271z" />
    <glyph glyph-name="dieresis.sc" horiz-adv-x="564" 
d="M292 649q0 24 30.5 57.5t54.5 33.5q25 0 60 -28.5t35 -53.5q0 -23 -31 -56t-53 -33q-26 0 -61 27.5t-35 52.5zM92 649q0 24 30.5 57.5t53.5 33.5q25 0 60.5 -28.5t35.5 -53.5q0 -23 -31.5 -56t-53.5 -33q-25 0 -60 28t-35 52z" />
    <glyph glyph-name="dotaccent.sc" horiz-adv-x="391" 
d="M95 670q0 27 34 64t61 37q26 0 65.5 -31t39.5 -57t-35 -63t-60 -37q-27 0 -66 31t-39 56z" />
    <glyph glyph-name="ring.sc" horiz-adv-x="391" 
d="M306 677q0 -43 -33 -74.5t-78 -31.5q-47 0 -78.5 29t-31.5 77q0 44 33 76t78 32q48 0 79 -28.5t31 -79.5zM154 677q0 -17 11.5 -28.5t29.5 -11.5t30 11.5t12 28.5q0 19 -12 31t-30 12t-29.5 -12t-11.5 -31z" />
    <glyph glyph-name="cedilla.sc" horiz-adv-x="311" 
d="M75 -100l50 100h64l-21 -50q89 -27 89 -78q0 -41 -46 -75t-139 -38l-18 65q96 9 96 34q0 23 -72 37z" />
    <glyph glyph-name="ogonek.sc" horiz-adv-x="381" 
d="M83 -137q0 32 31 69t91 68h83q-101 -70 -101 -119q0 -14 10.5 -23.5t25.5 -9.5q30 0 50 11l22 -71q-15 -8 -45 -17t-50 -9q-52 0 -84.5 27t-32.5 74z" />
    <glyph glyph-name="Dotlessi.sc" horiz-adv-x="302" 
d="M246 529v-529h-186v529h186z" />
    <glyph glyph-name="Tcedilla.sc" horiz-adv-x="509" 
d="M227 0h-62v406l-166 -3l16 126h495l-13 -126l-146 3v-406h-60l-21 -50q89 -27 89 -78q0 -41 -46 -75t-139 -38l-18 65q96 9 96 34q0 23 -72 37l-3 5z" />
    <glyph glyph-name="f_f.sc" horiz-adv-x="980" 
d="M414 190l-170 3v-193h-186v529h401l-15 -121l-200 3v-104h183zM911 190l-170 3v-193h-186v529h401l-15 -121l-200 3v-104h183z" />
    <glyph glyph-name="f_f_i.sc" horiz-adv-x="1296" 
d="M1238 529v-529h-186v529h186zM414 190l-170 3v-193h-186v529h401l-15 -121l-200 3v-104h183zM910 190l-170 3v-193h-186v529h401l-15 -121l-200 3v-104h183z" />
    <glyph glyph-name="f_f_l.sc" horiz-adv-x="1470" 
d="M414 190l-170 3v-193h-186v529h401l-15 -121l-200 3v-104h183zM913 190l-170 3v-193h-186v529h401l-15 -121l-200 3v-104h183zM1054 0v529h186v-408l218 5l-11 -126h-393z" />
    <glyph glyph-name="fi.sc" horiz-adv-x="801" 
d="M743 529v-529h-186v529h186zM414 190l-170 3v-193h-186v529h401l-15 -121l-200 3v-104h183z" />
    <glyph glyph-name="fl.sc" horiz-adv-x="974" 
d="M414 190l-170 3v-193h-186v529h401l-15 -121l-200 3v-104h183zM558 0v529h186v-408l218 5l-11 -126h-393z" />
    </font>
</defs>
</svg>
