<?xml version="1.0" standalone="no"?>
<!DOCTYPE svg PUBLIC "-//W3C//DTD SVG 1.1//EN" "http://www.w3.org/Graphics/SVG/1.1/DTD/svg11.dtd" >
<svg xmlns="http://www.w3.org/2000/svg" xmlns:xlink="http://www.w3.org/1999/xlink" version="1.1">
<metadata>
Created by FontForge 20170731 at Sun Apr  3 01:34:04 2016
 By Aleksey,,,
Universidad Nacional de Colombia, Unidad de Medios de Comunicacio'n (Unimedios), 2012-2015.
</metadata>
<defs>
<font id="AncizarSerif-LightItalic" horiz-adv-x="480" >
  <font-face 
    font-family="Ancizar Serif Light"
    font-weight="300"
    font-style="italic"
    font-stretch="normal"
    units-per-em="1000"
    panose-1="2 10 5 2 7 3 0 0 0 3"
    ascent="750"
    descent="-250"
    x-height="460"
    cap-height="612"
    bbox="-117 -265 1164 893"
    underline-thickness="0"
    underline-position="0"
    slope="-4"
    unicode-range="U+0020-FB04"
  />
<missing-glyph horiz-adv-x="600" 
d="M50 0v703h500v-703h-500zM300 397l170 256h-340zM100 608v-513l170 256zM330 351l170 -256v513zM130 50h340l-170 256z" />
    <glyph glyph-name="f_f" unicode="ff" horiz-adv-x="496" 
d="M169 475l-1 -25h171l1 14q4 98 64 161q-16 0 -34 -2t-21 -2q-98 0 -137 -31.5t-43 -114.5zM164 -227l-12 35l4 26q52 -5 62 -5q45 0 70 33.5t29 114.5l21 443h-172l-20 -417q-6 -115 -68 -172.5t-146 -57.5l-12 35l4 26q52 -5 62 -5q45 0 70 33.5t29 114.5l22 443h-52
l3 30h50q6 101 91.5 162.5t197.5 61.5l12 -23l-4 -25q68 68 171 68l12 -31l-5 -25q-14 1 -27 1t-26 -0.5t-18 -0.5q-59 0 -83.5 -36t-27.5 -112l-2 -40h41l75 5l5 -38l-85 3h-37l-20 -417q-6 -115 -68 -172.5t-146 -57.5z" />
    <glyph glyph-name="fi" unicode="fi" horiz-adv-x="482" 
d="M-68 -227l-12 35l4 26q52 -5 62 -5q44 0 67.5 33t31.5 115l21 443h-51l3 30h50v7q5 56 28.5 101t55 72t70.5 45.5t73 25.5t64 7l13 -23l-5 -26q-2 0 -16 -1t-30 -1q-98 0 -140.5 -35.5t-52.5 -143.5l-1 -28h141l63 4l28 6h12l-14 -65l-26 -328h69l-2 -15l-99 -54l-27 14
l25 399l-72 9h-100l-19 -417q-11 -116 -71 -173t-143 -57z" />
    <glyph glyph-name="fl" unicode="fl" horiz-adv-x="507" 
d="M-68 -227l-12 35l4 26q52 -5 62 -5q44 0 67.5 33t31.5 115l22 443h-52l3 30h51l1 28q6 113 72.5 171.5t150.5 58.5q9 0 51 -7l17 32l16 -3l-46 -628q-3 -54 32 -54q11 0 19.5 2.5t26 16t39.5 39.5l11 -19q-51 -61 -73 -79t-46 -18q-29 0 -48 26t-16 71l36 555l2 4
q-50 6 -72 6q-59 0 -81.5 -34.5t-29.5 -113.5l-3 -54h47l75 5l4 -38l-84 3h-43l-21 -417q-11 -116 -71 -173t-143 -57z" />
    <glyph glyph-name="f_f_i" unicode="ffi" horiz-adv-x="714" 
d="M165 -227l-12 31l5 26q10 -1 61 -1q45 0 68.5 32.5t30.5 115.5l21 443h-173l-20 -417q-6 -115 -68 -172.5t-146 -57.5l-12 35l4 26q52 -5 62 -5q45 0 70 33.5t29 114.5l22 443h-52l3 30h50q6 101 91.5 162.5t197.5 61.5l12 -23l-4 -26q-16 0 -34.5 -2t-21.5 -2
q-98 0 -137 -31.5t-43 -114.5l-1 -25h173v7q5 50 28 93t55.5 71.5t71 48.5t73.5 29t64 9l12 -23l-4 -26q-3 0 -16.5 -1t-29.5 -1q-99 0 -141 -35.5t-52 -143.5l-1 -28h134l70 5l26 5h12l-14 -65l-26 -328h69l-2 -15l-99 -54l-27 14l25 399l-72 9h-98l-20 -417
q-10 -116 -70.5 -173t-143.5 -57z" />
    <glyph glyph-name="f_f_l" unicode="ffl" horiz-adv-x="739" 
d="M169 475l-1 -25h173l1 28q4 83 56 147q-13 -1 -29 -2.5t-20 -1.5q-98 0 -137 -31.5t-43 -114.5zM163 -227l-12 35l5 26q52 -5 61 -5q44 0 67.5 32.5t31.5 115.5l23 443h-173l-20 -417q-6 -115 -68 -172.5t-146 -57.5l-12 35l4 26q52 -5 62 -5q45 0 70 33.5t29 114.5
l22 443h-52l3 30h50q6 101 91.5 162.5t197.5 61.5l14 -27l-3 -11q67 72 157 72q16 0 54 -8l16 34l13 -1l-45 -631q-4 -58 29 -58q35 0 87 62l12 -19q-49 -59 -75.5 -78t-51.5 -19q-28 0 -44 26t-13 71l35 535l11 23q-45 7 -80 7q-58 0 -80.5 -34.5t-29.5 -113.5l-3 -54h47
l75 5l4 -38l-84 3h-43l-22 -417q-10 -116 -70.5 -173t-143.5 -57z" />
    <glyph glyph-name=".notdef" horiz-adv-x="600" 
d="M50 0v703h500v-703h-500zM300 397l170 256h-340zM100 608v-513l170 256zM330 351l170 -256v513zM130 50h340l-170 256z" />
    <glyph glyph-name=".null" horiz-adv-x="0" 
 />
    <glyph glyph-name="nonmarkingreturn" horiz-adv-x="333" 
 />
    <glyph glyph-name="space" unicode=" " horiz-adv-x="223" 
 />
    <glyph glyph-name="exclam" unicode="!" horiz-adv-x="263" 
d="M125 175l-34 -21q19 206 14 459l80 31zM48 34q2 13 19 30t27 17q12 0 29.5 -15.5t15.5 -29.5q-1 -14 -20 -30t-30 -16q-12 0 -27 15t-14 29z" />
    <glyph glyph-name="quotedbl" unicode="&#x22;" horiz-adv-x="261" 
d="M213 490l1 4l-11 199h52l-41 -199v-4h-1zM99 490l-14 203h51z" />
    <glyph glyph-name="numbersign" unicode="#" horiz-adv-x="498" 
d="M281 224l44 145h-133l-44 -145h133zM214 0l62 205h-133l-62 -205h-23l61 205h-101l1 15l2 4h104l43 145h-110l1 15l1 4h114l67 224h24l-67 -224h133l67 224h24l-67 -224h91l-3 -15l-1 -4h-93l-44 -145h102l-1 -15l-3 -4h-103l-62 -205h-24z" />
    <glyph glyph-name="dollar" unicode="$" horiz-adv-x="482" 
d="M203 -140h-41l21 130h-8q-80 0 -142 18l28 110h33l30 -74q31 -8 82 -8q54 0 83.5 22t33.5 76q4 56 -19.5 90.5t-73.5 62.5l-48 28q-53 31 -79 69t-22 94q5 55 48 93t114 48l2 116h46l-28 -114q7 1 23 1q75 0 116 -18l-25 -105h-28l-45 78q-16 7 -62 7q-50 0 -73.5 -22
t-28.5 -66q-6 -93 87 -145l47 -28q58 -35 85 -71.5t24 -90.5q-4 -65 -56 -112.5t-123 -56.5z" />
    <glyph glyph-name="percent" unicode="%" horiz-adv-x="600" 
d="M302 483q-8 -70 -40.5 -108t-74.5 -38q-40 0 -61.5 38t-14.5 98q8 71 41.5 109.5t72.5 38.5q42 0 62.5 -37.5t14.5 -100.5zM32 0l493 612h39l-493 -612h-39zM262 437q8 81 -7 119.5t-44 38.5t-42 -19t-18 -68q-8 -72 7.5 -108.5t44.5 -36.5q28 0 41 17t18 57zM483 136
q-8 -70 -40 -108t-74 -38q-40 0 -62 37.5t-15 98.5q8 71 41.5 109.5t72.5 38.5q42 0 63 -38t14 -100zM443 89q15 159 -50 159q-29 0 -42.5 -19t-18.5 -68q-8 -72 8 -109t45 -37q28 0 40.5 17.5t17.5 56.5z" />
    <glyph glyph-name="ampersand" unicode="&#x26;" horiz-adv-x="563" 
d="M484 -58q0 -45 -65 -118l-11 8q32 33 32 80q0 53 -74 161q-46 -39 -96.5 -61t-88.5 -22q-66 0 -110 39t-41 98q5 55 41.5 98.5t105.5 88.5q-34 41 -51 75t-15 73q3 59 57 109.5t111 50.5q63 0 106 -26l-18 -64l-5 -6q-84 51 -153 51q-22 0 -39.5 -21.5t-20.5 -49.5
q-2 -23 5.5 -46.5t27 -52.5t34.5 -48t47.5 -56t46.5 -54q56 -69 86 -109q59 78 59 165q0 50 -22 72.5t-66 17.5l1 15l95 40q43 0 43 -90q0 -133 -95 -242q73 -105 73 -176zM224 39q66 0 129 53q-28 39 -90 119q-22 30 -72 86q-98 -56 -103 -126q-5 -52 36 -92t100 -40z" />
    <glyph glyph-name="quotesingle" unicode="'" horiz-adv-x="196" 
d="M99 490l-14 203h51z" />
    <glyph glyph-name="parenleft" unicode="(" horiz-adv-x="277" 
d="M48 292q11 154 74 258.5t158 152.5l11 -22q-82 -45 -142 -151.5t-69 -237.5q-9 -132 36 -238.5t122 -151.5l-16 -22q-88 48 -136.5 152.5t-37.5 259.5z" />
    <glyph glyph-name="parenright" unicode=")" horiz-adv-x="277" 
d="M177 291q9 132 -36 238.5t-122 151.5l16 22q88 -48 136.5 -152.5t37.5 -259.5q-11 -154 -74 -258.5t-158 -152.5l-11 22q82 45 142 151.5t69 237.5z" />
    <glyph glyph-name="asterisk" unicode="*" horiz-adv-x="345" 
d="M186 534q-2 70 -24 133l31 11q23 -69 -5 -145zM205 522q64 43 104 98l22 -22q-20 -25 -54.5 -47.5t-68.5 -28.5h-3zM167 521h-2l-1 1q-63 29 -124 34l7 32q31 -2 63.5 -19.5t53.5 -46.5zM205 496q73 -29 128 -34l-7 -32q-30 2 -63.5 19.5t-56.5 45.5zM166 494
q-22 -16 -34 -24.5t-31.5 -28t-37.5 -43.5l-25 22q22 25 56.5 46.5t69.5 27.5h2zM185 482q2 -73 22 -133l-32 -10q-20 72 8 144z" />
    <glyph glyph-name="plus" unicode="+" horiz-adv-x="482" 
d="M428 251h-173l-13 -185h-30l13 185h-172l2 25h172l13 179h30l-13 -179h173z" />
    <glyph glyph-name="comma" unicode="," horiz-adv-x="233" 
d="M86 36q1 15 16.5 32.5t26.5 17.5q14 0 32 -19.5t17 -42.5q-4 -72 -102 -166l-13 12q51 75 51 106q-2 16 -15 33t-13 27z" />
    <glyph glyph-name="hyphen" unicode="-" horiz-adv-x="291" 
d="M270 273l-1 -15l-15 -18h-185l1 15l16 18h184z" />
    <glyph glyph-name="period" unicode="." horiz-adv-x="233" 
d="M80 34q1 15 18.5 34t28.5 19q13 0 30.5 -16t16.5 -29q-1 -15 -19 -33.5t-30 -18.5q-11 0 -28 15t-17 29z" />
    <glyph glyph-name="slash" unicode="/" horiz-adv-x="282" 
d="M20 -110l242 803h28l-243 -803h-27z" />
    <glyph glyph-name="zero" unicode="0" horiz-adv-x="482" 
d="M281 622q181 0 161 -300q-23 -332 -233 -332q-91 0 -135 78t-34 222q25 332 241 332zM246 41q67 -2 98.5 57.5t38.5 201.5q8 138 -27 206t-118 68q-66 0 -97.5 -55.5t-39.5 -184.5q-19 -296 145 -293z" />
    <glyph glyph-name="one" unicode="1" horiz-adv-x="482" 
d="M314 612l-44 -554l93 -45l-1 -13h-284l1 15l128 43l42 513l-124 -60l-10 52l164 49h35z" />
    <glyph glyph-name="two" unicode="2" horiz-adv-x="482" 
d="M394 0h-373v23q59 67 128 141.5t95 103.5t54 65t35.5 58t9.5 52q5 56 -26.5 94t-85.5 38q-25 0 -35 -4l-84 -125h-27l28 128q52 23 84 34t43.5 12.5t28.5 1.5q69 0 109 -47.5t36 -116.5q-3 -41 -26 -81t-49 -68.5t-104 -107t-135 -139.5h249l66 94h21z" />
    <glyph glyph-name="three" unicode="3" horiz-adv-x="482" 
d="M164 -10q-70 0 -126 14h-1l21 69h18l61 -56q111 1 159.5 33.5t53.5 106.5q3 57 -37 96.5t-126 39.5q-30 0 -47 -2l16 41q26 -4 53 -4q59 0 96 30.5t41 82.5q5 72 -29 108t-93 36q-16 0 -34 -3l-81 -104h-27l21 96q74 30 106 39t68 9q60 0 103 -41.5t37 -112.5
q-7 -101 -133 -146q150 -32 142 -158q-4 -68 -82.5 -121t-179.5 -53z" />
    <glyph glyph-name="four" unicode="4" horiz-adv-x="482" 
d="M280 176l23 325l-240 -325h217zM455 120h-111l-8 -120h-68l8 120h-286l1 13l359 489h29l-31 -446h127z" />
    <glyph glyph-name="five" unicode="5" horiz-adv-x="482" 
d="M143 -10q-57 0 -119 12l3 4l18 67h17l57 -56q109 1 158.5 34t54.5 101q7 75 -39 118.5t-171 43.5v1l-37 -10l39 293l19 14h256l31 29h20l-23 -89h-274l-25 -196q6 0 18.5 2t15.5 2q135 0 192.5 -45t52.5 -125q-7 -90 -81 -145t-183 -55z" />
    <glyph glyph-name="six" unicode="6" horiz-adv-x="482" 
d="M429 190q-3 -40 -19 -74t-38 -56.5t-48.5 -39t-52 -23.5t-47.5 -7q-94 0 -135.5 73.5t-32.5 195.5q12 185 83.5 274t182.5 89q65 0 111 -20l-28 -123h-20l-44 103q-9 3 -38 3q-42 0 -71.5 -11.5t-55 -43t-41 -91.5t-22.5 -152q0 -3 -0.5 -7t-0.5 -7q80 62 168 62
q67 0 110 -40t39 -105zM254 32q107 0 114 127q3 63 -32 97t-90 34q-30 0 -68.5 -15t-65.5 -36q1 -94 40.5 -150.5t101.5 -56.5z" />
    <glyph glyph-name="seven" unicode="7" horiz-adv-x="482" 
d="M159 0h-54l1 17l284 533h-235l-62 -78h-21l31 140h341v-18z" />
    <glyph glyph-name="eight" unicode="8" horiz-adv-x="482" 
d="M211 -11q-76 0 -122.5 42t-39.5 106q10 110 160 190q-59 36 -87.5 72t-24.5 85q5 51 61.5 95t122.5 44q64 0 108 -35.5t37 -95.5q-3 -27 -12 -48t-30.5 -42t-36.5 -32.5t-50 -36.5q78 -47 106.5 -82t23.5 -90q-5 -66 -69.5 -119t-146.5 -53zM161 496q-3 -40 22 -74
t86 -72q84 49 93 121q6 55 -27.5 87t-81.5 32q-40 0 -63.5 -25.5t-28.5 -68.5zM246 32q52 0 83 23.5t36 83.5q4 54 -24 89.5t-104 81.5l2 -3q-113 -53 -122 -145q-6 -62 34 -96t95 -34z" />
    <glyph glyph-name="nine" unicode="9" horiz-adv-x="482" 
d="M238 293q80 0 129 43q5 117 -29 180.5t-104 63.5q-49 0 -75.5 -33.5t-31.5 -114.5q-4 -65 26 -102t85 -37zM122 -10q-30 0 -67 10v22l2 -1q1 -1 2 -1l11 52h20l45 -53q91 11 155 80.5t75 201.5q-63 -47 -156 -47q-73 0 -111 45.5t-32 121.5q7 91 67.5 146t127.5 55
q77 0 125.5 -64.5t38.5 -205.5q-6 -95 -35.5 -167.5t-73 -113.5t-92.5 -61t-102 -20z" />
    <glyph glyph-name="colon" unicode=":" horiz-adv-x="233" 
d="M99 314q1 15 18.5 34t28.5 19q13 0 30.5 -16t16.5 -29q-1 -15 -19 -33.5t-30 -18.5q-11 0 -28 15t-17 29zM80 34q1 15 18.5 34t28.5 19q13 0 30.5 -16t16.5 -29q-1 -15 -19 -33.5t-30 -18.5q-11 0 -28 15t-17 29z" />
    <glyph glyph-name="semicolon" unicode=";" horiz-adv-x="233" 
d="M99 314q1 15 18.5 34t28.5 19q13 0 30.5 -16t16.5 -29q-1 -15 -19 -33.5t-30 -18.5q-11 0 -28 15t-17 29zM86 36q1 15 16.5 32.5t26.5 17.5q14 0 32 -19.5t17 -42.5q-4 -72 -102 -166l-13 12q51 75 51 106q-2 16 -15 33t-13 27z" />
    <glyph glyph-name="less" unicode="&#x3c;" horiz-adv-x="482" 
d="M66 252l1 12l337 220l18 -25l-308 -200l278 -202l-19 -25z" />
    <glyph glyph-name="equal" unicode="=" horiz-adv-x="482" 
d="M395 320l-1 -25h-326l2 25h325zM389 217l-2 -25h-325l1 25h326z" />
    <glyph glyph-name="greater" unicode="&#x3e;" horiz-adv-x="482" 
d="M441 266l-1 -12l-337 -220l-18 25l308 200l-278 202l19 25z" />
    <glyph glyph-name="question" unicode="?" horiz-adv-x="385" 
d="M197 242q-1 -14 2.5 -25t8.5 -20t6 -13l-47 -21l-5 7q-4 6 -7 11t-6.5 12.5t-5.5 15t-1 14.5q2 31 24 57.5t47.5 45t48 53t25.5 78.5q4 49 -29.5 81t-88.5 32q-27 0 -35 -5l-80 -127h-15l32 139q26 9 53 20t37.5 15t23 7t24.5 3q74 0 115.5 -38t36.5 -98
q-2 -40 -19.5 -72t-41 -52.5t-46.5 -37.5t-39.5 -37.5t-17.5 -44.5zM118 34q1 13 19 30t29 17q12 0 30.5 -15.5t16.5 -29.5q0 -13 -18 -29.5t-29 -16.5q-12 0 -30.5 15.5t-17.5 28.5z" />
    <glyph glyph-name="at" unicode="@" horiz-adv-x="703" 
d="M284 -151q-43 0 -88 20.5t-85.5 60t-63.5 109t-17 155.5q16 216 129.5 343t269.5 127q128 0 198 -73.5t60 -210.5q-17 -235 -261 -333v134l1 12q-38 -63 -79 -101t-67 -38q-72 0 -60 164q8 114 62 182.5t132 68.5q43 0 78 -18l-25 -355q69 36 113 102t50 152
q8 122 -51 190t-175 68q-139 0 -223 -94t-96 -268q-6 -91 12.5 -159.5t57 -107.5t86.5 -58t105 -19q80 0 184 42l6 -20q-88 -47 -140.5 -61t-112.5 -14zM313 105q34 0 75 59.5t48 154.5l6 86q-31 11 -76 11q-47 0 -65 -29.5t-26 -129.5q-5 -83 2.5 -117.5t35.5 -34.5z" />
    <glyph glyph-name="A" unicode="A" horiz-adv-x="557" 
d="M352 277l-69 267l-107 -267h176zM157 0h-181l1 15l61 43l246 544l44 25l158 -570l56 -42l-1 -15h-225l1 15l90 43h2l-48 186h-199l-75 -186l71 -43z" />
    <glyph glyph-name="B" unicode="B" horiz-adv-x="488" 
d="M148 -1v1h-127l1 15l74 43l34 496l-68 44l1 14h205q81 0 127 -43.5t41 -106.5q-6 -96 -113 -134q57 -14 92.5 -55.5t31.5 -97.5q-6 -80 -68 -127.5t-156 -47.5q-69 0 -75 -1zM254 331q107 0 117 102q6 70 -30 108t-99 38q-13 0 -28 -0.5t-18 -0.5l-17 -236q27 -11 75 -11
zM241 30q128 0 135 110q4 82 -34 122.5t-100 40.5q-28 0 -66 -5l-17 -258q50 -10 82 -10z" />
    <glyph glyph-name="C" unicode="C" horiz-adv-x="553" 
d="M452 145l22 -1l-30 -116q-79 -38 -158 -38q-104 0 -163.5 85t-48.5 244q9 137 93.5 220t197.5 83q72 0 124 -27l-29 -107h-20l-53 83q-9 2 -56 2q-103 0 -146 -53t-53 -188q-9 -146 49 -225t147 -79q23 0 41 6z" />
    <glyph glyph-name="D" unicode="D" horiz-adv-x="596" 
d="M273 37q88 0 138.5 55t60.5 180q12 151 -57.5 229t-194.5 78h-24l-36 -527q52 -15 113 -15zM21 0l1 15l74 43l34 496l-68 44l1 14h203q138 0 209 -75.5t60 -228.5q-22 -308 -314 -308h-200z" />
    <glyph glyph-name="E" unicode="E" horiz-adv-x="487" 
d="M28 0l1 15l73 43l34 496l-67 44l1 14h393l-29 -124h-22l-41 91h-168l-17 -248h60l133 8l-10 -47l-122 13h-63l-19 -272h180l79 105h22l-36 -138h-382z" />
    <glyph glyph-name="F" unicode="F" horiz-adv-x="453" 
d="M253 13l-1 -13h-224l1 15l73 43l34 496l-67 44l1 14h381l-28 -119h-22l-41 86h-157l-18 -258h58l129 8l-12 -47l-116 13h-61l-16 -237z" />
    <glyph glyph-name="G" unicode="G" horiz-adv-x="573" 
d="M412 44l12 171l-64 44l1 14h192v-15l-67 -43l-13 -188q-84 -37 -178 -37q-116 0 -174 82.5t-47 246.5q8 135 91 219t194 84q101 0 142 -35l-25 -99h-21l-45 74q-28 11 -81 11q-107 0 -147.5 -53.5t-49.5 -188.5q-10 -143 44 -222.5t151 -79.5q45 0 85 15z" />
    <glyph glyph-name="H" unicode="H" horiz-adv-x="632" 
d="M226 13l1 -13h-206v15l75 43l34 496l-69 44l2 14h206l-3 -15l-72 -43l-15 -220h278l15 220l-70 44l3 14h205l-3 -15l-72 -43l-34 -496l66 -45l1 -13h-205l-1 15l76 43l17 247h-278l-17 -247z" />
    <glyph glyph-name="I" unicode="I" horiz-adv-x="292" 
d="M194 554l-34 -496l66 -45l1 -13h-206v15l75 43l34 496l-69 44l2 14h206l-3 -15z" />
    <glyph glyph-name="J" unicode="J" horiz-adv-x="338" 
d="M161 119l30 435l-85 44l1 14h221l-1 -15l-74 -43l-28 -407q-5 -75 -56 -116t-120 -41q-41 0 -65 11l23 94h22l42 -81q84 17 90 105z" />
    <glyph glyph-name="K" unicode="K" horiz-adv-x="581" 
d="M477 -10q-32 0 -59 20.5t-77.5 89.5t-140.5 214l-17 28l253 214l-63 41l1 15h169l-1 -15l-52 -33l-246 -213q29 -44 55.5 -81t47.5 -65t38 -50t30.5 -38t23.5 -27t18.5 -19t12.5 -11.5t10 -7.5l6 -5q28 -17 76 -15v-22q-41 -20 -85 -20zM194 554l-34 -496l68 -45l-1 -13
h-206l1 15l74 43l34 496l-68 44l1 14h206l-1 -15z" />
    <glyph glyph-name="L" unicode="L" horiz-adv-x="471" 
d="M28 0l1 15l73 43l34 496l-67 44l1 14h224l-1 -15l-92 -43l-36 -521h181l87 111h22l-38 -144h-389z" />
    <glyph glyph-name="M" unicode="M" horiz-adv-x="792" 
d="M195 13l-1 -13h-179l1 15l73 43l69 496l-67 44l1 14h140l152 -490l237 490h143l-1 -15l-74 -43l-7 -496l68 -45l-1 -13h-204l1 15l74 43l8 476l-241 -489l-38 -23l-160 509l-62 -473z" />
    <glyph glyph-name="N" unicode="N" horiz-adv-x="630" 
d="M497 -1h-29l-292 509l-31 -450l68 -45l-1 -13h-180l1 15l73 43l34 496l-67 44l1 14h123l270 -471l30 413l-65 45l1 13h177l-1 -15l-73 -43z" />
    <glyph glyph-name="O" unicode="O" horiz-adv-x="621" 
d="M346 622q105 0 160 -90t32 -250q-19 -131 -98 -211.5t-169 -80.5q-105 0 -160 90t-32 250q19 131 98 211.5t169 80.5zM297 42q85 0 126.5 50t57.5 176q17 145 -32 223.5t-134 78.5q-81 0 -122 -50t-57 -176q-17 -145 31.5 -223.5t129.5 -78.5z" />
    <glyph glyph-name="P" unicode="P" horiz-adv-x="486" 
d="M265 311q109 0 124 118q8 63 -29.5 106.5t-131.5 43.5h-25l-18 -265q38 -3 80 -3zM253 13l1 -13h-226l-1 15l75 43l34 496l-69 44l3 14h191q106 0 156 -42t44 -106q-8 -82 -77 -136t-142 -54q-21 0 -60 3l-15 -219z" />
    <glyph glyph-name="Q" unicode="Q" horiz-adv-x="621" 
d="M445 -167q-32 0 -125.5 42.5t-120.5 37.5q-67 -37 -82 -38q-15 2 -16 25q0 31 18.5 41t90.5 11q40 19 66 38h-5q-105 0 -160 90t-32 250q19 131 98 211.5t169 80.5q105 0 160 -90t32 -250q-23 -155 -128 -238h3q-65 -55 -158 -96q34 -7 84 -20t86 -22.5t50 -9.5
q51 0 97 27l3 -13q-51 -47 -76 -62t-54 -15zM297 42q85 0 126.5 50t57.5 176q17 145 -32 223.5t-134 78.5q-81 0 -122 -50t-57 -176q-17 -145 31.5 -223.5t129.5 -78.5z" />
    <glyph glyph-name="R" unicode="R" horiz-adv-x="563" 
d="M477 -10q-30 0 -54 22t-59 88.5t-90 200.5q-22 -2 -32 -2q-28 0 -58 3l-17 -244l76 -45l1 -13h-216l-1 15l75 43l34 496l-69 44l3 14h190q104 0 156 -46t46 -103q-9 -109 -131 -149q114 -232 149 -260q30 -25 85 -20v-24q-52 -20 -88 -20zM263 338q117 0 127 84
q10 73 -33 115t-129 42h-25l-17 -238q75 -3 77 -3z" />
    <glyph glyph-name="S" unicode="S" horiz-adv-x="438" 
d="M231 287l-48 28q-53 31 -79 69t-22 94q5 63 61 103.5t144 40.5q75 0 116 -18l-25 -105h-28l-45 78q-16 7 -62 7q-50 0 -73.5 -22t-28.5 -66q-6 -93 87 -145l47 -28q58 -35 85 -71.5t24 -90.5q-4 -73 -66.5 -122t-141.5 -49q-80 0 -142 18l28 110h33l30 -74q31 -8 82 -8
q54 0 83.5 22t33.5 76q4 56 -19.5 90.5t-73.5 62.5z" />
    <glyph glyph-name="T" unicode="T" horiz-adv-x="518" 
d="M352 13l-1 -13h-223l1 15l83 43l36 521h-81l-95 -91h-23l42 124h420l-28 -124h-23l-45 91h-105l-36 -521z" />
    <glyph glyph-name="U" unicode="U" horiz-adv-x="627" 
d="M204 554l-24 -333q-5 -81 30.5 -126t114.5 -45q72 0 107 33t40 114l25 357l-70 45l1 13h185l-1 -15l-80 -43l-24 -332q-8 -109 -66 -170.5t-156 -61.5q-85 0 -131 55t-39 154l25 355l-68 44l1 14h205l-1 -15z" />
    <glyph glyph-name="V" unicode="V" horiz-adv-x="599" 
d="M290 10l-43 -25l-148 570l-63 42l1 15h231l-1 -15l-89 -43h-2l112 -471l199 472l-70 42l1 15h181l-1 -15l-61 -43h-1z" />
    <glyph glyph-name="W" unicode="W" horiz-adv-x="949" 
d="M640 -15l-159 507l-206 -482l-43 -25l-134 569h-1l-61 43l1 15h206l-1 -15l-82 -43l107 -468l195 467v1h1l24 58h15l171 -527l154 469l-67 43l1 15h188l-1 -15l-74 -42l-190 -545z" />
    <glyph glyph-name="X" unicode="X" horiz-adv-x="583" 
d="M186 0h-196l1 15l76 38l192 265l-138 236l-69 43l1 15h233l-1 -15l-89 -43h-2l114 -194l134 195l-66 42l1 15h196l-1 -15l-76 -39l-168 -232l157 -268l69 -43l-1 -15h-233l1 15l89 43h1l-132 226l-158 -227l66 -42z" />
    <glyph glyph-name="Y" unicode="Y" horiz-adv-x="553" 
d="M369 13l-1 -13h-206l1 15l74 43l14 212h-1l-145 284h-2l-59 43l1 15h214l-1 -15l-83 -43l119 -240l148 240h-3l-66 43l1 15h188l-1 -15l-72 -42l-173 -279l-15 -218z" />
    <glyph glyph-name="Z" unicode="Z" horiz-adv-x="497" 
d="M411 0h-383v16l347 560h-198l-87 -104h-21l31 140h359l-1 -18l-351 -558h229l94 114h21z" />
    <glyph glyph-name="bracketleft" unicode="[" horiz-adv-x="277" 
d="M66 -110l56 803h170l-2 -28h-138l-52 -747h139l-3 -28h-170z" />
    <glyph glyph-name="backslash" unicode="\" horiz-adv-x="329" 
d="M29 693l287 -803h-29l-287 803h29z" />
    <glyph glyph-name="bracketright" unicode="]" horiz-adv-x="277" 
d="M-2 -110l2 28h138l52 747h-139l3 28h170l-56 -803h-170z" />
    <glyph glyph-name="asciicircum" unicode="^" horiz-adv-x="500" 
d="M285 624l165 -391h-44l-160 286l-181 -286h-44l221 391h43z" />
    <glyph glyph-name="underscore" unicode="_" horiz-adv-x="440" 
d="M440 -110v-25h-440v25h440z" />
    <glyph glyph-name="grave" unicode="`" 
d="M281 678l66 -167h-20l-112 142z" />
    <glyph glyph-name="a" unicode="a" horiz-adv-x="433" 
d="M166 47q8 0 20.5 7t29.5 26.5t32 48t28 77.5t18 109l5 71q-44 29 -95 29q-49 0 -63 -17q-30 -40 -40 -188q-6 -78 11.5 -120.5t53.5 -42.5zM271 12l9 123q-42 -74 -76.5 -107t-70.5 -33q-43 0 -70.5 50.5t-19.5 157.5q7 97 57 177t102 80q49 0 117 -22l23 26l14 -10
l-26 -387h70l-2 -15l-100 -54z" />
    <glyph glyph-name="b" unicode="b" horiz-adv-x="441" 
d="M236 40q49 0 63 17q31 39 41 188q5 78 -12 120.5t-53 42.5q-12 0 -30.5 -12t-41.5 -38.5t-42.5 -80.5t-27.5 -125l-6 -85q44 -27 109 -27zM123 7l-41 -16l-14 10l43 623h-66l2 14l114 55h20l-18 -117l-18 -256q81 140 162 140q43 0 71 -50.5t20 -157.5q-7 -97 -57.5 -177
t-101.5 -80q-61 0 -113 17l-1 25z" />
    <glyph glyph-name="c" unicode="c" horiz-adv-x="314" 
d="M43 195q9 111 61 188t117 77q19 0 27.5 -0.5t23.5 -7t31 -19.5l-27 -45l-12 -2q-49 28 -78 28q-23 0 -43 -21q-25 -21 -40 -173q-9 -86 14 -132t63 -46q18 0 26 1.5t26.5 13t43.5 37.5l10 -13q-56 -61 -83 -76t-60 -15q-48 0 -78 53t-22 152z" />
    <glyph glyph-name="d" unicode="d" horiz-adv-x="452" 
d="M166 47q9 0 22.5 7t32 25.5t35 46t30.5 75t21 105.5l5 75q-18 14 -51.5 24t-56.5 10q-49 0 -63 -17q-30 -40 -40 -188q-6 -78 11.5 -120.5t53.5 -42.5zM287 13l8 123q-82 -141 -162 -141q-43 0 -70.5 50.5t-19.5 157.5q7 97 57 177t102 80q64 0 115 -17l12 181h-66l2 14
l113 55h21l-18 -117l-36 -509h71l-2 -15l-100 -53z" />
    <glyph glyph-name="e" unicode="e" horiz-adv-x="329" 
d="M145 -10q-46 0 -78.5 54t-22.5 159q11 117 62 187t126 70q35 0 57 -27.5t20 -66.5q-2 -49 -55.5 -94.5t-150.5 -58.5q0 -1 -0.5 -5t-0.5 -5q-9 -76 14 -120.5t65 -44.5q31 0 52 9.5t50 38.5l9 -12q-46 -51 -79.5 -67.5t-67.5 -16.5zM173 423q-45 -39 -67 -189
q73 8 108.5 39.5t36.5 72.5q1 29 -16 54t-47 25q-12 0 -15 -2z" />
    <glyph glyph-name="f" unicode="f" horiz-adv-x="262" 
d="M-42 -227l-12 34l4 26q31 -4 60 -4q68 0 73 130l24 461h-52l3 30h51l1 28q6 112 77.5 171t158.5 59l12 -34l-5 -26q-29 4 -71 4q-62 0 -84.5 -34t-26.5 -114l-3 -54h40l75 5l1 -38l-81 3h-36l-22 -422q-4 -97 -49.5 -151t-137.5 -74z" />
    <glyph glyph-name="g" unicode="g" horiz-adv-x="358" 
d="M128 -195q-67 0 -106 24t-38 62q0 14 3 26t13 24t17.5 20.5t25.5 20.5t27.5 18.5t33.5 20.5t34 20l-22 13q-20 14 -27.5 24t-7.5 27q0 11 11 23.5t23.5 22t39.5 27.5q-42 3 -74.5 39.5t-28.5 94.5q6 68 50.5 108t108.5 40q37 0 69 -29l85 99l34 -35v-17l-111 -55
q37 -40 31 -100q-4 -58 -35 -94t-81 -47h1q-58 -38 -60 -57q-1 -7 4 -14t11.5 -12t6.5 -6l64 -32q62 -31 80.5 -55.5t18.5 -56.5q0 -52 -62.5 -98t-138.5 -46zM262 303q4 55 -16 90.5t-65 35.5q-66 0 -72 -99q-3 -52 19.5 -88.5t65.5 -36.5q29 0 47.5 24.5t20.5 73.5z
M146 -159q52 0 87 23t33 55q-3 53 -63 86l-44 25q-57 -39 -85.5 -66t-31.5 -57q-2 -28 28 -47t76 -19z" />
    <glyph glyph-name="h" unicode="h" horiz-adv-x="456" 
d="M316 -2l-27 14q27 190 31 244q6 89 -6 120.5t-41 31.5q-12 0 -31 -14.5t-41 -41.5t-41 -78t-26 -113l-10 -149l-46 -12h-11l42 624h-66l2 14l113 55h21l-18 -117l-18 -277q40 86 83.5 123.5t78.5 37.5q48 0 64.5 -45.5t6.5 -156.5q-2 -21 -28 -191h69l-2 -15z" />
    <glyph glyph-name="i" unicode="i" horiz-adv-x="250" 
d="M113 617q2 14 15.5 31.5t24.5 17.5q9 0 22 -14t13 -26q-2 -14 -16 -31t-24 -17t-22.5 13.5t-12.5 25.5zM137 67h69l-2 -15l-99 -54l-27 14l27 387l-72 9l3 13l129 39h12l-14 -65z" />
    <glyph glyph-name="j" unicode="j" horiz-adv-x="220" 
d="M113 617q2 14 15.5 31.5t24.5 17.5q9 0 22 -14t13 -26q-2 -14 -16 -31t-24 -17t-22.5 13.5t-12.5 25.5zM163 395l-27 -384q-9 -121 -57 -179.5t-120 -58.5l-12 34l4 25q32 -3 48 -3q68 0 74 106l32 464l-72 9l3 13l129 39h12z" />
    <glyph glyph-name="k" unicode="k" horiz-adv-x="441" 
d="M339 -12q-18 0 -31 8t-30 34.5t-34.5 81.5t-39.5 144q-48 -35 -66 -45v1l-13 -200l-47 -12h-10l41 624h-65l2 14l113 55h21l-19 -117l-22 -338q44 29 101.5 78t65.5 63q5 11 -10 17.5t-34 6.5l3 13q10 8 21.5 17t19 14.5t21.5 12.5q31 -9 42.5 -16.5t11.5 -26.5
q0 -14 -51 -59.5t-115 -93.5l35 26q33 -106 55.5 -162.5t34.5 -73t25 -16.5q29 0 63 40l13 -20q-37 -44 -57.5 -57t-44.5 -13z" />
    <glyph glyph-name="l" unicode="l" horiz-adv-x="269" 
d="M161 576l-32 -474q-3 -56 33 -56q33 0 84 60l11 -19q-42 -59 -67.5 -78t-51.5 -19q-30 0 -48.5 26t-15.5 71l35 537h-65l2 14l113 55h21z" />
    <glyph glyph-name="m" unicode="m" horiz-adv-x="700" 
d="M559 -2l-27 14q26 177 30 244q10 152 -41 152q-12 0 -30.5 -12.5t-39.5 -36.5t-40.5 -68.5t-28.5 -98.5q-2 -21 -17 -180l-41 -12h-11q4 70 10.5 153t9 126t0.5 65q-4 31 -14 47.5t-32 16.5q-13 0 -32.5 -13.5t-41 -40t-40 -74.5t-26.5 -108l-12 -160l-47 -12h-10l29 399
l-72 9l2 13l120 39h12l-13 -171q51 98 91 134.5t76 36.5q28 0 44.5 -21.5t22.5 -78.5q3 -25 0 -68q51 96 90.5 132t75.5 36q37 0 54.5 -43t8.5 -157q-1 -13 -29 -193h69l-2 -15z" />
    <glyph glyph-name="n" unicode="n" horiz-adv-x="470" 
d="M328 -2l-27 14q27 185 30 244q4 61 -1 96t-15.5 45.5t-29.5 10.5q-12 0 -30.5 -13.5t-40 -40t-40.5 -74.5t-27 -108l-12 -160l-47 -12h-10l29 399l-72 9l2 13l120 39h12l-12 -156q39 84 81.5 120t77.5 36q48 0 65 -45.5t7 -156.5q-2 -21 -28 -191h69l-2 -15z" />
    <glyph glyph-name="o" unicode="o" horiz-adv-x="430" 
d="M388 233q-13 -117 -73.5 -180t-140.5 -63q-67 0 -104 63t-26 164q13 116 72 179.5t135 63.5q72 0 110 -63t27 -164zM323 209q12 99 -17.5 157.5t-83.5 58.5q-55 0 -79 -40.5t-35 -144.5q-11 -98 18.5 -156.5t83.5 -58.5t78.5 41t34.5 143z" />
    <glyph glyph-name="p" unicode="p" horiz-adv-x="453" 
d="M249 40q48 0 63 17q30 40 40 188q6 78 -11.5 120.5t-53.5 42.5q-12 0 -30.5 -12t-41 -38.5t-42.5 -80t-28 -124.5l-5 -83q20 -13 52.5 -21.5t56.5 -8.5zM217 -203v-17h-200v15l51 33l35 571l-71 9l3 13l119 39h12l-10 -141q85 141 163 141q43 0 71 -50.5t20 -157.5
q-7 -97 -57 -177t-102 -80q-66 0 -115 16l-12 -175z" />
    <glyph glyph-name="q" unicode="q" horiz-adv-x="438" 
d="M380 -220h-199v17l94 39l23 300q-85 -141 -165 -141q-43 0 -70.5 50.5t-19.5 157.5q7 97 57 177t102 80q60 0 129 -27l27 31l14 -10l-45 -626l54 -33zM166 47q10 0 24 7t33.5 27t36.5 49t31.5 79t20.5 112l4 56q-24 18 -56.5 28t-55.5 10q-49 0 -63 -17q-30 -40 -40 -188
q-6 -78 11.5 -120.5t53.5 -42.5z" />
    <glyph glyph-name="r" unicode="r" horiz-adv-x="314" 
d="M135 12l-47 -12h-10l29 399l-72 9l2 13l120 39h12l-11 -143q19 45 42 76t43 44t33 18t22 5v-76l-10 -10h-17q-15 0 -32 -7.5t-37 -26.5t-35 -62t-19 -104v8z" />
    <glyph glyph-name="s" unicode="s" horiz-adv-x="330" 
d="M119 -10q-50 0 -97 18l17 56h17q9 -5 27.5 -16.5t32 -17.5t26.5 -6q31 0 47.5 18t18.5 43q2 38 -17.5 71t-76.5 80q-21 20 -34.5 49.5t-9.5 58.5q5 53 42.5 84.5t91.5 31.5q45 0 89 -14l-13 -59h-15q-6 3 -25 14t-34.5 18t-26.5 7q-26 0 -37 -13.5t-15 -41.5
q-5 -31 10.5 -58t51.5 -61q87 -78 80 -138q-5 -54 -48.5 -89t-101.5 -35z" />
    <glyph glyph-name="t" unicode="t" horiz-adv-x="307" 
d="M284 80q-47 -53 -74.5 -71.5t-52.5 -18.5q-35 0 -60.5 35.5t-18.5 108.5l28 286h-75l3 30h75l10 101l35 9h22l-11 -110h20l119 5l1 -38l-124 3h-19l-23 -235q-8 -81 6.5 -111t43.5 -30q16 0 32.5 10.5t52.5 45.5z" />
    <glyph glyph-name="u" unicode="u" horiz-adv-x="462" 
d="M288 12l10 139q-74 -161 -149 -161q-48 0 -64.5 45.5t-6.5 156.5q4 42 30 207l-72 9l2 13l117 39h11q-25 -170 -32 -266q-6 -89 6 -120.5t41 -31.5q12 0 30 15.5t38 45t36.5 83.5t22.5 121v-2l9 131l46 24h11l-27 -393h69l-2 -15l-99 -54z" />
    <glyph glyph-name="v" unicode="v" horiz-adv-x="406" 
d="M170 -10h-30l-61 409l-82 9l3 13l118 39h11l63 -407q54 63 93 147t39 131q0 38 -8 52.5t-44 24.5l3 13q17 11 72 39q3 0 9 -4.5t13 -18.5t7 -33q0 -103 -70 -237.5t-136 -176.5z" />
    <glyph glyph-name="w" unicode="w" horiz-adv-x="624" 
d="M364 -10l-38 275q-32 -91 -87 -174.5t-93 -100.5h-30l-37 409l-82 9l2 13l118 39h12l41 -407q51 60 93 146.5t51 150.5l-7 49l-66 9l3 13l94 39h12l60 -415q55 62 93 149t38 137q0 21 -1 30t-5.5 19.5t-15.5 16.5t-30 11l3 13q32 21 73 39q5 0 11 -4.5t12 -18t6 -33.5
q0 -104 -67.5 -238t-132.5 -176h-30z" />
    <glyph glyph-name="x" unicode="x" horiz-adv-x="431" 
d="M128 16q-18 -8 -35.5 -14.5t-32.5 -13.5q-18 0 -29 4.5t-10 18.5q0 26 28 64t141 150q-38 123 -53.5 157.5t-31.5 34.5q-21 0 -50 -35l-12 20q28 35 47.5 46.5t42.5 11.5q22 0 35 -9.5t31 -53.5t39 -134q85 92 85 120q0 30 -46 38l3 13q18 8 37.5 13t37.5 13
q12 0 19.5 -1t13.5 -6.5t6 -15.5q0 -25 -27.5 -64.5t-120.5 -131.5l-4 6l3 -15q21 -67 33.5 -104t22 -58t15.5 -26.5t15 -5.5q31 0 63 42l13 -20q-37 -44 -58 -57t-45 -13q-23 0 -36 10.5t-31.5 58t-40.5 143.5q-101 -109 -101 -140q0 -27 36 -33z" />
    <glyph glyph-name="y" unicode="y" horiz-adv-x="408" 
d="M-27 -227q-13 0 -24 3q-2 19 -11 33q-2 4 -2 -2l4 26q10 -1 38 -1q78 0 126.5 37t95.5 121h-37l-82 409l-82 9l2 13l118 39h12l89 -432l9 18q91 178 91 276q0 39 -9 55t-45 26l3 13q28 18 86 44q29 0 29 -67q0 -42 -33.5 -146t-84.5 -208q-131 -266 -293 -266zM-52 -224
h1q0 -2 -1 0z" />
    <glyph glyph-name="z" unicode="z" horiz-adv-x="384" 
d="M243 -12q-34 0 -102 9t-80 9q-28 0 -47 -17l-14 8l264 394q-27 1 -71 4t-59 3q-26 0 -43.5 -12.5t-35.5 -52.5h-13q12 66 21.5 92t18.5 31.5t33 5.5q26 0 85 -9t77 -9q35 0 53 19l16 -12l-267 -395q30 -1 87 -4t76 -3q37 0 56 15t34 61h14q-8 -50 -16.5 -78.5t-23 -41
t-26.5 -15t-37 -2.5z" />
    <glyph glyph-name="braceleft" unicode="{" horiz-adv-x="277" 
d="M138 369q3 32 1.5 106.5t1.5 105.5q7 119 128 119l-2 -26q-46 0 -68 -21.5t-25 -48.5q-2 -32 0 -108.5t0 -103.5q-3 -43 -17.5 -66t-53.5 -33v-3q37 -10 48.5 -33t8.5 -66q-2 -25 -14.5 -102t-14.5 -110q-3 -27 17 -48.5t66 -21.5l-3 -26q-75 0 -99 47q-14 28 -11 72
q2 32 13.5 106.5t13.5 105.5q2 9 0.5 20t-6 21t-23 18t-48.5 10v17q31 2 50.5 9t26.5 20t8 19t2 21z" />
    <glyph glyph-name="bar" unicode="|" horiz-adv-x="252" 
d="M75 -220l64 913h31l-64 -913h-31z" />
    <glyph glyph-name="braceright" unicode="}" horiz-adv-x="277" 
d="M132 214q-3 -32 -1.5 -106.5t-1.5 -105.5q-7 -119 -128 -119l2 26q46 0 68 21.5t25 48.5q2 32 0 108.5t0 103.5q3 43 17.5 66t53.5 33v3q-37 10 -48.5 33t-8.5 66q2 25 14.5 102t14.5 110q3 27 -17 48.5t-66 21.5l3 26q75 0 99 -47q14 -28 11 -72q-2 -32 -13.5 -106.5
t-13.5 -105.5q-2 -9 -0.5 -20t6 -21t23 -18t48.5 -10v-17q-31 -2 -50.5 -9t-26.5 -20t-8 -19t-2 -21z" />
    <glyph glyph-name="asciitilde" unicode="~" horiz-adv-x="500" 
d="M326 269q7 0 13.5 0.5t13 3.5t10.5 4t11 6t10 7t10.5 9t9 8.5l10.5 10.5l10 10l11 -13q-8 -10 -21.5 -26t-19 -23t-15.5 -18t-16 -15.5t-14.5 -9.5t-16.5 -7t-17 -2q-29 0 -86 18t-81 18q-46 0 -104 -52l-6 13q59 65 77 77q22 15 51 15q30 0 86 -17t74 -17z" />
    <glyph glyph-name="exclamdown" unicode="&#xa1;" horiz-adv-x="285" 
d="M214 404q-2 -13 -19 -30t-27 -17q-12 0 -29.5 15.5t-15.5 29.5q1 14 20 30t30 16q12 0 27 -15t14 -29zM137 263l34 21q-19 -206 -14 -459l-80 -31z" />
    <glyph glyph-name="cent" unicode="&#xa2;" horiz-adv-x="482" 
d="M368 162q-65 -71 -110 -87l-2 -135h-42l24 131q-7 -1 -21 -1q-51 0 -91.5 50.5t-32.5 150.5q9 122 67 192.5t128 76.5l1 125h45l-24 -125q60 -4 90 -34l-30 -56l-13 -1q-12 11 -49 25.5t-57 14.5q-22 0 -37 -18q-17 -23 -25.5 -37.5t-19.5 -49.5t-16 -84
q-8 -77 24 -127.5t73 -50.5q19 0 29.5 1.5t32.5 14t47 37.5z" />
    <glyph glyph-name="sterling" unicode="&#xa3;" horiz-adv-x="482" 
d="M102 6q-34 0 -72 -18l-15 20q125 66 137 159q5 33 7 128h-85l5 30h81q4 62 8 91q11 84 61 144.5t146 60.5q55 0 90 -30l-21 -47l-16 -5q-17 16 -47.5 32t-49.5 16q-38 0 -67 -27t-36 -84q-6 -39 -12 -151h54l120 5v-38l-126 3h-50q-7 -85 -9 -101q-8 -71 -79 -140
q36 0 107.5 -3t95.5 -3q34 0 53.5 15.5t38.5 61.5h14q-11 -48 -22.5 -77t-26 -41t-24 -14.5t-27.5 -2.5q-47 0 -133 8t-100 8z" />
    <glyph glyph-name="currency" unicode="&#xa4;" horiz-adv-x="482" 
d="M383 3l-58 87q-48 -30 -108 -30q-53 0 -88 19l-60 -76l-38 21l71 73q-60 50 -52 163q7 103 81 162l-64 81l38 22l54 -83q50 28 107 28q54 0 92 -21l60 76l38 -22l-71 -73q54 -51 48 -158q-7 -104 -81 -163l69 -85zM82 265q-6 -74 35 -117t112 -43q159 0 169 160
q6 75 -35 117t-112 42q-159 0 -169 -159z" />
    <glyph glyph-name="yen" unicode="&#xa5;" horiz-adv-x="482" 
d="M339 13l-1 -13h-205l1 15l74 43l6 86h-155l1 17l15 21h141l4 62h-154l1 16l16 22h129l-137 272h-1l-59 43l1 15h213l-1 -15l-82 -43h-1l119 -243l148 243h-3l-66 43l1 15h189l-1 -15l-72 -42l-168 -273h148l-1 -17l-15 -21h-140l-4 -62h153l-1 -16l-15 -22h-139l-6 -86z
" />
    <glyph glyph-name="brokenbar" unicode="&#xa6;" horiz-adv-x="252" 
d="M145 325h-32l26 368h32zM107 -220h-32l26 368h32z" />
    <glyph glyph-name="section" unicode="&#xa7;" horiz-adv-x="477" 
d="M239 203l14 -7q119 25 124 107q3 42 -27 65.5t-110 58.5l-12 6q-123 -28 -126 -108q-3 -40 27.5 -64t109.5 -58zM181 -71q-74 0 -122 21l28 102h26l10 -67q53 -20 112 -20q77 0 83 81q1 22 -5 39t-20 28.5t-26 18t-32 15.5l-36 16q-94 40 -127.5 69.5t-29.5 86.5
q4 44 46 79.5t106 50.5q-49 24 -72 51.5t-19 67.5q3 55 56 93.5t139 38.5q76 0 121 -20l-27 -102h-27l-9 66q-54 21 -113 21q-76 0 -82 -81q-2 -22 4 -39t20.5 -29t26.5 -18.5t32 -14.5l35 -16q95 -41 128.5 -70t29.5 -86q-4 -44 -46 -80t-105 -51q49 -22 71.5 -50t18.5 -68
q-4 -57 -55 -95t-140 -38z" />
    <glyph glyph-name="dieresis" unicode="&#xa8;" 
d="M291 591q1 11 14 25.5t21 14.5q10 0 22 -11.5t11 -22.5q0 -11 -13 -25t-22 -14q-8 0 -20.5 11.5t-12.5 21.5zM149 591q1 11 14 25.5t21 14.5q9 0 21.5 -12t11.5 -22q0 -11 -13 -25t-22 -14t-21 11.5t-12 21.5z" />
    <glyph glyph-name="copyright" unicode="&#xa9;" horiz-adv-x="560" 
d="M32 238q7 112 84.5 180t180.5 68q114 0 176 -70.5t55 -177.5q-7 -112 -84.5 -180t-180.5 -68q-113 0 -175.5 70.5t-55.5 177.5zM54 237q-8 -104 51.5 -166.5t156.5 -62.5q103 0 169 65t73 164q7 105 -52 167t-157 62q-103 0 -168.5 -65t-72.5 -164zM345 169h12l-16 -56
q-42 -19 -78 -19q-53 0 -83.5 39.5t-25.5 114.5q4 66 46.5 105.5t100.5 39.5q33 0 63 -12l-15 -53h-10l-29 40q-3 1 -26 1q-50 0 -70 -24.5t-25 -87.5q-6 -70 22.5 -107t72.5 -37q15 0 19 2z" />
    <glyph glyph-name="ordfeminine" unicode="&#xaa;" horiz-adv-x="256" 
d="M105 351q16 0 35 26.5t24 73.5l5 56l-2 -2q-22 15 -41 15q-22 0 -28 -9q-16 -15 -22 -84q-7 -76 29 -76zM153 317l5 60q-38 -68 -78 -68q-32 0 -48.5 27.5t-11.5 76.5q7 67 41.5 101t83.5 34q39 0 45 -10l22 20l14 -5l-15 -203h34v-10l-76 -30z" />
    <glyph glyph-name="guillemotleft" unicode="&#xab;" horiz-adv-x="448" 
d="M279 252l87 -199l-13 -11l-142 210l172 210l11 -11zM112 252l87 -199l-13 -11l-142 210l172 210l11 -11z" />
    <glyph glyph-name="logicalnot" unicode="&#xac;" horiz-adv-x="482" 
d="M437 327h-1l-12 -156h-26l12 156h-359l2 28h385z" />
    <glyph glyph-name="registered" unicode="&#xae;" horiz-adv-x="560" 
d="M59 513q7 113 84 180.5t181 67.5q114 0 176 -70t55 -178q-8 -112 -85.5 -180t-180.5 -68q-113 0 -175.5 70.5t-54.5 177.5zM80 513q-7 -105 52.5 -167t156.5 -62q103 0 168.5 65t73.5 164q7 105 -52 166.5t-157 61.5q-103 0 -169 -64.5t-73 -163.5zM404 369
q-23 0 -38 24.5t-54 122.5q-18 -2 -26 -2q-14 0 -26 3l-8 -116l38 -21l1 -6h-115l-1 8l40 19l16 236l-35 20l3 8h102q51 0 77.5 -22.5t22.5 -49.5q-4 -48 -62 -70q58 -116 71 -124q18 -12 40 -8v-12q-26 -10 -46 -10zM300 535q56 0 63 40q4 35 -17 54t-63 19h-14l-8 -112
q12 -1 39 -1z" />
    <glyph glyph-name="macron" unicode="&#xaf;" 
d="M379 594l-1 -15l-13 -17h-184l1 15l14 17h183z" />
    <glyph glyph-name="degree" unicode="&#xb0;" horiz-adv-x="342" 
d="M73 567q3 54 43.5 92.5t94.5 38.5q57 0 91.5 -34.5t30.5 -96.5q-3 -53 -44 -91t-95 -38q-56 0 -90.5 34t-30.5 95zM111 565q-4 -42 20 -68.5t64 -26.5t68.5 26.5t31.5 68.5q4 45 -21 73.5t-65 28.5q-41 0 -68 -28t-30 -74z" />
    <glyph glyph-name="plusminus" unicode="&#xb1;" horiz-adv-x="482" 
d="M421 298h-173l-13 -185h-30l13 185h-172l2 25h172l13 179h30l-13 -179h173zM394 39l-2 -25h-326l2 25h326z" />
    <glyph glyph-name="twosuperior" unicode="&#xb2;" horiz-adv-x="277" 
d="M229 374h-221l1 16q110 108 139 142.5t31 64.5q2 26 -15.5 43t-46.5 17q-4 0 -10.5 -0.5t-9.5 -0.5l-47 -61h-13l16 70q68 25 92 25q42 0 68 -23.5t23 -59.5q-3 -25 -22.5 -52t-44.5 -50t-94 -82h128l35 45h14z" />
    <glyph glyph-name="threesuperior" unicode="&#xb3;" horiz-adv-x="277" 
d="M79 367q-36 0 -70 8h-1l17 56h12l30 -39q5 -1 17 -1q49 0 68.5 12t20.5 42q2 33 -17.5 52.5t-62.5 19.5q-14 0 -25 -1l12 29q10 -4 27 -4q62 0 65 53q5 64 -63 64q-2 0 -8.5 -0.5t-9.5 -0.5l-46 -57h-14l16 65q64 25 94 25q42 0 66 -20t22 -54q-5 -55 -72 -78
q80 -12 75 -78q-2 -37 -46.5 -65t-106.5 -28z" />
    <glyph glyph-name="acute" unicode="&#xb4;" 
d="M201 511l89 167l63 -25l-132 -142h-20z" />
    <glyph glyph-name="paragraph" unicode="&#xb6;" horiz-adv-x="537" 
d="M372 584h-79l-24 -343h-43q-94 0 -142.5 52.5t-42.5 139.5q5 84 58.5 131.5t154.5 47.5h267l-1 -15l-77 -43l-38 -533q-5 -74 -63.5 -115.5t-134.5 -41.5q-32 0 -59 9l20 82h22l47 -65q17 5 29 10.5t27.5 17t25 30.5t11.5 45z" />
    <glyph glyph-name="periodcentered" unicode="&#xb7;" horiz-adv-x="243" 
d="M75 214q1 15 18.5 34t28.5 19q13 0 30.5 -16t16.5 -29q-1 -15 -19 -33.5t-30 -18.5q-11 0 -28 15t-17 29z" />
    <glyph glyph-name="cedilla" unicode="&#xb8;" 
d="M189 -95l48 95h21l-33 -63q87 -22 87 -61q0 -38 -43.5 -57.5t-110.5 -20.5l-6 25q63 0 87 5t24 25q0 11 -4 18.5t-21 16.5t-49 17z" />
    <glyph glyph-name="onesuperior" unicode="&#xb9;" horiz-adv-x="277" 
d="M195 684l-22 -280l45 -20l-3 -10h-164v10l65 20l18 252l-65 -36l-9 38l101 26h34z" />
    <glyph glyph-name="ordmasculine" unicode="&#xba;" horiz-adv-x="241" 
d="M223 432q-6 -57 -40 -91t-79 -34t-67 30.5t-17 86.5q5 57 38.5 90.5t80.5 33.5q44 0 66 -30.5t18 -85.5zM165 414q9 110 -44 110q-21 0 -31 -18t-14 -64q-4 -54 8.5 -82t36.5 -28q20 0 30 17.5t14 64.5z" />
    <glyph glyph-name="guillemotright" unicode="&#xbb;" horiz-adv-x="449" 
d="M349 252l-87 199l13 11l142 -210l-172 -210l-11 11zM169 252l-87 199l13 11l142 -210l-172 -210l-11 11z" />
    <glyph glyph-name="onequarter" unicode="&#xbc;" horiz-adv-x="664" 
d="M225 684l-22 -280l45 -20l-3 -10h-164v10l65 20l18 252l-65 -36l-9 38l101 26h34zM120 0l408 629l38 -17l-408 -629zM497 99l9 138l-119 -138h110zM605 57h-38l-4 -57h-73l4 57h-163l1 23l210 238h43l-15 -219h51z" />
    <glyph glyph-name="onehalf" unicode="&#xbd;" horiz-adv-x="664" 
d="M225 684l-22 -280l45 -20l-3 -10h-164v10l65 20l18 252l-65 -36l-9 38l101 26h34zM93 0l408 629l38 -17l-408 -629zM589 0h-221l1 16q110 108 139 142.5t31 64.5q2 26 -15.5 43t-46.5 17q-4 0 -10.5 -0.5t-9.5 -0.5l-47 -61h-13l16 70q68 25 92 25q42 0 68 -23.5
t23 -59.5q-3 -25 -22.5 -52t-44.5 -50t-94 -82h128l35 45h14z" />
    <glyph glyph-name="threequarters" unicode="&#xbe;" horiz-adv-x="664" 
d="M123 0l408 629l38 -17l-408 -629zM126 367q-36 0 -70 8h-1l17 56h12l30 -39q5 -1 17 -1q49 0 68.5 12t20.5 42q2 33 -17.5 52.5t-62.5 19.5q-14 0 -25 -1l12 29q10 -4 27 -4q62 0 65 53q5 64 -63 64q-2 0 -8.5 -0.5t-9.5 -0.5l-46 -57h-14l16 65q64 25 94 25q42 0 66 -20
t22 -54q-5 -55 -72 -78q80 -12 75 -78q-2 -37 -46.5 -65t-106.5 -28zM507 99l9 138l-119 -138h110zM615 57h-38l-4 -57h-73l4 57h-163l1 23l210 238h43l-15 -219h51z" />
    <glyph glyph-name="questiondown" unicode="&#xbf;" horiz-adv-x="385" 
d="M236 416q-1 -13 -19 -30t-29 -17q-12 0 -30.5 15.5t-16.5 29.5q0 13 18 29.5t29 16.5q12 0 30.5 -15.5t17.5 -28.5zM157 208q1 14 -2.5 25t-8.5 20t-6 13l47 21l5 -7q4 -6 7 -11t6.5 -12.5t5.5 -15t1 -14.5q-2 -31 -24 -57.5t-47.5 -45t-48 -53t-25.5 -78.5
q-4 -49 29.5 -81t88.5 -32q27 0 35 5l80 127h15l-32 -139q-26 -9 -53 -20t-37.5 -15t-23 -7t-24.5 -3q-74 0 -115.5 38t-36.5 98q2 40 19.5 72t41 52.5t46.5 37.5t39.5 37.5t17.5 44.5z" />
    <glyph glyph-name="Agrave" unicode="&#xc0;" horiz-adv-x="577" 
d="M306 828l66 -167h-20l-112 142zM352 277l-69 267l-107 -267h176zM157 0h-181l1 15l61 43l246 544l44 25l158 -570l56 -42l-1 -15h-225l1 15l90 43h2l-48 186h-199l-75 -186l71 -43z" />
    <glyph glyph-name="Aacute" unicode="&#xc1;" horiz-adv-x="577" 
d="M323 661l90 167l63 -25l-133 -142h-20zM352 277l-69 267l-107 -267h176zM157 0h-181l1 15l61 43l246 544l44 25l158 -570l56 -42l-1 -15h-225l1 15l90 43h2l-48 186h-199l-75 -186l71 -43z" />
    <glyph glyph-name="Acircumflex" unicode="&#xc2;" horiz-adv-x="577" 
d="M358 828l95 -167h-20l-94 99l-107 -99h-20l119 167h27zM352 277l-69 267l-107 -267h176zM157 0h-181l1 15l61 43l246 544l44 25l158 -570l56 -42l-1 -15h-225l1 15l90 43h2l-48 186h-199l-75 -186l71 -43z" />
    <glyph glyph-name="Atilde" unicode="&#xc3;" horiz-adv-x="577" 
d="M404 698q6 0 11.5 1.5t9.5 2.5t9 5t7.5 5.5t8.5 8t7.5 8.5t8 9.5t8.5 9.5l6 -11q-5 -8 -15 -22t-14 -19t-11 -14.5t-11 -13t-10.5 -8t-12 -6t-12.5 -1.5q-21 0 -62.5 15t-59.5 15q-34 0 -76 -44l-4 11q24 29 31 37t20.5 21t22 15.5t21.5 2.5q21 0 62.5 -14t54.5 -14z
M352 277l-69 267l-107 -267h176zM157 0h-181l1 15l61 43l246 544l44 25l158 -570l56 -42l-1 -15h-225l1 15l90 43h2l-48 186h-199l-75 -186l71 -43z" />
    <glyph glyph-name="Adieresis" unicode="&#xc4;" horiz-adv-x="577" 
d="M384 741q0 11 12.5 25.5t21.5 14.5q10 0 22 -11.5t11 -22.5q0 -11 -12 -25t-22 -14q-8 0 -21 11.5t-12 21.5zM225 741q0 11 12 25.5t22 14.5q9 0 22 -12t12 -22q-1 -11 -14 -25t-22 -14q-8 0 -20.5 11.5t-11.5 21.5zM352 277l-69 267l-107 -267h176zM157 0h-181l1 15
l61 43l246 544l44 25l158 -570l56 -42l-1 -15h-225l1 15l90 43h2l-48 186h-199l-75 -186l71 -43z" />
    <glyph glyph-name="Aring" unicode="&#xc5;" horiz-adv-x="577" 
d="M262 759q3 34 27 57.5t55 23.5q34 0 54.5 -21.5t17.5 -59.5q-2 -34 -26.5 -57.5t-56.5 -23.5q-33 0 -52.5 21t-18.5 60zM287 758q-2 -26 11 -41.5t36 -15.5t38.5 15.5t16.5 41.5q3 28 -10.5 44t-36.5 16t-37.5 -16t-17.5 -44zM352 277l-69 267l-107 -267h176zM157 0h-181
l1 15l61 43l246 544l44 25l158 -570l56 -42l-1 -15h-225l1 15l90 43h2l-48 186h-199l-75 -186l71 -43z" />
    <glyph glyph-name="AE" unicode="&#xc6;" horiz-adv-x="749" 
d="M383 325l17 236l-156 -236h139zM130 15l-1 -15h-181l1 15l63 37l181 268v5h4l170 252l-59 21l1 14h119l8 3l-2 -3h291l-27 -119h-23l-41 86h-169l-18 -258h61l120 8l-11 -47l-108 13h-64l-18 -262h170l-1 -15l87 110h22l-33 -128h-404l1 16l95 42l17 234h-159l-155 -234
h4z" />
    <glyph glyph-name="Ccedilla" unicode="&#xc7;" horiz-adv-x="553" 
d="M333 -124q0 -38 -43.5 -57.5t-110.5 -20.5l-6 25q63 0 87 5t24 25q0 11 -4 18.5t-21 16.5t-49 17l44 87q-90 13 -140 97t-40 230q9 137 93.5 220t197.5 83q72 0 124 -27l-29 -107h-20l-53 83q-9 2 -56 2q-103 0 -146 -53t-53 -188q-9 -146 49 -225t147 -79q23 0 41 6
l83 111l22 -1l-30 -116q-79 -38 -158 -38h-12l-28 -53q87 -22 87 -61z" />
    <glyph glyph-name="Egrave" unicode="&#xc8;" horiz-adv-x="487" 
d="M299 828l66 -167h-20l-112 142zM28 0l1 15l73 43l34 496l-67 44l1 14h393l-29 -124h-22l-41 91h-168l-17 -248h60l133 8l-10 -47l-122 13h-63l-19 -272h180l79 105h22l-36 -138h-382z" />
    <glyph glyph-name="Eacute" unicode="&#xc9;" horiz-adv-x="487" 
d="M213 661l90 167l63 -25l-133 -142h-20zM28 0l1 15l73 43l34 496l-67 44l1 14h393l-29 -124h-22l-41 91h-168l-17 -248h60l133 8l-10 -47l-122 13h-63l-19 -272h180l79 105h22l-36 -138h-382z" />
    <glyph glyph-name="Ecircumflex" unicode="&#xca;" horiz-adv-x="487" 
d="M318 828l95 -167h-20l-94 99l-107 -99h-20l119 167h27zM28 0l1 15l73 43l34 496l-67 44l1 14h393l-29 -124h-22l-41 91h-168l-17 -248h60l133 8l-10 -47l-122 13h-63l-19 -272h180l79 105h22l-36 -138h-382z" />
    <glyph glyph-name="Edieresis" unicode="&#xcb;" horiz-adv-x="487" 
d="M344 741q0 11 12.5 25.5t21.5 14.5q10 0 22 -11.5t11 -22.5q0 -11 -12 -25t-22 -14q-8 0 -21 11.5t-12 21.5zM185 741q0 11 12 25.5t22 14.5q9 0 22 -12t12 -22q-1 -11 -14 -25t-22 -14q-8 0 -20.5 11.5t-11.5 21.5zM28 0l1 15l73 43l34 496l-67 44l1 14h393l-29 -124
h-22l-41 91h-168l-17 -248h60l133 8l-10 -47l-122 13h-63l-19 -272h180l79 105h22l-36 -138h-382z" />
    <glyph glyph-name="Igrave" unicode="&#xcc;" horiz-adv-x="292" 
d="M148 828l66 -167h-20l-112 142zM194 554l-34 -496l66 -45l1 -13h-206v15l75 43l34 496l-69 44l2 14h206l-3 -15z" />
    <glyph glyph-name="Iacute" unicode="&#xcd;" horiz-adv-x="292" 
d="M112 661l90 167l63 -25l-133 -142h-20zM194 554l-34 -496l66 -45l1 -13h-206v15l75 43l34 496l-69 44l2 14h206l-3 -15z" />
    <glyph glyph-name="Icircumflex" unicode="&#xce;" horiz-adv-x="292" 
d="M203 828l95 -167h-20l-94 99l-107 -99h-20l119 167h27zM194 554l-34 -496l66 -45l1 -13h-206v15l75 43l34 496l-69 44l2 14h206l-3 -15z" />
    <glyph glyph-name="Idieresis" unicode="&#xcf;" horiz-adv-x="292" 
d="M229 741q0 11 12.5 25.5t21.5 14.5q10 0 22 -11.5t11 -22.5q0 -11 -12 -25t-22 -14q-8 0 -21 11.5t-12 21.5zM70 741q0 11 12 25.5t22 14.5q9 0 22 -12t12 -22q-1 -11 -14 -25t-22 -14q-8 0 -20.5 11.5t-11.5 21.5zM194 554l-34 -496l66 -45l1 -13h-206v15l75 43l34 496
l-69 44l2 14h206l-3 -15z" />
    <glyph glyph-name="Eth" unicode="&#xd0;" horiz-adv-x="596" 
d="M273 37q88 0 138.5 55t60.5 180q12 151 -57.5 229t-194.5 78h-24l-17 -247h171l-4 -28h-169l-17 -252q52 -15 113 -15zM21 0l1 15l74 43l17 246h-71l4 28h69l15 222l-68 44l1 14h203q138 0 209 -75.5t60 -228.5q-22 -308 -314 -308h-200z" />
    <glyph glyph-name="Ntilde" unicode="&#xd1;" horiz-adv-x="630" 
d="M439 698q6 0 11.5 1.5t9.5 2.5t9 5t7.5 5.5t8.5 8t7.5 8.5t8 9.5t8.5 9.5l6 -11q-5 -8 -15 -22t-14 -19t-11 -14.5t-11 -13t-10.5 -8t-12 -6t-12.5 -1.5q-21 0 -62.5 15t-59.5 15q-34 0 -76 -44l-4 11q24 29 31 37t20.5 21t22 15.5t21.5 2.5q22 0 63.5 -14t53.5 -14z
M497 -1h-29l-292 509l-31 -450l68 -45l-1 -13h-180l1 15l73 43l34 496l-67 44l1 14h123l270 -471l30 413l-65 45l1 13h177l-1 -15l-73 -43z" />
    <glyph glyph-name="Ograve" unicode="&#xd2;" horiz-adv-x="621" 
d="M338 828l66 -167h-20l-112 142zM346 622q105 0 160 -90t32 -250q-19 -131 -98 -211.5t-169 -80.5q-105 0 -160 90t-32 250q19 131 98 211.5t169 80.5zM297 42q85 0 126.5 50t57.5 176q17 145 -32 223.5t-134 78.5q-81 0 -122 -50t-57 -176q-17 -145 31.5 -223.5
t129.5 -78.5z" />
    <glyph glyph-name="Oacute" unicode="&#xd3;" horiz-adv-x="621" 
d="M259 661l90 167l63 -25l-133 -142h-20zM346 622q105 0 160 -90t32 -250q-19 -131 -98 -211.5t-169 -80.5q-105 0 -160 90t-32 250q19 131 98 211.5t169 80.5zM297 42q85 0 126.5 50t57.5 176q17 145 -32 223.5t-134 78.5q-81 0 -122 -50t-57 -176q-17 -145 31.5 -223.5
t129.5 -78.5z" />
    <glyph glyph-name="Ocircumflex" unicode="&#xd4;" horiz-adv-x="621" 
d="M357 828l95 -167h-20l-94 99l-107 -99h-20l119 167h27zM346 622q105 0 160 -90t32 -250q-19 -131 -98 -211.5t-169 -80.5q-105 0 -160 90t-32 250q19 131 98 211.5t169 80.5zM297 42q85 0 126.5 50t57.5 176q17 145 -32 223.5t-134 78.5q-81 0 -122 -50t-57 -176
q-17 -145 31.5 -223.5t129.5 -78.5z" />
    <glyph glyph-name="Otilde" unicode="&#xd5;" horiz-adv-x="621" 
d="M403 698q6 0 11.5 1.5t9.5 2.5t9 5t7.5 5.5t8.5 8t7.5 8.5t8 9.5t8.5 9.5l6 -11q-5 -8 -15 -22t-14 -19t-11 -14.5t-11 -13t-10.5 -8t-12 -6t-12.5 -1.5q-21 0 -62.5 15t-59.5 15q-34 0 -76 -44l-4 11q24 29 31 37t20.5 21t22 15.5t21.5 2.5q22 0 63 -14t54 -14zM346 622
q105 0 160 -90t32 -250q-19 -131 -98 -211.5t-169 -80.5q-105 0 -160 90t-32 250q19 131 98 211.5t169 80.5zM297 42q85 0 126.5 50t57.5 176q17 145 -32 223.5t-134 78.5q-81 0 -122 -50t-57 -176q-17 -145 31.5 -223.5t129.5 -78.5z" />
    <glyph glyph-name="Odieresis" unicode="&#xd6;" horiz-adv-x="621" 
d="M383 741q0 11 12.5 25.5t21.5 14.5q10 0 22 -11.5t11 -22.5q0 -11 -12 -25t-22 -14q-8 0 -21 11.5t-12 21.5zM224 741q0 11 12 25.5t22 14.5q9 0 22 -12t12 -22q-1 -11 -14 -25t-22 -14q-8 0 -20.5 11.5t-11.5 21.5zM346 622q105 0 160 -90t32 -250q-19 -131 -98 -211.5
t-169 -80.5q-105 0 -160 90t-32 250q19 131 98 211.5t169 80.5zM297 42q85 0 126.5 50t57.5 176q17 145 -32 223.5t-134 78.5q-81 0 -122 -50t-57 -176q-17 -145 31.5 -223.5t129.5 -78.5z" />
    <glyph glyph-name="multiply" unicode="&#xd7;" horiz-adv-x="482" 
d="M355 103l-127 143l-146 -143l-16 18l146 143l-127 142l18 18l127 -143l146 143l16 -18l-146 -143l127 -142z" />
    <glyph glyph-name="Oslash" unicode="&#xd8;" horiz-adv-x="620" 
d="M136 344q-21 -175 56 -256l190 467q-31 15 -67 15q-82 0 -122.5 -50t-56.5 -176zM296 42q85 0 126.5 50t57.5 176q23 188 -67 266l-192 -471q35 -21 75 -21zM270 -10q-39 0 -73 14l-35 -86h-39l42 103q-56 37 -79.5 116.5t-7.5 192.5q20 131 99 211.5t169 80.5
q32 0 60 -9l32 80h39l-38 -94q61 -35 88 -116.5t10 -200.5q-19 -131 -98 -211.5t-169 -80.5z" />
    <glyph glyph-name="Ugrave" unicode="&#xd9;" horiz-adv-x="634" 
d="M373 828l66 -167h-20l-112 142zM204 554l-24 -333q-5 -81 30.5 -126t114.5 -45q72 0 107 33t40 114l25 357l-70 45l1 13h185l-1 -15l-80 -43l-24 -332q-8 -109 -66 -170.5t-156 -61.5q-85 0 -131 55t-39 154l25 355l-68 44l1 14h205l-1 -15z" />
    <glyph glyph-name="Uacute" unicode="&#xda;" horiz-adv-x="634" 
d="M294 661l90 167l63 -25l-133 -142h-20zM204 554l-24 -333q-5 -81 30.5 -126t114.5 -45q72 0 107 33t40 114l25 357l-70 45l1 13h185l-1 -15l-80 -43l-24 -332q-8 -109 -66 -170.5t-156 -61.5q-85 0 -131 55t-39 154l25 355l-68 44l1 14h205l-1 -15z" />
    <glyph glyph-name="Ucircumflex" unicode="&#xdb;" horiz-adv-x="634" 
d="M399 828l95 -167h-20l-94 99l-107 -99h-20l119 167h27zM204 554l-24 -333q-5 -81 30.5 -126t114.5 -45q72 0 107 33t40 114l25 357l-70 45l1 13h185l-1 -15l-80 -43l-24 -332q-8 -109 -66 -170.5t-156 -61.5q-85 0 -131 55t-39 154l25 355l-68 44l1 14h205l-1 -15z" />
    <glyph glyph-name="Udieresis" unicode="&#xdc;" horiz-adv-x="634" 
d="M425 741q0 11 12.5 25.5t21.5 14.5q10 0 22 -11.5t11 -22.5q0 -11 -12 -25t-22 -14q-8 0 -21 11.5t-12 21.5zM266 741q0 11 12 25.5t22 14.5q9 0 22 -12t12 -22q-1 -11 -14 -25t-22 -14q-8 0 -20.5 11.5t-11.5 21.5zM204 554l-24 -333q-5 -81 30.5 -126t114.5 -45
q72 0 107 33t40 114l25 357l-70 45l1 13h185l-1 -15l-80 -43l-24 -332q-8 -109 -66 -170.5t-156 -61.5q-85 0 -131 55t-39 154l25 355l-68 44l1 14h205l-1 -15z" />
    <glyph glyph-name="Yacute" unicode="&#xdd;" horiz-adv-x="553" 
d="M256 661l90 167l63 -25l-133 -142h-20zM369 13l-1 -13h-206l1 15l74 43l14 212h-1l-145 284h-2l-59 43l1 15h214l-1 -15l-83 -43l119 -240l148 240h-3l-66 43l1 15h188l-1 -15l-72 -42l-173 -279l-15 -218z" />
    <glyph glyph-name="Thorn" unicode="&#xde;" horiz-adv-x="481" 
d="M256 196q57 0 87 23.5t37 77.5q7 63 -30 106.5t-131 43.5h-32l-17 -247q37 -4 86 -4zM253 13l1 -13h-233v15l75 43l34 496l-69 44l2 14h233l-3 -15l-99 -43l-5 -74h56q106 0 159.5 -41.5t47.5 -98.5q-6 -58 -44 -101t-84.5 -61.5t-90.5 -18.5q-19 0 -61 3l-3 28l-9 -132z
" />
    <glyph glyph-name="germandbls" unicode="&#xdf;" horiz-adv-x="470" 
d="M-69 -230l-14 44l6 25q38 -7 62 -7q48 0 70 28t29 103l23 457h-51l1 30h51l1 15q5 109 71.5 176t125.5 67t98 -37t39 -100q0 -29 -24 -59.5t-52.5 -52t-52.5 -49t-24 -52.5q0 -57 71 -107q88 -60 81 -136q-5 -53 -48 -89t-100 -36q-30 0 -88 10l14 63h18q2 -1 14.5 -13
t26 -19.5t28.5 -7.5q36 0 56 18t22 46q2 37 -15 63t-81 75q-27 20 -44 51t-15 55q3 32 28 65.5t53.5 57t52 51.5t23.5 49q0 45 -31 72.5t-88 27.5q-91 0 -97 -139l-25 -502q-10 -120 -70 -181.5t-145 -61.5z" />
    <glyph glyph-name="agrave" unicode="&#xe0;" horiz-adv-x="433" 
d="M283 678l66 -167h-20l-112 142zM166 47q8 0 20.5 7t29.5 26.5t32 48t28 77.5t18 109l5 71q-44 29 -95 29q-49 0 -63 -17q-30 -40 -40 -188q-6 -78 11.5 -120.5t53.5 -42.5zM271 12l9 123q-42 -74 -76.5 -107t-70.5 -33q-43 0 -70.5 50.5t-19.5 157.5q7 97 57 177t102 80
q49 0 117 -22l23 26l14 -10l-26 -387h70l-2 -15l-100 -54z" />
    <glyph glyph-name="aacute" unicode="&#xe1;" horiz-adv-x="433" 
d="M174 511l89 167l63 -25l-132 -142h-20zM166 47q8 0 20.5 7t29.5 26.5t32 48t28 77.5t18 109l5 71q-44 29 -95 29q-49 0 -63 -17q-30 -40 -40 -188q-6 -78 11.5 -120.5t53.5 -42.5zM271 12l9 123q-42 -74 -76.5 -107t-70.5 -33q-43 0 -70.5 50.5t-19.5 157.5q7 97 57 177
t102 80q49 0 117 -22l23 26l14 -10l-26 -387h70l-2 -15l-100 -54z" />
    <glyph glyph-name="acircumflex" unicode="&#xe2;" horiz-adv-x="433" 
d="M276 678l78 -167h-19l-77 99l-92 -99h-19l101 167h28zM166 47q8 0 20.5 7t29.5 26.5t32 48t28 77.5t18 109l5 71q-44 29 -95 29q-49 0 -63 -17q-30 -40 -40 -188q-6 -78 11.5 -120.5t53.5 -42.5zM271 12l9 123q-42 -74 -76.5 -107t-70.5 -33q-43 0 -70.5 50.5
t-19.5 157.5q7 97 57 177t102 80q49 0 117 -22l23 26l14 -10l-26 -387h70l-2 -15l-100 -54z" />
    <glyph glyph-name="atilde" unicode="&#xe3;" horiz-adv-x="433" 
d="M326 582q15 0 28.5 8t20 15t22.5 26l8 -11q-6 -8 -15.5 -21.5t-14 -19.5t-11.5 -15t-11 -12.5t-10.5 -8t-12 -6t-12.5 -1.5q-21 0 -62.5 15t-58.5 15q-34 0 -76 -44l-4 11q23 29 29.5 37.5t20 21.5t22 15.5t21.5 2.5q22 0 63 -14t53 -14zM166 47q8 0 20.5 7t29.5 26.5
t32 48t28 77.5t18 109l5 71q-44 29 -95 29q-49 0 -63 -17q-30 -40 -40 -188q-6 -78 11.5 -120.5t53.5 -42.5zM271 12l9 123q-42 -74 -76.5 -107t-70.5 -33q-43 0 -70.5 50.5t-19.5 157.5q7 97 57 177t102 80q49 0 117 -22l23 26l14 -10l-26 -387h70l-2 -15l-100 -54z" />
    <glyph glyph-name="adieresis" unicode="&#xe4;" horiz-adv-x="433" 
d="M290 591q1 11 14 25.5t21 14.5q10 0 22 -11.5t11 -22.5q0 -11 -13 -25t-22 -14q-8 0 -20.5 11.5t-12.5 21.5zM148 591q1 11 14 25.5t21 14.5q9 0 21.5 -12t11.5 -22q0 -11 -13 -25t-22 -14t-21 11.5t-12 21.5zM166 47q8 0 20.5 7t29.5 26.5t32 48t28 77.5t18 109l5 71
q-44 29 -95 29q-49 0 -63 -17q-30 -40 -40 -188q-6 -78 11.5 -120.5t53.5 -42.5zM271 12l9 123q-42 -74 -76.5 -107t-70.5 -33q-43 0 -70.5 50.5t-19.5 157.5q7 97 57 177t102 80q49 0 117 -22l23 26l14 -10l-26 -387h70l-2 -15l-100 -54z" />
    <glyph glyph-name="aring" unicode="&#xe5;" horiz-adv-x="433" 
d="M185 609q2 34 26.5 57.5t56.5 23.5q33 0 53.5 -21.5t17.5 -59.5q-2 -34 -26.5 -57.5t-56.5 -23.5q-33 0 -53 21t-18 60zM210 608q-2 -26 10.5 -41.5t35.5 -15.5t39 15.5t17 41.5q2 28 -11 44t-36 16t-38 -16t-17 -44zM166 47q8 0 20.5 7t29.5 26.5t32 48t28 77.5t18 109
l5 71q-44 29 -95 29q-49 0 -63 -17q-30 -40 -40 -188q-6 -78 11.5 -120.5t53.5 -42.5zM271 12l9 123q-42 -74 -76.5 -107t-70.5 -33q-43 0 -70.5 50.5t-19.5 157.5q7 97 57 177t102 80q49 0 117 -22l23 26l14 -10l-26 -387h70l-2 -15l-100 -54z" />
    <glyph glyph-name="ae" unicode="&#xe6;" horiz-adv-x="582" 
d="M545 74q-37 -40 -67 -59.5t-43 -22t-35 -2.5q-106 0 -105 161q-50 -80 -99.5 -118t-88.5 -38q-105 0 -50 208q29 98 93.5 163t125.5 65q60 0 93 -15l-5 -12q50 56 129 56q33 0 52 -26t17 -59q-1 -47 -51.5 -87.5t-156.5 -92.5q-7 -80 14 -118.5t59 -38.5q64 0 109 48z
M426 426q-47 -39 -68 -203q83 41 114 66t32 65q1 24 -16.5 49.5t-46.5 25.5q-10 0 -15 -3zM152 47q14 0 31.5 10t38.5 32t42 68t35 109l2 -33q9 77 36 130q-31 23 -78 23q-49 0 -67 -17q-42 -44 -65 -109q-55 -213 25 -213z" />
    <glyph glyph-name="ccedilla" unicode="&#xe7;" horiz-adv-x="314" 
d="M222 -124q0 -38 -43.5 -57.5t-110.5 -20.5l-6 25q63 0 87 5t24 25q0 11 -4 18.5t-21 16.5t-49 17l43 85q-48 1 -77.5 53.5t-21.5 151.5q9 111 61 188t117 77q19 0 27.5 -0.5t23.5 -7t31 -19.5l-27 -45l-12 -2q-49 28 -78 28q-23 0 -43 -21q-25 -21 -40 -173
q-9 -86 14 -132t63 -46q18 0 26 1.5t26.5 13t43.5 37.5l10 -13q-47 -51 -73 -69.5t-50 -20.5l-28 -54q87 -22 87 -61z" />
    <glyph glyph-name="egrave" unicode="&#xe8;" horiz-adv-x="329" 
d="M208 678l66 -167h-20l-112 142zM145 -10q-46 0 -78.5 54t-22.5 159q11 117 62 187t126 70q35 0 57 -27.5t20 -66.5q-2 -49 -55.5 -94.5t-150.5 -58.5q0 -1 -0.5 -5t-0.5 -5q-9 -76 14 -120.5t65 -44.5q31 0 52 9.5t50 38.5l9 -12q-46 -51 -79.5 -67.5t-67.5 -16.5z
M173 423q-45 -39 -67 -189q73 8 108.5 39.5t36.5 72.5q1 29 -16 54t-47 25q-12 0 -15 -2z" />
    <glyph glyph-name="eacute" unicode="&#xe9;" horiz-adv-x="329" 
d="M162 511l89 167l63 -25l-132 -142h-20zM145 -10q-46 0 -78.5 54t-22.5 159q11 117 62 187t126 70q35 0 57 -27.5t20 -66.5q-2 -49 -55.5 -94.5t-150.5 -58.5q0 -1 -0.5 -5t-0.5 -5q-9 -76 14 -120.5t65 -44.5q31 0 52 9.5t50 38.5l9 -12q-46 -51 -79.5 -67.5t-67.5 -16.5
zM173 423q-45 -39 -67 -189q73 8 108.5 39.5t36.5 72.5q1 29 -16 54t-47 25q-12 0 -15 -2z" />
    <glyph glyph-name="ecircumflex" unicode="&#xea;" horiz-adv-x="329" 
d="M246 678l78 -167h-19l-77 99l-92 -99h-19l101 167h28zM145 -10q-46 0 -78.5 54t-22.5 159q11 117 62 187t126 70q35 0 57 -27.5t20 -66.5q-2 -49 -55.5 -94.5t-150.5 -58.5q0 -1 -0.5 -5t-0.5 -5q-9 -76 14 -120.5t65 -44.5q31 0 52 9.5t50 38.5l9 -12
q-46 -51 -79.5 -67.5t-67.5 -16.5zM173 423q-45 -39 -67 -189q73 8 108.5 39.5t36.5 72.5q1 29 -16 54t-47 25q-12 0 -15 -2z" />
    <glyph glyph-name="edieresis" unicode="&#xeb;" horiz-adv-x="329" 
d="M260 591q1 11 14 25.5t21 14.5q10 0 22 -11.5t11 -22.5q0 -11 -13 -25t-22 -14q-8 0 -20.5 11.5t-12.5 21.5zM118 591q1 11 14 25.5t21 14.5q9 0 21.5 -12t11.5 -22q0 -11 -13 -25t-22 -14t-21 11.5t-12 21.5zM145 -10q-46 0 -78.5 54t-22.5 159q11 117 62 187t126 70
q35 0 57 -27.5t20 -66.5q-2 -49 -55.5 -94.5t-150.5 -58.5q0 -1 -0.5 -5t-0.5 -5q-9 -76 14 -120.5t65 -44.5q31 0 52 9.5t50 38.5l9 -12q-46 -51 -79.5 -67.5t-67.5 -16.5zM173 423q-45 -39 -67 -189q73 8 108.5 39.5t36.5 72.5q1 29 -16 54t-47 25q-12 0 -15 -2z" />
    <glyph glyph-name="igrave" unicode="&#xec;" horiz-adv-x="250" 
d="M135 678l66 -167h-20l-112 142zM137 67h69l-2 -15l-99 -54l-27 14l27 387l-72 9l3 13l129 39h12l-14 -65z" />
    <glyph glyph-name="iacute" unicode="&#xed;" horiz-adv-x="250" 
d="M92 511l89 167l63 -25l-132 -142h-20zM137 67h69l-2 -15l-99 -54l-27 14l27 387l-72 9l3 13l129 39h12l-14 -65z" />
    <glyph glyph-name="icircumflex" unicode="&#xee;" horiz-adv-x="250" 
d="M184 678l78 -167h-19l-77 99l-92 -99h-19l101 167h28zM137 67h69l-2 -15l-99 -54l-27 14l27 387l-72 9l3 13l129 39h12l-14 -65z" />
    <glyph glyph-name="idieresis" unicode="&#xef;" horiz-adv-x="250" 
d="M174 591q1 11 14 25.5t21 14.5q10 0 22 -11.5t11 -22.5q0 -11 -13 -25t-22 -14q-8 0 -20.5 11.5t-12.5 21.5zM32 591q1 11 14 25.5t21 14.5q9 0 21.5 -12t11.5 -22q0 -11 -13 -25t-22 -14t-21 11.5t-12 21.5zM137 67h69l-2 -15l-99 -54l-27 14l27 387l-72 9l3 13l129 39
h12l-14 -65z" />
    <glyph glyph-name="eth" unicode="&#xf0;" horiz-adv-x="383" 
d="M146 -10q-48 0 -79.5 58t-22.5 175q9 115 64 176t143 61q15 0 35 -3q-14 84 -56 137l-167 -87l3 34l145 75q-48 48 -129 71l7 21q92 -17 156 -74l126 66l-3 -34l-102 -53q97 -108 85 -312q-5 -74 -28.5 -136.5t-55 -98.5t-63.5 -56t-58 -20zM170 40q44 0 79 46t42 149
q6 91 2 163q-45 27 -81 27q-108 0 -116 -176q-5 -103 15 -156t59 -53z" />
    <glyph glyph-name="ntilde" unicode="&#xf1;" horiz-adv-x="470" 
d="M317 582q15 0 28.5 8t20 15t22.5 26l8 -11q-6 -8 -15.5 -21.5t-14 -19.5t-11.5 -15t-11 -12.5t-10.5 -8t-12 -6t-12.5 -1.5q-21 0 -62.5 15t-58.5 15q-34 0 -76 -44l-4 11q23 29 29.5 37.5t20 21.5t22 15.5t21.5 2.5q21 0 62 -14t54 -14zM328 -2l-27 14q27 185 30 244
q4 61 -1 96t-15.5 45.5t-29.5 10.5q-12 0 -30.5 -13.5t-40 -40t-40.5 -74.5t-27 -108l-12 -160l-47 -12h-10l29 399l-72 9l2 13l120 39h12l-12 -156q39 84 81.5 120t77.5 36q48 0 65 -45.5t7 -156.5q-2 -21 -28 -191h69l-2 -15z" />
    <glyph glyph-name="ograve" unicode="&#xf2;" horiz-adv-x="430" 
d="M267 678l66 -167h-20l-112 142zM388 233q-13 -117 -73.5 -180t-140.5 -63q-67 0 -104 63t-26 164q13 116 72 179.5t135 63.5q72 0 110 -63t27 -164zM323 209q12 99 -17.5 157.5t-83.5 58.5q-55 0 -79 -40.5t-35 -144.5q-11 -98 18.5 -156.5t83.5 -58.5t78.5 41t34.5 143z
" />
    <glyph glyph-name="oacute" unicode="&#xf3;" horiz-adv-x="430" 
d="M185 511l89 167l63 -25l-132 -142h-20zM388 233q-13 -117 -73.5 -180t-140.5 -63q-67 0 -104 63t-26 164q13 116 72 179.5t135 63.5q72 0 110 -63t27 -164zM323 209q12 99 -17.5 157.5t-83.5 58.5q-55 0 -79 -40.5t-35 -144.5q-11 -98 18.5 -156.5t83.5 -58.5t78.5 41
t34.5 143z" />
    <glyph glyph-name="ocircumflex" unicode="&#xf4;" horiz-adv-x="430" 
d="M284 678l78 -167h-19l-77 99l-92 -99h-19l101 167h28zM388 233q-13 -117 -73.5 -180t-140.5 -63q-67 0 -104 63t-26 164q13 116 72 179.5t135 63.5q72 0 110 -63t27 -164zM323 209q12 99 -17.5 157.5t-83.5 58.5q-55 0 -79 -40.5t-35 -144.5q-11 -98 18.5 -156.5
t83.5 -58.5t78.5 41t34.5 143z" />
    <glyph glyph-name="otilde" unicode="&#xf5;" horiz-adv-x="430" 
d="M304 582q15 0 28.5 8t20 15t22.5 26l8 -11q-6 -8 -15.5 -21.5t-14 -19.5t-11.5 -15t-11 -12.5t-10.5 -8t-12 -6t-12.5 -1.5q-21 0 -62.5 15t-58.5 15q-34 0 -76 -44l-4 11q23 29 29.5 37.5t20 21.5t22 15.5t21.5 2.5q22 0 63 -14t53 -14zM388 233q-13 -117 -73.5 -180
t-140.5 -63q-67 0 -104 63t-26 164q13 116 72 179.5t135 63.5q72 0 110 -63t27 -164zM323 209q12 99 -17.5 157.5t-83.5 58.5q-55 0 -79 -40.5t-35 -144.5q-11 -98 18.5 -156.5t83.5 -58.5t78.5 41t34.5 143z" />
    <glyph glyph-name="odieresis" unicode="&#xf6;" horiz-adv-x="430" 
d="M276 591q1 11 14 25.5t21 14.5q10 0 22 -11.5t11 -22.5q0 -11 -13 -25t-22 -14q-8 0 -20.5 11.5t-12.5 21.5zM134 591q1 11 14 25.5t21 14.5q9 0 21.5 -12t11.5 -22q0 -11 -13 -25t-22 -14t-21 11.5t-12 21.5zM388 233q-13 -117 -73.5 -180t-140.5 -63q-67 0 -104 63
t-26 164q13 116 72 179.5t135 63.5q72 0 110 -63t27 -164zM323 209q12 99 -17.5 157.5t-83.5 58.5q-55 0 -79 -40.5t-35 -144.5q-11 -98 18.5 -156.5t83.5 -58.5t78.5 41t34.5 143z" />
    <glyph glyph-name="divide" unicode="&#xf7;" horiz-adv-x="482" 
d="M214 396q2 13 18 30.5t25 17.5q10 0 25.5 -15t12.5 -27q-2 -13 -19 -29.5t-27 -16.5q-9 0 -22.5 13.5t-12.5 26.5zM432 265l-3 -25h-374l2 25h375zM193 96q2 13 18 30.5t25 17.5q10 0 25.5 -15t12.5 -27q-2 -13 -19 -29.5t-27 -16.5q-9 0 -22.5 13.5t-12.5 26.5z" />
    <glyph glyph-name="oslash" unicode="&#xf8;" horiz-adv-x="429" 
d="M107 240q-12 -107 25 -168l139 337q-22 16 -50 16q-55 0 -79 -40.5t-35 -144.5zM209 25q54 0 78.5 41t34.5 143q13 109 -25 170l-138 -337q23 -17 50 -17zM174 -10q-17 0 -34 5l-28 -67h-39l34 83q-37 27 -54 81t-9 125q12 116 71 179.5t135 63.5q21 0 39 -6l28 68h39
l-34 -83q38 -27 55.5 -80.5t9.5 -125.5q-13 -117 -73 -180t-140 -63z" />
    <glyph glyph-name="ugrave" unicode="&#xf9;" horiz-adv-x="462" 
d="M268 678l66 -167h-20l-112 142zM288 12l10 139q-74 -161 -149 -161q-48 0 -64.5 45.5t-6.5 156.5q4 42 30 207l-72 9l2 13l117 39h11q-25 -170 -32 -266q-6 -89 6 -120.5t41 -31.5q12 0 30 15.5t38 45t36.5 83.5t22.5 121v-2l9 131l46 24h11l-27 -393h69l-2 -15l-99 -54z
" />
    <glyph glyph-name="uacute" unicode="&#xfa;" horiz-adv-x="462" 
d="M186 511l89 167l63 -25l-132 -142h-20zM288 12l10 139q-74 -161 -149 -161q-48 0 -64.5 45.5t-6.5 156.5q4 42 30 207l-72 9l2 13l117 39h11q-25 -170 -32 -266q-6 -89 6 -120.5t41 -31.5q12 0 30 15.5t38 45t36.5 83.5t22.5 121v-2l9 131l46 24h11l-27 -393h69l-2 -15
l-99 -54z" />
    <glyph glyph-name="ucircumflex" unicode="&#xfb;" horiz-adv-x="462" 
d="M287 678l78 -167h-19l-77 99l-92 -99h-19l101 167h28zM288 12l10 139q-74 -161 -149 -161q-48 0 -64.5 45.5t-6.5 156.5q4 42 30 207l-72 9l2 13l117 39h11q-25 -170 -32 -266q-6 -89 6 -120.5t41 -31.5q12 0 30 15.5t38 45t36.5 83.5t22.5 121v-2l9 131l46 24h11
l-27 -393h69l-2 -15l-99 -54z" />
    <glyph glyph-name="udieresis" unicode="&#xfc;" horiz-adv-x="462" 
d="M294 591q1 11 14 25.5t21 14.5q10 0 22 -11.5t11 -22.5q0 -11 -13 -25t-22 -14q-8 0 -20.5 11.5t-12.5 21.5zM152 591q1 11 14 25.5t21 14.5q9 0 21.5 -12t11.5 -22q0 -11 -13 -25t-22 -14t-21 11.5t-12 21.5zM288 12l10 139q-74 -161 -149 -161q-48 0 -64.5 45.5
t-6.5 156.5q4 42 30 207l-72 9l2 13l117 39h11q-25 -170 -32 -266q-6 -89 6 -120.5t41 -31.5q12 0 30 15.5t38 45t36.5 83.5t22.5 121v-2l9 131l46 24h11l-27 -393h69l-2 -15l-99 -54z" />
    <glyph glyph-name="yacute" unicode="&#xfd;" horiz-adv-x="408" 
d="M210 511l89 167l63 -25l-132 -142h-20zM-27 -227q-13 0 -24 3q-2 19 -11 33q-2 4 -2 -2l4 26q10 -1 38 -1q78 0 126.5 37t95.5 121h-37l-82 409l-82 9l2 13l118 39h12l89 -432l9 18q91 178 91 276q0 39 -9 55t-45 26l3 13q28 18 86 44q29 0 29 -67q0 -42 -33.5 -146
t-84.5 -208q-131 -266 -293 -266zM-52 -224h1q0 -2 -1 0z" />
    <glyph glyph-name="thorn" unicode="&#xfe;" horiz-adv-x="441" 
d="M236 40q49 0 63 17q31 39 41 188q5 78 -12 120.5t-53 42.5q-10 0 -24 -7t-33 -27t-36 -49t-31.5 -79.5t-19.5 -112.5l-4 -61q66 -32 109 -32zM205 -203l-1 -17h-206v15l56 26l57 803h-66l2 14l114 55h20l-18 -117l-18 -257q81 141 162 141q43 0 71 -50.5t20 -157.5
q-7 -97 -57.5 -177t-101.5 -80q-66 0 -116 17l-13 -176z" />
    <glyph glyph-name="ydieresis" unicode="&#xff;" horiz-adv-x="408" 
d="M298 591q1 11 14 25.5t21 14.5q10 0 22 -11.5t11 -22.5q0 -11 -13 -25t-22 -14q-8 0 -20.5 11.5t-12.5 21.5zM156 591q1 11 14 25.5t21 14.5q9 0 21.5 -12t11.5 -22q0 -11 -13 -25t-22 -14t-21 11.5t-12 21.5zM-27 -227q-13 0 -24 3q-2 19 -11 33q-2 4 -2 -2l4 26
q10 -1 38 -1q78 0 126.5 37t95.5 121h-37l-82 409l-82 9l2 13l118 39h12l89 -432l9 18q91 178 91 276q0 39 -9 55t-45 26l3 13q28 18 86 44q29 0 29 -67q0 -42 -33.5 -146t-84.5 -208q-131 -266 -293 -266zM-52 -224h1q0 -2 -1 0z" />
    <glyph glyph-name="Amacron" unicode="&#x100;" horiz-adv-x="577" 
d="M437 744l-1 -15l-15 -17h-184l1 15l16 17h183zM352 277l-69 267l-107 -267h176zM157 0h-181l1 15l61 43l246 544l44 25l158 -570l56 -42l-1 -15h-225l1 15l90 43h2l-48 186h-199l-75 -186l71 -43z" />
    <glyph glyph-name="amacron" unicode="&#x101;" horiz-adv-x="433" 
d="M363 594l-1 -15l-13 -17h-184l1 15l14 17h183zM166 47q8 0 20.5 7t29.5 26.5t32 48t28 77.5t18 109l5 71q-44 29 -95 29q-49 0 -63 -17q-30 -40 -40 -188q-6 -78 11.5 -120.5t53.5 -42.5zM271 12l9 123q-42 -74 -76.5 -107t-70.5 -33q-43 0 -70.5 50.5t-19.5 157.5
q7 97 57 177t102 80q49 0 117 -22l23 26l14 -10l-26 -387h70l-2 -15l-100 -54z" />
    <glyph glyph-name="Abreve" unicode="&#x102;" horiz-adv-x="577" 
d="M337 714q48 0 70.5 30.5t33.5 83.5h20q-4 -74 -37 -120.5t-94 -46.5q-114 0 -103 167h20q6 -114 90 -114zM352 277l-69 267l-107 -267h176zM157 0h-181l1 15l61 43l246 544l44 25l158 -570l56 -42l-1 -15h-225l1 15l90 43h2l-48 186h-199l-75 -186l71 -43z" />
    <glyph glyph-name="abreve" unicode="&#x103;" horiz-adv-x="433" 
d="M264 564q48 0 71 30.5t34 83.5h20q-6 -75 -38 -121t-92 -46q-117 0 -104 167h20q6 -114 89 -114zM166 47q8 0 20.5 7t29.5 26.5t32 48t28 77.5t18 109l5 71q-44 29 -95 29q-49 0 -63 -17q-30 -40 -40 -188q-6 -78 11.5 -120.5t53.5 -42.5zM271 12l9 123
q-42 -74 -76.5 -107t-70.5 -33q-43 0 -70.5 50.5t-19.5 157.5q7 97 57 177t102 80q49 0 117 -22l23 26l14 -10l-26 -387h70l-2 -15l-100 -54z" />
    <glyph glyph-name="Aogonek" unicode="&#x104;" horiz-adv-x="577" 
d="M352 277l-69 267l-107 -267h176zM492 -208q-8 -3 -20 -8l-18 -7.5t-14.5 -4.5t-16.5 -2q-26 0 -45 21.5t-18 53.5q2 43 34 85t81 70h-159l1 15l90 43h2l-48 186h-199l-75 -186l71 -43l-1 -15h-181l1 15l61 43l246 544l44 25l158 -570l56 -42l-1 -15h-45q-92 -62 -97 -136
q-2 -24 11 -42.5t37 -18.5q12 0 41 9z" />
    <glyph glyph-name="aogonek" unicode="&#x105;" horiz-adv-x="433" 
d="M281 -194q-27 0 -47 22.5t-16 57.5q8 72 69 117l-16 9l9 123q-42 -74 -76.5 -107t-70.5 -33q-43 0 -70.5 50.5t-19.5 157.5q7 97 57 177t102 80q49 0 117 -22l23 26l14 -10l-26 -387h70l-2 -15l-71 -38q-63 -47 -70 -111q-3 -26 10.5 -45t37.5 -19q12 0 41 9l4 -20
q-8 -3 -20 -8l-18 -7.5t-14.5 -4.5t-16.5 -2zM166 47q8 0 20.5 7t29.5 26.5t32 48t28 77.5t18 109l5 71q-44 29 -95 29q-49 0 -63 -17q-30 -40 -40 -188q-6 -78 11.5 -120.5t53.5 -42.5z" />
    <glyph glyph-name="Cacute" unicode="&#x106;" horiz-adv-x="553" 
d="M267 661l90 167l63 -25l-133 -142h-20zM452 145l22 -1l-30 -116q-79 -38 -158 -38q-104 0 -163.5 85t-48.5 244q9 137 93.5 220t197.5 83q72 0 124 -27l-29 -107h-20l-53 83q-9 2 -56 2q-103 0 -146 -53t-53 -188q-9 -146 49 -225t147 -79q23 0 41 6z" />
    <glyph glyph-name="cacute" unicode="&#x107;" horiz-adv-x="314" 
d="M158 511l89 167l63 -25l-132 -142h-20zM43 195q9 111 61 188t117 77q19 0 27.5 -0.5t23.5 -7t31 -19.5l-27 -45l-12 -2q-49 28 -78 28q-23 0 -43 -21q-25 -21 -40 -173q-9 -86 14 -132t63 -46q18 0 26 1.5t26.5 13t43.5 37.5l10 -13q-56 -61 -83 -76t-60 -15
q-48 0 -78 53t-22 152z" />
    <glyph glyph-name="Ccircumflex" unicode="&#x108;" horiz-adv-x="553" 
d="M378 828l95 -167h-20l-94 99l-107 -99h-20l119 167h27zM452 145l22 -1l-30 -116q-79 -38 -158 -38q-104 0 -163.5 85t-48.5 244q9 137 93.5 220t197.5 83q72 0 124 -27l-29 -107h-20l-53 83q-9 2 -56 2q-103 0 -146 -53t-53 -188q-9 -146 49 -225t147 -79q23 0 41 6z" />
    <glyph glyph-name="ccircumflex" unicode="&#x109;" horiz-adv-x="314" 
d="M259 678l78 -167h-19l-77 99l-92 -99h-19l101 167h28zM43 195q9 111 61 188t117 77q19 0 27.5 -0.5t23.5 -7t31 -19.5l-27 -45l-12 -2q-49 28 -78 28q-23 0 -43 -21q-25 -21 -40 -173q-9 -86 14 -132t63 -46q18 0 26 1.5t26.5 13t43.5 37.5l10 -13q-56 -61 -83 -76
t-60 -15q-48 0 -78 53t-22 152z" />
    <glyph glyph-name="Cdotaccent" unicode="&#x10a;" horiz-adv-x="553" 
d="M323 750q1 13 16.5 30.5t25.5 17.5t26 -14t16 -26q-1 -13 -17 -30t-25 -17q-11 0 -26.5 13.5t-15.5 25.5zM452 145l22 -1l-30 -116q-79 -38 -158 -38q-104 0 -163.5 85t-48.5 244q9 137 93.5 220t197.5 83q72 0 124 -27l-29 -107h-20l-53 83q-9 2 -56 2q-103 0 -146 -53
t-53 -188q-9 -146 49 -225t147 -79q23 0 41 6z" />
    <glyph glyph-name="cdotaccent" unicode="&#x10b;" horiz-adv-x="314" 
d="M198 600q1 13 17 30.5t26 17.5t25.5 -14t14.5 -26q-1 -13 -17 -30t-25 -17q-11 0 -26.5 14t-14.5 25zM43 195q9 111 61 188t117 77q19 0 27.5 -0.5t23.5 -7t31 -19.5l-27 -45l-12 -2q-49 28 -78 28q-23 0 -43 -21q-25 -21 -40 -173q-9 -86 14 -132t63 -46q18 0 26 1.5
t26.5 13t43.5 37.5l10 -13q-56 -61 -83 -76t-60 -15q-48 0 -78 53t-22 152z" />
    <glyph glyph-name="Ccaron" unicode="&#x10c;" horiz-adv-x="553" 
d="M452 828l-119 -167h-27l-95 167h20l94 -98l107 98h20zM452 145l22 -1l-30 -116q-79 -38 -158 -38q-104 0 -163.5 85t-48.5 244q9 137 93.5 220t197.5 83q72 0 124 -27l-29 -107h-20l-53 83q-9 2 -56 2q-103 0 -146 -53t-53 -188q-9 -146 49 -225t147 -79q23 0 41 6z" />
    <glyph glyph-name="ccaron" unicode="&#x10d;" horiz-adv-x="314" 
d="M323 678l-101 -167h-28l-78 167h19l76 -99l93 99h19zM43 195q9 111 61 188t117 77q19 0 27.5 -0.5t23.5 -7t31 -19.5l-27 -45l-12 -2q-49 28 -78 28q-23 0 -43 -21q-25 -21 -40 -173q-9 -86 14 -132t63 -46q18 0 26 1.5t26.5 13t43.5 37.5l10 -13q-56 -61 -83 -76
t-60 -15q-48 0 -78 53t-22 152z" />
    <glyph glyph-name="Dcaron" unicode="&#x10e;" horiz-adv-x="596" 
d="M410 828l-119 -167h-27l-95 167h20l94 -98l107 98h20zM273 37q88 0 138.5 55t60.5 180q12 151 -57.5 229t-194.5 78h-24l-36 -527q52 -15 113 -15zM21 0l1 15l74 43l34 496l-68 44l1 14h203q138 0 209 -75.5t60 -228.5q-22 -308 -314 -308h-200z" />
    <glyph glyph-name="dcaron" unicode="&#x10f;" horiz-adv-x="475" 
d="M433 647q5 16 18.5 26t26.5 10q11 0 27 -20t14 -44q-3 -49 -73 -147l-15 3q27 70 29 96q3 40 -27 76zM166 47q9 0 22.5 7t32 25.5t35 46t30.5 75t21 105.5l5 75q-18 14 -51.5 24t-56.5 10q-49 0 -63 -17q-30 -40 -40 -188q-6 -78 11.5 -120.5t53.5 -42.5zM287 13l8 123
q-82 -141 -162 -141q-43 0 -70.5 50.5t-19.5 157.5q7 97 57 177t102 80q64 0 115 -17l12 181h-66l2 14l113 55h21l-18 -117l-36 -509h71l-2 -15l-100 -53z" />
    <glyph glyph-name="Dcroat" unicode="&#x110;" horiz-adv-x="596" 
d="M273 37q88 0 138.5 55t60.5 180q12 151 -57.5 229t-194.5 78h-24l-17 -247h171l-4 -28h-169l-17 -252q52 -15 113 -15zM21 0l1 15l74 43l17 246h-71l4 28h69l15 222l-68 44l1 14h203q138 0 209 -75.5t60 -228.5q-22 -308 -314 -308h-200z" />
    <glyph glyph-name="dcroat" unicode="&#x111;" horiz-adv-x="458" 
d="M166 47q9 0 22.5 7t32 25.5t35 46t30.5 75t21 105.5l5 75q-18 14 -51.5 24t-56.5 10q-49 0 -63 -17q-30 -40 -40 -188q-6 -78 11.5 -120.5t53.5 -42.5zM287 13l8 123q-82 -141 -162 -141q-43 0 -70.5 50.5t-19.5 157.5q7 97 57 177t102 80q64 0 115 -17l5 82h-109l4 35
h108l4 64h-66l2 14l113 55h21l-18 -117l-1 -16h60l-4 -35h-59l-32 -458h71l-2 -15l-100 -53z" />
    <glyph glyph-name="Emacron" unicode="&#x112;" horiz-adv-x="487" 
d="M397 744l-1 -15l-15 -17h-184l1 15l16 17h183zM28 0l1 15l73 43l34 496l-67 44l1 14h393l-29 -124h-22l-41 91h-168l-17 -248h60l133 8l-10 -47l-122 13h-63l-19 -272h180l79 105h22l-36 -138h-382z" />
    <glyph glyph-name="emacron" unicode="&#x113;" horiz-adv-x="329" 
d="M323 594l-1 -15l-13 -17h-184l1 15l14 17h183zM145 -10q-46 0 -78.5 54t-22.5 159q11 117 62 187t126 70q35 0 57 -27.5t20 -66.5q-2 -49 -55.5 -94.5t-150.5 -58.5q0 -1 -0.5 -5t-0.5 -5q-9 -76 14 -120.5t65 -44.5q31 0 52 9.5t50 38.5l9 -12q-46 -51 -79.5 -67.5
t-67.5 -16.5zM173 423q-45 -39 -67 -189q73 8 108.5 39.5t36.5 72.5q1 29 -16 54t-47 25q-12 0 -15 -2z" />
    <glyph glyph-name="Ebreve" unicode="&#x114;" horiz-adv-x="487" 
d="M313 714q48 0 70.5 30.5t33.5 83.5h20q-4 -74 -37 -120.5t-94 -46.5q-114 0 -103 167h20q6 -114 90 -114zM28 0l1 15l73 43l34 496l-67 44l1 14h393l-29 -124h-22l-41 91h-168l-17 -248h60l133 8l-10 -47l-122 13h-63l-19 -272h180l79 105h22l-36 -138h-382z" />
    <glyph glyph-name="ebreve" unicode="&#x115;" horiz-adv-x="329" 
d="M221 564q48 0 71 30.5t34 83.5h20q-6 -75 -38 -121t-92 -46q-117 0 -104 167h20q6 -114 89 -114zM145 -10q-46 0 -78.5 54t-22.5 159q11 117 62 187t126 70q35 0 57 -27.5t20 -66.5q-2 -49 -55.5 -94.5t-150.5 -58.5q0 -1 -0.5 -5t-0.5 -5q-9 -76 14 -120.5t65 -44.5
q31 0 52 9.5t50 38.5l9 -12q-46 -51 -79.5 -67.5t-67.5 -16.5zM173 423q-45 -39 -67 -189q73 8 108.5 39.5t36.5 72.5q1 29 -16 54t-47 25q-12 0 -15 -2z" />
    <glyph glyph-name="Edotaccent" unicode="&#x116;" horiz-adv-x="487" 
d="M256 750q1 13 16.5 30.5t25.5 17.5t26 -14t16 -26q-1 -13 -17 -30t-25 -17q-11 0 -26.5 13.5t-15.5 25.5zM28 0l1 15l73 43l34 496l-67 44l1 14h393l-29 -124h-22l-41 91h-168l-17 -248h60l133 8l-10 -47l-122 13h-63l-19 -272h180l79 105h22l-36 -138h-382z" />
    <glyph glyph-name="edotaccent" unicode="&#x117;" horiz-adv-x="329" 
d="M181 600q1 13 17 30.5t26 17.5t25.5 -14t14.5 -26q-1 -13 -17 -30t-25 -17q-11 0 -26.5 14t-14.5 25zM145 -10q-46 0 -78.5 54t-22.5 159q11 117 62 187t126 70q35 0 57 -27.5t20 -66.5q-2 -49 -55.5 -94.5t-150.5 -58.5q0 -1 -0.5 -5t-0.5 -5q-9 -76 14 -120.5t65 -44.5
q31 0 52 9.5t50 38.5l9 -12q-46 -51 -79.5 -67.5t-67.5 -16.5zM173 423q-45 -39 -67 -189q73 8 108.5 39.5t36.5 72.5q1 29 -16 54t-47 25q-12 0 -15 -2z" />
    <glyph glyph-name="Eogonek" unicode="&#x118;" horiz-adv-x="487" 
d="M375 -208q-8 -3 -20 -8l-18 -7.5t-14.5 -4.5t-16.5 -2q-26 0 -45 21.5t-18 53.5q2 43 34 85t81 70h-330l1 15l73 43l34 496l-67 44l1 14h393l-29 -124h-22l-41 91h-168l-17 -248h60l133 8l-10 -47l-122 13h-63l-19 -272h180l79 105h22l-36 -138h-31q-92 -62 -97 -136
q-2 -24 11 -42.5t37 -18.5q12 0 41 9z" />
    <glyph glyph-name="eogonek" unicode="&#x119;" horiz-adv-x="329" 
d="M170 -195q-27 0 -47 22.5t-16 57.5q6 62 55 106q-6 -1 -17 -1q-46 0 -78.5 54t-22.5 159q11 117 62 187t126 70q35 0 57 -27.5t20 -66.5q-2 -49 -55.5 -94.5t-150.5 -58.5q0 -1 -0.5 -5t-0.5 -5q-9 -76 14 -120.5t65 -44.5q31 0 52 9.5t50 38.5l9 -12q-48 -54 -90 -73
q-49 -42 -56 -99q-3 -26 10.5 -45t37.5 -19q12 0 41 9l4 -20q-8 -3 -20 -8l-18 -7.5t-14.5 -4.5t-16.5 -2zM173 423q-45 -39 -67 -189q73 8 108.5 39.5t36.5 72.5q1 29 -16 54t-47 25q-12 0 -15 -2z" />
    <glyph glyph-name="Ecaron" unicode="&#x11a;" horiz-adv-x="487" 
d="M425 828l-119 -167h-27l-95 167h20l94 -98l107 98h20zM28 0l1 15l73 43l34 496l-67 44l1 14h393l-29 -124h-22l-41 91h-168l-17 -248h60l133 8l-10 -47l-122 13h-63l-19 -272h180l79 105h22l-36 -138h-382z" />
    <glyph glyph-name="ecaron" unicode="&#x11b;" horiz-adv-x="329" 
d="M331 678l-101 -167h-28l-78 167h19l76 -99l93 99h19zM145 -10q-46 0 -78.5 54t-22.5 159q11 117 62 187t126 70q35 0 57 -27.5t20 -66.5q-2 -49 -55.5 -94.5t-150.5 -58.5q0 -1 -0.5 -5t-0.5 -5q-9 -76 14 -120.5t65 -44.5q31 0 52 9.5t50 38.5l9 -12
q-46 -51 -79.5 -67.5t-67.5 -16.5zM173 423q-45 -39 -67 -189q73 8 108.5 39.5t36.5 72.5q1 29 -16 54t-47 25q-12 0 -15 -2z" />
    <glyph glyph-name="Gcircumflex" unicode="&#x11c;" horiz-adv-x="573" 
d="M386 828l95 -167h-20l-94 99l-107 -99h-20l119 167h27zM412 44l12 171l-64 44l1 14h192v-15l-67 -43l-13 -188q-84 -37 -178 -37q-116 0 -174 82.5t-47 246.5q8 135 91 219t194 84q101 0 142 -35l-25 -99h-21l-45 74q-28 11 -81 11q-107 0 -147.5 -53.5t-49.5 -188.5
q-10 -143 44 -222.5t151 -79.5q45 0 85 15z" />
    <glyph glyph-name="gcircumflex" unicode="&#x11d;" horiz-adv-x="358" 
d="M234 678l78 -167h-19l-77 99l-92 -99h-19l101 167h28zM128 -195q-67 0 -106 24t-38 62q0 14 3 26t13 24t17.5 20.5t25.5 20.5t27.5 18.5t33.5 20.5t34 20l-22 13q-20 14 -27.5 24t-7.5 27q0 11 11 23.5t23.5 22t39.5 27.5q-42 3 -74.5 39.5t-28.5 94.5q6 68 50.5 108
t108.5 40q37 0 69 -29l85 99l34 -35v-17l-111 -55q37 -40 31 -100q-4 -58 -35 -94t-81 -47h1q-58 -38 -60 -57q-1 -7 4 -14t11.5 -12t6.5 -6l64 -32q62 -31 80.5 -55.5t18.5 -56.5q0 -52 -62.5 -98t-138.5 -46zM262 303q4 55 -16 90.5t-65 35.5q-66 0 -72 -99
q-3 -52 19.5 -88.5t65.5 -36.5q29 0 47.5 24.5t20.5 73.5zM146 -159q52 0 87 23t33 55q-3 53 -63 86l-44 25q-57 -39 -85.5 -66t-31.5 -57q-2 -28 28 -47t76 -19z" />
    <glyph glyph-name="Gbreve" unicode="&#x11e;" horiz-adv-x="573" 
d="M365 714q48 0 70.5 30.5t33.5 83.5h20q-4 -74 -37 -120.5t-94 -46.5q-114 0 -103 167h20q6 -114 90 -114zM412 44l12 171l-64 44l1 14h192v-15l-67 -43l-13 -188q-84 -37 -178 -37q-116 0 -174 82.5t-47 246.5q8 135 91 219t194 84q101 0 142 -35l-25 -99h-21l-45 74
q-28 11 -81 11q-107 0 -147.5 -53.5t-49.5 -188.5q-10 -143 44 -222.5t151 -79.5q45 0 85 15z" />
    <glyph glyph-name="gbreve" unicode="&#x11f;" horiz-adv-x="358" 
d="M213 564q48 0 71 30.5t34 83.5h20q-6 -75 -38 -121t-92 -46q-117 0 -104 167h20q6 -114 89 -114zM128 -195q-67 0 -106 24t-38 62q0 14 3 26t13 24t17.5 20.5t25.5 20.5t27.5 18.5t33.5 20.5t34 20l-22 13q-20 14 -27.5 24t-7.5 27q0 11 11 23.5t23.5 22t39.5 27.5
q-42 3 -74.5 39.5t-28.5 94.5q6 68 50.5 108t108.5 40q37 0 69 -29l85 99l34 -35v-17l-111 -55q37 -40 31 -100q-4 -58 -35 -94t-81 -47h1q-58 -38 -60 -57q-1 -7 4 -14t11.5 -12t6.5 -6l64 -32q62 -31 80.5 -55.5t18.5 -56.5q0 -52 -62.5 -98t-138.5 -46zM262 303
q4 55 -16 90.5t-65 35.5q-66 0 -72 -99q-3 -52 19.5 -88.5t65.5 -36.5q29 0 47.5 24.5t20.5 73.5zM146 -159q52 0 87 23t33 55q-3 53 -63 86l-44 25q-57 -39 -85.5 -66t-31.5 -57q-2 -28 28 -47t76 -19z" />
    <glyph glyph-name="Gdotaccent" unicode="&#x120;" horiz-adv-x="573" 
d="M341 750q1 13 16.5 30.5t25.5 17.5t26 -14t16 -26q-1 -13 -17 -30t-25 -17q-11 0 -26.5 13.5t-15.5 25.5zM412 44l12 171l-64 44l1 14h192v-15l-67 -43l-13 -188q-84 -37 -178 -37q-116 0 -174 82.5t-47 246.5q8 135 91 219t194 84q101 0 142 -35l-25 -99h-21l-45 74
q-28 11 -81 11q-107 0 -147.5 -53.5t-49.5 -188.5q-10 -143 44 -222.5t151 -79.5q45 0 85 15z" />
    <glyph glyph-name="gdotaccent" unicode="&#x121;" horiz-adv-x="358" 
d="M176 600q1 13 17 30.5t26 17.5t25.5 -14t14.5 -26q-1 -13 -17 -30t-25 -17q-11 0 -26.5 14t-14.5 25zM128 -195q-67 0 -106 24t-38 62q0 14 3 26t13 24t17.5 20.5t25.5 20.5t27.5 18.5t33.5 20.5t34 20l-22 13q-20 14 -27.5 24t-7.5 27q0 11 11 23.5t23.5 22t39.5 27.5
q-42 3 -74.5 39.5t-28.5 94.5q6 68 50.5 108t108.5 40q37 0 69 -29l85 99l34 -35v-17l-111 -55q37 -40 31 -100q-4 -58 -35 -94t-81 -47h1q-58 -38 -60 -57q-1 -7 4 -14t11.5 -12t6.5 -6l64 -32q62 -31 80.5 -55.5t18.5 -56.5q0 -52 -62.5 -98t-138.5 -46zM262 303
q4 55 -16 90.5t-65 35.5q-66 0 -72 -99q-3 -52 19.5 -88.5t65.5 -36.5q29 0 47.5 24.5t20.5 73.5zM146 -159q52 0 87 23t33 55q-3 53 -63 86l-44 25q-57 -39 -85.5 -66t-31.5 -57q-2 -28 28 -47t76 -19z" />
    <glyph glyph-name="Gcommaaccent" unicode="&#x122;" horiz-adv-x="573" 
d="M412 44l12 171l-64 44l1 14h192v-15l-67 -43l-13 -188q-84 -37 -178 -37q-116 0 -174 82.5t-47 246.5q8 135 91 219t194 84q101 0 142 -35l-25 -99h-21l-45 74q-28 11 -81 11q-107 0 -147.5 -53.5t-49.5 -188.5q-10 -143 44 -222.5t151 -79.5q45 0 85 15zM282 -93
q1 15 14.5 30.5t24.5 15.5q14 0 31 -25t15 -51q-2 -56 -92 -142l-11 9q49 63 55 94q1 19 -18.5 37.5t-18.5 31.5z" />
    <glyph glyph-name="gcommaaccent" unicode="&#x123;" horiz-adv-x="358" 
d="M246 540q-1 -15 -14.5 -30.5t-24.5 -15.5q-14 0 -31 25t-15 51q2 56 92 142l11 -9q-49 -63 -55 -94q-1 -19 18.5 -37.5t18.5 -31.5zM128 -195q-67 0 -106 24t-38 62q0 14 3 26t13 24t17.5 20.5t25.5 20.5t27.5 18.5t33.5 20.5t34 20l-22 13q-20 14 -27.5 24t-7.5 27
q0 11 11 23.5t23.5 22t39.5 27.5q-42 3 -74.5 39.5t-28.5 94.5q6 68 50.5 108t108.5 40q37 0 69 -29l85 99l34 -35v-17l-111 -55q37 -40 31 -100q-4 -58 -35 -94t-81 -47h1q-58 -38 -60 -57q-1 -7 4 -14t11.5 -12t6.5 -6l64 -32q62 -31 80.5 -55.5t18.5 -56.5
q0 -52 -62.5 -98t-138.5 -46zM262 303q4 55 -16 90.5t-65 35.5q-66 0 -72 -99q-3 -52 19.5 -88.5t65.5 -36.5q29 0 47.5 24.5t20.5 73.5zM146 -159q52 0 87 23t33 55q-3 53 -63 86l-44 25q-57 -39 -85.5 -66t-31.5 -57q-2 -28 28 -47t76 -19z" />
    <glyph glyph-name="Hcircumflex" unicode="&#x124;" horiz-adv-x="632" 
d="M362 828l95 -167h-20l-94 99l-107 -99h-20l119 167h27zM226 13l1 -13h-206v15l75 43l34 496l-69 44l2 14h206l-3 -15l-72 -43l-15 -220h278l15 220l-70 44l3 14h205l-3 -15l-72 -43l-34 -496l66 -45l1 -13h-205l-1 15l76 43l17 247h-278l-17 -247z" />
    <glyph glyph-name="hcircumflex" unicode="&#x125;" horiz-adv-x="456" 
d="M189 859l78 -167h-19l-77 99l-92 -99h-19l101 167h28zM316 -2l-27 14q27 190 31 244q6 89 -6 120.5t-41 31.5q-12 0 -31 -14.5t-41 -41.5t-41 -78t-26 -113l-10 -149l-46 -12h-11l42 624h-66l2 14l113 55h21l-18 -117l-18 -277q40 86 83.5 123.5t78.5 37.5
q48 0 64.5 -45.5t6.5 -156.5q-2 -21 -28 -191h69l-2 -15z" />
    <glyph glyph-name="Hbar" unicode="&#x126;" horiz-adv-x="632" 
d="M457 334l7 100h-278l-7 -100h278zM226 13l1 -13h-206v15l75 43l26 376h-63l1 28h64l6 92l-69 44l2 14h206l-3 -15l-72 -43l-6 -92h278l6 92l-70 44l3 14h205l-3 -15l-72 -43l-6 -92h61l-1 -28h-62l-26 -376l66 -45l1 -13h-205l-1 15l76 43l17 247h-278l-17 -247z" />
    <glyph glyph-name="hbar" unicode="&#x127;" horiz-adv-x="456" 
d="M415 52l-99 -54l-27 14q27 190 31 244q6 89 -6 120.5t-41 31.5q-12 0 -31 -14.5t-41 -41.5t-41 -78t-26 -113l-10 -149l-46 -12h-11l35 526h-61l3 34h61l4 64h-66l2 14l113 55h21l-18 -117l-1 -16h88l-4 -34h-86l-15 -227q40 86 83.5 123.5t78.5 37.5q48 0 64.5 -45.5
t6.5 -156.5q-2 -21 -28 -191h69z" />
    <glyph glyph-name="Itilde" unicode="&#x128;" horiz-adv-x="292" 
d="M251 698q6 0 11.5 1.5t9.5 2.5t9 5t7.5 5.5t8.5 8t7.5 8.5t8 9.5t8.5 9.5l6 -11q-5 -8 -15 -22t-14 -19t-11 -14.5t-11 -13t-10.5 -8t-12 -6t-12.5 -1.5q-21 0 -62.5 15t-59.5 15q-34 0 -76 -44l-4 11q24 29 31 37t20.5 21t22 15.5t21.5 2.5q22 0 63 -14t54 -14zM194 554
l-34 -496l66 -45l1 -13h-206v15l75 43l34 496l-69 44l2 14h206l-3 -15z" />
    <glyph glyph-name="itilde" unicode="&#x129;" horiz-adv-x="250" 
d="M208 582q15 0 28.5 8t20 15t22.5 26l8 -11q-6 -8 -15.5 -21.5t-14 -19.5t-11.5 -15t-11 -12.5t-10.5 -8t-12 -6t-12.5 -1.5q-21 0 -62.5 15t-58.5 15q-34 0 -76 -44l-4 11q23 29 29.5 37.5t20 21.5t22 15.5t21.5 2.5q22 0 62.5 -14t53.5 -14zM137 67h69l-2 -15l-99 -54
l-27 14l27 387l-72 9l3 13l129 39h12l-14 -65z" />
    <glyph glyph-name="Imacron" unicode="&#x12a;" horiz-adv-x="292" 
d="M302 744l-1 -15l-15 -17h-184l1 15l16 17h183zM194 554l-34 -496l66 -45l1 -13h-206v15l75 43l34 496l-69 44l2 14h206l-3 -15z" />
    <glyph glyph-name="imacron" unicode="&#x12b;" horiz-adv-x="250" 
d="M235 594l-1 -15l-13 -17h-184l1 15l14 17h183zM137 67h69l-2 -15l-99 -54l-27 14l27 387l-72 9l3 13l129 39h12l-14 -65z" />
    <glyph glyph-name="Ibreve" unicode="&#x12c;" horiz-adv-x="292" 
d="M184 714q48 0 70.5 30.5t33.5 83.5h20q-4 -74 -37 -120.5t-94 -46.5q-114 0 -103 167h20q6 -114 90 -114zM194 554l-34 -496l66 -45l1 -13h-206v15l75 43l34 496l-69 44l2 14h206l-3 -15z" />
    <glyph glyph-name="ibreve" unicode="&#x12d;" horiz-adv-x="250" 
d="M153 564q48 0 71 30.5t34 83.5h20q-6 -75 -38 -121t-92 -46q-117 0 -104 167h20q6 -114 89 -114zM137 67h69l-2 -15l-99 -54l-27 14l27 387l-72 9l3 13l129 39h12l-14 -65z" />
    <glyph glyph-name="Iogonek" unicode="&#x12e;" horiz-adv-x="292" 
d="M222 -208q-8 -3 -20 -8l-18 -7.5t-14.5 -4.5t-16.5 -2q-26 0 -45 21.5t-18 53.5q2 43 34 85t81 70h-184v15l75 43l34 496l-69 44l2 14h206l-3 -15l-72 -43l-34 -496l66 -45v-2l15 6l5 -4q-7 -4 -19 -12v-1h-1q-92 -62 -97 -136q-2 -24 11 -42.5t37 -18.5q12 0 41 9z" />
    <glyph glyph-name="iogonek" unicode="&#x12f;" horiz-adv-x="250" 
d="M113 617q2 14 15.5 31.5t24.5 17.5q9 0 22 -14t13 -26q-2 -14 -16 -31t-24 -17t-22.5 13.5t-12.5 25.5zM107 -186q-27 0 -47 22.5t-16 57.5q6 62 56 107l-22 11l27 387l-72 9l3 13l129 39h12l-14 -65l-26 -328h69l-2 -15l-36 -20q-76 -52 -85 -121q-3 -26 10.5 -45
t37.5 -19q12 0 41 9l4 -20q-8 -3 -20 -8l-18 -7.5t-14.5 -4.5t-16.5 -2z" />
    <glyph glyph-name="Idotaccent" unicode="&#x130;" horiz-adv-x="292" 
d="M152 750q1 13 16.5 30.5t25.5 17.5t26 -14t16 -26q-1 -13 -17 -30t-25 -17q-11 0 -26.5 13.5t-15.5 25.5zM194 554l-34 -496l66 -45l1 -13h-206v15l75 43l34 496l-69 44l2 14h206l-3 -15z" />
    <glyph glyph-name="dotlessi" unicode="&#x131;" horiz-adv-x="250" 
d="M137 67h69l-2 -15l-99 -54l-27 14l27 387l-72 9l3 13l129 39h12l-14 -65z" />
    <glyph glyph-name="IJ" unicode="&#x132;" horiz-adv-x="630" 
d="M194 554l-34 -496l66 -45l1 -13h-206v15l75 43l34 496l-69 44l2 14h206l-3 -15zM453 119l30 435l-85 44l1 14h221l-1 -15l-74 -43l-28 -407q-5 -75 -56 -116t-120 -41q-41 0 -65 11l23 94h22l42 -81q84 17 90 105z" />
    <glyph glyph-name="ij" unicode="&#x133;" horiz-adv-x="469" 
d="M363 617q2 14 15.5 31.5t24.5 17.5q9 0 22 -14t13 -26q-2 -14 -16 -31t-24 -17t-22.5 13.5t-12.5 25.5zM113 617q2 14 15.5 31.5t24.5 17.5q9 0 22 -14t13 -26q-2 -14 -16 -31t-24 -17t-22.5 13.5t-12.5 25.5zM137 67h69l-2 -15l-99 -54l-27 14l27 387l-72 9l3 13l129 39
h12l-14 -65zM413 395l-27 -384q-9 -121 -57 -179.5t-120 -58.5l-12 34l4 25q32 -3 48 -3q68 0 74 106l32 464l-72 9l3 13l129 39h12z" />
    <glyph glyph-name="Jcircumflex" unicode="&#x134;" horiz-adv-x="338" 
d="M252 828l95 -167h-20l-94 99l-107 -99h-20l119 167h27zM161 119l30 435l-85 44l1 14h221l-1 -15l-74 -43l-28 -407q-5 -75 -56 -116t-120 -41q-41 0 -65 11l23 94h22l42 -81q84 17 90 105z" />
    <glyph glyph-name="jcircumflex" unicode="&#x135;" horiz-adv-x="220" 
d="M167 678l78 -167h-19l-77 99l-92 -99h-19l101 167h28zM163 395l-27 -384q-9 -121 -57 -179.5t-120 -58.5l-12 34l4 25q32 -3 48 -3q68 0 74 106l32 464l-72 9l3 13l129 39h12z" />
    <glyph glyph-name="Kcommaaccent" unicode="&#x136;" horiz-adv-x="581" 
d="M477 -10q-32 0 -59 20.5t-77.5 89.5t-140.5 214l-17 28l253 214l-63 41l1 15h169l-1 -15l-52 -33l-246 -213q29 -44 55.5 -81t47.5 -65t38 -50t30.5 -38t23.5 -27t18.5 -19t12.5 -11.5t10 -7.5l6 -5q28 -17 76 -15v-22q-41 -20 -85 -20zM194 554l-34 -496l68 -45l-1 -13
h-206l1 15l74 43l34 496l-68 44l1 14h206l-1 -15zM225 -93q1 15 14.5 30.5t24.5 15.5q14 0 31 -25t15 -51q-2 -56 -92 -142l-11 9q49 63 55 94q1 19 -18.5 37.5t-18.5 31.5z" />
    <glyph glyph-name="kcommaaccent" unicode="&#x137;" horiz-adv-x="441" 
d="M339 -12q-18 0 -31 8t-30 34.5t-34.5 81.5t-39.5 144q-48 -35 -66 -45v1l-13 -200l-47 -12h-10l41 624h-65l2 14l113 55h21l-19 -117l-22 -338q44 29 101.5 78t65.5 63q5 11 -10 17.5t-34 6.5l3 13q10 8 21.5 17t19 14.5t21.5 12.5q31 -9 42.5 -16.5t11.5 -26.5
q0 -14 -51 -59.5t-115 -93.5l35 26q33 -106 55.5 -162.5t34.5 -73t25 -16.5q29 0 63 40l13 -20q-37 -44 -57.5 -57t-44.5 -13zM144 -93q1 15 14.5 30.5t24.5 15.5q14 0 31 -25t15 -51q-2 -56 -92 -142l-11 9q49 63 55 94q1 19 -18.5 37.5t-18.5 31.5z" />
    <glyph glyph-name="Lacute" unicode="&#x139;" horiz-adv-x="471" 
d="M135 661l90 167l63 -25l-133 -142h-20zM28 0l1 15l73 43l34 496l-67 44l1 14h224l-1 -15l-92 -43l-36 -521h181l87 111h22l-38 -144h-389z" />
    <glyph glyph-name="lacute" unicode="&#x13a;" horiz-adv-x="269" 
d="M114 726l89 167l63 -25l-132 -142h-20zM161 576l-32 -474q-3 -56 33 -56q33 0 84 60l11 -19q-42 -59 -67.5 -78t-51.5 -19q-30 0 -48.5 26t-15.5 71l35 537h-65l2 14l113 55h21z" />
    <glyph glyph-name="Lcommaaccent" unicode="&#x13b;" horiz-adv-x="471" 
d="M28 0l1 15l73 43l34 496l-67 44l1 14h224l-1 -15l-92 -43l-36 -521h181l87 111h22l-38 -144h-389zM176 -93q1 15 14.5 30.5t24.5 15.5q14 0 31 -25t15 -51q-2 -56 -92 -142l-11 9q49 63 55 94q1 19 -18.5 37.5t-18.5 31.5z" />
    <glyph glyph-name="lcommaaccent" unicode="&#x13c;" horiz-adv-x="269" 
d="M161 576l-32 -474q-3 -56 33 -56q33 0 84 60l11 -19q-42 -59 -67.5 -78t-51.5 -19q-30 0 -48.5 26t-15.5 71l35 537h-65l2 14l113 55h21zM101 -93q1 15 14.5 30.5t24.5 15.5q14 0 31 -25t15 -51q-2 -56 -92 -142l-11 9q49 63 55 94q1 19 -18.5 37.5t-18.5 31.5z" />
    <glyph glyph-name="Lcaron" unicode="&#x13d;" horiz-adv-x="448" 
d="M353 647q5 16 18.5 26t26.5 10q11 0 27 -20t14 -44q-3 -49 -73 -147l-15 3q27 70 29 96q3 40 -27 76zM28 0l1 15l73 43l34 496l-67 44l1 14h224l-1 -15l-92 -43l-36 -521h181l87 111h22l-38 -144h-389z" />
    <glyph glyph-name="lcaron" unicode="&#x13e;" horiz-adv-x="253" 
d="M161 576l-32 -474q-3 -56 33 -56q33 0 84 60l11 -19q-42 -59 -67.5 -78t-51.5 -19q-30 0 -48.5 26t-15.5 71l35 537h-65l2 14l113 55h21zM211 647q5 16 18.5 26t26.5 10q11 0 27 -20t14 -44q-3 -49 -73 -147l-15 3q27 70 29 96q3 40 -27 76z" />
    <glyph glyph-name="Ldot" unicode="&#x13f;" horiz-adv-x="424" 
d="M360 312q1 13 16.5 30.5t25.5 17.5t26 -14t16 -26q-1 -13 -17 -30t-25 -17q-11 0 -26.5 13.5t-15.5 25.5zM28 0l1 15l73 43l34 496l-67 44l1 14h224l-1 -15l-92 -43l-36 -521h181l87 111h22l-38 -144h-389z" />
    <glyph glyph-name="ldot" unicode="&#x140;" horiz-adv-x="306" 
d="M161 576l-32 -474q-3 -56 33 -56q33 0 84 60l11 -19q-42 -59 -67.5 -78t-51.5 -19q-30 0 -48.5 26t-15.5 71l35 537h-65l2 14l113 55h21zM223 252q1 13 17 30.5t26 17.5t25.5 -14t14.5 -26q-1 -13 -17 -30t-25 -17q-11 0 -26.5 14t-14.5 25z" />
    <glyph glyph-name="Lslash" unicode="&#x141;" horiz-adv-x="471" 
d="M28 0l1 15l73 43l15 213l-66 -28v37l68 29l17 245l-67 44l1 14h224l-1 -15l-92 -43l-15 -217l130 55v-37l-132 -56l-19 -266h181l87 111h22l-38 -144h-389z" />
    <glyph glyph-name="lslash" unicode="&#x142;" horiz-adv-x="257" 
d="M138 -10q-30 0 -48.5 26t-15.5 71l14 212l-64 -27v37l66 28l19 287h-65l2 14l113 55h21l-19 -117l-14 -214l82 35v-37l-85 -37l-15 -221q-3 -56 33 -56q33 0 84 60l11 -19q-42 -59 -67.5 -78t-51.5 -19z" />
    <glyph glyph-name="Nacute" unicode="&#x143;" horiz-adv-x="630" 
d="M295 661l90 167l63 -25l-133 -142h-20zM497 -1h-29l-292 509l-31 -450l68 -45l-1 -13h-180l1 15l73 43l34 496l-67 44l1 14h123l270 -471l30 413l-65 45l1 13h177l-1 -15l-73 -43z" />
    <glyph glyph-name="nacute" unicode="&#x144;" horiz-adv-x="470" 
d="M191 511l89 167l63 -25l-132 -142h-20zM328 -2l-27 14q27 185 30 244q4 61 -1 96t-15.5 45.5t-29.5 10.5q-12 0 -30.5 -13.5t-40 -40t-40.5 -74.5t-27 -108l-12 -160l-47 -12h-10l29 399l-72 9l2 13l120 39h12l-12 -156q39 84 81.5 120t77.5 36q48 0 65 -45.5t7 -156.5
q-2 -21 -28 -191h69l-2 -15z" />
    <glyph glyph-name="Ncommaaccent" unicode="&#x145;" horiz-adv-x="630" 
d="M497 -1h-29l-292 509l-31 -450l68 -45l-1 -13h-180l1 15l73 43l34 496l-67 44l1 14h123l270 -471l30 413l-65 45l1 13h177l-1 -15l-73 -43zM222 -93q1 15 14.5 30.5t24.5 15.5q14 0 31 -25t15 -51q-2 -56 -92 -142l-11 9q49 63 55 94q1 19 -18.5 37.5t-18.5 31.5z" />
    <glyph glyph-name="ncommaaccent" unicode="&#x146;" horiz-adv-x="470" 
d="M328 -2l-27 14q27 185 30 244q4 61 -1 96t-15.5 45.5t-29.5 10.5q-12 0 -30.5 -13.5t-40 -40t-40.5 -74.5t-27 -108l-12 -160l-47 -12h-10l29 399l-72 9l2 13l120 39h12l-12 -156q39 84 81.5 120t77.5 36q48 0 65 -45.5t7 -156.5q-2 -21 -28 -191h69l-2 -15zM173 -93
q1 15 14.5 30.5t24.5 15.5q14 0 31 -25t15 -51q-2 -56 -92 -142l-11 9q49 63 55 94q1 19 -18.5 37.5t-18.5 31.5z" />
    <glyph glyph-name="Ncaron" unicode="&#x147;" horiz-adv-x="630" 
d="M480 828l-119 -167h-27l-95 167h20l94 -98l107 98h20zM497 -1h-29l-292 509l-31 -450l68 -45l-1 -13h-180l1 15l73 43l34 496l-67 44l1 14h123l270 -471l30 413l-65 45l1 13h177l-1 -15l-73 -43z" />
    <glyph glyph-name="ncaron" unicode="&#x148;" horiz-adv-x="470" 
d="M380 678l-101 -167h-28l-78 167h19l76 -99l93 99h19zM328 -2l-27 14q27 185 30 244q4 61 -1 96t-15.5 45.5t-29.5 10.5q-12 0 -30.5 -13.5t-40 -40t-40.5 -74.5t-27 -108l-12 -160l-47 -12h-10l29 399l-72 9l2 13l120 39h12l-12 -156q39 84 81.5 120t77.5 36
q48 0 65 -45.5t7 -156.5q-2 -21 -28 -191h69l-2 -15z" />
    <glyph glyph-name="Eng" unicode="&#x14a;" horiz-adv-x="630" 
d="M353 -160q-44 0 -68 11l23 94h22l41 -81q84 17 91 105l2 30h-2l-292 517l-31 -458l68 -45l-1 -13h-174l1 15l73 43l34 496l-67 44l1 14h123l275 -495l31 437l-68 44l1 14h174l-1 -15l-73 -43l-39 -562q-5 -70 -42.5 -111t-101.5 -41z" />
    <glyph glyph-name="eng" unicode="&#x14b;" horiz-adv-x="455" 
d="M198 -227l-12 33l4 26q10 -1 48 -1q33 0 47.5 27.5t21.5 91.5q27 243 27 367q0 54 -13.5 72.5t-35.5 18.5q-12 0 -30.5 -13.5t-40 -40t-40.5 -74.5t-27 -108l-12 -160l-47 -12h-10l29 399l-72 9l2 13l120 39h12l-12 -156q39 84 81.5 120t77.5 36q76 0 76 -113
q0 -105 -24 -336q-26 -238 -170 -238z" />
    <glyph glyph-name="Omacron" unicode="&#x14c;" horiz-adv-x="621" 
d="M436 744l-1 -15l-15 -17h-184l1 15l16 17h183zM346 622q105 0 160 -90t32 -250q-19 -131 -98 -211.5t-169 -80.5q-105 0 -160 90t-32 250q19 131 98 211.5t169 80.5zM297 42q85 0 126.5 50t57.5 176q17 145 -32 223.5t-134 78.5q-81 0 -122 -50t-57 -176
q-17 -145 31.5 -223.5t129.5 -78.5z" />
    <glyph glyph-name="omacron" unicode="&#x14d;" horiz-adv-x="430" 
d="M348 594l-1 -15l-13 -17h-184l1 15l14 17h183zM388 233q-13 -117 -73.5 -180t-140.5 -63q-67 0 -104 63t-26 164q13 116 72 179.5t135 63.5q72 0 110 -63t27 -164zM323 209q12 99 -17.5 157.5t-83.5 58.5q-55 0 -79 -40.5t-35 -144.5q-11 -98 18.5 -156.5t83.5 -58.5
t78.5 41t34.5 143z" />
    <glyph glyph-name="Obreve" unicode="&#x14e;" horiz-adv-x="621" 
d="M353 714q48 0 70.5 30.5t33.5 83.5h20q-4 -74 -37 -120.5t-94 -46.5q-114 0 -103 167h20q6 -114 90 -114zM346 622q105 0 160 -90t32 -250q-19 -131 -98 -211.5t-169 -80.5q-105 0 -160 90t-32 250q19 131 98 211.5t169 80.5zM297 42q85 0 126.5 50t57.5 176
q17 145 -32 223.5t-134 78.5q-81 0 -122 -50t-57 -176q-17 -145 31.5 -223.5t129.5 -78.5z" />
    <glyph glyph-name="obreve" unicode="&#x14f;" horiz-adv-x="430" 
d="M249 564q48 0 71 30.5t34 83.5h20q-6 -75 -38 -121t-92 -46q-117 0 -104 167h20q6 -114 89 -114zM388 233q-13 -117 -73.5 -180t-140.5 -63q-67 0 -104 63t-26 164q13 116 72 179.5t135 63.5q72 0 110 -63t27 -164zM323 209q12 99 -17.5 157.5t-83.5 58.5
q-55 0 -79 -40.5t-35 -144.5q-11 -98 18.5 -156.5t83.5 -58.5t78.5 41t34.5 143z" />
    <glyph glyph-name="Ohungarumlaut" unicode="&#x150;" horiz-adv-x="621" 
d="M364 661l90 167l63 -25l-133 -142h-20zM227 661l89 167l64 -25l-134 -142h-19zM346 622q105 0 160 -90t32 -250q-19 -131 -98 -211.5t-169 -80.5q-105 0 -160 90t-32 250q19 131 98 211.5t169 80.5zM297 42q85 0 126.5 50t57.5 176q17 145 -32 223.5t-134 78.5
q-81 0 -122 -50t-57 -176q-17 -145 31.5 -223.5t129.5 -78.5z" />
    <glyph glyph-name="ohungarumlaut" unicode="&#x151;" horiz-adv-x="430" 
d="M264 511l89 167l63 -25l-132 -142h-20zM127 511l89 167l63 -25l-133 -142h-19zM388 233q-13 -117 -73.5 -180t-140.5 -63q-67 0 -104 63t-26 164q13 116 72 179.5t135 63.5q72 0 110 -63t27 -164zM323 209q12 99 -17.5 157.5t-83.5 58.5q-55 0 -79 -40.5t-35 -144.5
q-11 -98 18.5 -156.5t83.5 -58.5t78.5 41t34.5 143z" />
    <glyph glyph-name="OE" unicode="&#x152;" horiz-adv-x="792" 
d="M301 42q68 0 107 32l30 440q-47 56 -119 56q-81 0 -122 -50t-57 -176q-17 -145 31.5 -223.5t129.5 -78.5zM715 0h-379q-29 -10 -61 -10q-105 0 -160 90t-32 250q19 131 98 211.5t169 80.5q37 0 64 -10h354l-27 -119h-23l-41 86h-169l-17 -248h60l120 8l-11 -47l-108 13
h-63l-19 -272h181l75 95h22z" />
    <glyph glyph-name="oe" unicode="&#x153;" horiz-adv-x="606" 
d="M414 -10q-25 0 -48 22.5t-34 67.5q-57 -90 -148 -90q-74 0 -112.5 62.5t-27.5 164.5q13 117 72.5 180t137.5 62q36 1 66.5 -25t46.5 -71q51 97 151 97q33 0 51.5 -27t17.5 -67q-2 -50 -53.5 -95t-152.5 -57q0 -2 -0.5 -5.5t-0.5 -5.5q-9 -76 13.5 -120.5t64.5 -44.5
q31 0 52 9.5t50 38.5l9 -12q-46 -52 -79.5 -68t-75.5 -16zM450 426q-44 -37 -66 -191q72 7 108 38.5t37 72.5q1 29 -16.5 56t-47.5 27q-10 0 -15 -3zM323 209q12 99 -17.5 157.5t-83.5 58.5q-55 0 -79 -40.5t-35 -144.5q-11 -98 18.5 -156.5t83.5 -58.5t78.5 41t34.5 143z
" />
    <glyph glyph-name="Racute" unicode="&#x154;" horiz-adv-x="563" 
d="M235 661l90 167l63 -25l-133 -142h-20zM477 -10q-30 0 -54 22t-59 88.5t-90 200.5q-22 -2 -32 -2q-28 0 -58 3l-17 -244l76 -45l1 -13h-216l-1 15l75 43l34 496l-69 44l3 14h190q104 0 156 -46t46 -103q-9 -109 -131 -149q114 -232 149 -260q30 -25 85 -20v-24
q-52 -20 -88 -20zM263 338q117 0 127 84q10 73 -33 115t-129 42h-25l-17 -238q75 -3 77 -3z" />
    <glyph glyph-name="racute" unicode="&#x155;" horiz-adv-x="314" 
d="M139 511l89 167l63 -25l-132 -142h-20zM135 12l-47 -12h-10l29 399l-72 9l2 13l120 39h12l-11 -143q19 45 42 76t43 44t33 18t22 5v-76l-10 -10h-17q-15 0 -32 -7.5t-37 -26.5t-35 -62t-19 -104v8z" />
    <glyph glyph-name="Rcommaaccent" unicode="&#x156;" horiz-adv-x="563" 
d="M477 -10q-30 0 -54 22t-59 88.5t-90 200.5q-22 -2 -32 -2q-28 0 -58 3l-17 -244l76 -45l1 -13h-216l-1 15l75 43l34 496l-69 44l3 14h190q104 0 156 -46t46 -103q-9 -109 -131 -149q114 -232 149 -260q30 -25 85 -20v-24q-52 -20 -88 -20zM263 338q117 0 127 84
q10 73 -33 115t-129 42h-25l-17 -238q75 -3 77 -3zM230 -93q1 15 14.5 30.5t24.5 15.5q14 0 31 -25t15 -51q-2 -56 -92 -142l-11 9q49 63 55 94q1 19 -18.5 37.5t-18.5 31.5z" />
    <glyph glyph-name="rcommaaccent" unicode="&#x157;" horiz-adv-x="314" 
d="M135 12l-47 -12h-10l29 399l-72 9l2 13l120 39h12l-11 -143q19 45 42 76t43 44t33 18t22 5v-76l-10 -10h-17q-15 0 -32 -7.5t-37 -26.5t-35 -62t-19 -104v8zM73 -93q1 15 14.5 30.5t24.5 15.5q14 0 31 -25t15 -51q-2 -56 -92 -142l-11 9q49 63 55 94q1 19 -18.5 37.5
t-18.5 31.5z" />
    <glyph glyph-name="Rcaron" unicode="&#x158;" horiz-adv-x="563" 
d="M420 828l-119 -167h-27l-95 167h20l94 -98l107 98h20zM477 -10q-30 0 -54 22t-59 88.5t-90 200.5q-22 -2 -32 -2q-28 0 -58 3l-17 -244l76 -45l1 -13h-216l-1 15l75 43l34 496l-69 44l3 14h190q104 0 156 -46t46 -103q-9 -109 -131 -149q114 -232 149 -260q30 -25 85 -20
v-24q-52 -20 -88 -20zM263 338q117 0 127 84q10 73 -33 115t-129 42h-25l-17 -238q75 -3 77 -3z" />
    <glyph glyph-name="rcaron" unicode="&#x159;" horiz-adv-x="314" 
d="M308 678l-101 -167h-28l-78 167h19l76 -99l93 99h19zM135 12l-47 -12h-10l29 399l-72 9l2 13l120 39h12l-11 -143q19 45 42 76t43 44t33 18t22 5v-76l-10 -10h-17q-15 0 -32 -7.5t-37 -26.5t-35 -62t-19 -104v8z" />
    <glyph glyph-name="Sacute" unicode="&#x15a;" horiz-adv-x="438" 
d="M179 661l90 167l63 -25l-133 -142h-20zM231 287l-48 28q-53 31 -79 69t-22 94q5 63 61 103.5t144 40.5q75 0 116 -18l-25 -105h-28l-45 78q-16 7 -62 7q-50 0 -73.5 -22t-28.5 -66q-6 -93 87 -145l47 -28q58 -35 85 -71.5t24 -90.5q-4 -73 -66.5 -122t-141.5 -49
q-80 0 -142 18l28 110h33l30 -74q31 -8 82 -8q54 0 83.5 22t33.5 76q4 56 -19.5 90.5t-73.5 62.5z" />
    <glyph glyph-name="sacute" unicode="&#x15b;" horiz-adv-x="330" 
d="M142 511l89 167l63 -25l-132 -142h-20zM119 -10q-50 0 -97 18l17 56h17q9 -5 27.5 -16.5t32 -17.5t26.5 -6q31 0 47.5 18t18.5 43q2 38 -17.5 71t-76.5 80q-21 20 -34.5 49.5t-9.5 58.5q5 53 42.5 84.5t91.5 31.5q45 0 89 -14l-13 -59h-15q-6 3 -25 14t-34.5 18t-26.5 7
q-26 0 -37 -13.5t-15 -41.5q-5 -31 10.5 -58t51.5 -61q87 -78 80 -138q-5 -54 -48.5 -89t-101.5 -35z" />
    <glyph glyph-name="Scircumflex" unicode="&#x15c;" horiz-adv-x="438" 
d="M284 828l95 -167h-20l-94 99l-107 -99h-20l119 167h27zM231 287l-48 28q-53 31 -79 69t-22 94q5 63 61 103.5t144 40.5q75 0 116 -18l-25 -105h-28l-45 78q-16 7 -62 7q-50 0 -73.5 -22t-28.5 -66q-6 -93 87 -145l47 -28q58 -35 85 -71.5t24 -90.5q-4 -73 -66.5 -122
t-141.5 -49q-80 0 -142 18l28 110h33l30 -74q31 -8 82 -8q54 0 83.5 22t33.5 76q4 56 -19.5 90.5t-73.5 62.5z" />
    <glyph glyph-name="scircumflex" unicode="&#x15d;" horiz-adv-x="330" 
d="M227 678l78 -167h-19l-77 99l-92 -99h-19l101 167h28zM119 -10q-50 0 -97 18l17 56h17q9 -5 27.5 -16.5t32 -17.5t26.5 -6q31 0 47.5 18t18.5 43q2 38 -17.5 71t-76.5 80q-21 20 -34.5 49.5t-9.5 58.5q5 53 42.5 84.5t91.5 31.5q45 0 89 -14l-13 -59h-15q-6 3 -25 14
t-34.5 18t-26.5 7q-26 0 -37 -13.5t-15 -41.5q-5 -31 10.5 -58t51.5 -61q87 -78 80 -138q-5 -54 -48.5 -89t-101.5 -35z" />
    <glyph glyph-name="Scedilla" unicode="&#x15e;" horiz-adv-x="438" 
d="M133 -202l-6 25q63 0 87 5t24 25q0 11 -4 18.5t-21 16.5t-49 17l44 87q-20 -2 -32 -2q-80 0 -142 18l28 110h33l30 -74q31 -8 82 -8q54 0 83.5 22t33.5 76q4 56 -19.5 90.5t-73.5 62.5l-48 28q-53 31 -79 69t-22 94q5 63 61 103.5t144 40.5q75 0 116 -18l-25 -105h-28
l-45 78q-16 7 -62 7q-50 0 -73.5 -22t-28.5 -66q-6 -93 87 -145l47 -28q58 -35 85 -71.5t24 -90.5q-4 -60 -47 -104t-106 -60l-31 -60q87 -22 87 -61q0 -38 -43.5 -57.5t-110.5 -20.5z" />
    <glyph glyph-name="scedilla" unicode="&#x15f;" horiz-adv-x="330" 
d="M44 -202l-6 25q63 0 87 5t24 25q0 11 -4 18.5t-21 16.5t-49 17l43 85q-49 0 -96 18l17 56h17q9 -5 27.5 -16.5t32 -17.5t26.5 -6q31 0 47.5 18t18.5 43q2 38 -17.5 71t-76.5 80q-21 20 -34.5 49.5t-9.5 58.5q5 53 42.5 84.5t91.5 31.5q45 0 89 -14l-13 -59h-15
q-6 3 -25 14t-34.5 18t-26.5 7q-26 0 -37 -13.5t-15 -41.5q-5 -31 10.5 -58t51.5 -61q87 -78 80 -138q-4 -49 -41 -83t-89 -40l-28 -54q87 -22 87 -61q0 -38 -43.5 -57.5t-110.5 -20.5z" />
    <glyph glyph-name="Scaron" unicode="&#x160;" horiz-adv-x="438" 
d="M398 828l-119 -167h-27l-95 167h20l94 -98l107 98h20zM231 287l-48 28q-53 31 -79 69t-22 94q5 63 61 103.5t144 40.5q75 0 116 -18l-25 -105h-28l-45 78q-16 7 -62 7q-50 0 -73.5 -22t-28.5 -66q-6 -93 87 -145l47 -28q58 -35 85 -71.5t24 -90.5q-4 -73 -66.5 -122
t-141.5 -49q-80 0 -142 18l28 110h33l30 -74q31 -8 82 -8q54 0 83.5 22t33.5 76q4 56 -19.5 90.5t-73.5 62.5z" />
    <glyph glyph-name="scaron" unicode="&#x161;" horiz-adv-x="330" 
d="M324 678l-101 -167h-28l-78 167h19l76 -99l93 99h19zM119 -10q-50 0 -97 18l17 56h17q9 -5 27.5 -16.5t32 -17.5t26.5 -6q31 0 47.5 18t18.5 43q2 38 -17.5 71t-76.5 80q-21 20 -34.5 49.5t-9.5 58.5q5 53 42.5 84.5t91.5 31.5q45 0 89 -14l-13 -59h-15q-6 3 -25 14
t-34.5 18t-26.5 7q-26 0 -37 -13.5t-15 -41.5q-5 -31 10.5 -58t51.5 -61q87 -78 80 -138q-5 -54 -48.5 -89t-101.5 -35z" />
    <glyph glyph-name="Tcommaaccent" unicode="&#x162;" horiz-adv-x="518" 
d="M352 13l-1 -13h-223l1 15l83 43l36 521h-81l-95 -91h-23l42 124h420l-28 -124h-23l-45 91h-105l-36 -521zM198 -93q1 15 14.5 30.5t24.5 15.5q14 0 31 -25t15 -51q-2 -56 -92 -142l-11 9q49 63 55 94q1 19 -18.5 37.5t-18.5 31.5z" />
    <glyph glyph-name="tcommaaccent" unicode="&#x163;" horiz-adv-x="307" 
d="M284 80q-47 -53 -74.5 -71.5t-52.5 -18.5q-35 0 -60.5 35.5t-18.5 108.5l28 286h-75l3 30h75l10 101l35 9h22l-11 -110h20l119 5l1 -38l-124 3h-19l-23 -235q-8 -81 6.5 -111t43.5 -30q16 0 32.5 10.5t52.5 45.5zM117 -93q1 15 14.5 30.5t24.5 15.5q14 0 31 -25t15 -51
q-2 -56 -92 -142l-11 9q49 63 55 94q1 19 -18.5 37.5t-18.5 31.5z" />
    <glyph glyph-name="Tcaron" unicode="&#x164;" horiz-adv-x="518" 
d="M421 828l-119 -167h-27l-95 167h20l94 -98l107 98h20zM352 13l-1 -13h-223l1 15l83 43l36 521h-81l-95 -91h-23l42 124h420l-28 -124h-23l-45 91h-105l-36 -521z" />
    <glyph glyph-name="tcaron" unicode="&#x165;" horiz-adv-x="307" 
d="M238 660q5 16 18.5 26t26.5 10q11 0 27 -20t14 -44q-3 -49 -73 -147l-15 3q27 70 29 96q3 40 -27 76zM284 80q-47 -53 -74.5 -71.5t-52.5 -18.5q-35 0 -60.5 35.5t-18.5 108.5l28 286h-75l3 30h75l10 101l35 9h22l-11 -110h20l119 5l1 -38l-124 3h-19l-23 -235
q-8 -81 6.5 -111t43.5 -30q16 0 32.5 10.5t52.5 45.5z" />
    <glyph glyph-name="Tbar" unicode="&#x166;" horiz-adv-x="518" 
d="M352 13l-1 -13h-223l1 15l83 43l17 246h-121l1 28h122l17 247h-81l-95 -91h-23l42 124h420l-28 -124h-23l-45 91h-105l-17 -247h124l-1 -28h-125l-17 -246z" />
    <glyph glyph-name="tbar" unicode="&#x167;" horiz-adv-x="307" 
d="M284 80q-47 -53 -74.5 -71.5t-52.5 -18.5q-35 0 -60.5 35.5t-18.5 108.5l12 119h-68l4 34h67l13 133h-75l3 30h75l10 101l35 9h22l-11 -110h20l119 5l1 -38l-124 3h-19l-13 -133h139l-4 -34h-138l-7 -68q-8 -81 6.5 -111t43.5 -30q16 0 32.5 10.5t52.5 45.5z" />
    <glyph glyph-name="Utilde" unicode="&#x168;" horiz-adv-x="634" 
d="M438 698q6 0 11.5 1.5t9.5 2.5t9 5t7.5 5.5t8.5 8t7.5 8.5t8 9.5t8.5 9.5l6 -11q-5 -8 -15 -22t-14 -19t-11 -14.5t-11 -13t-10.5 -8t-12 -6t-12.5 -1.5q-21 0 -62.5 15t-59.5 15q-34 0 -76 -44l-4 11q24 29 31 37t20.5 21t22 15.5t21.5 2.5q21 0 63 -14t54 -14zM204 554
l-24 -333q-5 -81 30.5 -126t114.5 -45q72 0 107 33t40 114l25 357l-70 45l1 13h185l-1 -15l-80 -43l-24 -332q-8 -109 -66 -170.5t-156 -61.5q-85 0 -131 55t-39 154l25 355l-68 44l1 14h205l-1 -15z" />
    <glyph glyph-name="utilde" unicode="&#x169;" horiz-adv-x="462" 
d="M328 582q15 0 28.5 8t20 15t22.5 26l8 -11q-6 -8 -15.5 -21.5t-14 -19.5t-11.5 -15t-11 -12.5t-10.5 -8t-12 -6t-12.5 -1.5q-21 0 -62.5 15t-58.5 15q-34 0 -76 -44l-4 11q23 29 29.5 37.5t20 21.5t22 15.5t21.5 2.5q22 0 63 -14t53 -14zM288 12l10 139
q-74 -161 -149 -161q-48 0 -64.5 45.5t-6.5 156.5q4 42 30 207l-72 9l2 13l117 39h11q-25 -170 -32 -266q-6 -89 6 -120.5t41 -31.5q12 0 30 15.5t38 45t36.5 83.5t22.5 121v-2l9 131l46 24h11l-27 -393h69l-2 -15l-99 -54z" />
    <glyph glyph-name="Umacron" unicode="&#x16a;" horiz-adv-x="634" 
d="M478 744l-1 -15l-15 -17h-184l1 15l16 17h183zM204 554l-24 -333q-5 -81 30.5 -126t114.5 -45q72 0 107 33t40 114l25 357l-70 45l1 13h185l-1 -15l-80 -43l-24 -332q-8 -109 -66 -170.5t-156 -61.5q-85 0 -131 55t-39 154l25 355l-68 44l1 14h205l-1 -15z" />
    <glyph glyph-name="umacron" unicode="&#x16b;" horiz-adv-x="462" 
d="M348 594l-1 -15l-13 -17h-184l1 15l14 17h183zM288 12l10 139q-74 -161 -149 -161q-48 0 -64.5 45.5t-6.5 156.5q4 42 30 207l-72 9l2 13l117 39h11q-25 -170 -32 -266q-6 -89 6 -120.5t41 -31.5q12 0 30 15.5t38 45t36.5 83.5t22.5 121v-2l9 131l46 24h11l-27 -393h69
l-2 -15l-99 -54z" />
    <glyph glyph-name="Ubreve" unicode="&#x16c;" horiz-adv-x="634" 
d="M371 714q48 0 70.5 30.5t33.5 83.5h20q-4 -74 -37 -120.5t-94 -46.5q-114 0 -103 167h20q6 -114 90 -114zM204 554l-24 -333q-5 -81 30.5 -126t114.5 -45q72 0 107 33t40 114l25 357l-70 45l1 13h185l-1 -15l-80 -43l-24 -332q-8 -109 -66 -170.5t-156 -61.5
q-85 0 -131 55t-39 154l25 355l-68 44l1 14h205l-1 -15z" />
    <glyph glyph-name="ubreve" unicode="&#x16d;" horiz-adv-x="462" 
d="M266 564q48 0 71 30.5t34 83.5h20q-6 -75 -38 -121t-92 -46q-117 0 -104 167h20q6 -114 89 -114zM288 12l10 139q-74 -161 -149 -161q-48 0 -64.5 45.5t-6.5 156.5q4 42 30 207l-72 9l2 13l117 39h11q-25 -170 -32 -266q-6 -89 6 -120.5t41 -31.5q12 0 30 15.5t38 45
t36.5 83.5t22.5 121v-2l9 131l46 24h11l-27 -393h69l-2 -15l-99 -54z" />
    <glyph glyph-name="Uring" unicode="&#x16e;" horiz-adv-x="634" 
d="M296 759q3 34 27 57.5t55 23.5q34 0 54.5 -21.5t17.5 -59.5q-2 -34 -26.5 -57.5t-56.5 -23.5q-33 0 -52.5 21t-18.5 60zM321 758q-2 -26 11 -41.5t36 -15.5t38.5 15.5t16.5 41.5q3 28 -10.5 44t-36.5 16t-37.5 -16t-17.5 -44zM204 554l-24 -333q-5 -81 30.5 -126
t114.5 -45q72 0 107 33t40 114l25 357l-70 45l1 13h185l-1 -15l-80 -43l-24 -332q-8 -109 -66 -170.5t-156 -61.5q-85 0 -131 55t-39 154l25 355l-68 44l1 14h205l-1 -15z" />
    <glyph glyph-name="uring" unicode="&#x16f;" horiz-adv-x="462" 
d="M192 609q2 34 26.5 57.5t56.5 23.5q33 0 53.5 -21.5t17.5 -59.5q-2 -34 -26.5 -57.5t-56.5 -23.5q-33 0 -53 21t-18 60zM217 608q-2 -26 10.5 -41.5t35.5 -15.5t39 15.5t17 41.5q2 28 -11 44t-36 16t-38 -16t-17 -44zM288 12l10 139q-74 -161 -149 -161q-48 0 -64.5 45.5
t-6.5 156.5q4 42 30 207l-72 9l2 13l117 39h11q-25 -170 -32 -266q-6 -89 6 -120.5t41 -31.5q12 0 30 15.5t38 45t36.5 83.5t22.5 121v-2l9 131l46 24h11l-27 -393h69l-2 -15l-99 -54z" />
    <glyph glyph-name="Uhungarumlaut" unicode="&#x170;" horiz-adv-x="634" 
d="M405 661l90 167l63 -25l-133 -142h-20zM268 661l89 167l64 -25l-134 -142h-19zM204 554l-24 -333q-5 -81 30.5 -126t114.5 -45q72 0 107 33t40 114l25 357l-70 45l1 13h185l-1 -15l-80 -43l-24 -332q-8 -109 -66 -170.5t-156 -61.5q-85 0 -131 55t-39 154l25 355l-68 44
l1 14h205l-1 -15z" />
    <glyph glyph-name="uhungarumlaut" unicode="&#x171;" horiz-adv-x="462" 
d="M288 511l89 167l63 -25l-132 -142h-20zM151 511l89 167l63 -25l-133 -142h-19zM288 12l10 139q-74 -161 -149 -161q-48 0 -64.5 45.5t-6.5 156.5q4 42 30 207l-72 9l2 13l117 39h11q-25 -170 -32 -266q-6 -89 6 -120.5t41 -31.5q12 0 30 15.5t38 45t36.5 83.5t22.5 121
v-2l9 131l46 24h11l-27 -393h69l-2 -15l-99 -54z" />
    <glyph glyph-name="Uogonek" unicode="&#x172;" horiz-adv-x="634" 
d="M295 -230q-26 0 -45 21.5t-18 53.5q2 42 31.5 82t75.5 68q-27 -5 -53 -5q-85 0 -131 55t-39 154l25 355l-68 44l1 14h205l-1 -15l-74 -43l-24 -333q-5 -81 30.5 -126t114.5 -45q72 0 107 33t40 114l25 357l-70 45l1 13h185l-1 -15l-80 -43l-24 -332q-11 -162 -127 -213
q-105 -66 -110 -145q-2 -24 11 -42.5t37 -18.5q12 0 41 9l4 -20q-8 -3 -20 -8l-18 -7.5t-14.5 -4.5t-16.5 -2z" />
    <glyph glyph-name="uogonek" unicode="&#x173;" horiz-adv-x="462" 
d="M316 -187q-27 0 -47 22.5t-16 57.5q6 63 57 108l-22 11l10 139q-74 -161 -149 -161q-48 0 -64.5 45.5t-6.5 156.5q4 42 30 207l-72 9l2 13l117 39h11q-25 -170 -32 -266q-6 -89 6 -120.5t41 -31.5q12 0 30 15.5t38 45t36.5 83.5t22.5 121v-2l9 131l46 24h11l-27 -393h69
l-2 -15l-34 -18q-78 -52 -88 -124q-3 -26 10.5 -45t37.5 -19q12 0 41 9l4 -20q-8 -3 -20 -8l-18 -7.5t-14.5 -4.5t-16.5 -2z" />
    <glyph glyph-name="Wcircumflex" unicode="&#x174;" horiz-adv-x="949" 
d="M515 828l95 -167h-20l-94 99l-107 -99h-20l119 167h27zM640 -15l-159 507l-206 -482l-43 -25l-134 569h-1l-61 43l1 15h206l-1 -15l-82 -43l107 -468l195 467v1h1l24 58h15l171 -527l154 469l-67 43l1 15h188l-1 -15l-74 -42l-190 -545z" />
    <glyph glyph-name="wcircumflex" unicode="&#x175;" horiz-adv-x="624" 
d="M366 678l78 -167h-19l-77 99l-92 -99h-19l101 167h28zM364 -10l-38 275q-32 -91 -87 -174.5t-93 -100.5h-30l-37 409l-82 9l2 13l118 39h12l41 -407q51 60 93 146.5t51 150.5l-7 49l-66 9l3 13l94 39h12l60 -415q55 62 93 149t38 137q0 21 -1 30t-5.5 19.5t-15.5 16.5
t-30 11l3 13q32 21 73 39q5 0 11 -4.5t12 -18t6 -33.5q0 -104 -67.5 -238t-132.5 -176h-30z" />
    <glyph glyph-name="Ycircumflex" unicode="&#x176;" horiz-adv-x="553" 
d="M337 828l95 -167h-20l-94 99l-107 -99h-20l119 167h27zM369 13l-1 -13h-206l1 15l74 43l14 212h-1l-145 284h-2l-59 43l1 15h214l-1 -15l-83 -43l119 -240l148 240h-3l-66 43l1 15h188l-1 -15l-72 -42l-173 -279l-15 -218z" />
    <glyph glyph-name="ycircumflex" unicode="&#x177;" horiz-adv-x="408" 
d="M285 678l78 -167h-19l-77 99l-92 -99h-19l101 167h28zM-27 -227q-13 0 -24 3q-2 19 -11 33q-2 4 -2 -2l4 26q10 -1 38 -1q78 0 126.5 37t95.5 121h-37l-82 409l-82 9l2 13l118 39h12l89 -432l9 18q91 178 91 276q0 39 -9 55t-45 26l3 13q28 18 86 44q29 0 29 -67
q0 -42 -33.5 -146t-84.5 -208q-131 -266 -293 -266zM-52 -224h1q0 -2 -1 0z" />
    <glyph glyph-name="Ydieresis" unicode="&#x178;" horiz-adv-x="553" 
d="M375 741q0 11 12.5 25.5t21.5 14.5q10 0 22 -11.5t11 -22.5q0 -11 -12 -25t-22 -14q-8 0 -21 11.5t-12 21.5zM216 741q0 11 12 25.5t22 14.5q9 0 22 -12t12 -22q-1 -11 -14 -25t-22 -14q-8 0 -20.5 11.5t-11.5 21.5zM369 13l-1 -13h-206l1 15l74 43l14 212h-1l-145 284
h-2l-59 43l1 15h214l-1 -15l-83 -43l119 -240l148 240h-3l-66 43l1 15h188l-1 -15l-72 -42l-173 -279l-15 -218z" />
    <glyph glyph-name="Zacute" unicode="&#x179;" horiz-adv-x="497" 
d="M191 661l90 167l63 -25l-133 -142h-20zM411 0h-383v16l347 560h-198l-87 -104h-21l31 140h359l-1 -18l-351 -558h229l94 114h21z" />
    <glyph glyph-name="zacute" unicode="&#x17a;" horiz-adv-x="384" 
d="M140 511l89 167l63 -25l-132 -142h-20zM243 -12q-34 0 -102 9t-80 9q-28 0 -47 -17l-14 8l264 394q-27 1 -71 4t-59 3q-26 0 -43.5 -12.5t-35.5 -52.5h-13q12 66 21.5 92t18.5 31.5t33 5.5q26 0 85 -9t77 -9q35 0 53 19l16 -12l-267 -395q30 -1 87 -4t76 -3q37 0 56 15
t34 61h14q-8 -50 -16.5 -78.5t-23 -41t-26.5 -15t-37 -2.5z" />
    <glyph glyph-name="Zdotaccent" unicode="&#x17b;" horiz-adv-x="497" 
d="M253 750q1 13 16.5 30.5t25.5 17.5t26 -14t16 -26q-1 -13 -17 -30t-25 -17q-11 0 -26.5 13.5t-15.5 25.5zM411 0h-383v16l347 560h-198l-87 -104h-21l31 140h359l-1 -18l-351 -558h229l94 114h21z" />
    <glyph glyph-name="zdotaccent" unicode="&#x17c;" horiz-adv-x="384" 
d="M180 600q1 13 17 30.5t26 17.5t25.5 -14t14.5 -26q-1 -13 -17 -30t-25 -17q-11 0 -26.5 14t-14.5 25zM243 -12q-34 0 -102 9t-80 9q-28 0 -47 -17l-14 8l264 394q-27 1 -71 4t-59 3q-26 0 -43.5 -12.5t-35.5 -52.5h-13q12 66 21.5 92t18.5 31.5t33 5.5q26 0 85 -9t77 -9
q35 0 53 19l16 -12l-267 -395q30 -1 87 -4t76 -3q37 0 56 15t34 61h14q-8 -50 -16.5 -78.5t-23 -41t-26.5 -15t-37 -2.5z" />
    <glyph glyph-name="Zcaron" unicode="&#x17d;" horiz-adv-x="497" 
d="M412 828l-119 -167h-27l-95 167h20l94 -98l107 98h20zM411 0h-383v16l347 560h-198l-87 -104h-21l31 140h359l-1 -18l-351 -558h229l94 114h21z" />
    <glyph glyph-name="zcaron" unicode="&#x17e;" horiz-adv-x="382" 
d="M315 678l-101 -167h-28l-78 167h19l76 -99l93 99h19zM243 -12q-34 0 -102 9t-80 9q-28 0 -47 -17l-14 8l264 394q-27 1 -71 4t-59 3q-26 0 -43.5 -12.5t-35.5 -52.5h-13q12 66 21.5 92t18.5 31.5t33 5.5q26 0 85 -9t77 -9q35 0 53 19l16 -12l-267 -395q30 -1 87 -4t76 -3
q37 0 56 15t34 61h14q-8 -50 -16.5 -78.5t-23 -41t-26.5 -15t-37 -2.5z" />
    <glyph glyph-name="florin" unicode="&#x192;" horiz-adv-x="482" 
d="M1 -235q-6 0 -38 2l17 73h22l45 -44q23 0 43.5 22.5t29.5 63.5l109 535h-137l1 33h143v1q12 60 31.5 106t40 72.5t45.5 43t45.5 22t41.5 5.5q40 0 67 -9l-13 -74h-22l-74 47q-26 0 -49 -17.5t-31 -59.5l-28 -137h162l-1 -33h-168l-86 -416q-26 -124 -78 -180t-118 -56z
" />
    <glyph glyph-name="Acaron" unicode="&#x1cd;" horiz-adv-x="577" 
d="M463 828l-119 -167h-27l-95 167h20l94 -98l107 98h20zM352 277l-69 267l-107 -267h176zM157 0h-181l1 15l61 43l246 544l44 25l158 -570l56 -42l-1 -15h-225l1 15l90 43h2l-48 186h-199l-75 -186l71 -43z" />
    <glyph glyph-name="acaron" unicode="&#x1ce;" horiz-adv-x="433" 
d="M369 678l-101 -167h-28l-78 167h19l76 -99l93 99h19zM166 47q8 0 20.5 7t29.5 26.5t32 48t28 77.5t18 109l5 71q-44 29 -95 29q-49 0 -63 -17q-30 -40 -40 -188q-6 -78 11.5 -120.5t53.5 -42.5zM271 12l9 123q-42 -74 -76.5 -107t-70.5 -33q-43 0 -70.5 50.5t-19.5 157.5
q7 97 57 177t102 80q49 0 117 -22l23 26l14 -10l-26 -387h70l-2 -15l-100 -54z" />
    <glyph glyph-name="AEacute" unicode="&#x1fc;" horiz-adv-x="749" 
d="M424 661l90 167l63 -25l-133 -142h-20zM383 325l17 236l-156 -236h139zM130 15l-1 -15h-181l1 15l63 37l181 268v5h4l170 252l-59 21l1 14h119l8 3l-2 -3h291l-27 -119h-23l-41 86h-169l-18 -258h61l120 8l-11 -47l-108 13h-64l-18 -262h170l-1 -15l87 110h22l-33 -128
h-404l1 16l95 42l17 234h-159l-155 -234h4z" />
    <glyph glyph-name="aeacute" unicode="&#x1fd;" horiz-adv-x="582" 
d="M362 511l89 167l63 -25l-132 -142h-20zM545 74q-37 -40 -67 -59.5t-43 -22t-35 -2.5q-106 0 -105 161q-50 -80 -99.5 -118t-88.5 -38q-105 0 -50 208q29 98 93.5 163t125.5 65q60 0 93 -15l-5 -12q50 56 129 56q33 0 52 -26t17 -59q-1 -47 -51.5 -87.5t-156.5 -92.5
q-7 -80 14 -118.5t59 -38.5q64 0 109 48zM426 426q-47 -39 -68 -203q83 41 114 66t32 65q1 24 -16.5 49.5t-46.5 25.5q-10 0 -15 -3zM152 47q14 0 31.5 10t38.5 32t42 68t35 109l2 -33q9 77 36 130q-31 23 -78 23q-49 0 -67 -17q-42 -44 -65 -109q-55 -213 25 -213z" />
    <glyph glyph-name="Oslashacute" unicode="&#x1fe;" horiz-adv-x="620" 
d="M298 661l90 167l63 -25l-133 -142h-20zM136 344q-21 -175 56 -256l190 467q-31 15 -67 15q-82 0 -122.5 -50t-56.5 -176zM296 42q85 0 126.5 50t57.5 176q23 188 -67 266l-192 -471q35 -21 75 -21zM270 -10q-39 0 -73 14l-35 -86h-39l42 103q-56 37 -79.5 116.5
t-7.5 192.5q20 131 99 211.5t169 80.5q32 0 60 -9l32 80h39l-38 -94q61 -35 88 -116.5t10 -200.5q-19 -131 -98 -211.5t-169 -80.5z" />
    <glyph glyph-name="oslashacute" unicode="&#x1ff;" horiz-adv-x="429" 
d="M197 511l89 167l63 -25l-132 -142h-20zM107 240q-12 -107 25 -168l139 337q-22 16 -50 16q-55 0 -79 -40.5t-35 -144.5zM209 25q54 0 78.5 41t34.5 143q13 109 -25 170l-138 -337q23 -17 50 -17zM174 -10q-17 0 -34 5l-28 -67h-39l34 83q-37 27 -54 81t-9 125
q12 116 71 179.5t135 63.5q21 0 39 -6l28 68h39l-34 -83q38 -27 55.5 -80.5t9.5 -125.5q-13 -117 -73 -180t-140 -63z" />
    <glyph glyph-name="Scommaaccent" unicode="&#x218;" horiz-adv-x="438" 
d="M231 287l-48 28q-53 31 -79 69t-22 94q5 63 61 103.5t144 40.5q75 0 116 -18l-25 -105h-28l-45 78q-16 7 -62 7q-50 0 -73.5 -22t-28.5 -66q-6 -93 87 -145l47 -28q58 -35 85 -71.5t24 -90.5q-4 -73 -66.5 -122t-141.5 -49q-80 0 -142 18l28 110h33l30 -74q31 -8 82 -8
q54 0 83.5 22t33.5 76q4 56 -19.5 90.5t-73.5 62.5zM176 -93q1 15 14.5 30.5t24.5 15.5q14 0 31 -25t15 -51q-2 -56 -92 -142l-11 9q49 63 55 94q1 19 -18.5 37.5t-18.5 31.5z" />
    <glyph glyph-name="scommaaccent" unicode="&#x219;" horiz-adv-x="330" 
d="M119 -10q-50 0 -97 18l17 56h17q9 -5 27.5 -16.5t32 -17.5t26.5 -6q31 0 47.5 18t18.5 43q2 38 -17.5 71t-76.5 80q-21 20 -34.5 49.5t-9.5 58.5q5 53 42.5 84.5t91.5 31.5q45 0 89 -14l-13 -59h-15q-6 3 -25 14t-34.5 18t-26.5 7q-26 0 -37 -13.5t-15 -41.5
q-5 -31 10.5 -58t51.5 -61q87 -78 80 -138q-5 -54 -48.5 -89t-101.5 -35zM120 -93q1 15 14.5 30.5t24.5 15.5q14 0 31 -25t15 -51q-2 -56 -92 -142l-11 9q49 63 55 94q1 19 -18.5 37.5t-18.5 31.5z" />
    <glyph glyph-name="uni021A" unicode="&#x21a;" horiz-adv-x="518" 
d="M246 0h-118l1 15l83 43l36 521h-81l-95 -91h-23l42 124h420l-28 -124h-23l-45 91h-105l-36 -521l78 -45l-1 -13h-84l-33 -63q87 -22 87 -61q0 -38 -43.5 -57.5t-110.5 -20.5l-6 25q63 0 87 5t24 25q0 11 -4 18.5t-21 16.5t-49 17z" />
    <glyph glyph-name="uni021B" unicode="&#x21b;" horiz-adv-x="307" 
d="M210 -124q0 -38 -43.5 -57.5t-110.5 -20.5l-6 25q63 0 87 5t24 25q0 11 -4 18.5t-21 16.5t-49 17l45 90q-28 11 -44 45.5t-10 93.5l28 286h-75l3 30h75l10 101l35 9h22l-11 -110h20l119 5l1 -38l-124 3h-19l-23 -235q-8 -81 6.5 -111t43.5 -30q16 0 32.5 10.5t52.5 45.5
l10 -20q-47 -53 -74.5 -71.5t-52.5 -18.5h-6l-28 -53q87 -22 87 -61z" />
    <glyph glyph-name="circumflex" unicode="&#x2c6;" 
d="M301 678l78 -167h-19l-77 99l-92 -99h-19l101 167h28z" />
    <glyph glyph-name="caron" unicode="&#x2c7;" 
d="M392 678l-101 -167h-28l-78 167h19l76 -99l93 99h19z" />
    <glyph glyph-name="breve" unicode="&#x2d8;" 
d="M280 564q48 0 71 30.5t34 83.5h20q-6 -75 -38 -121t-92 -46q-117 0 -104 167h20q6 -114 89 -114z" />
    <glyph glyph-name="dotaccent" unicode="&#x2d9;" 
d="M240 600q1 13 17 30.5t26 17.5t25.5 -14t14.5 -26q-1 -13 -17 -30t-25 -17q-11 0 -26.5 14t-14.5 25z" />
    <glyph glyph-name="ring" unicode="&#x2da;" 
d="M206 609q2 34 26.5 57.5t56.5 23.5q33 0 53.5 -21.5t17.5 -59.5q-2 -34 -26.5 -57.5t-56.5 -23.5q-33 0 -53 21t-18 60zM231 608q-2 -26 10.5 -41.5t35.5 -15.5t39 15.5t17 41.5q2 28 -11 44t-36 16t-38 -16t-17 -44z" />
    <glyph glyph-name="ogonek" unicode="&#x2db;" 
d="M159 -150q11 108 138 153l4 -3q-94 -57 -103 -133q-3 -26 10.5 -45t37.5 -19q12 0 41 9l4 -20q-8 -3 -20 -8l-18 -7.5t-14.5 -4.5t-16.5 -2q-27 0 -47 22.5t-16 57.5z" />
    <glyph glyph-name="tilde" unicode="&#x2dc;" 
d="M342 582q15 0 28.5 8t20 15t22.5 26l8 -11q-6 -8 -15.5 -21.5t-14 -19.5t-11.5 -15t-11 -12.5t-10.5 -8t-12 -6t-12.5 -1.5q-21 0 -62.5 15t-58.5 15q-34 0 -76 -44l-4 11q23 29 29.5 37.5t20 21.5t22 15.5t21.5 2.5q22 0 63 -14t53 -14z" />
    <glyph glyph-name="hungarumlaut" unicode="&#x2dd;" 
d="M270 511l89 167l63 -25l-132 -142h-20zM133 511l89 167l63 -25l-133 -142h-19z" />
    <glyph glyph-name="numeralsigngreek" unicode="&#x374;" horiz-adv-x="233" 
d="M84 422l-24 6l77 266l70 -17z" />
    <glyph glyph-name="numeralsignlowergreek" unicode="&#x375;" horiz-adv-x="233" 
d="M19 -156l77 266l70 -18l-123 -255z" />
    <glyph glyph-name="questiongreek" unicode="&#x37e;" horiz-adv-x="233" 
d="M184 321q-1 -15 -19.5 -33t-30.5 -18q-11 0 -27.5 15.5t-15.5 29.5t19.5 33t29.5 19q13 0 29 -16t15 -30zM10 -156l77 266l70 -18l-123 -255z" />
    <glyph glyph-name="tonos" unicode="&#x384;" 
d="M244 511h-21l36 167l80 -12z" />
    <glyph glyph-name="dieresistonos" unicode="&#x385;" 
d="M231 526h-15l31 166l73 -11zM396 597q-1 -11 -15.5 -23.5t-23.5 -12.5t-23 10t-14 20q1 11 14.5 24.5t23.5 13.5q9 0 23.5 -11t14.5 -21zM181 597q-1 -11 -15.5 -23.5t-23.5 -12.5t-23 10t-13 20q0 11 14 24.5t23 13.5t23.5 -11t14.5 -21z" />
    <glyph glyph-name="Alphatonos" unicode="&#x386;" horiz-adv-x="577" 
d="M126 511h-21l26 167l80 -12zM372 277l-69 267l-107 -267h176zM177 0h-181l1 15l61 43l97 214v5h2l147 325l44 25l158 -570l56 -42l-1 -15h-225l1 15l90 43h2l-48 186h-199l-75 -186l71 -43z" />
    <glyph glyph-name="anoteleia" unicode="&#x387;" horiz-adv-x="233" 
d="M183 342q-3 -22 -26.5 -46.5t-42.5 -24.5q-17 0 -35 20.5t-16 38.5q2 23 25 47.5t42 24.5t37 -21t16 -39z" />
    <glyph glyph-name="Epsilontonos" unicode="&#x388;" horiz-adv-x="487" 
d="M-60 511h-21l26 167l80 -12zM28 0l1 15l73 43l34 496l-67 44l1 14h393l-29 -124h-22l-41 91h-168l-17 -248h60l133 8l-10 -47l-122 13h-63l-19 -272h170l-1 -14l90 119h22l-36 -138h-382z" />
    <glyph glyph-name="Etatonos" unicode="&#x389;" horiz-adv-x="632" 
d="M-60 511h-21l26 167l80 -12zM226 13l1 -13h-206v15l75 43l34 496l-69 44l2 14h206l-3 -15l-72 -43l-15 -220h278l15 220l-70 44l3 14h205l-3 -15l-72 -43l-34 -496l66 -45l1 -13h-205l-1 15l76 43l17 247h-278l-17 -247z" />
    <glyph glyph-name="Iotatonos" unicode="&#x38a;" horiz-adv-x="292" 
d="M-60 511h-21l26 167l80 -12zM234 0h-206l-1 15l75 43l34 496l-69 44l3 14h206l-3 -15l-72 -43l-34 -496l66 -45z" />
    <glyph glyph-name="Omicrontonos" unicode="&#x38c;" horiz-adv-x="621" 
d="M32 511h-21l26 167l80 -12zM538 282q-19 -131 -98 -211.5t-169 -80.5q-105 0 -160 90t-32 250q19 131 98 211.5t169 80.5q105 0 160 -90t32 -250zM136 344q-17 -145 31.5 -223.5t129.5 -78.5q85 0 126.5 50t57.5 176q17 145 -32 223.5t-134 78.5q-81 0 -122 -50t-57 -176
z" />
    <glyph glyph-name="Upsilontonos" unicode="&#x38e;" horiz-adv-x="532" 
d="M-96 511h-21l26 167l80 -12zM362 0h-231v15l88 43l10 141q13 165 -20.5 272.5t-99.5 107.5q-41 0 -64 -28l-20 26v11q43 36 98 36q48 0 80 -23t48.5 -67t22 -98.5t2.5 -127.5q27 132 83 224t127 92q53 0 85 -47l-10 -14q-27 16 -65 16q-74 0 -133.5 -111t-71.5 -270
l-11 -140l82 -45v-13z" />
    <glyph glyph-name="Omegatonos" unicode="&#x38f;" horiz-adv-x="604" 
d="M31 511h-21l26 167l80 -12zM238 31l-2 -31h-235l-10 126h23l37 -81h116q-106 124 -92 279q11 140 86 219t174 79q100 0 149.5 -76.5t40.5 -188.5q-13 -166 -132 -312h120l50 81h23l-30 -126h-233l1 27q77 79 107.5 146t38.5 154q12 112 -34.5 180t-126.5 68
q-73 0 -120.5 -55.5t-59.5 -158.5q-24 -218 109 -330z" />
    <glyph glyph-name="iotadieresistonos" unicode="&#x390;" horiz-adv-x="217" 
d="M120 526h-15l31 166l73 -11zM285 597q-1 -11 -15.5 -23.5t-23.5 -12.5t-23 10t-14 20q1 11 14.5 24.5t23.5 13.5q9 0 23.5 -11t14.5 -21zM70 597q-1 -11 -15.5 -23.5t-23.5 -12.5t-23 10t-13 20q0 11 14 24.5t23 13.5t23.5 -11t14.5 -21zM184 43q-9 -18 -28.5 -31.5
t-43.5 -13.5q-30 0 -45 32.5t-11 91.5q7 160 36 312l49 25h13q-31 -203 -40 -340q-1 -22 2 -34.5t15 -18.5t21 -7.5t33 -2.5z" />
    <glyph glyph-name="Alpha" unicode="&#x391;" horiz-adv-x="577" 
d="M372 277l-69 267l-107 -267h176zM177 0h-181l1 15l61 43l97 214v5h2l147 325l44 25l158 -570l56 -42l-1 -15h-225l1 15l90 43h2l-48 186h-199l-75 -186l71 -43z" />
    <glyph glyph-name="Beta" unicode="&#x392;" horiz-adv-x="488" 
d="M148 -1v1h-127l1 15l74 43l34 496l-68 44l1 14h205q81 0 127 -43.5t41 -106.5q-6 -96 -113 -134q57 -14 92.5 -55.5t31.5 -97.5q-6 -80 -68 -127.5t-156 -47.5q-69 0 -75 -1zM254 331q107 0 117 102q6 70 -30 108t-99 38q-13 0 -28 -0.5t-18 -0.5l-17 -236q27 -11 75 -11
zM241 30q128 0 135 110q4 82 -34 122.5t-100 40.5q-28 0 -66 -5l-17 -258q50 -10 82 -10z" />
    <glyph glyph-name="Gamma" unicode="&#x393;" horiz-adv-x="445" 
d="M243 15v-15h-222l1 15l74 43l34 496l-68 44l1 14h389l-29 -163h-22l-44 130h-161l-36 -528z" />
    <glyph glyph-name="Delta" unicode="&#x394;" horiz-adv-x="495" 
d="M452 0h-458l-6 17l263 587l44 23l162 -610zM375 41l-117 479l-209 -479h326z" />
    <glyph glyph-name="Epsilon" unicode="&#x395;" horiz-adv-x="487" 
d="M28 0l1 15l73 43l34 496l-67 44l1 14h393l-29 -124h-22l-41 91h-168l-17 -248h60l133 8l-10 -47l-122 13h-63l-19 -272h170l-1 -14l90 119h22l-36 -138h-382z" />
    <glyph glyph-name="Zeta" unicode="&#x396;" horiz-adv-x="497" 
d="M411 0h-383v16l347 560h-198l-87 -104h-21l31 140h359l-1 -18l-351 -558h229l94 114h21z" />
    <glyph glyph-name="Eta" unicode="&#x397;" horiz-adv-x="632" 
d="M226 13l1 -13h-206v15l75 43l34 496l-69 44l2 14h206l-3 -15l-72 -43l-15 -220h278l15 220l-70 44l3 14h205l-3 -15l-72 -43l-34 -496l66 -45l1 -13h-205l-1 15l76 43l17 247h-278l-17 -247z" />
    <glyph glyph-name="Theta" unicode="&#x398;" horiz-adv-x="625" 
d="M542 282q-21 -132 -100 -212t-170 -80q-106 0 -161 90.5t-30 249.5q20 132 99.5 212t170.5 80q106 0 161 -90.5t30 -249.5zM136 344q-18 -145 31 -223.5t131 -78.5q86 0 129 50t60 176q19 145 -31 223.5t-136 78.5q-83 0 -126 -50.5t-58 -175.5zM371 243l2 44l-139 2
l-34 -46h-25l46 134h27l-3 -49l141 4l32 44h25l-45 -133h-27z" />
    <glyph glyph-name="Iota" unicode="&#x399;" horiz-adv-x="292" 
d="M234 0h-206l-1 15l75 43l34 496l-69 44l3 14h206l-3 -15l-72 -43l-34 -496l66 -45z" />
    <glyph glyph-name="Kappa" unicode="&#x39a;" horiz-adv-x="581" 
d="M477 -10q-32 0 -59 20.5t-77.5 89.5t-140.5 214l-17 28l253 214l-63 41l1 15h169l-1 -15l-52 -33l-246 -213q29 -44 55.5 -81t47.5 -65t38 -50t30.5 -38t23.5 -27t18.5 -19t12.5 -11.5t10 -7.5l6 -5q28 -17 76 -15v-22q-41 -20 -85 -20zM194 554l-34 -496l68 -45l-1 -13
h-206l1 15l74 43l34 496l-68 44l1 14h206l-1 -15z" />
    <glyph glyph-name="Lambda" unicode="&#x39b;" horiz-adv-x="553" 
d="M167 15l-1 -15h-182l1 15l59 41l230 546l50 25l148 -570l55 -42l-1 -15h-227l1 15l92 42l-110 484l-184 -483z" />
    <glyph glyph-name="Mu" unicode="&#x39c;" horiz-adv-x="792" 
d="M195 13l-1 -13h-179l1 15l73 43l69 496l-67 44l1 14h140l152 -490l237 490h143l-1 -15l-74 -43l-7 -496l68 -45l-1 -13h-204l1 15l74 43l8 476l-241 -489l-38 -23l-160 509l-62 -473z" />
    <glyph glyph-name="Nu" unicode="&#x39d;" horiz-adv-x="630" 
d="M497 -1h-29l-292 509l-31 -450l68 -45l-1 -13h-180l1 15l73 43l34 496l-67 44l1 14h123l270 -471l30 413l-65 45l1 13h177l-1 -15l-73 -43z" />
    <glyph glyph-name="Xi" unicode="&#x39e;" horiz-adv-x="514" 
d="M468 468h-21l-39 102h-244l-64 -100h-22l33 147h27l32 -5h243l41 5h27zM378 237h-22l-11 50l-173 4l-32 -51h-21l26 143h22l12 -64l174 11l30 48h22zM414 -3l-71 3h-232l-69 -3l11 132h22l30 -88h252l74 102h21z" />
    <glyph glyph-name="Omicron" unicode="&#x39f;" horiz-adv-x="621" 
d="M538 282q-19 -131 -98 -211.5t-169 -80.5q-105 0 -160 90t-32 250q19 131 98 211.5t169 80.5q105 0 160 -90t32 -250zM136 344q-17 -145 31.5 -223.5t129.5 -78.5q85 0 126.5 50t57.5 176q17 145 -32 223.5t-134 78.5q-81 0 -122 -50t-57 -176z" />
    <glyph glyph-name="Pi" unicode="&#x3a0;" horiz-adv-x="623" 
d="M228 13l1 -13h-208v15l75 43l34 496l-69 44l2 14h537l-2 -15l-73 -43l-34 -496l67 -44l1 -14h-206l-1 15l76 43l36 524h-268l-36 -524z" />
    <glyph glyph-name="Rho" unicode="&#x3a1;" horiz-adv-x="486" 
d="M265 311q109 0 124 118q8 63 -29.5 106.5t-131.5 43.5h-25l-18 -265q38 -3 80 -3zM253 13l1 -13h-226l-1 15l75 43l34 496l-69 44l3 14h191q106 0 156 -42t44 -106q-8 -82 -77 -136t-142 -54q-21 0 -60 3l-15 -219z" />
    <glyph glyph-name="Sigma" unicode="&#x3a3;" horiz-adv-x="496" 
d="M463 156l-41 -156h-425l-7 27l275 275l-193 285l13 25h31l7 -11l2 11h363l-28 -122h-23l-41 89h-258l184 -270v-10l-250 -250h296l73 107h22z" />
    <glyph glyph-name="Tau" unicode="&#x3a4;" horiz-adv-x="518" 
d="M352 13l-1 -13h-223l1 15l83 43l36 521h-81l-95 -91h-23l42 124h420l-28 -124h-23l-45 91h-105l-36 -521z" />
    <glyph glyph-name="Upsilon" unicode="&#x3a5;" horiz-adv-x="532" 
d="M362 0h-231v15l88 43l10 141q13 165 -20.5 272.5t-99.5 107.5q-41 0 -64 -28l-20 26v11q43 36 98 36q48 0 80 -23t48.5 -67t22 -98.5t2.5 -127.5q27 132 83 224t127 92q53 0 85 -47l-10 -14q-27 16 -65 16q-74 0 -133.5 -111t-71.5 -270l-11 -140l82 -45v-13z" />
    <glyph glyph-name="Phi" unicode="&#x3a6;" horiz-adv-x="591" 
d="M375 0h-204l-1 15l76 30l35 500q-83 -4 -131.5 -55t-56.5 -141q-8 -93 36.5 -152t118.5 -68l-5 -34q-100 6 -157.5 70t-47.5 170q10 112 75.5 174t170.5 69l3 47l-69 31l2 14h204l-3 -15l-72 -30l-35 -500q83 4 131.5 55t56.5 141q8 93 -36.5 152t-118.5 68l5 34
q100 -6 157 -70t48 -170q-9 -112 -75 -174t-171 -69l-3 -47l66 -31z" />
    <glyph glyph-name="Chi" unicode="&#x3a7;" horiz-adv-x="583" 
d="M186 0h-196l1 15l76 38l192 265l-138 236l-69 43l1 15h233l-1 -15l-89 -43h-2l114 -194l134 195l-66 42l1 15h196l-1 -15l-76 -39l-168 -232l157 -268l69 -43l-1 -15h-233l1 15l89 43h1l-132 226l-158 -227l66 -42z" />
    <glyph glyph-name="Psi" unicode="&#x3a8;" horiz-adv-x="586" 
d="M376 0h-203l-1 15l75 41l12 162q-61 7 -95 37t-50 83q-6 20 -13.5 72t-12.5 73q-6 24 -13.5 32.5t-29.5 8.5q-23 0 -47 -17l-1 14q29 54 72 54q63 0 76 -78q4 -20 10.5 -70.5t11.5 -72.5q22 -92 94 -108l23 310l-69 42l3 14h204l-3 -15l-72 -41l-23 -315q37 8 68.5 38.5
t47.5 71.5q7 19 20.5 70.5t21.5 75.5q11 30 33 54t54 24q22 0 34.5 -9.5t25.5 -37.5l-4 -14q-16 10 -39 10q-33 0 -50 -42q-10 -22 -26 -75t-24 -70q-52 -108 -164 -123l-12 -158l66 -42v-14z" />
    <glyph glyph-name="Omega" unicode="&#x3a9;" horiz-adv-x="604" 
d="M238 31l-2 -31h-235l-10 126h23l37 -81h116q-106 124 -92 279q11 140 86 219t174 79q100 0 149.5 -76.5t40.5 -188.5q-13 -166 -132 -312h120l50 81h23l-30 -126h-233l1 27q77 79 107.5 146t38.5 154q12 112 -34.5 180t-126.5 68q-73 0 -120.5 -55.5t-59.5 -158.5
q-24 -218 109 -330z" />
    <glyph glyph-name="Iotadieresis" unicode="&#x3aa;" horiz-adv-x="292" 
d="M224 741q0 11 12.5 25.5t21.5 14.5q10 0 22 -11.5t11 -22.5q0 -11 -12 -25t-22 -14q-8 0 -21 11.5t-12 21.5zM65 741q0 11 12 25.5t22 14.5q9 0 22 -12t12 -22q-1 -11 -14 -25t-22 -14q-8 0 -20.5 11.5t-11.5 21.5zM234 0h-206l-1 15l75 43l34 496l-69 44l3 14h206
l-3 -15l-72 -43l-34 -496l66 -45z" />
    <glyph glyph-name="Upsilondieresis" unicode="&#x3ab;" horiz-adv-x="532" 
d="M357 741q0 11 12.5 25.5t21.5 14.5q10 0 22 -11.5t11 -22.5q0 -11 -12 -25t-22 -14q-8 0 -21 11.5t-12 21.5zM198 741q0 11 12 25.5t22 14.5q9 0 22 -12t12 -22q-1 -11 -14 -25t-22 -14q-8 0 -20.5 11.5t-11.5 21.5zM362 0h-231v15l88 43l10 141q13 165 -20.5 272.5
t-99.5 107.5q-41 0 -64 -28l-20 26v11q43 36 98 36q48 0 80 -23t48.5 -67t22 -98.5t2.5 -127.5q27 132 83 224t127 92q53 0 85 -47l-10 -14q-27 16 -65 16q-74 0 -133.5 -111t-71.5 -270l-11 -140l82 -45v-13z" />
    <glyph glyph-name="alphatonos" unicode="&#x3ac;" horiz-adv-x="431" 
d="M250 511h-21l36 167l80 -12zM166 47q14 0 29.5 10.5t35 35t35.5 76t24 123.5l3 32q-13 39 -44.5 63t-66.5 24q-23 0 -35 -12q-36 -33 -45 -176q-5 -84 14 -130t50 -46zM278 122v4q-43 -74 -77 -102.5t-74 -28.5q-43 0 -67.5 50t-17.5 156q9 114 62.5 186.5t118.5 72.5
q46 0 83 -82l14 62l41 19h14q-29 -162 -44 -325q-3 -47 12 -60.5t55 -15.5v-14q-35 -46 -75 -46q-23 0 -34 16t-12 43.5t1 64.5z" />
    <glyph glyph-name="epsilontonos" unicode="&#x3ad;" horiz-adv-x="365" 
d="M238 511h-21l36 167l80 -12zM336 98q-41 -56 -82.5 -82t-95.5 -26q-52 0 -88 35.5t-32 97.5q4 45 36 79.5t74 38.5q-39 6 -60 36t-19 69q2 53 47 83.5t111 30.5q37 0 99 -28l-27 -98h-12l-24 70q-19 22 -52 22t-57.5 -20.5t-25.5 -53.5q-3 -40 19.5 -65.5t66.5 -25.5
q35 0 66 5l-8 -76h-13q-34 27 -66 27q-87 0 -93 -91q-3 -35 15 -59.5t57 -24.5q99 0 149 73z" />
    <glyph glyph-name="etatonos" unicode="&#x3ae;" horiz-adv-x="461" 
d="M258 511h-21l36 167l80 -12zM323 -228h-20l-36 22q57 262 67 461q3 61 -2.5 95.5t-16 46t-29.5 11.5q-13 0 -33 -16t-42.5 -45.5t-41 -84t-23.5 -120.5v2l-10 -132l-44 -12h-13l22 300q7 96 -68 100l1 13q31 47 74 47q35 0 45.5 -36.5t5.5 -105.5l-1 -14q74 156 161 156
q45 0 59 -42.5t9 -149.5q-10 -237 -64 -496z" />
    <glyph glyph-name="iotatonos" unicode="&#x3af;" horiz-adv-x="217" 
d="M133 511h-21l36 167l80 -12zM184 43q-9 -18 -28.5 -31.5t-43.5 -13.5q-30 0 -45 32.5t-11 91.5q7 160 36 312l49 25h13q-31 -203 -40 -340q-1 -22 2 -34.5t15 -18.5t21 -7.5t33 -2.5z" />
    <glyph glyph-name="upsilondieresistonos" unicode="&#x3b0;" horiz-adv-x="428" 
d="M228 526h-15l31 166l73 -11zM393 597q-1 -11 -15.5 -23.5t-23.5 -12.5t-23 10t-14 20q1 11 14.5 24.5t23.5 13.5q9 0 23.5 -11t14.5 -21zM178 597q-1 -11 -15.5 -23.5t-23.5 -12.5t-23 10t-13 20q0 11 14 24.5t23 13.5t23.5 -11t14.5 -21zM172 -12q-52 0 -78.5 37
t-17.5 101l23 187q4 39 -15 62t-55 25l1 13q34 47 71 47q34 0 48 -39.5t6 -98.5l-25 -190q-4 -39 15 -62.5t53 -23.5q50 0 83 49.5t43 139.5q6 61 -6 104.5t-48 85.5l55 40h11q67 -77 46 -218q-15 -100 -72 -179.5t-138 -79.5z" />
    <glyph glyph-name="alpha" unicode="&#x3b1;" horiz-adv-x="431" 
d="M166 47q14 0 29.5 10.5t35 35t35.5 76t24 123.5l3 32q-13 39 -44.5 63t-66.5 24q-23 0 -35 -12q-36 -33 -45 -176q-5 -84 14 -130t50 -46zM278 122v4q-43 -74 -77 -102.5t-74 -28.5q-43 0 -67.5 50t-17.5 156q9 114 62.5 186.5t118.5 72.5q46 0 83 -82l14 62l41 19h14
q-29 -162 -44 -325q-3 -47 12 -60.5t55 -15.5v-14q-35 -46 -75 -46q-23 0 -34 16t-12 43.5t1 64.5z" />
    <glyph glyph-name="beta" unicode="&#x3b2;" horiz-adv-x="416" 
d="M213 45q39 0 66.5 32t36.5 97q9 73 -17 116t-67 43q-24 0 -48 -6l3 41q120 59 141 174q7 45 -8.5 76t-56.5 31q-26 0 -45 -12.5t-32.5 -33.5t-24 -60t-17.5 -80.5t-15 -107.5q-18 -145 -26 -270q64 -40 110 -40zM88 -193l-55 -35h-14q27 395 49 541q29 187 81.5 286
t140.5 99q60 0 83.5 -46t6.5 -120q-13 -46 -45.5 -80.5t-90.5 -69.5q72 -1 104.5 -55.5t22.5 -144.5q-10 -93 -69.5 -142t-131.5 -49q-41 0 -72 22q-5 -75 -10 -206z" />
    <glyph glyph-name="gamma" unicode="&#x3b3;" horiz-adv-x="385" 
d="M147 -200l-61 -28h-20q41 126 92 211q-6 166 -60 331q-13 40 -28 57t-39 17q-9 0 -25 -6l-10 12q27 66 64 66q47 0 85 -109q42 -120 42 -273q0 -38 -1 -56l68 125q47 96 53 187q1 58 -52 81l75 49h26q12 -32 11 -89q-7 -120 -73 -232l-111 -172v2q-9 -98 -36 -173z" />
    <glyph glyph-name="delta" unicode="&#x3b4;" horiz-adv-x="438" 
d="M391 208q-9 -93 -70 -155.5t-127 -62.5q-84 0 -121 54.5t-28 148.5q8 84 64 148t129 86q-9 9 -29 25q-106 85 -106 155q0 44 37.5 68.5t85.5 24.5q118 0 190 -95l-14 -23l-42 -23q-21 45 -61.5 76t-93.5 31q-24 0 -38.5 -8.5t-14.5 -23.5q0 -53 98 -139
q83 -75 116.5 -137t24.5 -150zM210 25q55 0 81.5 41t35.5 130q14 127 -71 214q-73 -29 -106 -77t-40 -120q-7 -81 19.5 -134.5t80.5 -53.5z" />
    <glyph glyph-name="epsilon" unicode="&#x3b5;" horiz-adv-x="365" 
d="M336 98q-41 -56 -82.5 -82t-95.5 -26q-52 0 -88 35.5t-32 97.5q4 45 36 79.5t74 38.5q-39 6 -60 36t-19 69q2 53 47 83.5t111 30.5q37 0 99 -28l-27 -98h-12l-24 70q-19 22 -52 22t-57.5 -20.5t-25.5 -53.5q-3 -40 19.5 -65.5t66.5 -25.5q35 0 66 5l-8 -76h-13
q-34 27 -66 27q-87 0 -93 -91q-3 -35 15 -59.5t57 -24.5q99 0 149 73z" />
    <glyph glyph-name="zeta" unicode="&#x3b6;" horiz-adv-x="312" 
d="M77 -229l-14 23l3 60q165 53 165 119q0 27 -46 42l-26 8q-131 40 -110 188q15 107 79.5 215.5t165.5 191.5l-72 -14q-48 -9 -88 6.5t-41 49.5q0 38 48 56l7 -7q-5 -13 -5 -28q0 -44 63 -44q43 0 144 39l10 -49q-217 -156 -248 -397q-8 -63 6.5 -91t57.5 -47l41 -20
q71 -34 62 -95q-6 -49 -59.5 -104t-142.5 -102z" />
    <glyph glyph-name="eta" unicode="&#x3b7;" horiz-adv-x="461" 
d="M323 -228h-20l-36 22q57 262 67 461q3 61 -2.5 95.5t-16 46t-29.5 11.5q-13 0 -33 -16t-42.5 -45.5t-41 -84t-23.5 -120.5v2l-10 -132l-44 -12h-13l22 300q7 96 -68 100l1 13q31 47 74 47q35 0 45.5 -36.5t5.5 -105.5l-1 -14q74 156 161 156q45 0 59 -42.5t9 -149.5
q-10 -237 -64 -496z" />
    <glyph glyph-name="theta" unicode="&#x3b8;" horiz-adv-x="452" 
d="M417 349q-12 -158 -78 -258.5t-149 -100.5q-77 0 -111.5 96.5t-21.5 254.5q12 158 78 258.5t150 100.5q76 0 110 -96.5t22 -254.5zM115 364v-3l247 8q12 279 -114 279q-56 0 -88 -67t-45 -217zM226 43q56 0 88 66.5t45 215.5v2l-247 2q-17 -286 114 -286z" />
    <glyph glyph-name="iota" unicode="&#x3b9;" horiz-adv-x="217" 
d="M184 43q-9 -18 -28.5 -31.5t-43.5 -13.5q-30 0 -45 32.5t-11 91.5q7 160 36 312l49 25h13q-31 -203 -40 -340q-1 -22 2 -34.5t15 -18.5t21 -7.5t33 -2.5z" />
    <glyph glyph-name="kappa" unicode="&#x3ba;" horiz-adv-x="428" 
d="M356 -12q-87 0 -124 155l-20 87l-71 -90l-14 -126l-44 -14h-14l36 314q9 82 -67 86v13q33 47 65 47q75 0 59 -135l-15 -137l107 141q66 89 84 106q25 22 48 22q34 0 29 -42l-41 -46q-13 22 -21 24q-2 0 -4.5 -0.5t-5.5 -2.5t-5.5 -4t-6 -6.5t-6.5 -7.5t-8 -9.5t-9 -11.5
t-11 -14t-12 -15l-33 -42l21 -90q12 -50 26 -82t27.5 -46t23.5 -18t23 -4q17 0 31 12l11 -15q-18 -49 -59 -49z" />
    <glyph glyph-name="lambda" unicode="&#x3bb;" horiz-adv-x="429" 
d="M353 -8q-70 0 -97 128q-18 90 -39 256q-79 -166 -138 -381l-68 20q87 215 199 416q0 4 -1 11.5t-2 11.5q-11 84 -36.5 138t-66.5 54q-34 0 -55 -17l-5 13q34 58 85 58q103 0 138 -240q4 -35 11.5 -105t14.5 -119.5t15 -84.5q13 -54 27.5 -77t42.5 -23q16 0 29 5l11 -17
q-24 -47 -65 -47z" />
    <glyph glyph-name="mu" unicode="&#x3bc;" horiz-adv-x="436" 
d="M89 -204l-60 -26h-7q16 195 37 420q5 55 34 249l45 21h14q-30 -179 -35 -262q-7 -67 -0.5 -101.5t16 -44.5t27.5 -10q29 0 68.5 52.5t55.5 148.5q7 82 24 194l47 23h14q-22 -148 -35 -342q-1 -21 2.5 -33.5t15.5 -18t22 -7.5t32 -3v-13q-32 -45 -80 -45q-60 0 -52 123
q0 2 0.5 6.5t0.5 6.5q-72 -141 -153 -141q-23 0 -41 20q-7 -134 8 -217z" />
    <glyph glyph-name="nu" unicode="&#x3bd;" horiz-adv-x="362" 
d="M131 -10q-8 216 -35 318q-11 45 -26.5 62.5t-39.5 17.5q-16 0 -25 -4l-10 15q7 25 24.5 43t37.5 18q30 0 54 -33t34 -85q24 -123 24 -277l11 17q105 157 116 244q6 53 -41 92l46 46h30q15 -35 11 -103q-6 -73 -43 -146t-97 -160l-34 -51z" />
    <glyph glyph-name="xi" unicode="&#x3be;" horiz-adv-x="371" 
d="M144 -229l-14 22l3 61q142 49 150 97q3 36 -46 49l-45 11q-161 42 -144 166q8 63 52 106t104 67q-49 7 -77.5 39t-25.5 78q8 96 134 143l-49 -6q-37 -7 -70.5 10.5t-30.5 52.5q5 32 55 49l7 -7q-7 -12 -7 -28q0 -51 65 -51q41 0 142 33l8 -40q-82 -15 -133.5 -55
t-56.5 -97q-2 -38 19 -60.5t69 -22.5q31 0 62 7l4 -27l-1 -8q-80 -18 -136.5 -66t-64.5 -104q-7 -51 16 -77.5t78 -40.5l27 -6q50 -13 71.5 -36.5t18.5 -61.5q-3 -40 -50.5 -93.5t-133.5 -103.5z" />
    <glyph glyph-name="omicron" unicode="&#x3bf;" horiz-adv-x="426" 
d="M382 237q-13 -117 -72.5 -182t-138.5 -65q-66 0 -102 61t-25 162q13 116 72.5 181.5t134.5 65.5q70 0 106 -60.5t25 -162.5zM110 244q-9 -101 18.5 -160t80.5 -59q50 0 74 41t34 142q10 99 -17.5 158t-80.5 59q-51 0 -75.5 -40.5t-33.5 -140.5z" />
    <glyph glyph-name="pi" unicode="&#x3c0;" horiz-adv-x="503" 
d="M225 246q-7 -48 -18.5 -89.5t-30.5 -80.5t-49 -61.5t-68 -22.5q-12 0 -21 4l-5 73q33 -3 41 -3q81 0 110 190q1 5 14 146q-17 1 -50 1q-76 0 -101 -75l-13 4q6 77 28 102t74 25q58 0 159.5 -7.5t166.5 -7.5q22 0 44 36l10 1q-11 -58 -24 -75t-45 -17q-34 0 -51 1
q-18 -139 -19 -232q-2 -61 16 -79t72 -20v-13q-50 -48 -94 -48q-68 0 -62 109q11 127 39 285q-21 1 -57.5 3.5t-50.5 3.5q-8 -104 -15 -153z" />
    <glyph glyph-name="rho" unicode="&#x3c1;" horiz-adv-x="410" 
d="M203 45q40 0 63.5 35t35.5 124q14 100 -7 157t-67 57q-53 0 -84.5 -62.5t-43.5 -200.5q0 -18 -3 -63q39 -47 106 -47zM81 -196l-50 -32h-14q26 348 33 421q12 121 69.5 194t135.5 73q65 0 95.5 -62t15.5 -162q-18 -110 -75.5 -175.5t-135.5 -65.5q-36 0 -62 26
q-5 -79 -12 -217z" />
    <glyph glyph-name="sigma.alt" unicode="&#x3c2;" horiz-adv-x="310" 
d="M224 -41q3 33 -42 45l-37 10q-68 19 -89.5 65t-15.5 129q6 91 62.5 171.5t136.5 80.5q38 0 70 -30l-32 -50l-13 -2q-4 11 -23 21.5t-44 10.5q-36 0 -61.5 -49.5t-32.5 -136.5q-4 -45 -2.5 -77t16.5 -52t46 -27l37 -10q28 -7 49.5 -30.5t18.5 -54.5q-10 -100 -187 -201
l-15 25l2 57q46 17 72.5 28t54 32.5t29.5 44.5z" />
    <glyph glyph-name="sigma" unicode="&#x3c3;" horiz-adv-x="438" 
d="M109 248q-12 -104 14 -163.5t79 -59.5q42 0 69 46.5t37 131.5q10 88 -14.5 145.5t-70.5 57.5q-41 0 -73 -43t-41 -115zM367 194q-16 -85 -76 -144.5t-113 -59.5q-73 0 -110 60.5t-24 163.5q15 109 76 173t140 64q33 0 80.5 -3.5t85.5 -3.5q24 0 41 36l9 2
q-12 -54 -26 -68.5t-52 -14.5q-29 0 -76 5q30 -27 43 -84.5t2 -125.5z" />
    <glyph glyph-name="tau" unicode="&#x3c4;" horiz-adv-x="369" 
d="M282 46q-46 -48 -92 -48q-73 0 -63 111q11 115 51 291q-28 3 -46 3q-76 0 -101 -75l-13 4q6 76 28.5 101.5t73.5 25.5q32 0 104 -7.5t109 -7.5q21 0 43 36l10 1q-11 -59 -23.5 -75.5t-44.5 -16.5q-40 0 -101 7q-24 -148 -29 -248q-3 -52 18.5 -69.5t76.5 -19.5z" />
    <glyph glyph-name="upsilon" unicode="&#x3c5;" horiz-adv-x="428" 
d="M172 -12q-52 0 -78.5 37t-17.5 101l23 187q4 39 -15 62t-55 25l1 13q34 47 71 47q34 0 48 -39.5t6 -98.5l-25 -190q-4 -39 15 -62.5t53 -23.5q50 0 83 49.5t43 139.5q6 61 -6 104.5t-48 85.5l55 40h11q67 -77 46 -218q-15 -100 -72 -179.5t-138 -79.5z" />
    <glyph glyph-name="phi" unicode="&#x3c6;" horiz-adv-x="536" 
d="M209 -228h-20l23 221q-88 2 -133.5 60t-36.5 145q9 85 53 147.5t124 116.5l18 -33q-112 -70 -132 -232q-7 -74 23.5 -123t86.5 -52l24 236q10 91 42.5 147t90.5 56q65 0 98 -67t24 -156q-12 -119 -76 -181t-146 -64q-7 -95 -12 -196zM298 282q-14 -119 -24 -262
q136 2 157 214q8 74 -9.5 132.5t-57.5 58.5q-32 0 -45.5 -36t-20.5 -107z" />
    <glyph glyph-name="chi" unicode="&#x3c7;" horiz-adv-x="403" 
d="M230 -98q-18 55 -43 173q-55 -106 -142 -310l-54 15q61 143 183 355q-24 112 -43 166q-17 49 -32 70.5t-33 21.5q-23 0 -45 -9l-7 15q29 61 71 61q16 0 28.5 -7t20.5 -15.5t17.5 -31t14 -36.5t15.5 -49q12 -41 29 -116q76 145 140 245h59q-146 -230 -186 -303
q36 -162 58 -226q18 -52 29.5 -70t26.5 -18q22 0 45 14l2 -21q-21 -60 -65 -60q-28 0 -45 28t-44 108z" />
    <glyph glyph-name="psi" unicode="&#x3c8;" horiz-adv-x="518" 
d="M247 -223h-50q1 10 8 88.5t12 124.5q-81 5 -116.5 59t-24.5 151l10 112q5 44 -11.5 64t-53.5 22l1 17q29 45 66 45q56 0 48 -139q-1 -18 -7.5 -67.5t-6.5 -76.5q-2 -116 100 -131q31 338 44 530l36 26h22l-52 -559q110 10 135 171q20 125 0 212l46 40h15q19 -105 -1 -216
q-19 -105 -72 -175.5t-128 -82.5z" />
    <glyph glyph-name="omega" unicode="&#x3c9;" horiz-adv-x="587" 
d="M363 -12q-65 0 -86 93q-26 -48 -53 -70.5t-73 -22.5q-52 0 -88.5 50.5t-30.5 129.5q12 137 149 295l40 -19q-62 -54 -92.5 -125.5t-33.5 -128.5q-9 -144 88 -144q61 0 75 112q7 46 6.5 80t-12.5 65l12 33l79 -15q-25 -81 -29 -154q-2 -63 22 -92t56 -29q43 0 69 55
t31 149q3 64 -13 100t-54 79l56 37h14q30 -47 44.5 -92.5t11.5 -111.5q-4 -100 -64 -187t-124 -87z" />
    <glyph glyph-name="iotadieresis" unicode="&#x3ca;" horiz-adv-x="217" 
d="M162 591q1 11 14 25.5t21 14.5q10 0 22 -11.5t11 -22.5q0 -11 -13 -25t-22 -14q-8 0 -20.5 11.5t-12.5 21.5zM20 591q1 11 14 25.5t21 14.5q9 0 21.5 -12t11.5 -22q0 -11 -13 -25t-22 -14t-21 11.5t-12 21.5zM184 43q-9 -18 -28.5 -31.5t-43.5 -13.5q-30 0 -45 32.5
t-11 91.5q7 160 36 312l49 25h13q-31 -203 -40 -340q-1 -22 2 -34.5t15 -18.5t21 -7.5t33 -2.5z" />
    <glyph glyph-name="upsilondieresis" unicode="&#x3cb;" horiz-adv-x="428" 
d="M271 591q1 11 14 25.5t21 14.5q10 0 22 -11.5t11 -22.5q0 -11 -13 -25t-22 -14q-8 0 -20.5 11.5t-12.5 21.5zM129 591q1 11 14 25.5t21 14.5q9 0 21.5 -12t11.5 -22q0 -11 -13 -25t-22 -14t-21 11.5t-12 21.5zM172 -12q-52 0 -78.5 37t-17.5 101l23 187q4 39 -15 62
t-55 25l1 13q34 47 71 47q34 0 48 -39.5t6 -98.5l-25 -190q-4 -39 15 -62.5t53 -23.5q50 0 83 49.5t43 139.5q6 61 -6 104.5t-48 85.5l55 40h11q67 -77 46 -218q-15 -100 -72 -179.5t-138 -79.5z" />
    <glyph glyph-name="omicrontonos" unicode="&#x3cc;" horiz-adv-x="426" 
d="M263 511h-21l36 167l80 -12zM382 237q-13 -117 -72.5 -182t-138.5 -65q-66 0 -102 61t-25 162q13 116 72.5 181.5t134.5 65.5q70 0 106 -60.5t25 -162.5zM110 244q-9 -101 18.5 -160t80.5 -59q50 0 74 41t34 142q10 99 -17.5 158t-80.5 59q-51 0 -75.5 -40.5
t-33.5 -140.5z" />
    <glyph glyph-name="upsilontonos" unicode="&#x3cd;" horiz-adv-x="428" 
d="M241 511h-21l36 167l80 -12zM172 -12q-52 0 -78.5 37t-17.5 101l23 187q4 39 -15 62t-55 25l1 13q34 47 71 47q34 0 48 -39.5t6 -98.5l-25 -190q-4 -39 15 -62.5t53 -23.5q50 0 83 49.5t43 139.5q6 61 -6 104.5t-48 85.5l55 40h11q67 -77 46 -218q-15 -100 -72 -179.5
t-138 -79.5z" />
    <glyph glyph-name="omegatonos" unicode="&#x3ce;" horiz-adv-x="587" 
d="M327 511h-21l36 167l80 -12zM363 -12q-65 0 -86 93q-26 -48 -53 -70.5t-73 -22.5q-52 0 -88.5 50.5t-30.5 129.5q12 137 149 295l40 -19q-62 -54 -92.5 -125.5t-33.5 -128.5q-9 -144 88 -144q61 0 75 112q7 46 6.5 80t-12.5 65l12 33l79 -15q-25 -81 -29 -154
q-2 -63 22 -92t56 -29q43 0 69 55t31 149q3 64 -13 100t-54 79l56 37h14q30 -47 44.5 -92.5t11.5 -111.5q-4 -100 -64 -187t-124 -87z" />
    <glyph glyph-name="theta.alt" unicode="&#x3d1;" horiz-adv-x="414" 
d="M303 383q25 0 40 5q2 127 -31 198.5t-98 71.5q-75 0 -69 -120q5 -72 48 -113.5t110 -41.5zM188 -10q-61 0 -79 96q-2 10 -8 52t-11 57q-11 32 -43 32q-19 0 -39 -6v14q38 54 81 54q39 0 52 -69q0 -2 15 -113q9 -57 61 -57q50 0 77.5 54t41.5 181q2 13 4 37.5t2 26.5
q-28 -20 -70 -20q-82 0 -126.5 52t-46.5 124q-1 96 46 145.5t102 49.5q85 0 123.5 -97.5t16.5 -277.5q-18 -148 -72 -241.5t-127 -93.5z" />
    <glyph glyph-name="phi.alt" unicode="&#x3d5;" horiz-adv-x="513" 
d="M240 -223h-49q2 30 8.5 102.5t9.5 112.5q-86 10 -130 69t-34 159q11 98 66 162t138 75q5 68 9 119l36 26h23l-15 -164l5 13q85 -3 129 -59.5t32 -163.5q-10 -100 -68 -165.5t-140 -71.5zM108 248q-10 -88 18.5 -144t86.5 -72q25 284 33 389l-1 -2q-56 -7 -92 -50
t-45 -121zM405 200q12 93 -18.5 150.5t-86.5 68.5l-37 -392q121 6 142 173z" />
    <glyph glyph-name="Wgrave" unicode="&#x1e80;" horiz-adv-x="949" 
d="M446 828l66 -167h-20l-112 142zM640 -15l-159 507l-206 -482l-43 -25l-134 569h-1l-61 43l1 15h206l-1 -15l-82 -43l107 -468l195 467v1h1l24 58h15l171 -527l154 469l-67 43l1 15h188l-1 -15l-74 -42l-190 -545z" />
    <glyph glyph-name="wgrave" unicode="&#x1e81;" horiz-adv-x="624" 
d="M354 678l66 -167h-20l-112 142zM364 -10l-38 275q-32 -91 -87 -174.5t-93 -100.5h-30l-37 409l-82 9l2 13l118 39h12l41 -407q51 60 93 146.5t51 150.5l-7 49l-66 9l3 13l94 39h12l60 -415q55 62 93 149t38 137q0 21 -1 30t-5.5 19.5t-15.5 16.5t-30 11l3 13q32 21 73 39
q5 0 11 -4.5t12 -18t6 -33.5q0 -104 -67.5 -238t-132.5 -176h-30z" />
    <glyph glyph-name="Wacute" unicode="&#x1e82;" horiz-adv-x="949" 
d="M457 661l90 167l63 -25l-133 -142h-20zM640 -15l-159 507l-206 -482l-43 -25l-134 569h-1l-61 43l1 15h206l-1 -15l-82 -43l107 -468l195 467v1h1l24 58h15l171 -527l154 469l-67 43l1 15h188l-1 -15l-74 -42l-190 -545z" />
    <glyph glyph-name="wacute" unicode="&#x1e83;" horiz-adv-x="624" 
d="M298 511l89 167l63 -25l-132 -142h-20zM364 -10l-38 275q-32 -91 -87 -174.5t-93 -100.5h-30l-37 409l-82 9l2 13l118 39h12l41 -407q51 60 93 146.5t51 150.5l-7 49l-66 9l3 13l94 39h12l60 -415q55 62 93 149t38 137q0 21 -1 30t-5.5 19.5t-15.5 16.5t-30 11l3 13
q32 21 73 39q5 0 11 -4.5t12 -18t6 -33.5q0 -104 -67.5 -238t-132.5 -176h-30z" />
    <glyph glyph-name="Wdieresis" unicode="&#x1e84;" horiz-adv-x="949" 
d="M541 741q0 11 12.5 25.5t21.5 14.5q10 0 22 -11.5t11 -22.5q0 -11 -12 -25t-22 -14q-8 0 -21 11.5t-12 21.5zM382 741q0 11 12 25.5t22 14.5q9 0 22 -12t12 -22q-1 -11 -14 -25t-22 -14q-8 0 -20.5 11.5t-11.5 21.5zM640 -15l-159 507l-206 -482l-43 -25l-134 569h-1
l-61 43l1 15h206l-1 -15l-82 -43l107 -468l195 467v1h1l24 58h15l171 -527l154 469l-67 43l1 15h188l-1 -15l-74 -42l-190 -545z" />
    <glyph glyph-name="wdieresis" unicode="&#x1e85;" horiz-adv-x="624" 
d="M381 591q1 11 14 25.5t21 14.5q10 0 22 -11.5t11 -22.5q0 -11 -13 -25t-22 -14q-8 0 -20.5 11.5t-12.5 21.5zM239 591q1 11 14 25.5t21 14.5q9 0 21.5 -12t11.5 -22q0 -11 -13 -25t-22 -14t-21 11.5t-12 21.5zM364 -10l-38 275q-32 -91 -87 -174.5t-93 -100.5h-30
l-37 409l-82 9l2 13l118 39h12l41 -407q51 60 93 146.5t51 150.5l-7 49l-66 9l3 13l94 39h12l60 -415q55 62 93 149t38 137q0 21 -1 30t-5.5 19.5t-15.5 16.5t-30 11l3 13q32 21 73 39q5 0 11 -4.5t12 -18t6 -33.5q0 -104 -67.5 -238t-132.5 -176h-30z" />
    <glyph glyph-name="Ygrave" unicode="&#x1ef2;" horiz-adv-x="553" 
d="M318 828l66 -167h-20l-112 142zM369 13l-1 -13h-206l1 15l74 43l14 212h-1l-145 284h-2l-59 43l1 15h214l-1 -15l-83 -43l119 -240l148 240h-3l-66 43l1 15h188l-1 -15l-72 -42l-173 -279l-15 -218z" />
    <glyph glyph-name="ygrave" unicode="&#x1ef3;" horiz-adv-x="408" 
d="M293 678l66 -167h-20l-112 142zM-27 -227q-13 0 -24 3q-2 19 -11 33q-2 4 -2 -2l4 26q10 -1 38 -1q78 0 126.5 37t95.5 121h-37l-82 409l-82 9l2 13l118 39h12l89 -432l9 18q91 178 91 276q0 39 -9 55t-45 26l3 13q28 18 86 44q29 0 29 -67q0 -42 -33.5 -146t-84.5 -208
q-131 -266 -293 -266zM-52 -224h1q0 -2 -1 0z" />
    <glyph glyph-name="endash" unicode="&#x2013;" horiz-adv-x="424" 
d="M403 273l-1 -15l-13 -18h-320l1 15l16 18h317z" />
    <glyph glyph-name="emdash" unicode="&#x2014;" horiz-adv-x="654" 
d="M633 273l-1 -15l-13 -18h-550l1 15l16 18h547z" />
    <glyph glyph-name="quoteleft" unicode="&#x2018;" horiz-adv-x="233" 
d="M165 522q-1 -15 -16.5 -32.5t-26.5 -17.5q-14 0 -32 19.5t-17 42.5q4 72 102 166l13 -12q-51 -75 -51 -106q2 -16 15 -33t13 -27z" />
    <glyph glyph-name="quoteright" unicode="&#x2019;" horiz-adv-x="233" 
d="M94 645q1 15 16.5 32.5t26.5 17.5q14 0 32 -19.5t17 -42.5q-4 -72 -102 -166l-13 12q51 75 51 106q-2 16 -15 33t-13 27z" />
    <glyph glyph-name="quotesinglbase" unicode="&#x201a;" horiz-adv-x="233" 
d="M86 36q1 15 16.5 32.5t26.5 17.5q14 0 32 -19.5t17 -42.5q-4 -72 -102 -166l-13 12q51 75 51 106q-2 16 -15 33t-13 27z" />
    <glyph glyph-name="quotedblleft" unicode="&#x201c;" horiz-adv-x="329" 
d="M289 522q-1 -15 -16.5 -32.5t-26.5 -17.5q-14 0 -32 19.5t-17 42.5q4 72 102 166l13 -12q-51 -75 -51 -106q2 -16 15 -33t13 -27zM157 522q-1 -15 -16.5 -32.5t-26.5 -17.5q-14 0 -32 19.5t-17 42.5q4 72 102 166l13 -12q-51 -75 -51 -106q2 -16 15 -33t13 -27z" />
    <glyph glyph-name="quotedblright" unicode="&#x201d;" horiz-adv-x="365" 
d="M218 643q1 15 16.5 32.5t26.5 17.5q14 0 32 -19.5t17 -42.5q-4 -72 -102 -166l-13 12q51 75 51 106q-2 16 -15 33t-13 27zM86 643q1 15 16.5 32.5t26.5 17.5q14 0 32 -19.5t17 -42.5q-4 -72 -102 -166l-13 12q51 75 51 106q-2 16 -15 33t-13 27z" />
    <glyph glyph-name="quotedblbase" unicode="&#x201e;" horiz-adv-x="365" 
d="M218 36q1 15 16.5 32.5t26.5 17.5q14 0 32 -19.5t17 -42.5q-4 -72 -102 -166l-13 12q51 75 51 106q-2 16 -15 33t-13 27zM86 36q1 15 16.5 32.5t26.5 17.5q14 0 32 -19.5t17 -42.5q-4 -72 -102 -166l-13 12q51 75 51 106q-2 16 -15 33t-13 27z" />
    <glyph glyph-name="dagger" unicode="&#x2020;" horiz-adv-x="524" 
d="M297 285l-56 -409h-16l2 409l36 190l-182 -23l5 70l178 -24l-8 195h70l-38 -195l182 24l-5 -70l-178 23z" />
    <glyph glyph-name="daggerdbl" unicode="&#x2021;" horiz-adv-x="524" 
d="M294 285l-37 -191l182 23l-5 -70l-178 24l9 -195h-70l38 195l-182 -24l4 70l178 -23l-9 191l37 190l-182 -23l4 70l178 -24l-8 195h70l-38 -195l182 24l-5 -70l-178 23z" />
    <glyph glyph-name="bullet" unicode="&#x2022;" horiz-adv-x="344" 
d="M96 305q2 23 31.5 53.5t50.5 30.5q19 0 48.5 -25.5t27.5 -47.5t-32 -52.5t-49 -30.5t-48.5 25t-28.5 47z" />
    <glyph glyph-name="ellipsis" unicode="&#x2026;" horiz-adv-x="699" 
d="M546 34q1 15 18.5 34t28.5 19q13 0 30.5 -16t16.5 -29q-1 -15 -19 -33.5t-30 -18.5q-11 0 -28 15t-17 29zM313 34q1 15 18.5 34t28.5 19q13 0 30.5 -16t16.5 -29q-1 -15 -19 -33.5t-30 -18.5q-11 0 -28 15t-17 29zM80 34q1 15 18.5 34t28.5 19q13 0 30.5 -16t16.5 -29
q-1 -15 -19 -33.5t-30 -18.5q-11 0 -28 15t-17 29z" />
    <glyph glyph-name="guilsinglleft" unicode="&#x2039;" horiz-adv-x="281" 
d="M112 252l87 -199l-13 -11l-142 210l172 210l11 -11z" />
    <glyph glyph-name="guilsinglright" unicode="&#x203a;" horiz-adv-x="281" 
d="M169 252l-87 199l13 11l142 -210l-172 -210l-11 11z" />
    <glyph glyph-name="fraction" unicode="&#x2044;" horiz-adv-x="211" 
d="M-58 0l308 624l24 -12l-308 -624z" />
    <glyph glyph-name="Euro" unicode="&#x20ac;" horiz-adv-x="482" 
d="M417 28q-79 -38 -158 -38q-171 0 -183 234h-67l1 17l14 21h51q0 19 2 57q1 5 1 14t1 13h-65l1 16l16 21h54q22 112 89.5 175.5t163.5 63.5q72 0 124 -27l-29 -107h-20l-53 83q-9 2 -56 2q-90 0 -122 -40.5t-43 -149.5h243l-1 -16l-16 -21h-229q0 -2 -0.5 -7t-0.5 -7
q-3 -33 -1 -70h210l-1 -16l-14 -22h-193q10 -98 53 -149t110 -51q24 0 42 6l84 115l22 -1z" />
    <glyph glyph-name="trademark" unicode="&#x2122;" horiz-adv-x="830" 
d="M250 359l-1 -6h-133l1 8l49 23l20 288h-50l-43 -53h-15l12 75h255l-19 -75h-13l-25 53h-62l-20 -288zM457 359v-6h-107l1 8l42 23l42 277l-39 24v9h82l86 -267l128 267h88l-1 -10l-42 -23l-5 -277l38 -25l1 -6h-122l-1 8l43 23l5 261l-131 -267l-26 -15l-85 281l-35 -260
z" />
    <glyph glyph-name="partialdiff" unicode="&#x2202;" horiz-adv-x="503" 
d="M176 -12q-74 0 -110 54.5t-24 146.5q6 49 29.5 94.5t63 84.5t101 64.5t136.5 30.5l23 -47q-17 104 -75 166.5t-127 62.5q-79 0 -146 -60l-11 20q95 95 195 95q74 0 132.5 -56t84.5 -144t12 -182q-7 -52 -29 -107.5t-56.5 -106.5t-87 -83.5t-111.5 -32.5zM226 42
q26 0 49.5 9.5t49 33t44.5 73t28 120.5q9 72 -1 137q-23 1 -44 -1t-31 -2q-48 0 -84 -11t-58.5 -28.5t-37.5 -45t-22 -53.5t-11 -61q-10 -81 25 -126t93 -45z" />
    <glyph glyph-name="increment" unicode="&#x2206;" horiz-adv-x="600" 
d="M-12 0l317 679h31l219 -679h-567zM461 60l-158 519l-243 -519h401z" />
    <glyph glyph-name="product" unicode="&#x220f;" horiz-adv-x="817" 
d="M252 -206l-1 -14h-220l1 15l77 40l56 803l-70 41v14h677v-15l-78 -40l-56 -803l70 -41v-14h-220v15l78 40l58 823h-385l-58 -823z" />
    <glyph glyph-name="summation" unicode="&#x2211;" horiz-adv-x="660" 
d="M-15 -220l1 7l307 446l-218 448l1 12h554l-38 -161h-31l-45 126h-326l182 -379l-293 -424h419l71 93h31l-43 -168h-572z" />
    <glyph glyph-name="minus" unicode="&#x2212;" horiz-adv-x="482" 
d="M387 276l-2 -25h-326l2 25h326z" />
    <glyph glyph-name="radical" unicode="&#x221a;" horiz-adv-x="470" 
d="M233 -136h-37l-136 530l-54 -24l2 29l113 48l116 -464l234 717h169l-2 -34h-144z" />
    <glyph glyph-name="infinity" unicode="&#x221e;" horiz-adv-x="742" 
d="M343 259l16 -23q-58 -66 -105.5 -92.5t-100.5 -26.5q-44 0 -79 38.5t-31 104.5q6 75 53 117t114 42q96 0 172 -118l5 -10q30 -47 53.5 -75.5t45.5 -40.5t36.5 -15t39.5 -3q36 0 58.5 22t27.5 82q4 52 -27.5 84.5t-71.5 32.5q-69 0 -149 -101l-17 23q59 66 106.5 92.5
t99.5 26.5q44 0 79 -38.5t31 -104.5q-6 -75 -52.5 -117t-114.5 -42q-96 0 -171 118l-6 10q-30 47 -53 75.5t-45 40t-36.5 14.5t-39.5 3q-37 0 -59.5 -21.5t-26.5 -81.5q-4 -52 27 -84.5t72 -32.5q69 0 149 101z" />
    <glyph glyph-name="integral" unicode="&#x222b;" horiz-adv-x="280" 
d="M164 516q-6 -86 -8 -257.5t-8 -257.5q-3 -46 -15 -86.5t-34.5 -75t-59.5 -54.5t-84 -20q-23 0 -41 2l16 77h25l35 -41q41 -5 64.5 25.5t29.5 115.5q6 89 8.5 267.5t8.5 268.5q8 108 67.5 164t135.5 56q37 0 64 -9l-14 -74h-22l-64 47q-44 3 -72 -36t-32 -112z" />
    <glyph glyph-name="approxequal" unicode="&#x2248;" horiz-adv-x="482" 
d="M162 322q-48 0 -72 -49l-22 9q12 32 37 51.5t59 19.5q27 0 76.5 -26.5t72.5 -26.5q47 0 72 49l22 -12q-11 -29 -36.5 -48t-59.5 -19q-29 0 -78 26t-71 26zM168 214q-47 0 -71 -50l-22 10q25 69 96 69q26 0 75 -25.5t73 -25.5q48 0 73 49l21 -12q-10 -30 -36 -49t-60 -19
q-29 0 -77.5 26.5t-71.5 26.5z" />
    <glyph glyph-name="notequal" unicode="&#x2260;" horiz-adv-x="482" 
d="M380 192h-175l-80 -192h-29l80 192h-121l1 25h130l32 78h-157l2 25h166l70 170h29l-70 -170h130l-1 -25h-140l-32 -78h167z" />
    <glyph glyph-name="lessequal" unicode="&#x2264;" horiz-adv-x="482" 
d="M85 322l1 12l336 202l17 -27l-303 -180l279 -182l-23 -27zM417 34l-2 -27h-356l2 27h356z" />
    <glyph glyph-name="greaterequal" unicode="&#x2265;" horiz-adv-x="482" 
d="M421 333l-1 -13l-336 -201l-17 27l303 180l-279 181l23 27zM48 5l2 28h356l-2 -28h-356z" />
    <glyph glyph-name="lozenge" unicode="&#x25ca;" horiz-adv-x="494" 
d="M460 324l-244 -383h-10l-182 383l244 383h10zM413 324l-148 312l-194 -312l149 -312z" />
    <glyph glyph-name="commaaccent" unicode="&#xf6c3;" 
d="M191 -93q1 15 14.5 30.5t24.5 15.5q14 0 31 -25t15 -51q-2 -56 -92 -142l-11 9q49 63 55 94q1 19 -18.5 37.5t-18.5 31.5z" />
    <glyph glyph-name="Tcedilla" horiz-adv-x="518" 
d="M246 0h-118l1 15l83 43l36 521h-81l-95 -91h-23l42 124h420l-28 -124h-23l-45 91h-105l-36 -521l78 -45l-1 -13h-84l-33 -63q87 -22 87 -61q0 -38 -43.5 -57.5t-110.5 -20.5l-6 25q63 0 87 5t24 25q0 11 -4 18.5t-21 16.5t-49 17z" />
    <glyph glyph-name="idotaccent" horiz-adv-x="250" 
d="M113 617q2 14 15.5 31.5t24.5 17.5q9 0 22 -14t13 -26q-2 -14 -16 -31t-24 -17t-22.5 13.5t-12.5 25.5zM137 67h69l-2 -15l-99 -54l-27 14l27 387l-72 9l3 13l129 39h12l-14 -65z" />
    <glyph glyph-name="recordprotect" horiz-adv-x="560" 
d="M39 238q7 112 84.5 180t180.5 68q113 0 175.5 -70.5t55.5 -177.5q-8 -112 -85.5 -180t-180.5 -68q-113 0 -175.5 70.5t-54.5 177.5zM60 237q-7 -104 52.5 -166.5t156.5 -62.5q103 0 168.5 65t73.5 164q7 105 -52 167t-157 62q-103 0 -169 -65t-73 -164zM294 247
q52 0 62 55q3 31 -15 51.5t-63 20.5q-11 0 -15 -1l-9 -124q12 -2 40 -2zM292 105v-7h-121v8l37 20l18 236l-35 21l2 8h101q53 0 78 -20.5t23 -52.5q-4 -38 -39.5 -63.5t-74.5 -25.5q-22 0 -28 1l-7 -104z" />
    <glyph glyph-name="tcedilla" horiz-adv-x="307" 
d="M210 -124q0 -38 -43.5 -57.5t-110.5 -20.5l-6 25q63 0 87 5t24 25q0 11 -4 18.5t-21 16.5t-49 17l45 90q-28 11 -44 45.5t-10 93.5l28 286h-75l3 30h75l10 101l35 9h22l-11 -110h20l119 5l1 -38l-124 3h-19l-23 -235q-8 -81 6.5 -111t43.5 -30q16 0 32.5 10.5t52.5 45.5
l10 -20q-47 -53 -74.5 -71.5t-52.5 -18.5h-6l-28 -53q87 -22 87 -61z" />
    <glyph glyph-name="caron.alt.sc" 
d="M230 497q4 16 17.5 26t27.5 10q11 0 27 -20t15 -44q-5 -45 -72 -147l-16 3q27 65 29 96q3 41 -28 76z" />
    <glyph glyph-name="caron.alt.case" 
d="M241 647q5 16 18.5 26t26.5 10q11 0 27 -20t14 -44q-3 -49 -73 -147l-15 3q27 70 29 96q3 40 -27 76z" />
    <glyph glyph-name="acute.case" 
d="M214 661l90 167l63 -25l-133 -142h-20z" />
    <glyph glyph-name="grave.case" 
d="M292 828l66 -167h-20l-112 142z" />
    <glyph glyph-name="hungarumlaut.case" 
d="M281 661l90 167l63 -25l-133 -142h-20zM144 661l89 167l64 -25l-134 -142h-19z" />
    <glyph glyph-name="circumflex.case" 
d="M312 828l95 -167h-20l-94 99l-107 -99h-20l119 167h27z" />
    <glyph glyph-name="caron.case" 
d="M419 828l-119 -167h-27l-95 167h20l94 -98l107 98h20z" />
    <glyph glyph-name="breve.case" 
d="M291 714q48 0 70.5 30.5t33.5 83.5h20q-4 -74 -37 -120.5t-94 -46.5q-114 0 -103 167h20q6 -114 90 -114z" />
    <glyph glyph-name="tilde.case" 
d="M354 698q6 0 11.5 1.5t9.5 2.5t9 5t7.5 5.5t8.5 8t7.5 8.5t8 9.5t8.5 9.5l6 -11q-5 -8 -15 -22t-14 -19t-11 -14.5t-11 -13t-10.5 -8t-12 -6t-12.5 -1.5q-21 0 -62.5 15t-59.5 15q-34 0 -76 -44l-4 11q24 29 31 37t20.5 21t22 15.5t21.5 2.5q21 0 63 -14t54 -14z" />
    <glyph glyph-name="macron.case" 
d="M391 744l-1 -15l-15 -17h-184l1 15l16 17h183z" />
    <glyph glyph-name="dieresis.case" 
d="M338 741q0 11 12.5 25.5t21.5 14.5q10 0 22 -11.5t11 -22.5q0 -11 -12 -25t-22 -14q-8 0 -21 11.5t-12 21.5zM179 741q0 11 12 25.5t22 14.5q9 0 22 -12t12 -22q-1 -11 -14 -25t-22 -14q-8 0 -20.5 11.5t-11.5 21.5z" />
    <glyph glyph-name="dotaccent.case" 
d="M250 750q1 13 16.5 30.5t25.5 17.5t26 -14t16 -26q-1 -13 -17 -30t-25 -17q-11 0 -26.5 13.5t-15.5 25.5z" />
    <glyph glyph-name="ring.case" 
d="M216 759q3 34 27 57.5t55 23.5q34 0 54.5 -21.5t17.5 -59.5q-2 -34 -26.5 -57.5t-56.5 -23.5q-33 0 -52.5 21t-18.5 60zM241 758q-2 -26 11 -41.5t36 -15.5t38.5 15.5t16.5 41.5q3 28 -10.5 44t-36.5 16t-37.5 -16t-17.5 -44z" />
    <glyph glyph-name="cedilla.case" 
d="M189 -95l48 95h21l-33 -63q87 -22 87 -61q0 -38 -43.5 -57.5t-110.5 -20.5l-6 25q63 0 87 5t24 25q0 11 -4 18.5t-21 16.5t-49 17z" />
    <glyph glyph-name="ogonek.case" 
d="M159 -155q3 52 46.5 100t104.5 72l5 -4q-112 -68 -117 -149q-2 -24 11 -42.5t37 -18.5q12 0 41 9l4 -20q-8 -3 -20 -8l-18 -7.5t-14.5 -4.5t-16.5 -2q-26 0 -45 21.5t-18 53.5z" />
    <glyph glyph-name="tonos.case" 
d="M244 511h-21l26 167l80 -12z" />
    <glyph glyph-name="commaaccent.case" 
d="M191 -93q1 15 14.5 30.5t24.5 15.5q14 0 31 -25t15 -51q-2 -56 -92 -142l-11 9q49 63 55 94q1 19 -18.5 37.5t-18.5 31.5z" />
    <glyph glyph-name="zero.fit" horiz-adv-x="482" 
d="M281 622q181 0 161 -300q-23 -332 -233 -332q-91 0 -135 78t-34 222q25 332 241 332zM246 41q67 -2 98.5 57.5t38.5 201.5q8 138 -27 206t-118 68q-66 0 -97.5 -55.5t-39.5 -184.5q-19 -296 145 -293z" />
    <glyph glyph-name="one.fit" horiz-adv-x="369" 
d="M267 612l-44 -554l93 -45l-1 -13h-284l1 15l128 43l42 513l-124 -60l-10 52l164 49h35z" />
    <glyph glyph-name="two.fit" horiz-adv-x="460" 
d="M375 0h-373v23q59 67 128 141.5t95 103.5t54 65t35.5 58t9.5 52q5 56 -26.5 94t-85.5 38q-25 0 -35 -4l-84 -125h-27l28 128q52 23 84 34t43.5 12.5t28.5 1.5q69 0 109 -47.5t36 -116.5q-3 -41 -26 -81t-49 -68.5t-104 -107t-135 -139.5h249l66 94h21z" />
    <glyph glyph-name="three.fit" horiz-adv-x="473" 
d="M161 -10q-70 0 -126 14h-1l21 69h18l61 -56q111 1 159.5 33.5t53.5 106.5q3 57 -37 96.5t-126 39.5q-30 0 -47 -2l16 41q26 -4 53 -4q59 0 96 30.5t41 82.5q5 72 -29 108t-93 36q-16 0 -34 -3l-81 -104h-27l21 96q74 30 106 39t68 9q60 0 103 -41.5t37 -112.5
q-7 -101 -133 -146q150 -32 142 -158q-4 -68 -82.5 -121t-179.5 -53z" />
    <glyph glyph-name="four.fit" horiz-adv-x="486" 
d="M280 176l23 325l-240 -325h217zM455 120h-111l-8 -120h-68l8 120h-286l1 13l359 489h29l-31 -446h127z" />
    <glyph glyph-name="five.fit" horiz-adv-x="468" 
d="M134 -10q-58 0 -119 12l3 4l18 67h17l57 -56q109 1 158.5 34t54.5 101q7 75 -39 118.5t-171 43.5v1l-37 -10l39 293l19 14h256l31 29h20l-23 -89h-274l-25 -196q7 0 19 2t15 2q135 0 192.5 -45t52.5 -125q-7 -90 -81 -145t-183 -55z" />
    <glyph glyph-name="six.fit" horiz-adv-x="465" 
d="M415 190q-3 -40 -19 -74t-38 -56.5t-48.5 -39t-52 -23.5t-47.5 -7q-94 0 -135.5 73.5t-32.5 195.5q12 185 83.5 274t182.5 89q65 0 111 -20l-28 -123h-20l-44 103q-9 3 -38 3q-42 0 -71.5 -11.5t-55 -43t-41 -91.5t-22.5 -152q0 -3 -0.5 -7t-0.5 -7q80 62 168 62
q67 0 110 -40t39 -105zM240 32q107 0 114 127q3 63 -32 97t-90 34q-30 0 -68.5 -15t-65.5 -36q1 -94 40.5 -150.5t101.5 -56.5z" />
    <glyph glyph-name="seven.fit" horiz-adv-x="493" 
d="M167 0h-54l1 17l284 533h-235l-62 -78h-21l31 140h341v-18z" />
    <glyph glyph-name="eight.fit" horiz-adv-x="463" 
d="M204 -11q-76 0 -122.5 42t-39.5 106q10 110 160 190q-59 36 -87.5 72t-24.5 85q5 51 61.5 95t122.5 44q64 0 108 -35.5t37 -95.5q-3 -27 -12 -48t-30.5 -42t-36.5 -32.5t-50 -36.5q78 -47 106.5 -82t23.5 -90q-5 -66 -69.5 -119t-146.5 -53zM154 496q-3 -40 22 -74
t86 -72q84 49 93 121q6 55 -27.5 87t-81.5 32q-40 0 -63.5 -25.5t-28.5 -68.5zM239 32q52 0 83 23.5t36 83.5q4 54 -24 89.5t-104 81.5l2 -3q-113 -53 -122 -145q-6 -62 34 -96t95 -34z" />
    <glyph glyph-name="nine.fit" horiz-adv-x="452" 
d="M218 293q80 0 129 43q5 117 -29 180.5t-104 63.5q-49 0 -75.5 -33.5t-31.5 -114.5q-4 -65 26 -102t85 -37zM102 -10q-30 0 -67 10v22q1 0 2 -1t2 -1l11 52h20l45 -53q91 11 155 80.5t75 201.5q-63 -47 -156 -47q-73 0 -111 45.5t-32 121.5q7 91 67.5 146t127.5 55
q77 0 125.5 -64.5t38.5 -205.5q-6 -95 -35.5 -167.5t-73 -113.5t-92.5 -61t-102 -20z" />
    <glyph glyph-name="zero.osf" horiz-adv-x="453" 
d="M396 246q-14 -124 -73 -190t-141 -66q-77 0 -108.5 64t-19.5 175q14 124 72 190.5t136 66.5q159 0 134 -240zM346 202q11 117 -24 174.5t-95 57.5q-54 0 -84 -38.5t-39 -126.5q-11 -114 25 -170t96 -56q47 0 80 38t41 121z" />
    <glyph glyph-name="one.osf" horiz-adv-x="392" 
d="M279 478l-30 -420l93 -45l-1 -13h-284l1 15l130 43l28 384l-137 -65l-12 52l177 49h35z" />
    <glyph glyph-name="two.osf" horiz-adv-x="446" 
d="M351 0h-336v23q5 4 13.5 11.5t12.5 10.5v7h8q11 9 43 35t42 35t36 31t35.5 32.5t28 30t25.5 32t17 30.5t14.5 34t5.5 34q3 46 -21 70t-74 24q-25 0 -51 -6l-66 -97h-25l14 100q130 49 171 49q60 0 91.5 -33.5t28.5 -81.5q-8 -125 -279 -319h220l54 82h21z" />
    <glyph glyph-name="three.osf" horiz-adv-x="419" 
d="M93 -146q-43 0 -100 14l2 3l17 65h18l57 -55h14q171 0 179 115q6 75 -33.5 114t-104.5 39q-31 0 -47 -2l17 53q28 -4 54 -4q103 0 108 124q6 65 -25.5 97t-69.5 32q-19 0 -39 -3l-81 -104h-28l23 96q117 48 191 48q43 0 74.5 -39.5t27.5 -93.5q-2 -43 -35.5 -90.5
t-88.5 -73.5q71 -17 104 -58.5t28 -101.5q-6 -70 -82.5 -122.5t-179.5 -52.5z" />
    <glyph glyph-name="four.osf" horiz-adv-x="446" 
d="M269 48l24 328l-227 -328h203zM414 0h-86l-9 -137h-64l10 137h-273v15l340 471h30l-30 -438h105z" />
    <glyph glyph-name="five.osf" horiz-adv-x="417" 
d="M115 -146q-66 0 -125 13l2 3l17 66h17l55 -54q8 -1 23 -1q179 0 188 125q6 84 -50 128t-167 44v1l-36 -10l40 295l18 14h247l32 29h20l-24 -88h-265l-28 -227l8 32h30q111 0 180.5 -49.5t64.5 -130.5q-7 -88 -76.5 -139t-170.5 -51z" />
    <glyph glyph-name="six.osf" horiz-adv-x="464" 
d="M423 190q-3 -40 -19 -74t-38 -56.5t-48.5 -39t-52 -23.5t-47.5 -7q-94 0 -135.5 73.5t-32.5 195.5q12 185 83.5 274t182.5 89q65 0 111 -20l-28 -123h-20l-44 103q-9 3 -38 3q-42 0 -71.5 -11.5t-55 -43t-41 -91.5t-22.5 -152q0 -3 -0.5 -7t-0.5 -7q80 62 168 62
q67 0 110 -40t39 -105zM248 32q107 0 114 127q3 63 -32 97t-90 34q-30 0 -68.5 -15t-65.5 -36q1 -94 40.5 -150.5t101.5 -56.5z" />
    <glyph glyph-name="seven.osf" horiz-adv-x="472" 
d="M148 -137h-55v15l304 544h-263l-61 -84h-21l31 140h373l-1 -18z" />
    <glyph glyph-name="eight.osf" horiz-adv-x="442" 
d="M408 159q-4 -68 -70.5 -118.5t-145.5 -50.5q-78 0 -124.5 37.5t-42.5 102.5q4 58 52.5 109.5t116.5 84.5q-60 38 -90.5 75t-27.5 88q4 52 62.5 93.5t124.5 41.5t109 -32t38 -92q-4 -49 -37.5 -86.5t-97.5 -77.5l-23 15q89 51 95 132q4 52 -27 81.5t-79 29.5
q-43 0 -65 -21.5t-25 -69.5q-6 -86 122 -169q82 -54 100 -73q39 -39 35 -100zM219 29q56 0 85.5 23t33.5 84q3 55 -21.5 91t-100.5 83l-5 3l7 -6q-55 -25 -89 -66.5t-37 -86.5q-5 -61 33 -93t94 -32z" />
    <glyph glyph-name="nine.osf" horiz-adv-x="453" 
d="M218 157q80 0 129 43q5 117 -29 180.5t-104 63.5q-49 0 -75.5 -33.5t-31.5 -114.5q-4 -65 26 -102t85 -37zM102 -146q-30 0 -67 10v22q1 0 2 -1t2 -1l11 52h20l45 -53q91 11 155 80.5t75 201.5q-63 -47 -156 -47q-73 0 -111 45.5t-32 121.5q7 91 67.5 146t127.5 55
q77 0 125.5 -64.5t38.5 -205.5q-6 -95 -35.5 -167.5t-73 -113.5t-92.5 -61t-102 -20z" />
    <glyph glyph-name="zero.tosf" horiz-adv-x="453" 
d="M397 246q-14 -124 -73 -190t-141 -66q-77 0 -108.5 64t-19.5 175q14 124 72 190.5t136 66.5q159 0 134 -240zM347 202q11 117 -24 174.5t-95 57.5q-54 0 -84 -38.5t-39 -126.5q-11 -114 25 -170t96 -56q47 0 80 38t41 121z" />
    <glyph glyph-name="one.tosf" horiz-adv-x="453" 
d="M316 478l-30 -420l93 -45l-1 -13h-284l1 15l130 43l28 384l-137 -65l-12 52l177 49h35z" />
    <glyph glyph-name="two.tosf" horiz-adv-x="453" 
d="M351 0h-336v23q5 4 13.5 11.5t12.5 10.5v7h8q11 9 43 35t42 35t36 31t35.5 32.5t28 30t25.5 32t17 30.5t14.5 34t5.5 34q3 46 -21 70t-74 24q-25 0 -51 -6l-66 -97h-25l14 100q130 49 171 49q60 0 91.5 -33.5t28.5 -81.5q-8 -125 -279 -319h220l54 82h21z" />
    <glyph glyph-name="three.tosf" horiz-adv-x="453" 
d="M134 -146q-43 0 -100 14l2 3l17 65h18l57 -55h14q171 0 179 115q6 75 -33.5 114t-104.5 39q-31 0 -47 -2l17 53q28 -4 54 -4q103 0 108 124q6 65 -25.5 97t-69.5 32q-20 0 -39 -3l-81 -104h-28l23 96q117 48 191 48q43 0 74.5 -39.5t27.5 -93.5q-2 -43 -35.5 -90.5
t-88.5 -73.5q71 -17 104 -58.5t28 -101.5q-6 -70 -82.5 -122.5t-179.5 -52.5z" />
    <glyph glyph-name="four.tosf" horiz-adv-x="453" 
d="M269 48l24 328l-227 -328h203zM414 0h-86l-9 -137h-64l10 137h-273v15l340 471h30l-30 -438h105z" />
    <glyph glyph-name="five.tosf" horiz-adv-x="453" 
d="M139 -146q-67 0 -125 13l2 3l17 66h17l55 -54q8 -1 23 -1q179 0 188 125q6 84 -50 128t-167 44v1l-36 -10l40 295l18 14h247l32 29h20l-24 -88h-265l-28 -227l8 32h30q111 0 180.5 -49.5t64.5 -130.5q-7 -88 -76.5 -139t-170.5 -51z" />
    <glyph glyph-name="six.tosf" horiz-adv-x="453" 
d="M420 190q-3 -40 -19 -74t-38 -56.5t-48.5 -39t-52 -23.5t-47.5 -7q-94 0 -135.5 73.5t-32.5 195.5q12 185 83.5 274t182.5 89q65 0 111 -20l-28 -123h-20l-44 103q-9 3 -38 3q-42 0 -71.5 -11.5t-55 -43t-41 -91.5t-22.5 -152q0 -3 -0.5 -7t-0.5 -7q80 62 168 62
q67 0 110 -40t39 -105zM245 32q107 0 114 127q3 63 -32 97t-90 34q-30 0 -68.5 -15t-65.5 -36q1 -94 40.5 -150.5t101.5 -56.5z" />
    <glyph glyph-name="seven.tosf" horiz-adv-x="453" 
d="M133 -137h-55v15l304 544h-263l-61 -84h-21l31 140h373l-1 -18z" />
    <glyph glyph-name="eight.tosf" horiz-adv-x="453" 
d="M411 159q-4 -68 -70.5 -118.5t-145.5 -50.5q-78 0 -124.5 37.5t-42.5 102.5q4 58 52.5 109.5t116.5 84.5q-60 38 -90.5 75t-27.5 88q4 52 62.5 93.5t124.5 41.5t109 -32t38 -92q-4 -49 -37.5 -86.5t-97.5 -77.5l-23 15q89 51 95 132q4 52 -27 81.5t-79 29.5
q-43 0 -65 -21.5t-25 -69.5q-6 -86 122 -169q82 -54 100 -73q39 -39 35 -100zM222 29q56 0 85.5 23t33.5 84q3 55 -21.5 91t-100.5 83l-5 3l7 -6q-55 -25 -89 -66.5t-37 -86.5q-5 -61 33 -93t94 -32z" />
    <glyph glyph-name="nine.tosf" horiz-adv-x="453" 
d="M218 157q80 0 129 43q5 117 -29 180.5t-104 63.5q-49 0 -75.5 -33.5t-31.5 -114.5q-4 -65 26 -102t85 -37zM102 -146q-30 0 -67 10v22q1 0 2 -1t2 -1l11 52h20l45 -53q91 11 155 80.5t75 201.5q-63 -47 -156 -47q-73 0 -111 45.5t-32 121.5q7 91 67.5 146t127.5 55
q77 0 125.5 -64.5t38.5 -205.5q-6 -95 -35.5 -167.5t-73 -113.5t-92.5 -61t-102 -20z" />
    <glyph glyph-name="caron.alt" 
d="M241 647q5 16 18.5 26t26.5 10q11 0 27 -20t14 -44q-3 -49 -73 -147l-15 3q27 70 29 96q3 40 -27 76z" />
    <glyph glyph-name="A.sc" horiz-adv-x="490" 
d="M311 215l-56 202l-91 -202h147zM144 0h-149l-1 13l51 32h1l211 425l39 19l132 -445l49 -31l-1 -13h-193l1 13l73 32h2l-40 142h-168l-64 -142l59 -32z" />
    <glyph glyph-name="Agrave.sc" horiz-adv-x="490" 
d="M257 691l66 -166h-20l-114 142zM311 215l-56 202l-91 -202h147zM144 0h-149l-1 13l51 32h1l211 425l39 19l132 -445l49 -31l-1 -13h-193l1 13l73 32h2l-40 142h-168l-64 -142l59 -32z" />
    <glyph glyph-name="Aacute.sc" horiz-adv-x="490" 
d="M241 525l89 166l62 -24l-131 -142h-20zM311 215l-56 202l-91 -202h147zM144 0h-149l-1 13l51 32h1l211 425l39 19l132 -445l49 -31l-1 -13h-193l1 13l73 32h2l-40 142h-168l-64 -142l59 -32z" />
    <glyph glyph-name="Acircumflex.sc" horiz-adv-x="490" 
d="M316 691l95 -166h-20l-95 98l-106 -98h-20l118 166h28zM311 215l-56 202l-91 -202h147zM144 0h-149l-1 13l51 32h1l211 425l39 19l132 -445l49 -31l-1 -13h-193l1 13l73 32h2l-40 142h-168l-64 -142l59 -32z" />
    <glyph glyph-name="Atilde.sc" horiz-adv-x="490" 
d="M351 562q15 0 28.5 8t20 15t22.5 26l7 -11q-5 -8 -15 -22t-14 -19t-11 -14.5t-11 -13t-10.5 -8t-12 -6t-12.5 -1.5q-21 0 -62.5 15t-58.5 15q-35 0 -77 -44l-4 11q47 58 60 67q14 10 33 10q21 0 62.5 -14t54.5 -14zM311 215l-56 202l-91 -202h147zM144 0h-149l-1 13
l51 32h1l211 425l39 19l132 -445l49 -31l-1 -13h-193l1 13l73 32h2l-40 142h-168l-64 -142l59 -32z" />
    <glyph glyph-name="Adieresis.sc" horiz-adv-x="490" 
d="M321 571q1 11 14.5 25.5t21.5 14.5q9 0 21.5 -11.5t12.5 -22.5q-2 -12 -15 -25.5t-22 -13.5q-8 0 -21 11.5t-12 21.5zM162 571q2 12 15 26t22 14q8 0 20.5 -11.5t12.5 -22.5q-2 -11 -15.5 -25t-22.5 -14q-8 0 -20 11.5t-12 21.5zM311 215l-56 202l-91 -202h147zM144 0
h-149l-1 13l51 32h1l211 425l39 19l132 -445l49 -31l-1 -13h-193l1 13l73 32h2l-40 142h-168l-64 -142l59 -32z" />
    <glyph glyph-name="Aring.sc" horiz-adv-x="490" 
d="M206 622q4 34 28 57.5t55 23.5q34 0 54 -21.5t17 -59.5q-1 -33 -25.5 -57t-56.5 -24q-34 0 -54.5 21.5t-17.5 59.5zM231 621q-2 -26 11.5 -41.5t36.5 -15.5t38.5 16t16.5 41q3 28 -10.5 44.5t-37.5 16.5q-47 0 -55 -61zM311 215l-56 202l-91 -202h147zM144 0h-149l-1 13
l51 32h1l211 425l39 19l132 -445l49 -31l-1 -13h-193l1 13l73 32h2l-40 142h-168l-64 -142l59 -32z" />
    <glyph glyph-name="Amacron.sc" horiz-adv-x="490" 
d="M374 574l-1 -15l-14 -17h-183l1 15l14 17h183zM311 215l-56 202l-91 -202h147zM144 0h-149l-1 13l51 32h1l211 425l39 19l132 -445l49 -31l-1 -13h-193l1 13l73 32h2l-40 142h-168l-64 -142l59 -32z" />
    <glyph glyph-name="Abreve.sc" horiz-adv-x="490" 
d="M278 577q48 0 70.5 31t32.5 83h21q-5 -74 -37.5 -120t-93.5 -46q-113 0 -104 166h20q6 -114 91 -114zM311 215l-56 202l-91 -202h147zM144 0h-149l-1 13l51 32h1l211 425l39 19l132 -445l49 -31l-1 -13h-193l1 13l73 32h2l-40 142h-168l-64 -142l59 -32z" />
    <glyph glyph-name="Aogonek.sc" horiz-adv-x="490" 
d="M311 215l-56 202l-91 -202h147zM422 -208q-8 -3 -20 -8l-18 -7.5t-14.5 -4.5t-16.5 -2q-26 0 -45 21.5t-18 53.5q2 43 34 85t81 70h-122l1 13l73 32h2l-40 142h-168l-64 -142l59 -32l-2 -13h-149l-1 13l51 32h1l211 425l39 19l132 -445l49 -31l-1 -13h-50
q-92 -62 -97 -136q-2 -24 11 -42.5t37 -18.5q12 0 41 9z" />
    <glyph glyph-name="Acaron.sc" horiz-adv-x="490" 
d="M412 691l-118 -166h-27l-96 166h20l94 -99l108 99h19zM311 215l-56 202l-91 -202h147zM144 0h-149l-1 13l51 32h1l211 425l39 19l132 -445l49 -31l-1 -13h-193l1 13l73 32h2l-40 142h-168l-64 -142l59 -32z" />
    <glyph glyph-name="B.sc" horiz-adv-x="424" 
d="M133 -1v1h-111l1 13l61 32l28 387l-56 34l1 12h178q67 0 105.5 -33.5t33.5 -82.5q-2 -32 -26.5 -60.5t-69.5 -44.5q50 -12 80 -44t27 -76q-5 -63 -58 -100t-131 -37q-67 0 -63 -1zM220 258q17 0 31 3v1h2q58 14 62 77q5 53 -24.5 82.5t-82.5 29.5q-9 0 -20 -0.5t-14 -0.5
l-13 -183q25 -9 59 -9zM211 25q53 0 79.5 20.5t29.5 65.5q4 62 -27 93t-86 31q-15 0 -49 -2l-15 -200q38 -8 68 -8z" />
    <glyph glyph-name="C.sc" horiz-adv-x="466" 
d="M380 115l19 -1l-26 -93q-66 -29 -131 -29q-88 0 -138 65.5t-41 190.5q7 107 77.5 172.5t167.5 65.5q59 0 103 -22l-24 -88h-18l-46 68q-11 3 -45 3q-82 0 -116.5 -41t-42.5 -146q-8 -114 39 -176t120 -62q25 0 32 2z" />
    <glyph glyph-name="Ccedilla.sc" horiz-adv-x="466" 
d="M342 -124q0 -38 -43.5 -57.5t-110.5 -20.5l-6 25q63 0 87 5t24 25q0 11 -4 18.5t-21 16.5t-49 17l44 88q-7 -1 -21 -1q-88 0 -138 65.5t-41 190.5q7 107 77.5 172.5t167.5 65.5q59 0 103 -22l-24 -88h-18l-46 68q-11 3 -45 3q-82 0 -116.5 -41t-42.5 -146
q-8 -114 39 -176t120 -62q25 0 32 2l70 91l19 -1l-26 -93q-46 -20 -88 -26l-30 -58q87 -22 87 -61z" />
    <glyph glyph-name="Cacute.sc" horiz-adv-x="466" 
d="M205 525l89 166l62 -24l-131 -142h-20zM380 115l19 -1l-26 -93q-66 -29 -131 -29q-88 0 -138 65.5t-41 190.5q7 107 77.5 172.5t167.5 65.5q59 0 103 -22l-24 -88h-18l-46 68q-11 3 -45 3q-82 0 -116.5 -41t-42.5 -146q-8 -114 39 -176t120 -62q25 0 32 2z" />
    <glyph glyph-name="Ccircumflex.sc" horiz-adv-x="466" 
d="M316 691l95 -166h-20l-95 98l-106 -98h-20l118 166h28zM380 115l19 -1l-26 -93q-66 -29 -131 -29q-88 0 -138 65.5t-41 190.5q7 107 77.5 172.5t167.5 65.5q59 0 103 -22l-24 -88h-18l-46 68q-11 3 -45 3q-82 0 -116.5 -41t-42.5 -146q-8 -114 39 -176t120 -62q25 0 32 2
z" />
    <glyph glyph-name="Cdotaccent.sc" horiz-adv-x="466" 
d="M269 580q0 13 16 30.5t26 17.5q11 0 26 -14t14 -26q0 -13 -16 -30t-26 -17q-11 0 -26 14t-14 25zM380 115l19 -1l-26 -93q-66 -29 -131 -29q-88 0 -138 65.5t-41 190.5q7 107 77.5 172.5t167.5 65.5q59 0 103 -22l-24 -88h-18l-46 68q-11 3 -45 3q-82 0 -116.5 -41
t-42.5 -146q-8 -114 39 -176t120 -62q25 0 32 2z" />
    <glyph glyph-name="Ccaron.sc" horiz-adv-x="466" 
d="M399 691l-118 -166h-27l-96 166h20l94 -99l108 99h19zM380 115l19 -1l-26 -93q-66 -29 -131 -29q-88 0 -138 65.5t-41 190.5q7 107 77.5 172.5t167.5 65.5q59 0 103 -22l-24 -88h-18l-46 68q-11 3 -45 3q-82 0 -116.5 -41t-42.5 -146q-8 -114 39 -176t120 -62q25 0 32 2z
" />
    <glyph glyph-name="D.sc" horiz-adv-x="509" 
d="M235 31q147 0 160 180q10 112 -45.5 175.5t-135.5 63.5h-40l-30 -408q42 -11 91 -11zM22 0l1 13l61 32l28 387l-56 34l1 12h174q115 0 174.5 -60t50.5 -179t-78 -179t-185 -60h-171z" />
    <glyph glyph-name="Dcaron.sc" horiz-adv-x="509" 
d="M383 691l-118 -166h-27l-96 166h20l94 -99l108 99h19zM235 31q147 0 160 180q10 112 -45.5 175.5t-135.5 63.5h-40l-30 -408q42 -11 91 -11zM22 0l1 13l61 32l28 387l-56 34l1 12h174q115 0 174.5 -60t50.5 -179t-78 -179t-185 -60h-171z" />
    <glyph glyph-name="E.sc" horiz-adv-x="418" 
d="M27 0l1 13l61 32l29 387l-56 34l1 12h331l-25 -97h-19l-35 69h-137l-14 -192h60l99 8l-9 -39l-91 9h-61l-15 -210h144v-2l69 81h20l-30 -105h-323z" />
    <glyph glyph-name="Egrave.sc" horiz-adv-x="418" 
d="M253 691l66 -166h-20l-114 142zM27 0l1 13l61 32l29 387l-56 34l1 12h331l-25 -97h-19l-35 69h-137l-14 -192h60l99 8l-9 -39l-91 9h-61l-15 -210h144v-2l69 81h20l-30 -105h-323z" />
    <glyph glyph-name="Eacute.sc" horiz-adv-x="418" 
d="M178 525l89 166l62 -24l-131 -142h-20zM27 0l1 13l61 32l29 387l-56 34l1 12h331l-25 -97h-19l-35 69h-137l-14 -192h60l99 8l-9 -39l-91 9h-61l-15 -210h144v-2l69 81h20l-30 -105h-323z" />
    <glyph glyph-name="Ecircumflex.sc" horiz-adv-x="418" 
d="M289 691l95 -166h-20l-95 98l-106 -98h-20l118 166h28zM27 0l1 13l61 32l29 387l-56 34l1 12h331l-25 -97h-19l-35 69h-137l-14 -192h60l99 8l-9 -39l-91 9h-61l-15 -210h144v-2l69 81h20l-30 -105h-323z" />
    <glyph glyph-name="Edieresis.sc" horiz-adv-x="418" 
d="M294 571q1 11 14.5 25.5t21.5 14.5q9 0 21.5 -11.5t12.5 -22.5q-2 -12 -15 -25.5t-22 -13.5q-8 0 -21 11.5t-12 21.5zM135 571q2 12 15 26t22 14q8 0 20.5 -11.5t12.5 -22.5q-2 -11 -15.5 -25t-22.5 -14q-8 0 -20 11.5t-12 21.5zM27 0l1 13l61 32l29 387l-56 34l1 12h331
l-25 -97h-19l-35 69h-137l-14 -192h60l99 8l-9 -39l-91 9h-61l-15 -210h144v-2l69 81h20l-30 -105h-323z" />
    <glyph glyph-name="Emacron.sc" horiz-adv-x="418" 
d="M347 574l-1 -15l-14 -17h-183l1 15l14 17h183zM27 0l1 13l61 32l29 387l-56 34l1 12h331l-25 -97h-19l-35 69h-137l-14 -192h60l99 8l-9 -39l-91 9h-61l-15 -210h144v-2l69 81h20l-30 -105h-323z" />
    <glyph glyph-name="Ebreve.sc" horiz-adv-x="418" 
d="M268 577q48 0 70.5 31t32.5 83h21q-5 -74 -37.5 -120t-93.5 -46q-113 0 -104 166h20q6 -114 91 -114zM27 0l1 13l61 32l29 387l-56 34l1 12h331l-25 -97h-19l-35 69h-137l-14 -192h60l99 8l-9 -39l-91 9h-61l-15 -210h144v-2l69 81h20l-30 -105h-323z" />
    <glyph glyph-name="Edotaccent.sc" horiz-adv-x="418" 
d="M208 580q0 13 16 30.5t26 17.5q11 0 26 -14t14 -26q0 -13 -16 -30t-26 -17q-11 0 -26 14t-14 25zM27 0l1 13l61 32l29 387l-56 34l1 12h331l-25 -97h-19l-35 69h-137l-14 -192h60l99 8l-9 -39l-91 9h-61l-15 -210h144v-2l69 81h20l-30 -105h-323z" />
    <glyph glyph-name="Eogonek.sc" horiz-adv-x="418" 
d="M314 -208q-8 -3 -20 -8l-18 -7.5t-14.5 -4.5t-16.5 -2q-26 0 -45 21.5t-18 53.5q2 43 34 85t81 70h-270l1 13l61 32l29 387l-56 34l1 12h331l-25 -97h-19l-35 69h-137l-14 -192h60l99 8l-9 -39l-91 9h-61l-15 -210h144v-2l69 81h20l-30 -105h-32q-92 -62 -97 -136
q-2 -24 11 -42.5t37 -18.5q12 0 41 9z" />
    <glyph glyph-name="Ecaron.sc" horiz-adv-x="418" 
d="M378 691l-118 -166h-27l-96 166h20l94 -99l108 99h19zM27 0l1 13l61 32l29 387l-56 34l1 12h331l-25 -97h-19l-35 69h-137l-14 -192h60l99 8l-9 -39l-91 9h-61l-15 -210h144v-2l69 81h20l-30 -105h-323z" />
    <glyph glyph-name="F.sc" horiz-adv-x="392" 
d="M226 11l-1 -11h-198l1 13l61 32l29 387l-56 34l1 12h320l-23 -97h-18l-36 69h-128l-14 -199h56l97 7l-9 -39l-89 9h-56l-13 -183z" />
    <glyph glyph-name="G.sc" horiz-adv-x="481" 
d="M341 31l9 138l-61 34v12h171v-13l-54 -33l-13 -147q-68 -30 -148 -30q-97 0 -144.5 64t-37.5 192q7 107 74.5 172.5t161.5 65.5q74 0 121 -26l-22 -82h-19l-38 61q-26 8 -68 8q-85 0 -116 -41t-38 -148q-9 -112 34 -175t121 -63q40 0 67 11z" />
    <glyph glyph-name="Gcircumflex.sc" horiz-adv-x="488" 
d="M326 691l95 -166h-20l-95 98l-106 -98h-20l118 166h28zM341 31l9 138l-61 34v12h171v-13l-54 -33l-13 -147q-68 -30 -148 -30q-97 0 -144.5 64t-37.5 192q7 107 74.5 172.5t161.5 65.5q74 0 121 -26l-22 -82h-19l-38 61q-26 8 -68 8q-85 0 -116 -41t-38 -148
q-9 -112 34 -175t121 -63q40 0 67 11z" />
    <glyph glyph-name="Gbreve.sc" horiz-adv-x="488" 
d="M305 577q48 0 70.5 31t32.5 83h21q-5 -74 -37.5 -120t-93.5 -46q-113 0 -104 166h20q6 -114 91 -114zM341 31l9 138l-61 34v12h171v-13l-54 -33l-13 -147q-68 -30 -148 -30q-97 0 -144.5 64t-37.5 192q7 107 74.5 172.5t161.5 65.5q74 0 121 -26l-22 -82h-19l-38 61
q-26 8 -68 8q-85 0 -116 -41t-38 -148q-9 -112 34 -175t121 -63q40 0 67 11z" />
    <glyph glyph-name="Gdotaccent.sc" horiz-adv-x="488" 
d="M262 580q0 13 16 30.5t26 17.5q11 0 26 -14t14 -26q0 -13 -16 -30t-26 -17q-11 0 -26 14t-14 25zM341 31l9 138l-61 34v12h171v-13l-54 -33l-13 -147q-68 -30 -148 -30q-97 0 -144.5 64t-37.5 192q7 107 74.5 172.5t161.5 65.5q74 0 121 -26l-22 -82h-19l-38 61
q-26 8 -68 8q-85 0 -116 -41t-38 -148q-9 -112 34 -175t121 -63q40 0 67 11z" />
    <glyph glyph-name="Gcommaaccent.sc" horiz-adv-x="488" 
d="M341 31l9 138l-61 34v12h171v-13l-54 -33l-13 -147q-68 -30 -148 -30q-97 0 -144.5 64t-37.5 192q7 107 74.5 172.5t161.5 65.5q74 0 121 -26l-22 -82h-19l-38 61q-26 8 -68 8q-85 0 -116 -41t-38 -148q-9 -112 34 -175t121 -63q40 0 67 11zM231 -93q1 15 14.5 30.5
t24.5 15.5q14 0 31 -25t15 -51q-2 -56 -92 -142l-11 9q49 63 55 94q1 19 -18.5 37.5t-18.5 31.5z" />
    <glyph glyph-name="H.sc" horiz-adv-x="539" 
d="M203 11l-1 -11h-180l1 13l61 32l28 387l-57 34l2 12h181l-1 -13l-65 -33l-13 -172h225l13 172l-63 34l3 12h180l-2 -13l-60 -33l-29 -387l55 -34l1 -11h-180v13l66 32l14 193h-225l-14 -193z" />
    <glyph glyph-name="Hcircumflex.sc" horiz-adv-x="539" 
d="M324 691l95 -166h-20l-95 98l-106 -98h-20l118 166h28zM203 11l-1 -11h-180l1 13l61 32l28 387l-57 34l2 12h181l-1 -13l-65 -33l-13 -172h225l13 172l-63 34l3 12h180l-2 -13l-60 -33l-29 -387l55 -34l1 -11h-180v13l66 32l14 193h-225l-14 -193z" />
    <glyph glyph-name="I.sc" horiz-adv-x="256" 
d="M178 432l-28 -387l54 -34l1 -11h-178v13l62 32l29 387l-58 34l3 12h176l-2 -13z" />
    <glyph glyph-name="Igrave.sc" horiz-adv-x="256" 
d="M162 691l66 -166h-20l-114 142zM178 432l-28 -387l54 -34l1 -11h-178v13l62 32l29 387l-58 34l3 12h176l-2 -13z" />
    <glyph glyph-name="Iacute.sc" horiz-adv-x="256" 
d="M113 525l89 166l62 -24l-131 -142h-20zM178 432l-28 -387l54 -34l1 -11h-178v13l62 32l29 387l-58 34l3 12h176l-2 -13z" />
    <glyph glyph-name="Icircumflex.sc" horiz-adv-x="256" 
d="M187 691l95 -166h-20l-95 98l-106 -98h-20l118 166h28zM178 432l-28 -387l54 -34l1 -11h-178v13l62 32l29 387l-58 34l3 12h176l-2 -13z" />
    <glyph glyph-name="Idieresis.sc" horiz-adv-x="256" 
d="M203 571q1 11 14.5 25.5t21.5 14.5q9 0 21.5 -11.5t12.5 -22.5q-2 -12 -15 -25.5t-22 -13.5q-8 0 -21 11.5t-12 21.5zM44 571q2 12 15 26t22 14q8 0 20.5 -11.5t12.5 -22.5q-2 -11 -15.5 -25t-22.5 -14q-8 0 -20 11.5t-12 21.5zM178 432l-28 -387l54 -34l1 -11h-178v13
l62 32l29 387l-58 34l3 12h176l-2 -13z" />
    <glyph glyph-name="Itilde.sc" horiz-adv-x="256" 
d="M223 562q15 0 28.5 8t20 15t22.5 26l7 -11q-5 -8 -15 -22t-14 -19t-11 -14.5t-11 -13t-10.5 -8t-12 -6t-12.5 -1.5q-21 0 -62.5 15t-58.5 15q-35 0 -77 -44l-4 11q47 58 60 67q14 10 33 10q22 0 63.5 -14t53.5 -14zM178 432l-28 -387l54 -34l1 -11h-178v13l62 32l29 387
l-58 34l3 12h176l-2 -13z" />
    <glyph glyph-name="Imacron.sc" horiz-adv-x="256" 
d="M254 574l-1 -15l-14 -17h-183l1 15l14 17h183zM178 432l-28 -387l54 -34l1 -11h-178v13l62 32l29 387l-58 34l3 12h176l-2 -13z" />
    <glyph glyph-name="Ibreve.sc" horiz-adv-x="256" 
d="M160 577q48 0 70.5 31t32.5 83h21q-5 -74 -37.5 -120t-93.5 -46q-113 0 -104 166h20q6 -114 91 -114zM178 432l-28 -387l54 -34l1 -11h-178v13l62 32l29 387l-58 34l3 12h176l-2 -13z" />
    <glyph glyph-name="Iogonek.sc" horiz-adv-x="256" 
d="M164 -208q-8 -3 -20 -8l-18 -7.5t-14.5 -4.5t-16.5 -2q-26 0 -45 21.5t-18 53.5q2 43 34 85t81 70h-120v13l62 32l29 387l-58 34l3 12h176l-2 -13l-59 -33l-28 -387l54 -34l1 -11h-37q-92 -62 -97 -136q-2 -24 11 -42.5t37 -18.5q12 0 41 9z" />
    <glyph glyph-name="Idotaccent.sc" horiz-adv-x="256" 
d="M120 580q0 13 16 30.5t26 17.5q11 0 26 -14t14 -26q0 -13 -16 -30t-26 -17q-11 0 -26 14t-14 25zM178 432l-28 -387l54 -34l1 -11h-178v13l62 32l29 387l-58 34l3 12h176l-2 -13z" />
    <glyph glyph-name="J.sc" horiz-adv-x="295" 
d="M138 92l25 340l-69 34l1 12h189l-1 -13l-62 -33l-23 -316q-5 -59 -48 -91.5t-102 -32.5q-33 0 -56 9l20 76h18l37 -65q66 13 71 80z" />
    <glyph glyph-name="Jcircumflex.sc" horiz-adv-x="295" 
d="M226 691l95 -166h-20l-95 98l-106 -98h-20l118 166h28zM138 92l25 340l-69 34l1 12h189l-1 -13l-62 -33l-23 -316q-5 -59 -48 -91.5t-102 -32.5q-33 0 -56 9l20 76h18l37 -65q66 13 71 80z" />
    <glyph glyph-name="K.sc" horiz-adv-x="497" 
d="M172 432l-29 -387l57 -34l-1 -11h-177l1 13l61 32l28 387l-56 34l1 12h177l-1 -13zM469 8q-43 -16 -74 -16q-25 0 -45 13.5t-63.5 69.5t-125.5 179l205 180l-52 31l1 13h149l-1 -13l-59 -33l-187 -170q151 -201 190 -223q21 -15 62 -15v-16z" />
    <glyph glyph-name="Kcommaaccent.sc" horiz-adv-x="497" 
d="M172 432l-29 -387l57 -34l-1 -11h-177l1 13l61 32l28 387l-56 34l1 12h177l-1 -13zM469 8q-43 -16 -74 -16q-25 0 -45 13.5t-63.5 69.5t-125.5 179l205 180l-52 31l1 13h149l-1 -13l-59 -33l-187 -170q151 -201 190 -223q21 -15 62 -15v-16zM181 -93q1 15 14.5 30.5
t24.5 15.5q14 0 31 -25t15 -51q-2 -56 -92 -142l-11 9q49 63 55 94q1 19 -18.5 37.5t-18.5 31.5z" />
    <glyph glyph-name="L.sc" horiz-adv-x="403" 
d="M27 0l1 13l61 32l29 387l-56 34l1 12h195v-13l-80 -33l-31 -406h145l76 91h20l-32 -117h-329z" />
    <glyph glyph-name="Lacute.sc" horiz-adv-x="403" 
d="M134 525l89 166l62 -24l-131 -142h-20zM27 0l1 13l61 32l29 387l-56 34l1 12h195v-13l-80 -33l-31 -406h145l76 91h20l-32 -117h-329z" />
    <glyph glyph-name="Lcommaaccent.sc" horiz-adv-x="403" 
d="M27 0l1 13l61 32l29 387l-56 34l1 12h195v-13l-80 -33l-31 -406h145l76 91h20l-32 -117h-329zM141 -93q1 15 14.5 30.5t24.5 15.5q14 0 31 -25t15 -51q-2 -56 -92 -142l-11 9q49 63 55 94q1 19 -18.5 37.5t-18.5 31.5z" />
    <glyph glyph-name="Lcaron.sc" horiz-adv-x="376" 
d="M296 497q4 16 17.5 26t27.5 10q11 0 27 -20t15 -44q-5 -45 -72 -147l-16 3q27 65 29 96q3 41 -28 76zM27 0l1 13l61 32l29 387l-56 34l1 12h195v-13l-80 -33l-31 -406h145l76 91h20l-32 -117h-329z" />
    <glyph glyph-name="M.sc" horiz-adv-x="672" 
d="M168 11v-11h-153l1 13l61 32l58 387l-56 34l-1 12h127l123 -375l191 375h125l-1 -13l-61 -33l-5 -387l56 -34v-11h-178l1 13l62 32l6 365l-194 -375l-36 -19l-132 392l-49 -363z" />
    <glyph glyph-name="N.sc" horiz-adv-x="534" 
d="M419 -1h-23l-246 399l-26 -353l55 -34l-1 -11h-149l1 13l61 32l28 386l-56 35l1 12h114l217 -356l23 310l-55 35l1 11h149l-1 -13l-61 -33z" />
    <glyph glyph-name="Ntilde.sc" horiz-adv-x="534" 
d="M375 562q15 0 28.5 8t20 15t22.5 26l7 -11q-5 -8 -15 -22t-14 -19t-11 -14.5t-11 -13t-10.5 -8t-12 -6t-12.5 -1.5q-21 0 -62.5 15t-58.5 15q-35 0 -77 -44l-4 11q47 58 60 67q14 10 33 10q22 0 63 -14t54 -14zM419 -1h-23l-246 399l-26 -353l55 -34l-1 -11h-149l1 13
l61 32l28 386l-56 35l1 12h114l217 -356l23 310l-55 35l1 11h149l-1 -13l-61 -33z" />
    <glyph glyph-name="Nacute.sc" horiz-adv-x="534" 
d="M239 525l89 166l62 -24l-131 -142h-20zM419 -1h-23l-246 399l-26 -353l55 -34l-1 -11h-149l1 13l61 32l28 386l-56 35l1 12h114l217 -356l23 310l-55 35l1 11h149l-1 -13l-61 -33z" />
    <glyph glyph-name="Ncommaaccent.sc" horiz-adv-x="534" 
d="M419 -1h-23l-246 399l-26 -353l55 -34l-1 -11h-149l1 13l61 32l28 386l-56 35l1 12h114l217 -356l23 310l-55 35l1 11h149l-1 -13l-61 -33zM205 -93q1 15 14.5 30.5t24.5 15.5q14 0 31 -25t15 -51q-2 -56 -92 -142l-11 9q49 63 55 94q1 19 -18.5 37.5t-18.5 31.5z" />
    <glyph glyph-name="Ncaron.sc" horiz-adv-x="534" 
d="M406 691l-118 -166h-27l-96 166h20l94 -99l108 99h19zM419 -1h-23l-246 399l-26 -353l55 -34l-1 -11h-149l1 13l61 32l28 386l-56 35l1 12h114l217 -356l23 310l-55 35l1 11h149l-1 -13l-61 -33z" />
    <glyph glyph-name="O.sc" horiz-adv-x="523" 
d="M293 486q86 0 132.5 -70t29.5 -194q-16 -103 -82.5 -166.5t-143.5 -63.5q-87 0 -133.5 70t-28.5 194q16 103 82 166.5t144 63.5zM253 33q67 0 99.5 39t45.5 137q14 113 -25 174.5t-108 61.5q-64 0 -97.5 -39t-45.5 -137q-14 -113 25 -174.5t106 -61.5z" />
    <glyph glyph-name="Ograve.sc" horiz-adv-x="523" 
d="M322 691l66 -166h-20l-114 142zM293 486q86 0 132.5 -70t29.5 -194q-16 -103 -82.5 -166.5t-143.5 -63.5q-87 0 -133.5 70t-28.5 194q16 103 82 166.5t144 63.5zM253 33q67 0 99.5 39t45.5 137q14 113 -25 174.5t-108 61.5q-64 0 -97.5 -39t-45.5 -137
q-14 -113 25 -174.5t106 -61.5z" />
    <glyph glyph-name="Oacute.sc" horiz-adv-x="523" 
d="M226 525l89 166l62 -24l-131 -142h-20zM293 486q86 0 132.5 -70t29.5 -194q-16 -103 -82.5 -166.5t-143.5 -63.5q-87 0 -133.5 70t-28.5 194q16 103 82 166.5t144 63.5zM253 33q67 0 99.5 39t45.5 137q14 113 -25 174.5t-108 61.5q-64 0 -97.5 -39t-45.5 -137
q-14 -113 25 -174.5t106 -61.5z" />
    <glyph glyph-name="Ocircumflex.sc" horiz-adv-x="523" 
d="M319 691l95 -166h-20l-95 98l-106 -98h-20l118 166h28zM293 486q86 0 132.5 -70t29.5 -194q-16 -103 -82.5 -166.5t-143.5 -63.5q-87 0 -133.5 70t-28.5 194q16 103 82 166.5t144 63.5zM253 33q67 0 99.5 39t45.5 137q14 113 -25 174.5t-108 61.5q-64 0 -97.5 -39
t-45.5 -137q-14 -113 25 -174.5t106 -61.5z" />
    <glyph glyph-name="Otilde.sc" horiz-adv-x="523" 
d="M349 562q15 0 28.5 8t20 15t22.5 26l7 -11q-5 -8 -15 -22t-14 -19t-11 -14.5t-11 -13t-10.5 -8t-12 -6t-12.5 -1.5q-21 0 -62.5 15t-58.5 15q-35 0 -77 -44l-4 11q47 58 60 67q14 10 33 10q22 0 63 -14t54 -14zM293 486q86 0 132.5 -70t29.5 -194q-16 -103 -82.5 -166.5
t-143.5 -63.5q-87 0 -133.5 70t-28.5 194q16 103 82 166.5t144 63.5zM253 33q67 0 99.5 39t45.5 137q14 113 -25 174.5t-108 61.5q-64 0 -97.5 -39t-45.5 -137q-14 -113 25 -174.5t106 -61.5z" />
    <glyph glyph-name="Odieresis.sc" horiz-adv-x="523" 
d="M329 571q1 11 14.5 25.5t21.5 14.5q9 0 21.5 -11.5t12.5 -22.5q-2 -12 -15 -25.5t-22 -13.5q-8 0 -21 11.5t-12 21.5zM170 571q2 12 15 26t22 14q8 0 20.5 -11.5t12.5 -22.5q-2 -11 -15.5 -25t-22.5 -14q-8 0 -20 11.5t-12 21.5zM293 486q86 0 132.5 -70t29.5 -194
q-16 -103 -82.5 -166.5t-143.5 -63.5q-87 0 -133.5 70t-28.5 194q16 103 82 166.5t144 63.5zM253 33q67 0 99.5 39t45.5 137q14 113 -25 174.5t-108 61.5q-64 0 -97.5 -39t-45.5 -137q-14 -113 25 -174.5t106 -61.5z" />
    <glyph glyph-name="Omacron.sc" horiz-adv-x="523" 
d="M382 574l-1 -15l-14 -17h-183l1 15l14 17h183zM293 486q86 0 132.5 -70t29.5 -194q-16 -103 -82.5 -166.5t-143.5 -63.5q-87 0 -133.5 70t-28.5 194q16 103 82 166.5t144 63.5zM253 33q67 0 99.5 39t45.5 137q14 113 -25 174.5t-108 61.5q-64 0 -97.5 -39t-45.5 -137
q-14 -113 25 -174.5t106 -61.5z" />
    <glyph glyph-name="Obreve.sc" horiz-adv-x="523" 
d="M303 577q48 0 70.5 31t32.5 83h21q-5 -74 -37.5 -120t-93.5 -46q-113 0 -104 166h20q6 -114 91 -114zM293 486q86 0 132.5 -70t29.5 -194q-16 -103 -82.5 -166.5t-143.5 -63.5q-87 0 -133.5 70t-28.5 194q16 103 82 166.5t144 63.5zM253 33q67 0 99.5 39t45.5 137
q14 113 -25 174.5t-108 61.5q-64 0 -97.5 -39t-45.5 -137q-14 -113 25 -174.5t106 -61.5z" />
    <glyph glyph-name="Ohungarumlaut.sc" horiz-adv-x="523" 
d="M311 525l89 166l62 -24l-131 -142h-20zM174 525l89 166l61 -24l-131 -142h-19zM293 486q86 0 132.5 -70t29.5 -194q-16 -103 -82.5 -166.5t-143.5 -63.5q-87 0 -133.5 70t-28.5 194q16 103 82 166.5t144 63.5zM253 33q67 0 99.5 39t45.5 137q14 113 -25 174.5t-108 61.5
q-64 0 -97.5 -39t-45.5 -137q-14 -113 25 -174.5t106 -61.5z" />
    <glyph glyph-name="P.sc" horiz-adv-x="420" 
d="M229 243q87 0 101 91q5 50 -24.5 83t-103.5 33h-24l-14 -204q28 -3 65 -3zM226 11l-1 -11h-198v13l62 32l29 387l-58 34l3 12h166q87 0 128 -33.5t36 -84.5q-6 -63 -63.5 -104.5t-121.5 -41.5q-37 0 -46 1l-12 -170z" />
    <glyph glyph-name="Q.sc" horiz-adv-x="523" 
d="M373 -133q-26 0 -104.5 33t-101.5 30q-22 -12 -34.5 -17.5t-24.5 -8.5t-17 1.5t-5 16.5q0 25 15.5 32.5t75.5 8.5q36 16 57 29h-5q-87 0 -133.5 70t-28.5 194q16 103 82 166.5t144 63.5q86 0 132.5 -70t29.5 -194q-19 -123 -109 -189h3q-54 -43 -133 -74q32 -5 102 -23
t85 -18q38 0 81 21l2 -11q-42 -37 -65 -49t-48 -12zM253 33q19 0 36 3l1 1h3q46 10 70.5 49.5t34.5 122.5q14 113 -25 174.5t-108 61.5q-64 0 -97.5 -39t-45.5 -137q-14 -113 25 -174.5t106 -61.5z" />
    <glyph glyph-name="R.sc" horiz-adv-x="481" 
d="M398 -8q-26 0 -43 15.5t-41 64t-69 162.5q-20 -3 -37 -3q-9 0 -45 3l-13 -189l64 -34l-1 -11h-186v13l62 32l29 387l-58 34l3 12h168q85 0 127.5 -35.5t37.5 -82.5q-7 -78 -102 -114q88 -191 116 -206q18 -14 67 -14v-18q-41 -16 -79 -16zM229 264q92 0 102 66
q7 57 -27 88.5t-102 31.5h-24l-13 -184q40 -2 64 -2z" />
    <glyph glyph-name="Racute.sc" horiz-adv-x="481" 
d="M170 525l89 166l62 -24l-131 -142h-20zM398 -8q-26 0 -43 15.5t-41 64t-69 162.5q-20 -3 -37 -3q-9 0 -45 3l-13 -189l64 -34l-1 -11h-186v13l62 32l29 387l-58 34l3 12h168q85 0 127.5 -35.5t37.5 -82.5q-7 -78 -102 -114q88 -191 116 -206q18 -14 67 -14v-18
q-41 -16 -79 -16zM229 264q92 0 102 66q7 57 -27 88.5t-102 31.5h-24l-13 -184q40 -2 64 -2z" />
    <glyph glyph-name="Rcommaaccent.sc" horiz-adv-x="481" 
d="M398 -8q-26 0 -43 15.5t-41 64t-69 162.5q-20 -3 -37 -3q-9 0 -45 3l-13 -189l64 -34l-1 -11h-186v13l62 32l29 387l-58 34l3 12h168q85 0 127.5 -35.5t37.5 -82.5q-7 -78 -102 -114q88 -191 116 -206q18 -14 67 -14v-18q-41 -16 -79 -16zM229 264q92 0 102 66
q7 57 -27 88.5t-102 31.5h-24l-13 -184q40 -2 64 -2zM187 -93q1 15 14.5 30.5t24.5 15.5q14 0 31 -25t15 -51q-2 -56 -92 -142l-11 9q49 63 55 94q1 19 -18.5 37.5t-18.5 31.5z" />
    <glyph glyph-name="Rcaron.sc" horiz-adv-x="481" 
d="M371 691l-118 -166h-27l-96 166h20l94 -99l108 99h19zM398 -8q-26 0 -43 15.5t-41 64t-69 162.5q-20 -3 -37 -3q-9 0 -45 3l-13 -189l64 -34l-1 -11h-186v13l62 32l29 387l-58 34l3 12h168q85 0 127.5 -35.5t37.5 -82.5q-7 -78 -102 -114q88 -191 116 -206q18 -14 67 -14
v-18q-41 -16 -79 -16zM229 264q92 0 102 66q7 57 -27 88.5t-102 31.5h-24l-13 -184q40 -2 64 -2z" />
    <glyph glyph-name="S.sc" horiz-adv-x="382" 
d="M196 219l-39 24q-45 24 -67 53t-18 74q4 49 55 82.5t118 33.5q60 0 99 -15l-21 -85h-21l-40 62q-21 7 -54 7q-73 0 -81 -68q-6 -70 71 -110l40 -22q50 -29 72 -57t18 -70q-3 -57 -57.5 -96.5t-120.5 -39.5q-70 0 -118 14l24 90h25l29 -61q27 -7 71 -7q86 0 91 75
q3 42 -16 68.5t-60 47.5z" />
    <glyph glyph-name="Sacute.sc" horiz-adv-x="382" 
d="M164 525l89 166l62 -24l-131 -142h-20zM196 219l-39 24q-45 24 -67 53t-18 74q4 49 55 82.5t118 33.5q60 0 99 -15l-21 -85h-21l-40 62q-21 7 -54 7q-73 0 -81 -68q-6 -70 71 -110l40 -22q50 -29 72 -57t18 -70q-3 -57 -57.5 -96.5t-120.5 -39.5q-70 0 -118 14l24 90h25
l29 -61q27 -7 71 -7q86 0 91 75q3 42 -16 68.5t-60 47.5z" />
    <glyph glyph-name="Scircumflex.sc" horiz-adv-x="382" 
d="M250 691l95 -166h-20l-95 98l-106 -98h-20l118 166h28zM196 219l-39 24q-45 24 -67 53t-18 74q4 49 55 82.5t118 33.5q60 0 99 -15l-21 -85h-21l-40 62q-21 7 -54 7q-73 0 -81 -68q-6 -70 71 -110l40 -22q50 -29 72 -57t18 -70q-3 -57 -57.5 -96.5t-120.5 -39.5
q-70 0 -118 14l24 90h25l29 -61q27 -7 71 -7q86 0 91 75q3 42 -16 68.5t-60 47.5z" />
    <glyph glyph-name="Scedilla.sc" horiz-adv-x="382" 
d="M97 -202l-6 25q63 0 87 5t24 25q0 11 -4 18.5t-21 16.5t-49 17l45 88q-8 -1 -23 -1q-70 0 -118 14l24 90h25l29 -61q27 -7 71 -7q86 0 91 75q3 42 -16 68.5t-60 47.5l-39 24q-45 24 -67 53t-18 74q4 49 55 82.5t118 33.5q60 0 99 -15l-21 -85h-21l-40 62q-21 7 -54 7
q-73 0 -81 -68q-6 -70 71 -110l40 -22q50 -29 72 -57t18 -70q-2 -47 -40 -82.5t-92 -48.5l-32 -60q87 -22 87 -61q0 -38 -43.5 -57.5t-110.5 -20.5z" />
    <glyph glyph-name="Scaron.sc" horiz-adv-x="382" 
d="M358 691l-118 -166h-27l-96 166h20l94 -99l108 99h19zM196 219l-39 24q-45 24 -67 53t-18 74q4 49 55 82.5t118 33.5q60 0 99 -15l-21 -85h-21l-40 62q-21 7 -54 7q-73 0 -81 -68q-6 -70 71 -110l40 -22q50 -29 72 -57t18 -70q-3 -57 -57.5 -96.5t-120.5 -39.5
q-70 0 -118 14l24 90h25l29 -61q27 -7 71 -7q86 0 91 75q3 42 -16 68.5t-60 47.5z" />
    <glyph glyph-name="Scommaaccent.sc" horiz-adv-x="382" 
d="M196 219l-39 24q-45 24 -67 53t-18 74q4 49 55 82.5t118 33.5q60 0 99 -15l-21 -85h-21l-40 62q-21 7 -54 7q-73 0 -81 -68q-6 -70 71 -110l40 -22q50 -29 72 -57t18 -70q-3 -57 -57.5 -96.5t-120.5 -39.5q-70 0 -118 14l24 90h25l29 -61q27 -7 71 -7q86 0 91 75
q3 42 -16 68.5t-60 47.5zM130 -93q1 15 14.5 30.5t24.5 15.5q14 0 31 -25t15 -51q-2 -56 -92 -142l-11 9q49 63 55 94q1 19 -18.5 37.5t-18.5 31.5z" />
    <glyph glyph-name="T.sc" horiz-adv-x="447" 
d="M304 11l-1 -11h-191l1 13l69 32l29 405h-68l-78 -75h-20l33 103h359l-25 -103h-19l-37 75h-87l-29 -405z" />
    <glyph glyph-name="Tcommaaccent.sc" horiz-adv-x="447" 
d="M304 11l-1 -11h-191l1 13l69 32l29 405h-68l-78 -75h-20l33 103h359l-25 -103h-19l-37 75h-87l-29 -405zM162 -93q1 15 14.5 30.5t24.5 15.5q14 0 31 -25t15 -51q-2 -56 -92 -142l-11 9q49 63 55 94q1 19 -18.5 37.5t-18.5 31.5z" />
    <glyph glyph-name="Tcaron.sc" horiz-adv-x="447" 
d="M380 691l-118 -166h-27l-96 166h20l94 -99l108 99h19zM304 11l-1 -11h-191l1 13l69 32l29 405h-68l-78 -75h-20l33 103h359l-25 -103h-19l-37 75h-87l-29 -405z" />
    <glyph glyph-name="U.sc" horiz-adv-x="534" 
d="M181 432l-19 -259q-5 -63 24.5 -98.5t92.5 -35.5q116 0 124 116l20 277l-57 35v11h153l-1 -13l-65 -33l-19 -258q-5 -85 -55.5 -133.5t-131.5 -48.5q-71 0 -110.5 43t-35.5 120l22 277l-56 34l1 12h176l-1 -13z" />
    <glyph glyph-name="Ugrave.sc" horiz-adv-x="534" 
d="M328 691l66 -166h-20l-114 142zM181 432l-19 -259q-5 -63 24.5 -98.5t92.5 -35.5q116 0 124 116l20 277l-57 35v11h153l-1 -13l-65 -33l-19 -258q-5 -85 -55.5 -133.5t-131.5 -48.5q-71 0 -110.5 43t-35.5 120l22 277l-56 34l1 12h176l-1 -13z" />
    <glyph glyph-name="Uacute.sc" horiz-adv-x="534" 
d="M259 525l89 166l62 -24l-131 -142h-20zM181 432l-19 -259q-5 -63 24.5 -98.5t92.5 -35.5q116 0 124 116l20 277l-57 35v11h153l-1 -13l-65 -33l-19 -258q-5 -85 -55.5 -133.5t-131.5 -48.5q-71 0 -110.5 43t-35.5 120l22 277l-56 34l1 12h176l-1 -13z" />
    <glyph glyph-name="Ucircumflex.sc" horiz-adv-x="534" 
d="M340 691l95 -166h-20l-95 98l-106 -98h-20l118 166h28zM181 432l-19 -259q-5 -63 24.5 -98.5t92.5 -35.5q116 0 124 116l20 277l-57 35v11h153l-1 -13l-65 -33l-19 -258q-5 -85 -55.5 -133.5t-131.5 -48.5q-71 0 -110.5 43t-35.5 120l22 277l-56 34l1 12h176l-1 -13z" />
    <glyph glyph-name="Udieresis.sc" horiz-adv-x="534" 
d="M354 571q1 11 14.5 25.5t21.5 14.5q9 0 21.5 -11.5t12.5 -22.5q-2 -12 -15 -25.5t-22 -13.5q-8 0 -21 11.5t-12 21.5zM195 571q2 12 15 26t22 14q8 0 20.5 -11.5t12.5 -22.5q-2 -11 -15.5 -25t-22.5 -14q-8 0 -20 11.5t-12 21.5zM181 432l-19 -259q-5 -63 24.5 -98.5
t92.5 -35.5q116 0 124 116l20 277l-57 35v11h153l-1 -13l-65 -33l-19 -258q-5 -85 -55.5 -133.5t-131.5 -48.5q-71 0 -110.5 43t-35.5 120l22 277l-56 34l1 12h176l-1 -13z" />
    <glyph glyph-name="Utilde.sc" horiz-adv-x="534" 
d="M382 562q15 0 28.5 8t20 15t22.5 26l7 -11q-5 -8 -15 -22t-14 -19t-11 -14.5t-11 -13t-10.5 -8t-12 -6t-12.5 -1.5q-21 0 -62.5 15t-58.5 15q-35 0 -77 -44l-4 11q47 58 60 67q14 10 33 10q21 0 63 -14t54 -14zM181 432l-19 -259q-5 -63 24.5 -98.5t92.5 -35.5
q116 0 124 116l20 277l-57 35v11h153l-1 -13l-65 -33l-19 -258q-5 -85 -55.5 -133.5t-131.5 -48.5q-71 0 -110.5 43t-35.5 120l22 277l-56 34l1 12h176l-1 -13z" />
    <glyph glyph-name="Umacron.sc" horiz-adv-x="534" 
d="M415 574l-1 -15l-14 -17h-183l1 15l14 17h183zM181 432l-19 -259q-5 -63 24.5 -98.5t92.5 -35.5q116 0 124 116l20 277l-57 35v11h153l-1 -13l-65 -33l-19 -258q-5 -85 -55.5 -133.5t-131.5 -48.5q-71 0 -110.5 43t-35.5 120l22 277l-56 34l1 12h176l-1 -13z" />
    <glyph glyph-name="Ubreve.sc" horiz-adv-x="534" 
d="M319 577q48 0 70.5 31t32.5 83h21q-5 -74 -37.5 -120t-93.5 -46q-113 0 -104 166h20q6 -114 91 -114zM181 432l-19 -259q-5 -63 24.5 -98.5t92.5 -35.5q116 0 124 116l20 277l-57 35v11h153l-1 -13l-65 -33l-19 -258q-5 -85 -55.5 -133.5t-131.5 -48.5q-71 0 -110.5 43
t-35.5 120l22 277l-56 34l1 12h176l-1 -13z" />
    <glyph glyph-name="Uring.sc" horiz-adv-x="534" 
d="M248 622q4 34 28 57.5t55 23.5q34 0 54 -21.5t17 -59.5q-1 -33 -25.5 -57t-56.5 -24q-34 0 -54.5 21.5t-17.5 59.5zM273 621q-2 -26 11.5 -41.5t36.5 -15.5t38.5 16t16.5 41q3 28 -10.5 44.5t-37.5 16.5q-47 0 -55 -61zM181 432l-19 -259q-5 -63 24.5 -98.5t92.5 -35.5
q116 0 124 116l20 277l-57 35v11h153l-1 -13l-65 -33l-19 -258q-5 -85 -55.5 -133.5t-131.5 -48.5q-71 0 -110.5 43t-35.5 120l22 277l-56 34l1 12h176l-1 -13z" />
    <glyph glyph-name="Uhungarumlaut.sc" horiz-adv-x="534" 
d="M337 525l89 166l62 -24l-131 -142h-20zM200 525l89 166l61 -24l-131 -142h-19zM181 432l-19 -259q-5 -63 24.5 -98.5t92.5 -35.5q116 0 124 116l20 277l-57 35v11h153l-1 -13l-65 -33l-19 -258q-5 -85 -55.5 -133.5t-131.5 -48.5q-71 0 -110.5 43t-35.5 120l22 277
l-56 34l1 12h176l-1 -13z" />
    <glyph glyph-name="Uogonek.sc" horiz-adv-x="534" 
d="M222 -230q-26 0 -45 21.5t-18 53.5q2 40 30.5 79.5t72.5 67.5h-15q-71 0 -110.5 43t-35.5 120l22 277l-56 34l1 12h176l-1 -13l-62 -33l-19 -259q-5 -63 24.5 -98.5t92.5 -35.5q116 0 124 116l20 277l-57 35v11h153l-1 -13l-65 -33l-19 -258q-4 -74 -43 -120.5
t-103 -57.5q-85 -60 -90 -132q-2 -24 11 -42.5t37 -18.5q12 0 41 9l4 -20q-8 -3 -20 -8l-18 -7.5t-14.5 -4.5t-16.5 -2z" />
    <glyph glyph-name="V.sc" horiz-adv-x="503" 
d="M248 8l-43 -21l-118 445l-50 33v13h196l-1 -13l-75 -33h-1l90 -366l160 366l-58 33l1 13h151l-1 -13l-50 -32z" />
    <glyph glyph-name="W.sc" horiz-adv-x="792" 
d="M528 -13l-126 391l-168 -370l-40 -21l-110 445h-1l-48 33v13h177l-1 -13l-68 -33l86 -358l179 404h18l133 -410l132 364h-1l-57 33l2 13h155l-1 -13l-60 -33l-161 -424z" />
    <glyph glyph-name="Wcircumflex.sc" horiz-adv-x="792" 
d="M442 691l95 -166h-20l-95 98l-106 -98h-20l118 166h28zM528 -13l-126 391l-168 -370l-40 -21l-110 445h-1l-48 33v13h177l-1 -13l-68 -33l86 -358l179 404h18l133 -410l132 364h-1l-57 33l2 13h155l-1 -13l-60 -33l-161 -424z" />
    <glyph glyph-name="Wgrave.sc" horiz-adv-x="792" 
d="M389 691l66 -166h-20l-114 142zM528 -13l-126 391l-168 -370l-40 -21l-110 445h-1l-48 33v13h177l-1 -13l-68 -33l86 -358l179 404h18l133 -410l132 364h-1l-57 33l2 13h155l-1 -13l-60 -33l-161 -424z" />
    <glyph glyph-name="Wacute.sc" horiz-adv-x="792" 
d="M397 525l89 166l62 -24l-131 -142h-20zM528 -13l-126 391l-168 -370l-40 -21l-110 445h-1l-48 33v13h177l-1 -13l-68 -33l86 -358l179 404h18l133 -410l132 364h-1l-57 33l2 13h155l-1 -13l-60 -33l-161 -424z" />
    <glyph glyph-name="Wdieresis.sc" horiz-adv-x="792" 
d="M467 571q1 11 14.5 25.5t21.5 14.5q9 0 21.5 -11.5t12.5 -22.5q-2 -12 -15 -25.5t-22 -13.5q-8 0 -21 11.5t-12 21.5zM308 571q2 12 15 26t22 14q8 0 20.5 -11.5t12.5 -22.5q-2 -11 -15.5 -25t-22.5 -14q-8 0 -20 11.5t-12 21.5zM528 -13l-126 391l-168 -370l-40 -21
l-110 445h-1l-48 33v13h177l-1 -13l-68 -33l86 -358l179 404h18l133 -410l132 364h-1l-57 33l2 13h155l-1 -13l-60 -33l-161 -424z" />
    <glyph glyph-name="X.sc" horiz-adv-x="499" 
d="M160 0h-163l1 13l64 29l158 205l-115 185l-57 33l1 13h199l-1 -13l-72 -33h-1l92 -148l110 148l-55 33l2 13h163l-1 -13l-62 -30l-141 -177l133 -214l54 -31l1 -13h-198l1 13l72 32h1l-108 173l-131 -173l54 -32z" />
    <glyph glyph-name="Y.sc" horiz-adv-x="468" 
d="M314 11l-1 -11h-178l1 13l62 32l11 161l-122 226h-1l-46 33v13h182l-2 -13l-66 -33h-2l101 -192l120 192h-2l-54 33l1 13h155l-1 -13l-58 -32l-145 -228l-11 -160z" />
    <glyph glyph-name="Yacute.sc" horiz-adv-x="468" 
d="M207 525l89 166l62 -24l-131 -142h-20zM314 11l-1 -11h-178l1 13l62 32l11 161l-122 226h-1l-46 33v13h182l-2 -13l-66 -33h-2l101 -192l120 192h-2l-54 33l1 13h155l-1 -13l-58 -32l-145 -228l-11 -160z" />
    <glyph glyph-name="Ycircumflex.sc" horiz-adv-x="468" 
d="M295 691l95 -166h-20l-95 98l-106 -98h-20l118 166h28zM314 11l-1 -11h-178l1 13l62 32l11 161l-122 226h-1l-46 33v13h182l-2 -13l-66 -33h-2l101 -192l120 192h-2l-54 33l1 13h155l-1 -13l-58 -32l-145 -228l-11 -160z" />
    <glyph glyph-name="Ydieresis.sc" horiz-adv-x="468" 
d="M317 571q1 11 14.5 25.5t21.5 14.5q9 0 21.5 -11.5t12.5 -22.5q-2 -12 -15 -25.5t-22 -13.5q-8 0 -21 11.5t-12 21.5zM158 571q2 12 15 26t22 14q8 0 20.5 -11.5t12.5 -22.5q-2 -11 -15.5 -25t-22.5 -14q-8 0 -20 11.5t-12 21.5zM314 11l-1 -11h-178l1 13l62 32l11 161
l-122 226h-1l-46 33v13h182l-2 -13l-66 -33h-2l101 -192l120 192h-2l-54 33l1 13h155l-1 -13l-58 -32l-145 -228l-11 -160z" />
    <glyph glyph-name="Ygrave.sc" horiz-adv-x="468" 
d="M276 691l66 -166h-20l-114 142zM314 11l-1 -11h-178l1 13l62 32l11 161l-122 226h-1l-46 33v13h182l-2 -13l-66 -33h-2l101 -192l120 192h-2l-54 33l1 13h155l-1 -13l-58 -32l-145 -228l-11 -160z" />
    <glyph glyph-name="Z.sc" horiz-adv-x="426" 
d="M353 0h-326l1 14l292 438h-166l-73 -89h-19l28 115h303l-1 -16l-293 -436h189l81 97h19z" />
    <glyph glyph-name="Zacute.sc" horiz-adv-x="426" 
d="M179 525l89 166l62 -24l-131 -142h-20zM353 0h-326l1 14l292 438h-166l-73 -89h-19l28 115h303l-1 -16l-293 -436h189l81 97h19z" />
    <glyph glyph-name="Zdotaccent.sc" horiz-adv-x="426" 
d="M209 580q0 13 16 30.5t26 17.5q11 0 26 -14t14 -26q0 -13 -16 -30t-26 -17q-11 0 -26 14t-14 25zM353 0h-326l1 14l292 438h-166l-73 -89h-19l28 115h303l-1 -16l-293 -436h189l81 97h19z" />
    <glyph glyph-name="Zcaron.sc" horiz-adv-x="426" 
d="M379 691l-118 -166h-27l-96 166h20l94 -99l108 99h19zM353 0h-326l1 14l292 438h-166l-73 -89h-19l28 115h303l-1 -16l-293 -436h189l81 97h19z" />
    <glyph glyph-name="AE.sc" horiz-adv-x="634" 
d="M319 253l13 182l-127 -182h114zM111 13l-1 -13h-150l1 13l53 29l290 409l-50 15l1 12h353l-23 -97h-21l-35 69h-135l-15 -199h52l100 7l-10 -39l-91 9h-52l-15 -202h143l68 79h20l-28 -105h-339l-1 13l77 32l14 182h-130l-126 -182h1z" />
    <glyph glyph-name="AEacute.sc" horiz-adv-x="634" 
d="M334 525l89 166l62 -24l-131 -142h-20zM319 253l13 182l-127 -182h114zM111 13l-1 -13h-150l1 13l53 29l290 409l-50 15l1 12h353l-23 -97h-21l-35 69h-135l-15 -199h52l100 7l-10 -39l-91 9h-52l-15 -202h143l68 79h20l-28 -105h-339l-1 13l77 32l14 182h-130l-126 -182
h1z" />
    <glyph glyph-name="Eth.sc" horiz-adv-x="509" 
d="M235 31q147 0 160 180q10 112 -45.5 175.5t-135.5 63.5h-40l-14 -190h134l2 -23h-138l-14 -195q42 -11 91 -11zM22 0l1 13l61 32l14 192h-59l-2 23h63l12 172l-56 34l1 12h174q115 0 174.5 -60t50.5 -179t-78 -179t-185 -60h-171z" />
    <glyph glyph-name="Oslash.sc" horiz-adv-x="523" 
d="M123 269q-17 -134 42 -198l156 361q-25 13 -57 13q-64 0 -96 -39t-45 -137zM252 33q67 0 99.5 39t45.5 137q18 142 -50 205l-157 -364q29 -17 62 -17zM229 -8q-34 0 -60 10l-29 -67h-34l35 81q-47 29 -67.5 90.5t-7.5 149.5q16 103 82.5 166.5t143.5 63.5q28 0 50 -7
l26 61h34l-31 -73q51 -27 74 -90t9 -155q-15 -103 -81.5 -166.5t-143.5 -63.5z" />
    <glyph glyph-name="Oslashacute.sc" horiz-adv-x="523" 
d="M242 525l89 166l62 -24l-131 -142h-20zM123 269q-17 -134 42 -198l156 361q-25 13 -57 13q-64 0 -96 -39t-45 -137zM252 33q67 0 99.5 39t45.5 137q18 142 -50 205l-157 -364q29 -17 62 -17zM229 -8q-34 0 -60 10l-29 -67h-34l35 81q-47 29 -67.5 90.5t-7.5 149.5
q16 103 82.5 166.5t143.5 63.5q28 0 50 -7l26 61h34l-31 -73q51 -27 74 -90t9 -155q-15 -103 -81.5 -166.5t-143.5 -63.5z" />
    <glyph glyph-name="Thorn.sc" horiz-adv-x="415" 
d="M223 153q46 0 69.5 18.5t28.5 60.5q7 49 -23 82.5t-104 33.5q-22 0 -28 -1l-15 -191q34 -3 72 -3zM219 11l2 -11h-199l1 13l61 32l28 387l-57 34l2 12h199l-3 -13l-81 -33l-4 -57h50q87 0 130.5 -32.5t38.5 -78.5q-6 -66 -64.5 -104t-120.5 -38q-16 0 -49 3l-2 29
l-8 -109z" />
    <glyph glyph-name="Dcroat.sc" horiz-adv-x="509" 
d="M235 31q147 0 160 180q10 112 -45.5 175.5t-135.5 63.5h-40l-14 -190h158l-3 -23h-157l-14 -195q42 -11 91 -11zM22 0l1 13l61 32l14 192h-71l3 23h70l12 172l-56 34l1 12h174q115 0 174.5 -60t50.5 -179t-78 -179t-185 -60h-171z" />
    <glyph glyph-name="Hbar.sc" horiz-adv-x="539" 
d="M384 260l7 92h-225l-7 -92h225zM203 11l-1 -11h-180l1 13l61 32l22 307h-52l1 21h53l4 59l-57 34l2 12h181l-1 -13l-65 -33l-4 -59h225l4 59l-63 34l3 12h180l-2 -13l-60 -33l-4 -59h52l1 -21h-55l-23 -307l55 -34l1 -11h-180v13l66 32l14 193h-225l-14 -193z" />
    <glyph glyph-name="IJ.sc" horiz-adv-x="546" 
d="M178 432l-28 -387l54 -34l1 -11h-178v13l62 32l29 387l-58 34l3 12h176l-2 -13zM389 92l25 340l-69 34l1 12h189l-1 -13l-62 -33l-23 -316q-5 -59 -48 -91.5t-102 -32.5q-33 0 -56 9l20 76h18l37 -65q66 13 71 80z" />
    <glyph glyph-name="Ldot.sc" horiz-adv-x="376" 
d="M304 250q0 13 16 30.5t26 17.5q11 0 26 -14t14 -26q0 -13 -16 -30t-26 -17q-11 0 -26 14t-14 25zM27 0l1 13l61 32l29 387l-56 34l1 12h195v-13l-80 -33l-31 -406h145l76 91h20l-32 -117h-329z" />
    <glyph glyph-name="Lslash.sc" horiz-adv-x="403" 
d="M27 0l1 13l61 32l12 166l-55 -22v30l58 23l14 190l-56 34l1 12h195v-13l-80 -33l-13 -166l107 42v-29l-109 -43l-16 -210h145l76 91h20l-32 -117h-329z" />
    <glyph glyph-name="Eng.sc" horiz-adv-x="534" 
d="M298 -138q-37 0 -60 9l20 76h18l37 -65q66 13 71 80l3 40l-238 393l-27 -350l57 -34l-1 -11h-149l1 13l61 32l28 387l-56 34l1 12h109l222 -371l24 325l-56 34l1 12h150l-1 -13l-61 -33l-34 -454q-8 -116 -120 -116z" />
    <glyph glyph-name="OE.sc" horiz-adv-x="669" 
d="M256 33q51 0 83 23l25 344q-36 45 -98 45q-64 0 -96 -39t-45 -137q-14 -113 25 -174.5t106 -61.5zM600 0h-316q-27 -8 -53 -8q-87 0 -133.5 70t-29.5 194q16 103 82.5 166.5t143.5 63.5q30 0 59 -8h290l-23 -97h-20l-34 69h-137l-2 -25l1 -1l-1 -1l-12 -165h51l100 8
l-9 -39l-92 9h-52l-15 -210h144v-1l68 80h18z" />
    </font>
</defs>
</svg>
