<?xml version="1.0" standalone="no"?>
<!DOCTYPE svg PUBLIC "-//W3C//DTD SVG 1.1//EN" "http://www.w3.org/Graphics/SVG/1.1/DTD/svg11.dtd" >
<svg xmlns="http://www.w3.org/2000/svg" xmlns:xlink="http://www.w3.org/1999/xlink" version="1.1">
<metadata>
Created by FontForge 20170731 at Sun Apr  3 01:41:26 2016
 By Aleksey,,,
Universidad Nacional de Colombia, Unidad de Medios de Comunicacio'n (Unimedios), 2012-2015.
</metadata>
<defs>
<font id="AncizarSans-Extrabold" horiz-adv-x="522" >
  <font-face 
    font-family="Ancizar Sans Extrabold"
    font-weight="800"
    font-stretch="normal"
    units-per-em="1000"
    panose-1="2 11 9 2 4 3 0 0 0 3"
    ascent="750"
    descent="-250"
    x-height="450"
    cap-height="612"
    bbox="-63 -265 1384 870"
    underline-thickness="0"
    underline-position="0"
    unicode-range="U+0020-FB04"
  />
<missing-glyph horiz-adv-x="600" 
d="M50 0v703h500v-703h-500zM300 397l170 256h-340zM100 608v-513l170 256zM330 351l170 -256v513zM130 50h340l-170 256z" />
    <glyph glyph-name="f_f" unicode="ff" horiz-adv-x="591" 
d="M214 503v-53h126v41q0 45 12 80q-43 9 -67 9q-32 0 -51.5 -18.5t-19.5 -58.5zM340 0v347h-126v-347h-153v347h-58v93l45 10h13v4q0 59 18.5 105t45.5 72t62 42t63 21.5t54 5.5q67 0 134 -21q55 32 130 32q49 0 80 -9l-28 -113q-25 7 -59 7q-68 0 -68 -84v-62h105
l-10 -103h-95v-347h-153z" />
    <glyph glyph-name="fi" unicode="fi" horiz-adv-x="546" 
d="M343 0v347h-126v-347h-153v347h-61v93l61 10v15q0 58 17.5 103t44.5 71.5t62.5 43.5t67.5 23t64 5q94 3 182 -31l-38 -129q-32 13 -81 23t-81 10q-85 0 -85 -74v-60h147l132 19v-469h-153z" />
    <glyph glyph-name="fl" unicode="fl" horiz-adv-x="573" 
d="M469 -17q-127 0 -127 126v472q-21 3 -40 3q-85 0 -85 -74v-60h86l-11 -103h-75v-347h-153v347h-61v93l61 10v15q0 58 17.5 103t44.5 71.5t62.5 43.5t67.5 23t64 5q79 3 146 -21l30 4v-551q0 -35 35 -35q11 0 34 5l10 -112q-50 -18 -106 -18z" />
    <glyph glyph-name="f_f_i" unicode="ffi" horiz-adv-x="822" 
d="M214 503v-53h126v15q0 58 18 105q-43 10 -73 10q-32 0 -51.5 -18.5t-19.5 -58.5zM340 0v347h-126v-347h-153v347h-58v93l45 10h13v4q0 59 18.5 105t45.5 72t62 42t63 21.5t54 5.5q74 0 145 -25q65 38 147 36q95 3 181 -31l-37 -129q-32 13 -81 23t-81 10q-85 0 -85 -74
v-60h147l132 19v-469h-153v347h-126v-347h-153z" />
    <glyph glyph-name="f_f_l" unicode="ffl" horiz-adv-x="850" 
d="M214 503v-53h126v15q0 58 18 105q-43 10 -73 10q-32 0 -51.5 -18.5t-19.5 -58.5zM745 -17q-127 0 -127 126v472q-21 3 -40 3q-85 0 -85 -74v-60h85l-10 -103h-75v-347h-153v347h-126v-347h-153v347h-58v93l45 10h13v4q0 59 18.5 105t45.5 72t62 42t63 21.5t54 5.5
q74 0 145 -25q65 38 147 36q79 3 146 -21l30 4v-551q0 -35 35 -35q11 0 34 5l10 -112q-50 -18 -106 -18z" />
    <glyph glyph-name=".notdef" horiz-adv-x="600" 
d="M50 0v703h500v-703h-500zM300 397l170 256h-340zM100 608v-513l170 256zM330 351l170 -256v513zM130 50h340l-170 256z" />
    <glyph glyph-name=".null" horiz-adv-x="0" 
 />
    <glyph glyph-name="nonmarkingreturn" horiz-adv-x="333" 
 />
    <glyph glyph-name="space" unicode=" " horiz-adv-x="218" 
 />
    <glyph glyph-name="exclam" unicode="!" horiz-adv-x="321" 
d="M218 181l-115 -19q-2 310 -21 450l150 31q-14 -362 -14 -462zM73 45q0 22 34 53t54 31q19 0 53 -29t34 -50q0 -18 -33.5 -46.5t-51.5 -28.5q-19 0 -54.5 27t-35.5 43z" />
    <glyph glyph-name="quotedbl" unicode="&#x22;" horiz-adv-x="371" 
d="M214 444l-15 249h139l-20 -249h-104zM53 444l-20 249h139l-15 -249h-104z" />
    <glyph glyph-name="numbersign" unicode="#" horiz-adv-x="612" 
d="M344 247l25 102h-112l-25 -102h112zM284 0l42 173h-112l-42 -173h-85l42 173h-113v15l33 59h98l25 102h-126v15l33 59h111l46 189h85l-46 -189h112l46 189h85l-46 -189h121v-15l-33 -59h-106l-25 -102h134v-15l-33 -59h-119l-42 -173h-85z" />
    <glyph glyph-name="dollar" unicode="$" horiz-adv-x="548" 
d="M326 -148h-113l11 131q-104 3 -170 31l24 141q109 -48 189 -48q31 0 48 16t17 41q0 26 -18.5 43t-73.5 35q-97 35 -137.5 79.5t-40.5 111.5q0 72 43.5 122.5t122.5 66.5l-11 131h113l-11 -124q94 -3 157 -28l-32 -132q-92 38 -174 38q-27 0 -42.5 -14.5t-15.5 -36.5
q0 -25 18 -42t77 -37q98 -32 140 -72.5t42 -110.5q0 -79 -47 -132.5t-128 -71.5z" />
    <glyph glyph-name="percent" unicode="%" horiz-adv-x="686" 
d="M334 483q0 -71 -45 -117t-115 -46q-67 0 -105.5 39t-38.5 110q0 69 45.5 115t115.5 46q66 0 104.5 -38t38.5 -109zM33 0l512 612h106l-513 -612h-105zM239 475q0 87 -64 87q-51 0 -51 -85q0 -88 65 -88q50 0 50 86zM656 146q0 -71 -45.5 -117t-115.5 -46q-67 0 -105 39
t-38 110q0 69 45 115t115 46q66 0 105 -38t39 -109zM561 138q0 87 -65 87q-50 0 -50 -85q0 -87 64 -87q51 0 51 85z" />
    <glyph glyph-name="ampersand" unicode="&#x26;" horiz-adv-x="641" 
d="M662 8l-142 -40q-41 30 -85 70q-92 -54 -199 -54q-101 -1 -162 45t-61 129q0 100 120 171q-70 67 -70 134q0 72 60 118.5t161 45.5q93 0 164 -27l-43 -116q-72 30 -139 29q-32 -1 -44.5 -12t-12.5 -31q0 -21 25 -49.5t97 -87.5q40 -32 119 -113q15 33 15 76q0 63 -30 98
l135 46q36 -51 36 -136q0 -92 -66 -174q97 -95 122 -100v-22zM277 97q37 0 78 22q-6 6 -46.5 48t-67.5 67q-7 6 -19.5 17.5t-18.5 16.5q-38 -33 -38 -77q0 -38 28 -66t84 -28z" />
    <glyph glyph-name="quotesingle" unicode="'" horiz-adv-x="205" 
d="M52 444l-19 249h139l-19 -249h-101z" />
    <glyph glyph-name="parenleft" unicode="(" horiz-adv-x="337" 
d="M339 -96l-57 -56q-103 64 -160.5 186t-57.5 261q0 135 57.5 253.5t160.5 193.5l57 -57q-84 -69 -133 -174.5t-49 -215.5q0 -120 47.5 -221.5t134.5 -169.5z" />
    <glyph glyph-name="parenright" unicode=")" horiz-adv-x="337" 
d="M-2 686l57 56q103 -64 160.5 -186t57.5 -261q0 -135 -57.5 -253.5t-160.5 -193.5l-57 57q84 69 133 174.5t49 215.5q0 120 -47.5 221.5t-134.5 169.5z" />
    <glyph glyph-name="asterisk" unicode="*" horiz-adv-x="393" 
d="M212 683q13 -25 13 -73q0 -38 -9 -69l-32 -4q-8 73 -49 124zM356 584q-49 -56 -120 -71l-19 20q44 31 83 105zM54 605q80 -12 124 -67l-9 -29q-51 22 -130 18zM342 410q-49 9 -74 24.5t-48 44.5l8 27q58 -24 135 -19zM45 435q21 23 41 37t33.5 19.5t42.5 14.5l20 -26
q-45 -33 -79 -99zM185 336q-11 27 -11 73q0 31 9 65l29 6q11 -73 51 -125z" />
    <glyph glyph-name="plus" unicode="+" horiz-adv-x="548" 
d="M475 220h-152v-154h-99v154h-151v93h151v150h99v-150h152v-93z" />
    <glyph glyph-name="comma" unicode="," horiz-adv-x="243" 
d="M40 71q0 26 24.5 48.5t50.5 22.5q29 0 60 -30t31 -70q0 -63 -91 -200l-78 29q46 89 51 116q2 10 2 19q0 7 -25 28.5t-25 36.5z" />
    <glyph glyph-name="hyphen" unicode="-" horiz-adv-x="348" 
d="M312 292v-25l-26 -71h-249v25l33 71h242z" />
    <glyph glyph-name="period" unicode="." horiz-adv-x="243" 
d="M28 55q0 23 33 54t56 31q24 0 61.5 -25t37.5 -48t-33.5 -53.5t-55.5 -30.5q-25 0 -62 25t-37 47z" />
    <glyph glyph-name="slash" unicode="/" horiz-adv-x="371" 
d="M43 -110l194 803h90l-194 -803h-90z" />
    <glyph glyph-name="zero" unicode="0" horiz-adv-x="548" 
d="M534 318q0 -161 -74 -248t-207 -87q-126 0 -182.5 78t-56.5 233q0 161 73.5 248t206.5 87q126 0 183 -78.5t57 -232.5zM370 306q0 129 -25 174.5t-83 45.5q-44 0 -63.5 -46.5t-19.5 -173.5q0 -89 11.5 -137t32.5 -65t60 -17q45 0 66 46.5t21 172.5z" />
    <glyph glyph-name="one" unicode="1" horiz-adv-x="548" 
d="M391 0h-151v487l-128 -56l-34 108q51 16 222 73h91v-612z" />
    <glyph glyph-name="two" unicode="2" horiz-adv-x="548" 
d="M475 0h-426v96q79 72 125.5 118t90 106t43.5 99q0 44 -27 67.5t-66 23.5q-65 0 -140 -34l-34 107q115 46 216 46q99 0 159 -47t60 -127q0 -82 -61 -162t-184 -181l265 12z" />
    <glyph glyph-name="three" unicode="3" horiz-adv-x="548" 
d="M228 -17q-86 0 -173 26l29 116q93 -29 147 -29q57 0 83 17.5t26 58.5q0 35 -28 60t-80 25q-19 0 -73 -3l-14 98q83 0 129.5 24.5t46.5 65.5q0 30 -21.5 51t-60.5 21q-74 0 -136 -31l-31 102q37 17 98.5 30.5t112.5 13.5q78 0 137 -37t59 -109q0 -49 -32 -88t-83 -62
q133 -28 133 -147q0 -87 -77.5 -145t-191.5 -58z" />
    <glyph glyph-name="four" unicode="4" horiz-adv-x="548" 
d="M319 207v229l-164 -229h164zM519 96h-59v-96h-141v96h-301v109l316 419h126v-417h95z" />
    <glyph glyph-name="five" unicode="5" horiz-adv-x="548" 
d="M196 -17q-73 0 -157 22l29 115q33 -12 81 -21.5t80 -9.5q53 0 81.5 21.5t28.5 57.5q0 46 -37.5 74.5t-118.5 28.5q-29 0 -103 -7l22 348h375l-18 -121h-239l-7 -107q28 2 47 2q98 0 166 -50.5t68 -137.5q0 -92 -81 -153.5t-217 -61.5z" />
    <glyph glyph-name="six" unicode="6" horiz-adv-x="548" 
d="M519 210q0 -97 -71 -162t-184 -65q-111 0 -174 74.5t-63 206.5q0 178 86 271.5t230 93.5q65 0 147 -19l-26 -125q-24 11 -66.5 19.5t-74.5 8.5q-56 0 -87.5 -29.5t-42.5 -112.5q61 24 118 24q98 0 153 -48t55 -137zM290 85q71 0 71 93q0 49 -22 81t-69 32q-42 0 -83 -16
v-18q0 -172 103 -172z" />
    <glyph glyph-name="seven" unicode="7" horiz-adv-x="548" 
d="M280 -13l-158 43q71 170 223 460l-305 -5l24 128h445v-100q-40 -81 -118 -260t-111 -266z" />
    <glyph glyph-name="eight" unicode="8" horiz-adv-x="548" 
d="M256 -17q-101 0 -162.5 42t-61.5 112q0 52 31 90t92 72q-98 64 -98 153q0 80 66 129t177 49q80 0 135.5 -38.5t55.5 -99.5q0 -83 -107 -148q79 -42 105 -79t26 -90q0 -74 -73 -133t-186 -59zM194 476q0 -27 22.5 -46t85.5 -47q60 45 60 90q0 25 -27.5 43t-64.5 18
q-43 0 -59.5 -14t-16.5 -44zM281 82q94 0 94 70q0 27 -25.5 47t-100.5 51l-12 6q-35 -24 -50 -44t-15 -52q0 -31 31 -54.5t78 -23.5z" />
    <glyph glyph-name="nine" unicode="9" horiz-adv-x="548" 
d="M280 322q45 0 79 16v25q0 79 -29 122.5t-72 43.5q-36 0 -52.5 -22t-16.5 -72q0 -49 22 -81t69 -32zM185 -17q-75 0 -145 22l19 113q74 -25 147 -25q111 0 142 147q-51 -22 -102 -22q-110 0 -162.5 53.5t-52.5 141.5q0 94 64.5 156t180.5 62q123 0 182 -74t59 -208
q0 -87 -27 -157.5t-73 -115.5t-105.5 -69t-126.5 -24z" />
    <glyph glyph-name="colon" unicode=":" horiz-adv-x="243" 
d="M28 335q0 23 33 54t56 31q24 0 61.5 -25t37.5 -48t-33.5 -53.5t-55.5 -30.5q-25 0 -62 25t-37 47zM28 55q0 23 33 54t56 31q24 0 61.5 -25t37.5 -48t-33.5 -53.5t-55.5 -30.5q-25 0 -62 25t-37 47z" />
    <glyph glyph-name="semicolon" unicode=";" horiz-adv-x="243" 
d="M28 335q0 23 33 54t56 31q24 0 61.5 -25t37.5 -48t-33.5 -53.5t-55.5 -30.5q-25 0 -62 25t-37 47zM37 71q0 26 24.5 48.5t50.5 22.5q29 0 60 -30t31 -70q0 -63 -91 -200l-78 29q46 89 51 116q2 10 2 19q0 7 -25 28.5t-25 36.5z" />
    <glyph glyph-name="equal" unicode="=" horiz-adv-x="548" 
d="M455 385v-15l-26 -77h-336v15l26 77h336zM455 237v-15l-26 -78h-336v15l26 78h336z" />
    <glyph glyph-name="question" unicode="?" horiz-adv-x="445" 
d="M281 193l-132 -32q-37 47 -37 77q0 29 13.5 49t53.5 53q44 37 61 62t17 61q0 22 -21.5 42.5t-49.5 20.5q-29 0 -50.5 -9t-67.5 -37l-47 104q107 57 195 57q87 0 144 -46t57 -120q0 -67 -104 -150q-31 -25 -43.5 -40t-12.5 -30q0 -14 24 -62zM122 40q0 23 32 54t54 31
q18 0 51 -28.5t33 -51.5t-33.5 -53.5t-51.5 -30.5q-22 0 -53.5 28.5t-31.5 50.5z" />
    <glyph glyph-name="at" unicode="@" horiz-adv-x="897" 
d="M412 -151q-46 0 -93 11t-97 38.5t-88.5 68.5t-63 108.5t-24.5 151.5q0 107 40.5 194.5t106 140.5t142 81.5t154.5 28.5q160 0 261 -76.5t101 -211.5q0 -124 -92.5 -215t-227.5 -115l-18 105q-57 -95 -122 -95q-50 0 -85 42.5t-35 133.5q0 43 13.5 83.5t39.5 76t72 56.5
t105 21q44 0 127 -25v-287q98 65 98 201q0 96 -67 146t-180 50q-147 0 -224.5 -85t-77.5 -233q0 -77 25 -134t67 -87.5t87 -45t94 -14.5q86 0 186 40l32 -100q-126 -54 -256 -54zM436 157q14 0 27 8.5t27 39.5t19 83v106q-16 3 -38 3q-44 0 -60 -37t-16 -107
q0 -49 12.5 -72.5t28.5 -23.5z" />
    <glyph glyph-name="A" unicode="A" horiz-adv-x="593" 
d="M361 246l-70 232l-72 -232h142zM435 0l-42 138h-207l-43 -138h-148l204 612h207l192 -612h-163z" />
    <glyph glyph-name="B" unicode="B" horiz-adv-x="553" 
d="M225 358q124 0 124 70q0 84 -130 84v-154h6zM283 103q98 0 98 73q0 43 -34 67t-100 24q-19 0 -28 -1v-161q40 -2 64 -2zM60 0v612h214q227 0 227 -145q0 -87 -92 -137q57 -14 94 -51.5t37 -96.5q0 -84 -76 -133t-208 -49h-196z" />
    <glyph glyph-name="C" unicode="C" horiz-adv-x="556" 
d="M512 138l16 -114q-29 -17 -83.5 -29t-114.5 -12q-131 0 -215.5 81t-84.5 231q0 147 89.5 240.5t242.5 93.5q91 0 166 -25l-28 -127q-79 27 -155 27q-153 0 -153 -188q0 -56 17.5 -98t46 -64t58 -32t59.5 -10q79 0 139 26z" />
    <glyph glyph-name="D" unicode="D" horiz-adv-x="646" 
d="M60 612h253q138 0 220.5 -74t82.5 -218q0 -157 -100.5 -243t-261.5 -86q-92 0 -194 14v607zM219 500v-386q22 -5 60 -5q175 0 175 188q0 105 -53.5 154t-131.5 49h-50z" />
    <glyph glyph-name="E" unicode="E" horiz-adv-x="492" 
d="M60 0v612h390l-14 -118l-217 2v-129h203l-10 -111l-193 2v-140l247 3l-14 -121h-392z" />
    <glyph glyph-name="F" unicode="F" horiz-adv-x="481" 
d="M410 244l-191 3v-247h-159v612h390l-14 -118l-217 3v-142h203z" />
    <glyph glyph-name="G" unicode="G" horiz-adv-x="600" 
d="M549 24q-120 -41 -210 -41q-138 0 -223.5 78t-85.5 229q0 161 98 250t246 89q51 0 102 -10t78 -22l-32 -125q-29 14 -75 25t-83 11q-87 0 -129.5 -46.5t-42.5 -145.5q0 -63 16.5 -107t44.5 -64.5t54.5 -28.5t56.5 -8q20 0 48 2l-1 194h138v-280z" />
    <glyph glyph-name="H" unicode="H" horiz-adv-x="655" 
d="M436 0v250h-217v-250h-159v612h159v-236h217v236h159v-612h-159z" />
    <glyph glyph-name="I" unicode="I" horiz-adv-x="279" 
d="M219 612v-612h-159v612h159z" />
    <glyph glyph-name="J" unicode="J" horiz-adv-x="385" 
d="M319 612v-428q0 -99 -58 -150t-151 -51q-68 0 -107 18l22 121q43 -16 75 -16q60 0 60 68v438h159z" />
    <glyph glyph-name="K" unicode="K" horiz-adv-x="613" 
d="M616 0h-191l-206 318l205 294h177l-223 -279zM219 612v-612h-159v612h159z" />
    <glyph glyph-name="L" unicode="L" horiz-adv-x="474" 
d="M60 0v612h159v-494l243 3l-15 -121h-387z" />
    <glyph glyph-name="M" unicode="M" horiz-adv-x="867" 
d="M357 0l-135 402l-33 -402h-148l72 612h183l140 -404l147 404h175l68 -612h-156l-32 403l-143 -403h-138z" />
    <glyph glyph-name="N" unicode="N" horiz-adv-x="655" 
d="M451 0l-249 368v-368h-142v612h158l235 -358v358h142v-612h-144z" />
    <glyph glyph-name="O" unicode="O" horiz-adv-x="682" 
d="M652 318q0 -154 -92 -244.5t-243 -90.5q-131 0 -209 83t-78 228q0 154 92.5 244.5t243.5 90.5q131 0 208.5 -83.5t77.5 -227.5zM489 290q0 224 -165 224q-131 0 -131 -192q0 -224 166 -224q130 0 130 192z" />
    <glyph glyph-name="P" unicode="P" horiz-adv-x="534" 
d="M251 318q109 0 109 92q0 99 -127 99h-14v-191h32zM247 210q-18 0 -28 1v-211h-159v612h231q109 0 170 -48.5t61 -135.5q0 -102 -78.5 -160t-196.5 -58z" />
    <glyph glyph-name="Q" unicode="Q" horiz-adv-x="682" 
d="M652 318q0 -154 -92 -244.5t-243 -90.5q-131 0 -209 83t-78 228q0 154 92.5 244.5t243.5 90.5q131 0 208.5 -83.5t77.5 -227.5zM489 290q0 224 -165 224q-131 0 -131 -192q0 -224 166 -224q130 0 130 192zM117 -73q71 40 129 40q48 0 143 -22.5t159 -22.5q62 0 101 37
v-124q-19 -16 -53 -28.5t-65 -12.5q-58 0 -157.5 36t-125.5 36q-44 0 -98 -41z" />
    <glyph glyph-name="R" unicode="R" horiz-adv-x="568" 
d="M272 333q36 0 61 19.5t25 56.5q0 100 -125 100h-14v-173q21 -3 53 -3zM246 233q-17 0 -27 1v-234h-159v612h236q105 0 164 -45t59 -127q0 -102 -102 -162l148 -278h-172l-111 235q-24 -2 -36 -2z" />
    <glyph glyph-name="S" unicode="S" horiz-adv-x="494" 
d="M218 242q-97 35 -137.5 79.5t-40.5 111.5q0 88 63.5 142t175.5 54q105 0 175 -28l-32 -132q-92 38 -174 38q-27 0 -42.5 -14.5t-15.5 -36.5q0 -25 18 -42t77 -37q98 -32 140 -72.5t42 -110.5q0 -96 -68.5 -153.5t-177.5 -57.5q-112 0 -189 31l24 141q109 -48 189 -48
q31 0 48 16t17 41q0 26 -18.5 43t-73.5 35z" />
    <glyph glyph-name="T" unicode="T" horiz-adv-x="517" 
d="M505 491l-165 3v-494h-158v494l-187 -3l18 121h509z" />
    <glyph glyph-name="U" unicode="U" horiz-adv-x="635" 
d="M54 209v403h159v-372q0 -122 119 -122q42 0 68.5 23t26.5 66v405h154v-386q0 -114 -74 -179.5t-200 -63.5q-126 1 -189.5 59.5t-63.5 166.5z" />
    <glyph glyph-name="V" unicode="V" horiz-adv-x="591" 
d="M392 0h-202l-204 612h169l147 -453l139 453h163z" />
    <glyph glyph-name="W" unicode="W" horiz-adv-x="900" 
d="M565 0l-117 367l-123 -367h-180l-130 612h160l84 -414l129 414h143l128 -411l79 411h147l-137 -612h-183z" />
    <glyph glyph-name="X" unicode="X" horiz-adv-x="592" 
d="M411 0l-128 195l-108 -195h-177l200 324l-189 288h182l116 -177l101 177h177l-194 -304l203 -308h-183z" />
    <glyph glyph-name="Y" unicode="Y" horiz-adv-x="557" 
d="M357 217v-217h-158v217l-214 395h174l128 -241l128 241h155z" />
    <glyph glyph-name="Z" unicode="Z" horiz-adv-x="525" 
d="M491 0h-462v103l274 388l-276 -5l22 126h439v-104l-273 -389l299 5z" />
    <glyph glyph-name="bracketleft" unicode="[" horiz-adv-x="337" 
d="M322 -59v-73h-219v855h219v-73h-127v-709h127z" />
    <glyph glyph-name="backslash" unicode="\" horiz-adv-x="371" 
d="M133 693l194 -803h-90l-194 803h90z" />
    <glyph glyph-name="bracketright" unicode="]" horiz-adv-x="337" 
d="M234 -132h-219v73h127v709h-127v73h219v-855z" />
    <glyph glyph-name="underscore" unicode="_" horiz-adv-x="440" 
d="M440 -101v-88h-440v88h440z" />
    <glyph glyph-name="grave" unicode="`" horiz-adv-x="357" 
d="M319 503h-125l-156 138l152 27z" />
    <glyph glyph-name="a" unicode="a" horiz-adv-x="466" 
d="M317 -17l-28 46q-69 -46 -126 -46q-62 0 -102 37t-40 98q0 146 250 160v4q0 37 -16 51.5t-51 14.5q-57 0 -139 -30l-27 106q122 43 212 43q171 0 171 -157v-306zM214 86q21 0 57 15v83q-23 4 -46 4q-69 0 -69 -50q0 -22 15 -37t43 -15z" />
    <glyph glyph-name="b" unicode="b" horiz-adv-x="535" 
d="M270 94q88 0 88 133q0 69 -29 99t-71 30q-27 0 -60 -12v-239q40 -11 72 -11zM285 -17q-70 0 -150 18l-35 -25l-55 12v685l153 21v-265q72 39 128 38q81 -2 134.5 -59.5t53.5 -171.5q0 -119 -71 -186t-158 -67z" />
    <glyph glyph-name="c" unicode="c" horiz-adv-x="425" 
d="M390 120l15 -105q-77 -32 -153 -32q-98 0 -165 56.5t-67 167.5q0 125 72 192.5t179 67.5q81 0 135 -25l-27 -115q-17 9 -51.5 17t-53.5 7q-50 1 -74.5 -27.5t-24.5 -92.5q0 -67 34.5 -98.5t82.5 -31.5q51 0 98 19z" />
    <glyph glyph-name="d" unicode="d" horiz-adv-x="536" 
d="M278 95q30 0 60 11v239q-39 11 -73 11q-87 0 -87 -133q0 -69 29 -98.5t71 -29.5zM381 -17l-30 45q-77 -46 -141 -45q-81 2 -134 59.5t-53 171.5q0 62 21 112t55 79.5t73 45.5t79 16q44 0 87 -5v211l153 21v-690z" />
    <glyph glyph-name="e" unicode="e" horiz-adv-x="462" 
d="M229 372q-27 0 -41 -19t-18 -67h126q0 86 -67 86zM436 26q-83 -43 -194 -43q-96 0 -159 56t-63 173q0 118 62.5 186.5t169.5 68.5q181 0 181 -199q0 -36 -6 -68h-257q13 -102 106 -102q65 0 137 26z" />
    <glyph glyph-name="f" unicode="f" horiz-adv-x="315" 
d="M312 347h-95v-347h-153v347h-61v93l61 10v41q0 109 66.5 164.5t162.5 55.5q50 0 79 -9l-28 -113q-25 7 -59 7q-68 0 -68 -84v-62h106z" />
    <glyph glyph-name="g" unicode="g" horiz-adv-x="468" 
d="M266 305q0 78 -65 78q-24 0 -33.5 -15t-9.5 -54q0 -78 65 -78q22 0 32.5 16t10.5 53zM458 -19q0 -86 -78.5 -147.5t-196.5 -61.5q-94 0 -141 34t-47 84q0 9 2 18.5t4.5 16t8 14t9 12t10 11t9.5 8.5t10 7.5t8 6.5l33 22q-46 24 -46 73q0 43 55 90q-86 37 -86 131
q0 76 56.5 121.5t159.5 45.5q70 0 117 -29q118 31 120 29v-118h-19l-40 7q5 -20 5 -38q0 -75 -58.5 -121.5t-152.5 -46.5h-17q-7 -10 -7 -22q0 -24 46 -25l104 -5q67 -4 99.5 -30.5t32.5 -86.5zM220 -122q44 0 71.5 19t27.5 45q0 30 -56 34l-91 8h-3l-2 -4q-32 -32 -32 -52
q0 -21 21 -35.5t64 -14.5z" />
    <glyph glyph-name="h" unicode="h" horiz-adv-x="527" 
d="M258 355q-34 0 -60 -16v-339h-153v673l153 21v-262q76 35 133 35q70 0 108 -35.5t38 -103.5v-328h-153v282q0 45 -18.5 59t-47.5 14z" />
    <glyph glyph-name="i" unicode="i" horiz-adv-x="243" 
d="M31 596q0 24 31 58t55 34t60 -27.5t36 -51.5t-32 -57.5t-54 -33.5q-25 0 -60.5 27.5t-35.5 50.5zM45 448l153 21v-469h-153v448z" />
    <glyph glyph-name="j" unicode="j" horiz-adv-x="243" 
d="M36 596q0 24 31 58t55 34t59.5 -27.5t35.5 -51.5t-31.5 -57.5t-54.5 -33.5q-24 0 -59.5 27.5t-35.5 50.5zM45 -23v471l153 19v-472q0 -98 -54 -162.5t-162 -64.5l-25 118q88 6 88 91z" />
    <glyph glyph-name="k" unicode="k" horiz-adv-x="511" 
d="M45 0v678l153 16v-694h-153zM511 0h-170l-142 243l-1 1l148 206h158l-151 -198z" />
    <glyph glyph-name="l" unicode="l" horiz-adv-x="267" 
d="M258 113l10 -112q-50 -18 -106 -18q-127 0 -127 126v566l154 19v-551q0 -35 35 -35q12 0 34 5z" />
    <glyph glyph-name="m" unicode="m" horiz-adv-x="793" 
d="M259 355q-33 0 -61 -16v-339h-153v446l109 21l27 -43q82 43 152 43q78 0 114 -45q84 45 158 45q65 0 103.5 -34t38.5 -104v-329h-153v282q0 43 -17 58t-46 15q-28 0 -56 -14v-12v-329h-152v282q0 43 -17.5 58t-46.5 15z" />
    <glyph glyph-name="n" unicode="n" 
d="M257 355q-33 0 -59 -16v-339h-153v446l109 21l27 -43q82 43 150 43q65 0 105.5 -34.5t40.5 -103.5v-329h-153v282q0 73 -67 73z" />
    <glyph glyph-name="o" unicode="o" 
d="M500 234q0 -115 -69.5 -183t-184.5 -67q-103 -1 -163 57t-60 175q0 115 69 183t183 68q107 0 166 -57.5t59 -175.5zM344 213q0 86 -24.5 117.5t-68.5 31.5q-36 0 -54.5 -25.5t-18.5 -99.5q0 -86 25 -117.5t69 -31.5q35 0 53.5 25.5t18.5 99.5z" />
    <glyph glyph-name="p" unicode="p" horiz-adv-x="536" 
d="M271 94q87 0 87 133q0 69 -29 99t-71 30q-27 0 -60 -12v-239q40 -11 73 -11zM198 -214l-153 -21v681l107 21l28 -49q80 50 146 49q81 -2 134.5 -59.5t53.5 -171.5q0 -119 -71 -186t-158 -67q-44 0 -87 5v-202z" />
    <glyph glyph-name="q" unicode="q" horiz-adv-x="535" 
d="M337 -228v250q-70 -38 -127 -37q-80 1 -133.5 59t-53.5 172q0 62 21 112t55 79.5t73 45.5t79 16q70 0 152 -18l32 23l54 -12v-670zM278 96q26 0 59 12v240q-42 10 -70 10q-89 0 -89 -133q0 -70 29 -99.5t71 -29.5z" />
    <glyph glyph-name="r" unicode="r" horiz-adv-x="341" 
d="M281 337q-47 0 -83 -13v-324h-153v446l109 21l33 -52q64 52 116 52q19 0 43 -4l-18 -130q-14 4 -47 4z" />
    <glyph glyph-name="s" unicode="s" horiz-adv-x="415" 
d="M197 -17q-99 0 -178 30l29 116q97 -37 160 -37q42 0 42 25q0 11 -1 17t-11.5 16.5t-31.5 17.5l-73 22q-54 18 -78.5 48t-24.5 79q0 65 55.5 107.5t139.5 42.5q88 0 159 -21l-23 -115q-79 31 -144 31q-46 0 -46 -29q0 -28 47 -42l74 -22q104 -32 104 -131q0 -53 -35 -90
t-78 -51t-86 -14z" />
    <glyph glyph-name="t" unicode="t" horiz-adv-x="364" 
d="M348 15q-70 -32 -139 -32q-63 0 -106 34.5t-42 105.5l3 224h-63v93l64 10l1 83l152 20l-1 -103h135l-10 -103h-127l-2 -164q-1 -42 13.5 -61t47.5 -19q30 0 64 12z" />
    <glyph glyph-name="u" unicode="u" 
d="M373 -17l-32 42q-84 -42 -150 -42q-65 0 -105.5 34.5t-40.5 103.5v325l153 21v-299q0 -43 18.5 -58t47.5 -15q34 0 60 16v335l153 21v-463z" />
    <glyph glyph-name="v" unicode="v" horiz-adv-x="483" 
d="M338 0h-200l-138 441l159 20l87 -332l89 321h149z" />
    <glyph glyph-name="w" unicode="w" horiz-adv-x="734" 
d="M446 0l-80 251l-91 -251h-158l-113 441l154 20l62 -306l83 286l136 20l91 -304l55 293h145l-124 -450h-160z" />
    <glyph glyph-name="x" unicode="x" horiz-adv-x="482" 
d="M310 0l-82 116l-75 -116h-161l161 222l-155 219l163 20l87 -122l76 111h161l-162 -215l167 -235h-180z" />
    <glyph glyph-name="y" unicode="y" horiz-adv-x="483" 
d="M89 -238q-41 0 -71 8l-6 118q77 -10 123 14t73 93q0 1 1 2.5t1 2.5h-70l-145 441l160 20l95 -328q41 149 80 317h151q-3 -11 -24.5 -88.5t-41 -145.5t-43 -145.5t-37.5 -114.5q-33 -97 -97 -145.5t-149 -48.5z" />
    <glyph glyph-name="z" unicode="z" horiz-adv-x="432" 
d="M405 0h-381v99l193 239l-196 1l10 111h367v-107l-194 -236h211z" />
    <glyph glyph-name="braceleft" unicode="{" horiz-adv-x="337" 
d="M65 336q35 -2 55 16t20 46q0 23 -9.5 94t-9.5 120q0 60 53 95t135 35v-77q-38 0 -65 -17.5t-27 -50.5q0 -37 7.5 -111t7.5 -101q0 -34 -20.5 -58.5t-49.5 -32.5q29 -8 49.5 -32.5t20.5 -58.5q0 -27 -7.5 -101t-7.5 -110q0 -33 27 -50.5t65 -17.5v-76q-82 0 -135 35
t-53 95q0 49 9.5 119t9.5 93q0 28 -20 46t-55 16v84z" />
    <glyph glyph-name="bar" unicode="|" horiz-adv-x="338" 
d="M122 -220v913h94v-913h-94z" />
    <glyph glyph-name="braceright" unicode="}" horiz-adv-x="337" 
d="M175 297q-29 8 -49.5 32.5t-20.5 58.5q0 28 7.5 101t7.5 110q0 33 -27 50.5t-65 17.5v76q82 0 135 -35t53 -95q0 -49 -9.5 -119t-9.5 -93q0 -28 20 -46t55 -16v-84q-35 2 -55 -16t-20 -46q0 -23 9.5 -94t9.5 -120q0 -60 -53 -95t-135 -35v77q38 0 65 17.5t27 50.5
q0 37 -7.5 110.5t-7.5 101.5q0 34 20.5 58.5t49.5 32.5z" />
    <glyph glyph-name="exclamdown" unicode="&#xa1;" horiz-adv-x="321" 
d="M248 408q0 -22 -34 -53t-54 -31q-19 0 -53 29t-34 50q0 18 33.5 46.5t51.5 28.5q19 0 54.5 -27t35.5 -43zM103 272l115 19q2 -310 21 -450l-150 -31q14 362 14 462z" />
    <glyph glyph-name="cent" unicode="&#xa2;" horiz-adv-x="548" 
d="M467 95q-50 -21 -109 -29l13 -134h-115l16 134q-83 11 -136.5 67t-53.5 154q0 105 52.5 170t136.5 83l-14 133h115l-13 -127q62 -2 109 -24l-27 -115q-17 9 -51.5 17t-53.5 7q-50 1 -74.5 -27.5t-24.5 -92.5q0 -67 34.5 -98.5t82.5 -31.5q51 0 98 19z" />
    <glyph glyph-name="sterling" unicode="&#xa3;" horiz-adv-x="548" 
d="M508 125l-20 -125h-421h-1l-26 99q55 9 79 26.5t24 61.5q0 21 -9 68h-94v13l16 61l38 19h20q-8 40 -8 70q0 94 64 152.5t165 58.5q89 0 150 -28l-38 -112l-31.5 10.5t-29 9t-26 5t-34.5 2.5q-30 0 -51 -18t-21 -55q0 -31 8 -95h171l-26 -93h-131q5 -35 5 -56
q0 -45 -31 -85z" />
    <glyph glyph-name="section" unicode="&#xa7;" horiz-adv-x="481" 
d="M161 311q0 -22 16.5 -36.5t53.5 -29.5q43 4 66 20t23 40q0 22 -16.5 36.5t-53.5 29.5q-43 -3 -66 -19.5t-23 -40.5zM209 -103q-93 0 -155 32l38 113q7 -3 33 -12.5t37 -13.5t29.5 -8t31.5 -4q54 0 56 39q0 37 -50 54l-69 24q-73 25 -109 60t-36 99q0 100 106 151
q-66 44 -66 118q0 73 62.5 122t154.5 49q94 0 154 -31l-38 -113q-9 3 -33 12t-36 13t-30 8t-31 4q-54 0 -56 -39q0 -38 50 -54l69 -24q73 -25 109 -60t36 -100q0 -99 -105 -150q65 -46 65 -118q0 -73 -62.5 -122t-154.5 -49z" />
    <glyph glyph-name="dieresis" unicode="&#xa8;" horiz-adv-x="532" 
d="M282 580q0 21 28 51.5t49 30.5q23 0 54.5 -25t31.5 -48q0 -21 -28.5 -51t-48.5 -30q-22 0 -54 25t-32 47zM87 580q0 21 27.5 51.5t48.5 30.5q23 0 54.5 -25t31.5 -48q0 -21 -28 -51t-48 -30q-23 0 -54.5 25t-31.5 47z" />
    <glyph glyph-name="copyright" unicode="&#xa9;" horiz-adv-x="644" 
d="M46 259q0 125 81 200.5t195 75.5q126 0 201 -78t75 -198q0 -125 -81 -200.5t-195 -75.5q-127 0 -201.5 78t-74.5 198zM104 261q0 -105 62.5 -165.5t158.5 -60.5q99 0 158 65t59 161q0 103 -61 163.5t-156 60.5q-102 0 -161.5 -62t-59.5 -162zM430 186l12 -58
q-48 -29 -122 -29q-68 0 -113 41t-45 113q0 79 47.5 128.5t130.5 49.5q73 0 96 -17l-18 -68q-39 15 -79 15t-60 -22.5t-21 -71.5q0 -44 25.5 -69.5t71.5 -25.5q39 0 75 14z" />
    <glyph glyph-name="ordfeminine" unicode="&#xaa;" horiz-adv-x="263" 
d="M190 341l-22 24q-39 -24 -72 -24q-28 0 -53.5 17t-25.5 46q0 71 139 83v9q0 26 -23 26q-18 0 -83 -15l-18 57q63 20 118 20q102 0 102 -81v-155zM125 396q13 0 31 7v33h-14q-42 0 -42 -20t25 -20z" />
    <glyph glyph-name="guillemotleft" unicode="&#xab;" horiz-adv-x="535" 
d="M404 9l-181 223l181 223l88 -43l-106 -180l106 -180zM197 9l-180 223l180 223l88 -43l-106 -180l106 -180z" />
    <glyph glyph-name="registered" unicode="&#xae;" horiz-adv-x="644" 
d="M46 521q0 125 81 200.5t195 75.5q126 0 201 -78t75 -198q0 -125 -81 -200.5t-195 -75.5q-127 0 -201.5 78t-74.5 198zM104 523q0 -105 62.5 -165.5t158.5 -60.5q99 0 158 65t59 161q0 103 -61 163.5t-156 60.5q-102 0 -161.5 -62t-59.5 -162zM320 541q15 0 27 10t12 28
q0 21 -16.5 35.5t-49.5 14.5h-3v-87q3 0 12.5 -0.5t17.5 -0.5zM304 484h-14v-110h-98v313h135q64 0 98 -24.5t34 -69.5q0 -52 -49 -82l70 -137h-102l-47 111q-9 -1 -27 -1z" />
    <glyph glyph-name="macron" unicode="&#xaf;" horiz-adv-x="451" 
d="M371 630v-15l-26 -88h-265v15l26 88h265z" />
    <glyph glyph-name="twosuperior" unicode="&#xb2;" horiz-adv-x="286" 
d="M255 390h-235v60q78 48 111.5 84t33.5 57q0 43 -44 43q-48 0 -87 -23l-20 68q65 26 129 26q60 0 90 -25.5t30 -69.5q0 -39 -31 -73.5t-99 -78.5l137 6z" />
    <glyph glyph-name="threesuperior" unicode="&#xb3;" horiz-adv-x="281" 
d="M111 381q-59 0 -97 10l17 63q50 -11 78 -11q58 0 58 37q0 16 -13.5 26t-38.5 10q-16 0 -38 -2l-9 61q93 0 94 35q-1 32 -45 32q-38 0 -74 -16l-19 57q50 22 120 22q47 0 78.5 -19.5t31.5 -52.5q0 -29 -21.5 -49.5t-55.5 -30.5q90 -12 90 -71q0 -47 -49.5 -74t-106.5 -27z
" />
    <glyph glyph-name="acute" unicode="&#xb4;" horiz-adv-x="357" 
d="M38 503l129 165l152 -27l-156 -138h-125z" />
    <glyph glyph-name="paragraph" unicode="&#xb6;" horiz-adv-x="568" 
d="M309 494v-331h-68q-105 0 -167 56t-62 163t63.5 168.5t168.5 61.5h264v-574q0 -81 -57.5 -127.5t-140.5 -46.5q-62 0 -110 17l17 115q59 -21 92.5 -15.5t46 25t12.5 57.5v431h-59z" />
    <glyph glyph-name="cedilla" unicode="&#xb8;" horiz-adv-x="307" 
d="M78 -98l48 98h60l-22 -51q87 -29 87 -77q0 -40 -44.5 -73t-133.5 -37l-16 59q48 5 72 13t24 24q0 24 -72 39z" />
    <glyph glyph-name="onesuperior" unicode="&#xb9;" horiz-adv-x="234" 
d="M191 390h-96v221l-57 -22l-21 73q42 14 118 34h56v-306z" />
    <glyph glyph-name="ordmasculine" unicode="&#xba;" horiz-adv-x="299" 
d="M280 467q0 -57 -40.5 -91.5t-101.5 -34.5q-57 0 -89.5 28.5t-32.5 88.5q0 57 41 91.5t102 34.5q121 0 121 -117zM184 457q0 69 -41 69q-30 0 -30 -57q0 -71 41 -71q30 0 30 59z" />
    <glyph glyph-name="guillemotright" unicode="&#xbb;" horiz-adv-x="535" 
d="M338 455l181 -223l-181 -223l-88 41l106 182l-106 178zM132 455l180 -223l-180 -223l-89 41l106 182l-106 178z" />
    <glyph glyph-name="questiondown" unicode="&#xbf;" horiz-adv-x="398" 
d="M288 408q0 -23 -32 -54t-54 -31q-18 0 -51 28.5t-33 51.5t33.5 53.5t51.5 30.5q22 0 53.5 -28.5t31.5 -50.5zM129 255l132 32q37 -47 37 -77q0 -29 -13.5 -49t-53.5 -53q-44 -37 -61 -62t-17 -61q0 -22 21.5 -42.5t49.5 -20.5q29 0 50.5 9t67.5 37l47 -104
q-107 -57 -195 -57q-87 0 -144 46t-57 120q0 67 104 150q31 25 43.5 40t12.5 30q0 14 -24 62z" />
    <glyph glyph-name="Agrave" unicode="&#xc0;" horiz-adv-x="593" 
d="M409 653h-125l-156 138l152 27zM361 246l-70 232l-72 -232h142zM435 0l-42 138h-207l-43 -138h-148l204 612h207l192 -612h-163z" />
    <glyph glyph-name="Aacute" unicode="&#xc1;" horiz-adv-x="593" 
d="M197 653l129 165l152 -27l-156 -138h-125zM361 246l-70 232l-72 -232h142zM435 0l-42 138h-207l-43 -138h-148l204 612h207l192 -612h-163z" />
    <glyph glyph-name="Acircumflex" unicode="&#xc2;" horiz-adv-x="593" 
d="M365 653l-75 67l-76 -67h-109l116 165h137l117 -165h-110zM361 246l-70 232l-72 -232h142zM435 0l-42 138h-207l-43 -138h-148l204 612h207l192 -612h-163z" />
    <glyph glyph-name="Atilde" unicode="&#xc3;" horiz-adv-x="593" 
d="M436 809l52 -53q-12 -31 -53 -66.5t-71 -35.5q-19 0 -69 16.5t-62 16.5q-17 0 -37.5 -16t-27.5 -26l-47 62q8 14 49 52t68 38q23 0 68.5 -16.5t58.5 -16.5q30 0 71 45zM361 246l-70 232l-72 -232h142zM435 0l-42 138h-207l-43 -138h-148l204 612h207l192 -612h-163z" />
    <glyph glyph-name="Adieresis" unicode="&#xc4;" horiz-adv-x="593" 
d="M309 730q0 21 28 51.5t49 30.5q23 0 54.5 -25t31.5 -48q0 -21 -28.5 -51t-48.5 -30q-22 0 -54 25t-32 47zM114 730q0 21 27.5 51.5t48.5 30.5q23 0 54.5 -25t31.5 -48q0 -21 -28 -51t-48 -30q-23 0 -54.5 25t-31.5 47zM361 246l-70 232l-72 -232h142zM435 0l-42 138h-207
l-43 -138h-148l204 612h207l192 -612h-163z" />
    <glyph glyph-name="Aring" unicode="&#xc5;" horiz-adv-x="593" 
d="M409 751q0 -41 -32 -71.5t-75 -30.5q-45 0 -75.5 28t-30.5 74q0 42 32 73t75 31q46 0 76 -27.5t30 -76.5zM260 751q0 -17 12 -29t30 -12t30.5 12t12.5 29q0 19 -12.5 31.5t-30.5 12.5t-30 -12.5t-12 -31.5zM361 246l-70 232l-72 -232h142zM435 0l-42 138h-207l-43 -138
h-148l204 612h207l192 -612h-163z" />
    <glyph glyph-name="AE" unicode="&#xc6;" horiz-adv-x="797" 
d="M354 482l-110 -236h122v237zM366 0v138h-173l-64 -138h-157l316 612h468l-14 -118l-217 2v-129h203l-10 -111l-193 2v-140l247 3l-14 -121h-392z" />
    <glyph glyph-name="Ccedilla" unicode="&#xc7;" horiz-adv-x="556" 
d="M436 -128q0 -40 -44.5 -73t-133.5 -37l-16 59q48 5 72 13t24 24q0 24 -72 39l-3 5l40 82q-121 9 -197 89t-76 222q0 147 89.5 240.5t242.5 93.5q91 0 166 -25l-28 -127q-79 27 -155 27q-153 0 -153 -188q0 -56 17.5 -98t46 -64t58 -32t59.5 -10q79 0 139 26l16 -114
q-57 -34 -164 -40l-15 -35q87 -29 87 -77z" />
    <glyph glyph-name="Egrave" unicode="&#xc8;" horiz-adv-x="492" 
d="M400 653h-125l-156 138l152 27zM60 0v612h390l-14 -118l-217 2v-129h203l-10 -111l-193 2v-140l247 3l-14 -121h-392z" />
    <glyph glyph-name="Eacute" unicode="&#xc9;" horiz-adv-x="492" 
d="M139 653l129 165l152 -27l-156 -138h-125zM60 0v612h390l-14 -118l-217 2v-129h203l-10 -111l-193 2v-140l247 3l-14 -121h-392z" />
    <glyph glyph-name="Ecircumflex" unicode="&#xca;" horiz-adv-x="492" 
d="M338 653l-75 67l-76 -67h-109l116 165h137l117 -165h-110zM60 0v612h390l-14 -118l-217 2v-129h203l-10 -111l-193 2v-140l247 3l-14 -121h-392z" />
    <glyph glyph-name="Edieresis" unicode="&#xcb;" horiz-adv-x="492" 
d="M279 730q0 21 28 51.5t49 30.5q23 0 54.5 -25t31.5 -48q0 -21 -28.5 -51t-48.5 -30q-22 0 -54 25t-32 47zM84 730q0 21 27.5 51.5t48.5 30.5q23 0 54.5 -25t31.5 -48q0 -21 -28 -51t-48 -30q-23 0 -54.5 25t-31.5 47zM60 0v612h390l-14 -118l-217 2v-129h203l-10 -111
l-193 2v-140l247 3l-14 -121h-392z" />
    <glyph glyph-name="Igrave" unicode="&#xcc;" horiz-adv-x="279" 
d="M238 653h-125l-156 138l152 27zM219 612v-612h-159v612h159z" />
    <glyph glyph-name="Iacute" unicode="&#xcd;" horiz-adv-x="279" 
d="M41 653l129 165l152 -27l-156 -138h-125zM219 612v-612h-159v612h159z" />
    <glyph glyph-name="Icircumflex" unicode="&#xce;" horiz-adv-x="279" 
d="M213 653l-75 67l-76 -67h-109l116 165h137l117 -165h-110zM219 612v-612h-159v612h159z" />
    <glyph glyph-name="Idieresis" unicode="&#xcf;" horiz-adv-x="279" 
d="M154 738q0 22 28 52.5t49 30.5q22 0 54 -25.5t32 -48.5q0 -21 -28.5 -50.5t-48.5 -29.5q-22 0 -54 25t-32 46zM-39 738q0 22 28 52.5t49 30.5q22 0 54 -25.5t32 -48.5q0 -21 -28.5 -50.5t-48.5 -29.5q-23 0 -54.5 24.5t-31.5 46.5zM219 612v-612h-159v612h159z" />
    <glyph glyph-name="Eth" unicode="&#xd0;" horiz-adv-x="651" 
d="M259 -9q-93 0 -194 14v250h-58v105h58v252h253q138 0 220.5 -74t82.5 -218q0 -157 -100.5 -243t-261.5 -86zM284 109q175 0 175 188q0 105 -53.5 154t-131.5 49h-50v-140h137l-10 -105h-127v-141q22 -5 60 -5z" />
    <glyph glyph-name="Ntilde" unicode="&#xd1;" horiz-adv-x="655" 
d="M466 809l52 -53q-12 -31 -53 -66.5t-71 -35.5q-19 0 -69 16.5t-62 16.5q-17 0 -37.5 -16t-27.5 -26l-47 62q8 14 49 52t68 38q23 0 68.5 -16.5t58.5 -16.5q30 0 71 45zM451 0l-249 368v-368h-142v612h158l235 -358v358h142v-612h-144z" />
    <glyph glyph-name="Ograve" unicode="&#xd2;" horiz-adv-x="682" 
d="M464 653h-125l-156 138l152 27zM652 318q0 -154 -92 -244.5t-243 -90.5q-131 0 -209 83t-78 228q0 154 92.5 244.5t243.5 90.5q131 0 208.5 -83.5t77.5 -227.5zM489 290q0 224 -165 224q-131 0 -131 -192q0 -224 166 -224q130 0 130 192z" />
    <glyph glyph-name="Oacute" unicode="&#xd3;" horiz-adv-x="682" 
d="M217 653l129 165l152 -27l-156 -138h-125zM652 318q0 -154 -92 -244.5t-243 -90.5q-131 0 -209 83t-78 228q0 154 92.5 244.5t243.5 90.5q131 0 208.5 -83.5t77.5 -227.5zM489 290q0 224 -165 224q-131 0 -131 -192q0 -224 166 -224q130 0 130 192z" />
    <glyph glyph-name="Ocircumflex" unicode="&#xd4;" horiz-adv-x="682" 
d="M417 653l-75 67l-76 -67h-109l116 165h137l117 -165h-110zM652 318q0 -154 -92 -244.5t-243 -90.5q-131 0 -209 83t-78 228q0 154 92.5 244.5t243.5 90.5q131 0 208.5 -83.5t77.5 -227.5zM489 290q0 224 -165 224q-131 0 -131 -192q0 -224 166 -224q130 0 130 192z" />
    <glyph glyph-name="Otilde" unicode="&#xd5;" horiz-adv-x="682" 
d="M465 809l52 -53q-12 -31 -53 -66.5t-71 -35.5q-19 0 -69 16.5t-62 16.5q-17 0 -37.5 -16t-27.5 -26l-47 62q8 14 49 52t68 38q23 0 68.5 -16.5t58.5 -16.5q30 0 71 45zM652 318q0 -154 -92 -244.5t-243 -90.5q-131 0 -209 83t-78 228q0 154 92.5 244.5t243.5 90.5
q131 0 208.5 -83.5t77.5 -227.5zM489 290q0 224 -165 224q-131 0 -131 -192q0 -224 166 -224q130 0 130 192z" />
    <glyph glyph-name="Odieresis" unicode="&#xd6;" horiz-adv-x="682" 
d="M362 730q0 21 28 51.5t49 30.5q23 0 54.5 -25t31.5 -48q0 -21 -28.5 -51t-48.5 -30q-22 0 -54 25t-32 47zM167 730q0 21 27.5 51.5t48.5 30.5q23 0 54.5 -25t31.5 -48q0 -21 -28 -51t-48 -30q-23 0 -54.5 25t-31.5 47zM652 318q0 -154 -92 -244.5t-243 -90.5
q-131 0 -209 83t-78 228q0 154 92.5 244.5t243.5 90.5q131 0 208.5 -83.5t77.5 -227.5zM489 290q0 224 -165 224q-131 0 -131 -192q0 -224 166 -224q130 0 130 192z" />
    <glyph glyph-name="multiply" unicode="&#xd7;" horiz-adv-x="548" 
d="M387 87l-113 113l-113 -113l-65 67l112 112l-112 112l66 66l112 -112l112 112l66 -66l-112 -112l112 -112z" />
    <glyph glyph-name="Oslash" unicode="&#xd8;" horiz-adv-x="682" 
d="M193 322q0 -94 30 -149l159 332q-27 9 -58 9q-131 0 -131 -192zM359 98q130 0 130 192q0 97 -31 151l-160 -334q27 -9 61 -9zM317 -17q-37 0 -75 8l-35 -74h-106l53 111q-124 79 -124 266q0 154 92.5 244.5t243.5 90.5q40 0 71 -7l34 71h107l-51 -107q125 -81 125 -268
q0 -154 -92 -244.5t-243 -90.5z" />
    <glyph glyph-name="Ugrave" unicode="&#xd9;" horiz-adv-x="635" 
d="M440 653h-125l-156 138l152 27zM54 209v403h159v-372q0 -122 119 -122q42 0 68.5 23t26.5 66v405h154v-386q0 -114 -74 -179.5t-200 -63.5q-126 1 -189.5 59.5t-63.5 166.5z" />
    <glyph glyph-name="Uacute" unicode="&#xda;" horiz-adv-x="635" 
d="M192 653l129 165l152 -27l-156 -138h-125zM54 209v403h159v-372q0 -122 119 -122q42 0 68.5 23t26.5 66v405h154v-386q0 -114 -74 -179.5t-200 -63.5q-126 1 -189.5 59.5t-63.5 166.5z" />
    <glyph glyph-name="Ucircumflex" unicode="&#xdb;" horiz-adv-x="635" 
d="M398 653l-75 67l-76 -67h-109l116 165h137l117 -165h-110zM54 209v403h159v-372q0 -122 119 -122q42 0 68.5 23t26.5 66v405h154v-386q0 -114 -74 -179.5t-200 -63.5q-126 1 -189.5 59.5t-63.5 166.5z" />
    <glyph glyph-name="Udieresis" unicode="&#xdc;" horiz-adv-x="635" 
d="M340 730q0 21 28 51.5t49 30.5q23 0 54.5 -25t31.5 -48q0 -21 -28.5 -51t-48.5 -30q-22 0 -54 25t-32 47zM145 730q0 21 27.5 51.5t48.5 30.5q23 0 54.5 -25t31.5 -48q0 -21 -28 -51t-48 -30q-23 0 -54.5 25t-31.5 47zM54 209v403h159v-372q0 -122 119 -122q42 0 68.5 23
t26.5 66v405h154v-386q0 -114 -74 -179.5t-200 -63.5q-126 1 -189.5 59.5t-63.5 166.5z" />
    <glyph glyph-name="Yacute" unicode="&#xdd;" horiz-adv-x="557" 
d="M181 653l129 165l152 -27l-156 -138h-125zM357 217v-217h-158v217l-214 395h174l128 -241l128 241h155z" />
    <glyph glyph-name="Thorn" unicode="&#xde;" horiz-adv-x="534" 
d="M251 223q109 0 109 93q0 98 -127 98h-14v-190q10 -1 32 -1zM247 115q-18 0 -28 1v-116h-159v612h159v-95h72q109 0 170 -48.5t61 -135.5q0 -102 -78.5 -160t-196.5 -58z" />
    <glyph glyph-name="germandbls" unicode="&#xdf;" horiz-adv-x="533" 
d="M355 163l-52 33q-68 44 -68 123q0 34 13.5 67t30 54.5t30 46.5t13.5 46q0 28 -24.5 45t-50.5 17q-28 0 -38.5 -17t-10.5 -58v-520h-153v500q0 97 63 154t161 57q85 0 140 -45t55 -101q0 -46 -24 -87t-47.5 -70t-23.5 -45q0 -32 36 -59l47 -34q47 -33 62.5 -60.5
t15.5 -74.5q0 -65 -55 -107.5t-137 -42.5q-66 0 -112 19l13 107q18 -9 49 -15.5t48 -6.5q57 0 57 29q0 21 -38 45z" />
    <glyph glyph-name="agrave" unicode="&#xe0;" horiz-adv-x="466" 
d="M372 503h-125l-156 138l152 27zM317 -17l-28 46q-69 -46 -126 -46q-62 0 -102 37t-40 98q0 146 250 160v4q0 37 -16 51.5t-51 14.5q-57 0 -139 -30l-27 106q122 43 212 43q171 0 171 -157v-306zM214 86q21 0 57 15v83q-23 4 -46 4q-69 0 -69 -50q0 -22 15 -37t43 -15z
" />
    <glyph glyph-name="aacute" unicode="&#xe1;" horiz-adv-x="466" 
d="M134 503l129 165l152 -27l-156 -138h-125zM317 -17l-28 46q-69 -46 -126 -46q-62 0 -102 37t-40 98q0 146 250 160v4q0 37 -16 51.5t-51 14.5q-57 0 -139 -30l-27 106q122 43 212 43q171 0 171 -157v-306zM214 86q21 0 57 15v83q-23 4 -46 4q-69 0 -69 -50q0 -22 15 -37
t43 -15z" />
    <glyph glyph-name="acircumflex" unicode="&#xe2;" horiz-adv-x="466" 
d="M317 503l-75 67l-76 -67h-109l116 165h137l117 -165h-110zM317 -17l-28 46q-69 -46 -126 -46q-62 0 -102 37t-40 98q0 146 250 160v4q0 37 -16 51.5t-51 14.5q-57 0 -139 -30l-27 106q122 43 212 43q171 0 171 -157v-306zM214 86q21 0 57 15v83q-23 4 -46 4
q-69 0 -69 -50q0 -22 15 -37t43 -15z" />
    <glyph glyph-name="atilde" unicode="&#xe3;" horiz-adv-x="466" 
d="M363 659l52 -53q-12 -31 -53 -66.5t-71 -35.5q-19 0 -69 16.5t-62 16.5q-17 0 -37.5 -16t-27.5 -26l-47 62q8 14 49 52t68 38q23 0 68.5 -16.5t58.5 -16.5q30 0 71 45zM317 -17l-28 46q-69 -46 -126 -46q-62 0 -102 37t-40 98q0 146 250 160v4q0 37 -16 51.5t-51 14.5
q-57 0 -139 -30l-27 106q122 43 212 43q171 0 171 -157v-306zM214 86q21 0 57 15v83q-23 4 -46 4q-69 0 -69 -50q0 -22 15 -37t43 -15z" />
    <glyph glyph-name="adieresis" unicode="&#xe4;" horiz-adv-x="466" 
d="M253 580q0 21 28 51.5t49 30.5q23 0 54.5 -25t31.5 -48q0 -21 -28.5 -51t-48.5 -30q-22 0 -54 25t-32 47zM58 580q0 21 27.5 51.5t48.5 30.5q23 0 54.5 -25t31.5 -48q0 -21 -28 -51t-48 -30q-23 0 -54.5 25t-31.5 47zM317 -17l-28 46q-69 -46 -126 -46q-62 0 -102 37
t-40 98q0 146 250 160v4q0 37 -16 51.5t-51 14.5q-57 0 -139 -30l-27 106q122 43 212 43q171 0 171 -157v-306zM214 86q21 0 57 15v83q-23 4 -46 4q-69 0 -69 -50q0 -22 15 -37t43 -15z" />
    <glyph glyph-name="aring" unicode="&#xe5;" horiz-adv-x="466" 
d="M351 601q0 -41 -32 -71.5t-75 -30.5q-45 0 -75.5 28t-30.5 74q0 42 32 73t75 31q46 0 76 -27.5t30 -76.5zM202 601q0 -17 12 -29t30 -12t30.5 12t12.5 29q0 19 -12.5 31.5t-30.5 12.5t-30 -12.5t-12 -31.5zM317 -17l-28 46q-69 -46 -126 -46q-62 0 -102 37t-40 98
q0 146 250 160v4q0 37 -16 51.5t-51 14.5q-57 0 -139 -30l-27 106q122 43 212 43q171 0 171 -157v-306zM214 86q21 0 57 15v83q-23 4 -46 4q-69 0 -69 -50q0 -22 15 -37t43 -15z" />
    <glyph glyph-name="ae" unicode="&#xe6;" horiz-adv-x="717" 
d="M485 372q-29 0 -43 -18.5t-18 -67.5h126q0 42 -17.5 64t-47.5 22zM691 26q-75 -43 -188 -43q-103 0 -163 61q-92 -61 -172 -61q-65 0 -106 36.5t-41 98.5q0 148 253 160q0 37 -14 53t-54 16q-64 0 -140 -30l-28 107q122 43 212 43q82 0 124 -39q56 39 132 39
q181 0 181 -196q0 -31 -5 -71h-258q13 -102 108 -102q73 0 136 26zM214 86q34 0 85 23q-8 21 -12 46l-13 4v25q-24 4 -49 4q-69 0 -69 -50q0 -22 15 -37t43 -15z" />
    <glyph glyph-name="ccedilla" unicode="&#xe7;" horiz-adv-x="425" 
d="M345 -128q0 -40 -44.5 -73t-133.5 -37l-16 59q48 5 72 13t24 24q0 24 -72 39l-3 5l41 83q-85 11 -139 67t-54 155q0 125 72 192.5t179 67.5q81 0 135 -25l-27 -115q-17 9 -51.5 17t-53.5 7q-50 1 -74.5 -27.5t-24.5 -92.5q0 -67 34.5 -98.5t82.5 -31.5q51 0 98 19
l15 -105q-67 -27 -132 -31l-15 -35q87 -29 87 -77z" />
    <glyph glyph-name="egrave" unicode="&#xe8;" horiz-adv-x="462" 
d="M372 503h-125l-156 138l152 27zM229 372q-27 0 -41 -19t-18 -67h126q0 86 -67 86zM436 26q-83 -43 -194 -43q-96 0 -159 56t-63 173q0 118 62.5 186.5t169.5 68.5q181 0 181 -199q0 -36 -6 -68h-257q13 -102 106 -102q65 0 137 26z" />
    <glyph glyph-name="eacute" unicode="&#xe9;" horiz-adv-x="462" 
d="M140 503l129 165l152 -27l-156 -138h-125zM229 372q-27 0 -41 -19t-18 -67h126q0 86 -67 86zM436 26q-83 -43 -194 -43q-96 0 -159 56t-63 173q0 118 62.5 186.5t169.5 68.5q181 0 181 -199q0 -36 -6 -68h-257q13 -102 106 -102q65 0 137 26z" />
    <glyph glyph-name="ecircumflex" unicode="&#xea;" horiz-adv-x="462" 
d="M329 503l-75 67l-76 -67h-109l116 165h137l117 -165h-110zM229 372q-27 0 -41 -19t-18 -67h126q0 86 -67 86zM436 26q-83 -43 -194 -43q-96 0 -159 56t-63 173q0 118 62.5 186.5t169.5 68.5q181 0 181 -199q0 -36 -6 -68h-257q13 -102 106 -102q65 0 137 26z" />
    <glyph glyph-name="edieresis" unicode="&#xeb;" horiz-adv-x="462" 
d="M257 580q0 21 28 51.5t49 30.5q23 0 54.5 -25t31.5 -48q0 -21 -28.5 -51t-48.5 -30q-22 0 -54 25t-32 47zM62 580q0 21 27.5 51.5t48.5 30.5q23 0 54.5 -25t31.5 -48q0 -21 -28 -51t-48 -30q-23 0 -54.5 25t-31.5 47zM229 372q-27 0 -41 -19t-18 -67h126q0 86 -67 86z
M436 26q-83 -43 -194 -43q-96 0 -159 56t-63 173q0 118 62.5 186.5t169.5 68.5q181 0 181 -199q0 -36 -6 -68h-257q13 -102 106 -102q65 0 137 26z" />
    <glyph glyph-name="igrave" unicode="&#xec;" horiz-adv-x="243" 
d="M241 503h-125l-156 138l152 27zM200 469v-469h-153v448z" />
    <glyph glyph-name="iacute" unicode="&#xed;" horiz-adv-x="243" 
d="M25 503l129 165l152 -27l-156 -138h-125zM196 469v-469h-153v448z" />
    <glyph glyph-name="icircumflex" unicode="&#xee;" horiz-adv-x="243" 
d="M199 503l-75 67l-76 -67h-109l116 165h137l117 -165h-110zM196 469v-469h-153v448z" />
    <glyph glyph-name="idieresis" unicode="&#xef;" horiz-adv-x="243" 
d="M129 593q0 22 27.5 52.5t48.5 30.5q22 0 54 -25.5t32 -48.5q0 -21 -28 -50.5t-48 -29.5q-23 0 -54.5 24.5t-31.5 46.5zM-54 593q0 22 28 52.5t49 30.5q22 0 54 -25.5t32 -48.5q0 -21 -28.5 -50.5t-48.5 -29.5q-22 0 -54 25t-32 46zM195 469v-469h-153v448z" />
    <glyph glyph-name="eth" unicode="&#xf0;" horiz-adv-x="523" 
d="M241 -17q-93 0 -157 56t-64 167q0 68 23.5 120.5t61 82t79 44t83.5 14.5q26 0 43 -4q-23 46 -68 85l-98 -62l-61 54l90 57q-30 18 -93 52l56 63q75 -20 136 -53l93 58l60 -54l-80 -51q83 -65 121 -150.5t38 -173.5q0 -152 -73 -228.5t-190 -76.5zM264 93q44 0 62.5 31.5
t17.5 130.5q0 55 -4 92q-34 10 -63 10q-54 0 -76.5 -27.5t-22.5 -104.5q0 -70 27.5 -101t58.5 -31z" />
    <glyph glyph-name="ntilde" unicode="&#xf1;" 
d="M397 659l52 -53q-12 -31 -53 -66.5t-71 -35.5q-19 0 -69 16.5t-62 16.5q-17 0 -37.5 -16t-27.5 -26l-47 62q8 14 49 52t68 38q23 0 68.5 -16.5t58.5 -16.5q30 0 71 45zM257 355q-33 0 -59 -16v-339h-153v446l109 21l27 -43q82 43 150 43q65 0 105.5 -34.5t40.5 -103.5
v-329h-153v282q0 73 -67 73z" />
    <glyph glyph-name="ograve" unicode="&#xf2;" 
d="M404 503h-125l-156 138l152 27zM500 234q0 -115 -69.5 -183t-184.5 -67q-103 -1 -163 57t-60 175q0 115 69 183t183 68q107 0 166 -57.5t59 -175.5zM344 213q0 86 -24.5 117.5t-68.5 31.5q-36 0 -54.5 -25.5t-18.5 -99.5q0 -86 25 -117.5t69 -31.5q35 0 53.5 25.5
t18.5 99.5z" />
    <glyph glyph-name="oacute" unicode="&#xf3;" 
d="M146 503l129 165l152 -27l-156 -138h-125zM500 234q0 -115 -69.5 -183t-184.5 -67q-103 -1 -163 57t-60 175q0 115 69 183t183 68q107 0 166 -57.5t59 -175.5zM344 213q0 86 -24.5 117.5t-68.5 31.5q-36 0 -54.5 -25.5t-18.5 -99.5q0 -86 25 -117.5t69 -31.5
q35 0 53.5 25.5t18.5 99.5z" />
    <glyph glyph-name="ocircumflex" unicode="&#xf4;" 
d="M342 503l-75 67l-76 -67h-109l116 165h137l117 -165h-110zM500 234q0 -115 -69.5 -183t-184.5 -67q-103 -1 -163 57t-60 175q0 115 69 183t183 68q107 0 166 -57.5t59 -175.5zM344 213q0 86 -24.5 117.5t-68.5 31.5q-36 0 -54.5 -25.5t-18.5 -99.5q0 -86 25 -117.5
t69 -31.5q35 0 53.5 25.5t18.5 99.5z" />
    <glyph glyph-name="otilde" unicode="&#xf5;" 
d="M404 659l52 -53q-12 -31 -53 -66.5t-71 -35.5q-19 0 -69 16.5t-62 16.5q-17 0 -37.5 -16t-27.5 -26l-47 62q8 14 49 52t68 38q23 0 68.5 -16.5t58.5 -16.5q30 0 71 45zM500 234q0 -115 -69.5 -183t-184.5 -67q-103 -1 -163 57t-60 175q0 115 69 183t183 68
q107 0 166 -57.5t59 -175.5zM344 213q0 86 -24.5 117.5t-68.5 31.5q-36 0 -54.5 -25.5t-18.5 -99.5q0 -86 25 -117.5t69 -31.5q35 0 53.5 25.5t18.5 99.5z" />
    <glyph glyph-name="odieresis" unicode="&#xf6;" 
d="M281 580q0 21 28 51.5t49 30.5q23 0 54.5 -25t31.5 -48q0 -21 -28.5 -51t-48.5 -30q-22 0 -54 25t-32 47zM86 580q0 21 27.5 51.5t48.5 30.5q23 0 54.5 -25t31.5 -48q0 -21 -28 -51t-48 -30q-23 0 -54.5 25t-31.5 47zM500 234q0 -115 -69.5 -183t-184.5 -67
q-103 -1 -163 57t-60 175q0 115 69 183t183 68q107 0 166 -57.5t59 -175.5zM344 213q0 86 -24.5 117.5t-68.5 31.5q-36 0 -54.5 -25.5t-18.5 -99.5q0 -86 25 -117.5t69 -31.5q35 0 53.5 25.5t18.5 99.5z" />
    <glyph glyph-name="divide" unicode="&#xf7;" horiz-adv-x="548" 
d="M195 429q0 30 25 56t52 26t56.5 -21.5t29.5 -48.5q0 -29 -26 -55t-53 -26q-29 0 -56.5 20.5t-27.5 48.5zM488 313v-92h-426v92h426zM195 94q0 30 25 56t52 26q28 0 57 -21t29 -48q0 -29 -26 -55t-53 -26q-29 0 -56.5 20t-27.5 48z" />
    <glyph glyph-name="oslash" unicode="&#xf8;" 
d="M178 237q0 -45 8 -79l102 198q-16 6 -37 6q-36 0 -54.5 -25.5t-18.5 -99.5zM272 88q35 0 53.5 25.5t18.5 99.5q0 47 -8 79l-102 -198q18 -6 38 -6zM246 -16q-35 0 -65 6l-32 -61h-81l45 88q-90 56 -90 199q0 115 69 183t183 68q35 0 67 -6l32 62h81l-46 -89
q91 -55 91 -200q0 -115 -69.5 -183t-184.5 -67z" />
    <glyph glyph-name="ugrave" unicode="&#xf9;" 
d="M410 503h-125l-156 138l152 27zM373 -17l-32 42q-84 -42 -150 -42q-65 0 -105.5 34.5t-40.5 103.5v325l153 21v-299q0 -43 18.5 -58t47.5 -15q34 0 60 16v335l153 21v-463z" />
    <glyph glyph-name="uacute" unicode="&#xfa;" 
d="M155 503l129 165l152 -27l-156 -138h-125zM373 -17l-32 42q-84 -42 -150 -42q-65 0 -105.5 34.5t-40.5 103.5v325l153 21v-299q0 -43 18.5 -58t47.5 -15q34 0 60 16v335l153 21v-463z" />
    <glyph glyph-name="ucircumflex" unicode="&#xfb;" 
d="M359 503l-75 67l-76 -67h-109l116 165h137l117 -165h-110zM373 -17l-32 42q-84 -42 -150 -42q-65 0 -105.5 34.5t-40.5 103.5v325l153 21v-299q0 -43 18.5 -58t47.5 -15q34 0 60 16v335l153 21v-463z" />
    <glyph glyph-name="udieresis" unicode="&#xfc;" 
d="M290 580q0 21 28 51.5t49 30.5q23 0 54.5 -25t31.5 -48q0 -21 -28.5 -51t-48.5 -30q-22 0 -54 25t-32 47zM95 580q0 21 27.5 51.5t48.5 30.5q23 0 54.5 -25t31.5 -48q0 -21 -28 -51t-48 -30q-23 0 -54.5 25t-31.5 47zM373 -17l-32 42q-84 -42 -150 -42q-65 0 -105.5 34.5
t-40.5 103.5v325l153 21v-299q0 -43 18.5 -58t47.5 -15q34 0 60 16v335l153 21v-463z" />
    <glyph glyph-name="yacute" unicode="&#xfd;" horiz-adv-x="483" 
d="M129 503l129 165l152 -27l-156 -138h-125zM89 -238q-41 0 -71 8l-6 118q77 -10 123 14t73 93q0 1 1 2.5t1 2.5h-70l-145 441l160 20l95 -328q41 149 80 317h151q-3 -11 -24.5 -88.5t-41 -145.5t-43 -145.5t-37.5 -114.5q-33 -97 -97 -145.5t-149 -48.5z" />
    <glyph glyph-name="thorn" unicode="&#xfe;" horiz-adv-x="532" 
d="M271 94q87 0 87 133q0 69 -29 99t-71 30q-27 0 -60 -12v-239q40 -11 73 -11zM198 -214l-153 -21v910l153 20v-266q72 39 128 38q81 -2 134.5 -59.5t53.5 -171.5q0 -119 -71 -186t-158 -67q-44 0 -87 5v-202z" />
    <glyph glyph-name="ydieresis" unicode="&#xff;" horiz-adv-x="483" 
d="M262 580q0 21 28 51.5t49 30.5q23 0 54.5 -25t31.5 -48q0 -21 -28.5 -51t-48.5 -30q-22 0 -54 25t-32 47zM67 580q0 21 27.5 51.5t48.5 30.5q23 0 54.5 -25t31.5 -48q0 -21 -28 -51t-48 -30q-23 0 -54.5 25t-31.5 47zM89 -238q-41 0 -71 8l-6 118q77 -10 123 14t73 93
q0 1 1 2.5t1 2.5h-70l-145 441l160 20l95 -328q41 149 80 317h151q-3 -11 -24.5 -88.5t-41 -145.5t-43 -145.5t-37.5 -114.5q-33 -97 -97 -145.5t-149 -48.5z" />
    <glyph glyph-name="Amacron" unicode="&#x100;" horiz-adv-x="593" 
d="M450 780v-15l-26 -88h-265v15l26 88h265zM361 246l-70 232l-72 -232h142zM435 0l-42 138h-207l-43 -138h-148l204 612h207l192 -612h-163z" />
    <glyph glyph-name="amacron" unicode="&#x101;" horiz-adv-x="466" 
d="M383 630v-15l-26 -88h-265v15l26 88h265zM317 -17l-28 46q-69 -46 -126 -46q-62 0 -102 37t-40 98q0 146 250 160v4q0 37 -16 51.5t-51 14.5q-57 0 -139 -30l-27 106q122 43 212 43q171 0 171 -157v-306zM214 86q21 0 57 15v83q-23 4 -46 4q-69 0 -69 -50q0 -22 15 -37
t43 -15z" />
    <glyph glyph-name="Abreve" unicode="&#x102;" horiz-adv-x="593" 
d="M300 749q72 0 83 80h87q0 -78 -52.5 -127t-122.5 -49q-75 0 -120 47.5t-45 128.5h86q12 -80 84 -80zM361 246l-70 232l-72 -232h142zM435 0l-42 138h-207l-43 -138h-148l204 612h207l192 -612h-163z" />
    <glyph glyph-name="abreve" unicode="&#x103;" horiz-adv-x="466" 
d="M265 599q72 0 83 80h87q0 -78 -52.5 -127t-122.5 -49q-75 0 -120 47.5t-45 128.5h86q12 -80 84 -80zM317 -17l-28 46q-69 -46 -126 -46q-62 0 -102 37t-40 98q0 146 250 160v4q0 37 -16 51.5t-51 14.5q-57 0 -139 -30l-27 106q122 43 212 43q171 0 171 -157v-306zM214 86
q21 0 57 15v83q-23 4 -46 4q-69 0 -69 -50q0 -22 15 -37t43 -15z" />
    <glyph glyph-name="Aogonek" unicode="&#x104;" horiz-adv-x="593" 
d="M361 246l-70 232l-72 -232h142zM521 0h-86l-42 138h-207l-43 -138h-148l204 612h207l192 -612q-100 -70 -100 -121q0 -15 11.5 -24.5t26.5 -9.5q29 0 48 11l20 -64q-45 -25 -90 -25q-49 0 -79 26t-30 70q0 34 30.5 71t85.5 66z" />
    <glyph glyph-name="aogonek" unicode="&#x105;" horiz-adv-x="466" 
d="M328 -233q-49 0 -79 26t-30 70q0 31 24.5 64t70.5 61l-25 41q-69 -46 -126 -46q-62 0 -102 37t-40 98q0 146 250 160v4q0 37 -16 51.5t-51 14.5q-57 0 -139 -30l-27 106q122 43 212 43q171 0 171 -157v-306l-20 -4h11q-100 -70 -100 -121q0 -15 11.5 -24.5t26.5 -9.5
q29 0 48 11l20 -64q-45 -25 -90 -25zM214 86q21 0 57 15v83q-23 4 -46 4q-69 0 -69 -50q0 -22 15 -37t43 -15z" />
    <glyph glyph-name="Cacute" unicode="&#x106;" horiz-adv-x="556" 
d="M213 653l129 165l152 -27l-156 -138h-125zM512 138l16 -114q-29 -17 -83.5 -29t-114.5 -12q-131 0 -215.5 81t-84.5 231q0 147 89.5 240.5t242.5 93.5q91 0 166 -25l-28 -127q-79 27 -155 27q-153 0 -153 -188q0 -56 17.5 -98t46 -64t58 -32t59.5 -10q79 0 139 26z" />
    <glyph glyph-name="cacute" unicode="&#x107;" horiz-adv-x="425" 
d="M131 503l129 165l152 -27l-156 -138h-125zM390 120l15 -105q-77 -32 -153 -32q-98 0 -165 56.5t-67 167.5q0 125 72 192.5t179 67.5q81 0 135 -25l-27 -115q-17 9 -51.5 17t-53.5 7q-50 1 -74.5 -27.5t-24.5 -92.5q0 -67 34.5 -98.5t82.5 -31.5q51 0 98 19z" />
    <glyph glyph-name="Ccircumflex" unicode="&#x108;" horiz-adv-x="556" 
d="M403 653l-75 67l-76 -67h-109l116 165h137l117 -165h-110zM512 138l16 -114q-29 -17 -83.5 -29t-114.5 -12q-131 0 -215.5 81t-84.5 231q0 147 89.5 240.5t242.5 93.5q91 0 166 -25l-28 -127q-79 27 -155 27q-153 0 -153 -188q0 -56 17.5 -98t46 -64t58 -32t59.5 -10
q79 0 139 26z" />
    <glyph glyph-name="ccircumflex" unicode="&#x109;" horiz-adv-x="425" 
d="M330 503l-75 67l-76 -67h-109l116 165h137l117 -165h-110zM390 120l15 -105q-77 -32 -153 -32q-98 0 -165 56.5t-67 167.5q0 125 72 192.5t179 67.5q81 0 135 -25l-27 -115q-17 9 -51.5 17t-53.5 7q-50 1 -74.5 -27.5t-24.5 -92.5q0 -67 34.5 -98.5t82.5 -31.5
q51 0 98 19z" />
    <glyph glyph-name="Cdotaccent" unicode="&#x10a;" horiz-adv-x="556" 
d="M235 745q0 24 31 58t55 34t60 -28t36 -52t-32 -57t-55 -33q-24 0 -59.5 27.5t-35.5 50.5zM512 138l16 -114q-29 -17 -83.5 -29t-114.5 -12q-131 0 -215.5 81t-84.5 231q0 147 89.5 240.5t242.5 93.5q91 0 166 -25l-28 -127q-79 27 -155 27q-153 0 -153 -188
q0 -56 17.5 -98t46 -64t58 -32t59.5 -10q79 0 139 26z" />
    <glyph glyph-name="cdotaccent" unicode="&#x10b;" horiz-adv-x="425" 
d="M193 595q0 24 31 58t55 34t60 -28t36 -52t-32 -57t-55 -33q-24 0 -59.5 27.5t-35.5 50.5zM390 120l15 -105q-77 -32 -153 -32q-98 0 -165 56.5t-67 167.5q0 125 72 192.5t179 67.5q81 0 135 -25l-27 -115q-17 9 -51.5 17t-53.5 7q-50 1 -74.5 -27.5t-24.5 -92.5
q0 -67 34.5 -98.5t82.5 -31.5q51 0 98 19z" />
    <glyph glyph-name="Ccaron" unicode="&#x10c;" horiz-adv-x="556" 
d="M402 658h-136l-118 165h111l75 -66l75 66h109zM512 138l16 -114q-29 -17 -83.5 -29t-114.5 -12q-131 0 -215.5 81t-84.5 231q0 147 89.5 240.5t242.5 93.5q91 0 166 -25l-28 -127q-79 27 -155 27q-153 0 -153 -188q0 -56 17.5 -98t46 -64t58 -32t59.5 -10q79 0 139 26z
" />
    <glyph glyph-name="ccaron" unicode="&#x10d;" horiz-adv-x="425" 
d="M327 508h-136l-118 165h111l75 -66l75 66h109zM390 120l15 -105q-77 -32 -153 -32q-98 0 -165 56.5t-67 167.5q0 125 72 192.5t179 67.5q81 0 135 -25l-27 -115q-17 9 -51.5 17t-53.5 7q-50 1 -74.5 -27.5t-24.5 -92.5q0 -67 34.5 -98.5t82.5 -31.5q51 0 98 19z" />
    <glyph glyph-name="Dcaron" unicode="&#x10e;" horiz-adv-x="646" 
d="M366 658h-136l-118 165h111l75 -66l75 66h109zM60 612h253q138 0 220.5 -74t82.5 -218q0 -157 -100.5 -243t-261.5 -86q-92 0 -194 14v607zM219 500v-386q22 -5 60 -5q175 0 175 188q0 105 -53.5 154t-131.5 49h-50z" />
    <glyph glyph-name="dcaron" unicode="&#x10f;" horiz-adv-x="700" 
d="M566 646q-1 18 26.5 33.5t50.5 15.5q26 0 41.5 -34.5t15.5 -70.5q0 -60 -94 -190l-60 30q36 67 36 128q0 20 -8 48t-8 40zM278 95q30 0 60 11v239q-39 11 -73 11q-87 0 -87 -133q0 -69 29 -98.5t71 -29.5zM381 -17l-30 45q-77 -46 -141 -45q-81 2 -134 59.5t-53 171.5
q0 62 21 112t55 79.5t73 45.5t79 16q44 0 87 -5v211l153 21v-690z" />
    <glyph glyph-name="Dcroat" unicode="&#x110;" horiz-adv-x="651" 
d="M259 -9q-93 0 -194 14v250h-58v105h58v252h253q138 0 220.5 -74t82.5 -218q0 -157 -100.5 -243t-261.5 -86zM284 109q175 0 175 188q0 105 -53.5 154t-131.5 49h-50v-140h137l-10 -105h-127v-141q22 -5 60 -5z" />
    <glyph glyph-name="dcroat" unicode="&#x111;" horiz-adv-x="537" 
d="M278 95q30 0 60 11v239q-39 11 -73 11q-87 0 -87 -133q0 -69 29 -98.5t71 -29.5zM381 -17l-30 45q-77 -46 -141 -45q-81 2 -134 59.5t-53 171.5q0 62 21 112t55 79.5t73 45.5t79 16q44 0 87 -5v72h-131v15l27 65h104v59l153 21v-80h81v-15l-27 -65h-54v-530z" />
    <glyph glyph-name="Emacron" unicode="&#x112;" horiz-adv-x="492" 
d="M407 780v-15l-26 -88h-265v15l26 88h265zM60 0v612h390l-14 -118l-217 2v-129h203l-10 -111l-193 2v-140l247 3l-14 -121h-392z" />
    <glyph glyph-name="emacron" unicode="&#x113;" horiz-adv-x="462" 
d="M387 630v-15l-26 -88h-265v15l26 88h265zM229 372q-27 0 -41 -19t-18 -67h126q0 86 -67 86zM436 26q-83 -43 -194 -43q-96 0 -159 56t-63 173q0 118 62.5 186.5t169.5 68.5q181 0 181 -199q0 -36 -6 -68h-257q13 -102 106 -102q65 0 137 26z" />
    <glyph glyph-name="Ebreve" unicode="&#x114;" horiz-adv-x="492" 
d="M266 749q72 0 83 80h87q0 -78 -52.5 -127t-122.5 -49q-75 0 -120 47.5t-45 128.5h86q12 -80 84 -80zM60 0v612h390l-14 -118l-217 2v-129h203l-10 -111l-193 2v-140l247 3l-14 -121h-392z" />
    <glyph glyph-name="ebreve" unicode="&#x115;" horiz-adv-x="462" 
d="M265 599q72 0 83 80h87q0 -78 -52.5 -127t-122.5 -49q-75 0 -120 47.5t-45 128.5h86q12 -80 84 -80zM229 372q-27 0 -41 -19t-18 -67h126q0 86 -67 86zM436 26q-83 -43 -194 -43q-96 0 -159 56t-63 173q0 118 62.5 186.5t169.5 68.5q181 0 181 -199q0 -36 -6 -68h-257
q13 -102 106 -102q65 0 137 26z" />
    <glyph glyph-name="Edotaccent" unicode="&#x116;" horiz-adv-x="492" 
d="M178 745q0 24 31 58t55 34t60 -28t36 -52t-32 -57t-55 -33q-24 0 -59.5 27.5t-35.5 50.5zM60 0v612h390l-14 -118l-217 2v-129h203l-10 -111l-193 2v-140l247 3l-14 -121h-392z" />
    <glyph glyph-name="edotaccent" unicode="&#x117;" horiz-adv-x="462" 
d="M151 595q0 24 31 58t55 34t60 -28t36 -52t-32 -57t-55 -33q-24 0 -59.5 27.5t-35.5 50.5zM229 372q-27 0 -41 -19t-18 -67h126q0 86 -67 86zM436 26q-83 -43 -194 -43q-96 0 -159 56t-63 173q0 118 62.5 186.5t169.5 68.5q181 0 181 -199q0 -36 -6 -68h-257
q13 -102 106 -102q65 0 137 26z" />
    <glyph glyph-name="Eogonek" unicode="&#x118;" horiz-adv-x="492" 
d="M60 0v612h390l-14 -118l-217 2v-129h203l-10 -111l-193 2v-140l247 3l-14 -121h-392zM261 -137q0 34 30.5 71t85.5 66h77q-100 -70 -100 -121q0 -15 11.5 -24.5t26.5 -9.5q29 0 48 11l20 -64q-45 -25 -90 -25q-49 0 -79 26t-30 70z" />
    <glyph glyph-name="eogonek" unicode="&#x119;" horiz-adv-x="462" 
d="M229 372q-27 0 -41 -19t-18 -67h126q0 86 -67 86zM411 -199q-45 -25 -90 -25q-49 0 -79 26t-30 70q0 59 77 113q-30 -2 -47 -2q-96 0 -159 56t-63 173q0 118 62.5 186.5t169.5 68.5q181 0 181 -199q0 -36 -6 -68h-257q13 -102 106 -102q65 0 137 26l23 -98
q-21 -10 -38 -17h7q-100 -70 -100 -121q0 -15 11.5 -24.5t26.5 -9.5q29 0 48 11z" />
    <glyph glyph-name="Ecaron" unicode="&#x11a;" horiz-adv-x="492" 
d="M337 658h-136l-118 165h111l75 -66l75 66h109zM60 0v612h390l-14 -118l-217 2v-129h203l-10 -111l-193 2v-140l247 3l-14 -121h-392z" />
    <glyph glyph-name="ecaron" unicode="&#x11b;" horiz-adv-x="462" 
d="M303 508h-136l-118 165h111l75 -66l75 66h109zM229 372q-27 0 -41 -19t-18 -67h126q0 86 -67 86zM436 26q-83 -43 -194 -43q-96 0 -159 56t-63 173q0 118 62.5 186.5t169.5 68.5q181 0 181 -199q0 -36 -6 -68h-257q13 -102 106 -102q65 0 137 26z" />
    <glyph glyph-name="Gcircumflex" unicode="&#x11c;" horiz-adv-x="600" 
d="M410 653l-75 67l-76 -67h-109l116 165h137l117 -165h-110zM549 24q-120 -41 -210 -41q-138 0 -223.5 78t-85.5 229q0 161 98 250t246 89q51 0 102 -10t78 -22l-32 -125q-29 14 -75 25t-83 11q-87 0 -129.5 -46.5t-42.5 -145.5q0 -63 16.5 -107t44.5 -64.5t54.5 -28.5
t56.5 -8q20 0 48 2l-1 194h138v-280z" />
    <glyph glyph-name="gcircumflex" unicode="&#x11d;" horiz-adv-x="468" 
d="M304 503l-75 67l-76 -67h-109l116 165h137l117 -165h-110zM266 305q0 78 -65 78q-24 0 -33.5 -15t-9.5 -54q0 -78 65 -78q22 0 32.5 16t10.5 53zM458 -19q0 -86 -78.5 -147.5t-196.5 -61.5q-94 0 -141 34t-47 84q0 9 2 18.5t4.5 16t8 14t9 12t10 11t9.5 8.5t10 7.5t8 6.5
l33 22q-46 24 -46 73q0 43 55 90q-86 37 -86 131q0 76 56.5 121.5t159.5 45.5q70 0 117 -29q118 31 120 29v-118h-19l-40 7q5 -20 5 -38q0 -75 -58.5 -121.5t-152.5 -46.5h-17q-7 -10 -7 -22q0 -24 46 -25l104 -5q67 -4 99.5 -30.5t32.5 -86.5zM220 -122q44 0 71.5 19
t27.5 45q0 30 -56 34l-91 8h-3l-2 -4q-32 -32 -32 -52q0 -21 21 -35.5t64 -14.5z" />
    <glyph glyph-name="Gbreve" unicode="&#x11e;" horiz-adv-x="600" 
d="M337 749q72 0 83 80h87q0 -78 -52.5 -127t-122.5 -49q-75 0 -120 47.5t-45 128.5h86q12 -80 84 -80zM549 24q-120 -41 -210 -41q-138 0 -223.5 78t-85.5 229q0 161 98 250t246 89q51 0 102 -10t78 -22l-32 -125q-29 14 -75 25t-83 11q-87 0 -129.5 -46.5t-42.5 -145.5
q0 -63 16.5 -107t44.5 -64.5t54.5 -28.5t56.5 -8q20 0 48 2l-1 194h138v-280z" />
    <glyph glyph-name="gbreve" unicode="&#x11f;" horiz-adv-x="468" 
d="M254 599q72 0 83 80h87q0 -78 -52.5 -127t-122.5 -49q-75 0 -120 47.5t-45 128.5h86q12 -80 84 -80zM266 305q0 78 -65 78q-24 0 -33.5 -15t-9.5 -54q0 -78 65 -78q22 0 32.5 16t10.5 53zM458 -19q0 -86 -78.5 -147.5t-196.5 -61.5q-94 0 -141 34t-47 84q0 9 2 18.5
t4.5 16t8 14t9 12t10 11t9.5 8.5t10 7.5t8 6.5l33 22q-46 24 -46 73q0 43 55 90q-86 37 -86 131q0 76 56.5 121.5t159.5 45.5q70 0 117 -29q118 31 120 29v-118h-19l-40 7q5 -20 5 -38q0 -75 -58.5 -121.5t-152.5 -46.5h-17q-7 -10 -7 -22q0 -24 46 -25l104 -5
q67 -4 99.5 -30.5t32.5 -86.5zM220 -122q44 0 71.5 19t27.5 45q0 30 -56 34l-91 8h-3l-2 -4q-32 -32 -32 -52q0 -21 21 -35.5t64 -14.5z" />
    <glyph glyph-name="Gdotaccent" unicode="&#x120;" horiz-adv-x="600" 
d="M237 745q0 24 31 58t55 34t60 -28t36 -52t-32 -57t-55 -33q-24 0 -59.5 27.5t-35.5 50.5zM549 24q-120 -41 -210 -41q-138 0 -223.5 78t-85.5 229q0 161 98 250t246 89q51 0 102 -10t78 -22l-32 -125q-29 14 -75 25t-83 11q-87 0 -129.5 -46.5t-42.5 -145.5
q0 -63 16.5 -107t44.5 -64.5t54.5 -28.5t56.5 -8q20 0 48 2l-1 194h138v-280z" />
    <glyph glyph-name="gdotaccent" unicode="&#x121;" horiz-adv-x="468" 
d="M135 595q0 24 31 58t55 34t60 -28t36 -52t-32 -57t-55 -33q-24 0 -59.5 27.5t-35.5 50.5zM266 305q0 78 -65 78q-24 0 -33.5 -15t-9.5 -54q0 -78 65 -78q22 0 32.5 16t10.5 53zM458 -19q0 -86 -78.5 -147.5t-196.5 -61.5q-94 0 -141 34t-47 84q0 9 2 18.5t4.5 16t8 14
t9 12t10 11t9.5 8.5t10 7.5t8 6.5l33 22q-46 24 -46 73q0 43 55 90q-86 37 -86 131q0 76 56.5 121.5t159.5 45.5q70 0 117 -29q118 31 120 29v-118h-19l-40 7q5 -20 5 -38q0 -75 -58.5 -121.5t-152.5 -46.5h-17q-7 -10 -7 -22q0 -24 46 -25l104 -5q67 -4 99.5 -30.5
t32.5 -86.5zM220 -122q44 0 71.5 19t27.5 45q0 30 -56 34l-91 8h-3l-2 -4q-32 -32 -32 -52q0 -21 21 -35.5t64 -14.5z" />
    <glyph glyph-name="Gcommaaccent" unicode="&#x122;" horiz-adv-x="600" 
d="M549 24q-120 -41 -210 -41q-138 0 -223.5 78t-85.5 229q0 161 98 250t246 89q51 0 102 -10t78 -22l-32 -125q-29 14 -75 25t-83 11q-87 0 -129.5 -46.5t-42.5 -145.5q0 -63 16.5 -107t44.5 -64.5t54.5 -28.5t56.5 -8q20 0 48 2l-1 194h138v-280zM268 -99q0 19 22 39.5
t44 20.5q21 0 46 -26t25 -43q0 -48 -72 -157l-69 27q5 12 15.5 33t17.5 35.5t7 20.5t-18 23t-18 27z" />
    <glyph glyph-name="gcommaaccent" unicode="&#x123;" horiz-adv-x="468" 
d="M282 563q0 -19 -22 -39.5t-44 -20.5q-21 0 -46 26t-25 43q0 48 72 157l69 -27q-5 -12 -15.5 -33t-17.5 -35.5t-7 -20.5t18 -23t18 -27zM266 305q0 78 -65 78q-24 0 -33.5 -15t-9.5 -54q0 -78 65 -78q22 0 32.5 16t10.5 53zM458 -19q0 -86 -78.5 -147.5t-196.5 -61.5
q-94 0 -141 34t-47 84q0 9 2 18.5t4.5 16t8 14t9 12t10 11t9.5 8.5t10 7.5t8 6.5l33 22q-46 24 -46 73q0 43 55 90q-86 37 -86 131q0 76 56.5 121.5t159.5 45.5q70 0 117 -29q118 31 120 29v-118h-19l-40 7q5 -20 5 -38q0 -75 -58.5 -121.5t-152.5 -46.5h-17q-7 -10 -7 -22
q0 -24 46 -25l104 -5q67 -4 99.5 -30.5t32.5 -86.5zM220 -122q44 0 71.5 19t27.5 45q0 30 -56 34l-91 8h-3l-2 -4q-32 -32 -32 -52q0 -21 21 -35.5t64 -14.5z" />
    <glyph glyph-name="Hcircumflex" unicode="&#x124;" horiz-adv-x="655" 
d="M403 653l-75 67l-76 -67h-109l116 165h137l117 -165h-110zM436 0v250h-217v-250h-159v612h159v-236h217v236h159v-612h-159z" />
    <glyph glyph-name="hcircumflex" unicode="&#x125;" horiz-adv-x="527" 
d="M202 701l-75 67l-76 -67h-109l116 165h137l117 -165h-110zM258 355q-34 0 -60 -16v-339h-153v673l153 21v-262q76 35 133 35q70 0 108 -35.5t38 -103.5v-328h-153v282q0 45 -18.5 59t-47.5 14z" />
    <glyph glyph-name="Hbar" unicode="&#x126;" horiz-adv-x="655" 
d="M436 376v66h-217v-66h217zM436 0v250h-217v-250h-159v442h-61v22l23 81h38v67h159v-67h217v67h159v-67h61v-22l-23 -81h-38v-442h-159z" />
    <glyph glyph-name="hbar" unicode="&#x127;" 
d="M258 355q-34 0 -60 -16v-339h-153v534h-66v15l27 65h39v59l153 21v-80h146v-15l-27 -65h-119v-102q76 35 133 35q70 0 108 -35.5t38 -103.5v-328h-153v282q0 45 -18.5 59t-47.5 14z" />
    <glyph glyph-name="Itilde" unicode="&#x128;" horiz-adv-x="279" 
d="M261 810l41 -51q-56 -66 -106 -66q-15 0 -59 15.5t-54 15.5q-29 0 -62 -33l-44 49q1 1 10.5 12t19.5 21t24 22t28.5 19t27.5 7q18 0 59 -14t52 -14q32 0 63 17zM219 612v-612h-159v612h159z" />
    <glyph glyph-name="itilde" unicode="&#x129;" horiz-adv-x="243" 
d="M244 660l39 -71q-18 -24 -45.5 -44.5t-51.5 -20.5q-19 0 -69.5 17.5t-62.5 17.5q-6 0 -11.5 -1.5t-12.5 -6.5t-10 -7t-12 -9.5t-10 -8.5l-43 63q7 12 44.5 45.5t60.5 33.5t69 -17.5t59 -17.5q7 0 15 3t13 5.5t15 9.5t13 9zM198 469v-469h-153v448z" />
    <glyph glyph-name="Imacron" unicode="&#x12a;" horiz-adv-x="279" 
d="M281 788v-15l-26 -71h-245v15l26 71h245zM219 612v-612h-159v612h159z" />
    <glyph glyph-name="imacron" unicode="&#x12b;" horiz-adv-x="243" 
d="M249 637v-15l-26 -85h-226v15l27 85h225zM200 469v-469h-153v448z" />
    <glyph glyph-name="Ibreve" unicode="&#x12c;" horiz-adv-x="279" 
d="M144 754q66 0 69 81h90q0 -79 -48.5 -128t-115.5 -49q-72 0 -113 47.5t-41 129.5h90q0 -81 69 -81zM219 612v-612h-159v612h159z" />
    <glyph glyph-name="ibreve" unicode="&#x12d;" horiz-adv-x="243" 
d="M127 600q62 0 72 75h87q0 -76 -48.5 -122t-117.5 -46q-74 0 -113.5 44t-39.5 124h87q2 -35 21 -55t52 -20zM196 469v-469h-153v448z" />
    <glyph glyph-name="Iogonek" unicode="&#x12e;" horiz-adv-x="279" 
d="M143 0h-83v612h159v-612h1q-100 -70 -100 -121q0 -15 11.5 -24.5t26.5 -9.5q29 0 48 11l20 -64q-45 -25 -90 -25q-49 0 -79 26t-30 70q0 34 30.5 71t85.5 66z" />
    <glyph glyph-name="iogonek" unicode="&#x12f;" horiz-adv-x="243" 
d="M31 596q0 24 31 58t55 34t60 -27.5t36 -51.5t-32 -57.5t-54 -33.5q-25 0 -60.5 27.5t-35.5 50.5zM137 0h-92v448l153 21v-469h16q-100 -70 -100 -121q0 -15 11.5 -24.5t26.5 -9.5q29 0 48 11l20 -64q-45 -25 -90 -25q-49 0 -79 26t-30 70q0 34 30.5 71t85.5 66z" />
    <glyph glyph-name="Idotaccent" unicode="&#x130;" horiz-adv-x="279" 
d="M51 745q0 24 31 58t55 34t60 -28t36 -52t-32 -57t-55 -33q-24 0 -59.5 27.5t-35.5 50.5zM219 612v-612h-159v612h159z" />
    <glyph glyph-name="dotlessi" unicode="&#x131;" horiz-adv-x="243" 
d="M198 469v-469h-153v448z" />
    <glyph glyph-name="IJ" unicode="&#x132;" horiz-adv-x="646" 
d="M219 612v-612h-159v612h159zM579 612v-428q0 -99 -58 -150t-151 -51q-68 0 -107 18l22 121q43 -16 75 -16q60 0 60 68v438h159z" />
    <glyph glyph-name="ij" unicode="&#x133;" horiz-adv-x="488" 
d="M278 596q0 24 31 58t55 34t59.5 -27.5t35.5 -51.5t-31.5 -57.5t-54.5 -33.5q-24 0 -59.5 27.5t-35.5 50.5zM31 596q0 24 31 58t55 34t60 -27.5t36 -51.5t-32 -57.5t-54 -33.5q-25 0 -60.5 27.5t-35.5 50.5zM45 448l153 21v-469h-153v448zM287 -23v471l153 19v-472
q0 -98 -54 -162.5t-162 -64.5l-25 118q88 6 88 91z" />
    <glyph glyph-name="Jcircumflex" unicode="&#x134;" horiz-adv-x="385" 
d="M313 653l-75 67l-76 -67h-109l116 165h137l117 -165h-110zM319 612v-428q0 -99 -58 -150t-151 -51q-68 0 -107 18l22 121q43 -16 75 -16q60 0 60 68v438h159z" />
    <glyph glyph-name="jcircumflex" unicode="&#x135;" horiz-adv-x="243" 
d="M197 503l-75 67l-76 -67h-109l116 165h137l117 -165h-110zM45 -23v471l153 19v-472q0 -98 -54 -162.5t-162 -64.5l-25 118q88 6 88 91z" />
    <glyph glyph-name="Kcommaaccent" unicode="&#x136;" horiz-adv-x="613" 
d="M616 0h-191l-206 318l205 294h177l-223 -279zM219 612v-612h-159v612h159zM233 -99q0 19 22 39.5t44 20.5q21 0 46 -26t25 -43q0 -48 -72 -157l-69 27q5 12 15.5 33t17.5 35.5t7 20.5t-18 23t-18 27z" />
    <glyph glyph-name="kcommaaccent" unicode="&#x137;" horiz-adv-x="516" 
d="M45 0v678l153 16v-694h-153zM511 0h-170l-142 243l-1 1l148 206h158l-151 -198zM192 -99q0 19 22 39.5t44 20.5q21 0 46 -26t25 -43q0 -48 -72 -157l-69 27q5 12 15.5 33t17.5 35.5t7 20.5t-18 23t-18 27z" />
    <glyph glyph-name="Lacute" unicode="&#x139;" horiz-adv-x="474" 
d="M39 653l129 165l152 -27l-156 -138h-125zM60 0v612h159v-494l243 3l-15 -121h-387z" />
    <glyph glyph-name="lacute" unicode="&#x13a;" horiz-adv-x="267" 
d="M19 705l129 165l152 -27l-156 -138h-125zM258 113l10 -112q-50 -18 -106 -18q-127 0 -127 126v566l154 19v-551q0 -35 35 -35q12 0 34 5z" />
    <glyph glyph-name="Lcommaaccent" unicode="&#x13b;" horiz-adv-x="474" 
d="M60 0v612h159v-494l243 3l-15 -121h-387zM180 -99q0 19 22 39.5t44 20.5q21 0 46 -26t25 -43q0 -48 -72 -157l-69 27q5 12 15.5 33t17.5 35.5t7 20.5t-18 23t-18 27z" />
    <glyph glyph-name="lcommaaccent" unicode="&#x13c;" horiz-adv-x="267" 
d="M258 113l10 -112q-50 -18 -106 -18q-127 0 -127 126v566l154 19v-551q0 -35 35 -35q12 0 34 5zM93 -99q0 19 22 39.5t44 20.5q21 0 46 -26t25 -43q0 -48 -72 -157l-69 27q5 12 15.5 33t17.5 35.5t7 20.5t-18 23t-18 27z" />
    <glyph glyph-name="Lcaron" unicode="&#x13d;" horiz-adv-x="492" 
d="M60 0v612h159v-494l243 3l-15 -121h-387z" />
    <glyph glyph-name="lcaron" unicode="&#x13e;" horiz-adv-x="407" 
d="M272 646q-1 18 26.5 33.5t50.5 15.5q26 0 41.5 -34.5t15.5 -70.5q0 -60 -94 -190l-60 30q36 67 36 128q0 20 -8 48t-8 40zM258 113l10 -112q-50 -18 -106 -18q-127 0 -127 126v566l154 19v-551q0 -35 35 -35q12 0 34 5z" />
    <glyph glyph-name="Ldot" unicode="&#x13f;" horiz-adv-x="493" 
d="M278 331q0 24 31 58t55 34t60 -28t36 -52t-32 -57t-55 -33q-24 0 -59.5 27.5t-35.5 50.5zM60 0v612h159v-494l243 3l-15 -121h-387z" />
    <glyph glyph-name="ldot" unicode="&#x140;" horiz-adv-x="423" 
d="M258 113l10 -112q-50 -18 -106 -18q-127 0 -127 126v566l154 19v-551q0 -35 35 -35q12 0 34 5zM236 283q0 24 31 58t55 34t60 -28t36 -52t-32 -57t-55 -33q-24 0 -59.5 27.5t-35.5 50.5z" />
    <glyph glyph-name="Lslash" unicode="&#x141;" horiz-adv-x="485" 
d="M83 0v232l-63 -26v108l63 26v272h159v-208l126 51v-108l-126 -51v-178l243 3l-15 -121h-387z" />
    <glyph glyph-name="lslash" unicode="&#x142;" horiz-adv-x="302" 
d="M174 -17q-127 0 -127 126v146l-50 -20v106l50 20v314l154 19v-271l79 32v-106l-79 -32v-174q0 -35 35 -35q12 0 34 5l10 -112q-50 -18 -106 -18z" />
    <glyph glyph-name="Nacute" unicode="&#x143;" horiz-adv-x="655" 
d="M220 653l129 165l152 -27l-156 -138h-125zM451 0l-249 368v-368h-142v612h158l235 -358v358h142v-612h-144z" />
    <glyph glyph-name="nacute" unicode="&#x144;" 
d="M157 503l129 165l152 -27l-156 -138h-125zM257 355q-33 0 -59 -16v-339h-153v446l109 21l27 -43q82 43 150 43q65 0 105.5 -34.5t40.5 -103.5v-329h-153v282q0 73 -67 73z" />
    <glyph glyph-name="Ncommaaccent" unicode="&#x145;" horiz-adv-x="655" 
d="M451 0l-249 368v-368h-142v612h158l235 -358v358h142v-612h-144zM262 -99q0 19 22 39.5t44 20.5q21 0 46 -26t25 -43q0 -48 -72 -157l-69 27q5 12 15.5 33t17.5 35.5t7 20.5t-18 23t-18 27z" />
    <glyph glyph-name="ncommaaccent" unicode="&#x146;" 
d="M257 355q-33 0 -59 -16v-339h-153v446l109 21l27 -43q82 43 150 43q65 0 105.5 -34.5t40.5 -103.5v-329h-153v282q0 73 -67 73zM192 -99q0 19 22 39.5t44 20.5q21 0 46 -26t25 -43q0 -48 -72 -157l-69 27q5 12 15.5 33t17.5 35.5t7 20.5t-18 23t-18 27z" />
    <glyph glyph-name="Ncaron" unicode="&#x147;" horiz-adv-x="655" 
d="M403 658h-136l-118 165h111l75 -66l75 66h109zM451 0l-249 368v-368h-142v612h158l235 -358v358h142v-612h-144z" />
    <glyph glyph-name="ncaron" unicode="&#x148;" 
d="M339 508h-136l-118 165h111l75 -66l75 66h109zM257 355q-33 0 -59 -16v-339h-153v446l109 21l27 -43q82 43 150 43q65 0 105.5 -34.5t40.5 -103.5v-329h-153v282q0 73 -67 73z" />
    <glyph glyph-name="Eng" unicode="&#x14a;" horiz-adv-x="655" 
d="M396 -186q-67 0 -107 17l21 122q54 -22 90 -22q46 0 46 68v8l-244 361v-368h-142v612h158l235 -358v358h142v-612h-1q-7 -85 -60.5 -135.5t-137.5 -50.5z" />
    <glyph glyph-name="eng" unicode="&#x14b;" 
d="M261 -232l-25 118q88 6 88 89v307q0 73 -67 73q-33 0 -59 -16v-339h-153v446l109 21l27 -43q82 43 150 43q65 0 105.5 -34.5t40.5 -103.5v-334q0 -98 -54 -162.5t-162 -64.5z" />
    <glyph glyph-name="Omacron" unicode="&#x14c;" horiz-adv-x="682" 
d="M482 780v-15l-26 -88h-265v15l26 88h265zM652 318q0 -154 -92 -244.5t-243 -90.5q-131 0 -209 83t-78 228q0 154 92.5 244.5t243.5 90.5q131 0 208.5 -83.5t77.5 -227.5zM489 290q0 224 -165 224q-131 0 -131 -192q0 -224 166 -224q130 0 130 192z" />
    <glyph glyph-name="omacron" unicode="&#x14d;" 
d="M411 630v-15l-26 -88h-265v15l26 88h265zM500 234q0 -115 -69.5 -183t-184.5 -67q-103 -1 -163 57t-60 175q0 115 69 183t183 68q107 0 166 -57.5t59 -175.5zM344 213q0 86 -24.5 117.5t-68.5 31.5q-36 0 -54.5 -25.5t-18.5 -99.5q0 -86 25 -117.5t69 -31.5
q35 0 53.5 25.5t18.5 99.5z" />
    <glyph glyph-name="Obreve" unicode="&#x14e;" horiz-adv-x="682" 
d="M348 749q72 0 83 80h87q0 -78 -52.5 -127t-122.5 -49q-75 0 -120 47.5t-45 128.5h86q12 -80 84 -80zM652 318q0 -154 -92 -244.5t-243 -90.5q-131 0 -209 83t-78 228q0 154 92.5 244.5t243.5 90.5q131 0 208.5 -83.5t77.5 -227.5zM489 290q0 224 -165 224
q-131 0 -131 -192q0 -224 166 -224q130 0 130 192z" />
    <glyph glyph-name="obreve" unicode="&#x14f;" 
d="M288 599q72 0 83 80h87q0 -78 -52.5 -127t-122.5 -49q-75 0 -120 47.5t-45 128.5h86q12 -80 84 -80zM500 234q0 -115 -69.5 -183t-184.5 -67q-103 -1 -163 57t-60 175q0 115 69 183t183 68q107 0 166 -57.5t59 -175.5zM344 213q0 86 -24.5 117.5t-68.5 31.5
q-36 0 -54.5 -25.5t-18.5 -99.5q0 -86 25 -117.5t69 -31.5q35 0 53.5 25.5t18.5 99.5z" />
    <glyph glyph-name="Ohungarumlaut" unicode="&#x150;" horiz-adv-x="682" 
d="M336 653l112 165l153 -27l-140 -138h-125zM161 653l112 165l152 -27l-139 -138h-125zM652 318q0 -154 -92 -244.5t-243 -90.5q-131 0 -209 83t-78 228q0 154 92.5 244.5t243.5 90.5q131 0 208.5 -83.5t77.5 -227.5zM489 290q0 224 -165 224q-131 0 -131 -192
q0 -224 166 -224q130 0 130 192z" />
    <glyph glyph-name="ohungarumlaut" unicode="&#x151;" 
d="M277 503l112 165l153 -27l-140 -138h-125zM102 503l112 165l152 -27l-139 -138h-125zM500 234q0 -115 -69.5 -183t-184.5 -67q-103 -1 -163 57t-60 175q0 115 69 183t183 68q107 0 166 -57.5t59 -175.5zM344 213q0 86 -24.5 117.5t-68.5 31.5q-36 0 -54.5 -25.5
t-18.5 -99.5q0 -86 25 -117.5t69 -31.5q35 0 53.5 25.5t18.5 99.5z" />
    <glyph glyph-name="OE" unicode="&#x152;" horiz-adv-x="863" 
d="M360 98q44 0 74 24v353q-41 39 -110 39q-131 0 -131 -192q0 -224 167 -224zM826 0h-382q-58 -17 -128 -17q-130 0 -208 83t-78 228q0 154 92.5 244.5t242.5 90.5q55 0 112 -17h347l-14 -118l-217 2v-129h203l-10 -111l-193 2v-140l247 3z" />
    <glyph glyph-name="oe" unicode="&#x153;" horiz-adv-x="794" 
d="M561 372q-27 0 -41 -19t-18 -67h126q0 86 -67 86zM344 213q0 86 -24.5 117.5t-68.5 31.5q-36 0 -54.5 -25.5t-18.5 -99.5q0 -86 25 -117.5t69 -31.5q35 0 53.5 25.5t18.5 99.5zM768 26q-83 -43 -194 -43q-100 0 -158 55q-66 -54 -170 -54q-103 -1 -163 57t-60 175
q0 115 69 183t183 68q102 0 158 -50q61 50 151 50q181 0 181 -199q0 -36 -6 -68h-257q13 -102 106 -102q65 0 137 26z" />
    <glyph glyph-name="Racute" unicode="&#x154;" horiz-adv-x="568" 
d="M146 653l129 165l152 -27l-156 -138h-125zM272 333q36 0 61 19.5t25 56.5q0 100 -125 100h-14v-173q21 -3 53 -3zM246 233q-17 0 -27 1v-234h-159v612h236q105 0 164 -45t59 -127q0 -102 -102 -162l148 -278h-172l-111 235q-24 -2 -36 -2z" />
    <glyph glyph-name="racute" unicode="&#x155;" horiz-adv-x="341" 
d="M92 503l129 165l152 -27l-156 -138h-125zM281 337q-47 0 -83 -13v-324h-153v446l109 21l33 -52q64 52 116 52q19 0 43 -4l-18 -130q-14 4 -47 4z" />
    <glyph glyph-name="Rcommaaccent" unicode="&#x156;" horiz-adv-x="568" 
d="M272 333q36 0 61 19.5t25 56.5q0 100 -125 100h-14v-173q21 -3 53 -3zM246 233q-17 0 -27 1v-234h-159v612h236q105 0 164 -45t59 -127q0 -102 -102 -162l148 -278h-172l-111 235q-24 -2 -36 -2zM217 -99q0 19 22 39.5t44 20.5q21 0 46 -26t25 -43q0 -48 -72 -157l-69 27
q5 12 15.5 33t17.5 35.5t7 20.5t-18 23t-18 27z" />
    <glyph glyph-name="rcommaaccent" unicode="&#x157;" horiz-adv-x="341" 
d="M281 337q-47 0 -83 -13v-324h-153v446l109 21l33 -52q64 52 116 52q19 0 43 -4l-18 -130q-14 4 -47 4zM61 -99q0 19 22 39.5t44 20.5q21 0 46 -26t25 -43q0 -48 -72 -157l-69 27q5 12 15.5 33t17.5 35.5t7 20.5t-18 23t-18 27z" />
    <glyph glyph-name="Rcaron" unicode="&#x158;" horiz-adv-x="568" 
d="M343 658h-136l-118 165h111l75 -66l75 66h109zM272 333q36 0 61 19.5t25 56.5q0 100 -125 100h-14v-173q21 -3 53 -3zM246 233q-17 0 -27 1v-234h-159v612h236q105 0 164 -45t59 -127q0 -102 -102 -162l148 -278h-172l-111 235q-24 -2 -36 -2z" />
    <glyph glyph-name="rcaron" unicode="&#x159;" horiz-adv-x="341" 
d="M267 508h-136l-118 165h111l75 -66l75 66h109zM281 337q-47 0 -83 -13v-324h-153v446l109 21l33 -52q64 52 116 52q19 0 43 -4l-18 -130q-14 4 -47 4z" />
    <glyph glyph-name="Sacute" unicode="&#x15a;" horiz-adv-x="494" 
d="M153 653l129 165l152 -27l-156 -138h-125zM218 242q-97 35 -137.5 79.5t-40.5 111.5q0 88 63.5 142t175.5 54q105 0 175 -28l-32 -132q-92 38 -174 38q-27 0 -42.5 -14.5t-15.5 -36.5q0 -25 18 -42t77 -37q98 -32 140 -72.5t42 -110.5q0 -96 -68.5 -153.5t-177.5 -57.5
q-112 0 -189 31l24 141q109 -48 189 -48q31 0 48 16t17 41q0 26 -18.5 43t-73.5 35z" />
    <glyph glyph-name="sacute" unicode="&#x15b;" horiz-adv-x="415" 
d="M113 503l129 165l152 -27l-156 -138h-125zM197 -17q-99 0 -178 30l29 116q97 -37 160 -37q42 0 42 25q0 11 -1 17t-11.5 16.5t-31.5 17.5l-73 22q-54 18 -78.5 48t-24.5 79q0 65 55.5 107.5t139.5 42.5q88 0 159 -21l-23 -115q-79 31 -144 31q-46 0 -46 -29q0 -28 47 -42
l74 -22q104 -32 104 -131q0 -53 -35 -90t-78 -51t-86 -14z" />
    <glyph glyph-name="Scircumflex" unicode="&#x15c;" horiz-adv-x="494" 
d="M336 653l-75 67l-76 -67h-109l116 165h137l117 -165h-110zM218 242q-97 35 -137.5 79.5t-40.5 111.5q0 88 63.5 142t175.5 54q105 0 175 -28l-32 -132q-92 38 -174 38q-27 0 -42.5 -14.5t-15.5 -36.5q0 -25 18 -42t77 -37q98 -32 140 -72.5t42 -110.5q0 -96 -68.5 -153.5
t-177.5 -57.5q-112 0 -189 31l24 141q109 -48 189 -48q31 0 48 16t17 41q0 26 -18.5 43t-73.5 35z" />
    <glyph glyph-name="scircumflex" unicode="&#x15d;" horiz-adv-x="415" 
d="M297 503l-75 67l-76 -67h-109l116 165h137l117 -165h-110zM197 -17q-99 0 -178 30l29 116q97 -37 160 -37q42 0 42 25q0 11 -1 17t-11.5 16.5t-31.5 17.5l-73 22q-54 18 -78.5 48t-24.5 79q0 65 55.5 107.5t139.5 42.5q88 0 159 -21l-23 -115q-79 31 -144 31
q-46 0 -46 -29q0 -28 47 -42l74 -22q104 -32 104 -131q0 -53 -35 -90t-78 -51t-86 -14z" />
    <glyph glyph-name="Scedilla" unicode="&#x15e;" horiz-adv-x="494" 
d="M158 -238l-16 59q48 5 72 13t24 24q0 24 -72 39l-3 5l40 81q-103 3 -171 31l24 141q109 -48 189 -48q31 0 48 16t17 41q0 26 -18.5 43t-73.5 35q-97 35 -137.5 79.5t-40.5 111.5q0 88 63.5 142t175.5 54q105 0 175 -28l-32 -132q-92 38 -174 38q-27 0 -42.5 -14.5
t-15.5 -36.5q0 -25 18 -42t77 -37q98 -32 140 -72.5t42 -110.5q0 -86 -55 -141.5t-147 -66.5l-16 -37q87 -29 87 -77q0 -40 -44.5 -73t-133.5 -37z" />
    <glyph glyph-name="scedilla" unicode="&#x15f;" horiz-adv-x="415" 
d="M124 -238l-16 59q48 5 72 13t24 24q0 24 -72 39l-3 5l40 82q-79 3 -150 29l29 116q97 -37 160 -37q42 0 42 25q0 11 -1 17t-11.5 16.5t-31.5 17.5l-73 22q-54 18 -78.5 48t-24.5 79q0 65 55.5 107.5t139.5 42.5q88 0 159 -21l-23 -115q-79 31 -144 31q-46 0 -46 -29
q0 -28 47 -42l74 -22q104 -32 104 -131q0 -67 -49.5 -105t-115.5 -48l-16 -36q87 -29 87 -77q0 -40 -44.5 -73t-133.5 -37z" />
    <glyph glyph-name="Scaron" unicode="&#x160;" horiz-adv-x="494" 
d="M330 658h-136l-118 165h111l75 -66l75 66h109zM218 242q-97 35 -137.5 79.5t-40.5 111.5q0 88 63.5 142t175.5 54q105 0 175 -28l-32 -132q-92 38 -174 38q-27 0 -42.5 -14.5t-15.5 -36.5q0 -25 18 -42t77 -37q98 -32 140 -72.5t42 -110.5q0 -96 -68.5 -153.5
t-177.5 -57.5q-112 0 -189 31l24 141q109 -48 189 -48q31 0 48 16t17 41q0 26 -18.5 43t-73.5 35z" />
    <glyph glyph-name="scaron" unicode="&#x161;" horiz-adv-x="415" 
d="M295 508h-136l-118 165h111l75 -66l75 66h109zM197 -17q-99 0 -178 30l29 116q97 -37 160 -37q42 0 42 25q0 11 -1 17t-11.5 16.5t-31.5 17.5l-73 22q-54 18 -78.5 48t-24.5 79q0 65 55.5 107.5t139.5 42.5q88 0 159 -21l-23 -115q-79 31 -144 31q-46 0 -46 -29
q0 -28 47 -42l74 -22q104 -32 104 -131q0 -53 -35 -90t-78 -51t-86 -14z" />
    <glyph glyph-name="Tcommaaccent" unicode="&#x162;" horiz-adv-x="517" 
d="M505 491l-165 3v-494h-158v494l-187 -3l18 121h509zM182 -99q0 19 22 39.5t44 20.5q21 0 46 -26t25 -43q0 -48 -72 -157l-69 27q5 12 15.5 33t17.5 35.5t7 20.5t-18 23t-18 27z" />
    <glyph glyph-name="tcommaaccent" unicode="&#x163;" horiz-adv-x="364" 
d="M348 15q-70 -32 -139 -32q-63 0 -106 34.5t-42 105.5l3 224h-63v93l64 10l1 83l152 20l-1 -103h135l-10 -103h-127l-2 -164q-1 -42 13.5 -61t47.5 -19q30 0 64 12zM118 -99q0 19 22 39.5t44 20.5q21 0 46 -26t25 -43q0 -48 -72 -157l-69 27q5 12 15.5 33t17.5 35.5
t7 20.5t-18 23t-18 27z" />
    <glyph glyph-name="Tcaron" unicode="&#x164;" horiz-adv-x="517" 
d="M326 658h-136l-118 165h111l75 -66l75 66h109zM505 491l-165 3v-494h-158v494l-187 -3l18 121h509z" />
    <glyph glyph-name="tcaron" unicode="&#x165;" horiz-adv-x="364" 
d="M285 715q-1 18 26.5 33.5t50.5 15.5q26 0 41.5 -34.5t15.5 -70.5q0 -60 -94 -190l-60 30q36 67 36 128q0 20 -8 48t-8 40zM348 15q-70 -32 -139 -32q-63 0 -106 34.5t-42 105.5l3 224h-63v93l64 10l1 83l152 20l-1 -103h135l-10 -103h-127l-2 -164q-1 -42 13.5 -61
t47.5 -19q30 0 64 12z" />
    <glyph glyph-name="Tbar" unicode="&#x166;" horiz-adv-x="517" 
d="M456 258h-116v-258h-158v258h-159v15l23 89h136v132l-187 -3l18 121h509l-17 -121l-165 3v-132h139v-15z" />
    <glyph glyph-name="tbar" unicode="&#x167;" horiz-adv-x="364" 
d="M348 15q-70 -32 -139 -32q-63 0 -106 34.5t-42 105.5l1 77h-59v15l27 65h33l1 67h-63v93l64 10l1 83l152 20l-1 -103h135l-10 -103h-127l-1 -67h130v-15l-27 -65h-104v-17q-1 -42 13.5 -61t47.5 -19q30 0 64 12z" />
    <glyph glyph-name="Utilde" unicode="&#x168;" horiz-adv-x="635" 
d="M456 809l52 -53q-12 -31 -53 -66.5t-71 -35.5q-19 0 -69 16.5t-62 16.5q-17 0 -37.5 -16t-27.5 -26l-47 62q8 14 49 52t68 38q23 0 68.5 -16.5t58.5 -16.5q30 0 71 45zM54 209v403h159v-372q0 -122 119 -122q42 0 68.5 23t26.5 66v405h154v-386q0 -114 -74 -179.5
t-200 -63.5q-126 1 -189.5 59.5t-63.5 166.5z" />
    <glyph glyph-name="utilde" unicode="&#x169;" 
d="M411 659l52 -53q-12 -31 -53 -66.5t-71 -35.5q-19 0 -69 16.5t-62 16.5q-17 0 -37.5 -16t-27.5 -26l-47 62q8 14 49 52t68 38q23 0 68.5 -16.5t58.5 -16.5q30 0 71 45zM373 -17l-32 42q-84 -42 -150 -42q-65 0 -105.5 34.5t-40.5 103.5v325l153 21v-299q0 -43 18.5 -58
t47.5 -15q34 0 60 16v335l153 21v-463z" />
    <glyph glyph-name="Umacron" unicode="&#x16a;" horiz-adv-x="635" 
d="M472 780v-15l-26 -88h-265v15l26 88h265zM54 209v403h159v-372q0 -122 119 -122q42 0 68.5 23t26.5 66v405h154v-386q0 -114 -74 -179.5t-200 -63.5q-126 1 -189.5 59.5t-63.5 166.5z" />
    <glyph glyph-name="umacron" unicode="&#x16b;" 
d="M425 630v-15l-26 -88h-265v15l26 88h265zM373 -17l-32 42q-84 -42 -150 -42q-65 0 -105.5 34.5t-40.5 103.5v325l153 21v-299q0 -43 18.5 -58t47.5 -15q34 0 60 16v335l153 21v-463z" />
    <glyph glyph-name="Ubreve" unicode="&#x16c;" horiz-adv-x="635" 
d="M324 749q72 0 83 80h87q0 -78 -52.5 -127t-122.5 -49q-75 0 -120 47.5t-45 128.5h86q12 -80 84 -80zM54 209v403h159v-372q0 -122 119 -122q42 0 68.5 23t26.5 66v405h154v-386q0 -114 -74 -179.5t-200 -63.5q-126 1 -189.5 59.5t-63.5 166.5z" />
    <glyph glyph-name="ubreve" unicode="&#x16d;" 
d="M300 599q72 0 83 80h87q0 -78 -52.5 -127t-122.5 -49q-75 0 -120 47.5t-45 128.5h86q12 -80 84 -80zM373 -17l-32 42q-84 -42 -150 -42q-65 0 -105.5 34.5t-40.5 103.5v325l153 21v-299q0 -43 18.5 -58t47.5 -15q34 0 60 16v335l153 21v-463z" />
    <glyph glyph-name="Uring" unicode="&#x16e;" horiz-adv-x="635" 
d="M430 751q0 -41 -32 -71.5t-75 -30.5q-45 0 -75.5 28t-30.5 74q0 42 32 73t75 31q46 0 76 -27.5t30 -76.5zM281 751q0 -17 12 -29t30 -12t30.5 12t12.5 29q0 19 -12.5 31.5t-30.5 12.5t-30 -12.5t-12 -31.5zM54 209v403h159v-372q0 -122 119 -122q42 0 68.5 23t26.5 66
v405h154v-386q0 -114 -74 -179.5t-200 -63.5q-126 1 -189.5 59.5t-63.5 166.5z" />
    <glyph glyph-name="uring" unicode="&#x16f;" 
d="M383 601q0 -41 -32 -71.5t-75 -30.5q-45 0 -75.5 28t-30.5 74q0 42 32 73t75 31q46 0 76 -27.5t30 -76.5zM234 601q0 -17 12 -29t30 -12t30.5 12t12.5 29q0 19 -12.5 31.5t-30.5 12.5t-30 -12.5t-12 -31.5zM373 -17l-32 42q-84 -42 -150 -42q-65 0 -105.5 34.5
t-40.5 103.5v325l153 21v-299q0 -43 18.5 -58t47.5 -15q34 0 60 16v335l153 21v-463z" />
    <glyph glyph-name="Uhungarumlaut" unicode="&#x170;" horiz-adv-x="635" 
d="M290 653l112 165l153 -27l-140 -138h-125zM115 653l112 165l152 -27l-139 -138h-125zM54 209v403h159v-372q0 -122 119 -122q42 0 68.5 23t26.5 66v405h154v-386q0 -114 -74 -179.5t-200 -63.5q-126 1 -189.5 59.5t-63.5 166.5z" />
    <glyph glyph-name="uhungarumlaut" unicode="&#x171;" 
d="M279 503l112 165l153 -27l-140 -138h-125zM104 503l112 165l152 -27l-139 -138h-125zM373 -17l-32 42q-84 -42 -150 -42q-65 0 -105.5 34.5t-40.5 103.5v325l153 21v-299q0 -43 18.5 -58t47.5 -15q34 0 60 16v335l153 21v-463z" />
    <glyph glyph-name="Uogonek" unicode="&#x172;" horiz-adv-x="635" 
d="M386 -213q-49 0 -79 26t-30 70q0 51 61 101q-10 -1 -31 -1q-126 1 -189.5 59.5t-63.5 166.5v403h159v-372q0 -122 119 -122q42 0 68.5 23t26.5 66v405h154v-386q0 -143 -112 -206h1q-100 -70 -100 -121q0 -15 11.5 -24.5t26.5 -9.5q29 0 48 11l20 -64q-45 -25 -90 -25z
" />
    <glyph glyph-name="uogonek" unicode="&#x173;" 
d="M394 -233q-49 0 -79 26t-30 70q0 64 88 120l-32 42q-84 -42 -150 -42q-65 0 -105.5 34.5t-40.5 103.5v325l153 21v-299q0 -43 18.5 -58t47.5 -15q34 0 60 16v335l153 21v-463l-20 -4h21q-100 -70 -100 -121q0 -15 11.5 -24.5t26.5 -9.5q29 0 48 11l20 -64
q-45 -25 -90 -25z" />
    <glyph glyph-name="Wcircumflex" unicode="&#x174;" horiz-adv-x="900" 
d="M534 653l-75 67l-76 -67h-109l116 165h137l117 -165h-110zM565 0l-117 367l-123 -367h-180l-130 612h160l84 -414l129 414h143l128 -411l79 411h147l-137 -612h-183z" />
    <glyph glyph-name="wcircumflex" unicode="&#x175;" horiz-adv-x="734" 
d="M452 503l-75 67l-76 -67h-109l116 165h137l117 -165h-110zM446 0l-80 251l-91 -251h-158l-113 441l154 20l62 -306l83 286l136 20l91 -304l55 293h145l-124 -450h-160z" />
    <glyph glyph-name="Ycircumflex" unicode="&#x176;" horiz-adv-x="557" 
d="M369 653l-75 67l-76 -67h-109l116 165h137l117 -165h-110zM357 217v-217h-158v217l-214 395h174l128 -241l128 241h155z" />
    <glyph glyph-name="ycircumflex" unicode="&#x177;" horiz-adv-x="483" 
d="M321 503l-75 67l-76 -67h-109l116 165h137l117 -165h-110zM89 -238q-41 0 -71 8l-6 118q77 -10 123 14t73 93q0 1 1 2.5t1 2.5h-70l-145 441l160 20l95 -328q41 149 80 317h151q-3 -11 -24.5 -88.5t-41 -145.5t-43 -145.5t-37.5 -114.5q-33 -97 -97 -145.5t-149 -48.5z
" />
    <glyph glyph-name="Ydieresis" unicode="&#x178;" horiz-adv-x="557" 
d="M311 730q0 21 28 51.5t49 30.5q23 0 54.5 -25t31.5 -48q0 -21 -28.5 -51t-48.5 -30q-22 0 -54 25t-32 47zM116 730q0 21 27.5 51.5t48.5 30.5q23 0 54.5 -25t31.5 -48q0 -21 -28 -51t-48 -30q-23 0 -54.5 25t-31.5 47zM357 217v-217h-158v217l-214 395h174l128 -241
l128 241h155z" />
    <glyph glyph-name="Zacute" unicode="&#x179;" horiz-adv-x="525" 
d="M156 653l129 165l152 -27l-156 -138h-125zM491 0h-462v103l274 388l-276 -5l22 126h439v-104l-273 -389l299 5z" />
    <glyph glyph-name="zacute" unicode="&#x17a;" horiz-adv-x="432" 
d="M108 503l129 165l152 -27l-156 -138h-125zM405 0h-381v99l193 239l-196 1l10 111h367v-107l-194 -236h211z" />
    <glyph glyph-name="Zdotaccent" unicode="&#x17b;" horiz-adv-x="525" 
d="M183 745q0 24 31 58t55 34t60 -28t36 -52t-32 -57t-55 -33q-24 0 -59.5 27.5t-35.5 50.5zM491 0h-462v103l274 388l-276 -5l22 126h439v-104l-273 -389l299 5z" />
    <glyph glyph-name="zdotaccent" unicode="&#x17c;" horiz-adv-x="432" 
d="M139 595q0 24 31 58t55 34t60 -28t36 -52t-32 -57t-55 -33q-24 0 -59.5 27.5t-35.5 50.5zM405 0h-381v99l193 239l-196 1l10 111h367v-107l-194 -236h211z" />
    <glyph glyph-name="Zcaron" unicode="&#x17d;" horiz-adv-x="525" 
d="M339 658h-136l-118 165h111l75 -66l75 66h109zM491 0h-462v103l274 388l-276 -5l22 126h439v-104l-273 -389l299 5z" />
    <glyph glyph-name="zcaron" unicode="&#x17e;" horiz-adv-x="432" 
d="M296 508h-136l-118 165h111l75 -66l75 66h109zM405 0h-381v99l193 239l-196 1l10 111h367v-107l-194 -236h211z" />
    <glyph glyph-name="Acaron" unicode="&#x1cd;" horiz-adv-x="593" 
d="M371 658h-136l-118 165h111l75 -66l75 66h109zM361 246l-70 232l-72 -232h142zM435 0l-42 138h-207l-43 -138h-148l204 612h207l192 -612h-163z" />
    <glyph glyph-name="acaron" unicode="&#x1ce;" horiz-adv-x="466" 
d="M314 508h-136l-118 165h111l75 -66l75 66h109zM317 -17l-28 46q-69 -46 -126 -46q-62 0 -102 37t-40 98q0 146 250 160v4q0 37 -16 51.5t-51 14.5q-57 0 -139 -30l-27 106q122 43 212 43q171 0 171 -157v-306zM214 86q21 0 57 15v83q-23 4 -46 4q-69 0 -69 -50
q0 -22 15 -37t43 -15z" />
    <glyph glyph-name="AEacute" unicode="&#x1fc;" horiz-adv-x="797" 
d="M370 653l129 165l152 -27l-156 -138h-125zM354 482l-110 -236h122v237zM366 0v138h-173l-64 -138h-157l316 612h468l-14 -118l-217 2v-129h203l-10 -111l-193 2v-140l247 3l-14 -121h-392z" />
    <glyph glyph-name="aeacute" unicode="&#x1fd;" horiz-adv-x="717" 
d="M280 503l129 165l152 -27l-156 -138h-125zM485 372q-29 0 -43 -18.5t-18 -67.5h126q0 42 -17.5 64t-47.5 22zM691 26q-75 -43 -188 -43q-103 0 -163 61q-92 -61 -172 -61q-65 0 -106 36.5t-41 98.5q0 148 253 160q0 37 -14 53t-54 16q-64 0 -140 -30l-28 107
q122 43 212 43q82 0 124 -39q56 39 132 39q181 0 181 -196q0 -31 -5 -71h-258q13 -102 108 -102q73 0 136 26zM214 86q34 0 85 23q-8 21 -12 46l-13 4v25q-24 4 -49 4q-69 0 -69 -50q0 -22 15 -37t43 -15z" />
    <glyph glyph-name="Oslashacute" unicode="&#x1fe;" horiz-adv-x="682" 
d="M223 653l129 165l152 -27l-156 -138h-125zM193 322q0 -94 30 -149l159 332q-27 9 -58 9q-131 0 -131 -192zM359 98q130 0 130 192q0 97 -31 151l-160 -334q27 -9 61 -9zM317 -17q-37 0 -75 8l-35 -74h-106l53 111q-124 79 -124 266q0 154 92.5 244.5t243.5 90.5
q40 0 71 -7l34 71h107l-51 -107q125 -81 125 -268q0 -154 -92 -244.5t-243 -90.5z" />
    <glyph glyph-name="oslashacute" unicode="&#x1ff;" horiz-adv-x="517" 
d="M156 503l129 165l152 -27l-156 -138h-125zM178 237q0 -45 8 -79l102 198q-16 6 -37 6q-36 0 -54.5 -25.5t-18.5 -99.5zM272 88q35 0 53.5 25.5t18.5 99.5q0 47 -8 79l-102 -198q18 -6 38 -6zM246 -16q-35 0 -65 6l-32 -61h-81l45 88q-90 56 -90 199q0 115 69 183t183 68
q35 0 67 -6l32 62h81l-46 -89q91 -55 91 -200q0 -115 -69.5 -183t-184.5 -67z" />
    <glyph glyph-name="Scommaaccent" unicode="&#x218;" horiz-adv-x="494" 
d="M218 242q-97 35 -137.5 79.5t-40.5 111.5q0 88 63.5 142t175.5 54q105 0 175 -28l-32 -132q-92 38 -174 38q-27 0 -42.5 -14.5t-15.5 -36.5q0 -25 18 -42t77 -37q98 -32 140 -72.5t42 -110.5q0 -96 -68.5 -153.5t-177.5 -57.5q-112 0 -189 31l24 141q109 -48 189 -48
q31 0 48 16t17 41q0 26 -18.5 43t-73.5 35zM188 -99q0 19 22 39.5t44 20.5q21 0 46 -26t25 -43q0 -48 -72 -157l-69 27q5 12 15.5 33t17.5 35.5t7 20.5t-18 23t-18 27z" />
    <glyph glyph-name="scommaaccent" unicode="&#x219;" horiz-adv-x="415" 
d="M197 -17q-99 0 -178 30l29 116q97 -37 160 -37q42 0 42 25q0 11 -1 17t-11.5 16.5t-31.5 17.5l-73 22q-54 18 -78.5 48t-24.5 79q0 65 55.5 107.5t139.5 42.5q88 0 159 -21l-23 -115q-79 31 -144 31q-46 0 -46 -29q0 -28 47 -42l74 -22q104 -32 104 -131q0 -53 -35 -90
t-78 -51t-86 -14zM145 -99q0 19 22 39.5t44 20.5q21 0 46 -26t25 -43q0 -48 -72 -157l-69 27q5 12 15.5 33t17.5 35.5t7 20.5t-18 23t-18 27z" />
    <glyph glyph-name="uni021A" unicode="&#x21a;" horiz-adv-x="517" 
d="M233 0h-51v494l-187 -3l18 121h509l-17 -121l-165 3v-494h-47l-22 -51q87 -29 87 -77q0 -40 -44.5 -73t-133.5 -37l-16 59q48 5 72 13t24 24q0 24 -72 39l-3 5z" />
    <glyph glyph-name="uni021B" unicode="&#x21b;" horiz-adv-x="364" 
d="M295 -128q0 -40 -44.5 -73t-133.5 -37l-16 59q48 5 72 13t24 24q0 24 -72 39l-3 5l42 86q-46 11 -75 44.5t-28 90.5l3 224h-63v93l64 10l1 83l152 20l-1 -103h135l-10 -103h-127l-2 -164q-1 -42 13.5 -61t47.5 -19q30 0 64 12l10 -100q-63 -29 -125 -32l-15 -34
q87 -29 87 -77z" />
    <glyph glyph-name="circumflex" unicode="&#x2c6;" horiz-adv-x="481" 
d="M315 503l-75 67l-76 -67h-109l116 165h137l117 -165h-110z" />
    <glyph glyph-name="caron" unicode="&#x2c7;" horiz-adv-x="481" 
d="M309 508h-136l-118 165h111l75 -66l75 66h109z" />
    <glyph glyph-name="breve" unicode="&#x2d8;" horiz-adv-x="534" 
d="M267 599q72 0 83 80h87q0 -78 -52.5 -127t-122.5 -49q-75 0 -120 47.5t-45 128.5h86q12 -80 84 -80z" />
    <glyph glyph-name="dotaccent" unicode="&#x2d9;" horiz-adv-x="350" 
d="M84 595q0 24 31 58t55 34t60 -28t36 -52t-32 -57t-55 -33q-24 0 -59.5 27.5t-35.5 50.5z" />
    <glyph glyph-name="ring" unicode="&#x2da;" horiz-adv-x="379" 
d="M296 601q0 -41 -32 -71.5t-75 -30.5q-45 0 -75.5 28t-30.5 74q0 42 32 73t75 31q46 0 76 -27.5t30 -76.5zM147 601q0 -17 12 -29t30 -12t30.5 12t12.5 29q0 19 -12.5 31.5t-30.5 12.5t-30 -12.5t-12 -31.5z" />
    <glyph glyph-name="ogonek" unicode="&#x2db;" horiz-adv-x="367" 
d="M83 -137q0 34 30.5 71t85.5 66h77q-100 -70 -100 -121q0 -15 11.5 -24.5t26.5 -9.5q29 0 48 11l20 -64q-45 -25 -90 -25q-49 0 -79 26t-30 70z" />
    <glyph glyph-name="tilde" unicode="&#x2dc;" horiz-adv-x="511" 
d="M386 659l52 -53q-12 -31 -53 -66.5t-71 -35.5q-19 0 -69 16.5t-62 16.5q-17 0 -37.5 -16t-27.5 -26l-47 62q8 14 49 52t68 38q23 0 68.5 -16.5t58.5 -16.5q30 0 71 45z" />
    <glyph glyph-name="hungarumlaut" unicode="&#x2dd;" horiz-adv-x="515" 
d="M212 503l112 165l153 -27l-140 -138h-125zM37 503l112 165l152 -27l-139 -138h-125z" />
    <glyph glyph-name="commaaccent" unicode="&#x326;" horiz-adv-x="252" 
d="M59 -99q0 19 22 39.5t44 20.5q21 0 46 -26t25 -43q0 -48 -72 -157l-69 27q5 12 15.5 33t17.5 35.5t7 20.5t-18 23t-18 27z" />
    <glyph glyph-name="Wgrave" unicode="&#x1e80;" horiz-adv-x="900" 
d="M544 653h-125l-156 138l152 27zM565 0l-117 367l-123 -367h-180l-130 612h160l84 -414l129 414h143l128 -411l79 411h147l-137 -612h-183z" />
    <glyph glyph-name="wgrave" unicode="&#x1e81;" horiz-adv-x="734" 
d="M478 503h-125l-156 138l152 27zM446 0l-80 251l-91 -251h-158l-113 441l154 20l62 -306l83 286l136 20l91 -304l55 293h145l-124 -450h-160z" />
    <glyph glyph-name="Wacute" unicode="&#x1e82;" horiz-adv-x="900" 
d="M367 653l129 165l152 -27l-156 -138h-125zM565 0l-117 367l-123 -367h-180l-130 612h160l84 -414l129 414h143l128 -411l79 411h147l-137 -612h-183z" />
    <glyph glyph-name="wacute" unicode="&#x1e83;" horiz-adv-x="734" 
d="M269 503l129 165l152 -27l-156 -138h-125zM446 0l-80 251l-91 -251h-158l-113 441l154 20l62 -306l83 286l136 20l91 -304l55 293h145l-124 -450h-160z" />
    <glyph glyph-name="Wdieresis" unicode="&#x1e84;" horiz-adv-x="900" 
d="M476 730q0 21 28 51.5t49 30.5q23 0 54.5 -25t31.5 -48q0 -21 -28.5 -51t-48.5 -30q-22 0 -54 25t-32 47zM281 730q0 21 27.5 51.5t48.5 30.5q23 0 54.5 -25t31.5 -48q0 -21 -28 -51t-48 -30q-23 0 -54.5 25t-31.5 47zM565 0l-117 367l-123 -367h-180l-130 612h160
l84 -414l129 414h143l128 -411l79 411h147l-137 -612h-183z" />
    <glyph glyph-name="wdieresis" unicode="&#x1e85;" horiz-adv-x="734" 
d="M397 580q0 21 28 51.5t49 30.5q23 0 54.5 -25t31.5 -48q0 -21 -28.5 -51t-48.5 -30q-22 0 -54 25t-32 47zM202 580q0 21 27.5 51.5t48.5 30.5q23 0 54.5 -25t31.5 -48q0 -21 -28 -51t-48 -30q-23 0 -54.5 25t-31.5 47zM446 0l-80 251l-91 -251h-158l-113 441l154 20
l62 -306l83 286l136 20l91 -304l55 293h145l-124 -450h-160z" />
    <glyph glyph-name="Ygrave" unicode="&#x1ef2;" horiz-adv-x="557" 
d="M380 653h-125l-156 138l152 27zM357 217v-217h-158v217l-214 395h174l128 -241l128 241h155z" />
    <glyph glyph-name="ygrave" unicode="&#x1ef3;" horiz-adv-x="483" 
d="M374 503h-125l-156 138l152 27zM89 -238q-41 0 -71 8l-6 118q77 -10 123 14t73 93q0 1 1 2.5t1 2.5h-70l-145 441l160 20l95 -328q41 149 80 317h151q-3 -11 -24.5 -88.5t-41 -145.5t-43 -145.5t-37.5 -114.5q-33 -97 -97 -145.5t-149 -48.5z" />
    <glyph glyph-name="endash" unicode="&#x2013;" horiz-adv-x="458" 
d="M422 293v-25l-26 -72h-359v25l33 72h352z" />
    <glyph glyph-name="emdash" unicode="&#x2014;" horiz-adv-x="677" 
d="M640 293v-25l-26 -72h-577v25l33 72h570z" />
    <glyph glyph-name="quoteleft" unicode="&#x2018;" horiz-adv-x="243" 
d="M203 484q0 -26 -24.5 -48.5t-50.5 -22.5q-29 0 -60 30t-31 70q0 59 91 200l78 -29q-3 -6 -10 -19.5t-9.5 -19t-8 -16.5l-8 -16t-6 -13.5t-5 -14t-3.5 -12.5t-2.5 -12.5t-0.5 -11.5q0 -7 25 -28.5t25 -36.5z" />
    <glyph glyph-name="quoteright" unicode="&#x2019;" horiz-adv-x="243" 
d="M40 622q0 27 24.5 49.5t50.5 22.5q29 0 60 -30t31 -70q0 -63 -91 -200l-78 29q46 89 51 116q2 10 2 19q0 7 -25 28t-25 36z" />
    <glyph glyph-name="quotesinglbase" unicode="&#x201a;" horiz-adv-x="243" 
d="M40 75q0 27 24.5 49.5t50.5 22.5q29 0 60 -30t31 -70q0 -63 -91 -200l-78 29q46 89 51 116q2 10 2 19q0 7 -25 28t-25 36z" />
    <glyph glyph-name="quotedblleft" unicode="&#x201c;" horiz-adv-x="438" 
d="M398 484q0 -26 -24.5 -48.5t-50.5 -22.5q-29 0 -60 30t-31 70q0 61 91 200l78 -29q-3 -6 -10 -19.5t-9.5 -19t-8 -16.5l-8 -16t-6 -13.5t-5 -14t-3.5 -12.5t-2.5 -12.5t-0.5 -11.5q0 -7 25 -28.5t25 -36.5zM203 484q0 -26 -24.5 -48.5t-50.5 -22.5q-29 0 -60 30t-31 70
q0 59 91 200l78 -29q-3 -6 -10 -19.5t-9.5 -19t-8 -16.5l-8 -16t-6 -13.5t-5 -14t-3.5 -12.5t-2.5 -12.5t-0.5 -11.5q0 -7 25 -28.5t25 -36.5z" />
    <glyph glyph-name="quotedblright" unicode="&#x201d;" horiz-adv-x="441" 
d="M238 622q0 27 24.5 49.5t50.5 22.5q29 0 60 -30t31 -70q0 -63 -91 -200l-78 29q46 89 51 116q2 10 2 19q0 7 -25 28t-25 36zM40 622q0 27 24.5 49.5t50.5 22.5q29 0 60 -30t31 -70q0 -63 -91 -200l-78 29q46 89 51 116q2 10 2 19q0 7 -25 28t-25 36z" />
    <glyph glyph-name="quotedblbase" unicode="&#x201e;" horiz-adv-x="440" 
d="M237 75q0 27 24.5 49.5t50.5 22.5q29 0 60 -30t31 -70q0 -63 -91 -200l-78 29q46 89 51 116q2 10 2 19q0 7 -25 28t-25 36zM40 75q0 27 24.5 49.5t50.5 22.5q29 0 60 -30t31 -70q0 -63 -91 -200l-78 29q46 89 51 116q2 10 2 19q0 7 -25 28t-25 36z" />
    <glyph glyph-name="bullet" unicode="&#x2022;" horiz-adv-x="462" 
d="M87 255q0 40 50 94.5t85 54.5q39 0 96 -44t57 -85q0 -40 -50.5 -94t-85.5 -54q-40 0 -96 44t-56 84z" />
    <glyph glyph-name="ellipsis" unicode="&#x2026;" horiz-adv-x="719" 
d="M28 38q0 24 33 56.5t56 32.5q24 0 61.5 -26.5t37.5 -49.5t-33.5 -55.5t-55.5 -32.5q-25 0 -62 26.5t-37 48.5zM503 38q0 24 33 56.5t57 32.5t61 -26.5t37 -49.5t-33.5 -55.5t-55.5 -32.5q-25 0 -62 26.5t-37 48.5zM266 38q0 24 33 56.5t56 32.5q24 0 61.5 -26.5
t37.5 -49.5t-33.5 -55.5t-55.5 -32.5q-25 0 -62 26.5t-37 48.5z" />
    <glyph glyph-name="guilsinglleft" unicode="&#x2039;" horiz-adv-x="332" 
d="M200 9l-180 223l180 223l89 -43l-106 -180l106 -180z" />
    <glyph glyph-name="guilsinglright" unicode="&#x203a;" horiz-adv-x="332" 
d="M132 455l180 -223l-180 -223l-89 41l106 182l-106 178z" />
    <glyph glyph-name="fraction" unicode="&#x2044;" horiz-adv-x="284" 
d="M-60 2l331 648l73 -43l-331 -647z" />
    <glyph glyph-name="Euro" unicode="&#x20ac;" horiz-adv-x="548" 
d="M528 24q-29 -17 -83.5 -29t-114.5 -12q-204 0 -245 204h-81l22 77l49 16v15q0 19 1 29h-67l20 76l43 17h15q45 212 275 212q91 0 166 -25l-28 -127q-79 27 -157 27q-45 0 -68 -19t-32 -68h207l-25 -93h-188v-8q0 -25 1 -36h179l-25 -93h-134q32 -75 115 -75q79 0 139 26z
" />
    <glyph glyph-name="minus" unicode="&#x2212;" horiz-adv-x="548" 
d="M460 315v-99h-372v99h372z" />
    <glyph glyph-name="idotaccent" horiz-adv-x="243" 
d="M31 596q0 24 31 58t55 34t60 -27.5t36 -51.5t-32 -57.5t-54 -33.5q-25 0 -60.5 27.5t-35.5 50.5zM45 448l153 21v-469h-153v448z" />
    <glyph glyph-name="caron.alt" horiz-adv-x="294" 
d="M90 646q-1 18 26.5 33.5t50.5 15.5q26 0 41.5 -34.5t15.5 -70.5q0 -60 -94 -190l-60 30q36 67 36 128q0 20 -8 48t-8 40z" />
    <glyph glyph-name="caron.alt.sc" horiz-adv-x="321" 
d="M103 506q-1 18 27 33.5t51 15.5q26 0 41.5 -34.5t15.5 -70.5q0 -60 -94 -190l-60 30q35 67 35 128q0 20 -8 48t-8 40z" />
    <glyph glyph-name="caron.alt.case" horiz-adv-x="321" 
d="M103 563q-1 18 26.5 33t51.5 15q26 0 41.5 -34.5t15.5 -69.5q0 -59 -94 -191l-60 31q35 67 35 127q0 20 -8 48.5t-8 40.5z" />
    <glyph glyph-name="commaaccent.case" horiz-adv-x="252" 
d="M59 -99q0 19 22 39.5t44 20.5q21 0 46 -26t25 -43q0 -48 -72 -157l-69 27q5 12 15.5 33t17.5 35.5t7 20.5t-18 23t-18 27z" />
    <glyph glyph-name="acute.case" horiz-adv-x="357" 
d="M38 653l129 165l152 -27l-156 -138h-125z" />
    <glyph glyph-name="grave.case" horiz-adv-x="357" 
d="M319 653h-125l-156 138l152 27z" />
    <glyph glyph-name="hungarumlaut.case" horiz-adv-x="515" 
d="M212 653l112 165l153 -27l-140 -138h-125zM37 653l112 165l152 -27l-139 -138h-125z" />
    <glyph glyph-name="circumflex.case" horiz-adv-x="481" 
d="M315 653l-75 67l-76 -67h-109l116 165h137l117 -165h-110z" />
    <glyph glyph-name="caron.case" horiz-adv-x="481" 
d="M309 658h-136l-118 165h111l75 -66l75 66h109z" />
    <glyph glyph-name="breve.case" horiz-adv-x="534" 
d="M267 749q72 0 83 80h87q0 -78 -52.5 -127t-122.5 -49q-75 0 -120 47.5t-45 128.5h86q12 -80 84 -80z" />
    <glyph glyph-name="tilde.case" horiz-adv-x="511" 
d="M386 809l52 -53q-12 -31 -53 -66.5t-71 -35.5q-19 0 -69 16.5t-62 16.5q-17 0 -37.5 -16t-27.5 -26l-47 62q8 14 49 52t68 38q23 0 68.5 -16.5t58.5 -16.5q30 0 71 45z" />
    <glyph glyph-name="macron.case" horiz-adv-x="451" 
d="M371 780v-15l-26 -88h-265v15l26 88h265z" />
    <glyph glyph-name="dieresis.case" horiz-adv-x="532" 
d="M282 730q0 21 28 51.5t49 30.5q23 0 54.5 -25t31.5 -48q0 -21 -28.5 -51t-48.5 -30q-22 0 -54 25t-32 47zM87 730q0 21 27.5 51.5t48.5 30.5q23 0 54.5 -25t31.5 -48q0 -21 -28 -51t-48 -30q-23 0 -54.5 25t-31.5 47z" />
    <glyph glyph-name="dotaccent.case" horiz-adv-x="350" 
d="M84 745q0 24 31 58t55 34t60 -28t36 -52t-32 -57t-55 -33q-24 0 -59.5 27.5t-35.5 50.5z" />
    <glyph glyph-name="ring.case" horiz-adv-x="379" 
d="M296 751q0 -41 -32 -71.5t-75 -30.5q-45 0 -75.5 28t-30.5 74q0 42 32 73t75 31q46 0 76 -27.5t30 -76.5zM147 751q0 -17 12 -29t30 -12t30.5 12t12.5 29q0 19 -12.5 31.5t-30.5 12.5t-30 -12.5t-12 -31.5z" />
    <glyph glyph-name="cedilla.case" horiz-adv-x="307" 
d="M78 -98l48 98h60l-22 -51q87 -29 87 -77q0 -40 -44.5 -73t-133.5 -37l-16 59q48 5 72 13t24 24q0 24 -72 39z" />
    <glyph glyph-name="ogonek.case" horiz-adv-x="367" 
d="M83 -137q0 34 30.5 71t85.5 66h77q-100 -70 -100 -121q0 -15 11.5 -24.5t26.5 -9.5q29 0 48 11l20 -64q-45 -25 -90 -25q-49 0 -79 26t-30 70z" />
    <glyph glyph-name="zero.fit" horiz-adv-x="580" 
d="M550 318q0 -161 -74 -248t-207 -87q-126 0 -182.5 78t-56.5 233q0 161 73.5 248t206.5 87q126 0 183 -78.5t57 -232.5zM386 306q0 129 -25 174.5t-83 45.5q-44 0 -63.5 -46.5t-19.5 -173.5q0 -89 11.5 -137t32.5 -65t60 -17q45 0 66 46.5t21 172.5z" />
    <glyph glyph-name="one.fit" horiz-adv-x="386" 
d="M326 0h-151v487l-128 -56l-34 108q51 16 222 73h91v-612z" />
    <glyph glyph-name="two.fit" horiz-adv-x="502" 
d="M461 0h-426v96q79 72 125.5 118t90 106t43.5 99q0 44 -27 67.5t-66 23.5q-65 0 -140 -34l-34 107q115 46 216 46q99 0 159 -47t60 -127q0 -82 -61 -162t-184 -181l265 12z" />
    <glyph glyph-name="three.fit" horiz-adv-x="478" 
d="M196 -17q-86 0 -173 26l29 116q93 -29 147 -29q57 0 83 17.5t26 58.5q0 35 -28 60t-80 25q-19 0 -73 -3l-14 98q83 0 129.5 24.5t46.5 65.5q0 30 -21.5 51t-60.5 21q-74 0 -136 -31l-31 102q37 17 98.5 30.5t112.5 13.5q78 0 137 -37t59 -109q0 -49 -32 -88t-83 -62
q133 -28 133 -147q0 -87 -77.5 -145t-191.5 -58z" />
    <glyph glyph-name="four.fit" horiz-adv-x="541" 
d="M308 207v229l-164 -229h164zM508 96h-59v-96h-141v96h-301v109l316 419h126v-417h95z" />
    <glyph glyph-name="five.fit" horiz-adv-x="512" 
d="M185 -17q-73 0 -157 22l29 115q33 -12 81 -21.5t80 -9.5q53 0 81.5 21.5t28.5 57.5q0 46 -37.5 74.5t-118.5 28.5q-30 0 -103 -7l22 348h375l-18 -121h-239l-7 -107q28 2 47 2q98 0 166 -50.5t68 -137.5q0 -92 -81 -153.5t-217 -61.5z" />
    <glyph glyph-name="six.fit" horiz-adv-x="532" 
d="M512 210q0 -97 -71 -162t-184 -65q-111 0 -174 74.5t-63 206.5q0 178 86 271.5t230 93.5q65 0 147 -19l-26 -125q-24 11 -66.5 19.5t-74.5 8.5q-56 0 -87.5 -29.5t-42.5 -112.5q61 24 118 24q98 0 153 -48t55 -137zM283 85q71 0 71 93q0 49 -22 81t-69 32q-42 0 -83 -16
v-18q0 -172 103 -172z" />
    <glyph glyph-name="seven.fit" horiz-adv-x="502" 
d="M250 -13l-158 43q71 170 223 460l-305 -5l24 128h445v-100q-40 -81 -118 -260t-111 -266z" />
    <glyph glyph-name="eight.fit" horiz-adv-x="509" 
d="M237 -17q-101 0 -162.5 42t-61.5 112q0 52 31 90t92 72q-98 64 -98 153q0 80 66 129t177 49q80 0 135.5 -38.5t55.5 -99.5q0 -83 -107 -148q79 -42 105 -79t26 -90q0 -74 -73 -133t-186 -59zM175 476q0 -27 22.5 -46t85.5 -47q60 45 60 90q0 25 -27.5 43t-64.5 18
q-43 0 -59.5 -14t-16.5 -44zM262 82q94 0 94 70q0 27 -25.5 47t-100.5 51l-12 6q-35 -24 -50 -44t-15 -52q0 -31 31 -54.5t78 -23.5z" />
    <glyph glyph-name="nine.fit" horiz-adv-x="528" 
d="M271 322q45 0 79 16v25q0 79 -29 122.5t-72 43.5q-36 0 -52.5 -22t-16.5 -72q0 -49 22 -81t69 -32zM176 -17q-75 0 -145 22l19 113q74 -25 147 -25q111 0 142 147q-51 -22 -102 -22q-110 0 -162.5 53.5t-52.5 141.5q0 94 64.5 156t180.5 62q123 0 182 -74t59 -208
q0 -87 -27 -157.5t-73 -115.5t-105.5 -69t-126.5 -24z" />
    <glyph glyph-name="zero.osf" horiz-adv-x="542" 
d="M517 268q0 -121 -72 -203t-189 -82q-110 0 -170.5 74t-60.5 191q0 122 72 204.5t189 82.5q111 0 171 -74t60 -193zM382 249q0 72 -31.5 115.5t-86.5 43.5q-104 0 -104 -141q0 -72 31.5 -113.5t87.5 -41.5q53 0 78 33.5t25 103.5z" />
    <glyph glyph-name="one.osf" horiz-adv-x="354" 
d="M305 0h-153v384q-48 -21 -122 -47l-30 113q84 25 210 70h95v-520z" />
    <glyph glyph-name="two.osf" horiz-adv-x="485" 
d="M436 0h-401v106q127 90 176 141.5t49 91.5q0 74 -86 74q-51 0 -111 -28l-31 111q95 38 188 38q96 0 152 -43t56 -116q0 -138 -205 -264l234 10z" />
    <glyph glyph-name="three.osf" horiz-adv-x="440" 
d="M414 109q0 -98 -103 -162t-283 -58l-21 115q135 -4 195 13t60 71q0 37 -35 58t-85 21h-52l-17 100q183 -2 183 83q0 29 -24.5 49t-71.5 20q-63 0 -123 -21l-23 106q17 9 74 20t101 11q108 0 158.5 -44t50.5 -104q0 -39 -28 -80.5t-77 -66.5q58 -16 89.5 -50.5t31.5 -80.5
z" />
    <glyph glyph-name="four.osf" horiz-adv-x="530" 
d="M275 107v231l-146 -231h146zM421 -100l-146 -19v119h-293v88l288 431h151v-412h94l-19 -107h-75v-100z" />
    <glyph glyph-name="five.osf" horiz-adv-x="462" 
d="M54 -111l-37 120q83 -1 139 6t85 20.5t40 29.5t11 38q0 91 -192 91q-26 0 -51 -5l17 331h370l-23 -120h-218l-7 -93h11q120 0 182.5 -48t62.5 -134q0 -95 -99.5 -162t-290.5 -74z" />
    <glyph glyph-name="six.osf" horiz-adv-x="520" 
d="M248 -17q-115 0 -173.5 67.5t-58.5 182.5q0 136 100.5 247t246.5 162l65 -104q-82 -34 -137 -73t-85 -94q52 19 97 19q98 0 147.5 -52t49.5 -138q0 -91 -69 -154t-183 -63zM267 88q30 0 54 20t24 65q0 112 -104 112q-36 0 -67 -16q-3 -24 -3 -51q0 -60 25.5 -95t70.5 -35
z" />
    <glyph glyph-name="seven.osf" horiz-adv-x="470" 
d="M230 -111l-160 40q138 289 234 467h-296l19 124h435v-117q-55 -100 -232 -514z" />
    <glyph glyph-name="eight.osf" horiz-adv-x="505" 
d="M234 -17q-104 0 -163.5 42.5t-59.5 119.5q0 92 121 166q-50 30 -74.5 63.5t-24.5 82.5q0 74 65.5 123t170.5 49q89 0 146.5 -40.5t57.5 -106.5q0 -45 -28.5 -80t-88.5 -69q79 -42 108.5 -76t29.5 -90q0 -76 -72.5 -130t-187.5 -54zM179 470q0 -26 21 -47t68 -46
q62 47 62 89q0 28 -23.5 44t-59.5 16q-31 0 -49.5 -14.5t-18.5 -41.5zM263 92q38 0 59.5 15t21.5 42q0 32 -22 55.5t-91 57.5q-35 -26 -50 -45.5t-15 -47.5q0 -38 27.5 -57.5t69.5 -19.5z" />
    <glyph glyph-name="nine.osf" horiz-adv-x="520" 
d="M139 -111l-62 107q180 64 232 149q-48 -17 -87 -17q-90 0 -145 48.5t-55 139.5q0 94 69 156.5t174 62.5q101 0 168 -64t67 -179q0 -126 -96.5 -237t-264.5 -166zM275 235q28 0 67 15q2 24 2 38q0 142 -99 142q-67 0 -67 -90q0 -48 26.5 -76.5t70.5 -28.5z" />
    <glyph glyph-name="zero.tosf" horiz-adv-x="508" 
d="M501 268q0 -121 -72 -203t-189 -82q-110 0 -170.5 74t-60.5 191q0 122 72 204.5t189 82.5q111 0 171 -74t60 -193zM366 249q0 72 -31.5 115.5t-86.5 43.5q-104 0 -104 -141q0 -72 31.5 -113.5t87.5 -41.5q53 0 78 33.5t25 103.5z" />
    <glyph glyph-name="one.tosf" horiz-adv-x="508" 
d="M378 0h-153v384q-48 -21 -122 -47l-30 113q84 25 210 70h95v-520z" />
    <glyph glyph-name="two.tosf" horiz-adv-x="508" 
d="M448 0h-401v106q127 90 176 141.5t49 91.5q0 74 -86 74q-51 0 -111 -28l-31 111q95 38 188 38q96 0 152 -43t56 -116q0 -138 -205 -264l234 10z" />
    <glyph glyph-name="three.tosf" horiz-adv-x="508" 
d="M452 109q0 -98 -103 -162t-283 -58l-21 115q135 -4 195 13t60 71q0 37 -35 58t-85 21h-20h-18h-14l-17 100q183 -2 183 83q0 29 -24.5 49t-71.5 20q-63 0 -123 -21l-23 106q17 9 74 20t101 11q108 0 158.5 -44t50.5 -104q0 -39 -28 -80.5t-77 -66.5q58 -16 89.5 -50.5
t31.5 -80.5z" />
    <glyph glyph-name="four.tosf" horiz-adv-x="508" 
d="M290 107v231l-146 -231h146zM436 -100l-146 -19v119h-293v88l288 431h151v-412h94l-19 -107h-75v-100z" />
    <glyph glyph-name="five.tosf" horiz-adv-x="508" 
d="M74 -111l-37 120q83 -1 139 6t85 20.5t40 29.5t11 38q0 91 -192 91q-26 0 -51 -5l17 331h370l-23 -120h-218l-7 -93h11q120 0 182.5 -48t62.5 -134q0 -95 -99.5 -162t-290.5 -74z" />
    <glyph glyph-name="six.tosf" horiz-adv-x="508" 
d="M245 -17q-115 0 -173.5 67.5t-58.5 182.5q0 136 100.5 247t246.5 162l65 -104q-82 -34 -137 -73t-85 -94q52 19 97 19q98 0 147.5 -52t49.5 -138q0 -91 -69 -154t-183 -63zM264 88q30 0 54 20t24 65q0 112 -104 112q-36 0 -67 -16q-3 -24 -3 -51q0 -60 25.5 -95t70.5 -35
z" />
    <glyph glyph-name="seven.tosf" horiz-adv-x="508" 
d="M242 -111l-160 40q138 289 234 467h-296l19 124h435v-117q-55 -100 -232 -514z" />
    <glyph glyph-name="eight.tosf" horiz-adv-x="508" 
d="M235 -17q-104 0 -163.5 42.5t-59.5 119.5q0 92 121 166q-50 30 -74.5 63.5t-24.5 82.5q0 74 65.5 123t170.5 49q89 0 146.5 -40.5t57.5 -106.5q0 -45 -28.5 -80t-88.5 -69q79 -42 108.5 -76t29.5 -90q0 -76 -72.5 -130t-187.5 -54zM180 470q0 -26 21 -47t68 -46
q62 47 62 89q0 28 -23.5 44t-59.5 16q-31 0 -49.5 -14.5t-18.5 -41.5zM264 92q38 0 59.5 15t21.5 42q0 32 -22 55.5t-91 57.5q-35 -26 -50 -45.5t-15 -47.5q0 -38 27.5 -57.5t69.5 -19.5z" />
    <glyph glyph-name="nine.tosf" horiz-adv-x="508" 
d="M131 -111l-62 107q180 64 232 149q-48 -17 -87 -17q-90 0 -145 48.5t-55 139.5q0 94 69 156.5t174 62.5q101 0 168 -64t67 -179q0 -126 -96.5 -237t-264.5 -166zM267 235q28 0 67 15q2 24 2 38q0 142 -99 142q-67 0 -67 -90q0 -48 26.5 -76.5t70.5 -28.5z" />
    <glyph glyph-name="A.sc" horiz-adv-x="534" 
d="M320 206l-57 191l-60 -191h117zM381 0l-28 94h-185l-29 -94h-147l183 520h198l169 -520h-161z" />
    <glyph glyph-name="Agrave.sc" horiz-adv-x="534" 
d="M373 566h-125l-156 138l152 27zM320 206l-57 191l-60 -191h117zM381 0l-28 94h-185l-29 -94h-147l183 520h198l169 -520h-161z" />
    <glyph glyph-name="Aacute.sc" horiz-adv-x="534" 
d="M177 566l129 165l152 -27l-156 -138h-125zM320 206l-57 191l-60 -191h117zM381 0l-28 94h-185l-29 -94h-147l183 520h198l169 -520h-161z" />
    <glyph glyph-name="Acircumflex.sc" horiz-adv-x="534" 
d="M352 566l-75 67l-76 -67h-109l116 165h137l117 -165h-110zM320 206l-57 191l-60 -191h117zM381 0l-28 94h-185l-29 -94h-147l183 520h198l169 -520h-161z" />
    <glyph glyph-name="Atilde.sc" horiz-adv-x="534" 
d="M413 723l52 -54q-12 -31 -53 -66.5t-71 -35.5q-19 0 -69 16.5t-62 16.5q-17 0 -37.5 -16t-27.5 -26l-47 62q8 14 49 52t68 38q23 0 68.5 -16.5t58.5 -16.5q29 0 71 46zM320 206l-57 191l-60 -191h117zM381 0l-28 94h-185l-29 -94h-147l183 520h198l169 -520h-161z" />
    <glyph glyph-name="Adieresis.sc" horiz-adv-x="534" 
d="M297 643q0 22 28 52.5t49 30.5q22 0 54 -25.5t32 -48.5q0 -21 -28.5 -50.5t-48.5 -29.5q-22 0 -54 25t-32 46zM102 643q0 22 27.5 52.5t48.5 30.5q22 0 54 -25.5t32 -48.5q0 -21 -28 -50.5t-48 -29.5q-23 0 -54.5 24.5t-31.5 46.5zM320 206l-57 191l-60 -191h117zM381 0
l-28 94h-185l-29 -94h-147l183 520h198l169 -520h-161z" />
    <glyph glyph-name="Aring.sc" horiz-adv-x="534" 
d="M383 665q0 -42 -32 -72.5t-75 -30.5q-45 0 -75.5 28t-30.5 75q0 42 32 72.5t75 30.5q46 0 76 -27t30 -76zM234 665q0 -18 12 -30t30 -12t30.5 12t12.5 30q0 19 -12.5 31t-30.5 12t-30 -12t-12 -31zM320 206l-57 191l-60 -191h117zM381 0l-28 94h-185l-29 -94h-147
l183 520h198l169 -520h-161z" />
    <glyph glyph-name="Amacron.sc" horiz-adv-x="534" 
d="M424 693v-15l-26 -87h-265v15l26 87h265zM320 206l-57 191l-60 -191h117zM381 0l-28 94h-185l-29 -94h-147l183 520h198l169 -520h-161z" />
    <glyph glyph-name="Abreve.sc" horiz-adv-x="534" 
d="M282 662q72 0 83 81h87q0 -78 -52.5 -127.5t-122.5 -49.5q-75 0 -120 48t-45 129h86q12 -81 84 -81zM320 206l-57 191l-60 -191h117zM381 0l-28 94h-185l-29 -94h-147l183 520h198l169 -520h-161z" />
    <glyph glyph-name="Aogonek.sc" horiz-adv-x="534" 
d="M320 206l-57 191l-60 -191h117zM465 0h-84l-28 94h-185l-29 -94h-147l183 520h198l169 -520q-100 -70 -100 -121q0 -15 11.5 -24.5t26.5 -9.5q29 0 48 11l20 -64q-45 -25 -90 -25q-49 0 -79 26t-30 70q0 34 30.5 71t85.5 66z" />
    <glyph glyph-name="Acaron.sc" horiz-adv-x="534" 
d="M347 572h-136l-118 165h111l75 -67l75 67h109zM320 206l-57 191l-60 -191h117zM381 0l-28 94h-185l-29 -94h-147l183 520h198l169 -520h-161z" />
    <glyph glyph-name="B.sc" horiz-adv-x="531" 
d="M263 305q26 0 46.5 14t20.5 44q0 69 -114 69v-124q45 -3 47 -3zM272 90q79 0 79 59q0 76 -117 76h-18v-132q24 -3 56 -3zM63 0v520h204q101 0 156 -32t55 -92q0 -82 -96 -122q62 -9 93 -41.5t31 -79.5q0 -71 -67 -112t-188 -41h-188z" />
    <glyph glyph-name="C.sc" horiz-adv-x="520" 
d="M470 127l21 -107q-77 -37 -189 -37q-117 0 -193 68.5t-76 196.5q0 124 83 206.5t226 82.5q103 0 147 -23l-26 -119q-75 23 -135 23q-129 0 -129 -148q0 -84 41.5 -125.5t106.5 -41.5q67 0 123 24z" />
    <glyph glyph-name="Ccedilla.sc" horiz-adv-x="520" 
d="M427 -128q0 -40 -44.5 -73t-133.5 -37l-16 59q48 5 72 13t24 24q0 24 -72 39l-3 5l40 81q-114 2 -187.5 70.5t-73.5 194.5q0 124 83 206.5t226 82.5q103 0 147 -23l-26 -119q-75 23 -135 23q-129 0 -129 -148q0 -84 41.5 -125.5t106.5 -41.5q67 0 123 24l21 -107
q-58 -28 -135 -35l-16 -36q87 -29 87 -77z" />
    <glyph glyph-name="Cacute.sc" horiz-adv-x="520" 
d="M220 566l129 165l152 -27l-156 -138h-125zM470 127l21 -107q-77 -37 -189 -37q-117 0 -193 68.5t-76 196.5q0 124 83 206.5t226 82.5q103 0 147 -23l-26 -119q-75 23 -135 23q-129 0 -129 -148q0 -84 41.5 -125.5t106.5 -41.5q67 0 123 24z" />
    <glyph glyph-name="Ccircumflex.sc" horiz-adv-x="520" 
d="M397 566l-75 67l-76 -67h-109l116 165h137l117 -165h-110zM470 127l21 -107q-77 -37 -189 -37q-117 0 -193 68.5t-76 196.5q0 124 83 206.5t226 82.5q103 0 147 -23l-26 -119q-75 23 -135 23q-129 0 -129 -148q0 -84 41.5 -125.5t106.5 -41.5q67 0 123 24z" />
    <glyph glyph-name="Cdotaccent.sc" horiz-adv-x="520" 
d="M237 658q0 24 31 58t55 34t60 -27.5t36 -51.5t-32 -57.5t-55 -33.5q-24 0 -59.5 27.5t-35.5 50.5zM470 127l21 -107q-77 -37 -189 -37q-117 0 -193 68.5t-76 196.5q0 124 83 206.5t226 82.5q103 0 147 -23l-26 -119q-75 23 -135 23q-129 0 -129 -148q0 -84 41.5 -125.5
t106.5 -41.5q67 0 123 24z" />
    <glyph glyph-name="Ccaron.sc" horiz-adv-x="520" 
d="M385 572h-136l-118 165h111l75 -67l75 67h109zM470 127l21 -107q-77 -37 -189 -37q-117 0 -193 68.5t-76 196.5q0 124 83 206.5t226 82.5q103 0 147 -23l-26 -119q-75 23 -135 23q-129 0 -129 -148q0 -84 41.5 -125.5t106.5 -41.5q67 0 123 24z" />
    <glyph glyph-name="D.sc" horiz-adv-x="591" 
d="M63 520h235q122 0 191 -62t69 -181q0 -129 -89.5 -206t-240.5 -77q-51 0 -165 14v512zM220 420v-311q4 0 15 -1t29 -1q61 0 98.5 37.5t37.5 113.5q0 77 -38.5 119.5t-94.5 42.5h-47z" />
    <glyph glyph-name="Dcaron.sc" horiz-adv-x="591" 
d="M356 572h-136l-118 165h111l75 -67l75 67h109zM63 520h235q122 0 191 -62t69 -181q0 -129 -89.5 -206t-240.5 -77q-51 0 -165 14v512zM220 420v-311q4 0 15 -1t29 -1q61 0 98.5 37.5t37.5 113.5q0 77 -38.5 119.5t-94.5 42.5h-47z" />
    <glyph glyph-name="E.sc" horiz-adv-x="488" 
d="M186 419zM63 0v520h379l-13 -103l-183 2h-2h-1h-1h-1h-1h-1h-1h-1h-1h-1h-1h-1h-1h-1h-1h-1h-1h-1h-1v-100h189l-11 -99l-178 1v-116l230 2l-13 -107h-380z" />
    <glyph glyph-name="Egrave.sc" horiz-adv-x="488" 
d="M416 566h-125l-156 138l152 27zM186 419zM63 0v520h379l-13 -103l-183 2h-2h-1h-1h-1h-1h-1h-1h-1h-1h-1h-1h-1h-1h-1h-1h-1h-1h-1h-1v-100h189l-11 -99l-178 1v-116l230 2l-13 -107h-380z" />
    <glyph glyph-name="Eacute.sc" horiz-adv-x="488" 
d="M153 566l129 165l152 -27l-156 -138h-125zM186 419zM63 0v520h379l-13 -103l-183 2h-2h-1h-1h-1h-1h-1h-1h-1h-1h-1h-1h-1h-1h-1h-1h-1h-1h-1h-1v-100h189l-11 -99l-178 1v-116l230 2l-13 -107h-380z" />
    <glyph glyph-name="Ecircumflex.sc" horiz-adv-x="488" 
d="M328 566l-75 67l-76 -67h-109l116 165h137l117 -165h-110zM186 419zM63 0v520h379l-13 -103l-183 2h-2h-1h-1h-1h-1h-1h-1h-1h-1h-1h-1h-1h-1h-1h-1h-1h-1h-1h-1v-100h189l-11 -99l-178 1v-116l230 2l-13 -107h-380z" />
    <glyph glyph-name="Edieresis.sc" horiz-adv-x="488" 
d="M271 643q0 22 28 52.5t49 30.5q22 0 54 -25.5t32 -48.5q0 -21 -28.5 -50.5t-48.5 -29.5q-22 0 -54 25t-32 46zM76 643q0 22 27.5 52.5t48.5 30.5q22 0 54 -25.5t32 -48.5q0 -21 -28 -50.5t-48 -29.5q-23 0 -54.5 24.5t-31.5 46.5zM186 419zM63 0v520h379l-13 -103l-183 2
h-2h-1h-1h-1h-1h-1h-1h-1h-1h-1h-1h-1h-1h-1h-1h-1h-1h-1h-1v-100h189l-11 -99l-178 1v-116l230 2l-13 -107h-380z" />
    <glyph glyph-name="Emacron.sc" horiz-adv-x="488" 
d="M407 693v-15l-26 -87h-265v15l26 87h265zM186 419zM63 0v520h379l-13 -103l-183 2h-2h-1h-1h-1h-1h-1h-1h-1h-1h-1h-1h-1h-1h-1h-1h-1h-1h-1h-1v-100h189l-11 -99l-178 1v-116l230 2l-13 -107h-380z" />
    <glyph glyph-name="Ebreve.sc" horiz-adv-x="488" 
d="M259 662q72 0 83 81h87q0 -78 -52.5 -127.5t-122.5 -49.5q-75 0 -120 48t-45 129h86q12 -81 84 -81zM186 419zM63 0v520h379l-13 -103l-183 2h-2h-1h-1h-1h-1h-1h-1h-1h-1h-1h-1h-1h-1h-1h-1h-1h-1h-1h-1v-100h189l-11 -99l-178 1v-116l230 2l-13 -107h-380z" />
    <glyph glyph-name="Edotaccent.sc" horiz-adv-x="488" 
d="M175 658q0 24 31 58t55 34t60 -27.5t36 -51.5t-32 -57.5t-55 -33.5q-24 0 -59.5 27.5t-35.5 50.5zM186 419zM63 0v520h379l-13 -103l-183 2h-2h-1h-1h-1h-1h-1h-1h-1h-1h-1h-1h-1h-1h-1h-1h-1h-1h-1h-1v-100h189l-11 -99l-178 1v-116l230 2l-13 -107h-380z" />
    <glyph glyph-name="Eogonek.sc" horiz-adv-x="488" 
d="M186 419zM63 0v520h379l-13 -103l-183 2h-2h-1h-1h-1h-1h-1h-1h-1h-1h-1h-1h-1h-1h-1h-1h-1h-1h-1h-1v-100h189l-11 -99l-178 1v-116l230 2l-13 -107h-380zM247 -137q0 34 30.5 71t85.5 66h77q-100 -70 -100 -121q0 -15 11.5 -24.5t26.5 -9.5q29 0 48 11l20 -64
q-45 -25 -90 -25q-49 0 -79 26t-30 70z" />
    <glyph glyph-name="Ecaron.sc" horiz-adv-x="488" 
d="M321 572h-136l-118 165h111l75 -67l75 67h109zM186 419zM63 0v520h379l-13 -103l-183 2h-2h-1h-1h-1h-1h-1h-1h-1h-1h-1h-1h-1h-1h-1h-1h-1h-1h-1h-1v-100h189l-11 -99l-178 1v-116l230 2l-13 -107h-380z" />
    <glyph glyph-name="F.sc" horiz-adv-x="469" 
d="M400 196l-174 2v-198h-163v520h379l-13 -108l-203 3v-116h186z" />
    <glyph glyph-name="G.sc" horiz-adv-x="551" 
d="M505 24q-28 -17 -87 -29.5t-106 -12.5q-131 0 -205 68t-74 195q0 72 25.5 129t69 91.5t98 52t116.5 17.5q35 0 85 -7.5t72 -17.5l-24 -115q-75 25 -148 25q-129 0 -129 -155q0 -81 37 -122.5t97 -41.5q14 0 38 2l-6 155h141v-234z" />
    <glyph glyph-name="Gcircumflex.sc" horiz-adv-x="551" 
d="M389 566l-75 67l-76 -67h-109l116 165h137l117 -165h-110zM505 24q-28 -17 -87 -29.5t-106 -12.5q-131 0 -205 68t-74 195q0 72 25.5 129t69 91.5t98 52t116.5 17.5q35 0 85 -7.5t72 -17.5l-24 -115q-75 25 -148 25q-129 0 -129 -155q0 -81 37 -122.5t97 -41.5q14 0 38 2
l-6 155h141v-234z" />
    <glyph glyph-name="Gbreve.sc" horiz-adv-x="551" 
d="M328 662q72 0 83 81h87q0 -78 -52.5 -127.5t-122.5 -49.5q-75 0 -120 48t-45 129h86q12 -81 84 -81zM505 24q-28 -17 -87 -29.5t-106 -12.5q-131 0 -205 68t-74 195q0 72 25.5 129t69 91.5t98 52t116.5 17.5q35 0 85 -7.5t72 -17.5l-24 -115q-75 25 -148 25
q-129 0 -129 -155q0 -81 37 -122.5t97 -41.5q14 0 38 2l-6 155h141v-234z" />
    <glyph glyph-name="Gdotaccent.sc" horiz-adv-x="551" 
d="M214 658q0 24 31 58t55 34t60 -27.5t36 -51.5t-32 -57.5t-55 -33.5q-24 0 -59.5 27.5t-35.5 50.5zM505 24q-28 -17 -87 -29.5t-106 -12.5q-131 0 -205 68t-74 195q0 72 25.5 129t69 91.5t98 52t116.5 17.5q35 0 85 -7.5t72 -17.5l-24 -115q-75 25 -148 25
q-129 0 -129 -155q0 -81 37 -122.5t97 -41.5q14 0 38 2l-6 155h141v-234z" />
    <glyph glyph-name="Gcommaaccent.sc" horiz-adv-x="551" 
d="M505 24q-28 -17 -87 -29.5t-106 -12.5q-131 0 -205 68t-74 195q0 72 25.5 129t69 91.5t98 52t116.5 17.5q35 0 85 -7.5t72 -17.5l-24 -115q-75 25 -148 25q-129 0 -129 -155q0 -81 37 -122.5t97 -41.5q14 0 38 2l-6 155h141v-234zM237 -99q0 19 22 39.5t44 20.5
q21 0 46 -26t25 -43q0 -48 -72 -157l-69 27q5 12 15.5 33t17.5 35.5t7 20.5t-18 23t-18 27z" />
    <glyph glyph-name="H.sc" horiz-adv-x="628" 
d="M403 0v209h-178v-209h-162v520h162v-192h178v192h162v-520h-162z" />
    <glyph glyph-name="Hcircumflex.sc" horiz-adv-x="628" 
d="M391 566l-75 67l-76 -67h-109l116 165h137l117 -165h-110zM403 0v209h-178v-209h-162v520h162v-192h178v192h162v-520h-162z" />
    <glyph glyph-name="I.sc" horiz-adv-x="290" 
d="M226 520v-520h-163v520h163z" />
    <glyph glyph-name="Igrave.sc" horiz-adv-x="290" 
d="M231 566h-125l-156 138l152 27zM226 520v-520h-163v520h163z" />
    <glyph glyph-name="Iacute.sc" horiz-adv-x="290" 
d="M72 566l129 165l152 -27l-156 -138h-125zM226 520v-520h-163v520h163z" />
    <glyph glyph-name="Icircumflex.sc" horiz-adv-x="290" 
d="M225 566l-75 67l-76 -67h-109l116 165h137l117 -165h-110zM226 520v-520h-163v520h163z" />
    <glyph glyph-name="Idieresis.sc" horiz-adv-x="290" 
d="M158 643q0 22 28 52.5t49 30.5q22 0 54 -25.5t32 -48.5q0 -21 -28.5 -50.5t-48.5 -29.5q-22 0 -54 25t-32 46zM-37 643q0 22 27.5 52.5t48.5 30.5q22 0 54 -25.5t32 -48.5q0 -21 -28 -50.5t-48 -29.5q-23 0 -54.5 24.5t-31.5 46.5zM226 520v-520h-163v520h163z" />
    <glyph glyph-name="Itilde.sc" horiz-adv-x="290" 
d="M276 723l52 -54q-12 -31 -53 -66.5t-71 -35.5q-19 0 -69 16.5t-62 16.5q-17 0 -37.5 -16t-27.5 -26l-47 62q8 14 49 52t68 38q23 0 68.5 -16.5t58.5 -16.5q29 0 71 46zM226 520v-520h-163v520h163z" />
    <glyph glyph-name="Imacron.sc" horiz-adv-x="290" 
d="M289 693v-15l-26 -87h-265v15l26 87h265zM226 520v-520h-163v520h163z" />
    <glyph glyph-name="Ibreve.sc" horiz-adv-x="290" 
d="M146 662q72 0 83 81h87q0 -78 -52.5 -127.5t-122.5 -49.5q-75 0 -120 48t-45 129h86q12 -81 84 -81zM226 520v-520h-163v520h163z" />
    <glyph glyph-name="Iogonek.sc" horiz-adv-x="290" 
d="M148 0h-85v520h163v-520h-1q-100 -70 -100 -121q0 -15 11.5 -24.5t26.5 -9.5q29 0 48 11l20 -64q-45 -25 -90 -25q-49 0 -79 26t-30 70q0 34 30.5 71t85.5 66z" />
    <glyph glyph-name="Idotaccent.sc" horiz-adv-x="290" 
d="M54 658q0 24 31 58t55 34t60 -27.5t36 -51.5t-32 -57.5t-55 -33.5q-24 0 -59.5 27.5t-35.5 50.5zM226 520v-520h-163v520h163z" />
    <glyph glyph-name="J.sc" horiz-adv-x="370" 
d="M305 520v-361q0 -80 -57 -128t-143 -48q-62 0 -101 16l20 122q26 -17 62 -17q54 0 54 55v361h165z" />
    <glyph glyph-name="Jcircumflex.sc" horiz-adv-x="370" 
d="M298 566l-75 67l-76 -67h-109l116 165h137l117 -165h-110zM305 520v-361q0 -80 -57 -128t-143 -48q-62 0 -101 16l20 122q26 -17 62 -17q54 0 54 55v361h165z" />
    <glyph glyph-name="K.sc" horiz-adv-x="598" 
d="M601 0h-200l-175 274l171 246h181l-182 -232zM226 520v-520h-163v520h163z" />
    <glyph glyph-name="Kcommaaccent.sc" horiz-adv-x="598" 
d="M601 0h-200l-175 274l171 246h181l-182 -232zM226 520v-520h-163v520h163zM234 -99q0 19 22 39.5t44 20.5q21 0 46 -26t25 -43q0 -48 -72 -157l-69 27q5 12 15.5 33t17.5 35.5t7 20.5t-18 23t-18 27z" />
    <glyph glyph-name="L.sc" horiz-adv-x="457" 
d="M63 0v520h163v-412l218 4l-11 -112h-370z" />
    <glyph glyph-name="Lacute.sc" horiz-adv-x="457" 
d="M62 566l129 165l152 -27l-156 -138h-125zM63 0v520h163v-412l218 4l-11 -112h-370z" />
    <glyph glyph-name="Lcommaaccent.sc" horiz-adv-x="457" 
d="M63 0v520h163v-412l218 4l-11 -112h-370zM164 -99q0 19 22 39.5t44 20.5q21 0 46 -26t25 -43q0 -48 -72 -157l-69 27q5 12 15.5 33t17.5 35.5t7 20.5t-18 23t-18 27z" />
    <glyph glyph-name="Lcaron.sc" horiz-adv-x="473" 
d="M311 506q-1 18 27 33.5t51 15.5q26 0 41.5 -34.5t15.5 -70.5q0 -60 -94 -190l-60 30q35 67 35 128q0 20 -8 48t-8 40zM63 0v520h163v-412l218 4l-11 -112h-370z" />
    <glyph glyph-name="M.sc" horiz-adv-x="785" 
d="M324 0l-114 313l-28 -313h-152l62 520h194l113 -304l114 304h180l62 -520h-160l-28 315l-111 -315h-132z" />
    <glyph glyph-name="N.sc" horiz-adv-x="638" 
d="M420 0l-204 304v-304h-153v520h170l188 -293v293h154v-520h-155z" />
    <glyph glyph-name="Ntilde.sc" horiz-adv-x="638" 
d="M462 723l52 -54q-12 -31 -53 -66.5t-71 -35.5q-19 0 -69 16.5t-62 16.5q-17 0 -37.5 -16t-27.5 -26l-47 62q8 14 49 52t68 38q23 0 68.5 -16.5t58.5 -16.5q29 0 71 46zM420 0l-204 304v-304h-153v520h170l188 -293v293h154v-520h-155z" />
    <glyph glyph-name="Nacute.sc" horiz-adv-x="638" 
d="M243 566l129 165l152 -27l-156 -138h-125zM420 0l-204 304v-304h-153v520h170l188 -293v293h154v-520h-155z" />
    <glyph glyph-name="Ncommaaccent.sc" horiz-adv-x="638" 
d="M420 0l-204 304v-304h-153v520h170l188 -293v293h154v-520h-155zM250 -99q0 19 22 39.5t44 20.5q21 0 46 -26t25 -43q0 -48 -72 -157l-69 27q5 12 15.5 33t17.5 35.5t7 20.5t-18 23t-18 27z" />
    <glyph glyph-name="Ncaron.sc" horiz-adv-x="638" 
d="M397 572h-136l-118 165h111l75 -67l75 67h109zM420 0l-204 304v-304h-153v520h170l188 -293v293h154v-520h-155z" />
    <glyph glyph-name="O.sc" horiz-adv-x="653" 
d="M619 271q0 -132 -87 -210t-228 -78q-131 0 -201 70.5t-70 196.5q0 131 87.5 209t227.5 78q132 0 201.5 -70.5t69.5 -195.5zM453 247q0 100 -37 141.5t-104 41.5q-51 0 -82.5 -38t-31.5 -119q0 -101 37 -141.5t106 -40.5q112 0 112 156z" />
    <glyph glyph-name="Ograve.sc" horiz-adv-x="653" 
d="M466 566h-125l-156 138l152 27zM619 271q0 -132 -87 -210t-228 -78q-131 0 -201 70.5t-70 196.5q0 131 87.5 209t227.5 78q132 0 201.5 -70.5t69.5 -195.5zM453 247q0 100 -37 141.5t-104 41.5q-51 0 -82.5 -38t-31.5 -119q0 -101 37 -141.5t106 -40.5q112 0 112 156z
" />
    <glyph glyph-name="Oacute.sc" horiz-adv-x="653" 
d="M240 566l129 165l152 -27l-156 -138h-125zM619 271q0 -132 -87 -210t-228 -78q-131 0 -201 70.5t-70 196.5q0 131 87.5 209t227.5 78q132 0 201.5 -70.5t69.5 -195.5zM453 247q0 100 -37 141.5t-104 41.5q-51 0 -82.5 -38t-31.5 -119q0 -101 37 -141.5t106 -40.5
q112 0 112 156z" />
    <glyph glyph-name="Ocircumflex.sc" horiz-adv-x="653" 
d="M401 566l-75 67l-76 -67h-109l116 165h137l117 -165h-110zM619 271q0 -132 -87 -210t-228 -78q-131 0 -201 70.5t-70 196.5q0 131 87.5 209t227.5 78q132 0 201.5 -70.5t69.5 -195.5zM453 247q0 100 -37 141.5t-104 41.5q-51 0 -82.5 -38t-31.5 -119q0 -101 37 -141.5
t106 -40.5q112 0 112 156z" />
    <glyph glyph-name="Otilde.sc" horiz-adv-x="653" 
d="M442 723l52 -54q-12 -31 -53 -66.5t-71 -35.5q-19 0 -69 16.5t-62 16.5q-17 0 -37.5 -16t-27.5 -26l-47 62q8 14 49 52t68 38q23 0 68.5 -16.5t58.5 -16.5q29 0 71 46zM619 271q0 -132 -87 -210t-228 -78q-131 0 -201 70.5t-70 196.5q0 131 87.5 209t227.5 78
q132 0 201.5 -70.5t69.5 -195.5zM453 247q0 100 -37 141.5t-104 41.5q-51 0 -82.5 -38t-31.5 -119q0 -101 37 -141.5t106 -40.5q112 0 112 156z" />
    <glyph glyph-name="Odieresis.sc" horiz-adv-x="653" 
d="M348 643q0 22 28 52.5t49 30.5q22 0 54 -25.5t32 -48.5q0 -21 -28.5 -50.5t-48.5 -29.5q-22 0 -54 25t-32 46zM153 643q0 22 27.5 52.5t48.5 30.5q22 0 54 -25.5t32 -48.5q0 -21 -28 -50.5t-48 -29.5q-23 0 -54.5 24.5t-31.5 46.5zM619 271q0 -132 -87 -210t-228 -78
q-131 0 -201 70.5t-70 196.5q0 131 87.5 209t227.5 78q132 0 201.5 -70.5t69.5 -195.5zM453 247q0 100 -37 141.5t-104 41.5q-51 0 -82.5 -38t-31.5 -119q0 -101 37 -141.5t106 -40.5q112 0 112 156z" />
    <glyph glyph-name="Omacron.sc" horiz-adv-x="653" 
d="M485 693v-15l-26 -87h-265v15l26 87h265zM619 271q0 -132 -87 -210t-228 -78q-131 0 -201 70.5t-70 196.5q0 131 87.5 209t227.5 78q132 0 201.5 -70.5t69.5 -195.5zM453 247q0 100 -37 141.5t-104 41.5q-51 0 -82.5 -38t-31.5 -119q0 -101 37 -141.5t106 -40.5
q112 0 112 156z" />
    <glyph glyph-name="Obreve.sc" horiz-adv-x="653" 
d="M327 662q72 0 83 81h87q0 -78 -52.5 -127.5t-122.5 -49.5q-75 0 -120 48t-45 129h86q12 -81 84 -81zM619 271q0 -132 -87 -210t-228 -78q-131 0 -201 70.5t-70 196.5q0 131 87.5 209t227.5 78q132 0 201.5 -70.5t69.5 -195.5zM453 247q0 100 -37 141.5t-104 41.5
q-51 0 -82.5 -38t-31.5 -119q0 -101 37 -141.5t106 -40.5q112 0 112 156z" />
    <glyph glyph-name="Ohungarumlaut.sc" horiz-adv-x="653" 
d="M327 566l112 165l153 -27l-140 -138h-125zM152 566l112 165l152 -27l-139 -138h-125zM619 271q0 -132 -87 -210t-228 -78q-131 0 -201 70.5t-70 196.5q0 131 87.5 209t227.5 78q132 0 201.5 -70.5t69.5 -195.5zM453 247q0 100 -37 141.5t-104 41.5q-51 0 -82.5 -38
t-31.5 -119q0 -101 37 -141.5t106 -40.5q112 0 112 156z" />
    <glyph glyph-name="P.sc" horiz-adv-x="511" 
d="M252 261q95 0 95 80q0 42 -30 65t-85 23h-6v-167q8 -1 26 -1zM257 163q-20 0 -31 1v-164h-163v520h227q107 0 161 -42.5t54 -119.5q0 -85 -73 -140t-175 -55z" />
    <glyph glyph-name="Q.sc" horiz-adv-x="653" 
d="M619 271q0 -132 -87 -210t-228 -78q-131 0 -201 70.5t-70 196.5q0 131 87.5 209t227.5 78q132 0 201.5 -70.5t69.5 -195.5zM453 247q0 100 -37 141.5t-104 41.5q-51 0 -82.5 -38t-31.5 -119q0 -101 37 -141.5t106 -40.5q112 0 112 156zM615 -61v-99q-50 -29 -98 -29
q-47 0 -137.5 33t-121.5 33q-41 0 -105 -41l-30 91q76 38 153 38q50 0 142.5 -25t123.5 -25q36 0 73 24z" />
    <glyph glyph-name="R.sc" horiz-adv-x="546" 
d="M270 284q33 0 52 18t19 49q0 40 -27 59.5t-88 19.5v-142q20 -4 44 -4zM250 189h-24v-189h-163v520h225q218 0 218 -146q0 -94 -93 -147l128 -227h-169l-92 190q-9 -1 -30 -1z" />
    <glyph glyph-name="Racute.sc" horiz-adv-x="546" 
d="M164 566l129 165l152 -27l-156 -138h-125zM270 284q33 0 52 18t19 49q0 40 -27 59.5t-88 19.5v-142q20 -4 44 -4zM250 189h-24v-189h-163v520h225q218 0 218 -146q0 -94 -93 -147l128 -227h-169l-92 190q-9 -1 -30 -1z" />
    <glyph glyph-name="Rcommaaccent.sc" horiz-adv-x="546" 
d="M270 284q33 0 52 18t19 49q0 40 -27 59.5t-88 19.5v-142q20 -4 44 -4zM250 189h-24v-189h-163v520h225q218 0 218 -146q0 -94 -93 -147l128 -227h-169l-92 190q-9 -1 -30 -1zM212 -99q0 19 22 39.5t44 20.5q21 0 46 -26t25 -43q0 -48 -72 -157l-69 27q5 12 15.5 33
t17.5 35.5t7 20.5t-18 23t-18 27z" />
    <glyph glyph-name="Rcaron.sc" horiz-adv-x="546" 
d="M341 572h-136l-118 165h111l75 -67l75 67h109zM270 284q33 0 52 18t19 49q0 40 -27 59.5t-88 19.5v-142q20 -4 44 -4zM250 189h-24v-189h-163v520h225q218 0 218 -146q0 -94 -93 -147l128 -227h-169l-92 190q-9 -1 -30 -1z" />
    <glyph glyph-name="S.sc" horiz-adv-x="483" 
d="M217 196q-98 28 -138.5 67t-40.5 106q0 74 59.5 120t157.5 46q123 0 184 -26l-29 -114q-100 30 -171 30q-55 0 -55 -35q0 -21 21 -34.5t80 -27.5q102 -26 135 -67t33 -103q0 -76 -64 -125.5t-163 -49.5q-97 0 -189 29l25 124q99 -39 181 -39q61 0 61 39q0 38 -87 60z" />
    <glyph glyph-name="Sacute.sc" horiz-adv-x="483" 
d="M157 566l129 165l152 -27l-156 -138h-125zM217 196q-98 28 -138.5 67t-40.5 106q0 74 59.5 120t157.5 46q123 0 184 -26l-29 -114q-100 30 -171 30q-55 0 -55 -35q0 -21 21 -34.5t80 -27.5q102 -26 135 -67t33 -103q0 -76 -64 -125.5t-163 -49.5q-97 0 -189 29l25 124
q99 -39 181 -39q61 0 61 39q0 38 -87 60z" />
    <glyph glyph-name="Scircumflex.sc" horiz-adv-x="483" 
d="M334 566l-75 67l-76 -67h-109l116 165h137l117 -165h-110zM217 196q-98 28 -138.5 67t-40.5 106q0 74 59.5 120t157.5 46q123 0 184 -26l-29 -114q-100 30 -171 30q-55 0 -55 -35q0 -21 21 -34.5t80 -27.5q102 -26 135 -67t33 -103q0 -76 -64 -125.5t-163 -49.5
q-97 0 -189 29l25 124q99 -39 181 -39q61 0 61 39q0 38 -87 60z" />
    <glyph glyph-name="Scedilla.sc" horiz-adv-x="483" 
d="M177 -238l-16 59q48 5 72 13t24 24q0 24 -72 39l-3 5l40 81q-99 1 -185 29l25 124q99 -39 181 -39q61 0 61 39q0 38 -87 60q-98 28 -138.5 67t-40.5 106q0 74 59.5 120t157.5 46q123 0 184 -26l-29 -114q-100 30 -171 30q-55 0 -55 -35q0 -21 21 -34.5t80 -27.5
q102 -26 135 -67t33 -103q0 -64 -46 -110t-122 -60l-17 -39q87 -29 87 -77q0 -40 -44.5 -73t-133.5 -37z" />
    <glyph glyph-name="Scaron.sc" horiz-adv-x="483" 
d="M333 572h-136l-118 165h111l75 -67l75 67h109zM217 196q-98 28 -138.5 67t-40.5 106q0 74 59.5 120t157.5 46q123 0 184 -26l-29 -114q-100 30 -171 30q-55 0 -55 -35q0 -21 21 -34.5t80 -27.5q102 -26 135 -67t33 -103q0 -76 -64 -125.5t-163 -49.5q-97 0 -189 29
l25 124q99 -39 181 -39q61 0 61 39q0 38 -87 60z" />
    <glyph glyph-name="Scommaaccent.sc" horiz-adv-x="483" 
d="M217 196q-98 28 -138.5 67t-40.5 106q0 74 59.5 120t157.5 46q123 0 184 -26l-29 -114q-100 30 -171 30q-55 0 -55 -35q0 -21 21 -34.5t80 -27.5q102 -26 135 -67t33 -103q0 -76 -64 -125.5t-163 -49.5q-97 0 -189 29l25 124q99 -39 181 -39q61 0 61 39q0 38 -87 60z
M176 -99q0 19 22 39.5t44 20.5q21 0 46 -26t25 -43q0 -48 -72 -157l-69 27q5 12 15.5 33t17.5 35.5t7 20.5t-18 23t-18 27z" />
    <glyph glyph-name="T.sc" horiz-adv-x="494" 
d="M480 408l-149 3v-411h-163v411l-166 -3l15 112h475z" />
    <glyph glyph-name="Tcommaaccent.sc" horiz-adv-x="494" 
d="M480 408l-149 3v-411h-163v411l-166 -3l15 112h475zM176 -99q0 19 22 39.5t44 20.5q21 0 46 -26t25 -43q0 -48 -72 -157l-69 27q5 12 15.5 33t17.5 35.5t7 20.5t-18 23t-18 27z" />
    <glyph glyph-name="Tcaron.sc" horiz-adv-x="494" 
d="M321 572h-136l-118 165h111l75 -67l75 67h109zM480 408l-149 3v-411h-163v411l-166 -3l15 112h475z" />
    <glyph glyph-name="U.sc" horiz-adv-x="611" 
d="M58 174v346h164v-309q0 -95 88 -95q46 0 66 19t20 60v325h157v-326q0 -94 -70 -152.5t-190 -58.5q-115 0 -175 50t-60 141z" />
    <glyph glyph-name="Ugrave.sc" horiz-adv-x="611" 
d="M433 566h-125l-156 138l152 27zM58 174v346h164v-309q0 -95 88 -95q46 0 66 19t20 60v325h157v-326q0 -94 -70 -152.5t-190 -58.5q-115 0 -175 50t-60 141z" />
    <glyph glyph-name="Uacute.sc" horiz-adv-x="611" 
d="M201 566l129 165l152 -27l-156 -138h-125zM58 174v346h164v-309q0 -95 88 -95q46 0 66 19t20 60v325h157v-326q0 -94 -70 -152.5t-190 -58.5q-115 0 -175 50t-60 141z" />
    <glyph glyph-name="Ucircumflex.sc" horiz-adv-x="611" 
d="M384 566l-75 67l-76 -67h-109l116 165h137l117 -165h-110zM58 174v346h164v-309q0 -95 88 -95q46 0 66 19t20 60v325h157v-326q0 -94 -70 -152.5t-190 -58.5q-115 0 -175 50t-60 141z" />
    <glyph glyph-name="Udieresis.sc" horiz-adv-x="611" 
d="M330 643q0 22 28 52.5t49 30.5q22 0 54 -25.5t32 -48.5q0 -21 -28.5 -50.5t-48.5 -29.5q-22 0 -54 25t-32 46zM135 643q0 22 27.5 52.5t48.5 30.5q22 0 54 -25.5t32 -48.5q0 -21 -28 -50.5t-48 -29.5q-23 0 -54.5 24.5t-31.5 46.5zM58 174v346h164v-309q0 -95 88 -95
q46 0 66 19t20 60v325h157v-326q0 -94 -70 -152.5t-190 -58.5q-115 0 -175 50t-60 141z" />
    <glyph glyph-name="Utilde.sc" horiz-adv-x="611" 
d="M447 723l52 -54q-12 -31 -53 -66.5t-71 -35.5q-19 0 -69 16.5t-62 16.5q-17 0 -37.5 -16t-27.5 -26l-47 62q8 14 49 52t68 38q23 0 68.5 -16.5t58.5 -16.5q29 0 71 46zM58 174v346h164v-309q0 -95 88 -95q46 0 66 19t20 60v325h157v-326q0 -94 -70 -152.5t-190 -58.5
q-115 0 -175 50t-60 141z" />
    <glyph glyph-name="Umacron.sc" horiz-adv-x="611" 
d="M470 693v-15l-26 -87h-265v15l26 87h265zM58 174v346h164v-309q0 -95 88 -95q46 0 66 19t20 60v325h157v-326q0 -94 -70 -152.5t-190 -58.5q-115 0 -175 50t-60 141z" />
    <glyph glyph-name="Ubreve.sc" horiz-adv-x="611" 
d="M308 662q72 0 83 81h87q0 -78 -52.5 -127.5t-122.5 -49.5q-75 0 -120 48t-45 129h86q12 -81 84 -81zM58 174v346h164v-309q0 -95 88 -95q46 0 66 19t20 60v325h157v-326q0 -94 -70 -152.5t-190 -58.5q-115 0 -175 50t-60 141z" />
    <glyph glyph-name="Uring.sc" horiz-adv-x="611" 
d="M414 665q0 -42 -32 -72.5t-75 -30.5q-45 0 -75.5 28t-30.5 75q0 42 32 72.5t75 30.5q46 0 76 -27t30 -76zM265 665q0 -18 12 -30t30 -12t30.5 12t12.5 30q0 19 -12.5 31t-30.5 12t-30 -12t-12 -31zM58 174v346h164v-309q0 -95 88 -95q46 0 66 19t20 60v325h157v-326
q0 -94 -70 -152.5t-190 -58.5q-115 0 -175 50t-60 141z" />
    <glyph glyph-name="Uhungarumlaut.sc" horiz-adv-x="611" 
d="M300 566l112 165l153 -27l-140 -138h-125zM125 566l112 165l152 -27l-139 -138h-125zM58 174v346h164v-309q0 -95 88 -95q46 0 66 19t20 60v325h157v-326q0 -94 -70 -152.5t-190 -58.5q-115 0 -175 50t-60 141z" />
    <glyph glyph-name="Uogonek.sc" horiz-adv-x="611" 
d="M404 -186q-49 0 -79 26t-30 70q0 36 33 74q-11 -1 -35 -1q-115 0 -175 50t-60 141v346h164v-309q0 -95 88 -95q46 0 66 19t20 60v325h157v-326q0 -114 -98 -172q-67 -55 -67 -96q0 -15 11.5 -24.5t26.5 -9.5q29 0 48 11l20 -64q-45 -25 -90 -25z" />
    <glyph glyph-name="V.sc" horiz-adv-x="566" 
d="M372 0h-187l-188 520h172l120 -362l115 362h166z" />
    <glyph glyph-name="W.sc" horiz-adv-x="811" 
d="M510 0l-105 308l-108 -308h-172l-121 520h161l68 -323l112 323h141l109 -320l66 320h146l-125 -520h-172z" />
    <glyph glyph-name="Wcircumflex.sc" horiz-adv-x="811" 
d="M498 566l-75 67l-76 -67h-109l116 165h137l117 -165h-110zM510 0l-105 308l-108 -308h-172l-121 520h161l68 -323l112 323h141l109 -320l66 320h146l-125 -520h-172z" />
    <glyph glyph-name="Wgrave.sc" horiz-adv-x="811" 
d="M516 566h-125l-156 138l152 27zM510 0l-105 308l-108 -308h-172l-121 520h161l68 -323l112 323h141l109 -320l66 320h146l-125 -520h-172z" />
    <glyph glyph-name="Wacute.sc" horiz-adv-x="811" 
d="M347 566l129 165l152 -27l-156 -138h-125zM510 0l-105 308l-108 -308h-172l-121 520h161l68 -323l112 323h141l109 -320l66 320h146l-125 -520h-172z" />
    <glyph glyph-name="Wdieresis.sc" horiz-adv-x="811" 
d="M430 643q0 22 28 52.5t49 30.5q22 0 54 -25.5t32 -48.5q0 -21 -28.5 -50.5t-48.5 -29.5q-22 0 -54 25t-32 46zM235 643q0 22 27.5 52.5t48.5 30.5q22 0 54 -25.5t32 -48.5q0 -21 -28 -50.5t-48 -29.5q-23 0 -54.5 24.5t-31.5 46.5zM510 0l-105 308l-108 -308h-172
l-121 520h161l68 -323l112 323h141l109 -320l66 320h146l-125 -520h-172z" />
    <glyph glyph-name="X.sc" horiz-adv-x="528" 
d="M363 0l-107 155l-90 -155h-178l186 275l-169 245h185l87 -129l73 129h178l-168 -252l180 -268h-177z" />
    <glyph glyph-name="Y.sc" horiz-adv-x="519" 
d="M338 185v-185h-163v185l-178 335h171l106 -200l106 200h142z" />
    <glyph glyph-name="Yacute.sc" horiz-adv-x="519" 
d="M170 566l129 165l152 -27l-156 -138h-125zM338 185v-185h-163v185l-178 335h171l106 -200l106 200h142z" />
    <glyph glyph-name="Ycircumflex.sc" horiz-adv-x="519" 
d="M349 566l-75 67l-76 -67h-109l116 165h137l117 -165h-110zM338 185v-185h-163v185l-178 335h171l106 -200l106 200h142z" />
    <glyph glyph-name="Ydieresis.sc" horiz-adv-x="519" 
d="M295 643q0 22 28 52.5t49 30.5q22 0 54 -25.5t32 -48.5q0 -21 -28.5 -50.5t-48.5 -29.5q-22 0 -54 25t-32 46zM100 643q0 22 27.5 52.5t48.5 30.5q22 0 54 -25.5t32 -48.5q0 -21 -28 -50.5t-48 -29.5q-23 0 -54.5 24.5t-31.5 46.5zM338 185v-185h-163v185l-178 335h171
l106 -200l106 200h142z" />
    <glyph glyph-name="Ygrave.sc" horiz-adv-x="519" 
d="M381 566h-125l-156 138l152 27zM338 185v-185h-163v185l-178 335h171l106 -200l106 200h142z" />
    <glyph glyph-name="Z.sc" horiz-adv-x="494" 
d="M450 0h-417v98l241 307h-246l21 115h405v-101l-236 -305h255z" />
    <glyph glyph-name="Zacute.sc" horiz-adv-x="494" 
d="M148 566l129 165l152 -27l-156 -138h-125zM450 0h-417v98l241 307h-246l21 115h405v-101l-236 -305h255z" />
    <glyph glyph-name="Zdotaccent.sc" horiz-adv-x="494" 
d="M173 658q0 24 31 58t55 34t60 -27.5t36 -51.5t-32 -57.5t-55 -33.5q-24 0 -59.5 27.5t-35.5 50.5zM450 0h-417v98l241 307h-246l21 115h405v-101l-236 -305h255z" />
    <glyph glyph-name="Zcaron.sc" horiz-adv-x="494" 
d="M326 572h-136l-118 165h111l75 -67l75 67h109zM450 0h-417v98l241 307h-246l21 115h405v-101l-236 -305h255z" />
    <glyph glyph-name="AE.sc" horiz-adv-x="730" 
d="M448 419zM310 396l-79 -173h95v174zM326 0v111h-146l-50 -111h-161l262 520h474l-13 -103l-180 2h-1h-1h-1h-1h-1h-1h-1h-1h-1h-1h-1h-1h-1h-1h-1h-1h-2h-1h-1h-1h-1h-1v-100h188l-10 -99l-178 1v-116l230 2l-13 -107h-380z" />
    <glyph glyph-name="AEacute.sc" horiz-adv-x="730" 
d="M366 566l129 165l152 -27l-156 -138h-125zM448 419zM310 396l-79 -173h95v174zM326 0v111h-146l-50 -111h-161l262 520h474l-13 -103l-180 2h-1h-1h-1h-1h-1h-1h-1h-1h-1h-1h-1h-1h-1h-1h-1h-1h-2h-1h-1h-1h-1h-1v-100h188l-10 -99l-178 1v-116l230 2l-13 -107h-380z" />
    <glyph glyph-name="Eth.sc" horiz-adv-x="598" 
d="M234 -6q-51 0 -165 14v217h-44v87h44v208h235q122 0 191 -62t69 -181q0 -129 -89.5 -206t-240.5 -77zM270 107q61 0 98.5 37.5t37.5 113.5q0 77 -38.5 119.5t-94.5 42.5h-47v-108h107l-9 -87h-98v-116q4 0 15 -1t29 -1z" />
    <glyph glyph-name="Oslash.sc" horiz-adv-x="653" 
d="M198 273q0 -74 22 -118l132 271q-17 4 -40 4q-51 0 -82.5 -38t-31.5 -119zM341 91q112 0 112 156q0 75 -22 117l-131 -269q17 -4 41 -4zM304 -17q-33 0 -57 4l-28 -58h-109l43 88q-120 64 -120 233q0 131 87.5 209t227.5 78q32 0 56 -4l27 56h110l-42 -86
q120 -64 120 -232q0 -132 -87 -210t-228 -78z" />
    <glyph glyph-name="Oslashacute.sc" horiz-adv-x="653" 
d="M216 566l129 165l152 -27l-156 -138h-125zM198 273q0 -74 22 -118l132 271q-17 4 -40 4q-51 0 -82.5 -38t-31.5 -119zM341 91q112 0 112 156q0 75 -22 117l-131 -269q17 -4 41 -4zM304 -17q-33 0 -57 4l-28 -58h-109l43 88q-120 64 -120 233q0 131 87.5 209t227.5 78
q32 0 56 -4l27 56h110l-42 -86q120 -64 120 -232q0 -132 -87 -210t-228 -78z" />
    <glyph glyph-name="Thorn.sc" horiz-adv-x="511" 
d="M252 187q95 0 95 80q0 42 -30 64.5t-85 22.5h-6v-166q8 -1 26 -1zM257 88q-20 0 -31 1v-89h-163v520h163v-75h64q107 0 161 -42.5t54 -119.5q0 -84 -73 -139.5t-175 -55.5z" />
    <glyph glyph-name="Dcroat.sc" horiz-adv-x="598" 
d="M234 -6q-51 0 -165 14v217h-44v87h44v208h235q122 0 191 -62t69 -181q0 -129 -89.5 -206t-240.5 -77zM270 107q61 0 98.5 37.5t37.5 113.5q0 77 -38.5 119.5t-94.5 42.5h-47v-108h107l-9 -87h-98v-116q4 0 15 -1t29 -1z" />
    <glyph glyph-name="Hbar.sc" horiz-adv-x="628" 
d="M403 328v49h-178v-49h178zM403 0v209h-178v-209h-162v377h-53v16l25 64h28v63h162v-63h178v63h162v-63h56v-16l-24 -64h-32v-377h-162z" />
    <glyph glyph-name="IJ.sc" horiz-adv-x="633" 
d="M226 520v-520h-163v520h163zM568 520v-361q0 -80 -57 -128t-143 -48q-62 0 -101 16l20 122q26 -17 62 -17q54 0 54 55v361h165z" />
    <glyph glyph-name="Ldot.sc" horiz-adv-x="473" 
d="M278 312q0 24 31 58t55 34t60 -27.5t36 -51.5t-32 -57.5t-55 -33.5q-24 0 -59.5 27.5t-35.5 50.5zM63 0v520h163v-412l218 4l-11 -112h-370z" />
    <glyph glyph-name="Lslash.sc" horiz-adv-x="457" 
d="M63 0v196l-50 -20v94l50 20v230h163v-164l98 39v-93l-98 -40v-154l218 4l-11 -112h-370z" />
    <glyph glyph-name="Eng.sc" horiz-adv-x="638" 
d="M360 -205q-68 0 -112 19l22 122q55 -24 96 -24q58 0 58 80l-207 312v-304h-154v520h172l189 -299v299h151v-500v-15q-4 -99 -62 -154.5t-153 -55.5z" />
    <glyph glyph-name="OE.sc" horiz-adv-x="827" 
d="M341 91q36 0 62 17v297q-32 25 -91 25q-50 0 -82 -38.5t-32 -118.5q0 -100 37.5 -141t105.5 -41zM783 0h-368q-62 -17 -111 -17q-130 0 -200.5 70.5t-70.5 196.5q0 131 84.5 209t217.5 78q58 0 109 -17h338l-13 -103l-203 2v-100h188l-10 -99l-178 1v-116l230 2z" />
    <glyph glyph-name="Tbar.sc" horiz-adv-x="494" 
d="M416 220h-85v-220h-163v220h-114v24l24 70h90v97l-166 -3l15 112h475l-12 -112l-149 3v-97h110v-24z" />
    <glyph glyph-name="commaaccent.sc" horiz-adv-x="252" 
d="M59 -99q0 19 22 39.5t44 20.5q21 0 46 -26t25 -43q0 -48 -72 -157l-69 27q5 12 15.5 33t17.5 35.5t7 20.5t-18 23t-18 27z" />
    <glyph glyph-name="acute.sc" horiz-adv-x="357" 
d="M38 566l129 165l152 -27l-156 -138h-125z" />
    <glyph glyph-name="grave.sc" horiz-adv-x="357" 
d="M319 566h-125l-156 138l152 27z" />
    <glyph glyph-name="hungarumlaut.sc" horiz-adv-x="515" 
d="M212 566l112 165l153 -27l-140 -138h-125zM37 566l112 165l152 -27l-139 -138h-125z" />
    <glyph glyph-name="circumflex.sc" horiz-adv-x="481" 
d="M315 566l-75 67l-76 -67h-109l116 165h137l117 -165h-110z" />
    <glyph glyph-name="caron.sc" horiz-adv-x="481" 
d="M309 572h-136l-118 165h111l75 -67l75 67h109z" />
    <glyph glyph-name="breve.sc" horiz-adv-x="534" 
d="M267 662q72 0 83 81h87q0 -78 -52.5 -127.5t-122.5 -49.5q-75 0 -120 48t-45 129h86q12 -81 84 -81z" />
    <glyph glyph-name="tilde.sc" horiz-adv-x="511" 
d="M386 723l52 -54q-12 -31 -53 -66.5t-71 -35.5q-19 0 -69 16.5t-62 16.5q-17 0 -37.5 -16t-27.5 -26l-47 62q8 14 49 52t68 38q23 0 68.5 -16.5t58.5 -16.5q29 0 71 46z" />
    <glyph glyph-name="macron.sc" horiz-adv-x="451" 
d="M371 693v-15l-26 -87h-265v15l26 87h265z" />
    <glyph glyph-name="dieresis.sc" horiz-adv-x="532" 
d="M282 643q0 22 28 52.5t49 30.5q22 0 54 -25.5t32 -48.5q0 -21 -28.5 -50.5t-48.5 -29.5q-22 0 -54 25t-32 46zM87 643q0 22 27.5 52.5t48.5 30.5q22 0 54 -25.5t32 -48.5q0 -21 -28 -50.5t-48 -29.5q-23 0 -54.5 24.5t-31.5 46.5z" />
    <glyph glyph-name="dotaccent.sc" horiz-adv-x="350" 
d="M84 658q0 24 31 58t55 34t60 -27.5t36 -51.5t-32 -57.5t-55 -33.5q-24 0 -59.5 27.5t-35.5 50.5z" />
    <glyph glyph-name="ring.sc" horiz-adv-x="379" 
d="M296 665q0 -42 -32 -72.5t-75 -30.5q-45 0 -75.5 28t-30.5 75q0 42 32 72.5t75 30.5q46 0 76 -27t30 -76zM147 665q0 -18 12 -30t30 -12t30.5 12t12.5 30q0 19 -12.5 31t-30.5 12t-30 -12t-12 -31z" />
    <glyph glyph-name="cedilla.sc" horiz-adv-x="307" 
d="M78 -98l48 98h60l-22 -51q87 -29 87 -77q0 -40 -44.5 -73t-133.5 -37l-16 59q48 5 72 13t24 24q0 24 -72 39z" />
    <glyph glyph-name="ogonek.sc" horiz-adv-x="367" 
d="M83 -137q0 34 30.5 71t85.5 66h77q-100 -70 -100 -121q0 -15 11.5 -24.5t26.5 -9.5q29 0 48 11l20 -64q-45 -25 -90 -25q-49 0 -79 26t-30 70z" />
    <glyph glyph-name="Dotlessi.sc" horiz-adv-x="290" 
d="M228 520v-520h-163v520h163z" />
    <glyph glyph-name="Tcedilla.sc" horiz-adv-x="494" 
d="M221 0h-53v411l-166 -3l15 112h475l-12 -112l-149 3v-411h-50l-22 -51q87 -29 87 -77q0 -40 -44.5 -73t-133.5 -37l-16 59q48 5 72 13t24 24q0 24 -72 39l-3 5z" />
    <glyph glyph-name="f_f.sc" horiz-adv-x="937" 
d="M400 196l-174 2v-198h-163v520h379l-13 -108l-203 3v-116h186zM868 196l-174 2v-198h-163v520h379l-13 -108l-203 3v-116h186z" />
    <glyph glyph-name="f_f_i.sc" horiz-adv-x="1225" 
d="M1161 520v-520h-163v520h163zM400 196l-174 2v-198h-163v520h379l-13 -108l-203 3v-116h186zM868 196l-174 2v-198h-163v520h379l-13 -108l-203 3v-116h186z" />
    <glyph glyph-name="f_f_l.sc" horiz-adv-x="1397" 
d="M400 196l-174 2v-198h-163v520h379l-13 -108l-203 3v-116h186zM869 196l-174 2v-198h-163v520h379l-13 -108l-203 3v-116h186zM1003 0v520h163v-412l218 4l-11 -112h-370z" />
    <glyph glyph-name="fi.sc" horiz-adv-x="760" 
d="M696 520v-520h-163v520h163zM400 196l-174 2v-198h-163v520h379l-13 -108l-203 3v-116h186z" />
    <glyph glyph-name="fl.sc" horiz-adv-x="930" 
d="M400 196l-174 2v-198h-163v520h379l-13 -108l-203 3v-116h186zM536 0v520h163v-412l218 4l-11 -112h-370z" />
    </font>
</defs>
</svg>
