<?xml version="1.0" standalone="no"?>
<!DOCTYPE svg PUBLIC "-//W3C//DTD SVG 1.1//EN" "http://www.w3.org/Graphics/SVG/1.1/DTD/svg11.dtd" >
<svg xmlns="http://www.w3.org/2000/svg" xmlns:xlink="http://www.w3.org/1999/xlink" version="1.1">
<metadata>
Created by FontForge 20170731 at Sun Apr  3 01:42:02 2016
 By Aleksey,,,
Universidad Nacional de Colombia, Unidad de Medios de Comunicacio'n (Unimedios), 2012-2015.
</metadata>
<defs>
<font id="AncizarSans-BlackItalic" horiz-adv-x="526" >
  <font-face 
    font-family="Ancizar Sans Black"
    font-weight="850"
    font-style="italic"
    font-stretch="normal"
    units-per-em="1000"
    panose-1="2 11 10 2 4 3 0 0 0 3"
    ascent="750"
    descent="-250"
    x-height="450"
    cap-height="612"
    bbox="-121 -270 1299 927"
    underline-thickness="0"
    underline-position="0"
    slope="-4"
    unicode-range="U+0020-FB04"
  />
<missing-glyph horiz-adv-x="717" 
d="M109 0v703h500v-703h-500zM359 397l170 256h-340zM159 608v-513l170 256zM389 351l170 -256v513zM189 50h340l-170 256z" />
    <glyph glyph-name="f_f" unicode="ff" horiz-adv-x="551" 
d="M239 505l-3 -55h99v7q3 46 16 89q-21 8 -61 8q-22 0 -36 -13t-15 -36zM238 -241q-60 0 -77 16l36 138q15 -13 50 -13q56 0 59 62l22 380h-98l-20 -349q-4 -61 -28 -108t-60 -73.5t-74.5 -39.5t-76.5 -13q-60 0 -77 16l36 138q10 -9 50 -9q57 0 59 58l20 380h-53l2 87
l57 19q10 124 79.5 182t152.5 58q60 0 88 -10l-25 -109q30 72 88 105.5t120 33.5q59 0 87 -10l-31 -133q-20 9 -64 9q-22 0 -35.5 -13t-14.5 -36l-5 -75h80l-17 -108h-69l-22 -349q-8 -117 -81 -175.5t-158 -58.5z" />
    <glyph glyph-name="fi" unicode="fi" horiz-adv-x="536" 
d="M-29 -241q-60 0 -77 16l36 138q10 -9 50 -9q57 0 59 58l22 380h-55l2 87l60 20v8q7 117 85 184t186 67q101 0 180 -30l-57 -133l-22 8q-22 8 -54 14.5t-67 6.5q-37 0 -57.5 -16.5t-22.5 -59.5l-3 -48h133l140 19l-33 -469h-168l25 342h-103l-20 -349q-4 -61 -28 -108
t-60 -73.5t-74.5 -39.5t-76.5 -13z" />
    <glyph glyph-name="fl" unicode="fl" horiz-adv-x="578" 
d="M-29 -241q-60 0 -77 16l36 138q10 -9 50 -9q57 0 59 58l22 380h-55l2 87l60 20v8q7 117 85 184t186 67q57 0 112 -11l81 11q-10 -133 -22.5 -263.5t-18.5 -195t-6 -93.5q0 -10 5 -20t16 -10q9 0 48 13l19 -110q-91 -48 -154 -48q-106 0 -106 112q0 31 3.5 83t8.5 102
t13.5 139.5t14.5 154.5q-20 2 -34 2q-37 0 -57.5 -16.5t-22.5 -59.5l-3 -48h73l-18 -108h-61l-20 -349q-4 -61 -28 -108t-60 -73.5t-74.5 -39.5t-76.5 -13z" />
    <glyph glyph-name="f_f_i" unicode="ffi" horiz-adv-x="804" 
d="M239 505l-3 -55h99v7q3 51 19 88q-22 9 -64 9q-22 0 -36 -13t-15 -36zM238 -241q-60 0 -77 16l36 138q10 -9 50 -9q57 0 59 58l22 380h-98l-20 -349q-4 -61 -28 -108t-60 -73.5t-74.5 -39.5t-76.5 -13q-60 0 -77 16l36 138q10 -9 50 -9q57 0 59 58l20 380h-53l2 87l57 19
q10 124 79.5 182t152.5 58q60 0 88 -10l-30 -131q30 77 98.5 119t152.5 42q101 0 180 -30l-56 -133q-1 0 -23 8t-54 14.5t-67 6.5q-77 0 -79 -76l-3 -48h132l140 19l-33 -469h-168l25 342h-102l-21 -349q-4 -61 -28 -108t-60 -73.5t-74.5 -39.5t-76.5 -13z" />
    <glyph glyph-name="f_f_l" unicode="ffl" horiz-adv-x="843" 
d="M239 505l-3 -55h96v7q3 47 19 89q-21 8 -61 8q-22 0 -36 -13t-15 -36zM235 -241q-59 0 -76 16l36 138q10 -9 50 -9q57 0 59 58l21 380h-95l-20 -349q-4 -61 -28 -108t-60 -73.5t-74.5 -39.5t-76.5 -13q-60 0 -77 16l36 138q10 -9 50 -9q57 0 59 58l20 380h-53l2 87l57 19
q10 124 79.5 182t152.5 58q60 0 88 -10l-27 -116q33 70 99.5 108t145.5 38q58 0 113 -11l81 11q-11 -132 -23.5 -263.5t-18.5 -195.5t-6 -93q0 -10 5.5 -20t16.5 -10q9 0 48 13l19 -110q-92 -48 -154 -48q-107 0 -107 112q0 39 5.5 102.5t17 182.5t18.5 194q-20 2 -34 2
q-37 0 -57.5 -16.5t-22.5 -59.5l-3 -48h84l-17 -108h-73l-20 -349q-4 -61 -28 -108t-60 -73.5t-74.5 -39.5t-77.5 -13z" />
    <glyph glyph-name=".notdef" horiz-adv-x="717" 
d="M109 0v703h500v-703h-500zM359 397l170 256h-340zM159 608v-513l170 256zM389 351l170 -256v513zM189 50h340l-170 256z" />
    <glyph glyph-name=".null" horiz-adv-x="0" 
 />
    <glyph glyph-name="nonmarkingreturn" horiz-adv-x="333" 
 />
    <glyph glyph-name="space" unicode=" " horiz-adv-x="191" 
 />
    <glyph glyph-name="exclam" unicode="!" horiz-adv-x="326" 
d="M219 184l-131 -19q19 326 11 448l167 31q-41 -370 -47 -460zM49 45q1 23 41.5 56.5t61.5 33.5q20 0 54.5 -31t32.5 -54q-1 -18 -39 -48t-57 -30q-21 0 -58 28.5t-36 44.5z" />
    <glyph glyph-name="quotedbl" unicode="&#x22;" horiz-adv-x="385" 
d="M224 434l1 259h156l-38 -259h-119zM55 434l-5 259h156l-31 -259h-120z" />
    <glyph glyph-name="numbersign" unicode="#" horiz-adv-x="637" 
d="M351 250l30 96h-111l-30 -96h111zM273 0l53 170h-111l-53 -170h-93l53 170h-116l1 15l44 65h96l30 96h-129l1 15l44 67h110l57 184h93l-57 -184h111l57 184h93l-57 -184h127l-1 -15l-44 -67h-108l-30 -96h141l-1 -15l-44 -65h-121l-53 -170h-93z" />
    <glyph glyph-name="dollar" unicode="$" 
d="M277 -151h-122l20 134q-85 8 -154 33l36 150q108 -53 193 -55q45 5 45 46q0 35 -52 63l-88 43q-47 23 -72.5 65.5t-25.5 90.5q0 75 46 129.5t120 73.5l-2 134h122l-19 -126q79 -5 173 -36l-39 -153q-22 13 -79.5 32.5t-90.5 19.5q-59 0 -59 -39q0 -36 50 -61l92 -46
q105 -51 105 -164q0 -74 -56.5 -128.5t-144.5 -69.5z" />
    <glyph glyph-name="percent" unicode="%" horiz-adv-x="709" 
d="M355 482q-4 -73 -54 -119.5t-122 -46.5q-70 0 -106.5 39t-32.5 113q7 72 56.5 118t121.5 46q69 0 106.5 -38.5t30.5 -111.5zM7 0l574 612h117l-575 -612h-116zM251 474q4 83 -54 83q-24 0 -36 -19.5t-15 -61.5q-3 -84 55 -84q23 0 35 19.5t15 62.5zM669 148
q-6 -73 -56 -120t-122 -47q-70 0 -107.5 39.5t-30.5 113.5q5 71 54.5 117t122.5 46q69 0 106 -38t33 -111zM561 140q7 83 -52 83q-46 0 -52 -81q-4 -84 54 -84q23 0 35 19.5t15 62.5z" />
    <glyph glyph-name="ampersand" unicode="&#x26;" horiz-adv-x="634" 
d="M583 -10q0 -106 -123 -196l-80 71q40 48 43 89q0 20 -4 31.5t-19 30.5q-82 -36 -181 -36q-100 0 -154 41.5t-54 113.5q0 54 29 92.5t88 74.5q-32 34 -47 63.5t-15 69.5q0 81 65.5 138.5t183.5 57.5q29 0 73 -7.5t65 -19.5l-47 -117q-19 11 -55.5 19.5t-58.5 8.5
q-23 0 -39.5 -12t-16.5 -31t19 -39t60.5 -55.5t72.5 -70.5q41 -47 68 -80q6 20 6 40q0 66 -50 124l149 62q17 -16 31.5 -57.5t14.5 -89.5q0 -105 -65 -186q24 -36 32.5 -64t8.5 -66zM270 92q28 0 55 8q-7 7 -21.5 22.5t-18.5 20.5q-40 45 -90 93q-25 -27 -25 -66
q0 -36 30.5 -57t69.5 -21z" />
    <glyph glyph-name="quotesingle" unicode="'" horiz-adv-x="210" 
d="M53 434l-3 259h156l-36 -259h-117z" />
    <glyph glyph-name="parenleft" unicode="(" horiz-adv-x="342" 
d="M321 -97l-64 -62q-101 61 -152 188t-42 270q9 137 78.5 260t178.5 197l57 -61q-88 -69 -147.5 -177.5t-66.5 -218.5q-9 -122 33.5 -225.5t124.5 -170.5z" />
    <glyph glyph-name="parenright" unicode=")" horiz-adv-x="342" 
d="M21 695l64 62q101 -61 152 -188t42 -270q-9 -137 -78.5 -260t-178.5 -197l-57 61q88 69 147.5 177.5t66.5 218.5q9 122 -33.5 225.5t-124.5 170.5z" />
    <glyph glyph-name="asterisk" unicode="*" horiz-adv-x="384" 
d="M232 681q13 -21 9 -71q-3 -40 -14 -67l-35 -4q-2 71 -43 120zM367 581q-33 -34 -59 -47t-62 -21l-18 21q26 18 44.5 42t42.5 65zM71 605q47 -8 71.5 -22.5t44.5 -42.5l-12 -32q-48 22 -125 14zM340 409q-37 8 -59.5 19t-31 20t-22.5 29l10 29q58 -23 132 -15zM48 438
q14 13 26 22.5t19 15t19 11t15.5 7t19.5 6.5t20 6l21 -28q-46 -32 -82 -98zM180 338q-11 25 -7 71q3 34 14 62l32 7q4 -69 45 -122z" />
    <glyph glyph-name="plus" unicode="+" 
d="M459 215h-145l-11 -149h-110l11 149h-147l8 103h146l10 145h110l-10 -145h146z" />
    <glyph glyph-name="comma" unicode="," horiz-adv-x="250" 
d="M17 76q3 29 31.5 53.5t56.5 24.5q33 0 64.5 -32.5t28.5 -76.5q-9 -70 -113 -206l-84 32q4 7 15.5 25.5t15 24t11 18.5t10 19t6.5 16t5.5 18t1.5 16t-25 30t-24 38z" />
    <glyph glyph-name="hyphen" unicode="-" horiz-adv-x="357" 
d="M329 297l-4 -28l-36 -78h-261l4 28l46 78h251z" />
    <glyph glyph-name="period" unicode="." horiz-adv-x="250" 
d="M10 60q2 25 40.5 58.5t65.5 33.5t65 -27t37 -52q-2 -25 -41.5 -58.5t-62.5 -33.5q-28 0 -66.5 27.5t-37.5 51.5z" />
    <glyph glyph-name="slash" unicode="/" horiz-adv-x="383" 
d="M18 -110l250 803h97l-250 -803h-97z" />
    <glyph glyph-name="zero" unicode="0" 
d="M514 373q1 -194 -78 -293t-203 -99q-113 0 -167 66.5t-54 183.5q0 93 17 165t44 115.5t65.5 71.5t76.5 38t81 10q113 0 166.5 -67.5t51.5 -190.5zM252 101q82 4 82 248q2 83 -10 122t-50 39q-12 0 -21 -4t-20.5 -20t-19.5 -42.5t-13 -76t-5 -117.5q0 -32 1 -51t6 -45
t17.5 -39t32.5 -14z" />
    <glyph glyph-name="one" unicode="1" 
d="M395 0h-182l31 440l-138 -58l-29 147q15 5 68.5 22.5t104.5 34t78 26.5h110z" />
    <glyph glyph-name="two" unicode="2" 
d="M452 0h-421l7 129q151 122 208.5 186.5t56.5 108.5q0 29 -23.5 45.5t-58.5 16.5q-56 0 -130 -37l-30 136q109 46 221 46q99 0 153 -45.5t54 -125.5q0 -142 -232 -321l228 5z" />
    <glyph glyph-name="three" unicode="3" 
d="M177 -19q-101 0 -159 25l41 145q87 -26 130 -26q102 0 102 58q0 60 -75 60q-56 0 -79 -6l-20 130q181 0 181 71q0 51 -63 51q-26 0 -64.5 -11t-64.5 -27l-29 133q39 21 101.5 34t115.5 13q90 0 140.5 -38t50.5 -103q0 -45 -27.5 -88t-92.5 -67q110 -30 110 -143
q0 -97 -84 -154t-214 -57z" />
    <glyph glyph-name="four" unicode="4" 
d="M281 215l13 199l-147 -199h134zM494 88h-57l-6 -88h-165l6 88h-296l8 122l310 402h180l-28 -397h82z" />
    <glyph glyph-name="five" unicode="5" 
d="M171 -19q-70 0 -159 21l38 140q88 -29 152 -29q97 0 97 71q0 66 -117 66q-58 0 -117 -11l43 373h391l-29 -132h-223l-13 -99q27 6 53 6q87 0 139 -43t53 -120q-1 -121 -88.5 -182t-219.5 -61z" />
    <glyph glyph-name="six" unicode="6" 
d="M501 225q0 -96 -67.5 -170t-193.5 -74q-110 0 -163.5 67.5t-53.5 189.5q0 108 29 187.5t78.5 122.5t107 63t123.5 20q86 0 139 -21l-31 -144q-72 25 -125 25q-55 0 -86.5 -24t-45.5 -90q50 31 112 31q91 0 134 -49.5t43 -133.5zM269 101q24 0 42 24t18 71
q0 37 -19.5 60.5t-49.5 23.5q-33 0 -60 -18v-41q5 -120 69 -120z" />
    <glyph glyph-name="seven" unicode="7" 
d="M250 -24l-179 55l235 430h-267l32 151h449l-10 -128q-17 -32 -44 -84.5t-84 -164t-94 -185.5z" />
    <glyph glyph-name="eight" unicode="8" 
d="M235 -19q-111 0 -167.5 42t-56.5 114q0 98 106 164q-63 54 -63 138q0 91 71 141.5t174 49.5q97 1 150 -37t53 -107q0 -36 -25 -78t-75 -74q53 -34 74.5 -67t21.5 -91q0 -82 -74 -138.5t-189 -56.5zM219 467q0 -19 15 -33.5t59 -38.5q46 37 46 75q0 18 -17.5 30t-42.5 12
q-32 0 -46 -14t-14 -31zM262 100q40 0 55 19t15 37q0 34 -103 79q-49 -34 -49 -77q0 -25 23.5 -41.5t58.5 -16.5z" />
    <glyph glyph-name="nine" unicode="9" 
d="M267 328q33 0 58 18q1 13 1 42q-3 120 -68 120q-27 0 -44 -23t-17 -68q0 -89 70 -89zM167 -19q-80 0 -145 21l30 138q44 -19 110 -19q52 0 89 22.5t56 83.5q-45 -27 -104 -27q-91 0 -134.5 51t-43.5 136q0 96 68 170t194 74q110 0 163.5 -67.5t53.5 -189.5
q0 -87 -21.5 -156t-55.5 -112.5t-79 -72.5t-90 -40.5t-91 -11.5z" />
    <glyph glyph-name="colon" unicode=":" horiz-adv-x="250" 
d="M20 340q2 25 40.5 58.5t65.5 33.5t65 -27t37 -52q-2 -25 -41.5 -58.5t-62.5 -33.5q-28 0 -66.5 27.5t-37.5 51.5zM0 60q2 25 40.5 58.5t65.5 33.5t65 -27t37 -52q-2 -25 -41.5 -58.5t-62.5 -33.5q-28 0 -66.5 27.5t-37.5 51.5z" />
    <glyph glyph-name="semicolon" unicode=";" horiz-adv-x="250" 
d="M16 340q2 25 40.5 58.5t65.5 33.5t65 -27t37 -52q-2 -25 -41.5 -58.5t-62.5 -33.5q-28 0 -66.5 27.5t-37.5 51.5zM7 76q3 29 31.5 53.5t56.5 24.5q33 0 64.5 -32.5t28.5 -76.5q-9 -70 -113 -206l-84 32q4 7 15.5 25.5t15 24t11 18.5t10 19t6.5 16t5.5 18t1.5 16t-25 30
t-24 38z" />
    <glyph glyph-name="equal" unicode="=" 
d="M449 394l1 -15l-26 -87h-337l-1 15l25 87h338zM441 237l1 -15l-26 -87h-337l-1 15l25 87h338z" />
    <glyph glyph-name="question" unicode="?" horiz-adv-x="459" 
d="M286 198l-153 -34q-31 45 -31 74q2 30 17 49.5t58 52.5q47 38 66 62.5t20 60.5q2 16 -15.5 34.5t-40.5 18.5q-31 0 -53.5 -8.5t-71.5 -37.5l-45 116q50 25 109 42.5t99 17.5q92 0 148.5 -47.5t50.5 -123.5q-3 -67 -114 -150q-60 -43 -61 -70q0 -6 17 -57zM101 40
q2 26 39 59t61 33q21 0 54 -31t31 -56q-1 -25 -39.5 -58.5t-58.5 -33.5q-24 0 -56 31.5t-31 55.5z" />
    <glyph glyph-name="at" unicode="@" horiz-adv-x="822" 
d="M356 -151q-51 0 -98.5 10t-95.5 37t-82.5 68.5t-53 110.5t-11.5 157q6 91 37 166.5t76.5 125t104 83.5t118.5 49t120 15q158 0 253 -80.5t85 -214.5q-9 -126 -106 -218.5t-228 -117.5l-21 124q-37 -54 -63.5 -77t-62.5 -23q-51 0 -80 43t-21 133q7 94 69 166t172 72
q24 0 44 -4t43.5 -11.5t39.5 -10.5l-20 -283q96 66 104 201q4 87 -59.5 137.5t-174.5 50.5q-120 0 -199.5 -83t-93.5 -221q-12 -152 55.5 -224.5t183.5 -72.5q80 0 177 40l32 -94q-129 -54 -244 -54zM387 168q8 0 16 4t19 14t20.5 34t14.5 59l8 109q-18 2 -31 2
q-39 0 -54 -34.5t-23 -108.5q-6 -79 30 -79z" />
    <glyph glyph-name="A" unicode="A" horiz-adv-x="569" 
d="M331 225l-40 226l-78 -226h118zM371 0l-16 93h-188l-32 -93h-172l236 612h235l115 -612h-178z" />
    <glyph glyph-name="B" unicode="B" horiz-adv-x="551" 
d="M268 502h-24l-10 -136h28q83 0 83 61q0 33 -21.5 54t-55.5 21zM258 112q37 0 62.5 18.5t25.5 50.5q0 33 -24.5 56.5t-71.5 23.5h-24l-11 -149h43zM37 0l43 612h217q107 0 158.5 -36t51.5 -111q0 -80 -76 -135q94 -33 94 -132q0 -66 -42 -112t-103 -66t-133 -20h-210z" />
    <glyph glyph-name="C" unicode="C" horiz-adv-x="489" 
d="M441 140l20 -121q-77 -35 -182 -35q-122 0 -194.5 78.5t-72.5 212.5q0 69 21.5 132t62.5 113.5t108.5 80.5t151.5 30q76 0 139 -25l-38 -140q-75 23 -129 23q-132 0 -132 -205q0 -78 41.5 -120t93.5 -42q60 0 110 18z" />
    <glyph glyph-name="D" unicode="D" horiz-adv-x="619" 
d="M80 612h238q126 0 201.5 -70.5t76.5 -203.5q-2 -146 -98 -242t-251 -96h-210zM251 478l-26 -344h23q70 0 116 43.5t46 135.5q0 85 -37.5 125t-92.5 40h-29z" />
    <glyph glyph-name="E" unicode="E" horiz-adv-x="507" 
d="M37 0l43 612h408l-31 -132l-207 3l-8 -107h207l-31 -132l-184 6l-9 -116l243 3l-30 -137h-401z" />
    <glyph glyph-name="F" unicode="F" horiz-adv-x="486" 
d="M415 226l-183 6l-16 -232h-179l43 612h408l-31 -132l-207 3l-9 -125h204z" />
    <glyph glyph-name="G" unicode="G" horiz-adv-x="571" 
d="M507 24q-38 -18 -99 -30.5t-112 -12.5q-137 0 -210.5 75t-73.5 220q0 60 20.5 121t60.5 115t107 87.5t151 33.5q56 0 113.5 -10t85.5 -28l-36 -145q-94 39 -183 39q-69 0 -103.5 -51t-34.5 -163q0 -78 39 -117.5t97 -39.5q21 0 30 1l12 185h154z" />
    <glyph glyph-name="H" unicode="H" horiz-adv-x="640" 
d="M381 0l17 236h-165l-17 -236h-179l43 612h179l-16 -229h165l16 229h178l-43 -612h-178z" />
    <glyph glyph-name="I" unicode="I" horiz-adv-x="296" 
d="M259 612l-43 -612h-179l43 612h179z" />
    <glyph glyph-name="J" unicode="J" horiz-adv-x="369" 
d="M331 612l-30 -436q-6 -87 -69.5 -141t-150.5 -54q-72 0 -116 22l39 144q26 -18 62 -18q26 0 41 16t18 58l28 409h178z" />
    <glyph glyph-name="K" unicode="K" horiz-adv-x="613" 
d="M396 0l-158 323l-23 -323h-178l43 612h178l-20 -278l198 278h197l-217 -283l185 -329h-205z" />
    <glyph glyph-name="L" unicode="L" horiz-adv-x="476" 
d="M37 0l43 612h179l-33 -471l244 3l-32 -144h-401z" />
    <glyph glyph-name="M" unicode="M" horiz-adv-x="846" 
d="M312 0l-86 372l-49 -372h-163l93 612h229l83 -336l120 336h245l-3 -612h-178l5 383l-139 -383h-157z" />
    <glyph glyph-name="N" unicode="N" horiz-adv-x="637" 
d="M398 0l-173 332l-24 -332h-164l45 612h176l159 -330l18 330h164l-41 -612h-160z" />
    <glyph glyph-name="O" unicode="O" horiz-adv-x="617" 
d="M605 354q0 -166 -92.5 -269.5t-234.5 -103.5q-125 0 -195.5 76t-70.5 201q0 166 92.5 269.5t234.5 103.5q126 0 196 -76t70 -201zM307 118q53 0 83.5 49.5t30.5 174.5q0 67 -31 109.5t-83 42.5q-54 0 -82.5 -49t-28.5 -175q0 -71 29.5 -111.5t81.5 -40.5z" />
    <glyph glyph-name="P" unicode="P" horiz-adv-x="545" 
d="M276 494h-28l-11 -175h34q49 0 68.5 23.5t19.5 56.5q0 41 -22.5 68t-60.5 27zM269 189h-41l-12 -189h-179l41 612h226q116 0 176 -50t60 -140q0 -101 -74 -167t-197 -66z" />
    <glyph glyph-name="Q" unicode="Q" horiz-adv-x="617" 
d="M435 -223q-46 0 -130 36t-114 36q-12 0 -22 -2.5t-16.5 -5.5t-24.5 -12.5t-34 -17.5l-21 106l4 2l-4 3q87 32 147 64q-99 17 -153.5 90t-54.5 182q0 166 92.5 269.5t234.5 103.5q126 0 196 -76t70 -201q0 -113 -45 -199.5t-122 -131.5q-51 -36 -147 -84q132 -30 165 -30
q53 0 113 35l-8 -130q-51 -37 -126 -37zM307 118q53 0 83.5 49.5t30.5 174.5q0 67 -31 109.5t-83 42.5q-54 0 -82.5 -49t-28.5 -175q0 -71 29.5 -111.5t81.5 -40.5z" />
    <glyph glyph-name="R" unicode="R" horiz-adv-x="563" 
d="M270 494h-22l-10 -150h30q86 0 86 76q0 34 -24 54t-60 20zM270 214h-40l-14 -214h-179l41 612h231q109 0 167.5 -46.5t58.5 -130.5q0 -54 -26 -101t-74 -77l125 -257h-193l-90 214h-7z" />
    <glyph glyph-name="S" unicode="S" horiz-adv-x="501" 
d="M233 220l-88 43q-47 23 -72.5 65.5t-25.5 90.5q0 93 69 152.5t170 59.5q95 0 201 -37l-39 -153q-22 13 -79.5 32.5t-90.5 19.5q-59 0 -59 -39q0 -36 50 -61l92 -46q105 -51 105 -164q0 -86 -74.5 -144t-182.5 -58q-101 0 -198 35l36 150q108 -53 193 -55q45 5 45 46
q0 35 -52 63z" />
    <glyph glyph-name="T" unicode="T" horiz-adv-x="502" 
d="M498 471l-144 2l-33 -473h-178l32 474l-169 -3l30 141h492z" />
    <glyph glyph-name="U" unicode="U" horiz-adv-x="636" 
d="M79 612h179q-30 -376 -30 -404q0 -49 27 -71t64 -22q74 0 80 97l29 400h171l-27 -379q-8 -118 -80 -185t-204 -67q-111 0 -173.5 52t-62.5 148q0 60 27 431z" />
    <glyph glyph-name="V" unicode="V" horiz-adv-x="581" 
d="M370 0h-212l-139 612h185l83 -417l153 417h176z" />
    <glyph glyph-name="W" unicode="W" horiz-adv-x="864" 
d="M501 0l-69 318l-119 -318h-200l-75 612h188l34 -350l122 350h159l75 -355l85 355h163l-161 -612h-202z" />
    <glyph glyph-name="X" unicode="X" horiz-adv-x="555" 
d="M351 0l-97 178l-104 -178h-195l217 330l-153 282h197l84 -156l91 156h196l-206 -306l166 -306h-196z" />
    <glyph glyph-name="Y" unicode="Y" horiz-adv-x="522" 
d="M349 220h-2l-15 -220h-178l15 220h-2l-157 392h188l85 -212l104 212h179z" />
    <glyph glyph-name="Z" unicode="Z" horiz-adv-x="542" 
d="M483 0h-460l4 107l267 360h-246l23 145h448l-5 -120l-267 -352h260z" />
    <glyph glyph-name="bracketleft" unicode="[" horiz-adv-x="342" 
d="M308 -57l-4 -79h-229l60 871h230l-4 -79h-131l-49 -713h127z" />
    <glyph glyph-name="backslash" unicode="\" horiz-adv-x="383" 
d="M171 693l138 -803h-97l-138 803h97z" />
    <glyph glyph-name="bracketright" unicode="]" horiz-adv-x="342" 
d="M207 -136h-230l4 79h131l49 713h-127l4 79h229z" />
    <glyph glyph-name="underscore" unicode="_" horiz-adv-x="440" 
d="M430 -101v-98h-440v98h440z" />
    <glyph glyph-name="grave" unicode="`" horiz-adv-x="312" 
d="M302 500h-142l-150 141l173 30z" />
    <glyph glyph-name="a" unicode="a" horiz-adv-x="514" 
d="M310 -19l-8 79q-77 -79 -153 -79q-61 0 -99 45.5t-38 137.5q0 133 80 219t200 86q124 0 198 -38l-30 -431zM229 101q12 0 23 7.5t23.5 25.5t22 56.5t14.5 92.5v-1l6 65q-14 8 -35 8t-35.5 -6t-28.5 -23.5t-21 -55.5t-7 -97q0 -72 38 -72z" />
    <glyph glyph-name="b" unicode="b" horiz-adv-x="506" 
d="M249 98q38 0 53 43t15 128q0 83 -37 83q-28 0 -47.5 -37.5t-26.5 -106.5l-8 -104q23 -6 51 -6zM222 -16q-47 0 -102 16l-64 -24l-32 20l49 707l169 23l-23 -324q62 67 138 67q137 0 137 -175q0 -82 -27.5 -145t-70 -97t-87.5 -51t-87 -17z" />
    <glyph glyph-name="c" unicode="c" horiz-adv-x="382" 
d="M366 40q-82 -59 -179 -59q-73 0 -122.5 48t-49.5 155q0 136 69 210.5t175 74.5q30 0 72 -11t63 -27l-54 -120q1 1 -4.5 5.5t-15 10t-20.5 11t-23.5 9t-21.5 3.5q-7 0 -14 -3t-16 -13t-16 -26t-11.5 -45.5t-4.5 -68.5q0 -45 16.5 -65t35.5 -20q40 0 84 33z" />
    <glyph glyph-name="d" unicode="d" horiz-adv-x="508" 
d="M295 -19l-3 74q-62 -71 -142 -71q-137 0 -137 174q0 82 27.5 145t70.5 97.5t87.5 51.5t87.5 17q11 0 31 -2l18 237l169 23l-49 -727zM228 101q27 0 46 34.5t26 99.5l9 115q-21 6 -49 6q-38 0 -54 -44t-16 -129q0 -82 38 -82z" />
    <glyph glyph-name="e" unicode="e" horiz-adv-x="426" 
d="M204 -19q-86 0 -135.5 50t-49.5 149q0 77 23 136t60.5 90.5t78.5 47t84 15.5q71 0 111.5 -35t40.5 -89q0 -66 -63.5 -115t-161.5 -62q6 -40 23 -52.5t43 -12.5q45 0 108 46l37 -96q-96 -72 -199 -72zM238 364q-54 0 -54 -111q80 16 80 75q0 36 -26 36z" />
    <glyph glyph-name="f" unicode="f" horiz-adv-x="284" 
d="M-29 -241q-60 0 -77 16l36 138q10 -9 50 -9q57 0 59 58l22 380h-55l2 87l60 20v8q4 68 27.5 119.5t58.5 78.5t72 40t75 13q59 0 87 -10l-31 -133q-20 9 -64 9q-22 0 -35.5 -13t-14.5 -36l-5 -75h80l-17 -108h-69l-22 -349q-8 -117 -81 -175.5t-158 -58.5z" />
    <glyph glyph-name="g" unicode="g" horiz-adv-x="410" 
d="M218 247q14 0 23 15t9 36q0 37 -8 55t-35 18q-23 0 -29.5 -14t-6.5 -38q0 -37 9.5 -54.5t37.5 -17.5zM405 -24q0 -85 -82 -153t-192 -68q-91 0 -136 31.5t-45 82.5q0 41 24 73.5t87 66.5q-35 28 -33 68q-1 18 15.5 43t44.5 46q-71 32 -71 129q0 79 64.5 126.5t154.5 47.5
q34 0 62 -6l83 122l85 -85l-11 -26l-82 -51q32 -35 32 -101q0 -72 -60.5 -122t-160.5 -50h-6q-3 -3 -3 -8q0 -11 4.5 -16.5t26.5 -11.5t68 -11q75 -9 103 -41t28 -86zM170 -125q50 0 73.5 14t23.5 36q0 21 -14 27.5t-70 14.5q-12 2 -19 3q-14 2 -38 8q-32 -25 -32 -54
q0 -21 18.5 -35t57.5 -14z" />
    <glyph glyph-name="h" unicode="h" horiz-adv-x="518" 
d="M285 336q-57 0 -76 -122l-16 -214h-169l49 703l173 23l-25 -346q68 89 145 89q122 0 122 -132q0 -46 -18.5 -184.5t-19.5 -152.5h-169q34 233 34 288q0 48 -30 48z" />
    <glyph glyph-name="i" unicode="i" horiz-adv-x="248" 
d="M50 587q0 26 33.5 62t63.5 36q26 0 61.5 -26.5t35.5 -51.5q0 -28 -33.5 -63t-62.5 -35q-27 0 -62.5 26t-35.5 52zM56 446l169 23l-33 -469h-168z" />
    <glyph glyph-name="j" unicode="j" horiz-adv-x="235" 
d="M44 587q0 26 33 62t63 36q26 0 62 -26.5t36 -51.5q0 -28 -34 -63t-63 -35q-27 0 -62 26t-35 52zM-100 -230l-15 148q16 -5 56 -5q29 0 50 18.5t25 61.5l33 452l169 22l-32 -454q-20 -246 -286 -243z" />
    <glyph glyph-name="k" unicode="k" horiz-adv-x="488" 
d="M24 0l51 709l169 14l-52 -723h-168zM336 -12q-43 61 -126 258q30 33 68.5 91t64.5 113h170q-13 -39 -54 -99.5t-88 -110.5q94 -166 137 -215z" />
    <glyph glyph-name="l" unicode="l" horiz-adv-x="292" 
d="M267 139l20 -110q-92 -48 -154 -48q-107 0 -107 112q0 44 7.5 130.5t21 229.5t21.5 251l169 23q-10 -131 -22.5 -268t-18.5 -205.5t-6 -97.5q0 -10 5.5 -20t16.5 -10t47 13z" />
    <glyph glyph-name="m" unicode="m" horiz-adv-x="785" 
d="M205 152v1l-11 -153h-170l31 446l156 23l5 -97q72 97 152 97q102 0 118 -95q71 95 151 95q121 0 121 -132q0 -46 -20 -184t-21 -153h-169q2 12 12 79.5t17.5 126.5t7.5 82q0 48 -29 48q-57 0 -77 -123q-1 -14 -5 -49q0 -2 -0.5 -6t-0.5 -6v1q-18 -146 -18 -153l-169 2
q30 240 30 289q0 45 -29 45q-71 0 -82 -184z" />
    <glyph glyph-name="n" unicode="n" horiz-adv-x="516" 
d="M285 336q-63 0 -80 -147l-12 -189h-169l31 446l156 23l6 -94q70 94 149 94q122 0 122 -132q0 -46 -18.5 -184.5t-19.5 -152.5h-169q34 233 34 288q0 48 -30 48z" />
    <glyph glyph-name="o" unicode="o" horiz-adv-x="468" 
d="M454 258q0 -71 -26.5 -132.5t-85 -103t-138.5 -41.5q-83 0 -136.5 51.5t-53.5 159.5q0 71 27 132.5t85.5 103t137.5 41.5q190 0 190 -211zM237 87q45 0 45 179q0 53 -11 75t-39 22q-46 0 -46 -179q0 -58 10 -77.5t41 -19.5z" />
    <glyph glyph-name="p" unicode="p" horiz-adv-x="509" 
d="M251 98q38 0 53 43t15 128q0 83 -37 83q-51 0 -70 -114l-9 -135q22 -5 48 -5zM181 -218l-169 -23l43 687l158 23l4 -72q63 72 142 72q137 0 137 -175q0 -82 -27.5 -145t-70 -97t-87.5 -51t-87 -17q-9 0 -29 2z" />
    <glyph glyph-name="q" unicode="q" horiz-adv-x="504" 
d="M267 -241l21 291q-62 -66 -138 -66q-137 0 -137 174q0 82 27.5 145t70.5 97.5t87.5 51.5t87.5 17q39 0 88 -14l79 21l31 -29l-48 -665zM228 101q57 0 73 138l8 111q-21 6 -49 6q-38 0 -54 -44t-16 -129q0 -82 38 -82z" />
    <glyph glyph-name="r" unicode="r" horiz-adv-x="355" 
d="M306 300q-47 0 -68 -23t-30 -78l-15 -199h-169l33 446l154 23l5 -123q24 60 62.5 91.5t72.5 31.5q24 0 36 -4l-33 -173q-17 8 -48 8z" />
    <glyph glyph-name="s" unicode="s" horiz-adv-x="383" 
d="M154 -19q-90 0 -157 38l43 128q70 -47 130 -47q9 0 19.5 5.5t10.5 16.5q0 7 -7 12t-26 15q-5 3 -8 4l-53 29q-41 24 -60 55t-19 79q0 65 52.5 109t144.5 44q85 0 149 -31l-38 -118q-63 39 -121 39q-29 0 -29 -23q0 -13 51 -36l42 -20q44 -24 63.5 -52t19.5 -78
q0 -64 -52.5 -116.5t-154.5 -52.5z" />
    <glyph glyph-name="t" unicode="t" horiz-adv-x="339" 
d="M335 41q-84 -60 -173 -60q-56 0 -94 34.5t-38 104.5q0 28 24 222h-59l8 98l64 10q9 90 10 96l169 23q-2 -15 -7 -57t-7 -62h120l-15 -108h-117q-6 -63 -13 -136l-3 -30q0 -23 11 -36t31 -13q30 0 60 20z" />
    <glyph glyph-name="u" unicode="u" horiz-adv-x="518" 
d="M304 -19l-8 93q-70 -93 -150 -93q-122 0 -122 132q0 46 17 182t18 149l172 26q-34 -272 -34 -306q0 -21 9.5 -35.5t23.5 -14.5q60 0 78 124l15 208l171 23l-33 -469z" />
    <glyph glyph-name="v" unicode="v" horiz-adv-x="443" 
d="M279 0h-224l-33 444l171 27l10 -329q74 164 88 308h160q-31 -261 -172 -450z" />
    <glyph glyph-name="w" unicode="w" horiz-adv-x="705" 
d="M352 0l-15 113q-46 -83 -83 -114l-184 1l-32 441l170 27l10 -330q59 89 84 231l-11 81h166l26 -303q66 136 69 303h160q-15 -217 -169 -450h-191z" />
    <glyph glyph-name="x" unicode="x" horiz-adv-x="426" 
d="M243 -12q-11 29 -63 131q-7 -14 -25 -54.5t-30 -64.5h-155q51 121 148 238q-76 147 -100 201l170 24q13 -39 56 -125q10 17 26.5 53.5t28.5 58.5h154q-83 -150 -149 -224q92 -174 109 -214z" />
    <glyph glyph-name="y" unicode="y" horiz-adv-x="441" 
d="M-11 -241q-66 0 -96 15l19 140q21 -8 64 -8q98 0 163 86h-81l-48 455l165 21l34 -340q39 106 84 322h161q-4 -42 -13.5 -93.5t-28.5 -119.5t-44.5 -132.5t-63 -128t-82 -111t-105 -77t-128.5 -29.5z" />
    <glyph glyph-name="z" unicode="z" horiz-adv-x="417" 
d="M375 0h-373l4 71l187 256l-163 -8l16 131h375l-3 -71l-189 -255l161 8z" />
    <glyph glyph-name="braceleft" unicode="{" horiz-adv-x="342" 
d="M67 298l2 48q35 -5 56.5 13t24.5 47q2 23 -3.5 97.5t-2.5 123.5q5 59 64 94.5t142 35.5l-4 -83q-38 0 -66.5 -17.5t-29.5 -50.5q-3 -37 -1 -113t0 -104q-2 -33 -24.5 -58t-52.5 -33q28 -8 47.5 -33t17.5 -58q-2 -28 -15 -103t-16 -111q-1 -33 24 -50.5t62 -17.5l-4 -83
q-83 0 -138.5 35.5t-50.5 94.5q3 49 18 123t17 96q2 28 -17 46.5t-52 13.5z" />
    <glyph glyph-name="bar" unicode="|" horiz-adv-x="358" 
d="M95 -220l64 913h104l-64 -913h-104z" />
    <glyph glyph-name="braceright" unicode="}" horiz-adv-x="342" 
d="M170 302q-28 8 -47.5 33t-17.5 58q2 28 15 103t16 111q1 33 -24 50.5t-62 17.5l4 83q83 0 138.5 -35.5t50.5 -94.5q-3 -49 -18 -123t-17 -96q-2 -28 17 -46.5t52 -13.5l-2 -47l-2 -48q-35 5 -56.5 -13t-24.5 -47q-2 -23 3.5 -97.5t2.5 -123.5q-5 -59 -64 -94.5
t-142 -35.5l4 83q38 0 66.5 17.5t29.5 50.5q3 37 1 113t0 104q2 33 24.5 58t52.5 33z" />
    <glyph glyph-name="exclamdown" unicode="&#xa1;" horiz-adv-x="326" 
d="M263 410q-1 -23 -41.5 -56.5t-61.5 -33.5q-20 0 -54.5 31t-32.5 54q1 18 39 48t57 30q21 0 58 -28.5t36 -44.5zM93 271l131 19q-19 -326 -11 -448l-167 -31q41 370 47 460z" />
    <glyph glyph-name="cent" unicode="&#xa2;" 
d="M439 120q-51 -37 -106 -50l3 -141h-127l25 134q-64 8 -105 56t-41 145q0 114 49.5 185.5t131.5 91.5l-5 135h127l-24 -130q70 -12 100 -35l-54 -120q1 1 -4.5 5.5t-15 10t-20.5 11t-23.5 9t-21.5 3.5q-7 0 -14 -3t-16 -13t-16 -26t-11.5 -45.5t-4.5 -68.5q0 -45 16.5 -65
t35.5 -20q40 0 84 33z" />
    <glyph glyph-name="sterling" unicode="&#xa3;" 
d="M493 140l-31 -140h-427h-1l-19 109q51 6 76 21.5t28 56.5q1 21 -4 63h-95l1 13l20 68l39 23h20q-5 35 -2 61q6 96 76 156t175 60q88 0 155 -30l-52 -123q-13 4 -31 10t-26.5 9t-25 5t-36.5 2q-23 0 -43.5 -15.5t-23.5 -45.5q-3 -36 1 -89h167l-38 -104h-122q3 -26 1 -51
q-3 -37 -28 -71z" />
    <glyph glyph-name="section" unicode="&#xa7;" horiz-adv-x="479" 
d="M224 256l4 -2q38 2 58 16t22 35q1 19 -11.5 30t-40.5 24l-3 1q-39 -2 -59.5 -16t-21.5 -35q-1 -18 11.5 -30t40.5 -23zM178 -110q-93 0 -156 34l49 127q11 -4 35 -13.5t35.5 -13.5t27.5 -8t29 -4q25 0 34 7.5t12 23.5q1 11 -0.5 17.5t-9.5 14.5t-25 13l-74 26
q-68 22 -103.5 57.5t-30.5 102.5q9 100 114 154q-57 44 -52 117q5 77 75 128.5t163 51.5q101 0 159 -34l-50 -127q-9 4 -35 14t-36.5 13.5t-27.5 7.5t-29 4q-26 0 -35 -8t-12 -24q-1 -11 0.5 -17.5t9.5 -14.5t25 -13l74 -25q69 -23 104.5 -58.5t30.5 -102.5
q-9 -101 -115 -153q57 -44 52 -117q-5 -77 -75 -128.5t-163 -51.5z" />
    <glyph glyph-name="dieresis" unicode="&#xa8;" horiz-adv-x="560" 
d="M291 575q1 24 34.5 57.5t57.5 33.5q25 0 57 -28t31 -54q-1 -22 -35.5 -55t-56.5 -33q-25 0 -57 27.5t-31 51.5zM91 575q1 24 34.5 57.5t57.5 33.5q25 0 56.5 -28t30.5 -54q-1 -22 -35.5 -55t-56.5 -33q-25 0 -56.5 27t-30.5 52z" />
    <glyph glyph-name="copyright" unicode="&#xa9;" horiz-adv-x="662" 
d="M49 264q9 127 97.5 204.5t204.5 77.5q129 0 200 -80t62 -202q-9 -129 -97 -206t-205 -77q-130 0 -200.5 80t-61.5 203zM110 266q-8 -107 52.5 -168t157.5 -61q99 0 163.5 66t70.5 163q8 104 -50 165.5t-154 61.5q-103 0 -167.5 -62t-72.5 -165zM438 195l10 -64
q-51 -30 -129 -30q-70 0 -113.5 41t-38.5 114q5 80 58.5 131.5t138.5 51.5q77 0 99 -19l-25 -74q-43 15 -76 15q-41 0 -61.5 -21.5t-25.5 -67.5q-2 -40 20 -65.5t69 -25.5q37 0 74 14z" />
    <glyph glyph-name="ordfeminine" unicode="&#xaa;" horiz-adv-x="334" 
d="M201 341l-3 35q-38 -35 -85 -35q-40 0 -65 22.5t-25 68.5q0 71 46.5 111.5t140.5 40.5q51 0 105 -18l-18 -213zM156 400q34 0 44 62l7 73h-15q-30 0 -42.5 -32t-12.5 -66q0 -13 4 -22t8 -12t7 -3z" />
    <glyph glyph-name="guillemotleft" unicode="&#xab;" horiz-adv-x="538" 
d="M382 2l-164 230l196 230l98 -45l-112 -185l88 -185zM170 2l-163 230l196 230l97 -45l-112 -185l88 -185z" />
    <glyph glyph-name="registered" unicode="&#xae;" horiz-adv-x="662" 
d="M59 523q9 127 97.5 204.5t204.5 77.5q129 0 200 -80t62 -202q-9 -129 -97 -206t-205 -77q-130 0 -200.5 80t-61.5 203zM120 525q-8 -108 52.5 -169t157.5 -61q99 0 163.5 66.5t70.5 163.5q8 104 -50 165.5t-154 61.5q-103 0 -167.5 -62t-72.5 -165zM341 543q11 0 23 10
t12 25q2 19 -12.5 34t-44.5 15l-6 -83q2 0 11 -0.5t17 -0.5zM320 480q-7 0 -11 -1l-7 -105h-110l21 317h144q69 0 103.5 -25.5t31.5 -72.5q-3 -52 -55 -83l60 -136h-114l-35 107q-9 -1 -28 -1z" />
    <glyph glyph-name="macron" unicode="&#xaf;" horiz-adv-x="424" 
d="M365 635l-1 -15l-36 -101h-271l1 15l36 101h271z" />
    <glyph glyph-name="twosuperior" unicode="&#xb2;" horiz-adv-x="290" 
d="M264 390h-243l5 66q148 84 151 132q6 40 -36 40q-51 0 -91 -25l-17 76q68 26 136 26q64 0 92.5 -25.5t26.5 -71.5q-4 -38 -36 -71.5t-97 -71.5l130 7z" />
    <glyph glyph-name="threesuperior" unicode="&#xb3;" horiz-adv-x="284" 
d="M116 381q-65 0 -103 9l24 70q54 -11 78 -11q54 0 57 33q1 13 -10.5 21.5t-33.5 8.5q-17 0 -41 -2l-4 68q50 0 71 6.5t24 23.5q0 17 -9.5 22.5t-31.5 5.5q-39 0 -76 -15l-15 62q52 22 127 22q50 0 80.5 -19t27.5 -53q-1 -28 -25 -49t-59 -31q91 -11 88 -71
q-3 -47 -56.5 -74t-112.5 -27z" />
    <glyph glyph-name="acute" unicode="&#xb4;" horiz-adv-x="309" 
d="M0 500l139 171l170 -30l-168 -141h-141z" />
    <glyph glyph-name="paragraph" unicode="&#xb6;" horiz-adv-x="574" 
d="M330 477l-24 -328h-68q-106 0 -166.5 56.5t-52.5 168.5q7 112 77.5 175t176.5 63h276l-39 -571q-6 -82 -69 -129.5t-146 -47.5q-68 0 -119 19l28 128q57 -21 89.5 -15t44.5 25t15 57l30 399h-53z" />
    <glyph glyph-name="cedilla" unicode="&#xb8;" horiz-adv-x="304" 
d="M77 -100l56 100h64l-22 -50q85 -28 81 -78q-3 -41 -51.5 -75t-140.5 -38l-15 65q97 9 99 34q2 23 -69 37z" />
    <glyph glyph-name="onesuperior" unicode="&#xb9;" horiz-adv-x="241" 
d="M190 390h-108l15 210l-54 -20l-18 82q35 11 126 34h61z" />
    <glyph glyph-name="ordmasculine" unicode="&#xba;" horiz-adv-x="334" 
d="M305 479q0 -64 -41.5 -101t-116.5 -37q-53 0 -85.5 25.5t-32.5 79.5q0 64 41.5 101t115.5 37q119 0 119 -105zM166 391q10 0 17 5t12 25.5t5 57.5q0 54 -33 54q-34 0 -34 -87q0 -55 33 -55z" />
    <glyph glyph-name="guillemotright" unicode="&#xbb;" horiz-adv-x="538" 
d="M368 462l163 -230l-196 -230l-97 43l112 187l-88 182zM156 462l164 -230l-196 -230l-98 43l112 187l-88 182z" />
    <glyph glyph-name="questiondown" unicode="&#xbf;" horiz-adv-x="407" 
d="M319 408q-2 -26 -39 -59t-61 -33q-21 0 -54 31t-31 56q1 25 39.5 58.5t58.5 33.5q24 0 56 -31.5t31 -55.5zM134 250l153 34q31 -45 31 -74q-2 -30 -17 -49.5t-58 -52.5q-47 -38 -66 -62.5t-20 -60.5q-2 -16 15.5 -34.5t40.5 -18.5q31 0 53.5 8.5t71.5 37.5l45 -116
q-50 -25 -109 -42.5t-99 -17.5q-92 0 -148.5 47.5t-50.5 123.5q3 67 114 150q60 43 61 70q0 6 -17 57z" />
    <glyph glyph-name="Agrave" unicode="&#xc0;" horiz-adv-x="569" 
d="M439 650h-142l-150 141l173 30zM331 225l-40 226l-78 -226h118zM371 0l-16 93h-188l-32 -93h-172l236 612h235l115 -612h-178z" />
    <glyph glyph-name="Aacute" unicode="&#xc1;" horiz-adv-x="569" 
d="M207 650l139 171l170 -30l-168 -141h-141zM331 225l-40 226l-78 -226h118zM371 0l-16 93h-188l-32 -93h-172l236 612h235l115 -612h-178z" />
    <glyph glyph-name="Acircumflex" unicode="&#xc2;" horiz-adv-x="569" 
d="M391 650l-68 64l-75 -64h-122l124 171h160l105 -171h-124zM331 225l-40 226l-78 -226h118zM371 0l-16 93h-188l-32 -93h-172l236 612h235l115 -612h-178z" />
    <glyph glyph-name="Atilde" unicode="&#xc3;" horiz-adv-x="569" 
d="M453 820l54 -58q-13 -32 -61.5 -72.5t-78.5 -40.5q-19 0 -69 16.5t-62 16.5q-17 0 -40.5 -17.5t-27.5 -26.5l-46 70q-2 1 21 25t54.5 48.5t50.5 24.5q23 0 69 -17.5t59 -17.5q30 0 77 49zM331 225l-40 226l-78 -226h118zM371 0l-16 93h-188l-32 -93h-172l236 612h235
l115 -612h-178z" />
    <glyph glyph-name="Adieresis" unicode="&#xc4;" horiz-adv-x="569" 
d="M334 725q1 24 34.5 57.5t57.5 33.5q25 0 57 -28t31 -54q-1 -22 -35.5 -55t-56.5 -33q-25 0 -57 27.5t-31 51.5zM134 725q1 24 34.5 57.5t57.5 33.5q25 0 56.5 -28t30.5 -54q-1 -22 -35.5 -55t-56.5 -33q-25 0 -56.5 27t-30.5 52zM331 225l-40 226l-78 -226h118zM371 0
l-16 93h-188l-32 -93h-172l236 612h235l115 -612h-178z" />
    <glyph glyph-name="Aring" unicode="&#xc5;" horiz-adv-x="569" 
d="M438 755q-4 -43 -39 -74.5t-80 -31.5q-47 0 -76 28.5t-26 77.5q4 44 39 76t80 32q48 0 76.5 -28.5t25.5 -79.5zM286 755q-2 -17 9 -29t29 -12t30.5 12t14.5 29q1 19 -10 31t-29 12t-30 -12t-14 -31zM331 225l-40 226l-78 -226h118zM371 0l-16 93h-188l-32 -93h-172
l236 612h235l115 -612h-178z" />
    <glyph glyph-name="AE" unicode="&#xc6;" horiz-adv-x="803" 
d="M353 476l-108 -238h106l16 238h-14zM334 0l7 106h-157l-48 -106h-165l300 612h513l-30 -132l-208 3l-8 -107h207l-31 -132l-184 6l-9 -116l243 3l-30 -137h-400z" />
    <glyph glyph-name="Ccedilla" unicode="&#xc7;" horiz-adv-x="489" 
d="M392 -128q-3 -41 -51.5 -75t-140.5 -38l-15 65q97 9 99 34q2 23 -69 37l-2 5l47 85q-114 6 -181 83.5t-67 206.5q0 69 21.5 132t62.5 113.5t108.5 80.5t151.5 30q76 0 139 -25l-38 -140q-75 23 -129 23q-132 0 -132 -205q0 -78 41.5 -120t93.5 -42q60 0 110 18l20 -121
q-62 -28 -134 -33l-16 -36q85 -28 81 -78z" />
    <glyph glyph-name="Egrave" unicode="&#xc8;" horiz-adv-x="507" 
d="M425 650h-142l-150 141l173 30zM37 0l43 612h408l-31 -132l-207 3l-8 -107h207l-31 -132l-184 6l-9 -116l243 3l-30 -137h-401z" />
    <glyph glyph-name="Eacute" unicode="&#xc9;" horiz-adv-x="507" 
d="M165 650l139 171l170 -30l-168 -141h-141zM37 0l43 612h408l-31 -132l-207 3l-8 -107h207l-31 -132l-184 6l-9 -116l243 3l-30 -137h-401z" />
    <glyph glyph-name="Ecircumflex" unicode="&#xca;" horiz-adv-x="507" 
d="M361 650l-68 64l-75 -64h-122l124 171h160l105 -171h-124zM37 0l43 612h408l-31 -132l-207 3l-8 -107h207l-31 -132l-184 6l-9 -116l243 3l-30 -137h-401z" />
    <glyph glyph-name="Edieresis" unicode="&#xcb;" horiz-adv-x="507" 
d="M313 725q1 24 34.5 57.5t57.5 33.5q25 0 57 -28t31 -54q-1 -22 -35.5 -55t-56.5 -33q-25 0 -57 27.5t-31 51.5zM113 725q1 24 34.5 57.5t57.5 33.5q25 0 56.5 -28t30.5 -54q-1 -22 -35.5 -55t-56.5 -33q-25 0 -56.5 27t-30.5 52zM37 0l43 612h408l-31 -132l-207 3
l-8 -107h207l-31 -132l-184 6l-9 -116l243 3l-30 -137h-401z" />
    <glyph glyph-name="Igrave" unicode="&#xcc;" horiz-adv-x="294" 
d="M280 650h-142l-150 141l173 30zM259 612l-43 -612h-179l43 612h179z" />
    <glyph glyph-name="Iacute" unicode="&#xcd;" horiz-adv-x="294" 
d="M71 650l139 171l170 -30l-168 -141h-141zM259 612l-43 -612h-179l43 612h179z" />
    <glyph glyph-name="Icircumflex" unicode="&#xce;" horiz-adv-x="294" 
d="M254 650l-68 64l-75 -64h-122l124 171h160l105 -171h-124zM259 612l-43 -612h-179l43 612h179z" />
    <glyph glyph-name="Idieresis" unicode="&#xcf;" horiz-adv-x="294" 
d="M189 725q1 24 34.5 57.5t57.5 33.5q25 0 57 -28t31 -54q-1 -22 -36 -55t-57 -33q-25 0 -56.5 27t-30.5 52zM-22 725q1 24 34.5 57.5t57.5 33.5q25 0 56.5 -28t30.5 -54q-1 -22 -35.5 -55t-56.5 -33q-25 0 -56.5 27t-30.5 52zM259 612l-43 -612h-179l43 612h179z" />
    <glyph glyph-name="Eth" unicode="&#xd0;" horiz-adv-x="609" 
d="M236 0h-210l17 248h-55v24l25 99h39l17 241h238q126 0 201.5 -70.5t76.5 -203.5q-2 -146 -97.5 -242t-251.5 -96zM214 134h23q70 0 116 43.5t46 135.5q0 85 -37.5 125t-92.5 40h-29l-8 -107h112v-24l-25 -99h-96z" />
    <glyph glyph-name="Ntilde" unicode="&#xd1;" horiz-adv-x="637" 
d="M505 820l54 -58q-13 -32 -61.5 -72.5t-78.5 -40.5q-19 0 -69 16.5t-62 16.5q-17 0 -40.5 -17.5t-27.5 -26.5l-46 70q-2 1 21 25t54.5 48.5t50.5 24.5q23 0 69 -17.5t59 -17.5q30 0 77 49zM398 0l-173 332l-24 -332h-164l45 612h176l159 -330l18 330h164l-41 -612h-160z
" />
    <glyph glyph-name="Ograve" unicode="&#xd2;" horiz-adv-x="629" 
d="M485 650h-142l-150 141l173 30zM605 354q0 -166 -92.5 -269.5t-234.5 -103.5q-125 0 -195.5 76t-70.5 201q0 166 92.5 269.5t234.5 103.5q126 0 196 -76t70 -201zM307 118q53 0 83.5 49.5t30.5 174.5q0 67 -31 109.5t-83 42.5q-54 0 -82.5 -49t-28.5 -175
q0 -71 29.5 -111.5t81.5 -40.5z" />
    <glyph glyph-name="Oacute" unicode="&#xd3;" horiz-adv-x="629" 
d="M203 650l139 171l170 -30l-168 -141h-141zM605 354q0 -166 -92.5 -269.5t-234.5 -103.5q-125 0 -195.5 76t-70.5 201q0 166 92.5 269.5t234.5 103.5q126 0 196 -76t70 -201zM307 118q53 0 83.5 49.5t30.5 174.5q0 67 -31 109.5t-83 42.5q-54 0 -82.5 -49t-28.5 -175
q0 -71 29.5 -111.5t81.5 -40.5z" />
    <glyph glyph-name="Ocircumflex" unicode="&#xd4;" horiz-adv-x="629" 
d="M408 650l-68 64l-75 -64h-122l124 171h160l105 -171h-124zM605 354q0 -166 -92.5 -269.5t-234.5 -103.5q-125 0 -195.5 76t-70.5 201q0 166 92.5 269.5t234.5 103.5q126 0 196 -76t70 -201zM307 118q53 0 83.5 49.5t30.5 174.5q0 67 -31 109.5t-83 42.5q-54 0 -82.5 -49
t-28.5 -175q0 -71 29.5 -111.5t81.5 -40.5z" />
    <glyph glyph-name="Otilde" unicode="&#xd5;" horiz-adv-x="629" 
d="M465 820l54 -58q-13 -32 -61.5 -72.5t-78.5 -40.5q-19 0 -69 16.5t-62 16.5q-17 0 -40.5 -17.5t-27.5 -26.5l-46 70q-2 1 21 25t54.5 48.5t50.5 24.5q23 0 69 -17.5t59 -17.5q30 0 77 49zM605 354q0 -166 -92.5 -269.5t-234.5 -103.5q-125 0 -195.5 76t-70.5 201
q0 166 92.5 269.5t234.5 103.5q126 0 196 -76t70 -201zM307 118q53 0 83.5 49.5t30.5 174.5q0 67 -31 109.5t-83 42.5q-54 0 -82.5 -49t-28.5 -175q0 -71 29.5 -111.5t81.5 -40.5z" />
    <glyph glyph-name="Odieresis" unicode="&#xd6;" horiz-adv-x="629" 
d="M343 725q1 24 34.5 57.5t57.5 33.5q25 0 57 -28t31 -54q-1 -22 -35.5 -55t-56.5 -33q-25 0 -57 27.5t-31 51.5zM143 725q1 24 34.5 57.5t57.5 33.5q25 0 56.5 -28t30.5 -54q-1 -22 -35.5 -55t-56.5 -33q-25 0 -56.5 27t-30.5 52zM605 354q0 -166 -92.5 -269.5
t-234.5 -103.5q-125 0 -195.5 76t-70.5 201q0 166 92.5 269.5t234.5 103.5q126 0 196 -76t70 -201zM307 118q53 0 83.5 49.5t30.5 174.5q0 67 -31 109.5t-83 42.5q-54 0 -82.5 -49t-28.5 -175q0 -71 29.5 -111.5t81.5 -40.5z" />
    <glyph glyph-name="multiply" unicode="&#xd7;" 
d="M361 84l-102 110l-117 -110l-67 73l116 109l-102 109l78 72l102 -108l115 108l68 -72l-116 -109l103 -109z" />
    <glyph glyph-name="Oslash" unicode="&#xd8;" horiz-adv-x="617" 
d="M196 270q0 -40 9 -68l125 290q-14 2 -23 2q-54 0 -82.5 -49t-28.5 -175zM307 118q53 0 83.5 49.5t30.5 174.5q0 38 -11 71l-126 -293q14 -2 23 -2zM278 -19q-30 0 -53 4l-29 -68h-114l45 104q-115 71 -115 237t92.5 269.5t234.5 103.5q26 0 50 -3l28 65h113l-43 -100
q57 -34 87.5 -96t30.5 -143q0 -166 -92.5 -269.5t-234.5 -103.5z" />
    <glyph glyph-name="Ugrave" unicode="&#xd9;" horiz-adv-x="643" 
d="M474 650h-142l-150 141l173 30zM79 612h179q-30 -376 -30 -404q0 -49 27 -71t64 -22q74 0 80 97l29 400h171l-27 -379q-8 -118 -80 -185t-204 -67q-111 0 -173.5 52t-62.5 148q0 60 27 431z" />
    <glyph glyph-name="Uacute" unicode="&#xda;" horiz-adv-x="643" 
d="M216 650l139 171l170 -30l-168 -141h-141zM79 612h179q-30 -376 -30 -404q0 -49 27 -71t64 -22q74 0 80 97l29 400h171l-27 -379q-8 -118 -80 -185t-204 -67q-111 0 -173.5 52t-62.5 148q0 60 27 431z" />
    <glyph glyph-name="Ucircumflex" unicode="&#xdb;" horiz-adv-x="643" 
d="M432 650l-68 64l-75 -64h-122l124 171h160l105 -171h-124zM79 612h179q-30 -376 -30 -404q0 -49 27 -71t64 -22q74 0 80 97l29 400h171l-27 -379q-8 -118 -80 -185t-204 -67q-111 0 -173.5 52t-62.5 148q0 60 27 431z" />
    <glyph glyph-name="Udieresis" unicode="&#xdc;" horiz-adv-x="643" 
d="M391 725q1 24 34.5 57.5t57.5 33.5q25 0 57 -28t31 -54q-1 -22 -35.5 -55t-56.5 -33q-25 0 -57 27.5t-31 51.5zM191 725q1 24 34.5 57.5t57.5 33.5q25 0 56.5 -28t30.5 -54q-1 -22 -35.5 -55t-56.5 -33q-25 0 -56.5 27t-30.5 52zM79 612h179q-30 -376 -30 -404
q0 -49 27 -71t64 -22q74 0 80 97l29 400h171l-27 -379q-8 -118 -80 -185t-204 -67q-111 0 -173.5 52t-62.5 148q0 60 27 431z" />
    <glyph glyph-name="Yacute" unicode="&#xdd;" horiz-adv-x="539" 
d="M186 650l139 171l170 -30l-168 -141h-141zM349 220h-2l-15 -220h-178l15 220h-2l-157 392h188l85 -212l104 212h179z" />
    <glyph glyph-name="Thorn" unicode="&#xde;" horiz-adv-x="548" 
d="M276 396h-34l-12 -175h41q49 0 68.5 24t19.5 57q0 41 -22.5 67.5t-60.5 26.5zM269 92h-47l-6 -92h-179l41 612h178l-6 -97h54q116 0 176 -50t60 -140q0 -101 -74 -167t-197 -66z" />
    <glyph glyph-name="germandbls" unicode="&#xdf;" horiz-adv-x="528" 
d="M327 -19q-67 0 -113 19l29 132q12 -11 36.5 -18.5t36.5 -7.5q21 0 29 6.5t10 18.5q3 28 -38 63q-51 45 -66 70t-15 62q0 32 23 65t46 62t23 51q0 37 -20 53t-39 14q-19 2 -30.5 -16t-14.5 -60l-24 -504q-3 -59 -23.5 -103.5t-47 -68t-60.5 -38t-58 -18.5t-46 -4
q-64 0 -86 16l33 128q25 -17 56 -17t45 21t17 83l24 489q4 104 73.5 166.5t165.5 62.5q82 0 135 -41.5t53 -107.5q0 -33 -15 -61.5t-33 -44t-33 -34.5t-15 -37t9 -31.5t45 -47.5q50 -45 70 -75.5t19 -74.5q0 -80 -63 -126t-138 -46z" />
    <glyph glyph-name="agrave" unicode="&#xe0;" horiz-adv-x="523" 
d="M519 500h-142l-150 141l173 30zM310 -19l-8 79q-77 -79 -153 -79q-61 0 -99 45.5t-38 137.5q0 133 80 219t200 86q124 0 198 -38l-30 -431zM229 101q12 0 23 7.5t23.5 25.5t22 56.5t14.5 92.5v-1l6 65q-14 8 -35 8t-35.5 -6t-28.5 -23.5t-21 -55.5t-7 -97q0 -72 38 -72z
" />
    <glyph glyph-name="aacute" unicode="&#xe1;" horiz-adv-x="523" 
d="M216 500l139 171l170 -30l-168 -141h-141zM310 -19l-8 79q-77 -79 -153 -79q-61 0 -99 45.5t-38 137.5q0 133 80 219t200 86q124 0 198 -38l-30 -431zM229 101q12 0 23 7.5t23.5 25.5t22 56.5t14.5 92.5v-1l6 65q-14 8 -35 8t-35.5 -6t-28.5 -23.5t-21 -55.5t-7 -97
q0 -72 38 -72z" />
    <glyph glyph-name="acircumflex" unicode="&#xe2;" horiz-adv-x="523" 
d="M393 500l-68 64l-75 -64h-122l124 171h160l105 -171h-124zM310 -19l-8 79q-77 -79 -153 -79q-61 0 -99 45.5t-38 137.5q0 133 80 219t200 86q124 0 198 -38l-30 -431zM229 101q12 0 23 7.5t23.5 25.5t22 56.5t14.5 92.5v-1l6 65q-14 8 -35 8t-35.5 -6t-28.5 -23.5
t-21 -55.5t-7 -97q0 -72 38 -72z" />
    <glyph glyph-name="atilde" unicode="&#xe3;" horiz-adv-x="523" 
d="M466 670l54 -58q-13 -32 -61.5 -72.5t-78.5 -40.5q-19 0 -69 16.5t-62 16.5q-17 0 -40.5 -17.5t-27.5 -26.5l-46 70q-2 1 21 25t54.5 48.5t50.5 24.5q23 0 69 -17.5t59 -17.5q30 0 77 49zM310 -19l-8 79q-77 -79 -153 -79q-61 0 -99 45.5t-38 137.5q0 133 80 219t200 86
q124 0 198 -38l-30 -431zM229 101q12 0 23 7.5t23.5 25.5t22 56.5t14.5 92.5v-1l6 65q-14 8 -35 8t-35.5 -6t-28.5 -23.5t-21 -55.5t-7 -97q0 -72 38 -72z" />
    <glyph glyph-name="adieresis" unicode="&#xe4;" horiz-adv-x="523" 
d="M338 575q1 24 34.5 57.5t57.5 33.5q25 0 57 -28t31 -54q-1 -22 -35.5 -55t-56.5 -33q-25 0 -57 27.5t-31 51.5zM138 575q1 24 34.5 57.5t57.5 33.5q25 0 56.5 -28t30.5 -54q-1 -22 -35.5 -55t-56.5 -33q-25 0 -56.5 27t-30.5 52zM310 -19l-8 79q-77 -79 -153 -79
q-61 0 -99 45.5t-38 137.5q0 133 80 219t200 86q124 0 198 -38l-30 -431zM229 101q12 0 23 7.5t23.5 25.5t22 56.5t14.5 92.5v-1l6 65q-14 8 -35 8t-35.5 -6t-28.5 -23.5t-21 -55.5t-7 -97q0 -72 38 -72z" />
    <glyph glyph-name="aring" unicode="&#xe5;" horiz-adv-x="523" 
d="M430 592q-4 -43 -39 -74.5t-80 -31.5q-47 0 -76 28.5t-26 77.5q4 44 39 76t80 32q48 0 76.5 -28.5t25.5 -79.5zM278 592q-2 -17 9 -29t29 -12t30.5 12t14.5 29q1 19 -10 31t-29 12t-30 -12t-14 -31zM310 -19l-8 79q-77 -79 -153 -79q-61 0 -99 45.5t-38 137.5
q0 133 80 219t200 86q124 0 198 -38l-30 -431zM229 101q12 0 23 7.5t23.5 25.5t22 56.5t14.5 92.5v-1l6 65q-14 8 -35 8t-35.5 -6t-28.5 -23.5t-21 -55.5t-7 -97q0 -72 38 -72z" />
    <glyph glyph-name="ae" unicode="&#xe6;" horiz-adv-x="695" 
d="M472 -19q-120 0 -164 91q-67 -88 -147 -88q-81 0 -115 49.5t-34 144.5q0 64 20 116t50 83.5t67 53t68 30t56 8.5q88 0 162 -21q45 21 98 21q71 0 111.5 -35t40.5 -89q0 -66 -63.5 -115t-161.5 -62q6 -40 23 -52.5t43 -12.5q45 0 108 46l37 -96q-96 -72 -199 -72zM506 364
q-54 0 -54 -111q80 16 80 75q0 36 -26 36zM235 101q40 0 51 84q1 97 38 162q-20 4 -59 4q-32 0 -53 -36t-21 -111q0 -64 10 -83.5t34 -19.5z" />
    <glyph glyph-name="ccedilla" unicode="&#xe7;" horiz-adv-x="388" 
d="M294 -128q-3 -41 -51.5 -75t-140.5 -38l-15 65q97 9 99 34q2 23 -69 37l-2 5l46 83q-64 8 -105 56t-41 145q0 136 69 210.5t175 74.5q30 0 72 -11t63 -27l-54 -120q1 1 -4.5 5.5t-15 10t-20.5 11t-23.5 9t-21.5 3.5q-7 0 -14 -3t-16 -13t-16 -26t-11.5 -45.5t-4.5 -68.5
q0 -45 16.5 -65t35.5 -20q40 0 84 33l37 -102q-67 -48 -138 -56l-15 -34q85 -28 81 -78z" />
    <glyph glyph-name="egrave" unicode="&#xe8;" horiz-adv-x="426" 
d="M370 500h-142l-150 141l173 30zM204 -19q-86 0 -135.5 50t-49.5 149q0 77 23 136t60.5 90.5t78.5 47t84 15.5q71 0 111.5 -35t40.5 -89q0 -66 -63.5 -115t-161.5 -62q6 -40 23 -52.5t43 -12.5q45 0 108 46l37 -96q-96 -72 -199 -72zM238 364q-54 0 -54 -111q80 16 80 75
q0 36 -26 36z" />
    <glyph glyph-name="eacute" unicode="&#xe9;" horiz-adv-x="426" 
d="M154 500l139 171l170 -30l-168 -141h-141zM204 -19q-86 0 -135.5 50t-49.5 149q0 77 23 136t60.5 90.5t78.5 47t84 15.5q71 0 111.5 -35t40.5 -89q0 -66 -63.5 -115t-161.5 -62q6 -40 23 -52.5t43 -12.5q45 0 108 46l37 -96q-96 -72 -199 -72zM238 364q-54 0 -54 -111
q80 16 80 75q0 36 -26 36z" />
    <glyph glyph-name="ecircumflex" unicode="&#xea;" horiz-adv-x="426" 
d="M325 500l-68 64l-75 -64h-122l124 171h160l105 -171h-124zM204 -19q-86 0 -135.5 50t-49.5 149q0 77 23 136t60.5 90.5t78.5 47t84 15.5q71 0 111.5 -35t40.5 -89q0 -66 -63.5 -115t-161.5 -62q6 -40 23 -52.5t43 -12.5q45 0 108 46l37 -96q-96 -72 -199 -72zM238 364
q-54 0 -54 -111q80 16 80 75q0 36 -26 36z" />
    <glyph glyph-name="edieresis" unicode="&#xeb;" horiz-adv-x="426" 
d="M278 575q1 24 34.5 57.5t57.5 33.5q25 0 57 -28t31 -54q-1 -22 -35.5 -55t-56.5 -33q-25 0 -57 27.5t-31 51.5zM78 575q1 24 34.5 57.5t57.5 33.5q25 0 56.5 -28t30.5 -54q-1 -22 -35.5 -55t-56.5 -33q-25 0 -56.5 27t-30.5 52zM204 -19q-86 0 -135.5 50t-49.5 149
q0 77 23 136t60.5 90.5t78.5 47t84 15.5q71 0 111.5 -35t40.5 -89q0 -66 -63.5 -115t-161.5 -62q6 -40 23 -52.5t43 -12.5q45 0 108 46l37 -96q-96 -72 -199 -72zM238 364q-54 0 -54 -111q80 16 80 75q0 36 -26 36z" />
    <glyph glyph-name="igrave" unicode="&#xec;" horiz-adv-x="252" 
d="M249 499h-142l-150 141l173 30zM227 469l-33 -469h-168l32 446z" />
    <glyph glyph-name="iacute" unicode="&#xed;" horiz-adv-x="252" 
d="M59 499l139 171l170 -30l-168 -141h-141zM227 469l-33 -469h-168l32 446z" />
    <glyph glyph-name="icircumflex" unicode="&#xee;" horiz-adv-x="252" 
d="M227 499l-68 64l-75 -64h-122l124 171h160l105 -171h-124zM227 469l-33 -469h-168l32 446z" />
    <glyph glyph-name="idieresis" unicode="&#xef;" horiz-adv-x="252" 
d="M173 575q1 24 34.5 57.5t57.5 33.5q25 0 57 -28t31 -54q-1 -22 -35.5 -55t-56.5 -33q-26 0 -57.5 27t-30.5 52zM-34 575q1 24 34.5 57.5t57.5 33.5q25 0 57 -28t31 -54q-1 -22 -35.5 -55t-56.5 -33q-25 0 -57 27.5t-31 51.5zM227 469l-33 -469h-168l32 446z" />
    <glyph glyph-name="eth" unicode="&#xf0;" horiz-adv-x="488" 
d="M172 -19q-67 0 -113 48t-46 133q-1 138 80 222.5t176 84.5h2q-19 41 -44 69l-104 -64l-57 63l94 58q-41 27 -92 48l63 71q82 -20 140 -51l99 61l54 -63l-78 -48q129 -109 129 -282q0 -103 -46.5 -185t-115 -123.5t-141.5 -41.5zM228 103q28 2 50.5 55.5t22.5 142.5
q0 20 -2 54q-16 3 -37 3q-76 0 -76 -184q0 -42 10 -55.5t32 -15.5z" />
    <glyph glyph-name="ntilde" unicode="&#xf1;" horiz-adv-x="514" 
d="M446 670l54 -58q-13 -32 -61.5 -72.5t-78.5 -40.5q-19 0 -69 16.5t-62 16.5q-17 0 -40.5 -17.5t-27.5 -26.5l-46 70q-2 1 21 25t54.5 48.5t50.5 24.5q23 0 69 -17.5t59 -17.5q30 0 77 49zM285 336q-63 0 -80 -147l-12 -189h-169l31 446l156 23l6 -94q70 94 149 94
q122 0 122 -132q0 -46 -18.5 -184.5t-19.5 -152.5h-169q34 233 34 288q0 48 -30 48z" />
    <glyph glyph-name="ograve" unicode="&#xf2;" horiz-adv-x="468" 
d="M388 500h-142l-150 141l173 30zM454 258q0 -71 -26.5 -132.5t-85 -103t-138.5 -41.5q-83 0 -136.5 51.5t-53.5 159.5q0 71 27 132.5t85.5 103t137.5 41.5q190 0 190 -211zM237 87q45 0 45 179q0 53 -11 75t-39 22q-46 0 -46 -179q0 -58 10 -77.5t41 -19.5z" />
    <glyph glyph-name="oacute" unicode="&#xf3;" horiz-adv-x="468" 
d="M138 500l139 171l170 -30l-168 -141h-141zM454 258q0 -71 -26.5 -132.5t-85 -103t-138.5 -41.5q-83 0 -136.5 51.5t-53.5 159.5q0 71 27 132.5t85.5 103t137.5 41.5q190 0 190 -211zM237 87q45 0 45 179q0 53 -11 75t-39 22q-46 0 -46 -179q0 -58 10 -77.5t41 -19.5z" />
    <glyph glyph-name="ocircumflex" unicode="&#xf4;" horiz-adv-x="468" 
d="M333 500l-68 64l-75 -64h-122l124 171h160l105 -171h-124zM454 258q0 -71 -26.5 -132.5t-85 -103t-138.5 -41.5q-83 0 -136.5 51.5t-53.5 159.5q0 71 27 132.5t85.5 103t137.5 41.5q190 0 190 -211zM237 87q45 0 45 179q0 53 -11 75t-39 22q-46 0 -46 -179
q0 -58 10 -77.5t41 -19.5z" />
    <glyph glyph-name="otilde" unicode="&#xf5;" horiz-adv-x="468" 
d="M379 670l54 -58q-13 -32 -61.5 -72.5t-78.5 -40.5q-19 0 -69 16.5t-62 16.5q-17 0 -40.5 -17.5t-27.5 -26.5l-46 70q-2 1 21 25t54.5 48.5t50.5 24.5q23 0 69 -17.5t59 -17.5q30 0 77 49zM454 258q0 -71 -26.5 -132.5t-85 -103t-138.5 -41.5q-83 0 -136.5 51.5
t-53.5 159.5q0 71 27 132.5t85.5 103t137.5 41.5q190 0 190 -211zM237 87q45 0 45 179q0 53 -11 75t-39 22q-46 0 -46 -179q0 -58 10 -77.5t41 -19.5z" />
    <glyph glyph-name="odieresis" unicode="&#xf6;" horiz-adv-x="468" 
d="M267 575q1 24 34.5 57.5t57.5 33.5q25 0 57 -28t31 -54q-1 -22 -35.5 -55t-56.5 -33q-25 0 -57 27.5t-31 51.5zM67 575q1 24 34.5 57.5t57.5 33.5q25 0 56.5 -28t30.5 -54q-1 -22 -35.5 -55t-56.5 -33q-25 0 -56.5 27t-30.5 52zM454 258q0 -71 -26.5 -132.5t-85 -103
t-138.5 -41.5q-83 0 -136.5 51.5t-53.5 159.5q0 71 27 132.5t85.5 103t137.5 41.5q190 0 190 -211zM237 87q45 0 45 179q0 53 -11 75t-39 22q-46 0 -46 -179q0 -58 10 -77.5t41 -19.5z" />
    <glyph glyph-name="divide" unicode="&#xf7;" 
d="M187 432q1 33 29.5 60.5t58.5 27.5q29 0 59.5 -22.5t29.5 -52.5q-4 -33 -32.5 -60t-58.5 -27q-32 0 -59.5 21t-26.5 53zM479 319l-8 -102h-426l8 102h426zM163 92q2 33 30 60.5t58 27.5q31 0 60.5 -22t28.5 -52q-1 -33 -31 -60t-60 -27q-33 0 -60 21t-26 52z" />
    <glyph glyph-name="oslash" unicode="&#xf8;" horiz-adv-x="468" 
d="M232 363q-28 0 -43 -54.5t-16 -117.5l94 161q-14 11 -35 11zM237 87q27 0 41.5 52t16.5 117l-94 -160q13 -9 36 -9zM204 -19q-34 0 -64 9l-36 -61h-84l56 96q-62 54 -62 167q0 71 27 132.5t85.5 103t137.5 41.5q33 0 67 -8l36 62h84l-56 -96q59 -53 59 -169
q0 -71 -26.5 -132.5t-85 -103t-138.5 -41.5z" />
    <glyph glyph-name="ugrave" unicode="&#xf9;" horiz-adv-x="518" 
d="M452 500h-142l-150 141l173 30zM304 -19l-8 93q-70 -93 -150 -93q-122 0 -122 132q0 46 17 182t18 149l172 26q-34 -272 -34 -306q0 -21 9.5 -35.5t23.5 -14.5q60 0 78 124l15 208l171 23l-33 -469z" />
    <glyph glyph-name="uacute" unicode="&#xfa;" horiz-adv-x="518" 
d="M180 500l139 171l170 -30l-168 -141h-141zM304 -19l-8 93q-70 -93 -150 -93q-122 0 -122 132q0 46 17 182t18 149l172 26q-34 -272 -34 -306q0 -21 9.5 -35.5t23.5 -14.5q60 0 78 124l15 208l171 23l-33 -469z" />
    <glyph glyph-name="ucircumflex" unicode="&#xfb;" horiz-adv-x="518" 
d="M350 500l-68 64l-75 -64h-122l124 171h160l105 -171h-124zM304 -19l-8 93q-70 -93 -150 -93q-122 0 -122 132q0 46 17 182t18 149l172 26q-34 -272 -34 -306q0 -21 9.5 -35.5t23.5 -14.5q60 0 78 124l15 208l171 23l-33 -469z" />
    <glyph glyph-name="udieresis" unicode="&#xfc;" horiz-adv-x="518" 
d="M301 575q1 24 34.5 57.5t57.5 33.5q25 0 57 -28t31 -54q-1 -22 -35.5 -55t-56.5 -33q-25 0 -57 27.5t-31 51.5zM101 575q1 24 34.5 57.5t57.5 33.5q25 0 56.5 -28t30.5 -54q-1 -22 -35.5 -55t-56.5 -33q-25 0 -56.5 27t-30.5 52zM304 -19l-8 93q-70 -93 -150 -93
q-122 0 -122 132q0 46 17 182t18 149l172 26q-34 -272 -34 -306q0 -21 9.5 -35.5t23.5 -14.5q60 0 78 124l15 208l171 23l-33 -469z" />
    <glyph glyph-name="yacute" unicode="&#xfd;" horiz-adv-x="441" 
d="M100 500l139 171l170 -30l-168 -141h-141zM-11 -241q-66 0 -96 15l19 140q21 -8 64 -8q98 0 163 86h-81l-48 455l165 21l34 -340q39 106 84 322h161q-4 -42 -13.5 -93.5t-28.5 -119.5t-44.5 -132.5t-63 -128t-82 -111t-105 -77t-128.5 -29.5z" />
    <glyph glyph-name="thorn" unicode="&#xfe;" horiz-adv-x="511" 
d="M252 98q38 0 53 42.5t15 128.5q0 83 -37 83q-28 0 -48 -39t-27 -110l-6 -99q21 -6 50 -6zM182 -218l-169 -23l59 944l169 23l-20 -326q60 69 139 69q137 0 137 -175q0 -66 -18.5 -120t-47 -88.5t-65.5 -58t-72.5 -33.5t-68.5 -10q-10 0 -30 2z" />
    <glyph glyph-name="ydieresis" unicode="&#xff;" horiz-adv-x="441" 
d="M252 575q1 24 34.5 57.5t57.5 33.5q25 0 57 -28t31 -54q-1 -22 -35.5 -55t-56.5 -33q-25 0 -57 27.5t-31 51.5zM52 575q1 24 34.5 57.5t57.5 33.5q25 0 56.5 -28t30.5 -54q-1 -22 -35.5 -55t-56.5 -33q-25 0 -56.5 27t-30.5 52zM-11 -241q-66 0 -96 15l19 140
q21 -8 64 -8q98 0 163 86h-81l-48 455l165 21l34 -340q39 106 84 322h161q-4 -42 -13.5 -93.5t-28.5 -119.5t-44.5 -132.5t-63 -128t-82 -111t-105 -77t-128.5 -29.5z" />
    <glyph glyph-name="Amacron" unicode="&#x100;" horiz-adv-x="569" 
d="M475 785l-1 -15l-36 -101h-271l1 15l36 101h271zM331 225l-40 226l-78 -226h118zM371 0l-16 93h-188l-32 -93h-172l236 612h235l115 -612h-178z" />
    <glyph glyph-name="amacron" unicode="&#x101;" horiz-adv-x="523" 
d="M477 635l-1 -15l-36 -101h-271l1 15l36 101h271zM310 -19l-8 79q-77 -79 -153 -79q-61 0 -99 45.5t-38 137.5q0 133 80 219t200 86q124 0 198 -38l-30 -431zM229 101q12 0 23 7.5t23.5 25.5t22 56.5t14.5 92.5v-1l6 65q-14 8 -35 8t-35.5 -6t-28.5 -23.5t-21 -55.5
t-7 -97q0 -72 38 -72z" />
    <glyph glyph-name="Abreve" unicode="&#x102;" horiz-adv-x="569" 
d="M321 754q34 0 55.5 17.5t30.5 60.5h97q-6 -83 -65 -133t-132 -50q-79 0 -122.5 48.5t-36.5 134.5h98q3 -78 75 -78zM331 225l-40 226l-78 -226h118zM371 0l-16 93h-188l-32 -93h-172l236 612h235l115 -612h-178z" />
    <glyph glyph-name="abreve" unicode="&#x103;" horiz-adv-x="523" 
d="M304 604q34 0 55.5 17.5t30.5 60.5h97q-6 -83 -65 -133t-132 -50q-79 0 -122.5 48.5t-36.5 134.5h98q3 -78 75 -78zM310 -19l-8 79q-77 -79 -153 -79q-61 0 -99 45.5t-38 137.5q0 133 80 219t200 86q124 0 198 -38l-30 -431zM229 101q12 0 23 7.5t23.5 25.5t22 56.5
t14.5 92.5v-1l6 65q-14 8 -35 8t-35.5 -6t-28.5 -23.5t-21 -55.5t-7 -97q0 -72 38 -72z" />
    <glyph glyph-name="Aogonek" unicode="&#x104;" horiz-adv-x="569" 
d="M331 225l-40 226l-78 -226h118zM466 0h-95l-16 93h-188l-32 -93h-172l236 612h235l115 -612q-104 -69 -110 -119q0 -14 10.5 -23.5t24.5 -9.5q31 0 51 11l18 -71q-16 -8 -47 -17t-51 -9q-52 0 -83.5 27t-27.5 74q3 33 36 70t96 67z" />
    <glyph glyph-name="aogonek" unicode="&#x105;" horiz-adv-x="523" 
d="M357 -238q-52 0 -83.5 27t-27.5 74q8 68 106 123l-42 -5l-8 79q-77 -79 -153 -79q-61 0 -99 45.5t-38 137.5q0 133 80 219t200 86q124 0 198 -38l-30 -431h1q-104 -69 -110 -119q0 -14 10.5 -23.5t24.5 -9.5q31 0 51 11l18 -71q-16 -8 -47 -17t-51 -9zM229 101
q12 0 23 7.5t23.5 25.5t22 56.5t14.5 92.5v-1l6 65q-14 8 -35 8t-35.5 -6t-28.5 -23.5t-21 -55.5t-7 -97q0 -72 38 -72z" />
    <glyph glyph-name="Cacute" unicode="&#x106;" horiz-adv-x="489" 
d="M221 650l139 171l170 -30l-168 -141h-141zM441 140l20 -121q-77 -35 -182 -35q-122 0 -194.5 78.5t-72.5 212.5q0 69 21.5 132t62.5 113.5t108.5 80.5t151.5 30q76 0 139 -25l-38 -140q-75 23 -129 23q-132 0 -132 -205q0 -78 41.5 -120t93.5 -42q60 0 110 18z" />
    <glyph glyph-name="cacute" unicode="&#x107;" horiz-adv-x="388" 
d="M150 500l139 171l170 -30l-168 -141h-141zM366 40q-82 -59 -179 -59q-73 0 -122.5 48t-49.5 155q0 136 69 210.5t175 74.5q30 0 72 -11t63 -27l-54 -120q1 1 -4.5 5.5t-15 10t-20.5 11t-23.5 9t-21.5 3.5q-7 0 -14 -3t-16 -13t-16 -26t-11.5 -45.5t-4.5 -68.5
q0 -45 16.5 -65t35.5 -20q40 0 84 33z" />
    <glyph glyph-name="Ccircumflex" unicode="&#x108;" horiz-adv-x="489" 
d="M390 650l-68 64l-75 -64h-122l124 171h160l105 -171h-124zM441 140l20 -121q-77 -35 -182 -35q-122 0 -194.5 78.5t-72.5 212.5q0 69 21.5 132t62.5 113.5t108.5 80.5t151.5 30q76 0 139 -25l-38 -140q-75 23 -129 23q-132 0 -132 -205q0 -78 41.5 -120t93.5 -42
q60 0 110 18z" />
    <glyph glyph-name="ccircumflex" unicode="&#x109;" horiz-adv-x="388" 
d="M326 500l-68 64l-75 -64h-122l124 171h160l105 -171h-124zM366 40q-82 -59 -179 -59q-73 0 -122.5 48t-49.5 155q0 136 69 210.5t175 74.5q30 0 72 -11t63 -27l-54 -120q1 1 -4.5 5.5t-15 10t-20.5 11t-23.5 9t-21.5 3.5q-7 0 -14 -3t-16 -13t-16 -26t-11.5 -45.5
t-4.5 -68.5q0 -45 16.5 -65t35.5 -20q40 0 84 33z" />
    <glyph glyph-name="Cdotaccent" unicode="&#x10a;" horiz-adv-x="489" 
d="M231 747q2 27 38.5 64t62.5 37t63 -31t36 -57q-2 -26 -39 -63t-62 -37q-27 0 -63.5 30.5t-35.5 56.5zM441 140l20 -121q-77 -35 -182 -35q-122 0 -194.5 78.5t-72.5 212.5q0 69 21.5 132t62.5 113.5t108.5 80.5t151.5 30q76 0 139 -25l-38 -140q-75 23 -129 23
q-132 0 -132 -205q0 -78 41.5 -120t93.5 -42q60 0 110 18z" />
    <glyph glyph-name="cdotaccent" unicode="&#x10b;" horiz-adv-x="388" 
d="M177 597q2 27 38.5 64t62.5 37t63 -31t36 -57q-2 -26 -39 -63t-62 -37q-27 0 -63.5 30.5t-35.5 56.5zM366 40q-82 -59 -179 -59q-73 0 -122.5 48t-49.5 155q0 136 69 210.5t175 74.5q30 0 72 -11t63 -27l-54 -120q1 1 -4.5 5.5t-15 10t-20.5 11t-23.5 9t-21.5 3.5
q-7 0 -14 -3t-16 -13t-16 -26t-11.5 -45.5t-4.5 -68.5q0 -45 16.5 -65t35.5 -20q40 0 84 33z" />
    <glyph glyph-name="Ccaron" unicode="&#x10c;" horiz-adv-x="489" 
d="M399 656h-160l-105 171h124l68 -63l75 63h121zM441 140l20 -121q-77 -35 -182 -35q-122 0 -194.5 78.5t-72.5 212.5q0 69 21.5 132t62.5 113.5t108.5 80.5t151.5 30q76 0 139 -25l-38 -140q-75 23 -129 23q-132 0 -132 -205q0 -78 41.5 -120t93.5 -42q60 0 110 18z" />
    <glyph glyph-name="ccaron" unicode="&#x10d;" horiz-adv-x="388" 
d="M326 506h-160l-105 171h124l68 -63l75 63h121zM366 40q-82 -59 -179 -59q-73 0 -122.5 48t-49.5 155q0 136 69 210.5t175 74.5q30 0 72 -11t63 -27l-54 -120q1 1 -4.5 5.5t-15 10t-20.5 11t-23.5 9t-21.5 3.5q-7 0 -14 -3t-16 -13t-16 -26t-11.5 -45.5t-4.5 -68.5
q0 -45 16.5 -65t35.5 -20q40 0 84 33z" />
    <glyph glyph-name="Dcaron" unicode="&#x10e;" horiz-adv-x="619" 
d="M398 656h-160l-105 171h124l68 -63l75 63h121zM80 612h238q126 0 201.5 -70.5t76.5 -203.5q-2 -146 -98 -242t-251 -96h-210zM251 478l-26 -344h23q70 0 116 43.5t46 135.5q0 85 -37.5 125t-92.5 40h-29z" />
    <glyph glyph-name="dcaron" unicode="&#x10f;" horiz-adv-x="675" 
d="M545 641q1 20 33 37t57 17q23 0 36.5 -20.5t16.5 -43.5t2 -49q-4 -62 -114 -202l-66 33q40 68 44 136q1 20 -4 49t-5 43zM295 -19l-3 74q-62 -71 -142 -71q-137 0 -137 174q0 82 27.5 145t70.5 97.5t87.5 51.5t87.5 17q11 0 31 -2l18 237l169 23l-49 -727zM228 101
q27 0 46 34.5t26 99.5l9 115q-21 6 -49 6q-38 0 -54 -44t-16 -129q0 -82 38 -82z" />
    <glyph glyph-name="Dcroat" unicode="&#x110;" horiz-adv-x="607" 
d="M235 0h-210l17 248h-54v24l25 99h38l17 241h238q126 0 201.5 -70.5t76.5 -203.5q-2 -146 -98 -242t-251 -96zM213 134h23q70 0 116 43.5t46 135.5q0 85 -37.5 125t-92.5 40h-29l-8 -107h113v-24l-25 -99h-97z" />
    <glyph glyph-name="dcroat" unicode="&#x111;" horiz-adv-x="506" 
d="M295 -19l-3 74q-62 -71 -142 -71q-137 0 -137 174q0 82 27.5 145t70.5 97.5t87.5 51.5t87.5 17q11 0 31 -2l6 68h-95v15l33 67h68l6 87l169 23l-7 -110h105l1 -15l-33 -67h-79l-36 -535zM228 101q27 0 46 34.5t26 99.5l9 115q-21 6 -49 6q-38 0 -54 -44t-16 -129
q0 -82 38 -82z" />
    <glyph glyph-name="Emacron" unicode="&#x112;" horiz-adv-x="507" 
d="M445 785l-1 -15l-36 -101h-271l1 15l36 101h271zM37 0l43 612h408l-31 -132l-207 3l-8 -107h207l-31 -132l-184 6l-9 -116l243 3l-30 -137h-401z" />
    <glyph glyph-name="emacron" unicode="&#x113;" horiz-adv-x="426" 
d="M414 635l-1 -15l-36 -101h-271l1 15l36 101h271zM204 -19q-86 0 -135.5 50t-49.5 149q0 77 23 136t60.5 90.5t78.5 47t84 15.5q71 0 111.5 -35t40.5 -89q0 -66 -63.5 -115t-161.5 -62q6 -40 23 -52.5t43 -12.5q45 0 108 46l37 -96q-96 -72 -199 -72zM238 364
q-54 0 -54 -111q80 16 80 75q0 36 -26 36z" />
    <glyph glyph-name="Ebreve" unicode="&#x114;" horiz-adv-x="507" 
d="M298 754q34 0 55.5 17.5t30.5 60.5h97q-6 -83 -65 -133t-132 -50q-79 0 -122.5 48.5t-36.5 134.5h98q3 -78 75 -78zM37 0l43 612h408l-31 -132l-207 3l-8 -107h207l-31 -132l-184 6l-9 -116l243 3l-30 -137h-401z" />
    <glyph glyph-name="ebreve" unicode="&#x115;" horiz-adv-x="426" 
d="M268 604q34 0 55.5 17.5t30.5 60.5h97q-6 -83 -65 -133t-132 -50q-79 0 -122.5 48.5t-36.5 134.5h98q3 -78 75 -78zM204 -19q-86 0 -135.5 50t-49.5 149q0 77 23 136t60.5 90.5t78.5 47t84 15.5q71 0 111.5 -35t40.5 -89q0 -66 -63.5 -115t-161.5 -62q6 -40 23 -52.5
t43 -12.5q45 0 108 46l37 -96q-96 -72 -199 -72zM238 364q-54 0 -54 -111q80 16 80 75q0 36 -26 36z" />
    <glyph glyph-name="Edotaccent" unicode="&#x116;" horiz-adv-x="507" 
d="M201 747q2 27 38.5 64t62.5 37t63 -31t36 -57q-2 -26 -39 -63t-62 -37q-27 0 -63.5 30.5t-35.5 56.5zM37 0l43 612h408l-31 -132l-207 3l-8 -107h207l-31 -132l-184 6l-9 -116l243 3l-30 -137h-401z" />
    <glyph glyph-name="edotaccent" unicode="&#x117;" horiz-adv-x="426" 
d="M148 597q2 27 38.5 64t62.5 37t63 -31t36 -57q-2 -26 -39 -63t-62 -37q-27 0 -63.5 30.5t-35.5 56.5zM204 -19q-86 0 -135.5 50t-49.5 149q0 77 23 136t60.5 90.5t78.5 47t84 15.5q71 0 111.5 -35t40.5 -89q0 -66 -63.5 -115t-161.5 -62q6 -40 23 -52.5t43 -12.5
q45 0 108 46l37 -96q-96 -72 -199 -72zM238 364q-54 0 -54 -111q80 16 80 75q0 36 -26 36z" />
    <glyph glyph-name="Eogonek" unicode="&#x118;" horiz-adv-x="507" 
d="M37 0l43 612h408l-31 -132l-207 3l-8 -107h207l-31 -132l-184 6l-9 -116l243 3l-30 -137h-401zM225 -137q3 33 36 70t96 67h83q-104 -69 -110 -119q0 -14 10.5 -23.5t24.5 -9.5q31 0 51 11l18 -71q-16 -8 -47 -17t-51 -9q-52 0 -83.5 27t-27.5 74z" />
    <glyph glyph-name="eogonek" unicode="&#x119;" horiz-adv-x="426" 
d="M248 -220q-52 0 -83.5 27t-27.5 74q5 52 70 100h-3q-86 0 -135.5 50t-49.5 149q0 77 23 136t60.5 90.5t78.5 47t84 15.5q71 0 111.5 -35t40.5 -89q0 -66 -63.5 -115t-161.5 -62q6 -40 23 -52.5t43 -12.5q45 0 108 46l37 -96q-27 -20 -54 -35h3q-104 -69 -110 -119
q0 -14 10.5 -23.5t24.5 -9.5q31 0 51 11l18 -71q-16 -8 -47 -17t-51 -9zM238 364q-54 0 -54 -111q80 16 80 75q0 36 -26 36z" />
    <glyph glyph-name="Ecaron" unicode="&#x11a;" horiz-adv-x="507" 
d="M366 656h-160l-105 171h124l68 -63l75 63h121zM37 0l43 612h408l-31 -132l-207 3l-8 -107h207l-31 -132l-184 6l-9 -116l243 3l-30 -137h-401z" />
    <glyph glyph-name="ecaron" unicode="&#x11b;" horiz-adv-x="426" 
d="M339 506h-160l-105 171h124l68 -63l75 63h121zM204 -19q-86 0 -135.5 50t-49.5 149q0 77 23 136t60.5 90.5t78.5 47t84 15.5q71 0 111.5 -35t40.5 -89q0 -66 -63.5 -115t-161.5 -62q6 -40 23 -52.5t43 -12.5q45 0 108 46l37 -96q-96 -72 -199 -72zM238 364
q-54 0 -54 -111q80 16 80 75q0 36 -26 36z" />
    <glyph glyph-name="Gcircumflex" unicode="&#x11c;" horiz-adv-x="575" 
d="M426 650l-68 64l-75 -64h-122l124 171h160l105 -171h-124zM507 24q-38 -18 -99 -30.5t-112 -12.5q-137 0 -210.5 75t-73.5 220q0 60 20.5 121t60.5 115t107 87.5t151 33.5q56 0 113.5 -10t85.5 -28l-36 -145q-94 39 -183 39q-69 0 -103.5 -51t-34.5 -163q0 -78 39 -117.5
t97 -39.5q21 0 30 1l12 185h154z" />
    <glyph glyph-name="gcircumflex" unicode="&#x11d;" horiz-adv-x="410" 
d="M218 247q14 0 23 15t9 36q0 37 -8 55t-35 18q-23 0 -29.5 -14t-6.5 -38q0 -37 9.5 -54.5t37.5 -17.5zM405 -24q0 -85 -82 -153t-192 -68q-91 0 -136 31.5t-45 82.5q0 41 24 73.5t87 66.5q-35 28 -33 68q-1 18 15.5 43t44.5 46q-71 32 -71 129q0 79 64.5 126.5t154.5 47.5
q34 0 62 -6l25 37h-25l-68 64l-75 -64h-122l124 171h160l58 -95l6 9l85 -85l-11 -26l-82 -51q32 -35 32 -101q0 -72 -60.5 -122t-160.5 -50h-6q-3 -3 -3 -8q0 -11 4.5 -16.5t26.5 -11.5t68 -11q75 -9 103 -41t28 -86zM170 -125q50 0 73.5 14t23.5 36q0 21 -14 27.5t-70 14.5
q-12 2 -19 3q-14 2 -38 8q-32 -25 -32 -54q0 -21 18.5 -35t57.5 -14z" />
    <glyph glyph-name="Gbreve" unicode="&#x11e;" horiz-adv-x="575" 
d="M343 754q34 0 55.5 17.5t30.5 60.5h97q-6 -83 -65 -133t-132 -50q-79 0 -122.5 48.5t-36.5 134.5h98q3 -78 75 -78zM507 24q-38 -18 -99 -30.5t-112 -12.5q-137 0 -210.5 75t-73.5 220q0 60 20.5 121t60.5 115t107 87.5t151 33.5q56 0 113.5 -10t85.5 -28l-36 -145
q-94 39 -183 39q-69 0 -103.5 -51t-34.5 -163q0 -78 39 -117.5t97 -39.5q21 0 30 1l12 185h154z" />
    <glyph glyph-name="gbreve" unicode="&#x11f;" horiz-adv-x="410" 
d="M230 604q34 0 55.5 17.5t30.5 60.5h97q-6 -83 -65 -133t-132 -50q-79 0 -122.5 48.5t-36.5 134.5h98q3 -78 75 -78zM218 247q14 0 23 15t9 36q0 37 -8 55t-35 18q-23 0 -29.5 -14t-6.5 -38q0 -37 9.5 -54.5t37.5 -17.5zM405 -24q0 -85 -82 -153t-192 -68q-91 0 -136 31.5
t-45 82.5q0 41 24 73.5t87 66.5q-35 28 -33 68q-1 18 15.5 43t44.5 46q-71 32 -71 129q0 79 64.5 126.5t154.5 47.5q34 0 62 -6l83 122l85 -85l-11 -26l-82 -51q32 -35 32 -101q0 -72 -60.5 -122t-160.5 -50h-6q-3 -3 -3 -8q0 -11 4.5 -16.5t26.5 -11.5t68 -11
q75 -9 103 -41t28 -86zM170 -125q50 0 73.5 14t23.5 36q0 21 -14 27.5t-70 14.5q-12 2 -19 3q-14 2 -38 8q-32 -25 -32 -54q0 -21 18.5 -35t57.5 -14z" />
    <glyph glyph-name="Gdotaccent" unicode="&#x120;" horiz-adv-x="575" 
d="M262 747q2 27 38.5 64t62.5 37t63 -31t36 -57q-2 -26 -39 -63t-62 -37q-27 0 -63.5 30.5t-35.5 56.5zM507 24q-38 -18 -99 -30.5t-112 -12.5q-137 0 -210.5 75t-73.5 220q0 60 20.5 121t60.5 115t107 87.5t151 33.5q56 0 113.5 -10t85.5 -28l-36 -145q-94 39 -183 39
q-69 0 -103.5 -51t-34.5 -163q0 -78 39 -117.5t97 -39.5q21 0 30 1l12 185h154z" />
    <glyph glyph-name="gdotaccent" unicode="&#x121;" horiz-adv-x="410" 
d="M135 597q2 27 38.5 64t62.5 37t63 -31t36 -57q-2 -26 -39 -63t-62 -37q-27 0 -63.5 30.5t-35.5 56.5zM218 247q14 0 23 15t9 36q0 37 -8 55t-35 18q-23 0 -29.5 -14t-6.5 -38q0 -37 9.5 -54.5t37.5 -17.5zM405 -24q0 -85 -82 -153t-192 -68q-91 0 -136 31.5t-45 82.5
q0 41 24 73.5t87 66.5q-35 28 -33 68q-1 18 15.5 43t44.5 46q-71 32 -71 129q0 79 64.5 126.5t154.5 47.5q34 0 62 -6l83 122l85 -85l-11 -26l-82 -51q32 -35 32 -101q0 -72 -60.5 -122t-160.5 -50h-6q-3 -3 -3 -8q0 -11 4.5 -16.5t26.5 -11.5t68 -11q75 -9 103 -41t28 -86z
M170 -125q50 0 73.5 14t23.5 36q0 21 -14 27.5t-70 14.5q-12 2 -19 3q-14 2 -38 8q-32 -25 -32 -54q0 -21 18.5 -35t57.5 -14z" />
    <glyph glyph-name="Gcommaaccent" unicode="&#x122;" horiz-adv-x="575" 
d="M507 24q-38 -18 -99 -30.5t-112 -12.5q-137 0 -210.5 75t-73.5 220q0 60 20.5 121t60.5 115t107 87.5t151 33.5q56 0 113.5 -10t85.5 -28l-36 -145q-94 39 -183 39q-69 0 -103.5 -51t-34.5 -163q0 -78 39 -117.5t97 -39.5q21 0 30 1l12 185h154zM241 -104
q-1 20 26.5 43.5t50.5 23.5t48 -27.5t23 -44.5q-5 -53 -89 -161l-73 30q5 12 26 45.5t22 40.5q0 6 -17.5 23.5t-16.5 26.5z" />
    <glyph glyph-name="gcommaaccent" unicode="&#x123;" horiz-adv-x="410" 
d="M275 550q0 -20 -27 -43t-50 -23t-48 27.5t-23 44.5q5 53 88 160l74 -30q-5 -10 -17 -29.5t-21.5 -35t-9.5 -21.5t17.5 -23t16.5 -27zM218 247q14 0 23 15t9 36q0 37 -8 55t-35 18q-23 0 -29.5 -14t-6.5 -38q0 -37 9.5 -54.5t37.5 -17.5zM405 -24q0 -85 -82 -153t-192 -68
q-91 0 -136 31.5t-45 82.5q0 41 24 73.5t87 66.5q-35 28 -33 68q-1 18 15.5 43t44.5 46q-71 32 -71 129q0 79 64.5 126.5t154.5 47.5q34 0 62 -6l83 122l85 -85l-11 -26l-82 -51q32 -35 32 -101q0 -72 -60.5 -122t-160.5 -50h-6q-3 -3 -3 -8q0 -11 4.5 -16.5t26.5 -11.5
t68 -11q75 -9 103 -41t28 -86zM170 -125q50 0 73.5 14t23.5 36q0 21 -14 27.5t-70 14.5q-12 2 -19 3q-14 2 -38 8q-32 -25 -32 -54q0 -21 18.5 -35t57.5 -14z" />
    <glyph glyph-name="Hcircumflex" unicode="&#x124;" horiz-adv-x="647" 
d="M416 650l-68 64l-75 -64h-122l124 171h160l105 -171h-124zM381 0l17 236h-165l-17 -236h-179l43 612h179l-16 -229h165l16 229h178l-43 -612h-178z" />
    <glyph glyph-name="hcircumflex" unicode="&#x125;" horiz-adv-x="515" 
d="M285 336q-57 0 -76 -122l-16 -214h-169l49 703l172 23l-64 60l-75 -64h-122l124 171h160l105 -171h-124l-3 3l-25 -345q68 89 145 89q122 0 122 -132q0 -46 -18.5 -184.5t-19.5 -152.5h-169q34 233 34 288q0 48 -30 48z" />
    <glyph glyph-name="Hbar" unicode="&#x126;" horiz-adv-x="625" 
d="M402 383l4 60h-165l-4 -60h165zM375 0l17 236h-165l-17 -236h-179l31 443h-65l2 23l27 85h44l4 61h179l-4 -61h165l4 61h178l-4 -61h61l-2 -24l-27 -84h-40l-31 -443h-178z" />
    <glyph glyph-name="hbar" unicode="&#x127;" horiz-adv-x="534" 
d="M285 336q-57 0 -76 -122l-16 -214h-169l37 535h-54v15l33 67h27l6 86l173 23l-8 -109h140v-15l-33 -67h-113l-11 -155q68 89 145 89q122 0 122 -132q0 -46 -18.5 -184.5t-19.5 -152.5h-169q34 233 34 288q0 48 -30 48z" />
    <glyph glyph-name="Itilde" unicode="&#x128;" horiz-adv-x="294" 
d="M324 820l53 -58q-13 -32 -59.5 -72.5t-76.5 -40.5q-19 0 -69.5 16.5t-62.5 16.5q-17 0 -38.5 -17.5t-26.5 -26.5l-46 70q-2 1 20 25t53 48.5t50 24.5q23 0 69.5 -17.5t59.5 -17.5q25 0 74 49zM259 612l-43 -612h-179l43 612h179z" />
    <glyph glyph-name="itilde" unicode="&#x129;" horiz-adv-x="252" 
d="M289 670l54 -58q-13 -32 -61.5 -72.5t-78.5 -40.5q-19 0 -69 16.5t-62 16.5q-17 0 -40.5 -17.5t-27.5 -26.5l-46 70q-2 1 21 25t54.5 48.5t50.5 24.5q23 0 69 -17.5t59 -17.5q30 0 77 49zM227 469l-33 -469h-168l32 446z" />
    <glyph glyph-name="Imacron" unicode="&#x12a;" horiz-adv-x="294" 
d="M337 785l-1 -15l-36 -101h-271l1 15l36 101h271zM259 612l-43 -612h-179l43 612h179z" />
    <glyph glyph-name="imacron" unicode="&#x12b;" horiz-adv-x="252" 
d="M306 635l-1 -15l-36 -101h-271l1 15l36 101h271zM227 471l-33 -469h-168l32 446z" />
    <glyph glyph-name="Ibreve" unicode="&#x12c;" horiz-adv-x="294" 
d="M174 754q34 0 55.5 17.5t30.5 60.5h97q-6 -83 -65 -133t-132 -50q-79 0 -122.5 48.5t-36.5 134.5h98q3 -78 75 -78zM259 612l-43 -612h-179l43 612h179z" />
    <glyph glyph-name="ibreve" unicode="&#x12d;" horiz-adv-x="252" 
d="M148 604q34 0 55.5 17.5t30.5 60.5h97q-6 -83 -65 -133t-132 -50q-79 0 -122.5 48.5t-36.5 134.5h98q3 -78 75 -78zM227 469l-33 -469h-168l32 446z" />
    <glyph glyph-name="Iogonek" unicode="&#x12e;" horiz-adv-x="294" 
d="M132 0h-95l43 612h179l-43 -612h-1q-104 -69 -110 -119q0 -14 10.5 -23.5t24.5 -9.5q31 0 51 11l18 -71q-16 -8 -47 -17t-51 -9q-52 0 -83.5 27t-27.5 74q3 33 36 70t96 67z" />
    <glyph glyph-name="iogonek" unicode="&#x12f;" horiz-adv-x="252" 
d="M50 587q0 26 33.5 62t63.5 36q26 0 61.5 -26.5t35.5 -51.5q0 -28 -33.5 -63t-62.5 -35q-27 0 -62.5 26t-35.5 52zM109 0h-85l32 446l169 23l-33 -469q-104 -69 -110 -119q0 -14 10.5 -23.5t24.5 -9.5q31 0 51 11l18 -71q-16 -8 -47 -17t-51 -9q-52 0 -83.5 27t-27.5 74
q3 33 36 70t96 67z" />
    <glyph glyph-name="Idotaccent" unicode="&#x130;" horiz-adv-x="294" 
d="M73 747q2 27 38.5 64t62.5 37t63 -31t36 -57q-2 -26 -39 -63t-62 -37q-27 0 -63.5 30.5t-35.5 56.5zM259 612l-43 -612h-179l43 612h179z" />
    <glyph glyph-name="dotlessi" unicode="&#x131;" horiz-adv-x="276" 
d="M249 469l-33 -469h-168l32 446z" />
    <glyph glyph-name="IJ" unicode="&#x132;" horiz-adv-x="660" 
d="M259 612l-43 -612h-179l43 612h179zM623 612l-30 -436q-6 -87 -69.5 -141t-150.5 -54q-72 0 -116 22l39 144q26 -18 62 -18q26 0 41 16t18 58l28 409h178z" />
    <glyph glyph-name="ij" unicode="&#x133;" horiz-adv-x="485" 
d="M282 587q0 26 33 62t63 36q26 0 62 -26.5t36 -51.5q0 -28 -34 -63t-63 -35q-27 0 -62 26t-35 52zM50 587q0 26 33.5 62t63.5 36q26 0 61.5 -26.5t35.5 -51.5q0 -28 -33.5 -63t-62.5 -35q-27 0 -62.5 26t-35.5 52zM56 446l169 23l-33 -469h-168zM138 -230l-15 148
q16 -5 56 -5q29 0 50 18.5t25 61.5l33 452l169 22l-32 -454q-20 -246 -286 -243z" />
    <glyph glyph-name="Jcircumflex" unicode="&#x134;" horiz-adv-x="377" 
d="M308 650l-68 64l-75 -64h-122l124 171h160l105 -171h-124zM331 612l-30 -436q-6 -87 -69.5 -141t-150.5 -54q-72 0 -116 22l39 144q26 -18 62 -18q26 0 41 16t18 58l28 409h178z" />
    <glyph glyph-name="jcircumflex" unicode="&#x135;" horiz-adv-x="235" 
d="M207 500l-68 64l-75 -64h-122l124 171h160l105 -171h-124zM-100 -230l-15 148q16 -5 56 -5q29 0 50 18.5t25 61.5l33 452l169 22l-32 -454q-20 -246 -286 -243z" />
    <glyph glyph-name="Kcommaaccent" unicode="&#x136;" horiz-adv-x="613" 
d="M396 0l-158 323l-23 -323h-178l43 612h178l-20 -278l198 278h197l-217 -283l185 -329h-205zM220 -104q-1 20 26.5 43.5t50.5 23.5t48 -27.5t23 -44.5q-5 -53 -89 -161l-73 30q5 12 26 45.5t22 40.5q0 6 -17.5 23.5t-16.5 26.5z" />
    <glyph glyph-name="kcommaaccent" unicode="&#x137;" horiz-adv-x="506" 
d="M24 0l51 709l169 14l-52 -723h-168zM336 -12q-43 61 -126 258q30 33 68.5 91t64.5 113h170q-13 -39 -54 -99.5t-88 -110.5q94 -166 137 -215zM173 -104q-1 20 26.5 43.5t50.5 23.5t48 -27.5t23 -44.5q-5 -53 -89 -161l-73 30q5 12 26 45.5t22 40.5q0 6 -17.5 23.5
t-16.5 26.5z" />
    <glyph glyph-name="Lacute" unicode="&#x139;" horiz-adv-x="486" 
d="M78 650l139 171l170 -30l-168 -141h-141zM37 0l43 612h179l-33 -471l244 3l-32 -144h-401z" />
    <glyph glyph-name="lacute" unicode="&#x13a;" horiz-adv-x="285" 
d="M82 756l139 171l170 -30l-168 -141h-141zM267 139l20 -110q-92 -48 -154 -48q-107 0 -107 112q0 44 7.5 130.5t21 229.5t21.5 251l169 23q-10 -131 -22.5 -268t-18.5 -205.5t-6 -97.5q0 -10 5.5 -20t16.5 -10t47 13z" />
    <glyph glyph-name="Lcommaaccent" unicode="&#x13b;" horiz-adv-x="486" 
d="M37 0l43 612h179l-33 -471l244 3l-32 -144h-401zM181 -104q-1 20 26.5 43.5t50.5 23.5t48 -27.5t23 -44.5q-5 -53 -89 -161l-73 30q5 12 26 45.5t22 40.5q0 6 -17.5 23.5t-16.5 26.5z" />
    <glyph glyph-name="lcommaaccent" unicode="&#x13c;" horiz-adv-x="285" 
d="M267 139l20 -110q-92 -48 -154 -48q-107 0 -107 112q0 44 7.5 130.5t21 229.5t21.5 251l169 23q-10 -131 -22.5 -268t-18.5 -205.5t-6 -97.5q0 -10 5.5 -20t16.5 -10t47 13zM60 -104q-1 20 26.5 43.5t50.5 23.5t48 -27.5t23 -44.5q-5 -53 -89 -161l-73 30q5 12 26 45.5
t22 40.5q0 6 -17.5 23.5t-16.5 26.5z" />
    <glyph glyph-name="Lcaron" unicode="&#x13d;" horiz-adv-x="478" 
d="M331 641q1 20 33 37t57 17q23 0 36.5 -20.5t16.5 -43.5t2 -49q-4 -62 -114 -202l-66 33q40 68 44 136q1 20 -4 49t-5 43zM37 0l43 612h179l-33 -471l244 3l-32 -144h-401z" />
    <glyph glyph-name="lcaron" unicode="&#x13e;" horiz-adv-x="407" 
d="M267 139l20 -110q-92 -48 -154 -48q-107 0 -107 112q0 44 7.5 130.5t21 229.5t21.5 251l169 23q-10 -131 -22.5 -268t-18.5 -205.5t-6 -97.5q0 -10 5.5 -20t16.5 -10t47 13zM280 641q1 20 33 37t57 17q23 0 36.5 -20.5t16.5 -43.5t2 -49q-4 -62 -114 -202l-66 33
q40 68 44 136q1 20 -4 49t-5 43z" />
    <glyph glyph-name="Ldot" unicode="&#x13f;" horiz-adv-x="486" 
d="M299 364q2 27 38.5 64t62.5 37t63 -31t36 -57q-2 -26 -39 -63t-62 -37q-27 0 -63.5 30.5t-35.5 56.5zM37 0l43 612h179l-33 -471l244 3l-32 -144h-401z" />
    <glyph glyph-name="ldot" unicode="&#x140;" horiz-adv-x="397" 
d="M267 139l20 -110q-92 -48 -154 -48q-107 0 -107 112q0 44 7.5 130.5t21 229.5t21.5 251l169 23q-10 -131 -22.5 -268t-18.5 -205.5t-6 -97.5q0 -10 5.5 -20t16.5 -10t47 13zM223 283q2 27 38.5 64t62.5 37t63 -31t36 -57q-2 -26 -39 -63t-62 -37q-27 0 -63.5 30.5
t-35.5 56.5z" />
    <glyph glyph-name="Lslash" unicode="&#x141;" horiz-adv-x="469" 
d="M43 0l16 221l-52 -22l7 119l53 23l19 271h179l-13 -191l102 44l-7 -119l-104 -45l-11 -160l244 3l-32 -144h-401z" />
    <glyph glyph-name="lslash" unicode="&#x142;" horiz-adv-x="298" 
d="M133 -19q-107 0 -107 112q0 36 9 157l-43 -18l7 123l48 20q16 173 29 329l169 23q-5 -72 -24 -281l71 29l-7 -123l-75 -31q-12 -137 -12 -165q0 -10 5.5 -20t16.5 -10t47 13l20 -110q-92 -48 -154 -48z" />
    <glyph glyph-name="Nacute" unicode="&#x143;" horiz-adv-x="637" 
d="M253 650l139 171l170 -30l-168 -141h-141zM398 0l-173 332l-24 -332h-164l45 612h176l159 -330l18 330h164l-41 -612h-160z" />
    <glyph glyph-name="nacute" unicode="&#x144;" horiz-adv-x="514" 
d="M187 500l139 171l170 -30l-168 -141h-141zM285 336q-63 0 -80 -147l-12 -189h-169l31 446l156 23l6 -94q70 94 149 94q122 0 122 -132q0 -46 -18.5 -184.5t-19.5 -152.5h-169q34 233 34 288q0 48 -30 48z" />
    <glyph glyph-name="Ncommaaccent" unicode="&#x145;" horiz-adv-x="637" 
d="M398 0l-173 332l-24 -332h-164l45 612h176l159 -330l18 330h164l-41 -612h-160zM226 -104q-1 20 26.5 43.5t50.5 23.5t48 -27.5t23 -44.5q-5 -53 -89 -161l-73 30q5 12 26 45.5t22 40.5q0 6 -17.5 23.5t-16.5 26.5z" />
    <glyph glyph-name="ncommaaccent" unicode="&#x146;" horiz-adv-x="514" 
d="M285 336q-63 0 -80 -147l-12 -189h-169l31 446l156 23l6 -94q70 94 149 94q122 0 122 -132q0 -46 -18.5 -184.5t-19.5 -152.5h-169q34 233 34 288q0 48 -30 48zM151 -104q-1 20 26.5 43.5t50.5 23.5t48 -27.5t23 -44.5q-5 -53 -89 -161l-73 30q5 12 26 45.5t22 40.5
q0 6 -17.5 23.5t-16.5 26.5z" />
    <glyph glyph-name="Ncaron" unicode="&#x147;" horiz-adv-x="637" 
d="M431 656h-160l-105 171h124l68 -63l75 63h121zM398 0l-173 332l-24 -332h-164l45 612h176l159 -330l18 330h164l-41 -612h-160z" />
    <glyph glyph-name="ncaron" unicode="&#x148;" horiz-adv-x="514" 
d="M366 506h-160l-105 171h124l68 -63l75 63h121zM285 336q-63 0 -80 -147l-12 -189h-169l31 446l156 23l6 -94q70 94 149 94q122 0 122 -132q0 -46 -18.5 -184.5t-19.5 -152.5h-169q34 233 34 288q0 48 -30 48z" />
    <glyph glyph-name="Eng" unicode="&#x14a;" horiz-adv-x="637" 
d="M357 -180q-69 0 -110 20l29 134q29 -21 80 -21q17 0 33 12t19 35h-10l-173 332l-24 -332h-164l45 612h176l159 -330l18 330h164l-41 -612q-10 -83 -66 -131.5t-135 -48.5z" />
    <glyph glyph-name="eng" unicode="&#x14b;" horiz-adv-x="516" 
d="M448 -26q-42 -207 -282 -204l-16 148q18 -5 56 -5q28 0 49 16t27 50q6 33 19.5 153t13.5 156q0 48 -30 48q-63 0 -80 -147l-12 -189h-169l31 446l156 23l6 -94q70 94 149 94q122 0 122 -132q0 -47 -15.5 -177.5t-24.5 -185.5z" />
    <glyph glyph-name="Omacron" unicode="&#x14c;" horiz-adv-x="629" 
d="M489 785l-1 -15l-36 -101h-271l1 15l36 101h271zM605 354q0 -166 -92.5 -269.5t-234.5 -103.5q-125 0 -195.5 76t-70.5 201q0 166 92.5 269.5t234.5 103.5q126 0 196 -76t70 -201zM307 118q53 0 83.5 49.5t30.5 174.5q0 67 -31 109.5t-83 42.5q-54 0 -82.5 -49
t-28.5 -175q0 -71 29.5 -111.5t81.5 -40.5z" />
    <glyph glyph-name="omacron" unicode="&#x14d;" horiz-adv-x="468" 
d="M421 635l-1 -15l-36 -101h-271l1 15l36 101h271zM454 258q0 -71 -26.5 -132.5t-85 -103t-138.5 -41.5q-83 0 -136.5 51.5t-53.5 159.5q0 71 27 132.5t85.5 103t137.5 41.5q190 0 190 -211zM237 87q45 0 45 179q0 53 -11 75t-39 22q-46 0 -46 -179q0 -58 10 -77.5
t41 -19.5z" />
    <glyph glyph-name="Obreve" unicode="&#x14e;" horiz-adv-x="629" 
d="M330 754q34 0 55.5 17.5t30.5 60.5h97q-6 -83 -65 -133t-132 -50q-79 0 -122.5 48.5t-36.5 134.5h98q3 -78 75 -78zM605 354q0 -166 -92.5 -269.5t-234.5 -103.5q-125 0 -195.5 76t-70.5 201q0 166 92.5 269.5t234.5 103.5q126 0 196 -76t70 -201zM307 118
q53 0 83.5 49.5t30.5 174.5q0 67 -31 109.5t-83 42.5q-54 0 -82.5 -49t-28.5 -175q0 -71 29.5 -111.5t81.5 -40.5z" />
    <glyph glyph-name="obreve" unicode="&#x14f;" horiz-adv-x="468" 
d="M269 604q34 0 55.5 17.5t30.5 60.5h97q-6 -83 -65 -133t-132 -50q-79 0 -122.5 48.5t-36.5 134.5h98q3 -78 75 -78zM454 258q0 -71 -26.5 -132.5t-85 -103t-138.5 -41.5q-83 0 -136.5 51.5t-53.5 159.5q0 71 27 132.5t85.5 103t137.5 41.5q190 0 190 -211zM237 87
q45 0 45 179q0 53 -11 75t-39 22q-46 0 -46 -179q0 -58 10 -77.5t41 -19.5z" />
    <glyph glyph-name="Ohungarumlaut" unicode="&#x150;" horiz-adv-x="629" 
d="M307 650l94 137l-142 -137h-142l117 171l170 -30l20 30l171 -30l-146 -141h-142zM605 354q0 -166 -92.5 -269.5t-234.5 -103.5q-125 0 -195.5 76t-70.5 201q0 166 92.5 269.5t234.5 103.5q126 0 196 -76t70 -201zM307 118q53 0 83.5 49.5t30.5 174.5q0 67 -31 109.5
t-83 42.5q-54 0 -82.5 -49t-28.5 -175q0 -71 29.5 -111.5t81.5 -40.5z" />
    <glyph glyph-name="ohungarumlaut" unicode="&#x151;" horiz-adv-x="468" 
d="M258 500l94 137l-142 -137h-142l117 171l170 -30l20 30l171 -30l-146 -141h-142zM454 258q0 -71 -26.5 -132.5t-85 -103t-138.5 -41.5q-83 0 -136.5 51.5t-53.5 159.5q0 71 27 132.5t85.5 103t137.5 41.5q190 0 190 -211zM237 87q45 0 45 179q0 53 -11 75t-39 22
q-46 0 -46 -179q0 -58 10 -77.5t41 -19.5z" />
    <glyph glyph-name="OE" unicode="&#x152;" horiz-adv-x="835" 
d="M310 118q40 0 66 25l21 305q-35 46 -102 46q-99 0 -99 -224q0 -152 114 -152zM767 0h-388q-51 -19 -114 -19q-103 0 -178 72.5t-75 196.5q0 51 10 101.5t34 102t60 90t93 63t128 24.5q45 0 89 -19h391l-31 -132l-207 3l-8 -107h207l-31 -132l-184 6l-9 -116l243 3z" />
    <glyph glyph-name="oe" unicode="&#x153;" horiz-adv-x="689" 
d="M466 -19q-78 0 -125 40q-59 -40 -137 -40q-83 0 -136.5 51.5t-53.5 159.5q0 71 27 132.5t85.5 103t137.5 41.5q82 0 129 -40q60 40 134 40q71 0 111.5 -35t40.5 -89q0 -66 -63.5 -115t-161.5 -62q6 -40 23 -52.5t43 -12.5q45 0 108 46l37 -96q-96 -72 -199 -72zM454 258
v-3q72 16 72 73q0 36 -26 36q-38 0 -49 -57q3 -22 3 -49zM237 87q45 0 45 179q0 53 -11 75t-39 22q-46 0 -46 -179q0 -58 10 -77.5t41 -19.5z" />
    <glyph glyph-name="Racute" unicode="&#x154;" horiz-adv-x="563" 
d="M173 650l139 171l170 -30l-168 -141h-141zM270 494h-22l-10 -150h30q86 0 86 76q0 34 -24 54t-60 20zM270 214h-40l-14 -214h-179l41 612h231q109 0 167.5 -46.5t58.5 -130.5q0 -54 -26 -101t-74 -77l125 -257h-193l-90 214h-7z" />
    <glyph glyph-name="racute" unicode="&#x155;" horiz-adv-x="355" 
d="M102 500l139 171l170 -30l-168 -141h-141zM306 300q-47 0 -68 -23t-30 -78l-15 -199h-169l33 446l154 23l5 -123q24 60 62.5 91.5t72.5 31.5q24 0 36 -4l-33 -173q-17 8 -48 8z" />
    <glyph glyph-name="Rcommaaccent" unicode="&#x156;" horiz-adv-x="563" 
d="M270 494h-22l-10 -150h30q86 0 86 76q0 34 -24 54t-60 20zM270 214h-40l-14 -214h-179l41 612h231q109 0 167.5 -46.5t58.5 -130.5q0 -54 -26 -101t-74 -77l125 -257h-193l-90 214h-7zM193 -104q-1 20 26.5 43.5t50.5 23.5t48 -27.5t23 -44.5q-5 -53 -89 -161l-73 30
q5 12 26 45.5t22 40.5q0 6 -17.5 23.5t-16.5 26.5z" />
    <glyph glyph-name="rcommaaccent" unicode="&#x157;" horiz-adv-x="355" 
d="M306 300q-47 0 -68 -23t-30 -78l-15 -199h-169l33 446l154 23l5 -123q24 60 62.5 91.5t72.5 31.5q24 0 36 -4l-33 -173q-17 8 -48 8zM27 -104q-1 20 26.5 43.5t50.5 23.5t48 -27.5t23 -44.5q-5 -53 -89 -161l-73 30q5 12 26 45.5t22 40.5q0 6 -17.5 23.5t-16.5 26.5z" />
    <glyph glyph-name="Rcaron" unicode="&#x158;" horiz-adv-x="563" 
d="M377 656h-160l-105 171h124l68 -63l75 63h121zM270 494h-22l-10 -150h30q86 0 86 76q0 34 -24 54t-60 20zM270 214h-40l-14 -214h-179l41 612h231q109 0 167.5 -46.5t58.5 -130.5q0 -54 -26 -101t-74 -77l125 -257h-193l-90 214h-7z" />
    <glyph glyph-name="rcaron" unicode="&#x159;" horiz-adv-x="355" 
d="M307 506h-160l-105 171h124l68 -63l75 63h121zM306 300q-47 0 -68 -23t-30 -78l-15 -199h-169l33 446l154 23l5 -123q24 60 62.5 91.5t72.5 31.5q24 0 36 -4l-33 -173q-17 8 -48 8z" />
    <glyph glyph-name="Sacute" unicode="&#x15a;" horiz-adv-x="502" 
d="M176 650l139 171l170 -30l-168 -141h-141zM233 220l-88 43q-47 23 -72.5 65.5t-25.5 90.5q0 93 69 152.5t170 59.5q95 0 201 -37l-39 -153q-22 13 -79.5 32.5t-90.5 19.5q-59 0 -59 -39q0 -36 50 -61l92 -46q105 -51 105 -164q0 -86 -74.5 -144t-182.5 -58
q-101 0 -198 35l36 150q108 -53 193 -55q45 5 45 46q0 35 -52 63z" />
    <glyph glyph-name="sacute" unicode="&#x15b;" horiz-adv-x="383" 
d="M93 500l139 171l170 -30l-168 -141h-141zM154 -19q-90 0 -157 38l43 128q70 -47 130 -47q9 0 19.5 5.5t10.5 16.5q0 7 -7 12t-26 15q-5 3 -8 4l-53 29q-41 24 -60 55t-19 79q0 65 52.5 109t144.5 44q85 0 149 -31l-38 -118q-63 39 -121 39q-29 0 -29 -23q0 -13 51 -36
l42 -20q44 -24 63.5 -52t19.5 -78q0 -64 -52.5 -116.5t-154.5 -52.5z" />
    <glyph glyph-name="Scircumflex" unicode="&#x15c;" horiz-adv-x="502" 
d="M354 650l-68 64l-75 -64h-122l124 171h160l105 -171h-124zM233 220l-88 43q-47 23 -72.5 65.5t-25.5 90.5q0 93 69 152.5t170 59.5q95 0 201 -37l-39 -153q-22 13 -79.5 32.5t-90.5 19.5q-59 0 -59 -39q0 -36 50 -61l92 -46q105 -51 105 -164q0 -86 -74.5 -144
t-182.5 -58q-101 0 -198 35l36 150q108 -53 193 -55q45 5 45 46q0 35 -52 63z" />
    <glyph glyph-name="scircumflex" unicode="&#x15d;" horiz-adv-x="383" 
d="M291 500l-68 64l-75 -64h-122l124 171h160l105 -171h-124zM154 -19q-90 0 -157 38l43 128q70 -47 130 -47q9 0 19.5 5.5t10.5 16.5q0 7 -7 12t-26 15q-5 3 -8 4l-53 29q-41 24 -60 55t-19 79q0 65 52.5 109t144.5 44q85 0 149 -31l-38 -118q-63 39 -121 39q-29 0 -29 -23
q0 -13 51 -36l42 -20q44 -24 63.5 -52t19.5 -78q0 -64 -52.5 -116.5t-154.5 -52.5z" />
    <glyph glyph-name="Scedilla" unicode="&#x15e;" horiz-adv-x="502" 
d="M125 -241l-15 65q97 9 99 34q2 23 -69 37l-2 5l46 82q-92 4 -173 34l36 150q108 -53 193 -55q45 5 45 46q0 35 -52 63l-88 43q-47 23 -72.5 65.5t-25.5 90.5q0 93 69 152.5t170 59.5q95 0 201 -37l-39 -153q-22 13 -79.5 32.5t-90.5 19.5q-59 0 -59 -39q0 -36 50 -61
l92 -46q105 -51 105 -164q0 -77 -61 -132.5t-154 -66.5l-15 -34q85 -28 81 -78q-3 -41 -51.5 -75t-140.5 -38z" />
    <glyph glyph-name="scedilla" unicode="&#x15f;" horiz-adv-x="383" 
d="M47 -241l-15 65q97 9 99 34q2 23 -69 37l-2 5l47 84q-69 11 -110 35l43 128q70 -47 130 -47q9 0 19.5 5.5t10.5 16.5q0 7 -7 12t-26 15q-5 3 -8 4l-53 29q-41 24 -60 55t-19 79q0 65 52.5 109t144.5 44q85 0 149 -31l-38 -118q-63 39 -121 39q-29 0 -29 -23q0 -13 51 -36
l42 -20q44 -24 63.5 -52t19.5 -78q0 -61 -48 -112t-141 -56l-14 -32q85 -28 81 -78q-3 -41 -51.5 -75t-140.5 -38z" />
    <glyph glyph-name="Scaron" unicode="&#x160;" horiz-adv-x="502" 
d="M348 656h-160l-105 171h124l68 -63l75 63h121zM233 220l-88 43q-47 23 -72.5 65.5t-25.5 90.5q0 93 69 152.5t170 59.5q95 0 201 -37l-39 -153q-22 13 -79.5 32.5t-90.5 19.5q-59 0 -59 -39q0 -36 50 -61l92 -46q105 -51 105 -164q0 -86 -74.5 -144t-182.5 -58
q-101 0 -198 35l36 150q108 -53 193 -55q45 5 45 46q0 35 -52 63z" />
    <glyph glyph-name="scaron" unicode="&#x161;" horiz-adv-x="383" 
d="M295 506h-160l-105 171h124l68 -63l75 63h121zM154 -19q-90 0 -157 38l43 128q70 -47 130 -47q9 0 19.5 5.5t10.5 16.5q0 7 -7 12t-26 15q-5 3 -8 4l-53 29q-41 24 -60 55t-19 79q0 65 52.5 109t144.5 44q85 0 149 -31l-38 -118q-63 39 -121 39q-29 0 -29 -23
q0 -13 51 -36l42 -20q44 -24 63.5 -52t19.5 -78q0 -64 -52.5 -116.5t-154.5 -52.5z" />
    <glyph glyph-name="Tcommaaccent" unicode="&#x162;" horiz-adv-x="502" 
d="M498 471l-144 2l-33 -473h-178l32 474l-169 -3l30 141h492zM148 -104q-1 20 26.5 43.5t50.5 23.5t48 -27.5t23 -44.5q-5 -53 -89 -161l-73 30q5 12 26 45.5t22 40.5q0 6 -17.5 23.5t-16.5 26.5z" />
    <glyph glyph-name="tcommaaccent" unicode="&#x163;" horiz-adv-x="339" 
d="M335 41q-84 -60 -173 -60q-56 0 -94 34.5t-38 104.5q0 28 24 222h-59l8 98l64 10q9 90 10 96l169 23q-2 -15 -7 -57t-7 -62h120l-15 -108h-117q-6 -63 -13 -136l-3 -30q0 -23 11 -36t31 -13q30 0 60 20zM69 -104q-1 20 26.5 43.5t50.5 23.5t48 -27.5t23 -44.5
q-5 -53 -89 -161l-73 30q5 12 26 45.5t22 40.5q0 6 -17.5 23.5t-16.5 26.5z" />
    <glyph glyph-name="Tcaron" unicode="&#x164;" horiz-adv-x="502" 
d="M347 656h-160l-105 171h124l68 -63l75 63h121zM498 471l-144 2l-33 -473h-178l32 474l-169 -3l30 141h492z" />
    <glyph glyph-name="tcaron" unicode="&#x165;" horiz-adv-x="339" 
d="M304 764q1 20 33 37t57 17q23 0 36.5 -20.5t16.5 -43.5t2 -49q-4 -62 -114 -202l-66 33q40 68 44 136q1 20 -4 49t-5 43zM335 41q-84 -60 -173 -60q-56 0 -94 34.5t-38 104.5q0 28 24 222h-59l8 98l64 10q9 90 10 96l169 23q-2 -15 -7 -57t-7 -62h120l-15 -108h-117
q-6 -63 -13 -136l-3 -30q0 -23 11 -36t31 -13q30 0 60 20z" />
    <glyph glyph-name="Tbar" unicode="&#x166;" horiz-adv-x="502" 
d="M432 249h-94l-17 -249h-178l17 249h-116v24l29 93h95l7 108l-169 -3l30 141h492l-30 -141l-144 2l-8 -107h115v-24z" />
    <glyph glyph-name="tbar" unicode="&#x167;" horiz-adv-x="339" 
d="M335 41q-84 -60 -173 -60q-56 0 -94 34.5t-38 104.5q0 25 5 73h-48v15l31 74h28q1 7 8 60h-59l8 98l64 10q9 90 10 96l169 23q-2 -15 -7 -57t-7 -62h120l-15 -108h-117q-3 -33 -6 -60h100v-15l-31 -74h-77l-2 -17q0 -23 11 -36t31 -13q30 0 60 20z" />
    <glyph glyph-name="Utilde" unicode="&#x168;" horiz-adv-x="643" 
d="M488 820l54 -58q-13 -32 -61.5 -72.5t-78.5 -40.5q-19 0 -69 16.5t-62 16.5q-17 0 -40.5 -17.5t-27.5 -26.5l-46 70q-2 1 21 25t54.5 48.5t50.5 24.5q23 0 69 -17.5t59 -17.5q30 0 77 49zM79 612h179q-30 -376 -30 -404q0 -49 27 -71t64 -22q74 0 80 97l29 400h171
l-27 -379q-8 -118 -80 -185t-204 -67q-111 0 -173.5 52t-62.5 148q0 60 27 431z" />
    <glyph glyph-name="utilde" unicode="&#x169;" horiz-adv-x="518" 
d="M429 670l54 -58q-13 -32 -61.5 -72.5t-78.5 -40.5q-19 0 -69 16.5t-62 16.5q-17 0 -40.5 -17.5t-27.5 -26.5l-46 70q-2 1 21 25t54.5 48.5t50.5 24.5q23 0 69 -17.5t59 -17.5q30 0 77 49zM304 -19l-8 93q-70 -93 -150 -93q-122 0 -122 132q0 46 17 182t18 149l172 26
q-34 -272 -34 -306q0 -21 9.5 -35.5t23.5 -14.5q60 0 78 124l15 208l171 23l-33 -469z" />
    <glyph glyph-name="Umacron" unicode="&#x16a;" horiz-adv-x="643" 
d="M495 785l-1 -15l-36 -101h-271l1 15l36 101h271zM79 612h179q-30 -376 -30 -404q0 -49 27 -71t64 -22q74 0 80 97l29 400h171l-27 -379q-8 -118 -80 -185t-204 -67q-111 0 -173.5 52t-62.5 148q0 60 27 431z" />
    <glyph glyph-name="umacron" unicode="&#x16b;" horiz-adv-x="518" 
d="M441 635l-1 -15l-36 -101h-271l1 15l36 101h271zM304 -19l-8 93q-70 -93 -150 -93q-122 0 -122 132q0 46 17 182t18 149l172 26q-34 -272 -34 -306q0 -21 9.5 -35.5t23.5 -14.5q60 0 78 124l15 208l171 23l-33 -469z" />
    <glyph glyph-name="Ubreve" unicode="&#x16c;" horiz-adv-x="643" 
d="M348 754q34 0 55.5 17.5t30.5 60.5h97q-6 -83 -65 -133t-132 -50q-79 0 -122.5 48.5t-36.5 134.5h98q3 -78 75 -78zM79 612h179q-30 -376 -30 -404q0 -49 27 -71t64 -22q74 0 80 97l29 400h171l-27 -379q-8 -118 -80 -185t-204 -67q-111 0 -173.5 52t-62.5 148
q0 60 27 431z" />
    <glyph glyph-name="ubreve" unicode="&#x16d;" horiz-adv-x="518" 
d="M300 604q34 0 55.5 17.5t30.5 60.5h97q-6 -83 -65 -133t-132 -50q-79 0 -122.5 48.5t-36.5 134.5h98q3 -78 75 -78zM304 -19l-8 93q-70 -93 -150 -93q-122 0 -122 132q0 46 17 182t18 149l172 26q-34 -272 -34 -306q0 -21 9.5 -35.5t23.5 -14.5q60 0 78 124l15 208
l171 23l-33 -469z" />
    <glyph glyph-name="Uring" unicode="&#x16e;" horiz-adv-x="643" 
d="M462 742q-4 -43 -39 -74.5t-80 -31.5q-47 0 -76 28.5t-26 77.5q4 44 39 76t80 32q48 0 76.5 -28.5t25.5 -79.5zM310 742q-2 -17 9 -29t29 -12t30.5 12t14.5 29q1 19 -10 31t-29 12t-30 -12t-14 -31zM79 612h179q-30 -376 -30 -404q0 -49 27 -71t64 -22q74 0 80 97l29 400
h171l-27 -379q-8 -118 -80 -185t-204 -67q-111 0 -173.5 52t-62.5 148q0 60 27 431z" />
    <glyph glyph-name="uring" unicode="&#x16f;" horiz-adv-x="518" 
d="M409 592q-4 -43 -39 -74.5t-80 -31.5q-48 0 -76.5 28.5t-25.5 77.5q4 44 39 76t80 32q48 0 76.5 -28.5t25.5 -79.5zM257 592q-2 -17 9 -29t29 -12t30.5 12t14.5 29q1 19 -10 31t-29 12t-30 -12t-14 -31zM304 -19l-8 93q-70 -93 -150 -93q-122 0 -122 132q0 46 17 182
t18 149l172 26q-34 -272 -34 -306q0 -21 9.5 -35.5t23.5 -14.5q60 0 78 124l15 208l171 23l-33 -469z" />
    <glyph glyph-name="Uhungarumlaut" unicode="&#x170;" horiz-adv-x="643" 
d="M348 650l94 137l-142 -137h-142l117 171l170 -30l20 30l171 -30l-146 -141h-142zM79 612h179q-30 -376 -30 -404q0 -49 27 -71t64 -22q74 0 80 97l29 400h171l-27 -379q-8 -118 -80 -185t-204 -67q-111 0 -173.5 52t-62.5 148q0 60 27 431z" />
    <glyph glyph-name="uhungarumlaut" unicode="&#x171;" horiz-adv-x="518" 
d="M278 500l94 137l-142 -137h-142l117 171l170 -30l20 30l171 -30l-146 -141h-142zM304 -19l-8 93q-70 -93 -150 -93q-122 0 -122 132q0 46 17 182t18 149l172 26q-34 -272 -34 -306q0 -21 9.5 -35.5t23.5 -14.5q60 0 78 124l15 208l171 23l-33 -469z" />
    <glyph glyph-name="Uogonek" unicode="&#x172;" horiz-adv-x="643" 
d="M350 -218q-52 0 -83.5 27t-27.5 74q5 51 68 98h-19q-111 0 -173.5 52t-62.5 148q0 60 27 431h179q-30 -376 -30 -404q0 -49 27 -71t64 -22q74 0 80 97l29 400h171l-27 -379q-9 -151 -119 -213q-103 -69 -109 -119q0 -14 10.5 -23.5t24.5 -9.5q31 0 51 11l18 -71
q-16 -8 -47 -17t-51 -9z" />
    <glyph glyph-name="uogonek" unicode="&#x173;" horiz-adv-x="518" 
d="M354 -238q-52 0 -83.5 27t-27.5 74q8 68 106 123l-45 -5l-8 93q-70 -93 -150 -93q-122 0 -122 132q0 46 17 182t18 149l172 26q-34 -272 -34 -306q0 -21 9.5 -35.5t23.5 -14.5q60 0 78 124l15 208l171 23l-33 -469h-4q-103 -69 -109 -119q0 -14 10.5 -23.5t24.5 -9.5
q31 0 51 11l18 -71q-16 -8 -47 -17t-51 -9z" />
    <glyph glyph-name="Wcircumflex" unicode="&#x174;" horiz-adv-x="864" 
d="M518 650l-68 64l-75 -64h-122l124 171h160l105 -171h-124zM489 0l-69 318l-119 -318h-200l-75 612h188l34 -350l122 350h159l75 -355l85 355h163l-161 -612h-202z" />
    <glyph glyph-name="wcircumflex" unicode="&#x175;" horiz-adv-x="686" 
d="M453 500l-68 64l-75 -64h-122l124 171h160l105 -171h-124zM352 0l-15 113q-46 -83 -83 -114l-184 1l-32 441l170 27l10 -330q59 89 84 231l-11 81h166l26 -303q66 136 69 303h160q-15 -217 -169 -450h-191z" />
    <glyph glyph-name="Ycircumflex" unicode="&#x176;" horiz-adv-x="539" 
d="M369 650l-68 64l-75 -64h-122l124 171h160l105 -171h-124zM349 220h-2l-15 -220h-178l15 220h-2l-157 392h188l85 -212l104 212h179z" />
    <glyph glyph-name="ycircumflex" unicode="&#x177;" horiz-adv-x="441" 
d="M318 500l-68 64l-75 -64h-122l124 171h160l105 -171h-124zM-11 -241q-66 0 -96 15l19 140q21 -8 64 -8q98 0 163 86h-81l-48 455l165 21l34 -340q39 106 84 322h161q-4 -42 -13.5 -93.5t-28.5 -119.5t-44.5 -132.5t-63 -128t-82 -111t-105 -77t-128.5 -29.5z" />
    <glyph glyph-name="Ydieresis" unicode="&#x178;" horiz-adv-x="539" 
d="M314 725q1 24 34.5 57.5t57.5 33.5q25 0 57 -28t31 -54q-1 -22 -35.5 -55t-56.5 -33q-25 0 -57 27.5t-31 51.5zM114 725q1 24 34.5 57.5t57.5 33.5q25 0 56.5 -28t30.5 -54q-1 -22 -35.5 -55t-56.5 -33q-25 0 -56.5 27t-30.5 52zM349 220h-2l-15 -220h-178l15 220h-2
l-157 392h188l85 -212l104 212h179z" />
    <glyph glyph-name="Zacute" unicode="&#x179;" horiz-adv-x="542" 
d="M202 650l139 171l170 -30l-168 -141h-141zM483 0h-460l4 107l267 360h-246l23 145h448l-5 -120l-267 -352h260z" />
    <glyph glyph-name="zacute" unicode="&#x17a;" horiz-adv-x="417" 
d="M124 500l139 171l170 -30l-168 -141h-141zM375 0h-373l4 71l187 256l-163 -8l16 131h375l-3 -71l-189 -255l161 8z" />
    <glyph glyph-name="Zdotaccent" unicode="&#x17b;" horiz-adv-x="542" 
d="M199 747q2 27 38.5 64t62.5 37t63 -31t36 -57q-2 -26 -39 -63t-62 -37q-27 0 -63.5 30.5t-35.5 56.5zM483 0h-460l4 107l267 360h-246l23 145h448l-5 -120l-267 -352h260z" />
    <glyph glyph-name="zdotaccent" unicode="&#x17c;" horiz-adv-x="417" 
d="M153 597q2 27 38.5 64t62.5 37t63 -31t36 -57q-2 -26 -39 -63t-62 -37q-27 0 -63.5 30.5t-35.5 56.5zM375 0h-373l4 71l187 256l-163 -8l16 131h375l-3 -71l-189 -255l161 8z" />
    <glyph glyph-name="Zcaron" unicode="&#x17d;" horiz-adv-x="542" 
d="M383 656h-160l-105 171h124l68 -63l75 63h121zM483 0h-460l4 107l267 360h-246l23 145h448l-5 -120l-267 -352h260z" />
    <glyph glyph-name="zcaron" unicode="&#x17e;" horiz-adv-x="417" 
d="M325 506h-160l-105 171h124l68 -63l75 63h121zM375 0h-373l4 71l187 256l-163 -8l16 131h375l-3 -71l-189 -255l161 8z" />
    <glyph glyph-name="Acaron" unicode="&#x1cd;" horiz-adv-x="569" 
d="M404 656h-160l-105 171h124l68 -63l75 63h121zM331 225l-40 226l-78 -226h118zM371 0l-16 93h-188l-32 -93h-172l236 612h235l115 -612h-178z" />
    <glyph glyph-name="acaron" unicode="&#x1ce;" horiz-adv-x="523" 
d="M390 506h-160l-105 171h124l68 -63l75 63h121zM310 -19l-8 79q-77 -79 -153 -79q-61 0 -99 45.5t-38 137.5q0 133 80 219t200 86q124 0 198 -38l-30 -431zM229 101q12 0 23 7.5t23.5 25.5t22 56.5t14.5 92.5v-1l6 65q-14 8 -35 8t-35.5 -6t-28.5 -23.5t-21 -55.5t-7 -97
q0 -72 38 -72z" />
    <glyph glyph-name="AEacute" unicode="&#x1fc;" horiz-adv-x="803" 
d="M368 650l139 171l170 -30l-168 -141h-141zM353 476l-108 -238h106l16 238h-14zM334 0l7 106h-157l-48 -106h-165l300 612h513l-30 -132l-208 3l-8 -107h207l-31 -132l-184 6l-9 -116l243 3l-30 -137h-400z" />
    <glyph glyph-name="aeacute" unicode="&#x1fd;" horiz-adv-x="695" 
d="M292 500l139 171l170 -30l-168 -141h-141zM472 -19q-120 0 -164 91q-67 -88 -147 -88q-81 0 -115 49.5t-34 144.5q0 64 20 116t50 83.5t67 53t68 30t56 8.5q88 0 162 -21q45 21 98 21q71 0 111.5 -35t40.5 -89q0 -66 -63.5 -115t-161.5 -62q6 -40 23 -52.5t43 -12.5
q45 0 108 46l37 -96q-96 -72 -199 -72zM506 364q-54 0 -54 -111q80 16 80 75q0 36 -26 36zM235 101q40 0 51 84q1 97 38 162q-20 4 -59 4q-32 0 -53 -36t-21 -111q0 -64 10 -83.5t34 -19.5z" />
    <glyph glyph-name="Oslashacute" unicode="&#x1fe;" horiz-adv-x="617" 
d="M158 650l139 171l170 -30l-168 -141h-141zM196 270q0 -40 9 -68l125 290q-14 2 -23 2q-54 0 -82.5 -49t-28.5 -175zM307 118q53 0 83.5 49.5t30.5 174.5q0 38 -11 71l-126 -293q14 -2 23 -2zM278 -19q-30 0 -53 4l-29 -68h-114l45 104q-115 71 -115 237t92.5 269.5
t234.5 103.5q26 0 50 -3l28 65h113l-43 -100q57 -34 87.5 -96t30.5 -143q0 -166 -92.5 -269.5t-234.5 -103.5z" />
    <glyph glyph-name="oslashacute" unicode="&#x1ff;" horiz-adv-x="468" 
d="M139 500l139 171l170 -30l-168 -141h-141zM232 363q-28 0 -43 -54.5t-16 -117.5l94 161q-14 11 -35 11zM237 87q27 0 41.5 52t16.5 117l-94 -160q13 -9 36 -9zM204 -19q-34 0 -64 9l-36 -61h-84l56 96q-62 54 -62 167q0 71 27 132.5t85.5 103t137.5 41.5q33 0 67 -8
l36 62h84l-56 -96q59 -53 59 -169q0 -71 -26.5 -132.5t-85 -103t-138.5 -41.5z" />
    <glyph glyph-name="Scommaaccent" unicode="&#x218;" horiz-adv-x="502" 
d="M233 220l-88 43q-47 23 -72.5 65.5t-25.5 90.5q0 93 69 152.5t170 59.5q95 0 201 -37l-39 -153q-22 13 -79.5 32.5t-90.5 19.5q-59 0 -59 -39q0 -36 50 -61l92 -46q105 -51 105 -164q0 -86 -74.5 -144t-182.5 -58q-101 0 -198 35l36 150q108 -53 193 -55q45 5 45 46
q0 35 -52 63zM162 -104q-1 20 26.5 43.5t50.5 23.5t48 -27.5t23 -44.5q-5 -53 -89 -161l-73 30q5 12 26 45.5t22 40.5q0 6 -17.5 23.5t-16.5 26.5z" />
    <glyph glyph-name="scommaaccent" unicode="&#x219;" horiz-adv-x="383" 
d="M154 -19q-90 0 -157 38l43 128q70 -47 130 -47q9 0 19.5 5.5t10.5 16.5q0 7 -7 12t-26 15q-5 3 -8 4l-53 29q-41 24 -60 55t-19 79q0 65 52.5 109t144.5 44q85 0 149 -31l-38 -118q-63 39 -121 39q-29 0 -29 -23q0 -13 51 -36l42 -20q44 -24 63.5 -52t19.5 -78
q0 -64 -52.5 -116.5t-154.5 -52.5zM100 -104q-1 20 26.5 43.5t50.5 23.5t48 -27.5t23 -44.5q-5 -53 -89 -161l-73 30q5 12 26 45.5t22 40.5q0 6 -17.5 23.5t-16.5 26.5z" />
    <glyph glyph-name="uni021A" unicode="&#x21a;" horiz-adv-x="502" 
d="M202 0h-59l32 474l-169 -3l30 141h492l-30 -141l-144 2l-33 -473h-55l-22 -50q85 -28 81 -78q-3 -41 -51.5 -75t-140.5 -38l-15 65q97 9 99 34q2 23 -69 37l-2 5z" />
    <glyph glyph-name="uni021B" unicode="&#x21b;" horiz-adv-x="339" 
d="M265 -128q-3 -41 -51.5 -75t-140.5 -38l-15 65q97 9 99 34q2 23 -69 37l-2 5l47 84q-46 8 -74.5 42t-28.5 94q0 28 24 222h-59l8 98l64 10q9 90 10 96l169 23q-2 -15 -7 -57t-7 -62h120l-15 -108h-117q-6 -63 -13 -136l-3 -30q0 -23 11 -36t31 -13q30 0 60 20l29 -106
q-68 -47 -136 -58l-15 -33q85 -28 81 -78z" />
    <glyph glyph-name="circumflex" unicode="&#x2c6;" horiz-adv-x="484" 
d="M312 500l-68 64l-75 -64h-122l124 171h160l105 -171h-124z" />
    <glyph glyph-name="caron" unicode="&#x2c7;" horiz-adv-x="476" 
d="M308 506h-160l-105 171h124l68 -63l75 63h121z" />
    <glyph glyph-name="breve" unicode="&#x2d8;" horiz-adv-x="491" 
d="M242 604q34 0 55.5 17.5t30.5 60.5h97q-6 -83 -65 -133t-132 -50q-79 0 -122.5 48.5t-36.5 134.5h98q3 -78 75 -78z" />
    <glyph glyph-name="dotaccent" unicode="&#x2d9;" horiz-adv-x="397" 
d="M99 597q2 27 38.5 64t62.5 37t63 -31t36 -57q-2 -26 -39 -63t-62 -37q-27 0 -63.5 30.5t-35.5 56.5z" />
    <glyph glyph-name="ring" unicode="&#x2da;" horiz-adv-x="390" 
d="M305 592q-4 -43 -39 -74.5t-80 -31.5q-48 0 -76.5 28.5t-25.5 77.5q4 44 39 76t80 32q48 0 76.5 -28.5t25.5 -79.5zM153 592q-2 -17 9 -29t29 -12t30.5 12t14.5 29q1 19 -10 31t-29 12t-30 -12t-14 -31z" />
    <glyph glyph-name="ogonek" unicode="&#x2db;" horiz-adv-x="341" 
d="M63 -137q3 33 36 70t96 67h83q-104 -69 -110 -119q0 -14 10.5 -23.5t24.5 -9.5q31 0 51 11l18 -71q-16 -8 -47 -17t-51 -9q-52 0 -83.5 27t-27.5 74z" />
    <glyph glyph-name="tilde" unicode="&#x2dc;" horiz-adv-x="519" 
d="M398 670l54 -58q-13 -32 -61.5 -72.5t-78.5 -40.5q-19 0 -69 16.5t-62 16.5q-17 0 -40.5 -17.5t-27.5 -26.5l-46 70q-2 1 21 25t54.5 48.5t50.5 24.5q23 0 69 -17.5t59 -17.5q30 0 77 49z" />
    <glyph glyph-name="hungarumlaut" unicode="&#x2dd;" horiz-adv-x="512" 
d="M207 500l94 137l-142 -137h-142l117 171l170 -30l20 30l171 -30l-146 -141h-142z" />
    <glyph glyph-name="commaaccent" unicode="&#x326;" horiz-adv-x="260" 
d="M64 -104q-1 20 26.5 43.5t50.5 23.5t48 -27.5t23 -44.5q-5 -53 -89 -161l-73 30q5 12 26 45.5t22 40.5q0 6 -17.5 23.5t-16.5 26.5z" />
    <glyph glyph-name="Wgrave" unicode="&#x1e80;" horiz-adv-x="864" 
d="M550 650h-142l-150 141l173 30zM501 0l-69 318l-119 -318h-200l-75 612h188l34 -350l122 350h159l75 -355l85 355h163l-161 -612h-202z" />
    <glyph glyph-name="wgrave" unicode="&#x1e81;" horiz-adv-x="686" 
d="M475 500h-142l-150 141l173 30zM352 0l-15 113q-46 -83 -83 -114l-184 1l-32 441l170 27l10 -330q59 89 84 231l-11 81h166l26 -303q66 136 69 303h160q-15 -217 -169 -450h-191z" />
    <glyph glyph-name="Wacute" unicode="&#x1e82;" horiz-adv-x="864" 
d="M360 650l139 171l170 -30l-168 -141h-141zM501 0l-69 318l-119 -318h-200l-75 612h188l34 -350l122 350h159l75 -355l85 355h163l-161 -612h-202z" />
    <glyph glyph-name="wacute" unicode="&#x1e83;" horiz-adv-x="686" 
d="M255 500l139 171l170 -30l-168 -141h-141zM352 0l-15 113q-46 -83 -83 -114l-184 1l-32 441l170 27l10 -330q59 89 84 231l-11 81h166l26 -303q66 136 69 303h160q-15 -217 -169 -450h-191z" />
    <glyph glyph-name="Wdieresis" unicode="&#x1e84;" horiz-adv-x="864" 
d="M477 725q1 24 34.5 57.5t57.5 33.5q25 0 57 -28t31 -54q-1 -22 -35.5 -55t-56.5 -33q-25 0 -57 27.5t-31 51.5zM277 725q1 24 34.5 57.5t57.5 33.5q25 0 56.5 -28t30.5 -54q-1 -22 -35.5 -55t-56.5 -33q-25 0 -56.5 27t-30.5 52zM501 0l-69 318l-119 -318h-200l-75 612
h188l34 -350l122 350h159l75 -355l85 355h163l-161 -612h-202z" />
    <glyph glyph-name="wdieresis" unicode="&#x1e85;" horiz-adv-x="686" 
d="M405 575q1 24 34.5 57.5t57.5 33.5q25 0 57 -28t31 -54q-1 -22 -35.5 -55t-56.5 -33q-25 0 -57 27.5t-31 51.5zM205 575q1 24 34.5 57.5t57.5 33.5q25 0 56.5 -28t30.5 -54q-1 -22 -35.5 -55t-56.5 -33q-25 0 -56.5 27t-30.5 52zM352 0l-15 113q-46 -83 -83 -114l-184 1
l-32 441l170 27l10 -330q59 89 84 231l-11 81h166l26 -303q66 136 69 303h160q-15 -217 -169 -450h-191z" />
    <glyph glyph-name="Ygrave" unicode="&#x1ef2;" horiz-adv-x="539" 
d="M404 650h-142l-150 141l173 30zM349 220h-2l-15 -220h-178l15 220h-2l-157 392h188l85 -212l104 212h179z" />
    <glyph glyph-name="ygrave" unicode="&#x1ef3;" horiz-adv-x="441" 
d="M383 500h-142l-150 141l173 30zM-11 -241q-66 0 -96 15l19 140q21 -8 64 -8q98 0 163 86h-81l-48 455l165 21l34 -340q39 106 84 322h161q-4 -42 -13.5 -93.5t-28.5 -119.5t-44.5 -132.5t-63 -128t-82 -111t-105 -77t-128.5 -29.5z" />
    <glyph glyph-name="endash" unicode="&#x2013;" horiz-adv-x="459" 
d="M432 299l-5 -28l-36 -80h-363l4 28l46 80h354z" />
    <glyph glyph-name="emdash" unicode="&#x2014;" horiz-adv-x="683" 
d="M656 299l-5 -28l-36 -80h-587l4 28l46 80h578z" />
    <glyph glyph-name="quoteleft" unicode="&#x2018;" horiz-adv-x="250" 
d="M222 478q-7 -29 -39 -53.5t-60 -24.5q-32 0 -60 32.5t-20 76.5q26 78 144 206l79 -32q-7 -10 -22 -29.5t-20.5 -26.5t-15 -21t-13.5 -22t-8 -18t-5 -20q-1 -8 20.5 -30.5t19.5 -37.5z" />
    <glyph glyph-name="quoteright" unicode="&#x2019;" horiz-adv-x="249" 
d="M63 616q3 29 31.5 53.5t57.5 24.5q32 0 63.5 -32.5t28.5 -76.5q-9 -70 -113 -206l-84 32q4 7 15.5 25.5t15 24t11 18.5t10 19t6.5 16t5.5 18t1.5 16t-25 30t-24 38z" />
    <glyph glyph-name="quotesinglbase" unicode="&#x201a;" horiz-adv-x="250" 
d="M17 84q3 29 31.5 53.5t57.5 24.5q32 0 63.5 -32.5t28.5 -76.5q-9 -70 -113 -206l-84 32q4 7 15.5 25.5t15 24t11 18.5t10 19t6.5 16t5.5 18t1.5 16t-25 30t-24 38z" />
    <glyph glyph-name="quotedblleft" unicode="&#x201c;" horiz-adv-x="427" 
d="M428 478q-3 -29 -31.5 -53.5t-57.5 -24.5q-32 0 -63.5 32.5t-28.5 76.5q9 70 113 206l84 -32q-52 -82 -60 -107q-4 -15 -5 -30q0 -8 25 -30.5t24 -37.5zM222 478q-3 -29 -31.5 -53.5t-56.5 -24.5q-33 0 -64.5 32.5t-28.5 76.5q9 70 113 206l84 -32q-4 -7 -15.5 -25.5
t-15 -24t-11 -18.5t-10 -19t-6.5 -16t-5.5 -18t-1.5 -16t25 -30.5t24 -37.5z" />
    <glyph glyph-name="quotedblright" unicode="&#x201d;" horiz-adv-x="461" 
d="M275 616q3 29 31.5 53.5t57.5 24.5q32 0 63.5 -32.5t28.5 -76.5q-9 -70 -113 -206l-84 32q4 7 15.5 25.5t15 24t11 18.5t10 19t6.5 16t5.5 18t1.5 16t-25 30t-24 38zM63 616q3 29 31.5 53.5t57.5 24.5q32 0 63.5 -32.5t28.5 -76.5q-9 -70 -113 -206l-84 32q4 7 15.5 25.5
t15 24t11 18.5t10 19t6.5 16t5.5 18t1.5 16t-25 30t-24 38z" />
    <glyph glyph-name="quotedblbase" unicode="&#x201e;" horiz-adv-x="463" 
d="M231 84q3 29 31.5 53.5t57.5 24.5q32 0 63.5 -32.5t28.5 -76.5q-9 -70 -113 -206l-84 32q4 7 15.5 25.5t15 24t11 18.5t10 19t6.5 16t5.5 18t1.5 16t-25 30t-24 38zM17 84q3 29 31.5 53.5t57.5 24.5q32 0 63.5 -32.5t28.5 -76.5q-9 -70 -113 -206l-84 32q4 7 15.5 25.5
t15 24t11 18.5t10 19t6.5 16t5.5 18t1.5 16t-25 30t-24 38z" />
    <glyph glyph-name="bullet" unicode="&#x2022;" horiz-adv-x="508" 
d="M95 252q4 45 62 104.5t97 59.5q41 0 101.5 -48.5t58.5 -92.5q-5 -45 -64 -104t-96 -59q-44 0 -103 48t-56 92z" />
    <glyph glyph-name="ellipsis" unicode="&#x2026;" horiz-adv-x="715" 
d="M10 38q2 26 40.5 61.5t65.5 35.5q26 0 64.5 -29.5t37.5 -54.5q-2 -25 -41.5 -60.5t-62.5 -35.5q-28 0 -66.5 29.5t-37.5 53.5zM476 38q2 26 40.5 61.5t64.5 35.5t65 -29.5t38 -54.5q-3 -25 -42 -60.5t-63 -35.5q-27 0 -65.5 29.5t-37.5 53.5zM244 38q2 26 40.5 61.5
t64.5 35.5t64.5 -29.5t37.5 -54.5q-2 -25 -41 -60.5t-63 -35.5q-27 0 -65.5 29.5t-37.5 53.5z" />
    <glyph glyph-name="guilsinglleft" unicode="&#x2039;" horiz-adv-x="332" 
d="M176 2l-164 230l196 230l98 -45l-112 -185l88 -185z" />
    <glyph glyph-name="guilsinglright" unicode="&#x203a;" horiz-adv-x="332" 
d="M156 462l164 -230l-196 -230l-98 43l112 187l-88 182z" />
    <glyph glyph-name="fraction" unicode="&#x2044;" horiz-adv-x="307" 
d="M-81 2l394 653l75 -48l-394 -653z" />
    <glyph glyph-name="Euro" unicode="&#x20ac;" 
d="M494 22q-29 -17 -85 -29t-118 -12q-203 0 -233 200h-80l30 85l46 16q0 3 0.5 7t0.5 6q1 5 1 13t1 13h-64l29 85l41 19h14q61 206 296 206q88 0 166 -24l-39 -143q-85 26 -155 26q-39 0 -59.5 -14.5t-30.5 -50.5h194l-37 -104h-171v-5q-1 -11 -1 -32h165l-36 -103h-111
q28 -54 93 -54q75 0 137 23z" />
    <glyph glyph-name="minus" unicode="&#x2212;" 
d="M452 320l-8 -109h-372l8 109h372z" />
    <glyph glyph-name="idotaccent" horiz-adv-x="234" 
d="M50 587q0 26 33.5 62t63.5 36q26 0 61.5 -26.5t35.5 -51.5q0 -28 -33.5 -63t-62.5 -35q-27 0 -62.5 26t-35.5 52zM56 446l169 23l-33 -469h-168z" />
    <glyph glyph-name="caron.alt" horiz-adv-x="277" 
d="M85 641q1 20 33 37t57 17q23 0 36.5 -20.5t16.5 -43.5t2 -49q-4 -62 -114 -202l-66 33q40 68 44 136q1 20 -4 49t-5 43z" />
    <glyph glyph-name="caron.alt.sc" horiz-adv-x="277" 
d="M85 582q1 20 32.5 36.5t57.5 16.5q23 0 36.5 -20.5t16.5 -43.5t2 -48q-4 -63 -114 -202l-66 33q40 67 44 135q1 21 -4 50t-5 43z" />
    <glyph glyph-name="caron.alt.case" horiz-adv-x="277" 
d="M85 561q1 20 33 37t57 17q23 0 36.5 -20.5t16.5 -43.5t2 -49q-4 -62 -114 -202l-66 33q40 68 44 136q1 20 -4 49t-5 43z" />
    <glyph glyph-name="commaaccent.case" horiz-adv-x="260" 
d="M64 -104q-1 20 26.5 43.5t50.5 23.5t48 -27.5t23 -44.5q-5 -53 -89 -161l-73 30q5 12 26 45.5t22 40.5q0 6 -17.5 23.5t-16.5 26.5z" />
    <glyph glyph-name="acute.case" horiz-adv-x="309" 
d="M0 650l139 171l170 -30l-168 -141h-141z" />
    <glyph glyph-name="grave.case" horiz-adv-x="312" 
d="M302 650h-142l-150 141l173 30z" />
    <glyph glyph-name="hungarumlaut.case" horiz-adv-x="512" 
d="M207 650l94 137l-142 -137h-142l117 171l170 -30l20 30l171 -30l-146 -141h-142z" />
    <glyph glyph-name="circumflex.case" horiz-adv-x="484" 
d="M312 650l-68 64l-75 -64h-122l124 171h160l105 -171h-124z" />
    <glyph glyph-name="caron.case" horiz-adv-x="476" 
d="M308 656h-160l-105 171h124l68 -63l75 63h121z" />
    <glyph glyph-name="breve.case" horiz-adv-x="491" 
d="M242 754q34 0 55.5 17.5t30.5 60.5h97q-6 -83 -65 -133t-132 -50q-79 0 -122.5 48.5t-36.5 134.5h98q3 -78 75 -78z" />
    <glyph glyph-name="tilde.case" horiz-adv-x="519" 
d="M398 820l54 -58q-13 -32 -61.5 -72.5t-78.5 -40.5q-19 0 -69 16.5t-62 16.5q-17 0 -40.5 -17.5t-27.5 -26.5l-46 70q-2 1 21 25t54.5 48.5t50.5 24.5q23 0 69 -17.5t59 -17.5q30 0 77 49z" />
    <glyph glyph-name="macron.case" horiz-adv-x="424" 
d="M365 785l-1 -15l-36 -101h-271l1 15l36 101h271z" />
    <glyph glyph-name="dieresis.case" horiz-adv-x="560" 
d="M291 725q1 24 34.5 57.5t57.5 33.5q25 0 57 -28t31 -54q-1 -22 -35.5 -55t-56.5 -33q-25 0 -57 27.5t-31 51.5zM91 725q1 24 34.5 57.5t57.5 33.5q25 0 56.5 -28t30.5 -54q-1 -22 -35.5 -55t-56.5 -33q-25 0 -56.5 27t-30.5 52z" />
    <glyph glyph-name="dotaccent.case" horiz-adv-x="397" 
d="M99 747q2 27 38.5 64t62.5 37t63 -31t36 -57q-2 -26 -39 -63t-62 -37q-27 0 -63.5 30.5t-35.5 56.5z" />
    <glyph glyph-name="ring.case" horiz-adv-x="390" 
d="M305 742q-4 -43 -39 -74.5t-80 -31.5q-48 0 -76.5 28.5t-25.5 77.5q4 44 39 76t80 32q48 0 76.5 -28.5t25.5 -79.5zM153 742q-2 -17 9 -29t29 -12t30.5 12t14.5 29q1 19 -10 31t-29 12t-30 -12t-14 -31z" />
    <glyph glyph-name="cedilla.case" horiz-adv-x="304" 
d="M77 -100l56 100h64l-22 -50q85 -28 81 -78q-3 -41 -51.5 -75t-140.5 -38l-15 65q97 9 99 34q2 23 -69 37z" />
    <glyph glyph-name="ogonek.case" horiz-adv-x="341" 
d="M63 -137q3 33 36 70t96 67h83q-104 -69 -110 -119q0 -14 10.5 -23.5t24.5 -9.5q31 0 51 11l18 -71q-16 -8 -47 -17t-51 -9q-52 0 -83.5 27t-27.5 74z" />
    <glyph glyph-name="zero.fit" 
d="M514 373q1 -194 -78 -293t-203 -99q-113 0 -167 66.5t-54 183.5q0 93 17 165t44 115.5t65.5 71.5t76.5 38t81 10q113 0 166.5 -67.5t51.5 -190.5zM252 101q82 4 82 248q2 83 -10 122t-50 39q-12 0 -21 -4t-20.5 -20t-19.5 -42.5t-13 -76t-5 -117.5q0 -32 1 -51t6 -45
t17.5 -39t32.5 -14z" />
    <glyph glyph-name="one.fit" horiz-adv-x="395" 
d="M315 0h-182l31 440l-138 -58l-29 147q15 5 68.5 22.5t104.5 34t78 26.5h110z" />
    <glyph glyph-name="two.fit" horiz-adv-x="492" 
d="M437 0h-421l7 129q151 122 208.5 186.5t56.5 108.5q0 29 -23.5 45.5t-58.5 16.5q-56 0 -130 -37l-30 136q109 46 221 46q99 0 153 -45.5t54 -125.5q0 -142 -232 -321l228 5z" />
    <glyph glyph-name="three.fit" horiz-adv-x="466" 
d="M145 -19q-101 0 -159 25l41 145q87 -26 130 -26q102 0 102 58q0 60 -75 60q-56 0 -79 -6l-20 130q181 0 181 71q0 51 -63 51q-26 0 -64.5 -11t-64.5 -27l-29 133q39 21 101.5 34t115.5 13q90 0 140.5 -38t50.5 -103q0 -45 -27.5 -88t-92.5 -67q110 -30 110 -143
q0 -97 -84 -154t-214 -57z" />
    <glyph glyph-name="four.fit" horiz-adv-x="555" 
d="M298 215l13 199l-147 -199h134zM511 88h-57l-6 -88h-165l6 88h-296l8 122l310 402h180l-28 -397h82z" />
    <glyph glyph-name="five.fit" horiz-adv-x="495" 
d="M157 -19q-70 0 -159 21l38 140q88 -29 152 -29q97 0 97 71q0 66 -117 66q-58 0 -117 -11l43 373h391l-29 -132h-223l-13 -99q27 6 53 6q87 0 139 -43t53 -120q-1 -121 -88.5 -182t-219.5 -61z" />
    <glyph glyph-name="six.fit" horiz-adv-x="501" 
d="M490 225q0 -96 -67.5 -170t-193.5 -74q-110 0 -163.5 67.5t-53.5 189.5q0 108 29 187.5t78.5 122.5t107 63t123.5 20q86 0 139 -21l-31 -144q-72 25 -125 25q-55 0 -86.5 -24t-45.5 -90q50 31 112 31q91 0 134 -49.5t43 -133.5zM258 101q24 0 42 24t18 71
q0 37 -19.5 60.5t-49.5 23.5q-33 0 -60 -18v-41q5 -120 69 -120z" />
    <glyph glyph-name="seven.fit" horiz-adv-x="487" 
d="M225 -24l-179 55l235 430h-267l32 151h449l-10 -128q-17 -32 -44 -84.5t-84 -164t-95 -185.5z" />
    <glyph glyph-name="eight.fit" horiz-adv-x="508" 
d="M227 -19q-111 0 -167.5 42t-56.5 114q0 98 106 164q-63 54 -63 138q0 91 71 141.5t174 49.5q97 1 150 -37t53 -107q0 -36 -25 -78t-75 -74q53 -34 74.5 -67t21.5 -91q0 -82 -74 -138.5t-189 -56.5zM211 467q0 -19 15 -33.5t59 -38.5q46 37 46 75q0 18 -17.5 30t-42.5 12
q-32 0 -46 -14t-14 -31zM254 100q40 0 55 19t15 37q0 34 -103 79q-49 -34 -49 -77q0 -25 23.5 -41.5t58.5 -16.5z" />
    <glyph glyph-name="nine.fit" horiz-adv-x="506" 
d="M257 328q33 0 58 18q1 13 1 42q-3 120 -68 120q-27 0 -44 -23t-17 -68q0 -89 70 -89zM157 -19q-80 0 -145 21l30 138q44 -19 110 -19q52 0 89 22.5t56 83.5q-45 -27 -104 -27q-91 0 -134.5 51t-43.5 136q0 96 68 170t194 74q110 0 163.5 -67.5t53.5 -189.5
q0 -87 -21.5 -156t-55.5 -112.5t-79 -72.5t-90 -40.5t-91 -11.5z" />
    <glyph glyph-name="zero.osf" horiz-adv-x="546" 
d="M527 308q0 -85 -25.5 -150.5t-67.5 -102.5t-90.5 -55.5t-101.5 -18.5q-99 0 -161.5 62t-62.5 176q0 69 17.5 126t45 93.5t64 61.5t73 35.5t73.5 10.5q109 0 172.5 -61.5t63.5 -176.5zM270 134q39 0 65.5 32.5t26.5 100.5q0 65 -26 95t-64 30q-36 0 -62.5 -30.5
t-26.5 -98.5q0 -65 24.5 -97t62.5 -32z" />
    <glyph glyph-name="one.osf" horiz-adv-x="387" 
d="M329 0h-182l24 357l-138 -58l-29 147q15 5 68.5 22.5t104.5 34t78 26.5h110z" />
    <glyph glyph-name="two.osf" horiz-adv-x="486" 
d="M438 0h-421l7 129q136 79 191.5 125t55.5 82q0 67 -83 67q-56 0 -130 -37l-30 137q111 45 221 45q100 0 154 -44.5t54 -125.5q0 -58 -53 -120t-140 -119l208 5z" />
    <glyph glyph-name="three.osf" horiz-adv-x="457" 
d="M130 -103q-101 0 -159 24l40 146q83 -27 131 -27q101 0 101 58q0 60 -75 60q-56 0 -79 -6l-19 130q181 0 181 71q0 51 -64 51q-26 0 -64.5 -11t-64.5 -27l-29 133q39 21 101.5 34t115.5 13q90 0 141 -38t51 -103q0 -45 -28 -88t-93 -67q111 -30 111 -143
q0 -97 -84 -153.5t-214 -56.5z" />
    <glyph glyph-name="four.osf" horiz-adv-x="532" 
d="M293 128l14 198l-140 -198h126zM500 0h-50l-6 -88h-166l6 88h-287l9 122l302 407h180l-29 -401h75z" />
    <glyph glyph-name="five.osf" horiz-adv-x="482" 
d="M141 -101q-67 0 -159 20l38 140q88 -29 152 -29q97 0 97 71q0 66 -117 66q-58 0 -117 -11l43 373h391l-29 -132h-223l-13 -99q27 6 53 6q87 0 139 -43t53 -120q-1 -120 -88.5 -181t-219.5 -61z" />
    <glyph glyph-name="six.osf" horiz-adv-x="525" 
d="M503 225q0 -96 -68 -170t-194 -74q-109 0 -162.5 67.5t-53.5 189.5q0 87 19.5 156t51 112.5t76 72.5t91.5 40.5t99 11.5q86 0 139 -21l-31 -144q-69 25 -125 25q-54 0 -85.5 -24t-45.5 -90q47 31 111 31q91 0 134.5 -49.5t43.5 -133.5zM270 101q25 0 43 24t18 71
q0 37 -19.5 60.5t-50.5 23.5t-59 -17v-42q3 -120 68 -120z" />
    <glyph glyph-name="seven.osf" horiz-adv-x="474" 
d="M217 -107l-167 55l236 430h-280l32 151h449l-10 -128q-17 -32 -44 -84.5t-84 -164t-95 -185.5z" />
    <glyph glyph-name="eight.osf" horiz-adv-x="503" 
d="M229 -19q-111 0 -167.5 42t-56.5 114q0 98 106 164q-63 54 -63 138q0 91 71 141.5t174 49.5q97 1 150 -37t53 -107q0 -36 -25 -78t-75 -74q53 -34 74.5 -67t21.5 -91q0 -82 -74 -138.5t-189 -56.5zM213 467q0 -19 15 -33.5t59 -38.5q46 37 46 75q0 18 -17.5 30t-42.5 12
q-32 0 -46 -14t-14 -31zM256 100q40 0 55 19t15 37q0 34 -103 79q-49 -34 -49 -77q0 -25 23.5 -41.5t58.5 -16.5z" />
    <glyph glyph-name="nine.osf" horiz-adv-x="528" 
d="M266 246q32 0 58 17q1 13 1 42q-3 120 -68 120q-27 0 -44 -23t-17 -68q0 -88 70 -88zM166 -101q-83 0 -145 20l30 138q44 -19 110 -19q34 0 59 7.5t49 32.5t37 67q-45 -27 -104 -27q-91 0 -134.5 51t-43.5 136q0 95 68 169t194 74q110 0 163 -67t53 -190q0 -87 -21 -156
t-55 -112.5t-79.5 -72t-90 -40t-90.5 -11.5z" />
    <glyph glyph-name="zero.tosf" horiz-adv-x="529" 
d="M519 308q0 -85 -25.5 -150.5t-67.5 -102.5t-90.5 -55.5t-101.5 -18.5q-99 0 -161.5 62t-62.5 176q0 69 17.5 126t45 93.5t64 61.5t73 35.5t73.5 10.5q109 0 172.5 -61.5t63.5 -176.5zM262 134q39 0 65.5 32.5t26.5 100.5q0 65 -26 95t-64 30q-36 0 -62.5 -30.5
t-26.5 -98.5q0 -65 24.5 -97t62.5 -32z" />
    <glyph glyph-name="one.tosf" horiz-adv-x="529" 
d="M435 0h-182l24 357l-138 -58l-29 147q15 5 68.5 22.5t104.5 34t78 26.5h110z" />
    <glyph glyph-name="two.tosf" horiz-adv-x="529" 
d="M469 0h-421l7 129q136 79 191.5 125t55.5 82q0 67 -83 67q-56 0 -130 -37l-30 137q111 45 221 45q100 0 154 -44.5t54 -125.5q0 -58 -53 -120t-140 -119l208 5z" />
    <glyph glyph-name="three.tosf" horiz-adv-x="529" 
d="M177 -103q-101 0 -159 24l40 146q83 -27 131 -27q101 0 101 58q0 60 -75 60q-57 0 -79 -6l-19 130q181 0 181 71q0 51 -64 51q-26 0 -64.5 -11t-64.5 -27l-29 133q39 21 101.5 34t115.5 13q90 0 141 -38t51 -103q0 -45 -28 -88t-93 -67q111 -30 111 -143
q0 -97 -84 -153.5t-214 -56.5z" />
    <glyph glyph-name="four.tosf" horiz-adv-x="529" 
d="M283 128l14 198l-140 -198h126zM490 0h-50l-6 -88h-166l6 88h-287l9 122l302 407h180l-29 -401h75z" />
    <glyph glyph-name="five.tosf" horiz-adv-x="529" 
d="M163 -101q-67 0 -159 20l38 140q88 -29 152 -29q97 0 97 71q0 66 -117 66q-58 0 -117 -11l43 373h391l-29 -132h-223l-13 -99q27 6 53 6q87 0 139 -43t53 -120q-1 -120 -88.5 -181t-219.5 -61z" />
    <glyph glyph-name="six.tosf" horiz-adv-x="529" 
d="M502 225q0 -96 -68 -170t-194 -74q-109 0 -162.5 67.5t-53.5 189.5q0 87 19.5 156t51 112.5t76 72.5t91.5 40.5t99 11.5q86 0 139 -21l-31 -144q-69 25 -125 25q-54 0 -85.5 -24t-45.5 -90q47 31 111 31q91 0 134.5 -49.5t43.5 -133.5zM269 101q25 0 43 24t18 71
q0 37 -19.5 60.5t-50.5 23.5t-59 -17v-42q3 -120 68 -120z" />
    <glyph glyph-name="seven.tosf" horiz-adv-x="529" 
d="M246 -107l-167 55l236 430h-280l32 151h449l-10 -128q-17 -32 -44 -84.5t-84 -164t-94 -185.5z" />
    <glyph glyph-name="eight.tosf" horiz-adv-x="529" 
d="M243 -19q-111 0 -167.5 42t-56.5 114q0 98 106 164q-63 54 -63 138q0 91 71 141.5t174 49.5q97 1 150 -37t53 -107q0 -36 -25 -78t-75 -74q53 -34 74.5 -67t21.5 -91q0 -82 -74 -138.5t-189 -56.5zM227 467q0 -19 15 -33.5t59 -38.5q46 37 46 75q0 18 -17.5 30t-42.5 12
q-32 0 -46 -14t-14 -31zM270 100q40 0 55 19t15 37q0 34 -103 79q-49 -34 -49 -77q0 -25 23.5 -41.5t58.5 -16.5z" />
    <glyph glyph-name="nine.tosf" horiz-adv-x="529" 
d="M262 246q32 0 58 17q1 13 1 42q-3 120 -68 120q-27 0 -44 -23t-17 -68q0 -88 70 -88zM162 -101q-83 0 -145 20l30 138q44 -19 110 -19q34 0 59 7.5t49 32.5t37 67q-45 -27 -104 -27q-91 0 -134.5 51t-43.5 136q0 95 68 169t194 74q110 0 163 -67t53 -190q0 -87 -21 -156
t-55 -112.5t-79.5 -72t-90 -40t-90.5 -11.5z" />
    <glyph glyph-name="A.sc" horiz-adv-x="525" 
d="M298 216l-31 179l-61 -179h92zM334 0l-14 85h-160l-29 -85h-166l206 529h240l100 -529h-177z" />
    <glyph glyph-name="Agrave.sc" horiz-adv-x="525" 
d="M415 574h-142l-150 141l173 30zM298 216l-31 179l-61 -179h92zM334 0l-14 85h-160l-29 -85h-166l206 529h240l100 -529h-177z" />
    <glyph glyph-name="Aacute.sc" horiz-adv-x="525" 
d="M188 574l139 171l170 -30l-168 -141h-141zM298 216l-31 179l-61 -179h92zM334 0l-14 85h-160l-29 -85h-166l206 529h240l100 -529h-177z" />
    <glyph glyph-name="Acircumflex.sc" horiz-adv-x="525" 
d="M362 574l-68 63l-75 -63h-122l124 171h160l105 -171h-124zM298 216l-31 179l-61 -179h92zM334 0l-14 85h-160l-29 -85h-166l206 529h240l100 -529h-177z" />
    <glyph glyph-name="Atilde.sc" horiz-adv-x="525" 
d="M431 744l54 -59q-13 -32 -61.5 -72t-78.5 -40q-19 0 -69 16.5t-62 16.5q-17 0 -40 -17.5t-28 -26.5l-46 70q-2 0 21 24t54.5 48.5t50.5 24.5q23 0 69 -17t59 -17q32 0 77 49zM298 216l-31 179l-61 -179h92zM334 0l-14 85h-160l-29 -85h-166l206 529h240l100 -529h-177z
" />
    <glyph glyph-name="Adieresis.sc" horiz-adv-x="525" 
d="M310 649q1 24 34.5 57.5t57.5 33.5q25 0 57 -28.5t31 -53.5q-1 -23 -35.5 -56t-56.5 -33q-25 0 -57 27.5t-31 52.5zM110 649q1 24 34.5 57.5t57.5 33.5q25 0 56.5 -28.5t30.5 -53.5q-1 -23 -35.5 -56t-56.5 -33q-25 0 -56.5 27.5t-30.5 52.5zM298 216l-31 179l-61 -179
h92zM334 0l-14 85h-160l-29 -85h-166l206 529h240l100 -529h-177z" />
    <glyph glyph-name="Aring.sc" horiz-adv-x="525" 
d="M404 666q-4 -44 -39 -75.5t-80 -31.5q-47 0 -76 29t-26 78q4 44 39 75.5t80 31.5q48 0 76.5 -28.5t25.5 -78.5zM252 666q-2 -17 9 -29t29 -12t30.5 12t14.5 29q1 18 -10 30t-29 12t-30 -12t-14 -30zM298 216l-31 179l-61 -179h92zM334 0l-14 85h-160l-29 -85h-166
l206 529h240l100 -529h-177z" />
    <glyph glyph-name="Amacron.sc" horiz-adv-x="525" 
d="M451 708l-1 -15l-36 -100h-271l1 15l36 100h271zM298 216l-31 179l-61 -179h92zM334 0l-14 85h-160l-29 -85h-166l206 529h240l100 -529h-177z" />
    <glyph glyph-name="Abreve.sc" horiz-adv-x="525" 
d="M301 677q69 0 86 79h97q-6 -84 -65 -134t-132 -50q-79 0 -122.5 49t-36.5 135h98q3 -79 75 -79zM298 216l-31 179l-61 -179h92zM334 0l-14 85h-160l-29 -85h-166l206 529h240l100 -529h-177z" />
    <glyph glyph-name="Aogonek.sc" horiz-adv-x="525" 
d="M298 216l-31 179l-61 -179h92zM425 0h-91l-14 85h-160l-29 -85h-166l206 529h240l100 -529h-3q-104 -69 -110 -119q0 -14 10.5 -23.5t24.5 -9.5q31 0 51 11l18 -71q-16 -8 -47 -17t-51 -9q-52 0 -83.5 27t-27.5 74q3 33 36 70t96 67z" />
    <glyph glyph-name="Acaron.sc" horiz-adv-x="525" 
d="M375 580h-160l-105 171h124l68 -64l75 64h121zM298 216l-31 179l-61 -179h92zM334 0l-14 85h-160l-29 -85h-166l206 529h240l100 -529h-177z" />
    <glyph glyph-name="B.sc" horiz-adv-x="490" 
d="M247 424h-21l-9 -102h26q63 0 63 48q0 19 -17 36.5t-42 17.5zM237 221h-28l-10 -116h19q42 0 61 13t19 41q0 26 -17.5 44t-43.5 18zM20 0l41 529h201q205 0 205 -127q0 -72 -80 -123q39 -14 64 -42t25 -65q0 -82 -66.5 -127t-177.5 -45h-212z" />
    <glyph glyph-name="C.sc" horiz-adv-x="478" 
d="M420 141l20 -124q-31 -15 -78 -25t-75 -8q-140 -2 -207 60t-67 196q0 77 24.5 137t66.5 96.5t94.5 55.5t111.5 19q115 0 162 -22l-35 -138q-80 24 -124 24q-114 0 -114 -152q0 -138 120 -138q42 0 101 19z" />
    <glyph glyph-name="Ccedilla.sc" horiz-adv-x="478" 
d="M378 -128q-3 -41 -51.5 -75t-140.5 -38l-15 65q97 9 99 34q2 23 -69 37l-2 5l48 85q-119 7 -176.5 69t-57.5 186q0 77 24.5 137t66.5 96.5t94.5 55.5t111.5 19q115 0 162 -22l-35 -138q-80 24 -124 24q-114 0 -114 -152q0 -138 120 -138q42 0 101 19l20 -124
q-54 -26 -128 -32l-15 -35q85 -28 81 -78z" />
    <glyph glyph-name="Cacute.sc" horiz-adv-x="478" 
d="M216 574l139 171l170 -30l-168 -141h-141zM420 141l20 -124q-31 -15 -78 -25t-75 -8q-140 -2 -207 60t-67 196q0 77 24.5 137t66.5 96.5t94.5 55.5t111.5 19q115 0 162 -22l-35 -138q-80 24 -124 24q-114 0 -114 -152q0 -138 120 -138q42 0 101 19z" />
    <glyph glyph-name="Ccircumflex.sc" horiz-adv-x="478" 
d="M373 574l-68 63l-75 -63h-122l124 171h160l105 -171h-124zM420 141l20 -124q-31 -15 -78 -25t-75 -8q-140 -2 -207 60t-67 196q0 77 24.5 137t66.5 96.5t94.5 55.5t111.5 19q115 0 162 -22l-35 -138q-80 24 -124 24q-114 0 -114 -152q0 -138 120 -138q42 0 101 19z" />
    <glyph glyph-name="Cdotaccent.sc" horiz-adv-x="478" 
d="M201 670q2 27 38.5 64t62.5 37t63 -31t36 -57q-2 -26 -39 -63t-62 -37q-27 0 -63.5 31t-35.5 56zM420 141l20 -124q-31 -15 -78 -25t-75 -8q-140 -2 -207 60t-67 196q0 77 24.5 137t66.5 96.5t94.5 55.5t111.5 19q115 0 162 -22l-35 -138q-80 24 -124 24
q-114 0 -114 -152q0 -138 120 -138q42 0 101 19z" />
    <glyph glyph-name="Ccaron.sc" horiz-adv-x="478" 
d="M377 580h-160l-105 171h124l68 -64l75 64h121zM420 141l20 -124q-31 -15 -78 -25t-75 -8q-140 -2 -207 60t-67 196q0 77 24.5 137t66.5 96.5t94.5 55.5t111.5 19q115 0 162 -22l-35 -138q-80 24 -124 24q-114 0 -114 -152q0 -138 120 -138q42 0 101 19z" />
    <glyph glyph-name="D.sc" horiz-adv-x="552" 
d="M61 529h206q269 0 269 -231q0 -136 -87.5 -217t-211.5 -81h-217zM233 408l-22 -288h22q60 0 89 35.5t29 120.5q0 61 -28 96.5t-65 35.5h-25z" />
    <glyph glyph-name="Dcaron.sc" horiz-adv-x="552" 
d="M375 580h-160l-105 171h124l68 -64l75 64h121zM61 529h206q269 0 269 -231q0 -136 -87.5 -217t-211.5 -81h-217zM233 408l-22 -288h22q60 0 89 35.5t29 120.5q0 61 -28 96.5t-65 35.5h-25z" />
    <glyph glyph-name="E.sc" horiz-adv-x="444" 
d="M20 0l41 529h380l-31 -122l-178 2l-6 -79h179l-34 -122l-154 6l-7 -90l216 2l-32 -126h-374z" />
    <glyph glyph-name="Egrave.sc" horiz-adv-x="444" 
d="M403 574h-142l-150 141l173 30zM20 0l41 529h380l-31 -122l-178 2l-6 -79h179l-34 -122l-154 6l-7 -90l216 2l-32 -126h-374z" />
    <glyph glyph-name="Eacute.sc" horiz-adv-x="444" 
d="M157 574l139 171l170 -30l-168 -141h-141zM20 0l41 529h380l-31 -122l-178 2l-6 -79h179l-34 -122l-154 6l-7 -90l216 2l-32 -126h-374z" />
    <glyph glyph-name="Ecircumflex.sc" horiz-adv-x="444" 
d="M331 574l-68 63l-75 -63h-122l124 171h160l105 -171h-124zM20 0l41 529h380l-31 -122l-178 2l-6 -79h179l-34 -122l-154 6l-7 -90l216 2l-32 -126h-374z" />
    <glyph glyph-name="Edieresis.sc" horiz-adv-x="444" 
d="M278 649q1 24 34.5 57.5t57.5 33.5q25 0 57 -28.5t31 -53.5q-1 -23 -35.5 -56t-56.5 -33q-25 0 -57 27.5t-31 52.5zM78 649q1 24 34.5 57.5t57.5 33.5q25 0 56.5 -28.5t30.5 -53.5q-1 -23 -35.5 -56t-56.5 -33q-25 0 -56.5 27.5t-30.5 52.5zM20 0l41 529h380l-31 -122
l-178 2l-6 -79h179l-34 -122l-154 6l-7 -90l216 2l-32 -126h-374z" />
    <glyph glyph-name="Emacron.sc" horiz-adv-x="444" 
d="M405 708l-1 -15l-36 -100h-271l1 15l36 100h271zM20 0l41 529h380l-31 -122l-178 2l-6 -79h179l-34 -122l-154 6l-7 -90l216 2l-32 -126h-374z" />
    <glyph glyph-name="Ebreve.sc" horiz-adv-x="444" 
d="M252 677q69 0 86 79h97q-6 -84 -65 -134t-132 -50q-79 0 -122.5 49t-36.5 135h98q3 -79 75 -79zM20 0l41 529h380l-31 -122l-178 2l-6 -79h179l-34 -122l-154 6l-7 -90l216 2l-32 -126h-374z" />
    <glyph glyph-name="Edotaccent.sc" horiz-adv-x="444" 
d="M172 670q2 27 38.5 64t62.5 37t63 -31t36 -57q-2 -26 -39 -63t-62 -37q-27 0 -63.5 31t-35.5 56zM20 0l41 529h380l-31 -122l-178 2l-6 -79h179l-34 -122l-154 6l-7 -90l216 2l-32 -126h-374z" />
    <glyph glyph-name="Eogonek.sc" horiz-adv-x="444" 
d="M20 0l41 529h380l-31 -122l-178 2l-6 -79h179l-34 -122l-154 6l-7 -90l216 2l-32 -126h-374zM178 -137q3 33 36 70t96 67h83q-104 -69 -110 -119q0 -14 10.5 -23.5t24.5 -9.5q31 0 51 11l18 -71q-16 -8 -47 -17t-51 -9q-52 0 -83.5 27t-27.5 74z" />
    <glyph glyph-name="Ecaron.sc" horiz-adv-x="444" 
d="M343 580h-160l-105 171h124l68 -64l75 64h121zM22 0l41 529h380l-31 -122l-178 2l-6 -79h179l-34 -122l-154 6l-7 -90l216 2l-32 -126h-374z" />
    <glyph glyph-name="F.sc" horiz-adv-x="432" 
d="M372 189l-156 6l-15 -195h-181l41 529h380l-31 -122l-178 2l-8 -103h181z" />
    <glyph glyph-name="G.sc" horiz-adv-x="527" 
d="M476 20q-24 -13 -78.5 -25.5t-119.5 -12.5q-265 0 -265 256q0 86 27 148.5t74 97t101 50t117 15.5q49 0 103.5 -10t80.5 -23l-55 -136q-74 30 -128 30q-135 0 -134 -150q-1 -83 31 -113t88 -30l12 159h165z" />
    <glyph glyph-name="Gcircumflex.sc" horiz-adv-x="527" 
d="M394 574l-68 63l-75 -63h-122l124 171h160l105 -171h-124zM476 20q-24 -13 -78.5 -25.5t-119.5 -12.5q-265 0 -265 256q0 86 27 148.5t74 97t101 50t117 15.5q49 0 103.5 -10t80.5 -23l-55 -136q-74 30 -128 30q-135 0 -134 -150q-1 -83 31 -113t88 -30l12 159h165z" />
    <glyph glyph-name="Gbreve.sc" horiz-adv-x="527" 
d="M328 677q69 0 86 79h97q-6 -84 -65 -134t-132 -50q-79 0 -122.5 49t-36.5 135h98q3 -79 75 -79zM476 20q-24 -13 -78.5 -25.5t-119.5 -12.5q-265 0 -265 256q0 86 27 148.5t74 97t101 50t117 15.5q49 0 103.5 -10t80.5 -23l-55 -136q-74 30 -128 30q-135 0 -134 -150
q-1 -83 31 -113t88 -30l12 159h165z" />
    <glyph glyph-name="Gdotaccent.sc" horiz-adv-x="527" 
d="M222 670q2 27 38.5 64t62.5 37t63 -31t36 -57q-2 -26 -39 -63t-62 -37q-27 0 -63.5 31t-35.5 56zM476 20q-24 -13 -78.5 -25.5t-119.5 -12.5q-265 0 -265 256q0 86 27 148.5t74 97t101 50t117 15.5q49 0 103.5 -10t80.5 -23l-55 -136q-74 30 -128 30q-135 0 -134 -150
q-1 -83 31 -113t88 -30l12 159h165z" />
    <glyph glyph-name="Gcommaaccent.sc" horiz-adv-x="527" 
d="M476 20q-24 -13 -78.5 -25.5t-119.5 -12.5q-265 0 -265 256q0 86 27 148.5t74 97t101 50t117 15.5q49 0 103.5 -10t80.5 -23l-55 -136q-74 30 -128 30q-135 0 -134 -150q-1 -83 31 -113t88 -30l12 159h165zM184 -104q-1 20 26.5 43.5t50.5 23.5t48 -27.5t23 -44.5
q-5 -53 -89 -161l-73 30q5 12 26 45.5t22 40.5q0 6 -17.5 23.5t-16.5 26.5z" />
    <glyph glyph-name="H.sc" horiz-adv-x="571" 
d="M329 0l15 198h-128l-15 -198h-181l41 529h180l-14 -183h128l14 183h181l-40 -529h-181z" />
    <glyph glyph-name="Hcircumflex.sc" horiz-adv-x="571" 
d="M379 574l-68 63l-75 -63h-122l124 171h160l105 -171h-124zM329 0l15 198h-128l-15 -198h-181l41 529h180l-14 -183h128l14 183h181l-40 -529h-181z" />
    <glyph glyph-name="I.sc" horiz-adv-x="262" 
d="M241 529l-40 -529h-181l41 529h180z" />
    <glyph glyph-name="Igrave.sc" horiz-adv-x="262" 
d="M255 574h-142l-150 141l173 30zM241 529l-40 -529h-181l41 529h180z" />
    <glyph glyph-name="Iacute.sc" horiz-adv-x="262" 
d="M55 574l139 171l170 -30l-168 -141h-141zM241 529l-40 -529h-181l41 529h180z" />
    <glyph glyph-name="Icircumflex.sc" horiz-adv-x="262" 
d="M225 574l-68 63l-75 -63h-122l124 171h160l105 -171h-124zM241 529l-40 -529h-181l41 529h180z" />
    <glyph glyph-name="Idieresis.sc" horiz-adv-x="262" 
d="M176 649q1 24 34.5 57.5t57.5 33.5q25 0 57 -28.5t31 -53.5q-1 -23 -35.5 -56t-56.5 -33q-25 0 -57 27.5t-31 52.5zM-24 649q1 24 34.5 57.5t57.5 33.5q25 0 56.5 -28.5t30.5 -53.5q-1 -23 -35.5 -56t-56.5 -33q-25 0 -56.5 27.5t-30.5 52.5zM241 529l-40 -529h-181
l41 529h180z" />
    <glyph glyph-name="Itilde.sc" horiz-adv-x="262" 
d="M307 744l54 -59q-13 -32 -61.5 -72t-78.5 -40q-19 0 -69 16.5t-62 16.5q-17 0 -40 -17.5t-28 -26.5l-46 70q-3 0 20.5 24t55 48.5t50.5 24.5q23 0 69 -17t59 -17q32 0 77 49zM241 529l-40 -529h-181l41 529h180z" />
    <glyph glyph-name="Imacron.sc" horiz-adv-x="262" 
d="M328 708l-1 -15l-36 -100h-271l1 15l36 100h271zM241 529l-40 -529h-181l41 529h180z" />
    <glyph glyph-name="Ibreve.sc" horiz-adv-x="262" 
d="M175 677q69 0 86 79h97q-6 -84 -65 -134t-132 -50q-79 0 -122.5 49t-36.5 135h98q3 -79 75 -79zM241 529l-40 -529h-181l41 529h180z" />
    <glyph glyph-name="Iogonek.sc" horiz-adv-x="262" 
d="M116 0h-96l41 529h180l-40 -529h-2q-104 -69 -110 -119q0 -14 10.5 -23.5t24.5 -9.5q31 0 51 11l18 -71q-16 -8 -47 -17t-51 -9q-52 0 -83.5 27t-27.5 74q3 33 36 70t96 67z" />
    <glyph glyph-name="Idotaccent.sc" horiz-adv-x="262" 
d="M66 670q2 27 38.5 64t62.5 37t63 -31t36 -57q-2 -26 -39 -63t-62 -37q-27 0 -63.5 31t-35.5 56zM241 529l-40 -529h-181l41 529h180z" />
    <glyph glyph-name="J.sc" horiz-adv-x="360" 
d="M339 529l-28 -377q-5 -73 -63 -121.5t-149 -48.5q-66 0 -114 24l32 143q24 -14 69 -14q40 0 44 49l27 345h182z" />
    <glyph glyph-name="Jcircumflex.sc" horiz-adv-x="372" 
d="M320 574l-68 63l-75 -63h-122l124 171h160l105 -171h-124zM339 529l-28 -377q-5 -73 -63 -121.5t-149 -48.5q-66 0 -114 24l32 143q24 -14 69 -14q40 0 44 49l27 345h182z" />
    <glyph glyph-name="K.sc" horiz-adv-x="553" 
d="M333 0q-112 277 -112 279l166 250h189l-177 -241l138 -288h-204zM239 529l-40 -529h-179l41 529h178z" />
    <glyph glyph-name="Kcommaaccent.sc" horiz-adv-x="553" 
d="M333 0q-112 277 -112 279l166 250h189l-177 -241l138 -288h-204zM239 529l-40 -529h-179l41 529h178zM188 -104q-1 20 26.5 43.5t50.5 23.5t48 -27.5t23 -44.5q-5 -53 -89 -161l-73 30q5 12 26 45.5t22 40.5q0 6 -17.5 23.5t-16.5 26.5z" />
    <glyph glyph-name="L.sc" horiz-adv-x="434" 
d="M20 0l41 529h180l-30 -394l212 5l-24 -140h-379z" />
    <glyph glyph-name="Lacute.sc" horiz-adv-x="434" 
d="M55 574l139 171l170 -30l-168 -141h-141zM20 0l41 529h180l-30 -394l212 5l-24 -140h-379z" />
    <glyph glyph-name="Lcommaaccent.sc" horiz-adv-x="434" 
d="M20 0l41 529h180l-30 -394l212 5l-24 -140h-379zM122 -104q-1 20 26.5 43.5t50.5 23.5t48 -27.5t23 -44.5q-5 -53 -89 -161l-73 30q5 12 26 45.5t22 40.5q0 6 -17.5 23.5t-16.5 26.5z" />
    <glyph glyph-name="Lcaron.sc" horiz-adv-x="434" 
d="M292 495q1 20 32.5 36.5t57.5 16.5q23 0 36.5 -20.5t16.5 -43.5t2 -48q-4 -63 -114 -202l-66 33q40 67 44 135q1 21 -4 50t-5 43zM20 0l41 529h180l-30 -394l212 5l-24 -140h-379z" />
    <glyph glyph-name="M.sc" horiz-adv-x="762" 
d="M274 0l-59 283l-38 -283h-169l86 529h232l58 -269l91 269h237l2 -529h-174l1 281l-96 -281h-171z" />
    <glyph glyph-name="N.sc" horiz-adv-x="585" 
d="M364 0l-156 255l-17 -255h-171l41 529h167l152 -264l14 264h170l-38 -529h-162z" />
    <glyph glyph-name="Ntilde.sc" horiz-adv-x="585" 
d="M481 744l54 -59q-13 -32 -61.5 -72t-78.5 -40q-19 0 -69 16.5t-62 16.5q-17 0 -40 -17.5t-28 -26.5l-46 70q-2 0 21 24t54.5 48.5t50.5 24.5q23 0 69 -17t59 -17q32 0 77 49zM364 0l-156 255l-17 -255h-171l41 529h167l152 -264l14 264h170l-38 -529h-162z" />
    <glyph glyph-name="Nacute.sc" horiz-adv-x="585" 
d="M199 574l139 171l170 -30l-168 -141h-141zM364 0l-156 255l-17 -255h-171l41 529h167l152 -264l14 264h170l-38 -529h-162z" />
    <glyph glyph-name="Ncommaaccent.sc" horiz-adv-x="585" 
d="M364 0l-156 255l-17 -255h-171l41 529h167l152 -264l14 264h170l-38 -529h-162zM212 -104q-1 20 26.5 43.5t50.5 23.5t48 -27.5t23 -44.5q-5 -53 -89 -161l-73 30q5 12 26 45.5t22 40.5q0 6 -17.5 23.5t-16.5 26.5z" />
    <glyph glyph-name="Ncaron.sc" horiz-adv-x="585" 
d="M417 580h-160l-105 171h124l68 -64l75 64h121zM364 0l-156 255l-17 -255h-171l41 529h167l152 -264l14 264h170l-38 -529h-162z" />
    <glyph glyph-name="O.sc" horiz-adv-x="553" 
d="M540 306q0 -40 -7 -80.5t-27 -85t-51 -78.5t-83 -56t-118 -22q-121 -1 -181 64.5t-60 175.5q0 60 15.5 115t48 103t90.5 77t135 29q120 0 179 -65.5t59 -176.5zM288 112q31 0 48.5 42.5t17.5 122.5q0 77 -23 108.5t-66 31.5q-66 0 -66 -164q0 -78 21 -109.5t68 -31.5z
" />
    <glyph glyph-name="Ograve.sc" horiz-adv-x="553" 
d="M427 574h-142l-150 141l173 30zM540 306q0 -40 -7 -80.5t-27 -85t-51 -78.5t-83 -56t-118 -22q-121 -1 -181 64.5t-60 175.5q0 60 15.5 115t48 103t90.5 77t135 29q120 0 179 -65.5t59 -176.5zM288 112q31 0 48.5 42.5t17.5 122.5q0 77 -23 108.5t-66 31.5
q-66 0 -66 -164q0 -78 21 -109.5t68 -31.5z" />
    <glyph glyph-name="Oacute.sc" horiz-adv-x="553" 
d="M223 574l139 171l170 -30l-168 -141h-141zM540 306q0 -40 -7 -80.5t-27 -85t-51 -78.5t-83 -56t-118 -22q-121 -1 -181 64.5t-60 175.5q0 60 15.5 115t48 103t90.5 77t135 29q120 0 179 -65.5t59 -176.5zM288 112q31 0 48.5 42.5t17.5 122.5q0 77 -23 108.5t-66 31.5
q-66 0 -66 -164q0 -78 21 -109.5t68 -31.5z" />
    <glyph glyph-name="Ocircumflex.sc" horiz-adv-x="553" 
d="M383 574l-68 63l-75 -63h-122l124 171h160l105 -171h-124zM540 306q0 -40 -7 -80.5t-27 -85t-51 -78.5t-83 -56t-118 -22q-121 -1 -181 64.5t-60 175.5q0 60 15.5 115t48 103t90.5 77t135 29q120 0 179 -65.5t59 -176.5zM288 112q31 0 48.5 42.5t17.5 122.5
q0 77 -23 108.5t-66 31.5q-66 0 -66 -164q0 -78 21 -109.5t68 -31.5z" />
    <glyph glyph-name="Otilde.sc" horiz-adv-x="553" 
d="M429 744l54 -59q-13 -32 -61.5 -72t-78.5 -40q-19 0 -69 16.5t-62 16.5q-17 0 -40 -17.5t-28 -26.5l-46 70q-3 0 20.5 24t55 48.5t50.5 24.5q23 0 69 -17t59 -17q32 0 77 49zM540 306q0 -40 -7 -80.5t-27 -85t-51 -78.5t-83 -56t-118 -22q-121 -1 -181 64.5t-60 175.5
q0 60 15.5 115t48 103t90.5 77t135 29q120 0 179 -65.5t59 -176.5zM288 112q31 0 48.5 42.5t17.5 122.5q0 77 -23 108.5t-66 31.5q-66 0 -66 -164q0 -78 21 -109.5t68 -31.5z" />
    <glyph glyph-name="Odieresis.sc" horiz-adv-x="553" 
d="M318 649q1 24 34.5 57.5t57.5 33.5q25 0 57 -28.5t31 -53.5q-1 -23 -35.5 -56t-56.5 -33q-25 0 -57 27.5t-31 52.5zM118 649q1 24 34.5 57.5t57.5 33.5q25 0 56.5 -28.5t30.5 -53.5q-1 -23 -35.5 -56t-56.5 -33q-25 0 -56.5 27.5t-30.5 52.5zM540 306q0 -40 -7 -80.5
t-27 -85t-51 -78.5t-83 -56t-118 -22q-121 -1 -181 64.5t-60 175.5q0 60 15.5 115t48 103t90.5 77t135 29q120 0 179 -65.5t59 -176.5zM288 112q31 0 48.5 42.5t17.5 122.5q0 77 -23 108.5t-66 31.5q-66 0 -66 -164q0 -78 21 -109.5t68 -31.5z" />
    <glyph glyph-name="Omacron.sc" horiz-adv-x="553" 
d="M451 708l-1 -15l-36 -100h-271l1 15l36 100h271zM540 306q0 -40 -7 -80.5t-27 -85t-51 -78.5t-83 -56t-118 -22q-121 -1 -181 64.5t-60 175.5q0 60 15.5 115t48 103t90.5 77t135 29q120 0 179 -65.5t59 -176.5zM288 112q31 0 48.5 42.5t17.5 122.5q0 77 -23 108.5
t-66 31.5q-66 0 -66 -164q0 -78 21 -109.5t68 -31.5z" />
    <glyph glyph-name="Obreve.sc" horiz-adv-x="553" 
d="M298 677q69 0 86 79h97q-6 -84 -65 -134t-132 -50q-79 0 -122.5 49t-36.5 135h98q3 -79 75 -79zM540 306q0 -40 -7 -80.5t-27 -85t-51 -78.5t-83 -56t-118 -22q-121 -1 -181 64.5t-60 175.5q0 60 15.5 115t48 103t90.5 77t135 29q120 0 179 -65.5t59 -176.5zM288 112
q31 0 48.5 42.5t17.5 122.5q0 77 -23 108.5t-66 31.5q-66 0 -66 -164q0 -78 21 -109.5t68 -31.5z" />
    <glyph glyph-name="Ohungarumlaut.sc" horiz-adv-x="553" 
d="M315 574l94 137l-142 -137h-142l117 171l170 -30l20 30l171 -30l-146 -141h-142zM540 306q0 -40 -7 -80.5t-27 -85t-51 -78.5t-83 -56t-118 -22q-121 -1 -181 64.5t-60 175.5q0 60 15.5 115t48 103t90.5 77t135 29q120 0 179 -65.5t59 -176.5zM288 112q31 0 48.5 42.5
t17.5 122.5q0 77 -23 108.5t-66 31.5q-66 0 -66 -164q0 -78 21 -109.5t68 -31.5z" />
    <glyph glyph-name="P.sc" horiz-adv-x="502" 
d="M251 408h-19l-10 -128h30q63 0 63 57q0 32 -18 51.5t-46 19.5zM255 162h-42l-12 -162h-181l41 529h214q108 0 163.5 -43.5t55.5 -124.5q0 -87 -66 -143t-173 -56z" />
    <glyph glyph-name="Q.sc" horiz-adv-x="553" 
d="M370 -187q-49 0 -121 27.5t-92 27.5q-15 0 -33.5 -8t-28.5 -18l-38 101q66 20 120 49q-83 19 -123.5 80t-40.5 152q0 60 15.5 115t48 103t90.5 77t135 29q120 0 179 -65.5t59 -176.5q0 -78 -29 -155t-95 -122l1 -1q-97 -59 -159 -84q90 -10 133 -10q52 0 109 26v-113
q-55 -34 -130 -34zM288 112q31 0 48.5 42.5t17.5 122.5q0 77 -23 108.5t-66 31.5q-66 0 -66 -164q0 -78 21 -109.5t68 -31.5z" />
    <glyph glyph-name="R.sc" horiz-adv-x="520" 
d="M252 408h-20l-8 -109h23q66 0 66 49q0 28 -17.5 44t-43.5 16zM222 183h-7l-14 -183h-181l41 529h227q109 0 160.5 -44.5t51.5 -110.5q0 -101 -94 -153l101 -221h-191l-68 184q-9 -1 -26 -1z" />
    <glyph glyph-name="Racute.sc" horiz-adv-x="520" 
d="M174 574l139 171l170 -30l-168 -141h-141zM252 408h-20l-8 -109h23q66 0 66 49q0 28 -17.5 44t-43.5 16zM222 183h-7l-14 -183h-181l41 529h227q109 0 160.5 -44.5t51.5 -110.5q0 -101 -94 -153l101 -221h-191l-68 184q-9 -1 -26 -1z" />
    <glyph glyph-name="Rcommaaccent.sc" horiz-adv-x="520" 
d="M252 408h-20l-8 -109h23q66 0 66 49q0 28 -17.5 44t-43.5 16zM222 183h-7l-14 -183h-181l41 529h227q109 0 160.5 -44.5t51.5 -110.5q0 -101 -94 -153l101 -221h-191l-68 184q-9 -1 -26 -1zM176 -104q-1 20 26.5 43.5t50.5 23.5t48 -27.5t23 -44.5q-5 -53 -89 -161
l-73 30q5 12 26 45.5t22 40.5q0 6 -17.5 23.5t-16.5 26.5z" />
    <glyph glyph-name="Rcaron.sc" horiz-adv-x="520" 
d="M380 580h-160l-105 171h124l68 -64l75 64h121zM252 408h-20l-8 -109h23q66 0 66 49q0 28 -17.5 44t-43.5 16zM222 183h-7l-14 -183h-181l41 529h227q109 0 160.5 -44.5t51.5 -110.5q0 -101 -94 -153l101 -221h-191l-68 184q-9 -1 -26 -1z" />
    <glyph glyph-name="S.sc" horiz-adv-x="439" 
d="M194 190l-69 33q-97 45 -97 145q0 83 64.5 131.5t163.5 48.5q91 0 180 -26l-38 -141q-6 2 -31 10t-35.5 11.5t-29.5 8.5t-34 7t-28 2q-20 0 -28.5 -11.5t-6.5 -21.5q-1 -11 12 -24.5t24 -17.5l83 -39q47 -23 70 -54.5t23 -85.5q0 -77 -67 -130.5t-176 -53.5
q-87 0 -175 25l29 146q104 -43 159 -40q44 -2 44 35q0 24 -37 42z" />
    <glyph glyph-name="Sacute.sc" horiz-adv-x="439" 
d="M139 574l139 171l170 -30l-168 -141h-141zM194 190l-69 33q-97 45 -97 145q0 83 64.5 131.5t163.5 48.5q91 0 180 -26l-38 -141q-6 2 -31 10t-35.5 11.5t-29.5 8.5t-34 7t-28 2q-20 0 -28.5 -11.5t-6.5 -21.5q-1 -11 12 -24.5t24 -17.5l83 -39q47 -23 70 -54.5t23 -85.5
q0 -77 -67 -130.5t-176 -53.5q-87 0 -175 25l29 146q104 -43 159 -40q44 -2 44 35q0 24 -37 42z" />
    <glyph glyph-name="Scircumflex.sc" horiz-adv-x="439" 
d="M319 574l-68 63l-75 -63h-122l124 171h160l105 -171h-124zM194 190l-69 33q-97 45 -97 145q0 83 64.5 131.5t163.5 48.5q91 0 180 -26l-38 -141q-6 2 -31 10t-35.5 11.5t-29.5 8.5t-34 7t-28 2q-20 0 -28.5 -11.5t-6.5 -21.5q-1 -11 12 -24.5t24 -17.5l83 -39
q47 -23 70 -54.5t23 -85.5q0 -77 -67 -130.5t-176 -53.5q-87 0 -175 25l29 146q104 -43 159 -40q44 -2 44 35q0 24 -37 42z" />
    <glyph glyph-name="Scedilla.sc" horiz-adv-x="439" 
d="M113 -241l-15 65q97 9 99 34q2 23 -69 37l-2 5l46 82q-85 0 -173 25l29 146q104 -43 159 -40q44 -2 44 35q0 24 -37 42l-69 33q-97 45 -97 145q0 83 64.5 131.5t163.5 48.5q91 0 180 -26l-38 -141q-6 2 -31 10t-35.5 11.5t-29.5 8.5t-34 7t-28 2q-20 0 -28.5 -11.5
t-6.5 -21.5q-1 -11 12 -24.5t24 -17.5l83 -39q47 -23 70 -54.5t23 -85.5q0 -64 -47.5 -113.5t-128.5 -64.5l-17 -38q85 -28 81 -78q-3 -41 -51.5 -75t-140.5 -38z" />
    <glyph glyph-name="Scaron.sc" horiz-adv-x="439" 
d="M358 580h-160l-105 171h124l68 -64l75 64h121zM194 190l-69 33q-97 45 -97 145q0 83 64.5 131.5t163.5 48.5q91 0 180 -26l-38 -141q-6 2 -31 10t-35.5 11.5t-29.5 8.5t-34 7t-28 2q-20 0 -28.5 -11.5t-6.5 -21.5q-1 -11 12 -24.5t24 -17.5l83 -39q47 -23 70 -54.5
t23 -85.5q0 -77 -67 -130.5t-176 -53.5q-87 0 -175 25l29 146q104 -43 159 -40q44 -2 44 35q0 24 -37 42z" />
    <glyph glyph-name="Scommaaccent.sc" horiz-adv-x="439" 
d="M194 190l-69 33q-97 45 -97 145q0 83 64.5 131.5t163.5 48.5q91 0 180 -26l-38 -141q-6 2 -31 10t-35.5 11.5t-29.5 8.5t-34 7t-28 2q-20 0 -28.5 -11.5t-6.5 -21.5q-1 -11 12 -24.5t24 -17.5l83 -39q47 -23 70 -54.5t23 -85.5q0 -77 -67 -130.5t-176 -53.5
q-87 0 -175 25l29 146q104 -43 159 -40q44 -2 44 35q0 24 -37 42zM118 -104q-1 20 26.5 43.5t50.5 23.5t48 -27.5t23 -44.5q-5 -53 -89 -161l-73 30q5 12 26 45.5t22 40.5q0 6 -17.5 23.5t-16.5 26.5z" />
    <glyph glyph-name="T.sc" horiz-adv-x="480" 
d="M476 389l-135 1l-29 -390h-181l30 390l-159 -1l29 140h475z" />
    <glyph glyph-name="Tcommaaccent.sc" horiz-adv-x="480" 
d="M476 389l-135 1l-29 -390h-181l30 390l-159 -1l29 140h475zM139 -104q-1 20 26.5 43.5t50.5 23.5t48 -27.5t23 -44.5q-5 -53 -89 -161l-73 30q5 12 26 45.5t22 40.5q0 6 -17.5 23.5t-16.5 26.5z" />
    <glyph glyph-name="Tcaron.sc" horiz-adv-x="480" 
d="M353 580h-160l-105 171h124l68 -64l75 64h121zM476 389l-135 1l-29 -390h-181l30 390l-159 -1l29 140h475z" />
    <glyph glyph-name="U.sc" horiz-adv-x="555" 
d="M60 529h180l-24 -333q0 -29 16 -49.5t48 -20.5q21 0 35.5 12.5t16.5 38.5l27 352h175l-26 -333q-7 -99 -75.5 -156.5t-181.5 -57.5q-97 0 -157.5 45t-60.5 123q0 2 27 379z" />
    <glyph glyph-name="Ugrave.sc" horiz-adv-x="555" 
d="M451 574h-142l-150 141l173 30zM60 529h180l-24 -333q0 -29 16 -49.5t48 -20.5q21 0 35.5 12.5t16.5 38.5l27 352h175l-26 -333q-7 -99 -75.5 -156.5t-181.5 -57.5q-97 0 -157.5 45t-60.5 123q0 2 27 379z" />
    <glyph glyph-name="Uacute.sc" horiz-adv-x="555" 
d="M192 574l139 171l170 -30l-168 -141h-141zM60 529h180l-24 -333q0 -29 16 -49.5t48 -20.5q21 0 35.5 12.5t16.5 38.5l27 352h175l-26 -333q-7 -99 -75.5 -156.5t-181.5 -57.5q-97 0 -157.5 45t-60.5 123q0 2 27 379z" />
    <glyph glyph-name="Ucircumflex.sc" horiz-adv-x="555" 
d="M368 574l-68 63l-75 -63h-122l124 171h160l105 -171h-124zM60 529h180l-24 -333q0 -29 16 -49.5t48 -20.5q21 0 35.5 12.5t16.5 38.5l27 352h175l-26 -333q-7 -99 -75.5 -156.5t-181.5 -57.5q-97 0 -157.5 45t-60.5 123q0 2 27 379z" />
    <glyph glyph-name="Udieresis.sc" horiz-adv-x="555" 
d="M326 649q1 24 34.5 57.5t57.5 33.5q25 0 57 -28.5t31 -53.5q-1 -23 -35.5 -56t-56.5 -33q-25 0 -57 27.5t-31 52.5zM126 649q1 24 34.5 57.5t57.5 33.5q25 0 56.5 -28.5t30.5 -53.5q-1 -23 -35.5 -56t-56.5 -33q-25 0 -56.5 27.5t-30.5 52.5zM60 529h180l-24 -333
q0 -29 16 -49.5t48 -20.5q21 0 35.5 12.5t16.5 38.5l27 352h175l-26 -333q-7 -99 -75.5 -156.5t-181.5 -57.5q-97 0 -157.5 45t-60.5 123q0 2 27 379z" />
    <glyph glyph-name="Utilde.sc" horiz-adv-x="555" 
d="M454 744l54 -59q-13 -32 -61.5 -72t-78.5 -40q-19 0 -69 16.5t-62 16.5q-17 0 -40 -17.5t-28 -26.5l-46 70q-3 0 20.5 24t55 48.5t50.5 24.5q23 0 69 -17t59 -17q32 0 77 49zM60 529h180l-24 -333q0 -29 16 -49.5t48 -20.5q21 0 35.5 12.5t16.5 38.5l27 352h175l-26 -333
q-7 -99 -75.5 -156.5t-181.5 -57.5q-97 0 -157.5 45t-60.5 123q0 2 27 379z" />
    <glyph glyph-name="Umacron.sc" horiz-adv-x="555" 
d="M463 708l-1 -15l-36 -100h-271l1 15l36 100h271zM60 529h180l-24 -333q0 -29 16 -49.5t48 -20.5q21 0 35.5 12.5t16.5 38.5l27 352h175l-26 -333q-7 -99 -75.5 -156.5t-181.5 -57.5q-97 0 -157.5 45t-60.5 123q0 2 27 379z" />
    <glyph glyph-name="Ubreve.sc" horiz-adv-x="555" 
d="M331 677q69 0 86 79h97q-6 -84 -65 -134t-132 -50q-79 0 -122.5 49t-36.5 135h98q3 -79 75 -79zM60 529h180l-24 -333q0 -29 16 -49.5t48 -20.5q21 0 35.5 12.5t16.5 38.5l27 352h175l-26 -333q-7 -99 -75.5 -156.5t-181.5 -57.5q-97 0 -157.5 45t-60.5 123q0 2 27 379z
" />
    <glyph glyph-name="Uring.sc" horiz-adv-x="555" 
d="M423 666q-4 -44 -39 -75.5t-80 -31.5q-47 0 -76 29t-26 78q4 44 39 75.5t80 31.5q48 0 76.5 -28.5t25.5 -78.5zM271 666q-2 -17 9 -29t29 -12t30.5 12t14.5 29q1 18 -10 30t-29 12t-30 -12t-14 -30zM60 529h180l-24 -333q0 -29 16 -49.5t48 -20.5q21 0 35.5 12.5
t16.5 38.5l27 352h175l-26 -333q-7 -99 -75.5 -156.5t-181.5 -57.5q-97 0 -157.5 45t-60.5 123q0 2 27 379z" />
    <glyph glyph-name="Uhungarumlaut.sc" horiz-adv-x="555" 
d="M305 574l94 137l-142 -137h-142l117 171l170 -30l20 30l171 -30l-146 -141h-142zM60 529h180l-24 -333q0 -29 16 -49.5t48 -20.5q21 0 35.5 12.5t16.5 38.5l27 352h175l-26 -333q-7 -99 -75.5 -156.5t-181.5 -57.5q-97 0 -157.5 45t-60.5 123q0 2 27 379z" />
    <glyph glyph-name="Uogonek.sc" horiz-adv-x="555" 
d="M303 -218q-52 0 -83.5 27t-27.5 74q5 51 69 99h-10q-97 0 -157.5 45t-60.5 123q0 2 27 379h180l-24 -333q0 -29 16 -49.5t48 -20.5q21 0 35.5 12.5t16.5 38.5l27 352h175l-26 -333q-8 -118 -103 -176h2q-104 -69 -110 -119q0 -14 10.5 -23.5t24.5 -9.5q31 0 51 11l18 -71
q-16 -8 -47 -17t-51 -9z" />
    <glyph glyph-name="V.sc" horiz-adv-x="541" 
d="M355 0h-227l-116 529h186l65 -340l126 340h182z" />
    <glyph glyph-name="W.sc" horiz-adv-x="830" 
d="M466 0l-51 296l-103 -296h-215l-74 529h186l35 -315l100 315h200l55 -313l81 313h164l-148 -529h-230z" />
    <glyph glyph-name="Wcircumflex.sc" horiz-adv-x="830" 
d="M517 574l-68 63l-75 -63h-122l124 171h160l105 -171h-124zM466 0l-51 296l-103 -296h-215l-74 529h186l35 -315l100 315h200l55 -313l81 313h164l-148 -529h-230z" />
    <glyph glyph-name="Wgrave.sc" horiz-adv-x="830" 
d="M573 574h-142l-150 141l173 30zM466 0l-51 296l-103 -296h-215l-74 529h186l35 -315l100 315h200l55 -313l81 313h164l-148 -529h-230z" />
    <glyph glyph-name="Wacute.sc" horiz-adv-x="830" 
d="M351 574l139 171l170 -30l-168 -141h-141zM466 0l-51 296l-103 -296h-215l-74 529h186l35 -315l100 315h200l55 -313l81 313h164l-148 -529h-230z" />
    <glyph glyph-name="Wdieresis.sc" horiz-adv-x="830" 
d="M467 649q1 24 34.5 57.5t57.5 33.5q25 0 57 -28.5t31 -53.5q-1 -23 -35.5 -56t-56.5 -33q-25 0 -57 27.5t-31 52.5zM267 649q1 24 34.5 57.5t57.5 33.5q25 0 56.5 -28.5t30.5 -53.5q-1 -23 -35.5 -56t-56.5 -33q-25 0 -56.5 27.5t-30.5 52.5zM466 0l-51 296l-103 -296
h-215l-74 529h186l35 -315l100 315h200l55 -313l81 313h164l-148 -529h-230z" />
    <glyph glyph-name="X.sc" horiz-adv-x="517" 
d="M312 0l-69 124l-78 -124h-194l188 276l-141 253h192l62 -111l70 111h195l-182 -261l149 -268h-192z" />
    <glyph glyph-name="Y.sc" horiz-adv-x="516" 
d="M338 173h-2l-13 -173h-181l13 174l-150 355h185l79 -179l106 179h180z" />
    <glyph glyph-name="Yacute.sc" horiz-adv-x="516" 
d="M164 574l139 171l170 -30l-168 -141h-141zM338 173h-2l-13 -173h-181l13 174l-150 355h185l79 -179l106 179h180z" />
    <glyph glyph-name="Ycircumflex.sc" horiz-adv-x="516" 
d="M360 574l-68 63l-75 -63h-122l124 171h160l105 -171h-124zM338 173h-2l-13 -173h-181l13 174l-150 355h185l79 -179l106 179h180z" />
    <glyph glyph-name="Ydieresis.sc" horiz-adv-x="516" 
d="M296 649q1 24 34.5 57.5t57.5 33.5q25 0 57 -28.5t31 -53.5q-1 -23 -35.5 -56t-56.5 -33q-25 0 -57 27.5t-31 52.5zM96 649q1 24 34.5 57.5t57.5 33.5q25 0 56.5 -28.5t30.5 -53.5q-1 -23 -35.5 -56t-56.5 -33q-25 0 -56.5 27.5t-30.5 52.5zM338 173h-2l-13 -173h-181
l13 174l-150 355h185l79 -179l106 179h180z" />
    <glyph glyph-name="Ygrave.sc" horiz-adv-x="516" 
d="M424 574h-142l-150 141l173 30zM338 173h-2l-13 -173h-181l13 174l-150 355h185l79 -179l106 179h180z" />
    <glyph glyph-name="Z.sc" horiz-adv-x="488" 
d="M443 0h-435l7 120l230 271h-208l19 138h419l-8 -122l-242 -275h240z" />
    <glyph glyph-name="Zacute.sc" horiz-adv-x="488" 
d="M142 574l139 171l170 -30l-168 -141h-141zM443 0h-435l7 120l230 271h-208l19 138h419l-8 -122l-242 -275h240z" />
    <glyph glyph-name="Zdotaccent.sc" horiz-adv-x="488" 
d="M180 670q2 27 38.5 64t62.5 37t63 -31t36 -57q-2 -26 -39 -63t-62 -37q-27 0 -63.5 31t-35.5 56zM443 0h-435l7 120l230 271h-208l19 138h419l-8 -122l-242 -275h240z" />
    <glyph glyph-name="Zcaron.sc" horiz-adv-x="488" 
d="M354 580h-160l-105 171h124l68 -64l75 64h121zM443 0h-435l7 120l230 271h-208l19 138h419l-8 -122l-242 -275h240z" />
    <glyph glyph-name="AE.sc" horiz-adv-x="742" 
d="M324 400l-83 -184h76l14 184h-7zM300 0l7 85h-125l-38 -85h-178l264 529h491l-31 -122l-178 2l-6 -79h179l-34 -122l-154 6l-7 -90l216 2l-32 -126h-374z" />
    <glyph glyph-name="AEacute.sc" horiz-adv-x="742" 
d="M344 574l139 171l170 -30l-168 -141h-141zM324 400l-83 -184h76l14 184h-7zM300 0l7 85h-125l-38 -85h-178l264 529h491l-31 -122l-178 2l-6 -79h179l-34 -122l-154 6l-7 -90l216 2l-32 -126h-374z" />
    <glyph glyph-name="Eth.sc" horiz-adv-x="552" 
d="M257 0h-217l16 205h-53l8 116h54l16 208h206q269 0 269 -231q0 -136 -87.5 -217t-211.5 -81zM231 120h22q60 0 89 35.5t29 120.5q0 61 -28 96.5t-65 35.5h-25l-7 -87h85l-15 -116h-79z" />
    <glyph glyph-name="Oslash.sc" horiz-adv-x="553" 
d="M199 253q0 -16 1 -24l98 183q-17 5 -33 5q-66 0 -66 -164zM288 112q31 0 48.5 42.5t17.5 122.5q0 18 -1 26l-101 -185q16 -6 36 -6zM254 -16q-38 0 -71 6l-34 -63h-113l56 104q-79 63 -79 193q0 60 15.5 115t48 103t90.5 77t135 29q36 0 67 -6l31 58h114l-54 -99
q80 -63 80 -195q0 -40 -7 -80.5t-27 -85t-51 -78.5t-83 -56t-118 -22z" />
    <glyph glyph-name="Oslashacute.sc" horiz-adv-x="553" 
d="M179 574l139 171l170 -30l-168 -141h-141zM199 253q0 -16 1 -24l98 183q-17 5 -33 5q-66 0 -66 -164zM288 112q31 0 48.5 42.5t17.5 122.5q0 18 -1 26l-101 -185q16 -6 36 -6zM254 -16q-38 0 -71 6l-34 -63h-113l56 104q-79 63 -79 193q0 60 15.5 115t48 103t90.5 77
t135 29q36 0 67 -6l31 58h114l-54 -99q80 -63 80 -195q0 -40 -7 -80.5t-27 -85t-51 -78.5t-83 -56t-118 -22z" />
    <glyph glyph-name="Thorn.sc" horiz-adv-x="507" 
d="M251 332h-25l-10 -128h36q63 0 63 57q0 31 -18 50t-46 21zM255 86h-47l-7 -86h-181l41 529h180l-6 -74h42q108 0 163.5 -44t55.5 -125q0 -86 -67 -143t-174 -57z" />
    <glyph glyph-name="Dcroat.sc" horiz-adv-x="552" 
d="M257 0h-217l16 205h-53l8 116h54l16 208h206q269 0 269 -231q0 -136 -87.5 -217t-211.5 -81zM231 120h22q60 0 89 35.5t29 120.5q0 61 -28 96.5t-65 35.5h-25l-7 -87h85l-15 -116h-79z" />
    <glyph glyph-name="Hbar.sc" horiz-adv-x="571" 
d="M355 346l3 38h-128l-3 -38h128zM329 0l15 198h-128l-15 -198h-181l30 384h-57l2 13l25 87h38l3 45h180l-3 -45h128l3 45h181l-3 -45h63l-2 -13l-26 -87h-43l-29 -384h-181z" />
    <glyph glyph-name="IJ.sc" horiz-adv-x="599" 
d="M241 529l-40 -529h-181l41 529h180zM578 529l-28 -377q-5 -73 -63 -121.5t-149 -48.5q-66 0 -114 24l32 143q24 -14 69 -14q40 0 44 49l27 345h182z" />
    <glyph glyph-name="Ldot.sc" horiz-adv-x="434" 
d="M249 304q2 27 38.5 64t62.5 37t63 -31t36 -57q-2 -26 -39 -63t-62 -37q-27 0 -63.5 31t-35.5 56zM20 0l41 529h180l-30 -394l212 5l-24 -140h-379z" />
    <glyph glyph-name="Lslash.sc" horiz-adv-x="434" 
d="M35 0l14 175l-49 -22l6 126l52 23l18 227h180l-11 -145l108 48l-6 -124l-111 -50l-10 -123l212 5l-24 -140h-379z" />
    <glyph glyph-name="Eng.sc" horiz-adv-x="585" 
d="M339 -182q-72 0 -113 21l34 135q22 -18 62 -18q17 0 31.5 11t14.5 33h-4l-156 255l-17 -255h-171l41 529h167l152 -264l14 264h170l-33 -453h1l-6 -88q-5 -76 -60.5 -123t-126.5 -47z" />
    <glyph glyph-name="OE.sc" horiz-adv-x="752" 
d="M292 112q21 0 47 17l19 250q-24 41 -70 41q-43 0 -66 -34.5t-23 -134.5q0 -82 24.5 -110.5t68.5 -28.5zM703 0h-347q-52 -17 -107 -16q-102 -2 -169 56.5t-67 177.5q0 164 81.5 247t210.5 83q54 0 103 -19h342l-31 -122l-178 2l-6 -79h179l-34 -122l-154 6l-7 -90l216 2z
" />
    <glyph glyph-name="Tbar.sc" horiz-adv-x="480" 
d="M410 211h-82l-16 -211h-181l16 211h-113l4 27l32 79h85l6 73l-159 -1l29 140h475l-30 -140l-135 1l-5 -73h109l-3 -27z" />
    <glyph glyph-name="commaaccent.sc" horiz-adv-x="260" 
d="M64 -104q-1 20 26.5 43.5t50.5 23.5t48 -27.5t23 -44.5q-5 -53 -89 -161l-73 30q5 12 26 45.5t22 40.5q0 6 -17.5 23.5t-16.5 26.5z" />
    <glyph glyph-name="acute.sc" horiz-adv-x="309" 
d="M0 574l139 171l170 -30l-168 -141h-141z" />
    <glyph glyph-name="grave.sc" horiz-adv-x="312" 
d="M302 574h-142l-150 141l173 30z" />
    <glyph glyph-name="hungarumlaut.sc" horiz-adv-x="512" 
d="M207 574l94 137l-142 -137h-142l117 171l170 -30l20 30l171 -30l-146 -141h-142z" />
    <glyph glyph-name="circumflex.sc" horiz-adv-x="484" 
d="M312 574l-68 63l-75 -63h-122l124 171h160l105 -171h-124z" />
    <glyph glyph-name="caron.sc" horiz-adv-x="476" 
d="M308 580h-160l-105 171h124l68 -64l75 64h121z" />
    <glyph glyph-name="breve.sc" horiz-adv-x="491" 
d="M242 677q69 0 86 79h97q-6 -84 -65 -134t-132 -50q-79 0 -122.5 49t-36.5 135h98q3 -79 75 -79z" />
    <glyph glyph-name="tilde.sc" horiz-adv-x="519" 
d="M398 744l54 -59q-13 -32 -61.5 -72t-78.5 -40q-19 0 -69 16.5t-62 16.5q-17 0 -40 -17.5t-28 -26.5l-46 70q-3 0 20.5 24t55 48.5t50.5 24.5q23 0 69 -17t59 -17q32 0 77 49z" />
    <glyph glyph-name="macron.sc" horiz-adv-x="424" 
d="M365 708l-1 -15l-36 -100h-271l1 15l36 100h271z" />
    <glyph glyph-name="dieresis.sc" horiz-adv-x="560" 
d="M291 649q1 24 34.5 57.5t57.5 33.5q25 0 57 -28.5t31 -53.5q-1 -23 -35.5 -56t-56.5 -33q-25 0 -57 27.5t-31 52.5zM91 649q1 24 34.5 57.5t57.5 33.5q25 0 56.5 -28.5t30.5 -53.5q-1 -23 -35.5 -56t-56.5 -33q-25 0 -56.5 27.5t-30.5 52.5z" />
    <glyph glyph-name="dotaccent.sc" horiz-adv-x="397" 
d="M99 670q2 27 38.5 64t62.5 37t63 -31t36 -57q-2 -26 -39 -63t-62 -37q-27 0 -63.5 31t-35.5 56z" />
    <glyph glyph-name="ring.sc" horiz-adv-x="390" 
d="M305 666q-4 -44 -39 -75.5t-80 -31.5q-47 0 -76 29t-26 78q4 44 39 75.5t80 31.5q48 0 76.5 -28.5t25.5 -78.5zM153 666q-2 -17 9 -29t29 -12t30.5 12t14.5 29q1 18 -10 30t-29 12t-30 -12t-14 -30z" />
    <glyph glyph-name="cedilla.sc" horiz-adv-x="304" 
d="M77 -100l56 100h64l-22 -50q85 -28 81 -78q-3 -41 -51.5 -75t-140.5 -38l-15 65q97 9 99 34q2 23 -69 37z" />
    <glyph glyph-name="ogonek.sc" horiz-adv-x="341" 
d="M63 -137q3 33 36 70t96 67h83q-104 -69 -110 -119q0 -14 10.5 -23.5t24.5 -9.5q31 0 51 11l18 -71q-16 -8 -47 -17t-51 -9q-52 0 -83.5 27t-27.5 74z" />
    <glyph glyph-name="Dotlessi.sc" horiz-adv-x="258" 
d="M268 529l-40 -529h-177l40 529h177z" />
    <glyph glyph-name="Tcedilla.sc" horiz-adv-x="480" 
d="M197 0h-66l30 390l-159 -1l29 140h475l-30 -140l-135 1l-29 -390h-51l-22 -50q85 -28 81 -78q-3 -41 -51.5 -75t-140.5 -38l-15 65q97 9 99 34q2 23 -69 37l-2 5z" />
    <glyph glyph-name="f_f.sc" horiz-adv-x="872" 
d="M372 189l-156 6l-15 -195h-181l41 529h380l-31 -122l-178 2l-8 -103h181zM812 189l-156 6l-15 -195h-181l41 529h380l-31 -122l-178 2l-8 -103h181z" />
    <glyph glyph-name="f_f_i.sc" horiz-adv-x="1147" 
d="M1126 529l-40 -529h-181l41 529h180zM372 189l-156 6l-15 -195h-181l41 529h380l-31 -122l-178 2l-8 -103h181zM814 189l-156 6l-15 -195h-181l41 529h380l-31 -122l-178 2l-8 -103h181z" />
    <glyph glyph-name="f_f_l.sc" horiz-adv-x="1310" 
d="M372 189l-156 6l-15 -195h-181l41 529h380l-31 -122l-178 2l-8 -103h181zM809 189l-156 6l-15 -195h-181l41 529h380l-31 -122l-178 2l-8 -103h181zM896 0l41 529h180l-30 -394l212 5l-24 -140h-379z" />
    <glyph glyph-name="fi.sc" horiz-adv-x="710" 
d="M689 529l-40 -529h-181l41 529h180zM372 189l-156 6l-15 -195h-181l41 529h380l-31 -122l-178 2l-8 -103h181z" />
    <glyph glyph-name="fl.sc" horiz-adv-x="886" 
d="M372 189l-156 6l-15 -195h-181l41 529h380l-31 -122l-178 2l-8 -103h181zM472 0l41 529h180l-30 -394l212 5l-24 -140h-379z" />
    </font>
</defs>
</svg>
