<?xml version="1.0" standalone="no"?>
<!DOCTYPE svg PUBLIC "-//W3C//DTD SVG 1.1//EN" "http://www.w3.org/Graphics/SVG/1.1/DTD/svg11.dtd" >
<svg xmlns="http://www.w3.org/2000/svg" xmlns:xlink="http://www.w3.org/1999/xlink" version="1.1">
<metadata>
Created by FontForge 20170731 at Sun Apr  3 01:41:17 2016
 By Aleksey,,,
Universidad Nacional de Colombia, Unidad de Medios de Comunicacio'n (Unimedios), 2012-2015.
</metadata>
<defs>
<font id="AncizarSans-Light" horiz-adv-x="518" >
  <font-face 
    font-family="Ancizar Sans Light"
    font-weight="300"
    font-stretch="normal"
    units-per-em="1000"
    panose-1="2 11 5 2 4 3 0 0 0 3"
    ascent="750"
    descent="-250"
    x-height="450"
    cap-height="612"
    bbox="-60 -243 1125 854"
    underline-thickness="0"
    underline-position="0"
    unicode-range="U+0020-FB04"
  />
<missing-glyph horiz-adv-x="600" 
d="M50 0v703h500v-703h-500zM300 397l170 256h-340zM100 608v-513l170 256zM330 351l170 -256v513zM130 50h340l-170 256z" />
    <glyph glyph-name="f_f" unicode="ff" horiz-adv-x="591" 
d="M172 499v-49h214v41q0 69 21 114q-62 25 -129 25q-45 0 -75.5 -31.5t-30.5 -99.5zM386 0v402h-214v-402h-65v402h-69v38l66 10h3v8q0 101 52.5 160.5t157.5 59.5q58 0 125 -23q46 45 129 45q22 0 42 -5l-9 -54q-30 7 -72 7q-34 0 -57.5 -26.5t-23.5 -79.5v-92h123l-6 -48
h-117v-402h-65z" />
    <glyph glyph-name="fi" unicode="fi" horiz-adv-x="522" 
d="M378 0v402h-213v-402h-66v402h-61v38l61 10v31q0 106 56.5 162.5t151.5 56.5q68 0 134 -24l-20 -62q-84 35 -152 35q-44 0 -74 -32t-30 -94v-73h213v1l66 9v-460h-66z" />
    <glyph glyph-name="fl" unicode="fl" horiz-adv-x="562" 
d="M454 -10q-33 0 -54 19t-21 54v566q-60 20 -110 20q-44 0 -74 -32t-30 -94v-73h129l-6 -48h-123v-402h-66v402h-61v38l61 10v31q0 106 56.5 162.5t151.5 56.5q57 0 105 -15l31 6v-617q0 -31 34 -31q23 0 42 7l8 -45q-30 -15 -73 -15z" />
    <glyph glyph-name="f_f_i" unicode="ffi" horiz-adv-x="809" 
d="M172 499v-49h214v31q0 72 26 121q-61 28 -134 28q-45 0 -75.5 -31.5t-30.5 -99.5zM386 0v402h-214v-402h-65v402h-69v38l66 10h3v8q0 101 52.5 160.5t157.5 59.5q60 0 134 -26q54 48 142 48q70 0 134 -24l-20 -62q-82 35 -151 35q-45 0 -75 -32t-30 -94v-73h214v1l65 9
v-460h-65v402h-214v-402h-65z" />
    <glyph glyph-name="f_f_l" unicode="ffl" horiz-adv-x="847" 
d="M172 499v-49h214v31q0 72 26 121q-61 28 -134 28q-45 0 -75.5 -31.5t-30.5 -99.5zM741 -10q-33 0 -54 19t-21 54v566q-60 20 -110 20q-45 0 -75 -32t-30 -94v-73h130l-6 -48h-124v-402h-65v402h-214v-402h-65v402h-69v38l66 10h3v8q0 101 52.5 160.5t157.5 59.5
q60 0 134 -26q54 48 142 48q59 0 105 -15l32 6v-617q0 -31 34 -31q23 0 42 7l8 -45q-30 -15 -73 -15z" />
    <glyph glyph-name=".notdef" horiz-adv-x="600" 
d="M50 0v703h500v-703h-500zM300 397l170 256h-340zM100 608v-513l170 256zM330 351l170 -256v513zM130 50h340l-170 256z" />
    <glyph glyph-name=".null" horiz-adv-x="0" 
 />
    <glyph glyph-name="nonmarkingreturn" horiz-adv-x="333" 
 />
    <glyph glyph-name="space" unicode=" " horiz-adv-x="214" 
 />
    <glyph glyph-name="exclam" unicode="!" horiz-adv-x="301" 
d="M172 170l-52 -19q4 271 -21 457l87 31q-14 -271 -14 -469zM95 42q0 16 20.5 37t34.5 21t35 -19t21 -34q0 -18 -20 -38.5t-34 -20.5t-35.5 19t-21.5 35z" />
    <glyph glyph-name="quotedbl" unicode="&#x22;" horiz-adv-x="312" 
d="M203 487l-15 206h63l-14 -206h-34zM75 487l-13 206h62l-15 -206h-34z" />
    <glyph glyph-name="numbersign" unicode="#" horiz-adv-x="503" 
d="M298 234l31 126h-115l-31 -126h115zM241 0l46 189h-115l-46 -189h-52l46 189h-101v15l10 30h102l31 126h-113v15l10 28h113l51 209h52l-51 -209h115l51 209h52l-51 -209h95v-15l-11 -28h-94l-31 -126h106v-15l-11 -30h-106l-46 -189h-52z" />
    <glyph glyph-name="dollar" unicode="$" 
d="M291 -137h-69l12 128q-9 -1 -26 -1q-29 0 -71.5 7t-65.5 17l18 65q87 -35 154 -35q57 0 92.5 26.5t35.5 73.5q0 49 -26.5 79.5t-108.5 64.5q-79 33 -114.5 74t-35.5 100t40.5 102t110.5 54l-11 124h69l-11 -120q88 0 146 -21l-19 -63q-82 30 -150 30q-52 0 -80 -24
t-28 -68q0 -45 28.5 -72.5t101.5 -59.5q92 -40 124 -79.5t32 -94.5q0 -68 -41.5 -113.5t-118.5 -60.5z" />
    <glyph glyph-name="percent" unicode="%" horiz-adv-x="588" 
d="M291 487q0 -63 -40 -106.5t-99 -43.5q-55 0 -88.5 39t-33.5 97q0 62 39.5 106t99.5 44q54 0 88 -39t34 -97zM55 0l425 612h55l-423 -612h-57zM239 479q0 103 -86 103q-39 0 -55.5 -25.5t-16.5 -75.5q0 -103 86 -103q72 0 72 101zM558 139q0 -63 -39.5 -106t-99.5 -43
q-55 0 -88.5 38.5t-33.5 96.5q0 63 39.5 107t99.5 44q54 0 88 -39t34 -98zM506 131q0 103 -86 103q-39 0 -55.5 -25.5t-16.5 -75.5q0 -102 86 -102q72 0 72 100z" />
    <glyph glyph-name="ampersand" unicode="&#x26;" horiz-adv-x="632" 
d="M242 42q81 0 159 65q-82 78 -147 147q-12 12 -33 30q-49 -31 -76.5 -62t-27.5 -70q0 -54 39.5 -82t85.5 -28zM533 -8q-38 30 -99 85q-105 -87 -218 -89q-81 1 -124.5 44t-43.5 102q0 55 29.5 89t109.5 92q-85 79 -85 155q0 64 50 108t123 45q86 0 138 -32l-25 -57
q-75 35 -139 35q-39 1 -62.5 -22.5t-23.5 -63.5q0 -24 14.5 -50.5t29 -42.5t54.5 -55t57 -57q61 -61 128 -123q41 56 41 119t-43 123l65 23q38 -49 38 -123q0 -93 -67 -173q72 -66 134 -118v-9z" />
    <glyph glyph-name="quotesingle" unicode="'" horiz-adv-x="185" 
d="M76 487l-14 206h62l-14 -206h-34z" />
    <glyph glyph-name="parenleft" unicode="(" horiz-adv-x="315" 
d="M295 -87l-39 -35q-185 141 -185 401q0 129 42.5 226.5t142.5 174.5l39 -35q-164 -131 -164 -366q0 -234 164 -366z" />
    <glyph glyph-name="parenright" unicode=")" horiz-adv-x="315" 
d="M20 644l39 35q185 -141 185 -401q0 -129 -42.5 -226.5t-142.5 -174.5l-39 35q164 131 164 366q0 234 -164 366z" />
    <glyph glyph-name="asterisk" unicode="*" horiz-adv-x="430" 
d="M209 690q16 -37 16 -83q0 -41 -12 -73l-16 -4q-9 66 -38 138zM365 595q-12 -23 -52 -49.5t-81 -35.5l-12 19q66 54 100 98zM50 602q25 1 67 -21t70 -52l-7 -16q-59 25 -138 34zM362 414q-24 -2 -67 20.5t-72 53.5l8 15q58 -23 136 -33zM45 419q11 23 53 50.5t81 33.5
l10 -14q-51 -39 -99 -104zM201 327q-16 29 -16 79q0 47 11 79l19 2q7 -59 37 -136z" />
    <glyph glyph-name="plus" unicode="+" 
d="M459 240h-173v-177h-55v177h-174v51h174v169h55v-169h173v-51z" />
    <glyph glyph-name="comma" unicode="," horiz-adv-x="232" 
d="M73 49q0 14 14.5 27.5t27.5 13.5t33.5 -20t20.5 -41q0 -32 -61 -174l-45 16q43 115 43 128q0 4 -16.5 20.5t-16.5 29.5z" />
    <glyph glyph-name="hyphen" unicode="-" horiz-adv-x="311" 
d="M264 270v-12l-17 -40h-199v12l15 40h201z" />
    <glyph glyph-name="period" unicode="." horiz-adv-x="232" 
d="M65 35q0 15 18 35t30 20q13 0 34 -16.5t21 -30.5q0 -15 -18.5 -34t-31.5 -19t-33 15.5t-20 29.5z" />
    <glyph glyph-name="slash" unicode="/" horiz-adv-x="316" 
d="M32 -110l194 803h58l-194 -803h-58z" />
    <glyph glyph-name="zero" unicode="0" 
d="M475 318q0 -154 -62.5 -241t-167.5 -87q-93 0 -147.5 80.5t-54.5 223.5q0 154 62.5 241t167.5 87q94 0 148 -80t54 -224zM405 306q0 132 -44 194.5t-114 62.5q-66 0 -101.5 -59.5t-35.5 -197.5q0 -132 44 -195t114 -63q66 0 101.5 59.5t35.5 198.5z" />
    <glyph glyph-name="one" unicode="1" 
d="M343 0h-70v548l-134 -58l-19 62q47 13 170 60h53v-612z" />
    <glyph glyph-name="two" unicode="2" 
d="M438 0h-361v67q157 144 219 229t62 156q0 49 -33 81.5t-86 32.5q-52 0 -137 -35l-21 52q98 39 176 39q81 0 129.5 -44.5t48.5 -119.5q0 -80 -73 -172.5t-220 -225.5l309 5z" />
    <glyph glyph-name="three" unicode="3" 
d="M191 -10q-82 0 -127 12l17 62q66 -18 141 -18q57 0 90.5 29.5t33.5 83.5q0 62 -43 94.5t-108 32.5q-15 0 -39 -2l-14 57q92 0 140 31t48 87q0 54 -34.5 80.5t-80.5 26.5q-51 0 -125 -33l-21 52q86 37 164 37q73 0 118 -37t45 -99q0 -59 -36.5 -103.5t-91.5 -61.5
q69 -11 108.5 -49t39.5 -93q0 -85 -67.5 -137t-157.5 -52z" />
    <glyph glyph-name="four" unicode="4" 
d="M308 198v310l-235 -310h235zM468 142h-93v-142h-67v142h-309v41l333 441h43v-426h116z" />
    <glyph glyph-name="five" unicode="5" 
d="M177 -10q-42 0 -106 15l20 63q71 -22 141 -22q65 0 102.5 34t37.5 91q0 37 -16.5 64.5t-42.5 41.5t-52 20.5t-51 6.5q-54 0 -103 -11l15 319h316l-15 -60h-246l-12 -196q42 6 69 6q95 0 151 -46t56 -115q0 -96 -69 -153.5t-195 -57.5z" />
    <glyph glyph-name="six" unicode="6" 
d="M457 197q0 -85 -57.5 -146t-141.5 -61q-88 0 -141.5 70.5t-53.5 203.5q0 178 71 268t195 90q64 0 109 -15l-17 -67q-5 1 -21.5 6t-29.5 8t-34 6t-40 3q-77 0 -117 -53.5t-48 -189.5q82 53 157 53q84 0 126.5 -50t42.5 -126zM276 46q53 0 83.5 34.5t30.5 97.5
q0 58 -32.5 96.5t-101.5 38.5q-59 0 -127 -37v-28q0 -86 36.5 -144t110.5 -58z" />
    <glyph glyph-name="seven" unicode="7" 
d="M199 -13l-66 26q38 91 124 274.5t131 261.5l-324 -3l11 64h373v-54q-42 -78 -128.5 -277t-120.5 -292z" />
    <glyph glyph-name="eight" unicode="8" 
d="M240 -10q-82 0 -131 40t-49 107q0 54 35 95t99 83q-57 32 -83 67t-26 86q0 62 52.5 107.5t135.5 45.5q65 0 112 -34.5t47 -94.5q0 -84 -122 -163q79 -39 112.5 -75t33.5 -88q0 -72 -60 -124t-156 -52zM152 476q0 -64 110 -123q104 59 104 123q0 36 -31 63.5t-89 27.5
q-45 0 -69.5 -25.5t-24.5 -65.5zM274 45q50 0 83 28t33 72q0 38 -28.5 69.5t-119.5 75.5q-33 -22 -47.5 -33t-33.5 -28.5t-26 -35.5t-7 -40q0 -51 41 -79.5t105 -28.5z" />
    <glyph glyph-name="nine" unicode="9" 
d="M265 300q59 0 122 26q1 12 1 37q0 89 -38.5 145t-114.5 56q-104 0 -104 -129q0 -58 32.5 -96.5t101.5 -38.5zM170 -10q-44 0 -94 12l12 64q47 -19 116 -19q73 0 120.5 59t59.5 176q-66 -42 -153 -42q-72 0 -119.5 50t-47.5 123q0 91 56.5 150t138.5 59q90 0 143 -70.5
t53 -202.5q0 -167 -82 -263t-203 -96z" />
    <glyph glyph-name="colon" unicode=":" horiz-adv-x="232" 
d="M65 315q0 15 18 35t30 20q13 0 34 -16.5t21 -30.5q0 -15 -18.5 -34t-31.5 -19t-33 15.5t-20 29.5zM65 35q0 15 18 35t30 20q13 0 34 -16.5t21 -30.5q0 -15 -18.5 -34t-31.5 -19t-33 15.5t-20 29.5z" />
    <glyph glyph-name="semicolon" unicode=";" horiz-adv-x="232" 
d="M65 315q0 15 18 35t30 20q13 0 34 -16.5t21 -30.5q0 -15 -18.5 -34t-31.5 -19t-33 15.5t-20 29.5zM73 49q0 14 14.5 27.5t27.5 13.5t33.5 -20t20.5 -41q0 -32 -61 -174l-45 16q43 115 43 128q0 4 -16.5 20.5t-16.5 29.5z" />
    <glyph glyph-name="equal" unicode="=" 
d="M431 346v-15l-15 -34h-330v15l16 34h329zM431 234v-15l-15 -33h-330v15l16 33h329z" />
    <glyph glyph-name="question" unicode="?" horiz-adv-x="386" 
d="M231 171l-52 -21q-15 18 -22 26.5t-15 26t-8 35.5q0 29 14.5 48t56.5 54q43 36 58.5 61t15.5 62q0 47 -33 76.5t-82 29.5q-31 0 -107 -46l-23 52q80 44 160 44q68 0 113 -40t45 -104q0 -43 -24.5 -75t-75.5 -75q-34 -27 -47 -41t-13 -29q0 -12 12 -38t27 -46zM133 43
q0 13 19.5 32.5t33.5 19.5q12 0 31.5 -18t19.5 -32t-20.5 -32.5t-31.5 -18.5q-14 0 -33 17t-19 32z" />
    <glyph glyph-name="at" unicode="@" horiz-adv-x="806" 
d="M377 -151q-47 0 -91.5 11t-89.5 38t-78.5 68.5t-54.5 107.5t-21 150q0 192 115.5 314.5t276.5 122.5q149 0 239.5 -75t90.5 -209q0 -117 -79 -206t-191 -117l-18 128v1q-33 -60 -68 -94t-60 -34q-88 0 -88 176q0 94 47 164.5t139 70.5q46 0 84 -23v-339q73 36 122.5 103
t49.5 162q0 110 -76 175.5t-206 65.5q-137 0 -224 -102.5t-87 -276.5q0 -158 79.5 -242.5t206.5 -84.5q22 0 44 2.5t37.5 5.5t34 9t27 9t24.5 10t19 8l18 -45q-39 -17 -59.5 -25t-68.5 -18.5t-94 -10.5zM371 109q9 0 21 7.5t27 26.5t27.5 46.5t21 73.5t8.5 102v44
q-25 10 -60 10q-56 0 -76.5 -46.5t-20.5 -130.5q0 -75 13 -104t39 -29z" />
    <glyph glyph-name="A" unicode="A" horiz-adv-x="554" 
d="M369 262l-97 271l-94 -271h191zM464 0l-74 206h-232l-71 -206h-72l226 612h71l227 -612h-75z" />
    <glyph glyph-name="B" unicode="B" horiz-adv-x="540" 
d="M264 336q55 0 85 28t30 77q0 55 -33 87t-95 32q-7 0 -35.5 0.5t-44.5 0.5v-222q45 -3 93 -3zM279 53q141 0 141 110q0 59 -41.5 91.5t-115.5 32.5q-30 0 -92 -2v-230q68 -2 108 -2zM99 0v612h171q80 0 129.5 -41t49.5 -104q0 -95 -90 -145q54 -11 93.5 -46t39.5 -98
q0 -81 -64 -129.5t-176 -48.5h-153z" />
    <glyph glyph-name="C" unicode="C" horiz-adv-x="543" 
d="M503 86l12 -55q-29 -16 -78 -28.5t-98 -12.5q-132 0 -210.5 79.5t-78.5 225.5q0 145 79 236t213 91q42 0 91.5 -8.5t72.5 -20.5l-23 -60q-66 32 -168 32q-34 0 -66 -12.5t-61.5 -39.5t-47 -77.5t-17.5 -119.5q0 -137 63 -202t163 -65q78 0 154 37z" />
    <glyph glyph-name="D" unicode="D" horiz-adv-x="639" 
d="M99 612h198q134 0 213.5 -76t79.5 -205q0 -152 -93 -242.5t-240 -90.5q-88 0 -158 14v600zM171 559v-497q55 -9 124 -9q91 0 155.5 64.5t64.5 199.5q0 115 -66.5 178.5t-176.5 63.5h-101z" />
    <glyph glyph-name="E" unicode="E" horiz-adv-x="501" 
d="M99 0v612h342l-9 -59l-261 4v-212h240l-10 -56l-230 3v-234l286 4l-9 -62h-349z" />
    <glyph glyph-name="F" unicode="F" horiz-adv-x="484" 
d="M399 279l-228 3v-282h-72v612h342l-9 -59l-261 3v-218h238z" />
    <glyph glyph-name="G" unicode="G" horiz-adv-x="589" 
d="M527 35q-26 -18 -78.5 -31.5t-96.5 -13.5q-136 0 -219 76t-83 231q0 139 81.5 232t218.5 93q115 0 178 -34l-26 -61q-81 37 -180 37q-32 0 -64 -12t-63.5 -38t-51.5 -77.5t-20 -120.5q0 -138 66.5 -203.5t171.5 -65.5q53 0 101 15l-1 242h66v-269z" />
    <glyph glyph-name="H" unicode="H" horiz-adv-x="646" 
d="M475 0v289h-304v-289h-72v612h72v-265h304v265h72v-612h-72z" />
    <glyph glyph-name="I" unicode="I" horiz-adv-x="270" 
d="M171 612v-612h-72v612h72z" />
    <glyph glyph-name="J" unicode="J" horiz-adv-x="342" 
d="M258 612v-439q0 -90 -48 -136.5t-126 -46.5q-28 0 -72 11l13 58q47 -14 82 -14q36 0 57.5 26.5t21.5 72.5v468h72z" />
    <glyph glyph-name="K" unicode="K" horiz-adv-x="561" 
d="M553 0h-98l-284 314l273 298h85l-277 -292zM171 612v-612h-72v612h72z" />
    <glyph glyph-name="L" unicode="L" horiz-adv-x="437" 
d="M99 0v612h72v-554l256 4l-9 -62h-319z" />
    <glyph glyph-name="M" unicode="M" horiz-adv-x="785" 
d="M364 0l-193 523l-50 -523h-67l68 612h83l191 -513l180 513h88l67 -612h-72l-51 526l-187 -526h-57z" />
    <glyph glyph-name="N" unicode="N" horiz-adv-x="659" 
d="M494 0l-334 508v-508h-61v612h71l329 -502v502h61v-612h-66z" />
    <glyph glyph-name="O" unicode="O" horiz-adv-x="658" 
d="M609 318q0 -153 -84 -240.5t-217 -87.5q-114 0 -186 81t-72 223q0 153 83 240.5t216 87.5q114 0 187 -81t73 -223zM537 290q0 144 -60.5 210t-161.5 66q-82 0 -138 -63t-56 -181q0 -145 60 -210.5t161 -65.5q82 0 138.5 62t56.5 182z" />
    <glyph glyph-name="P" unicode="P" horiz-adv-x="499" 
d="M258 296q144 0 144 130q0 64 -41 98.5t-119 34.5h-71v-259q56 -4 87 -4zM227 243q-10 0 -28.5 0.5t-27.5 0.5v-244h-72v612h168q100 0 154.5 -44t54.5 -123q0 -96 -71.5 -149t-177.5 -53z" />
    <glyph glyph-name="Q" unicode="Q" horiz-adv-x="658" 
d="M609 318q0 -153 -84 -240.5t-217 -87.5q-114 0 -186 81t-72 223q0 153 83 240.5t216 87.5q114 0 187 -81t73 -223zM537 290q0 144 -60.5 210t-161.5 66q-82 0 -138 -63t-56 -181q0 -145 60 -210.5t161 -65.5q82 0 138.5 62t56.5 182zM143 -84q50 35 103 35
q48 0 144 -25.5t125 -25.5q54 0 84 22v-65q-33 -24 -90 -24q-28 0 -129.5 31.5t-134.5 31.5q-28 0 -44.5 -7.5t-37.5 -26.5z" />
    <glyph glyph-name="R" unicode="R" horiz-adv-x="529" 
d="M259 313q54 0 89.5 29t35.5 87q0 62 -36 96t-95 34q-26 0 -82 -2v-241q29 -3 88 -3zM237 259q-6 0 -29 0.5t-37 0.5v-260h-72v612h160q95 0 146 -42.5t51 -116.5q0 -59 -30 -102.5t-80 -67.5l160 -283h-84l-140 263q-20 -4 -45 -4z" />
    <glyph glyph-name="S" unicode="S" horiz-adv-x="474" 
d="M214 288q-79 33 -114.5 74t-35.5 100q0 69 54 114.5t144 45.5q88 0 146 -21l-19 -63q-82 30 -150 30q-52 0 -80 -24t-28 -68q0 -45 28.5 -72.5t101.5 -59.5q92 -40 124 -79.5t32 -94.5q0 -83 -60.5 -131.5t-170.5 -48.5q-29 0 -71.5 7t-65.5 17l18 65q87 -35 154 -35
q57 0 92.5 26.5t35.5 73.5q0 49 -26.5 79.5t-108.5 64.5z" />
    <glyph glyph-name="T" unicode="T" horiz-adv-x="495" 
d="M475 552l-191 3v-555h-72v555l-200 -3l8 60h463z" />
    <glyph glyph-name="U" unicode="U" horiz-adv-x="639" 
d="M93 196v416h72v-383q0 -179 167 -179q70 0 108.5 38t38.5 115v409h67v-386q0 -115 -60.5 -175.5t-175.5 -60.5q-98 -1 -157.5 51.5t-59.5 154.5z" />
    <glyph glyph-name="V" unicode="V" horiz-adv-x="548" 
d="M305 0h-72l-223 612h76l187 -529l194 529h69z" />
    <glyph glyph-name="W" unicode="W" horiz-adv-x="858" 
d="M598 0l-169 517l-165 -517h-80l-152 612h71l128 -526l166 526h69l173 -525l119 525h66l-148 -612h-78z" />
    <glyph glyph-name="X" unicode="X" horiz-adv-x="540" 
d="M444 0l-181 269l-173 -269h-76l215 320l-196 292h82l160 -239l157 239h77l-199 -290l216 -322h-82z" />
    <glyph glyph-name="Y" unicode="Y" horiz-adv-x="520" 
d="M301 250v-250h-72v250l-222 362h83l180 -298l167 298h72z" />
    <glyph glyph-name="Z" unicode="Z" horiz-adv-x="522" 
d="M467 0h-429v48l360 510l-345 -7l12 61h410v-62l-356 -498l360 7z" />
    <glyph glyph-name="bracketleft" unicode="[" horiz-adv-x="315" 
d="M267 -68v-47h-170v786h170v-47h-114v-692h114z" />
    <glyph glyph-name="backslash" unicode="\" horiz-adv-x="316" 
d="M90 693l194 -803h-58l-194 803h58z" />
    <glyph glyph-name="bracketright" unicode="]" horiz-adv-x="315" 
d="M218 -115h-170v47h114v692h-114v47h170v-786z" />
    <glyph glyph-name="underscore" unicode="_" horiz-adv-x="440" 
d="M440 -101v-45h-440v45h440z" />
    <glyph glyph-name="grave" unicode="`" horiz-adv-x="340" 
d="M269 514h-53l-145 124l69 14z" />
    <glyph glyph-name="a" unicode="a" horiz-adv-x="433" 
d="M317 -10l-16 54q-87 -54 -131 -54q-55 0 -91 31.5t-36 83.5q0 65 63.5 104t193.5 40v53q0 49 -24.5 77t-68.5 28q-49 0 -135 -30l-17 44q101 39 173 39q62 0 98 -36t36 -105v-318zM184 43q43 0 116 39v113q-52 4 -79 4q-52 0 -84.5 -20.5t-32.5 -57.5q0 -39 24.5 -58.5
t55.5 -19.5z" />
    <glyph glyph-name="b" unicode="b" horiz-adv-x="500" 
d="M267 42q55 0 90.5 47t35.5 138q0 93 -40.5 136t-91.5 43q-55 0 -115 -35v-307q59 -22 121 -22zM248 -10q-53 0 -108 24l-27 -38l-33 12v692l66 11v-280q87 49 137 49q70 1 123 -55.5t53 -168.5q0 -120 -63.5 -183t-147.5 -63z" />
    <glyph glyph-name="c" unicode="c" horiz-adv-x="408" 
d="M374 64l11 -42q-24 -12 -65 -22t-77 -10q-94 0 -145.5 61t-51.5 165q0 109 59 176.5t150 67.5q87 0 118 -18l-11 -52q-70 21 -112 22q-62 -1 -99 -47t-37 -137q0 -92 39.5 -139t105.5 -47q54 0 115 22z" />
    <glyph glyph-name="d" unicode="d" horiz-adv-x="499" 
d="M239 43q50 0 115 36v306q-57 23 -122 23q-55 0 -90.5 -47t-35.5 -138q0 -93 40.5 -136.5t92.5 -43.5zM217 -10q-71 -1 -124 55.5t-53 168.5q0 62 19 110.5t50 77.5t67 43.5t75 14.5q50 0 103 -21v241l65 11v-690l-45 -11l-15 52q-93 -52 -142 -52z" />
    <glyph glyph-name="e" unicode="e" horiz-adv-x="445" 
d="M232 414q-53 0 -82 -28t-37 -97h226q0 125 -107 125zM406 23q-83 -33 -153 -33q-93 0 -150 57t-57 168q0 116 56 180.5t143 64.5q73 0 116 -44t43 -118q0 -45 -1 -55h-294v-19q0 -94 45 -137.5t113 -43.5t126 25z" />
    <glyph glyph-name="f" unicode="f" horiz-adv-x="304" 
d="M282 402h-117v-402h-66v402h-61v38l61 10v41q0 107 49 158t136 51q22 0 42 -5l-8 -54q-32 7 -72 7q-35 0 -58 -26.5t-23 -79.5v-92h123z" />
    <glyph glyph-name="g" unicode="g" horiz-adv-x="457" 
d="M309 309q0 54 -31 79t-80 25q-46 0 -67 -21t-21 -74q0 -51 31 -77.5t78 -26.5q90 0 90 95zM416 -35q0 -68 -69.5 -117.5t-159.5 -49.5q-70 0 -113.5 27t-43.5 76q0 53 72 100q14 10 58 35q-27 7 -42.5 23.5t-15.5 36.5q0 33 52 76q-48 11 -77.5 45.5t-29.5 86.5
q0 73 49.5 114.5t128.5 41.5q47 0 84 -23q7 1 24 4t35 6t35 6.5t27 4.5l11 2v-61h-19l-79 8q29 -35 29 -85q0 -73 -49 -114t-126 -41h-2q-32 -30 -32 -48q0 -16 16.5 -25t58.5 -17l85 -18q45 -10 69 -30.5t24 -63.5zM216 -151q59 0 98.5 29t39.5 68q0 28 -20.5 44t-70.5 25
l-53 11q-35 -16 -63 -35q-54 -37 -54 -79q0 -30 31.5 -46.5t91.5 -16.5z" />
    <glyph glyph-name="h" unicode="h" horiz-adv-x="494" 
d="M265 403q-37 0 -119 -33v-370h-66v680l66 11v-279q84 48 143 48q53 0 94.5 -33t41.5 -95v-332h-66v302q0 45 -24.5 73t-69.5 28z" />
    <glyph glyph-name="i" unicode="i" horiz-adv-x="226" 
d="M66 599q0 13 17.5 31.5t29.5 18.5t32 -14.5t20 -28.5q0 -13 -18 -31t-29 -18q-13 0 -32.5 14.5t-19.5 27.5zM80 448l66 12v-460h-66v448z" />
    <glyph glyph-name="j" unicode="j" horiz-adv-x="226" 
d="M62 599q0 13 17.5 31.5t29.5 18.5t32 -14.5t20 -28.5q0 -13 -18 -31t-29 -18q-13 0 -32.5 14.5t-19.5 27.5zM80 -14v462l66 12v-465q0 -92 -49 -155t-124 -63l-13 48q65 14 92.5 45t27.5 116z" />
    <glyph glyph-name="k" unicode="k" horiz-adv-x="430" 
d="M80 0v678l66 13v-691h-66zM429 0h-84l-198 246l-1 1l191 203h78l-198 -200z" />
    <glyph glyph-name="l" unicode="l" horiz-adv-x="264" 
d="M223 50l8 -45q-30 -15 -73 -15q-33 0 -54 19t-21 54v616l64 12v-617q0 -31 34 -31q23 0 42 7z" />
    <glyph glyph-name="m" unicode="m" horiz-adv-x="751" 
d="M262 405q-40 0 -116 -35v-370h-66v449l48 11l15 -50q86 50 140 50q81 0 113 -60q99 60 157 60q62 0 95.5 -36t33.5 -95v-329h-66v302q0 49 -21.5 76t-63.5 27q-43 0 -123 -39q4 -15 4 -37v-329h-65v302q0 49 -21.5 76t-63.5 27z" />
    <glyph glyph-name="n" unicode="n" horiz-adv-x="496" 
d="M266 403q-46 0 -120 -33v-370h-66v449l48 11l15 -50q89 50 146 50q63 0 99.5 -36t36.5 -95v-329h-66v302q0 48 -25 74.5t-68 26.5z" />
    <glyph glyph-name="o" unicode="o" horiz-adv-x="492" 
d="M452 234q0 -115 -60.5 -179.5t-161.5 -66.5q-85 2 -137.5 63t-52.5 165q0 115 61 179.5t165 64.5q86 0 136 -60.5t50 -165.5zM386 213q0 195 -151 195q-63 0 -96 -44.5t-33 -126.5q0 -100 39.5 -147.5t110.5 -47.5q64 0 97 45t33 126z" />
    <glyph glyph-name="p" unicode="p" horiz-adv-x="499" 
d="M267 42q55 0 90.5 47t35.5 138q0 93 -40 135t-92 42q-56 0 -115 -33v-307q59 -22 121 -22zM146 -203l-66 -12v664l48 11l16 -50q91 50 139 50q70 1 123 -55.5t53 -168.5q0 -120 -63.5 -183t-147.5 -63q-50 0 -102 21v-214z" />
    <glyph glyph-name="q" unicode="q" horiz-adv-x="500" 
d="M354 -217v256q-88 -48 -137 -50q-71 0 -124 56t-53 168q0 120 64 183.5t147 63.5q54 0 109 -25l27 39l33 -12v-667zM239 44q55 0 115 35v306q-57 23 -122 23q-55 0 -90.5 -47t-35.5 -139q0 -93 40.5 -135.5t92.5 -42.5z" />
    <glyph glyph-name="r" unicode="r" horiz-adv-x="324" 
d="M261 393q-56 -1 -115 -38v-355h-66v449l48 11l18 -61q81 61 153 61q3 1 4 0l-8 -68q-5 1 -34 1z" />
    <glyph glyph-name="s" unicode="s" horiz-adv-x="389" 
d="M175 -10q-67 0 -134 23l11 55q81 -28 152 -28q33 0 57 18.5t24 54.5q0 27 -20 45t-55 34l-64 27q-27 12 -44.5 23t-33.5 35.5t-16 56.5q0 56 49.5 91t101.5 35q94 0 138 -21l-15 -53q-89 24 -131 24q-38 0 -60.5 -16t-22.5 -45t17.5 -46.5t58.5 -33.5l52 -22
q25 -11 40 -19t33 -22.5t26.5 -34t8.5 -44.5q0 -60 -51.5 -98.5t-121.5 -38.5z" />
    <glyph glyph-name="t" unicode="t" horiz-adv-x="335" 
d="M322 15q-52 -25 -116 -25q-49 0 -82.5 29t-32.5 80l4 303h-78v38l78 10l1 74l66 12l-1 -86h152l-10 -48h-143l-3 -284q-1 -36 18 -53.5t51 -17.5q45 0 88 13z" />
    <glyph glyph-name="u" unicode="u" horiz-adv-x="496" 
d="M370 -10l-17 51q-32 -19 -74.5 -35t-71.5 -16q-63 0 -99.5 36t-36.5 95v328l66 11v-312q0 -48 25.5 -75.5t68.5 -27.5t119 35v369l66 11v-459z" />
    <glyph glyph-name="v" unicode="v" horiz-adv-x="433" 
d="M253 0h-78l-164 445l67 12l141 -394l136 387h68z" />
    <glyph glyph-name="w" unicode="w" horiz-adv-x="688" 
d="M462 0l-122 355l-117 -355h-76l-117 445l67 12l96 -386l121 374l57 12l131 -386l94 379h62l-124 -450h-72z" />
    <glyph glyph-name="x" unicode="x" horiz-adv-x="443" 
d="M347 0l-130 184l-125 -184h-74l170 225l-155 220l69 12l127 -180l115 173h73l-157 -217l165 -233h-78z" />
    <glyph glyph-name="y" unicode="y" horiz-adv-x="433" 
d="M15 -227h-14l-9 60q144 -13 214 167h-23l-162 444l66 13l140 -396q16 47 48 137t56.5 159.5t31.5 92.5h66q-94 -269 -166 -459q-43 -108 -106.5 -163t-141.5 -55z" />
    <glyph glyph-name="z" unicode="z" horiz-adv-x="410" 
d="M370 0h-330v47l241 351l-236 -3l6 55h310v-44l-246 -355l261 4z" />
    <glyph glyph-name="braceleft" unicode="{" horiz-adv-x="315" 
d="M54 295q75 22 75 70q0 23 -6.5 79t-6.5 105q0 130 149 130v-48q-38 0 -66 -17.5t-28 -50.5q0 -37 7.5 -102t7.5 -93q0 -34 -19.5 -58.5t-48.5 -32.5q29 -8 48.5 -32.5t19.5 -58.5q0 -28 -7.5 -93.5t-7.5 -102.5q0 -33 28 -50.5t66 -17.5v-48q-149 0 -149 130
q0 49 6.5 105t6.5 79q0 48 -75 70v37z" />
    <glyph glyph-name="bar" unicode="|" horiz-adv-x="253" 
d="M100 -220v913h53v-913h-53z" />
    <glyph glyph-name="braceright" unicode="}" horiz-adv-x="315" 
d="M197 277q-29 8 -48.5 32.5t-19.5 58.5q0 27 7.5 93.5t7.5 102.5q0 33 -28 50.5t-66 17.5v48q149 0 149 -130q0 -49 -6.5 -105t-6.5 -79q0 -48 75 -70v-37q-75 -22 -75 -70q0 -23 6.5 -79t6.5 -105q0 -130 -149 -130v48q38 0 66 17.5t28 50.5q0 37 -7.5 102t-7.5 93
q0 34 19.5 58.5t48.5 32.5z" />
    <glyph glyph-name="exclamdown" unicode="&#xa1;" horiz-adv-x="301" 
d="M206 402q0 -16 -20.5 -37t-34.5 -21t-35 19t-21 34q0 18 20 38.5t34 20.5t35.5 -19t21.5 -35zM129 274l52 19q-4 -271 21 -457l-87 -31q14 271 14 469z" />
    <glyph glyph-name="cent" unicode="&#xa2;" 
d="M427 102q-53 -26 -125 -31l13 -128h-63l8 128q-82 8 -127 68t-45 157t47.5 162t124.5 79l-10 125h63l-10 -122q86 -2 112 -18l-11 -52q-70 21 -112 22q-62 -1 -99 -47t-37 -137q0 -92 39.5 -139t105.5 -47q54 0 115 22z" />
    <glyph glyph-name="sterling" unicode="&#xa3;" 
d="M478 60l-14 -60h-397h-1l-26 56q73 21 98 47.5t25 83.5q0 25 -13 88h-93v13l23 34l47 2h14q-11 62 -11 105q0 86 53.5 139.5t142.5 53.5q79 0 122 -24l-21 -63q-75 31 -118 31q-57 0 -84 -28t-27 -95q0 -41 12 -119h190l-13 -49h-169q8 -46 8 -76q0 -88 -65 -146z" />
    <glyph glyph-name="section" unicode="&#xa7;" horiz-adv-x="488" 
d="M115 320q0 -37 27.5 -63.5t97.5 -54.5q61 14 96.5 40.5t35.5 62.5q0 37 -27.5 63.5t-97.5 54.5q-132 -33 -132 -103zM213 -73q-73 0 -130 22l18 54q93 -34 139 -34q94 0 94 71q0 31 -21 53t-67 41l-40 17q-91 39 -124.5 70.5t-33.5 84.5q0 49 40 84.5t106 54.5
q-106 44 -106 121q0 57 49.5 94.5t137.5 37.5q66 0 118 -18l-18 -54q-83 30 -128 30q-48 0 -71 -19t-22 -52q0 -31 21 -53t66 -41l41 -17q90 -39 124 -71t34 -84q0 -48 -40 -84t-106 -55q106 -44 106 -121q0 -57 -49.5 -94.5t-137.5 -37.5z" />
    <glyph glyph-name="dieresis" unicode="&#xa8;" horiz-adv-x="393" 
d="M239 600q0 12 15.5 28.5t26.5 16.5q10 0 28.5 -12.5t18.5 -23.5q0 -13 -16 -29.5t-26 -16.5q-12 0 -29.5 13t-17.5 24zM65 600q0 12 15.5 28.5t26.5 16.5q10 0 28.5 -12.5t18.5 -23.5q0 -13 -16 -29.5t-26 -16.5q-12 0 -29.5 13t-17.5 24z" />
    <glyph glyph-name="copyright" unicode="&#xa9;" horiz-adv-x="566" 
d="M33 239q0 114 73 182t177 68q114 0 182 -71t68 -179q0 -113 -73 -181t-177 -68q-114 0 -182 70.5t-68 178.5zM75 239q0 -96 58.5 -153.5t148.5 -57.5q95 0 151.5 59.5t56.5 151.5q0 97 -58.5 154t-149.5 57q-94 0 -150.5 -60.5t-56.5 -150.5zM371 147l8 -35
q-51 -20 -107 -20q-62 0 -97 39t-35 109q0 71 41 114.5t113 43.5q38 0 77 -13l-9 -36q-60 15 -91 15q-85 0 -85 -119q0 -59 29 -87t71 -28q39 0 85 17z" />
    <glyph glyph-name="ordfeminine" unicode="&#xaa;" horiz-adv-x="237" 
d="M168 344l-6 23q-40 -23 -75 -23q-27 0 -46.5 15t-19.5 45q0 33 37 53t101 21v25q0 43 -48 43q-19 0 -74 -15l-12 30q57 20 101 20q78 0 78 -71v-158zM103 379q22 0 56 14v54q-14 2 -39 2q-55 0 -55 -33q0 -18 11 -27.5t27 -9.5z" />
    <glyph glyph-name="guillemotleft" unicode="&#xab;" horiz-adv-x="524" 
d="M428 39l-183 193l183 193l31 -33l-132 -160l132 -160zM243 39l-183 193l183 193l31 -33l-132 -160l132 -160z" />
    <glyph glyph-name="registered" unicode="&#xae;" horiz-adv-x="566" 
d="M33 514q0 114 73 182t177 68q114 0 182 -71t68 -179q0 -112 -73 -180.5t-177 -68.5q-114 0 -182 70.5t-68 178.5zM75 514q0 -95 58.5 -152.5t148.5 -57.5q95 0 151.5 59.5t56.5 150.5q0 97 -58.5 154t-149.5 57q-94 0 -150.5 -60.5t-56.5 -150.5zM277 532q62 0 62 51
q0 55 -63 55h-38v-105q13 -1 39 -1zM267 501q-3 0 -13 0.5t-16 0.5v-128h-43v296h90q98 0 98 -80q0 -50 -55 -76l80 -140h-50l-67 129q-16 -2 -24 -2z" />
    <glyph glyph-name="macron" unicode="&#xaf;" horiz-adv-x="414" 
d="M334 610v-15l-15 -33h-239v15l15 33h239z" />
    <glyph glyph-name="twosuperior" unicode="&#xb2;" horiz-adv-x="269" 
d="M231 390h-202v34q40 36 56 51t44.5 44.5t40 50t11.5 37.5q0 27 -18 41.5t-45 14.5q-30 0 -75 -19l-13 35q43 23 106 23q42 0 70 -24t28 -61t-36 -80.5t-116 -109.5l158 4z" />
    <glyph glyph-name="threesuperior" unicode="&#xb3;" horiz-adv-x="268" 
d="M107 384q-38 0 -80 11l11 35q40 -11 82 -11q67 0 67 54q0 30 -22 45t-57 15q-10 0 -24 -2l-9 33q103 0 103 53q0 22 -17.5 35.5t-40.5 13.5q-32 0 -73 -18l-12 35q55 19 96 19q38 0 66 -18t28 -54q0 -26 -18.5 -46t-47.5 -29q75 -12 75 -73q0 -47 -39.5 -72.5
t-87.5 -25.5z" />
    <glyph glyph-name="acute" unicode="&#xb4;" horiz-adv-x="340" 
d="M71 514l129 138l69 -14l-145 -124h-53z" />
    <glyph glyph-name="paragraph" unicode="&#xb6;" horiz-adv-x="542" 
d="M298 568v-346h-68q-98 0 -152.5 53.5t-54.5 139.5q0 87 55 142t155 55h210v-587q0 -76 -49.5 -118.5t-131.5 -42.5q-38 0 -66 10l10 57q90 -26 131.5 -7.5t41.5 74.5v570h-81z" />
    <glyph glyph-name="cedilla" unicode="&#xb8;" horiz-adv-x="290" 
d="M89 -89l41 89h43l-26 -55q3 -2 10 -5q24 -12 35 -18.5t20.5 -19.5t9.5 -30q0 -35 -36.5 -63t-108.5 -36l-9 37q52 7 76.5 17t24.5 31q0 26 -77 48z" />
    <glyph glyph-name="onesuperior" unicode="&#xb9;" horiz-adv-x="204" 
d="M148 390h-46v265l-73 -29l-12 39q36 8 98 31h33v-306z" />
    <glyph glyph-name="ordmasculine" unicode="&#xba;" horiz-adv-x="273" 
d="M256 467q0 -56 -36 -89.5t-91 -33.5q-50 0 -78 30t-28 84q0 57 35.5 90t91.5 33q51 0 78.5 -30t27.5 -84zM208 457q0 91 -74 91q-33 0 -48.5 -18t-15.5 -61q0 -91 75 -91q33 0 48 17.5t15 61.5z" />
    <glyph glyph-name="guillemotright" unicode="&#xbb;" horiz-adv-x="524" 
d="M282 425l182 -193l-182 -193l-32 33l132 160l-132 161zM97 425l182 -193l-182 -193l-32 33l132 160l-132 161z" />
    <glyph glyph-name="questiondown" unicode="&#xbf;" horiz-adv-x="361" 
d="M234 405q0 -13 -19.5 -32.5t-33.5 -19.5q-11 0 -31 18t-20 32t20.5 32.5t31.5 18.5q14 0 33 -17t19 -32zM136 277l52 21q15 -18 22 -26.5t15 -26t8 -35.5q0 -29 -14.5 -48t-56.5 -54q-43 -36 -58.5 -61t-15.5 -62q0 -47 33 -76.5t82 -29.5q31 0 107 46l23 -52
q-80 -44 -160 -44q-68 0 -113 40t-45 104q0 43 24.5 75t75.5 75q34 27 47 41t13 29q0 12 -12 38t-27 46z" />
    <glyph glyph-name="Agrave" unicode="&#xc0;" horiz-adv-x="554" 
d="M348 664h-53l-145 124l69 14zM369 262l-97 271l-94 -271h191zM464 0l-74 206h-232l-71 -206h-72l226 612h71l227 -612h-75z" />
    <glyph glyph-name="Aacute" unicode="&#xc1;" horiz-adv-x="554" 
d="M226 664l129 138l69 -14l-145 -124h-53zM369 262l-97 271l-94 -271h191zM464 0l-74 206h-232l-71 -206h-72l226 612h71l227 -612h-75z" />
    <glyph glyph-name="Acircumflex" unicode="&#xc2;" horiz-adv-x="554" 
d="M363 664l-90 80l-91 -80h-54l126 138h37l126 -138h-54zM369 262l-97 271l-94 -271h191zM464 0l-74 206h-232l-71 -206h-72l226 612h71l227 -612h-75z" />
    <glyph glyph-name="Atilde" unicode="&#xc3;" horiz-adv-x="554" 
d="M393 772l27 -29q-38 -41 -60 -51q-16 -8 -33 -8q-19 0 -63.5 16.5t-56.5 16.5q-17 0 -37 -12.5t-28 -20.5l-25 27q55 60 99 60q23 0 62 -14.5t52 -14.5q31 0 63 30zM369 262l-97 271l-94 -271h191zM464 0l-74 206h-232l-71 -206h-72l226 612h71l227 -612h-75z" />
    <glyph glyph-name="Adieresis" unicode="&#xc4;" horiz-adv-x="554" 
d="M321 750q0 12 15.5 28.5t26.5 16.5q10 0 28.5 -12.5t18.5 -23.5q0 -13 -16 -29.5t-26 -16.5q-12 0 -29.5 13t-17.5 24zM147 750q0 12 15.5 28.5t26.5 16.5q10 0 28.5 -12.5t18.5 -23.5q0 -13 -16 -29.5t-26 -16.5q-12 0 -29.5 13t-17.5 24zM369 262l-97 271l-94 -271h191
zM464 0l-74 206h-232l-71 -206h-72l226 612h71l227 -612h-75z" />
    <glyph glyph-name="Aring" unicode="&#xc5;" horiz-adv-x="554" 
d="M363 740q0 -35 -27.5 -59.5t-62.5 -24.5q-37 0 -63 22.5t-26 61.5q0 35 27 60.5t63 25.5q37 0 63 -22.5t26 -63.5zM227 740q0 -20 13.5 -33t32.5 -13t33 13t14 33q0 22 -14 35t-33 13t-32.5 -13t-13.5 -35zM369 262l-97 271l-94 -271h191zM464 0l-74 206h-232l-71 -206
h-72l226 612h71l227 -612h-75z" />
    <glyph glyph-name="AE" unicode="&#xc6;" horiz-adv-x="794" 
d="M387 541l-155 -279h162v279h-7zM394 0v206h-193l-114 -206h-72l342 612h379l-9 -59l-261 4v-212h240l-10 -56l-230 3v-234l286 4l-9 -62h-349z" />
    <glyph glyph-name="Ccedilla" unicode="&#xc7;" horiz-adv-x="543" 
d="M400 -128q0 -35 -36.5 -63t-108.5 -36l-9 37q52 7 76.5 17t24.5 31q0 26 -77 48l-3 5l37 81q-117 10 -185.5 88.5t-68.5 214.5q0 145 79 236t213 91q42 0 91.5 -8.5t72.5 -20.5l-23 -60q-66 32 -168 32q-34 0 -66 -12.5t-61.5 -39.5t-47 -77.5t-17.5 -119.5
q0 -137 63 -202t163 -65q78 0 154 37l12 -55q-71 -40 -169 -41l-21 -45q3 -2 10 -5q24 -12 35 -18.5t20.5 -19.5t9.5 -30z" />
    <glyph glyph-name="Egrave" unicode="&#xc8;" horiz-adv-x="501" 
d="M370 664h-53l-145 124l69 14zM99 0v612h342l-9 -59l-261 4v-212h240l-10 -56l-230 3v-234l286 4l-9 -62h-349z" />
    <glyph glyph-name="Eacute" unicode="&#xc9;" horiz-adv-x="501" 
d="M196 664l129 138l69 -14l-145 -124h-53zM99 0v612h342l-9 -59l-261 4v-212h240l-10 -56l-230 3v-234l286 4l-9 -62h-349z" />
    <glyph glyph-name="Ecircumflex" unicode="&#xca;" horiz-adv-x="501" 
d="M368 664l-90 80l-91 -80h-54l126 138h37l126 -138h-54zM99 0v612h342l-9 -59l-261 4v-212h240l-10 -56l-230 3v-234l286 4l-9 -62h-349z" />
    <glyph glyph-name="Edieresis" unicode="&#xcb;" horiz-adv-x="501" 
d="M321 750q0 12 15.5 28.5t26.5 16.5q10 0 28.5 -12.5t18.5 -23.5q0 -13 -16 -29.5t-26 -16.5q-12 0 -29.5 13t-17.5 24zM147 750q0 12 15.5 28.5t26.5 16.5q10 0 28.5 -12.5t18.5 -23.5q0 -13 -16 -29.5t-26 -16.5q-12 0 -29.5 13t-17.5 24zM99 0v612h342l-9 -59l-261 4
v-212h240l-10 -56l-230 3v-234l286 4l-9 -62h-349z" />
    <glyph glyph-name="Igrave" unicode="&#xcc;" horiz-adv-x="270" 
d="M199 664h-53l-145 124l69 14zM171 612v-612h-72v612h72z" />
    <glyph glyph-name="Iacute" unicode="&#xcd;" horiz-adv-x="270" 
d="M91 664l129 138l69 -14l-145 -124h-53zM171 612v-612h-72v612h72z" />
    <glyph glyph-name="Icircumflex" unicode="&#xce;" horiz-adv-x="270" 
d="M226 664l-90 80l-91 -80h-54l126 138h37l126 -138h-54zM171 612v-612h-72v612h72z" />
    <glyph glyph-name="Idieresis" unicode="&#xcf;" horiz-adv-x="270" 
d="M163 747q0 12 15.5 28.5t26.5 16.5q10 0 28.5 -12.5t18.5 -23.5q0 -12 -16 -29t-26 -17q-11 0 -29 13t-18 24zM20 747q0 12 15.5 28.5t26.5 16.5q10 0 28 -12.5t18 -23.5q0 -12 -15.5 -29t-25.5 -17q-11 0 -29 13t-18 24zM171 612v-612h-72v612h72z" />
    <glyph glyph-name="Eth" unicode="&#xd0;" horiz-adv-x="644" 
d="M262 -2q-88 0 -158 14v278h-67v54h67v268h198q134 0 213.5 -76t79.5 -205q0 -152 -93 -242.5t-240 -90.5zM300 53q91 0 155.5 64.5t64.5 199.5q0 115 -66.5 178.5t-176.5 63.5h-101v-215h181l-10 -54h-171v-228q56 -9 124 -9z" />
    <glyph glyph-name="Ntilde" unicode="&#xd1;" horiz-adv-x="659" 
d="M460 772l27 -29q-38 -41 -60 -51q-16 -8 -33 -8q-19 0 -63.5 16.5t-56.5 16.5q-17 0 -37 -12.5t-28 -20.5l-25 27q55 60 99 60q23 0 62 -14.5t52 -14.5q31 0 63 30zM494 0l-334 508v-508h-61v612h71l329 -502v502h61v-612h-66z" />
    <glyph glyph-name="Ograve" unicode="&#xd2;" horiz-adv-x="658" 
d="M423 664h-53l-145 124l69 14zM609 318q0 -153 -84 -240.5t-217 -87.5q-114 0 -186 81t-72 223q0 153 83 240.5t216 87.5q114 0 187 -81t73 -223zM537 290q0 144 -60.5 210t-161.5 66q-82 0 -138 -63t-56 -181q0 -145 60 -210.5t161 -65.5q82 0 138.5 62t56.5 182z" />
    <glyph glyph-name="Oacute" unicode="&#xd3;" horiz-adv-x="658" 
d="M233 664l129 138l69 -14l-145 -124h-53zM609 318q0 -153 -84 -240.5t-217 -87.5q-114 0 -186 81t-72 223q0 153 83 240.5t216 87.5q114 0 187 -81t73 -223zM537 290q0 144 -60.5 210t-161.5 66q-82 0 -138 -63t-56 -181q0 -145 60 -210.5t161 -65.5q82 0 138.5 62
t56.5 182z" />
    <glyph glyph-name="Ocircumflex" unicode="&#xd4;" horiz-adv-x="658" 
d="M412 664l-90 80l-91 -80h-54l126 138h37l126 -138h-54zM609 318q0 -153 -84 -240.5t-217 -87.5q-114 0 -186 81t-72 223q0 153 83 240.5t216 87.5q114 0 187 -81t73 -223zM537 290q0 144 -60.5 210t-161.5 66q-82 0 -138 -63t-56 -181q0 -145 60 -210.5t161 -65.5
q82 0 138.5 62t56.5 182z" />
    <glyph glyph-name="Otilde" unicode="&#xd5;" horiz-adv-x="658" 
d="M452 772l27 -29q-38 -41 -60 -51q-16 -8 -33 -8q-19 0 -63.5 16.5t-56.5 16.5q-17 0 -37 -12.5t-28 -20.5l-25 27q55 60 99 60q23 0 62 -14.5t52 -14.5q31 0 63 30zM609 318q0 -153 -84 -240.5t-217 -87.5q-114 0 -186 81t-72 223q0 153 83 240.5t216 87.5q114 0 187 -81
t73 -223zM537 290q0 144 -60.5 210t-161.5 66q-82 0 -138 -63t-56 -181q0 -145 60 -210.5t161 -65.5q82 0 138.5 62t56.5 182z" />
    <glyph glyph-name="Odieresis" unicode="&#xd6;" horiz-adv-x="658" 
d="M367 750q0 12 15.5 28.5t26.5 16.5q10 0 28.5 -12.5t18.5 -23.5q0 -13 -16 -29.5t-26 -16.5q-12 0 -29.5 13t-17.5 24zM193 750q0 12 15.5 28.5t26.5 16.5q10 0 28.5 -12.5t18.5 -23.5q0 -13 -16 -29.5t-26 -16.5q-12 0 -29.5 13t-17.5 24zM609 318q0 -153 -84 -240.5
t-217 -87.5q-114 0 -186 81t-72 223q0 153 83 240.5t216 87.5q114 0 187 -81t73 -223zM537 290q0 144 -60.5 210t-161.5 66q-82 0 -138 -63t-56 -181q0 -145 60 -210.5t161 -65.5q82 0 138.5 62t56.5 182z" />
    <glyph glyph-name="multiply" unicode="&#xd7;" 
d="M387 103l-128 128l-128 -128l-35 35l128 128l-128 128l36 34l127 -127l127 127l36 -34l-128 -128l128 -128z" />
    <glyph glyph-name="Oslash" unicode="&#xd8;" horiz-adv-x="658" 
d="M121 322q0 -159 77 -228l208 456q-41 16 -91 16q-82 0 -138 -63t-56 -181zM342 46q82 0 138.5 62t56.5 182q0 170 -90 237l-209 -460q47 -21 104 -21zM308 -10q-52 0 -97 18l-41 -91h-52l51 113q-56 37 -87.5 104.5t-31.5 159.5q0 153 83 240.5t216 87.5q46 0 84 -13
l38 84h52l-47 -103q62 -36 97.5 -105.5t35.5 -166.5q0 -153 -84 -240.5t-217 -87.5z" />
    <glyph glyph-name="Ugrave" unicode="&#xd9;" horiz-adv-x="639" 
d="M412 664h-53l-145 124l69 14zM93 196v416h72v-383q0 -179 167 -179q70 0 108.5 38t38.5 115v409h67v-386q0 -115 -60.5 -175.5t-175.5 -60.5q-98 -1 -157.5 51.5t-59.5 154.5z" />
    <glyph glyph-name="Uacute" unicode="&#xda;" horiz-adv-x="639" 
d="M236 664l129 138l69 -14l-145 -124h-53zM93 196v416h72v-383q0 -179 167 -179q70 0 108.5 38t38.5 115v409h67v-386q0 -115 -60.5 -175.5t-175.5 -60.5q-98 -1 -157.5 51.5t-59.5 154.5z" />
    <glyph glyph-name="Ucircumflex" unicode="&#xdb;" horiz-adv-x="639" 
d="M409 664l-90 80l-91 -80h-54l126 138h37l126 -138h-54zM93 196v416h72v-383q0 -179 167 -179q70 0 108.5 38t38.5 115v409h67v-386q0 -115 -60.5 -175.5t-175.5 -60.5q-98 -1 -157.5 51.5t-59.5 154.5z" />
    <glyph glyph-name="Udieresis" unicode="&#xdc;" horiz-adv-x="639" 
d="M362 750q0 12 15.5 28.5t26.5 16.5q10 0 28.5 -12.5t18.5 -23.5q0 -13 -16 -29.5t-26 -16.5q-12 0 -29.5 13t-17.5 24zM188 750q0 12 15.5 28.5t26.5 16.5q10 0 28.5 -12.5t18.5 -23.5q0 -13 -16 -29.5t-26 -16.5q-12 0 -29.5 13t-17.5 24zM93 196v416h72v-383
q0 -179 167 -179q70 0 108.5 38t38.5 115v409h67v-386q0 -115 -60.5 -175.5t-175.5 -60.5q-98 -1 -157.5 51.5t-59.5 154.5z" />
    <glyph glyph-name="Yacute" unicode="&#xdd;" horiz-adv-x="520" 
d="M192 664l129 138l69 -14l-145 -124h-53zM301 250v-250h-72v250l-222 362h83l180 -298l167 298h72z" />
    <glyph glyph-name="Thorn" unicode="&#xde;" horiz-adv-x="499" 
d="M258 184q68 0 106 31.5t38 97.5q0 65 -41 99.5t-119 34.5h-71v-259q56 -4 87 -4zM227 131q-10 0 -28.5 0.5t-27.5 0.5v-132h-72v612h72v-112h96q100 0 154.5 -44t54.5 -123q0 -96 -71.5 -149t-177.5 -53z" />
    <glyph glyph-name="germandbls" unicode="&#xdf;" horiz-adv-x="524" 
d="M352 213l-40 25q-38 25 -55.5 50t-17.5 60q0 27 12.5 51t30.5 41.5t36 34.5t30.5 37.5t12.5 42.5q0 45 -31 72t-79 27q-47 0 -76 -37t-29 -108v-509h-66v474q0 106 57 166t139 60q65 0 105.5 -36t40.5 -90q0 -33 -19.5 -65.5t-43 -54t-43 -47t-19.5 -47.5q0 -5 1 -10
t1.5 -9t3.5 -8t4.5 -6.5t7 -7t8 -6.5t9.5 -7t10.5 -7t13 -8t14.5 -9l39 -25q78 -51 78 -126q0 -64 -46.5 -103t-128.5 -39q-33 0 -103 15l13 59q6 -2 22 -7l24 -7.5t21.5 -5.5t27 -4.5t28.5 -1.5q34 0 59.5 16.5t25.5 47.5q0 34 -17 59t-61 53z" />
    <glyph glyph-name="agrave" unicode="&#xe0;" horiz-adv-x="433" 
d="M331 514h-53l-145 124l69 14zM317 -10l-16 54q-87 -54 -131 -54q-55 0 -91 31.5t-36 83.5q0 65 63.5 104t193.5 40v53q0 49 -24.5 77t-68.5 28q-49 0 -135 -30l-17 44q101 39 173 39q62 0 98 -36t36 -105v-318zM184 43q43 0 116 39v113q-52 4 -79 4q-52 0 -84.5 -20.5
t-32.5 -57.5q0 -39 24.5 -58.5t55.5 -19.5z" />
    <glyph glyph-name="aacute" unicode="&#xe1;" horiz-adv-x="433" 
d="M160 514l129 138l69 -14l-145 -124h-53zM317 -10l-16 54q-87 -54 -131 -54q-55 0 -91 31.5t-36 83.5q0 65 63.5 104t193.5 40v53q0 49 -24.5 77t-68.5 28q-49 0 -135 -30l-17 44q101 39 173 39q62 0 98 -36t36 -105v-318zM184 43q43 0 116 39v113q-52 4 -79 4
q-52 0 -84.5 -20.5t-32.5 -57.5q0 -39 24.5 -58.5t55.5 -19.5z" />
    <glyph glyph-name="acircumflex" unicode="&#xe2;" horiz-adv-x="433" 
d="M311 514l-90 80l-91 -80h-54l126 138h37l126 -138h-54zM317 -10l-16 54q-87 -54 -131 -54q-55 0 -91 31.5t-36 83.5q0 65 63.5 104t193.5 40v53q0 49 -24.5 77t-68.5 28q-49 0 -135 -30l-17 44q101 39 173 39q62 0 98 -36t36 -105v-318zM184 43q43 0 116 39v113
q-52 4 -79 4q-52 0 -84.5 -20.5t-32.5 -57.5q0 -39 24.5 -58.5t55.5 -19.5z" />
    <glyph glyph-name="atilde" unicode="&#xe3;" horiz-adv-x="433" 
d="M331 622l27 -29q-38 -41 -60 -51q-16 -8 -33 -8q-19 0 -63.5 16.5t-56.5 16.5q-17 0 -37 -12.5t-28 -20.5l-25 27q55 60 99 60q23 0 62 -14.5t52 -14.5q31 0 63 30zM317 -10l-16 54q-87 -54 -131 -54q-55 0 -91 31.5t-36 83.5q0 65 63.5 104t193.5 40v53q0 49 -24.5 77
t-68.5 28q-49 0 -135 -30l-17 44q101 39 173 39q62 0 98 -36t36 -105v-318zM184 43q43 0 116 39v113q-52 4 -79 4q-52 0 -84.5 -20.5t-32.5 -57.5q0 -39 24.5 -58.5t55.5 -19.5z" />
    <glyph glyph-name="adieresis" unicode="&#xe4;" horiz-adv-x="433" 
d="M247 600q0 12 15.5 28.5t26.5 16.5q10 0 28.5 -12.5t18.5 -23.5q0 -13 -16 -29.5t-26 -16.5q-12 0 -29.5 13t-17.5 24zM73 600q0 12 15.5 28.5t26.5 16.5q10 0 28.5 -12.5t18.5 -23.5q0 -13 -16 -29.5t-26 -16.5q-12 0 -29.5 13t-17.5 24zM317 -10l-16 54
q-87 -54 -131 -54q-55 0 -91 31.5t-36 83.5q0 65 63.5 104t193.5 40v53q0 49 -24.5 77t-68.5 28q-49 0 -135 -30l-17 44q101 39 173 39q62 0 98 -36t36 -105v-318zM184 43q43 0 116 39v113q-52 4 -79 4q-52 0 -84.5 -20.5t-32.5 -57.5q0 -39 24.5 -58.5t55.5 -19.5z" />
    <glyph glyph-name="aring" unicode="&#xe5;" horiz-adv-x="433" 
d="M295 590q0 -35 -27.5 -59.5t-62.5 -24.5q-37 0 -63 22.5t-26 61.5q0 35 27 60.5t63 25.5q37 0 63 -22.5t26 -63.5zM159 590q0 -20 13.5 -33t32.5 -13t33 13t14 33q0 22 -14 35t-33 13t-32.5 -13t-13.5 -35zM317 -10l-16 54q-87 -54 -131 -54q-55 0 -91 31.5t-36 83.5
q0 65 63.5 104t193.5 40v53q0 49 -24.5 77t-68.5 28q-49 0 -135 -30l-17 44q101 39 173 39q62 0 98 -36t36 -105v-318zM184 43q43 0 116 39v113q-52 4 -79 4q-52 0 -84.5 -20.5t-32.5 -57.5q0 -39 24.5 -58.5t55.5 -19.5z" />
    <glyph glyph-name="ae" unicode="&#xe6;" horiz-adv-x="691" 
d="M474 414q-48 0 -76 -29t-37 -96h226q0 64 -27 94.5t-86 30.5zM652 23q-91 -33 -169 -33q-99 0 -150 69q-40 -28 -88.5 -48.5t-76.5 -20.5q-54 0 -89.5 31.5t-35.5 83.5q0 64 62.5 103.5t190.5 40.5q0 3 1 7t1 7v48q0 52 -28.5 74.5t-67.5 22.5q-34 0 -132 -30l-15 43
q101 39 173 39q95 0 117 -72q54 72 148 72q74 0 115.5 -44t41.5 -125q0 -43 -1 -48h-291q-1 -9 -1 -28q0 -172 153 -172q59 0 129 25zM184 43q50 0 131 48q-21 45 -21 105q-42 3 -73 3q-52 0 -84.5 -20.5t-32.5 -57.5q0 -39 24.5 -58.5t55.5 -19.5z" />
    <glyph glyph-name="ccedilla" unicode="&#xe7;" horiz-adv-x="408" 
d="M316 -128q0 -35 -36.5 -63t-108.5 -36l-9 37q52 7 76.5 17t24.5 31q0 26 -77 48l-3 5l37 80q-83 7 -128.5 67.5t-45.5 157.5q0 109 59 176.5t150 67.5q87 0 118 -18l-11 -52q-70 21 -112 22q-62 -1 -99 -47t-37 -137q0 -92 39.5 -139t105.5 -47q54 0 115 22l11 -42
q-51 -26 -122 -31l-22 -46q3 -2 10 -5q24 -12 35 -18.5t20.5 -19.5t9.5 -30z" />
    <glyph glyph-name="egrave" unicode="&#xe8;" horiz-adv-x="445" 
d="M365 514h-53l-145 124l69 14zM232 414q-53 0 -82 -28t-37 -97h226q0 125 -107 125zM406 23q-83 -33 -153 -33q-93 0 -150 57t-57 168q0 116 56 180.5t143 64.5q73 0 116 -44t43 -118q0 -45 -1 -55h-294v-19q0 -94 45 -137.5t113 -43.5t126 25z" />
    <glyph glyph-name="eacute" unicode="&#xe9;" horiz-adv-x="445" 
d="M180 514l129 138l69 -14l-145 -124h-53zM232 414q-53 0 -82 -28t-37 -97h226q0 125 -107 125zM406 23q-83 -33 -153 -33q-93 0 -150 57t-57 168q0 116 56 180.5t143 64.5q73 0 116 -44t43 -118q0 -45 -1 -55h-294v-19q0 -94 45 -137.5t113 -43.5t126 25z" />
    <glyph glyph-name="ecircumflex" unicode="&#xea;" horiz-adv-x="445" 
d="M336 514l-90 80l-91 -80h-54l126 138h37l126 -138h-54zM232 414q-53 0 -82 -28t-37 -97h226q0 125 -107 125zM406 23q-83 -33 -153 -33q-93 0 -150 57t-57 168q0 116 56 180.5t143 64.5q73 0 116 -44t43 -118q0 -45 -1 -55h-294v-19q0 -94 45 -137.5t113 -43.5t126 25z
" />
    <glyph glyph-name="edieresis" unicode="&#xeb;" horiz-adv-x="445" 
d="M292 600q0 12 15.5 28.5t26.5 16.5q10 0 28.5 -12.5t18.5 -23.5q0 -13 -16 -29.5t-26 -16.5q-12 0 -29.5 13t-17.5 24zM118 600q0 12 15.5 28.5t26.5 16.5q10 0 28.5 -12.5t18.5 -23.5q0 -13 -16 -29.5t-26 -16.5q-12 0 -29.5 13t-17.5 24zM232 414q-53 0 -82 -28
t-37 -97h226q0 125 -107 125zM406 23q-83 -33 -153 -33q-93 0 -150 57t-57 168q0 116 56 180.5t143 64.5q73 0 116 -44t43 -118q0 -45 -1 -55h-294v-19q0 -94 45 -137.5t113 -43.5t126 25z" />
    <glyph glyph-name="igrave" unicode="&#xec;" horiz-adv-x="226" 
d="M207 514h-53l-145 124l69 14zM145 460v-460h-66v448z" />
    <glyph glyph-name="iacute" unicode="&#xed;" horiz-adv-x="226" 
d="M69 514l129 138l69 -14l-145 -124h-53zM147 460v-460h-66v448z" />
    <glyph glyph-name="icircumflex" unicode="&#xee;" horiz-adv-x="226" 
d="M203 514l-90 80l-91 -80h-54l126 138h37l126 -138h-54zM147 460v-460h-66v448z" />
    <glyph glyph-name="idieresis" unicode="&#xef;" horiz-adv-x="226" 
d="M140 596q0 12 15.5 28.5t25.5 16.5q11 0 29 -12.5t18 -23.5q0 -13 -16 -29.5t-26 -16.5q-11 0 -28.5 13t-17.5 24zM1 596q0 12 15.5 28.5t26.5 16.5q10 0 28 -12.5t18 -23.5q0 -13 -15.5 -29.5t-25.5 -16.5q-12 0 -29.5 13t-17.5 24zM147 460v-460h-66v448z" />
    <glyph glyph-name="eth" unicode="&#xf0;" horiz-adv-x="488" 
d="M228 -10q-80 0 -131 56.5t-51 159.5q0 121 65.5 187.5t148.5 66.5q48 0 83 -18q-36 75 -103 133l-120 -65l-26 33l111 60q-52 38 -114 68l32 30q77 -32 133 -70l126 69l27 -33l-116 -63q156 -129 156 -355q0 -108 -58 -183.5t-163 -75.5zM253 43q65 0 98.5 42t34.5 148
q0 76 -19 144q-47 28 -127 28q-130 0 -130 -176q0 -95 40.5 -140.5t102.5 -45.5z" />
    <glyph glyph-name="ntilde" unicode="&#xf1;" horiz-adv-x="496" 
d="M380 622l27 -29q-38 -41 -60 -51q-16 -8 -33 -8q-19 0 -63.5 16.5t-56.5 16.5q-17 0 -37 -12.5t-28 -20.5l-25 27q55 60 99 60q23 0 62 -14.5t52 -14.5q31 0 63 30zM266 403q-46 0 -120 -33v-370h-66v449l48 11l15 -50q89 50 146 50q63 0 99.5 -36t36.5 -95v-329h-66v302
q0 48 -25 74.5t-68 26.5z" />
    <glyph glyph-name="ograve" unicode="&#xf2;" horiz-adv-x="492" 
d="M376 514h-53l-145 124l69 14zM452 234q0 -115 -60.5 -179.5t-161.5 -66.5q-85 2 -137.5 63t-52.5 165q0 115 61 179.5t165 64.5q86 0 136 -60.5t50 -165.5zM386 213q0 195 -151 195q-63 0 -96 -44.5t-33 -126.5q0 -100 39.5 -147.5t110.5 -47.5q64 0 97 45t33 126z" />
    <glyph glyph-name="oacute" unicode="&#xf3;" horiz-adv-x="492" 
d="M186 514l129 138l69 -14l-145 -124h-53zM452 234q0 -115 -60.5 -179.5t-161.5 -66.5q-85 2 -137.5 63t-52.5 165q0 115 61 179.5t165 64.5q86 0 136 -60.5t50 -165.5zM386 213q0 195 -151 195q-63 0 -96 -44.5t-33 -126.5q0 -100 39.5 -147.5t110.5 -47.5q64 0 97 45
t33 126z" />
    <glyph glyph-name="ocircumflex" unicode="&#xf4;" horiz-adv-x="492" 
d="M340 514l-90 80l-91 -80h-54l126 138h37l126 -138h-54zM452 234q0 -115 -60.5 -179.5t-161.5 -66.5q-85 2 -137.5 63t-52.5 165q0 115 61 179.5t165 64.5q86 0 136 -60.5t50 -165.5zM386 213q0 195 -151 195q-63 0 -96 -44.5t-33 -126.5q0 -100 39.5 -147.5t110.5 -47.5
q64 0 97 45t33 126z" />
    <glyph glyph-name="otilde" unicode="&#xf5;" horiz-adv-x="492" 
d="M372 622l27 -29q-38 -41 -60 -51q-16 -8 -33 -8q-19 0 -63.5 16.5t-56.5 16.5q-17 0 -37 -12.5t-28 -20.5l-25 27q55 60 99 60q23 0 62 -14.5t52 -14.5q31 0 63 30zM452 234q0 -115 -60.5 -179.5t-161.5 -66.5q-85 2 -137.5 63t-52.5 165q0 115 61 179.5t165 64.5
q86 0 136 -60.5t50 -165.5zM386 213q0 195 -151 195q-63 0 -96 -44.5t-33 -126.5q0 -100 39.5 -147.5t110.5 -47.5q64 0 97 45t33 126z" />
    <glyph glyph-name="odieresis" unicode="&#xf6;" horiz-adv-x="492" 
d="M293 600q0 12 15.5 28.5t26.5 16.5q10 0 28.5 -12.5t18.5 -23.5q0 -13 -16 -29.5t-26 -16.5q-12 0 -29.5 13t-17.5 24zM119 600q0 12 15.5 28.5t26.5 16.5q10 0 28.5 -12.5t18.5 -23.5q0 -13 -16 -29.5t-26 -16.5q-12 0 -29.5 13t-17.5 24zM452 234q0 -115 -60.5 -179.5
t-161.5 -66.5q-85 2 -137.5 63t-52.5 165q0 115 61 179.5t165 64.5q86 0 136 -60.5t50 -165.5zM386 213q0 195 -151 195q-63 0 -96 -44.5t-33 -126.5q0 -100 39.5 -147.5t110.5 -47.5q64 0 97 45t33 126z" />
    <glyph glyph-name="divide" unicode="&#xf7;" 
d="M204 416q0 15 19.5 35.5t32.5 20.5q17 0 38 -16.5t21 -31.5t-19.5 -35t-33.5 -20q-15 0 -36.5 16.5t-21.5 30.5zM471 289v-51h-426v51h426zM204 103q0 15 19.5 35.5t32.5 20.5q14 0 36.5 -16.5t22.5 -31.5t-19.5 -35t-33.5 -20q-13 0 -35.5 16.5t-22.5 30.5z" />
    <glyph glyph-name="oslash" unicode="&#xf8;" horiz-adv-x="492" 
d="M106 237q0 -113 52 -160l146 317q-28 14 -69 14q-63 0 -96 -44.5t-33 -126.5zM256 42q64 0 97 45t33 126q0 105 -46 154l-145 -314q25 -11 61 -11zM230 -12q-30 0 -60 10l-32 -69h-48l41 88q-91 59 -91 199q0 115 61 179.5t165 64.5q36 0 63 -10l34 73h49l-43 -93
q83 -58 83 -196q0 -115 -60.5 -179.5t-161.5 -66.5z" />
    <glyph glyph-name="ugrave" unicode="&#xf9;" horiz-adv-x="496" 
d="M353 514h-53l-145 124l69 14zM370 -10l-17 51q-32 -19 -74.5 -35t-71.5 -16q-63 0 -99.5 36t-36.5 95v328l66 11v-312q0 -48 25.5 -75.5t68.5 -27.5t119 35v369l66 11v-459z" />
    <glyph glyph-name="uacute" unicode="&#xfa;" horiz-adv-x="496" 
d="M188 514l129 138l69 -14l-145 -124h-53zM370 -10l-17 51q-32 -19 -74.5 -35t-71.5 -16q-63 0 -99.5 36t-36.5 95v328l66 11v-312q0 -48 25.5 -75.5t68.5 -27.5t119 35v369l66 11v-459z" />
    <glyph glyph-name="ucircumflex" unicode="&#xfb;" horiz-adv-x="496" 
d="M339 514l-90 80l-91 -80h-54l126 138h37l126 -138h-54zM370 -10l-17 51q-32 -19 -74.5 -35t-71.5 -16q-63 0 -99.5 36t-36.5 95v328l66 11v-312q0 -48 25.5 -75.5t68.5 -27.5t119 35v369l66 11v-459z" />
    <glyph glyph-name="udieresis" unicode="&#xfc;" horiz-adv-x="496" 
d="M290 600q0 12 15.5 28.5t26.5 16.5q10 0 28.5 -12.5t18.5 -23.5q0 -13 -16 -29.5t-26 -16.5q-12 0 -29.5 13t-17.5 24zM116 600q0 12 15.5 28.5t26.5 16.5q10 0 28.5 -12.5t18.5 -23.5q0 -13 -16 -29.5t-26 -16.5q-12 0 -29.5 13t-17.5 24zM370 -10l-17 51
q-32 -19 -74.5 -35t-71.5 -16q-63 0 -99.5 36t-36.5 95v328l66 11v-312q0 -48 25.5 -75.5t68.5 -27.5t119 35v369l66 11v-459z" />
    <glyph glyph-name="yacute" unicode="&#xfd;" horiz-adv-x="433" 
d="M178 514l129 138l69 -14l-145 -124h-53zM15 -227h-14l-9 60q144 -13 214 167h-23l-162 444l66 13l140 -396q16 47 48 137t56.5 159.5t31.5 92.5h66q-94 -269 -166 -459q-43 -108 -106.5 -163t-141.5 -55z" />
    <glyph glyph-name="thorn" unicode="&#xfe;" horiz-adv-x="506" 
d="M267 42q55 0 90.5 47t35.5 138q0 93 -40 135t-92 42q-56 0 -115 -33v-307q59 -22 121 -22zM146 -203l-66 -12v894l66 12v-280q87 49 137 49q70 1 123 -55.5t53 -168.5q0 -120 -63.5 -183t-147.5 -63q-50 0 -102 21v-214z" />
    <glyph glyph-name="ydieresis" unicode="&#xff;" horiz-adv-x="433" 
d="M278 600q0 12 15.5 28.5t26.5 16.5q10 0 28.5 -12.5t18.5 -23.5q0 -13 -16 -29.5t-26 -16.5q-12 0 -29.5 13t-17.5 24zM104 600q0 12 15.5 28.5t26.5 16.5q10 0 28.5 -12.5t18.5 -23.5q0 -13 -16 -29.5t-26 -16.5q-12 0 -29.5 13t-17.5 24zM15 -227h-14l-9 60
q144 -13 214 167h-23l-162 444l66 13l140 -396q16 47 48 137t56.5 159.5t31.5 92.5h66q-94 -269 -166 -459q-43 -108 -106.5 -163t-141.5 -55z" />
    <glyph glyph-name="Amacron" unicode="&#x100;" horiz-adv-x="554" 
d="M404 760v-15l-15 -33h-239v15l15 33h239zM369 262l-97 271l-94 -271h191zM464 0l-74 206h-232l-71 -206h-72l226 612h71l227 -612h-75z" />
    <glyph glyph-name="amacron" unicode="&#x101;" horiz-adv-x="433" 
d="M337 610v-15l-15 -33h-239v15l15 33h239zM317 -10l-16 54q-87 -54 -131 -54q-55 0 -91 31.5t-36 83.5q0 65 63.5 104t193.5 40v53q0 49 -24.5 77t-68.5 28q-49 0 -135 -30l-17 44q101 39 173 39q62 0 98 -36t36 -105v-318zM184 43q43 0 116 39v113q-52 4 -79 4
q-52 0 -84.5 -20.5t-32.5 -57.5q0 -39 24.5 -58.5t55.5 -19.5z" />
    <glyph glyph-name="Abreve" unicode="&#x102;" horiz-adv-x="554" 
d="M277 720q75 0 96 92h39q0 -58 -41.5 -103t-98.5 -45q-62 0 -95.5 43.5t-33.5 104.5h39q21 -92 95 -92zM369 262l-97 271l-94 -271h191zM464 0l-74 206h-232l-71 -206h-72l226 612h71l227 -612h-75z" />
    <glyph glyph-name="abreve" unicode="&#x103;" horiz-adv-x="433" 
d="M197 570q75 0 96 92h39q0 -58 -41.5 -103t-98.5 -45q-62 0 -95.5 43.5t-33.5 104.5h39q21 -92 95 -92zM317 -10l-16 54q-87 -54 -131 -54q-55 0 -91 31.5t-36 83.5q0 65 63.5 104t193.5 40v53q0 49 -24.5 77t-68.5 28q-49 0 -135 -30l-17 44q101 39 173 39q62 0 98 -36
t36 -105v-318zM184 43q43 0 116 39v113q-52 4 -79 4q-52 0 -84.5 -20.5t-32.5 -57.5q0 -39 24.5 -58.5t55.5 -19.5z" />
    <glyph glyph-name="Aogonek" unicode="&#x104;" horiz-adv-x="554" 
d="M369 262l-97 271l-94 -271h191zM475 0h-11l-74 206h-232l-71 -206h-72l226 612h71l227 -612h-13q-37 -27 -64 -62.5t-27 -65.5q0 -21 13 -32t32 -11q11 0 39 14l12 -34q-36 -20 -69 -20q-37 0 -57 21t-20 56q0 64 90 134z" />
    <glyph glyph-name="aogonek" unicode="&#x105;" horiz-adv-x="433" 
d="M300 -211q-37 0 -57 21t-20 56q0 64 90 134h1l-13 44q-87 -54 -131 -54q-55 0 -91 31.5t-36 83.5q0 65 63.5 104t193.5 40v53q0 49 -24.5 77t-68.5 28q-49 0 -135 -30l-17 44q101 39 173 39q62 0 98 -36t36 -105v-318l-4 -1h6q-37 -27 -64 -62.5t-27 -65.5q0 -21 13 -32
t32 -11q11 0 39 14l12 -34q-36 -20 -69 -20zM184 43q43 0 116 39v113q-52 4 -79 4q-52 0 -84.5 -20.5t-32.5 -57.5q0 -39 24.5 -58.5t55.5 -19.5z" />
    <glyph glyph-name="Cacute" unicode="&#x106;" horiz-adv-x="543" 
d="M255 664l129 138l69 -14l-145 -124h-53zM503 86l12 -55q-29 -16 -78 -28.5t-98 -12.5q-132 0 -210.5 79.5t-78.5 225.5q0 145 79 236t213 91q42 0 91.5 -8.5t72.5 -20.5l-23 -60q-66 32 -168 32q-34 0 -66 -12.5t-61.5 -39.5t-47 -77.5t-17.5 -119.5q0 -137 63 -202
t163 -65q78 0 154 37z" />
    <glyph glyph-name="cacute" unicode="&#x107;" horiz-adv-x="408" 
d="M207 514l129 138l69 -14l-145 -124h-53zM374 64l11 -42q-24 -12 -65 -22t-77 -10q-94 0 -145.5 61t-51.5 165q0 109 59 176.5t150 67.5q87 0 118 -18l-11 -52q-70 21 -112 22q-62 -1 -99 -47t-37 -137q0 -92 39.5 -139t105.5 -47q54 0 115 22z" />
    <glyph glyph-name="Ccircumflex" unicode="&#x108;" horiz-adv-x="543" 
d="M431 664l-90 80l-91 -80h-54l126 138h37l126 -138h-54zM503 86l12 -55q-29 -16 -78 -28.5t-98 -12.5q-132 0 -210.5 79.5t-78.5 225.5q0 145 79 236t213 91q42 0 91.5 -8.5t72.5 -20.5l-23 -60q-66 32 -168 32q-34 0 -66 -12.5t-61.5 -39.5t-47 -77.5t-17.5 -119.5
q0 -137 63 -202t163 -65q78 0 154 37z" />
    <glyph glyph-name="ccircumflex" unicode="&#x109;" horiz-adv-x="408" 
d="M321 514l-90 80l-91 -80h-54l126 138h37l126 -138h-54zM374 64l11 -42q-24 -12 -65 -22t-77 -10q-94 0 -145.5 61t-51.5 165q0 109 59 176.5t150 67.5q87 0 118 -18l-11 -52q-70 21 -112 22q-62 -1 -99 -47t-37 -137q0 -92 39.5 -139t105.5 -47q54 0 115 22z" />
    <glyph glyph-name="Cdotaccent" unicode="&#x10a;" horiz-adv-x="543" 
d="M278 738q0 14 17.5 32.5t29.5 18.5q13 0 32.5 -14.5t19.5 -28.5q0 -13 -17.5 -31t-29.5 -18q-13 0 -32.5 14t-19.5 27zM503 86l12 -55q-29 -16 -78 -28.5t-98 -12.5q-132 0 -210.5 79.5t-78.5 225.5q0 145 79 236t213 91q42 0 91.5 -8.5t72.5 -20.5l-23 -60
q-66 32 -168 32q-34 0 -66 -12.5t-61.5 -39.5t-47 -77.5t-17.5 -119.5q0 -137 63 -202t163 -65q78 0 154 37z" />
    <glyph glyph-name="cdotaccent" unicode="&#x10b;" horiz-adv-x="408" 
d="M176 588q0 14 17.5 32.5t29.5 18.5q13 0 32.5 -14.5t19.5 -28.5q0 -13 -17.5 -31t-29.5 -18q-13 0 -32.5 14t-19.5 27zM374 64l11 -42q-24 -12 -65 -22t-77 -10q-94 0 -145.5 61t-51.5 165q0 109 59 176.5t150 67.5q87 0 118 -18l-11 -52q-70 21 -112 22q-62 -1 -99 -47
t-37 -137q0 -92 39.5 -139t105.5 -47q54 0 115 22z" />
    <glyph glyph-name="Ccaron" unicode="&#x10c;" horiz-adv-x="543" 
d="M343 667h-36l-126 139h53l91 -80l90 80h55zM503 86l12 -55q-29 -16 -78 -28.5t-98 -12.5q-132 0 -210.5 79.5t-78.5 225.5q0 145 79 236t213 91q42 0 91.5 -8.5t72.5 -20.5l-23 -60q-66 32 -168 32q-34 0 -66 -12.5t-61.5 -39.5t-47 -77.5t-17.5 -119.5q0 -137 63 -202
t163 -65q78 0 154 37z" />
    <glyph glyph-name="ccaron" unicode="&#x10d;" horiz-adv-x="408" 
d="M268 517h-36l-126 139h53l91 -80l90 80h55zM374 64l11 -42q-24 -12 -65 -22t-77 -10q-94 0 -145.5 61t-51.5 165q0 109 59 176.5t150 67.5q87 0 118 -18l-11 -52q-70 21 -112 22q-62 -1 -99 -47t-37 -137q0 -92 39.5 -139t105.5 -47q54 0 115 22z" />
    <glyph glyph-name="Dcaron" unicode="&#x10e;" horiz-adv-x="639" 
d="M323 667h-36l-126 139h53l91 -80l90 80h55zM99 612h198q134 0 213.5 -76t79.5 -205q0 -152 -93 -242.5t-240 -90.5q-88 0 -158 14v600zM171 559v-497q55 -9 124 -9q91 0 155.5 64.5t64.5 199.5q0 115 -66.5 178.5t-176.5 63.5h-101z" />
    <glyph glyph-name="dcaron" unicode="&#x10f;" horiz-adv-x="576" 
d="M495 666q3 10 16 18t27 8q12 0 23.5 -22.5t11.5 -46.5q0 -28 -14 -58t-51 -83l-27 20q4 8 12 22.5t11.5 21t8 16.5t6.5 17.5t2 15.5q0 19 -13 44t-13 27zM239 43q50 0 115 36v306q-57 23 -122 23q-55 0 -90.5 -47t-35.5 -138q0 -93 40.5 -136.5t92.5 -43.5zM217 -10
q-71 -1 -124 55.5t-53 168.5q0 62 19 110.5t50 77.5t67 43.5t75 14.5q50 0 103 -21v241l65 11v-690l-45 -11l-15 52q-93 -52 -142 -52z" />
    <glyph glyph-name="Dcroat" unicode="&#x110;" horiz-adv-x="644" 
d="M262 -2q-88 0 -158 14v278h-67v54h67v268h198q134 0 213.5 -76t79.5 -205q0 -152 -93 -242.5t-240 -90.5zM300 53q91 0 155.5 64.5t64.5 199.5q0 115 -66.5 178.5t-176.5 63.5h-101v-215h181l-10 -54h-171v-228q56 -9 124 -9z" />
    <glyph glyph-name="dcroat" unicode="&#x111;" horiz-adv-x="504" 
d="M239 43q50 0 115 36v306q-57 23 -122 23q-55 0 -90.5 -47t-35.5 -138q0 -93 40.5 -136.5t92.5 -43.5zM217 -10q-71 -1 -124 55.5t-53 168.5q0 62 19 110.5t50 77.5t67 43.5t75 14.5q50 0 103 -21v119h-138v15l15 28h123v79l65 11v-90h72v-15l-15 -28h-57v-557l-45 -11
l-15 52q-93 -52 -142 -52z" />
    <glyph glyph-name="Emacron" unicode="&#x112;" horiz-adv-x="501" 
d="M405 760v-15l-15 -33h-239v15l15 33h239zM99 0v612h342l-9 -59l-261 4v-212h240l-10 -56l-230 3v-234l286 4l-9 -62h-349z" />
    <glyph glyph-name="emacron" unicode="&#x113;" horiz-adv-x="445" 
d="M376 610v-15l-15 -33h-239v15l15 33h239zM232 414q-53 0 -82 -28t-37 -97h226q0 125 -107 125zM406 23q-83 -33 -153 -33q-93 0 -150 57t-57 168q0 116 56 180.5t143 64.5q73 0 116 -44t43 -118q0 -45 -1 -55h-294v-19q0 -94 45 -137.5t113 -43.5t126 25z" />
    <glyph glyph-name="Ebreve" unicode="&#x114;" horiz-adv-x="501" 
d="M270 720q75 0 96 92h39q0 -58 -41.5 -103t-98.5 -45q-62 0 -95.5 43.5t-33.5 104.5h39q21 -92 95 -92zM99 0v612h342l-9 -59l-261 4v-212h240l-10 -56l-230 3v-234l286 4l-9 -62h-349z" />
    <glyph glyph-name="ebreve" unicode="&#x115;" horiz-adv-x="445" 
d="M229 570q75 0 96 92h39q0 -58 -41.5 -103t-98.5 -45q-62 0 -95.5 43.5t-33.5 104.5h39q21 -92 95 -92zM232 414q-53 0 -82 -28t-37 -97h226q0 125 -107 125zM406 23q-83 -33 -153 -33q-93 0 -150 57t-57 168q0 116 56 180.5t143 64.5q73 0 116 -44t43 -118q0 -45 -1 -55
h-294v-19q0 -94 45 -137.5t113 -43.5t126 25z" />
    <glyph glyph-name="Edotaccent" unicode="&#x116;" horiz-adv-x="501" 
d="M226 738q0 14 17.5 32.5t29.5 18.5q13 0 32.5 -14.5t19.5 -28.5q0 -13 -17.5 -31t-29.5 -18q-13 0 -32.5 14t-19.5 27zM99 0v612h342l-9 -59l-261 4v-212h240l-10 -56l-230 3v-234l286 4l-9 -62h-349z" />
    <glyph glyph-name="edotaccent" unicode="&#x117;" horiz-adv-x="445" 
d="M190 588q0 14 17.5 32.5t29.5 18.5q13 0 32.5 -14.5t19.5 -28.5q0 -13 -17.5 -31t-29.5 -18q-13 0 -32.5 14t-19.5 27zM232 414q-53 0 -82 -28t-37 -97h226q0 125 -107 125zM406 23q-83 -33 -153 -33q-93 0 -150 57t-57 168q0 116 56 180.5t143 64.5q73 0 116 -44
t43 -118q0 -45 -1 -55h-294v-19q0 -94 45 -137.5t113 -43.5t126 25z" />
    <glyph glyph-name="Eogonek" unicode="&#x118;" horiz-adv-x="501" 
d="M99 0v612h342l-9 -59l-261 4v-212h240l-10 -56l-230 3v-234l286 4l-9 -62h-349zM293 -134q0 64 90 134h51q-37 -27 -64 -62.5t-27 -65.5q0 -21 13 -32t32 -11q11 0 39 14l12 -34q-36 -20 -69 -20q-37 0 -57 21t-20 56z" />
    <glyph glyph-name="eogonek" unicode="&#x119;" horiz-adv-x="445" 
d="M232 414q-53 0 -82 -28t-37 -97h226q0 125 -107 125zM388 -178q-36 -20 -69 -20q-37 0 -57 21t-20 56q0 56 69 116q-33 -5 -58 -5q-93 0 -150 57t-57 168q0 116 56 180.5t143 64.5q73 0 116 -44t43 -118q0 -45 -1 -55h-294v-19q0 -94 45 -137.5t113 -43.5t126 25l13 -45
q-9 -4 -27 -10h4q-37 -27 -64 -62.5t-27 -65.5q0 -21 13 -32t32 -11q11 0 39 14z" />
    <glyph glyph-name="Ecaron" unicode="&#x11a;" horiz-adv-x="501" 
d="M294 667h-36l-126 139h53l91 -80l90 80h55zM99 0v612h342l-9 -59l-261 4v-212h240l-10 -56l-230 3v-234l286 4l-9 -62h-349z" />
    <glyph glyph-name="ecaron" unicode="&#x11b;" horiz-adv-x="445" 
d="M251 517h-36l-126 139h53l91 -80l90 80h55zM232 414q-53 0 -82 -28t-37 -97h226q0 125 -107 125zM406 23q-83 -33 -153 -33q-93 0 -150 57t-57 168q0 116 56 180.5t143 64.5q73 0 116 -44t43 -118q0 -45 -1 -55h-294v-19q0 -94 45 -137.5t113 -43.5t126 25z" />
    <glyph glyph-name="Gcircumflex" unicode="&#x11c;" horiz-adv-x="589" 
d="M417 664l-90 80l-91 -80h-54l126 138h37l126 -138h-54zM527 35q-26 -18 -78.5 -31.5t-96.5 -13.5q-136 0 -219 76t-83 231q0 139 81.5 232t218.5 93q115 0 178 -34l-26 -61q-81 37 -180 37q-32 0 -64 -12t-63.5 -38t-51.5 -77.5t-20 -120.5q0 -138 66.5 -203.5
t171.5 -65.5q53 0 101 15l-1 242h66v-269z" />
    <glyph glyph-name="gcircumflex" unicode="&#x11d;" horiz-adv-x="457" 
d="M304 514l-90 80l-91 -80h-54l126 138h37l126 -138h-54zM309 309q0 54 -31 79t-80 25q-46 0 -67 -21t-21 -74q0 -51 31 -77.5t78 -26.5q90 0 90 95zM416 -35q0 -68 -69.5 -117.5t-159.5 -49.5q-70 0 -113.5 27t-43.5 76q0 53 72 100q14 10 58 35q-27 7 -42.5 23.5
t-15.5 36.5q0 33 52 76q-48 11 -77.5 45.5t-29.5 86.5q0 73 49.5 114.5t128.5 41.5q47 0 84 -23q7 1 24 4t35 6t35 6.5t27 4.5l11 2v-61h-19l-79 8q29 -35 29 -85q0 -73 -49 -114t-126 -41h-2q-32 -30 -32 -48q0 -16 16.5 -25t58.5 -17l85 -18q45 -10 69 -30.5t24 -63.5z
M216 -151q59 0 98.5 29t39.5 68q0 28 -20.5 44t-70.5 25l-53 11q-35 -16 -63 -35q-54 -37 -54 -79q0 -30 31.5 -46.5t91.5 -16.5z" />
    <glyph glyph-name="Gbreve" unicode="&#x11e;" horiz-adv-x="589" 
d="M324 720q75 0 96 92h39q0 -58 -41.5 -103t-98.5 -45q-62 0 -95.5 43.5t-33.5 104.5h39q21 -92 95 -92zM527 35q-26 -18 -78.5 -31.5t-96.5 -13.5q-136 0 -219 76t-83 231q0 139 81.5 232t218.5 93q115 0 178 -34l-26 -61q-81 37 -180 37q-32 0 -64 -12t-63.5 -38
t-51.5 -77.5t-20 -120.5q0 -138 66.5 -203.5t171.5 -65.5q53 0 101 15l-1 242h66v-269z" />
    <glyph glyph-name="gbreve" unicode="&#x11f;" horiz-adv-x="457" 
d="M192 570q75 0 96 92h39q0 -58 -41.5 -103t-98.5 -45q-62 0 -95.5 43.5t-33.5 104.5h39q21 -92 95 -92zM309 309q0 54 -31 79t-80 25q-46 0 -67 -21t-21 -74q0 -51 31 -77.5t78 -26.5q90 0 90 95zM416 -35q0 -68 -69.5 -117.5t-159.5 -49.5q-70 0 -113.5 27t-43.5 76
q0 53 72 100q14 10 58 35q-27 7 -42.5 23.5t-15.5 36.5q0 33 52 76q-48 11 -77.5 45.5t-29.5 86.5q0 73 49.5 114.5t128.5 41.5q47 0 84 -23q7 1 24 4t35 6t35 6.5t27 4.5l11 2v-61h-19l-79 8q29 -35 29 -85q0 -73 -49 -114t-126 -41h-2q-32 -30 -32 -48q0 -16 16.5 -25
t58.5 -17l85 -18q45 -10 69 -30.5t24 -63.5zM216 -151q59 0 98.5 29t39.5 68q0 28 -20.5 44t-70.5 25l-53 11q-35 -16 -63 -35q-54 -37 -54 -79q0 -30 31.5 -46.5t91.5 -16.5z" />
    <glyph glyph-name="Gdotaccent" unicode="&#x120;" horiz-adv-x="589" 
d="M278 738q0 14 17.5 32.5t29.5 18.5q13 0 32.5 -14.5t19.5 -28.5q0 -13 -17.5 -31t-29.5 -18q-13 0 -32.5 14t-19.5 27zM527 35q-26 -18 -78.5 -31.5t-96.5 -13.5q-136 0 -219 76t-83 231q0 139 81.5 232t218.5 93q115 0 178 -34l-26 -61q-81 37 -180 37q-32 0 -64 -12
t-63.5 -38t-51.5 -77.5t-20 -120.5q0 -138 66.5 -203.5t171.5 -65.5q53 0 101 15l-1 242h66v-269z" />
    <glyph glyph-name="gdotaccent" unicode="&#x121;" horiz-adv-x="457" 
d="M154 588q0 14 17.5 32.5t29.5 18.5q13 0 32.5 -14.5t19.5 -28.5q0 -13 -17.5 -31t-29.5 -18q-13 0 -32.5 14t-19.5 27zM309 309q0 54 -31 79t-80 25q-46 0 -67 -21t-21 -74q0 -51 31 -77.5t78 -26.5q90 0 90 95zM416 -35q0 -68 -69.5 -117.5t-159.5 -49.5
q-70 0 -113.5 27t-43.5 76q0 53 72 100q14 10 58 35q-27 7 -42.5 23.5t-15.5 36.5q0 33 52 76q-48 11 -77.5 45.5t-29.5 86.5q0 73 49.5 114.5t128.5 41.5q47 0 84 -23q7 1 24 4t35 6t35 6.5t27 4.5l11 2v-61h-19l-79 8q29 -35 29 -85q0 -73 -49 -114t-126 -41h-2
q-32 -30 -32 -48q0 -16 16.5 -25t58.5 -17l85 -18q45 -10 69 -30.5t24 -63.5zM216 -151q59 0 98.5 29t39.5 68q0 28 -20.5 44t-70.5 25l-53 11q-35 -16 -63 -35q-54 -37 -54 -79q0 -30 31.5 -46.5t91.5 -16.5z" />
    <glyph glyph-name="Gcommaaccent" unicode="&#x122;" horiz-adv-x="589" 
d="M527 35q-26 -18 -78.5 -31.5t-96.5 -13.5q-136 0 -219 76t-83 231q0 139 81.5 232t218.5 93q115 0 178 -34l-26 -61q-81 37 -180 37q-32 0 -64 -12t-63.5 -38t-51.5 -77.5t-20 -120.5q0 -138 66.5 -203.5t171.5 -65.5q53 0 101 15l-1 242h66v-269zM291 -79q0 12 12 22.5
t25 10.5q14 0 32 -19.5t18 -38.5q0 -28 -57 -139l-36 14q36 75 36 102q0 4 -15 20t-15 28z" />
    <glyph glyph-name="gcommaaccent" unicode="&#x123;" horiz-adv-x="457" 
d="M260 543q0 -12 -12 -22.5t-25 -10.5q-14 0 -32 19.5t-18 38.5q0 28 57 139l36 -14q-36 -75 -36 -102q0 -4 15 -20t15 -28zM309 309q0 54 -31 79t-80 25q-46 0 -67 -21t-21 -74q0 -51 31 -77.5t78 -26.5q90 0 90 95zM416 -35q0 -68 -69.5 -117.5t-159.5 -49.5
q-70 0 -113.5 27t-43.5 76q0 53 72 100q14 10 58 35q-27 7 -42.5 23.5t-15.5 36.5q0 33 52 76q-48 11 -77.5 45.5t-29.5 86.5q0 73 49.5 114.5t128.5 41.5q47 0 84 -23q7 1 24 4t35 6t35 6.5t27 4.5l11 2v-61h-19l-79 8q29 -35 29 -85q0 -73 -49 -114t-126 -41h-2
q-32 -30 -32 -48q0 -16 16.5 -25t58.5 -17l85 -18q45 -10 69 -30.5t24 -63.5zM216 -151q59 0 98.5 29t39.5 68q0 28 -20.5 44t-70.5 25l-53 11q-35 -16 -63 -35q-54 -37 -54 -79q0 -30 31.5 -46.5t91.5 -16.5z" />
    <glyph glyph-name="Hcircumflex" unicode="&#x124;" horiz-adv-x="646" 
d="M414 664l-90 80l-91 -80h-54l126 138h37l126 -138h-54zM475 0v289h-304v-289h-72v612h72v-265h304v265h72v-612h-72z" />
    <glyph glyph-name="hcircumflex" unicode="&#x125;" horiz-adv-x="494" 
d="M209 701l-90 80l-91 -80h-54l126 138h37l126 -138h-54zM265 403q-37 0 -119 -33v-370h-66v680l66 11v-279q84 48 143 48q53 0 94.5 -33t41.5 -95v-332h-66v302q0 45 -24.5 73t-69.5 28z" />
    <glyph glyph-name="Hbar" unicode="&#x126;" horiz-adv-x="646" 
d="M475 347v98h-304v-98h304zM475 0v289h-304v-289h-72v445h-67v12l16 36h51v119h72v-119h304v119h72v-119h67v-13l-16 -35h-51v-445h-72z" />
    <glyph glyph-name="hbar" unicode="&#x127;" horiz-adv-x="496" 
d="M265 403q-37 0 -119 -33v-370h-66v558h-66v15l14 28h52v79l66 11v-90h143v-15l-14 -28h-129v-146q84 48 143 48q53 0 94.5 -33t41.5 -95v-332h-66v302q0 45 -24.5 73t-69.5 28z" />
    <glyph glyph-name="Itilde" unicode="&#x128;" horiz-adv-x="270" 
d="M248 777l21 -35q-48 -53 -80 -53q-18 0 -58 16t-51 16q-30 0 -56 -21l-23 36q49 46 89 46q19 0 54 -15.5t47 -15.5q26 0 57 26zM171 612v-612h-72v612h72z" />
    <glyph glyph-name="itilde" unicode="&#x129;" horiz-adv-x="226" 
d="M220 625l26 -27q-1 -1 -6 -7t-6 -7.5t-6 -7t-7.5 -7.5t-7.5 -6.5t-8.5 -6t-9 -5t-10 -4.5t-11 -2t-12.5 -1q-19 0 -53 15.5t-46 15.5t-25 -5.5t-20 -11t-7 -6.5l-30 28q16 17 23.5 24t26.5 17t38 10q23 0 52.5 -14t42.5 -14q29 0 56 22zM146 460v-460h-66v448z" />
    <glyph glyph-name="Imacron" unicode="&#x12a;" horiz-adv-x="270" 
d="M251 758v-15l-16 -38h-218v15l15 38h219zM171 612v-612h-72v612h72z" />
    <glyph glyph-name="imacron" unicode="&#x12b;" horiz-adv-x="226" 
d="M219 604v-15l-16 -39h-197v15l15 39h198zM145 460v-460h-66v448z" />
    <glyph glyph-name="Ibreve" unicode="&#x12c;" horiz-adv-x="270" 
d="M133 728q70 0 87 91h33q0 -58 -36.5 -103t-86.5 -45q-54 0 -84.5 43.5t-30.5 104.5h34q17 -91 84 -91zM171 612v-612h-72v612h72z" />
    <glyph glyph-name="ibreve" unicode="&#x12d;" horiz-adv-x="226" 
d="M111 576q40 0 63.5 30.5t33.5 75.5h35q0 -61 -39 -111.5t-95 -50.5q-61 0 -95 49t-34 113h35q24 -106 96 -106zM147 460v-460h-66v448z" />
    <glyph glyph-name="Iogonek" unicode="&#x12e;" horiz-adv-x="270" 
d="M107 0h-8v612h72v-612h-13q-37 -27 -64 -62.5t-27 -65.5q0 -21 13 -32t32 -11q11 0 39 14l12 -34q-36 -20 -69 -20q-37 0 -57 21t-20 56q0 64 90 134z" />
    <glyph glyph-name="iogonek" unicode="&#x12f;" horiz-adv-x="226" 
d="M66 599q0 13 17.5 31.5t29.5 18.5t32 -14.5t20 -28.5q0 -13 -18 -31t-29 -18q-13 0 -32.5 14.5t-19.5 27.5zM97 0h-17v448l66 12v-460h2q-37 -27 -64 -62.5t-27 -65.5q0 -21 13 -32t32 -11q11 0 39 14l12 -34q-36 -20 -69 -20q-37 0 -57 21t-20 56q0 64 90 134z" />
    <glyph glyph-name="Idotaccent" unicode="&#x130;" horiz-adv-x="270" 
d="M87 738q0 14 17.5 32.5t29.5 18.5q13 0 32.5 -14.5t19.5 -28.5q0 -13 -17.5 -31t-29.5 -18q-13 0 -32.5 14t-19.5 27zM171 612v-612h-72v612h72z" />
    <glyph glyph-name="dotlessi" unicode="&#x131;" horiz-adv-x="226" 
d="M146 460v-460h-66v448z" />
    <glyph glyph-name="IJ" unicode="&#x132;" horiz-adv-x="604" 
d="M171 612v-612h-72v612h72zM521 612v-439q0 -90 -48 -136.5t-126 -46.5q-28 0 -72 11l13 58q47 -14 82 -14q36 0 57.5 26.5t21.5 72.5v468h72z" />
    <glyph glyph-name="ij" unicode="&#x133;" horiz-adv-x="451" 
d="M288 599q0 13 17.5 31.5t29.5 18.5t32 -14.5t20 -28.5q0 -13 -18 -31t-29 -18q-13 0 -32.5 14.5t-19.5 27.5zM66 599q0 13 17.5 31.5t29.5 18.5t32 -14.5t20 -28.5q0 -13 -18 -31t-29 -18q-13 0 -32.5 14.5t-19.5 27.5zM306 -14v462l66 12v-465q0 -92 -49 -155t-124 -63
l-13 48q65 14 92.5 45t27.5 116zM80 448l66 12v-460h-66v448z" />
    <glyph glyph-name="Jcircumflex" unicode="&#x134;" horiz-adv-x="342" 
d="M313 664l-90 80l-91 -80h-54l126 138h37l126 -138h-54zM258 612v-439q0 -90 -48 -136.5t-126 -46.5q-28 0 -72 11l13 58q47 -14 82 -14q36 0 57.5 26.5t21.5 72.5v468h72z" />
    <glyph glyph-name="jcircumflex" unicode="&#x135;" horiz-adv-x="226" 
d="M210 514l-90 80l-91 -80h-54l126 138h37l126 -138h-54zM80 -14v462l66 12v-465q0 -92 -49 -155t-124 -63l-13 48q65 14 92.5 45t27.5 116z" />
    <glyph glyph-name="Kcommaaccent" unicode="&#x136;" horiz-adv-x="561" 
d="M553 0h-98l-284 314l273 298h85l-277 -292zM171 612v-612h-72v612h72zM242 -79q0 12 12 22.5t25 10.5q14 0 32 -19.5t18 -38.5q0 -28 -57 -139l-36 14q36 75 36 102q0 4 -15 20t-15 28z" />
    <glyph glyph-name="kcommaaccent" unicode="&#x137;" horiz-adv-x="429" 
d="M80 0v678l66 13v-691h-66zM429 0h-84l-198 246l-1 1l191 203h78l-198 -200zM181 -79q0 12 12 22.5t25 10.5q14 0 32 -19.5t18 -38.5q0 -28 -57 -139l-36 14q36 75 36 102q0 4 -15 20t-15 28z" />
    <glyph glyph-name="Lacute" unicode="&#x139;" horiz-adv-x="437" 
d="M96 664l129 138l69 -14l-145 -124h-53zM99 0v612h72v-554l256 4l-9 -62h-319z" />
    <glyph glyph-name="lacute" unicode="&#x13a;" horiz-adv-x="264" 
d="M78 716l129 138l69 -14l-145 -124h-53zM223 50l8 -45q-30 -15 -73 -15q-33 0 -54 19t-21 54v616l64 12v-617q0 -31 34 -31q23 0 42 7z" />
    <glyph glyph-name="Lcommaaccent" unicode="&#x13b;" horiz-adv-x="437" 
d="M99 0v612h72v-554l256 4l-9 -62h-319zM213 -79q0 12 12 22.5t25 10.5q14 0 32 -19.5t18 -38.5q0 -28 -57 -139l-36 14q36 75 36 102q0 4 -15 20t-15 28z" />
    <glyph glyph-name="lcommaaccent" unicode="&#x13c;" horiz-adv-x="264" 
d="M223 50l8 -45q-30 -15 -73 -15q-33 0 -54 19t-21 54v616l64 12v-617q0 -31 34 -31q23 0 42 7zM110 -79q0 12 12 22.5t25 10.5q14 0 32 -19.5t18 -38.5q0 -28 -57 -139l-36 14q36 75 36 102q0 4 -15 20t-15 28z" />
    <glyph glyph-name="Lcaron" unicode="&#x13d;" horiz-adv-x="437" 
d="M99 0v612h72v-554l256 4l-9 -62h-319z" />
    <glyph glyph-name="lcaron" unicode="&#x13e;" horiz-adv-x="294" 
d="M213 666q3 10 16 18t27 8q12 0 23.5 -22.5t11.5 -46.5q0 -28 -14 -58t-51 -83l-27 20q4 8 12 22.5t11.5 21t8 16.5t6.5 17.5t2 15.5q0 19 -13 44t-13 27zM223 50l8 -45q-30 -15 -73 -15q-33 0 -54 19t-21 54v616l64 12v-617q0 -31 34 -31q23 0 42 7z" />
    <glyph glyph-name="Ldot" unicode="&#x13f;" horiz-adv-x="437" 
d="M314 344q0 14 17.5 32.5t29.5 18.5q13 0 32.5 -14.5t19.5 -28.5q0 -13 -17.5 -31t-29.5 -18q-13 0 -32.5 14t-19.5 27zM99 0v612h72v-554l256 4l-9 -62h-319z" />
    <glyph glyph-name="ldot" unicode="&#x140;" horiz-adv-x="299" 
d="M223 50l8 -45q-30 -15 -73 -15q-33 0 -54 19t-21 54v616l64 12v-617q0 -31 34 -31q23 0 42 7zM199 247q0 14 17.5 32.5t29.5 18.5q13 0 32.5 -14.5t19.5 -28.5q0 -13 -17.5 -31t-29.5 -18q-13 0 -32.5 14t-19.5 27z" />
    <glyph glyph-name="Lslash" unicode="&#x141;" horiz-adv-x="439" 
d="M92 0v269l-81 -34v57l81 34v286h72v-255l132 56v-57l-132 -56v-242l256 4l-9 -62h-319z" />
    <glyph glyph-name="lslash" unicode="&#x142;" horiz-adv-x="254" 
d="M154 -10q-33 0 -54 19t-21 54v232l-62 -27v51l62 27v333l64 12v-317l82 35v-51l-82 -35v-249q0 -31 34 -31q23 0 42 7l8 -45q-30 -15 -73 -15z" />
    <glyph glyph-name="Nacute" unicode="&#x143;" horiz-adv-x="659" 
d="M269 664l129 138l69 -14l-145 -124h-53zM494 0l-334 508v-508h-61v612h71l329 -502v502h61v-612h-66z" />
    <glyph glyph-name="nacute" unicode="&#x144;" horiz-adv-x="496" 
d="M183 514l129 138l69 -14l-145 -124h-53zM266 403q-46 0 -120 -33v-370h-66v449l48 11l15 -50q89 50 146 50q63 0 99.5 -36t36.5 -95v-329h-66v302q0 48 -25 74.5t-68 26.5z" />
    <glyph glyph-name="Ncommaaccent" unicode="&#x145;" horiz-adv-x="659" 
d="M494 0l-334 508v-508h-61v612h71l329 -502v502h61v-612h-66zM288 -79q0 12 12 22.5t25 10.5q14 0 32 -19.5t18 -38.5q0 -28 -57 -139l-36 14q36 75 36 102q0 4 -15 20t-15 28z" />
    <glyph glyph-name="ncommaaccent" unicode="&#x146;" horiz-adv-x="496" 
d="M266 403q-46 0 -120 -33v-370h-66v449l48 11l15 -50q89 50 146 50q63 0 99.5 -36t36.5 -95v-329h-66v302q0 48 -25 74.5t-68 26.5zM211 -79q0 12 12 22.5t25 10.5q14 0 32 -19.5t18 -38.5q0 -28 -57 -139l-36 14q36 75 36 102q0 4 -15 20t-15 28z" />
    <glyph glyph-name="Ncaron" unicode="&#x147;" horiz-adv-x="659" 
d="M357 667h-36l-126 139h53l91 -80l90 80h55zM494 0l-334 508v-508h-61v612h71l329 -502v502h61v-612h-66z" />
    <glyph glyph-name="ncaron" unicode="&#x148;" horiz-adv-x="496" 
d="M267 517h-36l-126 139h53l91 -80l90 80h55zM266 403q-46 0 -120 -33v-370h-66v449l48 11l15 -50q89 50 146 50q63 0 99.5 -36t36.5 -95v-329h-66v302q0 48 -25 74.5t-68 26.5z" />
    <glyph glyph-name="Eng" unicode="&#x14a;" horiz-adv-x="659" 
d="M396 -177q-29 0 -72 15l16 56q47 -19 80 -19q78 0 78 89v36h-4l-334 508v-508h-61v612h71l329 -502v502h61v-623q0 -84 -44.5 -125t-119.5 -41z" />
    <glyph glyph-name="eng" unicode="&#x14b;" horiz-adv-x="496" 
d="M252 -223l-13 48q64 14 92 48t28 119v310q0 48 -25 74.5t-68 26.5q-46 0 -120 -33v-370h-66v449l48 11l15 -50q89 50 146 50q63 0 99.5 -36t36.5 -95v-334q0 -92 -49 -155t-124 -63z" />
    <glyph glyph-name="Omacron" unicode="&#x14c;" horiz-adv-x="658" 
d="M452 760v-15l-15 -33h-239v15l15 33h239zM609 318q0 -153 -84 -240.5t-217 -87.5q-114 0 -186 81t-72 223q0 153 83 240.5t216 87.5q114 0 187 -81t73 -223zM537 290q0 144 -60.5 210t-161.5 66q-82 0 -138 -63t-56 -181q0 -145 60 -210.5t161 -65.5q82 0 138.5 62
t56.5 182z" />
    <glyph glyph-name="omacron" unicode="&#x14d;" horiz-adv-x="492" 
d="M377 610v-15l-15 -33h-239v15l15 33h239zM452 234q0 -115 -60.5 -179.5t-161.5 -66.5q-85 2 -137.5 63t-52.5 165q0 115 61 179.5t165 64.5q86 0 136 -60.5t50 -165.5zM386 213q0 195 -151 195q-63 0 -96 -44.5t-33 -126.5q0 -100 39.5 -147.5t110.5 -47.5q64 0 97 45
t33 126z" />
    <glyph glyph-name="Obreve" unicode="&#x14e;" horiz-adv-x="658" 
d="M320 720q75 0 96 92h39q0 -58 -41.5 -103t-98.5 -45q-62 0 -95.5 43.5t-33.5 104.5h39q21 -92 95 -92zM609 318q0 -153 -84 -240.5t-217 -87.5q-114 0 -186 81t-72 223q0 153 83 240.5t216 87.5q114 0 187 -81t73 -223zM537 290q0 144 -60.5 210t-161.5 66
q-82 0 -138 -63t-56 -181q0 -145 60 -210.5t161 -65.5q82 0 138.5 62t56.5 182z" />
    <glyph glyph-name="obreve" unicode="&#x14f;" horiz-adv-x="492" 
d="M230 570q75 0 96 92h39q0 -58 -41.5 -103t-98.5 -45q-62 0 -95.5 43.5t-33.5 104.5h39q21 -92 95 -92zM452 234q0 -115 -60.5 -179.5t-161.5 -66.5q-85 2 -137.5 63t-52.5 165q0 115 61 179.5t165 64.5q86 0 136 -60.5t50 -165.5zM386 213q0 195 -151 195
q-63 0 -96 -44.5t-33 -126.5q0 -100 39.5 -147.5t110.5 -47.5q64 0 97 45t33 126z" />
    <glyph glyph-name="Ohungarumlaut" unicode="&#x150;" horiz-adv-x="658" 
d="M305 664l134 138l70 -14l-151 -124h-53zM195 664l134 138l70 -14l-151 -124h-53zM609 318q0 -153 -84 -240.5t-217 -87.5q-114 0 -186 81t-72 223q0 153 83 240.5t216 87.5q114 0 187 -81t73 -223zM537 290q0 144 -60.5 210t-161.5 66q-82 0 -138 -63t-56 -181
q0 -145 60 -210.5t161 -65.5q82 0 138.5 62t56.5 182z" />
    <glyph glyph-name="ohungarumlaut" unicode="&#x151;" horiz-adv-x="492" 
d="M194 514l134 138l70 -14l-151 -124h-53zM84 514l134 138l70 -14l-151 -124h-53zM452 234q0 -115 -60.5 -179.5t-161.5 -66.5q-85 2 -137.5 63t-52.5 165q0 115 61 179.5t165 64.5q86 0 136 -60.5t50 -165.5zM386 213q0 195 -151 195q-63 0 -96 -44.5t-33 -126.5
q0 -100 39.5 -147.5t110.5 -47.5q64 0 97 45t33 126z" />
    <glyph glyph-name="OE" unicode="&#x152;" horiz-adv-x="833" 
d="M340 46q52 0 90 21v471q-48 28 -117 28q-82 0 -137 -61.5t-55 -182.5q0 -143 59.5 -209.5t159.5 -66.5zM430 0v18q-51 -28 -123 -28q-113 0 -185 81t-72 223q0 151 83 239.5t208 88.5q47 0 89 -15v5h342l-9 -59l-261 4v-212h240l-10 -56l-230 3v-234l286 4l-9 -62h-349z
" />
    <glyph glyph-name="oe" unicode="&#x153;" horiz-adv-x="787" 
d="M575 414q-53 0 -82 -28t-37 -97h226q0 125 -107 125zM386 213q0 195 -151 195q-63 0 -96 -44.5t-33 -126.5q0 -100 39.5 -147.5t110.5 -47.5q64 0 97 45t33 126zM596 -10q-127 0 -179 98q-58 -98 -187 -100q-85 2 -137.5 63t-52.5 165q0 115 61 179.5t165 64.5
q110 0 158 -95q55 95 164 95q73 0 116 -44t43 -118q0 -45 -1 -55h-294v-19q0 -94 45 -137.5t113 -43.5t126 25l13 -45q-83 -33 -153 -33z" />
    <glyph glyph-name="Racute" unicode="&#x154;" horiz-adv-x="529" 
d="M199 664l129 138l69 -14l-145 -124h-53zM259 313q54 0 89.5 29t35.5 87q0 62 -36 96t-95 34q-26 0 -82 -2v-241q29 -3 88 -3zM237 259q-6 0 -29 0.5t-37 0.5v-260h-72v612h160q95 0 146 -42.5t51 -116.5q0 -59 -30 -102.5t-80 -67.5l160 -283h-84l-140 263q-20 -4 -45 -4
z" />
    <glyph glyph-name="racute" unicode="&#x155;" horiz-adv-x="324" 
d="M122 514l129 138l69 -14l-145 -124h-53zM261 393q-56 -1 -115 -38v-355h-66v449l48 11l18 -61q81 61 153 61q3 1 4 0l-8 -68q-5 1 -34 1z" />
    <glyph glyph-name="Rcommaaccent" unicode="&#x156;" horiz-adv-x="529" 
d="M259 313q54 0 89.5 29t35.5 87q0 62 -36 96t-95 34q-26 0 -82 -2v-241q29 -3 88 -3zM237 259q-6 0 -29 0.5t-37 0.5v-260h-72v612h160q95 0 146 -42.5t51 -116.5q0 -59 -30 -102.5t-80 -67.5l160 -283h-84l-140 263q-20 -4 -45 -4zM234 -79q0 12 12 22.5t25 10.5
q14 0 32 -19.5t18 -38.5q0 -28 -57 -139l-36 14q36 75 36 102q0 4 -15 20t-15 28z" />
    <glyph glyph-name="rcommaaccent" unicode="&#x157;" horiz-adv-x="324" 
d="M261 393q-56 -1 -115 -38v-355h-66v449l48 11l18 -61q81 61 153 61q3 1 4 0l-8 -68q-5 1 -34 1zM70 -79q0 12 12 22.5t25 10.5q14 0 32 -19.5t18 -38.5q0 -28 -57 -139l-36 14q36 75 36 102q0 4 -15 20t-15 28z" />
    <glyph glyph-name="Rcaron" unicode="&#x158;" horiz-adv-x="529" 
d="M284 667h-36l-126 139h53l91 -80l90 80h55zM259 313q54 0 89.5 29t35.5 87q0 62 -36 96t-95 34q-26 0 -82 -2v-241q29 -3 88 -3zM237 259q-6 0 -29 0.5t-37 0.5v-260h-72v612h160q95 0 146 -42.5t51 -116.5q0 -59 -30 -102.5t-80 -67.5l160 -283h-84l-140 263
q-20 -4 -45 -4z" />
    <glyph glyph-name="rcaron" unicode="&#x159;" horiz-adv-x="324" 
d="M208 517h-36l-126 139h53l91 -80l90 80h55zM261 393q-56 -1 -115 -38v-355h-66v449l48 11l18 -61q81 61 153 61q3 1 4 0l-8 -68q-5 1 -34 1z" />
    <glyph glyph-name="Sacute" unicode="&#x15a;" horiz-adv-x="474" 
d="M169 664l129 138l69 -14l-145 -124h-53zM214 288q-79 33 -114.5 74t-35.5 100q0 69 54 114.5t144 45.5q88 0 146 -21l-19 -63q-82 30 -150 30q-52 0 -80 -24t-28 -68q0 -45 28.5 -72.5t101.5 -59.5q92 -40 124 -79.5t32 -94.5q0 -83 -60.5 -131.5t-170.5 -48.5
q-29 0 -71.5 7t-65.5 17l18 65q87 -35 154 -35q57 0 92.5 26.5t35.5 73.5q0 49 -26.5 79.5t-108.5 64.5z" />
    <glyph glyph-name="sacute" unicode="&#x15b;" horiz-adv-x="389" 
d="M149 514l129 138l69 -14l-145 -124h-53zM175 -10q-67 0 -134 23l11 55q81 -28 152 -28q33 0 57 18.5t24 54.5q0 27 -20 45t-55 34l-64 27q-27 12 -44.5 23t-33.5 35.5t-16 56.5q0 56 49.5 91t101.5 35q94 0 138 -21l-15 -53q-89 24 -131 24q-38 0 -60.5 -16t-22.5 -45
t17.5 -46.5t58.5 -33.5l52 -22q25 -11 40 -19t33 -22.5t26.5 -34t8.5 -44.5q0 -60 -51.5 -98.5t-121.5 -38.5z" />
    <glyph glyph-name="Scircumflex" unicode="&#x15c;" horiz-adv-x="474" 
d="M347 664l-90 80l-91 -80h-54l126 138h37l126 -138h-54zM214 288q-79 33 -114.5 74t-35.5 100q0 69 54 114.5t144 45.5q88 0 146 -21l-19 -63q-82 30 -150 30q-52 0 -80 -24t-28 -68q0 -45 28.5 -72.5t101.5 -59.5q92 -40 124 -79.5t32 -94.5q0 -83 -60.5 -131.5
t-170.5 -48.5q-29 0 -71.5 7t-65.5 17l18 65q87 -35 154 -35q57 0 92.5 26.5t35.5 73.5q0 49 -26.5 79.5t-108.5 64.5z" />
    <glyph glyph-name="scircumflex" unicode="&#x15d;" horiz-adv-x="389" 
d="M288 514l-90 80l-91 -80h-54l126 138h37l126 -138h-54zM175 -10q-67 0 -134 23l11 55q81 -28 152 -28q33 0 57 18.5t24 54.5q0 27 -20 45t-55 34l-64 27q-27 12 -44.5 23t-33.5 35.5t-16 56.5q0 56 49.5 91t101.5 35q94 0 138 -21l-15 -53q-89 24 -131 24
q-38 0 -60.5 -16t-22.5 -45t17.5 -46.5t58.5 -33.5l52 -22q25 -11 40 -19t33 -22.5t26.5 -34t8.5 -44.5q0 -60 -51.5 -98.5t-121.5 -38.5z" />
    <glyph glyph-name="Scedilla" unicode="&#x15e;" horiz-adv-x="474" 
d="M142 -227l-9 37q52 7 76.5 17t24.5 31q0 26 -77 48l-3 5l36 79h-4q-29 0 -71.5 7t-65.5 17l18 65q87 -35 154 -35q57 0 92.5 26.5t35.5 73.5q0 49 -26.5 79.5t-108.5 64.5q-79 33 -114.5 74t-35.5 100q0 69 54 114.5t144 45.5q88 0 146 -21l-19 -63q-82 30 -150 30
q-52 0 -80 -24t-28 -68q0 -45 28.5 -72.5t101.5 -59.5q92 -40 124 -79.5t32 -94.5q0 -73 -47 -120t-135 -57l-23 -48q3 -2 10 -5q24 -12 35 -18.5t20.5 -19.5t9.5 -30q0 -35 -36.5 -63t-108.5 -36z" />
    <glyph glyph-name="scedilla" unicode="&#x15f;" horiz-adv-x="389" 
d="M115 -227l-9 37q52 7 76.5 17t24.5 31q0 26 -77 48l-3 5l36 79q-61 3 -122 23l11 55q81 -28 152 -28q33 0 57 18.5t24 54.5q0 27 -20 45t-55 34l-64 27q-27 12 -44.5 23t-33.5 35.5t-16 56.5q0 56 49.5 91t101.5 35q94 0 138 -21l-15 -53q-89 24 -131 24q-38 0 -60.5 -16
t-22.5 -45t17.5 -46.5t58.5 -33.5l52 -22q25 -11 40 -19t33 -22.5t26.5 -34t8.5 -44.5q0 -53 -40.5 -89.5t-100.5 -45.5l-22 -47q3 -2 10 -5q24 -12 35 -18.5t20.5 -19.5t9.5 -30q0 -35 -36.5 -63t-108.5 -36z" />
    <glyph glyph-name="Scaron" unicode="&#x160;" horiz-adv-x="474" 
d="M274 667h-36l-126 139h53l91 -80l90 80h55zM214 288q-79 33 -114.5 74t-35.5 100q0 69 54 114.5t144 45.5q88 0 146 -21l-19 -63q-82 30 -150 30q-52 0 -80 -24t-28 -68q0 -45 28.5 -72.5t101.5 -59.5q92 -40 124 -79.5t32 -94.5q0 -83 -60.5 -131.5t-170.5 -48.5
q-29 0 -71.5 7t-65.5 17l18 65q87 -35 154 -35q57 0 92.5 26.5t35.5 73.5q0 49 -26.5 79.5t-108.5 64.5z" />
    <glyph glyph-name="scaron" unicode="&#x161;" horiz-adv-x="389" 
d="M219 517h-36l-126 139h53l91 -80l90 80h55zM175 -10q-67 0 -134 23l11 55q81 -28 152 -28q33 0 57 18.5t24 54.5q0 27 -20 45t-55 34l-64 27q-27 12 -44.5 23t-33.5 35.5t-16 56.5q0 56 49.5 91t101.5 35q94 0 138 -21l-15 -53q-89 24 -131 24q-38 0 -60.5 -16t-22.5 -45
t17.5 -46.5t58.5 -33.5l52 -22q25 -11 40 -19t33 -22.5t26.5 -34t8.5 -44.5q0 -60 -51.5 -98.5t-121.5 -38.5z" />
    <glyph glyph-name="Tcommaaccent" unicode="&#x162;" horiz-adv-x="495" 
d="M475 552l-191 3v-555h-72v555l-200 -3l8 60h463zM199 -79q0 12 12 22.5t25 10.5q14 0 32 -19.5t18 -38.5q0 -28 -57 -139l-36 14q36 75 36 102q0 4 -15 20t-15 28z" />
    <glyph glyph-name="tcommaaccent" unicode="&#x163;" horiz-adv-x="335" 
d="M322 15q-52 -25 -116 -25q-49 0 -82.5 29t-32.5 80l4 303h-78v38l78 10l1 74l66 12l-1 -86h152l-10 -48h-143l-3 -284q-1 -36 18 -53.5t51 -17.5q45 0 88 13zM168 -79q0 12 12 22.5t25 10.5q14 0 32 -19.5t18 -38.5q0 -28 -57 -139l-36 14q36 75 36 102q0 4 -15 20
t-15 28z" />
    <glyph glyph-name="Tcaron" unicode="&#x164;" horiz-adv-x="495" 
d="M266 667h-36l-126 139h53l91 -80l90 80h55zM475 552l-191 3v-555h-72v555l-200 -3l8 60h463z" />
    <glyph glyph-name="tcaron" unicode="&#x165;" horiz-adv-x="335" 
d="M234 672q3 10 16 18t27 8q12 0 23.5 -22.5t11.5 -46.5q0 -28 -14 -58t-51 -83l-27 20q4 8 12 22.5t11.5 21t8 16.5t6.5 17.5t2 15.5q0 19 -13 44t-13 27zM322 15q-52 -25 -116 -25q-49 0 -82.5 29t-32.5 80l4 303h-78v38l78 10l1 74l66 12l-1 -86h152l-10 -48h-143
l-3 -284q-1 -36 18 -53.5t51 -17.5q45 0 88 13z" />
    <glyph glyph-name="Tbar" unicode="&#x166;" horiz-adv-x="495" 
d="M421 300h-137v-300h-72v300h-152v15l16 38h136v202l-200 -3l8 60h463l-8 -60l-191 3v-202h153v-15z" />
    <glyph glyph-name="tbar" unicode="&#x167;" horiz-adv-x="335" 
d="M322 15q-52 -25 -116 -25q-49 0 -82.5 29t-32.5 80l2 131h-73v15l14 28h59l2 129h-78v38l78 10l1 74l66 12l-1 -86h152l-10 -48h-143l-1 -129h124v-15l-14 -28h-111l-1 -112q-1 -36 18 -53.5t51 -17.5q45 0 88 13z" />
    <glyph glyph-name="Utilde" unicode="&#x168;" horiz-adv-x="639" 
d="M442 772l27 -29q-38 -41 -60 -51q-16 -8 -33 -8q-19 0 -63.5 16.5t-56.5 16.5q-17 0 -37 -12.5t-28 -20.5l-25 27q55 60 99 60q23 0 62 -14.5t52 -14.5q31 0 63 30zM93 196v416h72v-383q0 -179 167 -179q70 0 108.5 38t38.5 115v409h67v-386q0 -115 -60.5 -175.5
t-175.5 -60.5q-98 -1 -157.5 51.5t-59.5 154.5z" />
    <glyph glyph-name="utilde" unicode="&#x169;" horiz-adv-x="496" 
d="M361 622l27 -29q-38 -41 -60 -51q-16 -8 -33 -8q-19 0 -63.5 16.5t-56.5 16.5q-17 0 -37 -12.5t-28 -20.5l-25 27q55 60 99 60q23 0 62 -14.5t52 -14.5q31 0 63 30zM370 -10l-17 51q-32 -19 -74.5 -35t-71.5 -16q-63 0 -99.5 36t-36.5 95v328l66 11v-312
q0 -48 25.5 -75.5t68.5 -27.5t119 35v369l66 11v-459z" />
    <glyph glyph-name="Umacron" unicode="&#x16a;" horiz-adv-x="639" 
d="M439 760v-15l-15 -33h-239v15l15 33h239zM93 196v416h72v-383q0 -179 167 -179q70 0 108.5 38t38.5 115v409h67v-386q0 -115 -60.5 -175.5t-175.5 -60.5q-98 -1 -157.5 51.5t-59.5 154.5z" />
    <glyph glyph-name="umacron" unicode="&#x16b;" horiz-adv-x="496" 
d="M364 610v-15l-15 -33h-239v15l15 33h239zM370 -10l-17 51q-32 -19 -74.5 -35t-71.5 -16q-63 0 -99.5 36t-36.5 95v328l66 11v-312q0 -48 25.5 -75.5t68.5 -27.5t119 35v369l66 11v-459z" />
    <glyph glyph-name="Ubreve" unicode="&#x16c;" horiz-adv-x="639" 
d="M314 720q75 0 96 92h39q0 -58 -41.5 -103t-98.5 -45q-62 0 -95.5 43.5t-33.5 104.5h39q21 -92 95 -92zM93 196v416h72v-383q0 -179 167 -179q70 0 108.5 38t38.5 115v409h67v-386q0 -115 -60.5 -175.5t-175.5 -60.5q-98 -1 -157.5 51.5t-59.5 154.5z" />
    <glyph glyph-name="ubreve" unicode="&#x16d;" horiz-adv-x="496" 
d="M224 570q75 0 96 92h39q0 -58 -41.5 -103t-98.5 -45q-62 0 -95.5 43.5t-33.5 104.5h39q21 -92 95 -92zM370 -10l-17 51q-32 -19 -74.5 -35t-71.5 -16q-63 0 -99.5 36t-36.5 95v328l66 11v-312q0 -48 25.5 -75.5t68.5 -27.5t119 35v369l66 11v-459z" />
    <glyph glyph-name="Uring" unicode="&#x16e;" horiz-adv-x="639" 
d="M407 740q0 -35 -27.5 -59.5t-62.5 -24.5q-37 0 -63 22.5t-26 61.5q0 35 27 60.5t63 25.5q37 0 63 -22.5t26 -63.5zM271 740q0 -20 13.5 -33t32.5 -13t33 13t14 33q0 22 -14 35t-33 13t-32.5 -13t-13.5 -35zM93 196v416h72v-383q0 -179 167 -179q70 0 108.5 38t38.5 115
v409h67v-386q0 -115 -60.5 -175.5t-175.5 -60.5q-98 -1 -157.5 51.5t-59.5 154.5z" />
    <glyph glyph-name="uring" unicode="&#x16f;" horiz-adv-x="496" 
d="M327 590q0 -35 -27.5 -59.5t-62.5 -24.5q-37 0 -63 22.5t-26 61.5q0 35 27 60.5t63 25.5q37 0 63 -22.5t26 -63.5zM191 590q0 -20 13.5 -33t32.5 -13t33 13t14 33q0 22 -14 35t-33 13t-32.5 -13t-13.5 -35zM370 -10l-17 51q-32 -19 -74.5 -35t-71.5 -16q-63 0 -99.5 36
t-36.5 95v328l66 11v-312q0 -48 25.5 -75.5t68.5 -27.5t119 35v369l66 11v-459z" />
    <glyph glyph-name="Uhungarumlaut" unicode="&#x170;" horiz-adv-x="639" 
d="M279 664l134 138l70 -14l-151 -124h-53zM169 664l134 138l70 -14l-151 -124h-53zM93 196v416h72v-383q0 -179 167 -179q70 0 108.5 38t38.5 115v409h67v-386q0 -115 -60.5 -175.5t-175.5 -60.5q-98 -1 -157.5 51.5t-59.5 154.5z" />
    <glyph glyph-name="uhungarumlaut" unicode="&#x171;" horiz-adv-x="496" 
d="M194 514l134 138l70 -14l-151 -124h-53zM84 514l134 138l70 -14l-151 -124h-53zM370 -10l-17 51q-32 -19 -74.5 -35t-71.5 -16q-63 0 -99.5 36t-36.5 95v328l66 11v-312q0 -48 25.5 -75.5t68.5 -27.5t119 35v369l66 11v-459z" />
    <glyph glyph-name="Uogonek" unicode="&#x172;" horiz-adv-x="639" 
d="M368 -191q-37 0 -57 21t-20 56q0 51 57 106q-24 -2 -38 -2q-98 -1 -157.5 51.5t-59.5 154.5v416h72v-383q0 -179 167 -179q70 0 108.5 38t38.5 115v409h67v-386q0 -172 -131 -219q-74 -64 -74 -115q0 -21 13 -32t32 -11q11 0 39 14l12 -34q-36 -20 -69 -20z" />
    <glyph glyph-name="uogonek" unicode="&#x173;" horiz-adv-x="496" 
d="M352 -211q-37 0 -57 21t-20 56q0 64 90 134h2l-14 41q-32 -19 -74.5 -35t-71.5 -16q-63 0 -99.5 36t-36.5 95v328l66 11v-312q0 -48 25.5 -75.5t68.5 -27.5t119 35v369l66 11v-459l-4 -1h4q-37 -27 -64 -62.5t-27 -65.5q0 -21 13 -32t32 -11q11 0 39 14l12 -34
q-36 -20 -69 -20z" />
    <glyph glyph-name="Wcircumflex" unicode="&#x174;" horiz-adv-x="858" 
d="M522 664l-90 80l-91 -80h-54l126 138h37l126 -138h-54zM598 0l-169 517l-165 -517h-80l-152 612h71l128 -526l166 526h69l173 -525l119 525h66l-148 -612h-78z" />
    <glyph glyph-name="wcircumflex" unicode="&#x175;" horiz-adv-x="688" 
d="M410 514l-90 80l-91 -80h-54l126 138h37l126 -138h-54zM462 0l-122 355l-117 -355h-76l-117 445l67 12l96 -386l121 374l57 12l131 -386l94 379h62l-124 -450h-72z" />
    <glyph glyph-name="Ycircumflex" unicode="&#x176;" horiz-adv-x="520" 
d="M351 664l-90 80l-91 -80h-54l126 138h37l126 -138h-54zM301 250v-250h-72v250l-222 362h83l180 -298l167 298h72z" />
    <glyph glyph-name="ycircumflex" unicode="&#x177;" horiz-adv-x="433" 
d="M319 514l-90 80l-91 -80h-54l126 138h37l126 -138h-54zM15 -227h-14l-9 60q144 -13 214 167h-23l-162 444l66 13l140 -396q16 47 48 137t56.5 159.5t31.5 92.5h66q-94 -269 -166 -459q-43 -108 -106.5 -163t-141.5 -55z" />
    <glyph glyph-name="Ydieresis" unicode="&#x178;" horiz-adv-x="520" 
d="M303 750q0 12 15.5 28.5t26.5 16.5q10 0 28.5 -12.5t18.5 -23.5q0 -13 -16 -29.5t-26 -16.5q-12 0 -29.5 13t-17.5 24zM129 750q0 12 15.5 28.5t26.5 16.5q10 0 28.5 -12.5t18.5 -23.5q0 -13 -16 -29.5t-26 -16.5q-12 0 -29.5 13t-17.5 24zM301 250v-250h-72v250
l-222 362h83l180 -298l167 298h72z" />
    <glyph glyph-name="Zacute" unicode="&#x179;" horiz-adv-x="522" 
d="M192 664l129 138l69 -14l-145 -124h-53zM467 0h-429v48l360 510l-345 -7l12 61h410v-62l-356 -498l360 7z" />
    <glyph glyph-name="zacute" unicode="&#x17a;" horiz-adv-x="410" 
d="M154 514l129 138l69 -14l-145 -124h-53zM370 0h-330v47l241 351l-236 -3l6 55h310v-44l-246 -355l261 4z" />
    <glyph glyph-name="Zdotaccent" unicode="&#x17b;" horiz-adv-x="522" 
d="M218 738q0 14 17.5 32.5t29.5 18.5q13 0 32.5 -14.5t19.5 -28.5q0 -13 -17.5 -31t-29.5 -18q-13 0 -32.5 14t-19.5 27zM467 0h-429v48l360 510l-345 -7l12 61h410v-62l-356 -498l360 7z" />
    <glyph glyph-name="zdotaccent" unicode="&#x17c;" horiz-adv-x="410" 
d="M145 588q0 14 17.5 32.5t29.5 18.5q13 0 32.5 -14.5t19.5 -28.5q0 -13 -17.5 -31t-29.5 -18q-13 0 -32.5 14t-19.5 27zM370 0h-330v47l241 351l-236 -3l6 55h310v-44l-246 -355l261 4z" />
    <glyph glyph-name="Zcaron" unicode="&#x17d;" horiz-adv-x="522" 
d="M276 667h-36l-126 139h53l91 -80l90 80h55zM467 0h-429v48l360 510l-345 -7l12 61h410v-62l-356 -498l360 7z" />
    <glyph glyph-name="zcaron" unicode="&#x17e;" horiz-adv-x="410" 
d="M223 517h-36l-126 139h53l91 -80l90 80h55zM370 0h-330v47l241 351l-236 -3l6 55h310v-44l-246 -355l261 4z" />
    <glyph glyph-name="Acaron" unicode="&#x1cd;" horiz-adv-x="554" 
d="M292 667h-36l-126 139h53l91 -80l90 80h55zM369 262l-97 271l-94 -271h191zM464 0l-74 206h-232l-71 -206h-72l226 612h71l227 -612h-75z" />
    <glyph glyph-name="acaron" unicode="&#x1ce;" horiz-adv-x="433" 
d="M231 517h-36l-126 139h53l91 -80l90 80h55zM317 -10l-16 54q-87 -54 -131 -54q-55 0 -91 31.5t-36 83.5q0 65 63.5 104t193.5 40v53q0 49 -24.5 77t-68.5 28q-49 0 -135 -30l-17 44q101 39 173 39q62 0 98 -36t36 -105v-318zM184 43q43 0 116 39v113q-52 4 -79 4
q-52 0 -84.5 -20.5t-32.5 -57.5q0 -39 24.5 -58.5t55.5 -19.5z" />
    <glyph glyph-name="AEacute" unicode="&#x1fc;" horiz-adv-x="794" 
d="M436 664l129 138l69 -14l-145 -124h-53zM387 541l-155 -279h162v279h-7zM394 0v206h-193l-114 -206h-72l342 612h379l-9 -59l-261 4v-212h240l-10 -56l-230 3v-234l286 4l-9 -62h-349z" />
    <glyph glyph-name="aeacute" unicode="&#x1fd;" horiz-adv-x="691" 
d="M306 514l129 138l69 -14l-145 -124h-53zM474 414q-48 0 -76 -29t-37 -96h226q0 64 -27 94.5t-86 30.5zM652 23q-91 -33 -169 -33q-99 0 -150 69q-40 -28 -88.5 -48.5t-76.5 -20.5q-54 0 -89.5 31.5t-35.5 83.5q0 64 62.5 103.5t190.5 40.5q0 3 1 7t1 7v48
q0 52 -28.5 74.5t-67.5 22.5q-34 0 -132 -30l-15 43q101 39 173 39q95 0 117 -72q54 72 148 72q74 0 115.5 -44t41.5 -125q0 -43 -1 -48h-291q-1 -9 -1 -28q0 -172 153 -172q59 0 129 25zM184 43q50 0 131 48q-21 45 -21 105q-42 3 -73 3q-52 0 -84.5 -20.5t-32.5 -57.5
q0 -39 24.5 -58.5t55.5 -19.5z" />
    <glyph glyph-name="Oslashacute" unicode="&#x1fe;" horiz-adv-x="658" 
d="M243 664l129 138l69 -14l-145 -124h-53zM121 322q0 -159 77 -228l208 456q-41 16 -91 16q-82 0 -138 -63t-56 -181zM342 46q82 0 138.5 62t56.5 182q0 170 -90 237l-209 -460q47 -21 104 -21zM308 -10q-52 0 -97 18l-41 -91h-52l51 113q-56 37 -87.5 104.5t-31.5 159.5
q0 153 83 240.5t216 87.5q46 0 84 -13l38 84h52l-47 -103q62 -36 97.5 -105.5t35.5 -166.5q0 -153 -84 -240.5t-217 -87.5z" />
    <glyph glyph-name="oslashacute" unicode="&#x1ff;" horiz-adv-x="504" 
d="M196 514l129 138l69 -14l-145 -124h-53zM106 237q0 -113 52 -160l146 317q-28 14 -69 14q-63 0 -96 -44.5t-33 -126.5zM256 42q64 0 97 45t33 126q0 105 -46 154l-145 -314q25 -11 61 -11zM230 -12q-30 0 -60 10l-32 -69h-48l41 88q-91 59 -91 199q0 115 61 179.5
t165 64.5q36 0 63 -10l34 73h49l-43 -93q83 -58 83 -196q0 -115 -60.5 -179.5t-161.5 -66.5z" />
    <glyph glyph-name="Scommaaccent" unicode="&#x218;" horiz-adv-x="474" 
d="M214 288q-79 33 -114.5 74t-35.5 100q0 69 54 114.5t144 45.5q88 0 146 -21l-19 -63q-82 30 -150 30q-52 0 -80 -24t-28 -68q0 -45 28.5 -72.5t101.5 -59.5q92 -40 124 -79.5t32 -94.5q0 -83 -60.5 -131.5t-170.5 -48.5q-29 0 -71.5 7t-65.5 17l18 65q87 -35 154 -35
q57 0 92.5 26.5t35.5 73.5q0 49 -26.5 79.5t-108.5 64.5zM190 -79q0 12 12 22.5t25 10.5q14 0 32 -19.5t18 -38.5q0 -28 -57 -139l-36 14q36 75 36 102q0 4 -15 20t-15 28z" />
    <glyph glyph-name="scommaaccent" unicode="&#x219;" horiz-adv-x="389" 
d="M175 -10q-67 0 -134 23l11 55q81 -28 152 -28q33 0 57 18.5t24 54.5q0 27 -20 45t-55 34l-64 27q-27 12 -44.5 23t-33.5 35.5t-16 56.5q0 56 49.5 91t101.5 35q94 0 138 -21l-15 -53q-89 24 -131 24q-38 0 -60.5 -16t-22.5 -45t17.5 -46.5t58.5 -33.5l52 -22
q25 -11 40 -19t33 -22.5t26.5 -34t8.5 -44.5q0 -60 -51.5 -98.5t-121.5 -38.5zM151 -79q0 12 12 22.5t25 10.5q14 0 32 -19.5t18 -38.5q0 -28 -57 -139l-36 14q36 75 36 102q0 4 -15 20t-15 28z" />
    <glyph glyph-name="uni021A" unicode="&#x21a;" horiz-adv-x="495" 
d="M226 0h-14v555l-200 -3l8 60h463l-8 -60l-191 3v-555h-15l-26 -55q3 -2 10 -5q24 -12 35 -18.5t20.5 -19.5t9.5 -30q0 -35 -36.5 -63t-108.5 -36l-9 37q52 7 76.5 17t24.5 31q0 26 -77 48l-3 5z" />
    <glyph glyph-name="uni021B" unicode="&#x21b;" horiz-adv-x="335" 
d="M262 -128q0 -35 -36.5 -63t-108.5 -36l-9 37q52 7 76.5 17t24.5 31q0 26 -77 48l-3 5l39 84q-35 10 -56.5 37t-20.5 67l4 303h-78v38l78 10l1 74l66 12l-1 -86h152l-10 -48h-143l-3 -284q-1 -36 18 -53.5t51 -17.5q45 0 88 13l8 -45q-52 -25 -114 -25l-21 -45q3 -2 10 -5
q24 -12 35 -18.5t20.5 -19.5t9.5 -30z" />
    <glyph glyph-name="circumflex" unicode="&#x2c6;" horiz-adv-x="431" 
d="M306 514l-90 80l-91 -80h-54l126 138h37l126 -138h-54z" />
    <glyph glyph-name="caron" unicode="&#x2c7;" horiz-adv-x="431" 
d="M233 517h-36l-126 139h53l91 -80l90 80h55z" />
    <glyph glyph-name="breve" unicode="&#x2d8;" horiz-adv-x="405" 
d="M202 570q75 0 96 92h39q0 -58 -41.5 -103t-98.5 -45q-62 0 -95.5 43.5t-33.5 104.5h39q21 -92 95 -92z" />
    <glyph glyph-name="dotaccent" unicode="&#x2d9;" horiz-adv-x="174" 
d="M38 588q0 14 17.5 32.5t29.5 18.5q13 0 32.5 -14.5t19.5 -28.5q0 -13 -17.5 -31t-29.5 -18q-13 0 -32.5 14t-19.5 27z" />
    <glyph glyph-name="ring" unicode="&#x2da;" horiz-adv-x="327" 
d="M253 590q0 -35 -27.5 -59.5t-62.5 -24.5q-37 0 -63 22.5t-26 61.5q0 35 27 60.5t63 25.5q37 0 63 -22.5t26 -63.5zM117 590q0 -20 13.5 -33t32.5 -13t33 13t14 33q0 22 -14 35t-33 13t-32.5 -13t-13.5 -35z" />
    <glyph glyph-name="ogonek" unicode="&#x2db;" horiz-adv-x="306" 
d="M80 -134q0 64 90 134h51q-37 -27 -64 -62.5t-27 -65.5q0 -21 13 -32t32 -11q11 0 39 14l12 -34q-36 -20 -69 -20q-37 0 -57 21t-20 56z" />
    <glyph glyph-name="tilde" unicode="&#x2dc;" horiz-adv-x="437" 
d="M343 622l27 -29q-38 -41 -60 -51q-16 -8 -33 -8q-19 0 -63.5 16.5t-56.5 16.5q-17 0 -37 -12.5t-28 -20.5l-25 27q55 60 99 60q23 0 62 -14.5t52 -14.5q31 0 63 30z" />
    <glyph glyph-name="hungarumlaut" unicode="&#x2dd;" horiz-adv-x="420" 
d="M164 514l134 138l70 -14l-151 -124h-53zM54 514l134 138l70 -14l-151 -124h-53z" />
    <glyph glyph-name="commaaccent" unicode="&#x326;" horiz-adv-x="252" 
d="M85 -79q0 12 12 22.5t25 10.5q14 0 32 -19.5t18 -38.5q0 -28 -57 -139l-36 14q36 75 36 102q0 4 -15 20t-15 28z" />
    <glyph glyph-name="Wgrave" unicode="&#x1e80;" horiz-adv-x="858" 
d="M487 664h-53l-145 124l69 14zM598 0l-169 517l-165 -517h-80l-152 612h71l128 -526l166 526h69l173 -525l119 525h66l-148 -612h-78z" />
    <glyph glyph-name="wgrave" unicode="&#x1e81;" horiz-adv-x="688" 
d="M432 514h-53l-145 124l69 14zM462 0l-122 355l-117 -355h-76l-117 445l67 12l96 -386l121 374l57 12l131 -386l94 379h62l-124 -450h-72z" />
    <glyph glyph-name="Wacute" unicode="&#x1e82;" horiz-adv-x="858" 
d="M367 664l129 138l69 -14l-145 -124h-53zM598 0l-169 517l-165 -517h-80l-152 612h71l128 -526l166 526h69l173 -525l119 525h66l-148 -612h-78z" />
    <glyph glyph-name="wacute" unicode="&#x1e83;" horiz-adv-x="688" 
d="M291 514l129 138l69 -14l-145 -124h-53zM462 0l-122 355l-117 -355h-76l-117 445l67 12l96 -386l121 374l57 12l131 -386l94 379h62l-124 -450h-72z" />
    <glyph glyph-name="Wdieresis" unicode="&#x1e84;" horiz-adv-x="858" 
d="M475 750q0 12 15.5 28.5t26.5 16.5q10 0 28.5 -12.5t18.5 -23.5q0 -13 -16 -29.5t-26 -16.5q-12 0 -29.5 13t-17.5 24zM301 750q0 12 15.5 28.5t26.5 16.5q10 0 28.5 -12.5t18.5 -23.5q0 -13 -16 -29.5t-26 -16.5q-12 0 -29.5 13t-17.5 24zM598 0l-169 517l-165 -517h-80
l-152 612h71l128 -526l166 526h69l173 -525l119 525h66l-148 -612h-78z" />
    <glyph glyph-name="wdieresis" unicode="&#x1e85;" horiz-adv-x="688" 
d="M383 600q0 12 15.5 28.5t26.5 16.5q10 0 28.5 -12.5t18.5 -23.5q0 -13 -16 -29.5t-26 -16.5q-12 0 -29.5 13t-17.5 24zM209 600q0 12 15.5 28.5t26.5 16.5q10 0 28.5 -12.5t18.5 -23.5q0 -13 -16 -29.5t-26 -16.5q-12 0 -29.5 13t-17.5 24zM462 0l-122 355l-117 -355h-76
l-117 445l67 12l96 -386l121 374l57 12l131 -386l94 379h62l-124 -450h-72z" />
    <glyph glyph-name="Ygrave" unicode="&#x1ef2;" horiz-adv-x="520" 
d="M359 664h-53l-145 124l69 14zM301 250v-250h-72v250l-222 362h83l180 -298l167 298h72z" />
    <glyph glyph-name="ygrave" unicode="&#x1ef3;" horiz-adv-x="433" 
d="M333 514h-53l-145 124l69 14zM15 -227h-14l-9 60q144 -13 214 167h-23l-162 444l66 13l140 -396q16 47 48 137t56.5 159.5t31.5 92.5h66q-94 -269 -166 -459q-43 -108 -106.5 -163t-141.5 -55z" />
    <glyph glyph-name="endash" unicode="&#x2013;" horiz-adv-x="454" 
d="M406 267v-12l-17 -37h-341v12l15 37h343z" />
    <glyph glyph-name="emdash" unicode="&#x2014;" horiz-adv-x="648" 
d="M601 267v-12l-17 -37h-536v12l15 37h538z" />
    <glyph glyph-name="quoteleft" unicode="&#x2018;" horiz-adv-x="232" 
d="M160 510q0 -14 -15 -27.5t-28 -13.5t-33.5 20t-20.5 41q0 30 61 174l45 -16q-42 -113 -42 -128q0 -4 16.5 -20.5t16.5 -29.5z" />
    <glyph glyph-name="quoteright" unicode="&#x2019;" horiz-adv-x="232" 
d="M73 651q0 14 14.5 27t27.5 13t33.5 -19.5t20.5 -40.5q0 -33 -61 -174l-45 16q43 115 43 128q0 4 -16.5 20.5t-16.5 29.5z" />
    <glyph glyph-name="quotesinglbase" unicode="&#x201a;" horiz-adv-x="232" 
d="M73 41q0 14 14.5 27t27.5 13t33.5 -19.5t20.5 -40.5q0 -33 -61 -174l-45 16q43 115 43 128q0 4 -16.5 20.5t-16.5 29.5z" />
    <glyph glyph-name="quotedblleft" unicode="&#x201c;" horiz-adv-x="379" 
d="M307 510q0 -14 -15 -27.5t-28 -13.5t-33.5 20t-20.5 41q0 33 61 174l45 -16q-42 -113 -42 -128q0 -4 16.5 -20.5t16.5 -29.5zM160 510q0 -14 -15 -27.5t-28 -13.5t-33.5 20t-20.5 41q0 30 61 174l45 -16q-42 -113 -42 -128q0 -4 16.5 -20.5t16.5 -29.5z" />
    <glyph glyph-name="quotedblright" unicode="&#x201d;" horiz-adv-x="372" 
d="M212 651q0 14 14.5 27t27.5 13t33.5 -19.5t20.5 -40.5q0 -33 -61 -174l-45 16q43 115 43 128q0 4 -16.5 20.5t-16.5 29.5zM73 651q0 14 14.5 27t27.5 13t33.5 -19.5t20.5 -40.5q0 -33 -61 -174l-45 16q43 115 43 128q0 4 -16.5 20.5t-16.5 29.5z" />
    <glyph glyph-name="quotedblbase" unicode="&#x201e;" horiz-adv-x="375" 
d="M215 41q0 14 14.5 27t27.5 13t33.5 -19.5t20.5 -40.5q0 -33 -61 -174l-45 16q43 115 43 128q0 4 -16.5 20.5t-16.5 29.5zM73 41q0 14 14.5 27t27.5 13t33.5 -19.5t20.5 -40.5q0 -33 -61 -174l-45 16q43 115 43 128q0 4 -16.5 20.5t-16.5 29.5z" />
    <glyph glyph-name="bullet" unicode="&#x2022;" horiz-adv-x="262" 
d="M45 266q0 24 30 56t52 32t55.5 -26.5t33.5 -49.5q0 -24 -30 -56t-51 -32q-22 0 -56 26.5t-34 49.5z" />
    <glyph glyph-name="ellipsis" unicode="&#x2026;" horiz-adv-x="749" 
d="M65 41q0 15 18 34t30 19q13 0 34 -16t21 -30q0 -15 -18.5 -33.5t-31.5 -18.5t-33 15t-20 30zM581 41q0 15 18 34t31 19t33.5 -16t20.5 -30q0 -15 -18 -33.5t-31 -18.5t-33.5 15t-20.5 30zM322 41q0 15 18 34t31 19t33.5 -16t20.5 -30q0 -15 -18 -33.5t-31 -18.5
q-14 0 -34 15t-20 30z" />
    <glyph glyph-name="guilsinglleft" unicode="&#x2039;" horiz-adv-x="332" 
d="M235 39l-182 193l182 193l32 -33l-132 -160l132 -160z" />
    <glyph glyph-name="guilsinglright" unicode="&#x203a;" horiz-adv-x="332" 
d="M97 425l182 -193l-182 -193l-32 33l132 160l-132 161z" />
    <glyph glyph-name="fraction" unicode="&#x2044;" horiz-adv-x="189" 
d="M-60 5l262 623l47 -18l-262 -624z" />
    <glyph glyph-name="Euro" unicode="&#x20ac;" 
d="M515 31q-29 -16 -78 -28.5t-98 -12.5q-214 0 -246 223h-80l13 42l52 8h11q-1 10 -1 32q0 27 1 40h-77l13 41l54 8h16q20 116 88 177t159 61q42 0 91.5 -8.5t72.5 -20.5l-23 -60q-28 13 -75.5 22.5t-86.5 9.5q-137 0 -157 -181h262l-14 -49h-251v-19q0 -21 2 -53h234
l-14 -50h-214q29 -164 180 -164q78 0 154 37z" />
    <glyph glyph-name="minus" unicode="&#x2212;" 
d="M444 293v-55h-372v55h372z" />
    <glyph glyph-name="idotaccent" horiz-adv-x="226" 
d="M66 599q0 13 17.5 31.5t29.5 18.5t32 -14.5t20 -28.5q0 -13 -18 -31t-29 -18q-13 0 -32.5 14.5t-19.5 27.5zM80 448l66 12v-460h-66v448z" />
    <glyph glyph-name="caron.alt" horiz-adv-x="238" 
d="M87 666q3 10 16 18t27 8q12 0 23.5 -22.5t11.5 -46.5q0 -28 -14 -58t-51 -83l-27 20q4 8 12 22.5t11.5 21t8 16.5t6.5 17.5t2 15.5q0 19 -13 44t-13 27z" />
    <glyph glyph-name="caron.alt.sc" horiz-adv-x="178" 
d="M57 526q2 10 15.5 18t27.5 8q12 0 23.5 -22.5t11.5 -46.5q0 -28 -14 -58t-51 -83l-28 20q3 5 9.5 16.5t9 16t7 13t6.5 13t4 11.5t3 12.5t1 10.5q0 19 -12.5 44t-12.5 27z" />
    <glyph glyph-name="caron.alt.case" horiz-adv-x="178" 
d="M57 587q2 10 15.5 18.5t27.5 8.5q12 0 23.5 -23t11.5 -47q0 -28 -14 -58t-51 -83l-28 20q3 5 9.5 16.5t9 16t7 13t6.5 13t4 11.5t3 12.5t1 10.5q0 20 -12.5 45t-12.5 26z" />
    <glyph glyph-name="commaaccent.case" horiz-adv-x="252" 
d="M85 -79q0 12 12 22.5t25 10.5q14 0 32 -19.5t18 -38.5q0 -28 -57 -139l-36 14q36 75 36 102q0 4 -15 20t-15 28z" />
    <glyph glyph-name="acute.case" horiz-adv-x="340" 
d="M71 664l129 138l69 -14l-145 -124h-53z" />
    <glyph glyph-name="grave.case" horiz-adv-x="340" 
d="M269 664h-53l-145 124l69 14z" />
    <glyph glyph-name="hungarumlaut.case" horiz-adv-x="420" 
d="M164 664l134 138l70 -14l-151 -124h-53zM54 664l134 138l70 -14l-151 -124h-53z" />
    <glyph glyph-name="circumflex.case" horiz-adv-x="431" 
d="M306 664l-90 80l-91 -80h-54l126 138h37l126 -138h-54z" />
    <glyph glyph-name="caron.case" horiz-adv-x="431" 
d="M233 667h-36l-126 139h53l91 -80l90 80h55z" />
    <glyph glyph-name="breve.case" horiz-adv-x="405" 
d="M202 720q75 0 96 92h39q0 -58 -41.5 -103t-98.5 -45q-62 0 -95.5 43.5t-33.5 104.5h39q21 -92 95 -92z" />
    <glyph glyph-name="tilde.case" horiz-adv-x="437" 
d="M343 772l27 -29q-38 -41 -60 -51q-16 -8 -33 -8q-19 0 -63.5 16.5t-56.5 16.5q-17 0 -37 -12.5t-28 -20.5l-25 27q55 60 99 60q23 0 62 -14.5t52 -14.5q31 0 63 30z" />
    <glyph glyph-name="macron.case" horiz-adv-x="414" 
d="M334 760v-15l-15 -33h-239v15l15 33h239z" />
    <glyph glyph-name="dieresis.case" horiz-adv-x="393" 
d="M239 750q0 12 15.5 28.5t26.5 16.5q10 0 28.5 -12.5t18.5 -23.5q0 -13 -16 -29.5t-26 -16.5q-12 0 -29.5 13t-17.5 24zM65 750q0 12 15.5 28.5t26.5 16.5q10 0 28.5 -12.5t18.5 -23.5q0 -13 -16 -29.5t-26 -16.5q-12 0 -29.5 13t-17.5 24z" />
    <glyph glyph-name="dotaccent.case" horiz-adv-x="174" 
d="M38 738q0 14 17.5 32.5t29.5 18.5q13 0 32.5 -14.5t19.5 -28.5q0 -13 -17.5 -31t-29.5 -18q-13 0 -32.5 14t-19.5 27z" />
    <glyph glyph-name="ring.case" horiz-adv-x="327" 
d="M253 740q0 -35 -27.5 -59.5t-62.5 -24.5q-37 0 -63 22.5t-26 61.5q0 35 27 60.5t63 25.5q37 0 63 -22.5t26 -63.5zM117 740q0 -20 13.5 -33t32.5 -13t33 13t14 33q0 22 -14 35t-33 13t-32.5 -13t-13.5 -35z" />
    <glyph glyph-name="cedilla.case" horiz-adv-x="290" 
d="M89 -89l41 89h43l-26 -55q3 -2 10 -5q24 -12 35 -18.5t20.5 -19.5t9.5 -30q0 -35 -36.5 -63t-108.5 -36l-9 37q52 7 76.5 17t24.5 31q0 26 -77 48z" />
    <glyph glyph-name="ogonek.case" horiz-adv-x="306" 
d="M80 -134q0 64 90 134h51q-37 -27 -64 -62.5t-27 -65.5q0 -21 13 -32t32 -11q11 0 39 14l12 -34q-36 -20 -69 -20q-37 0 -57 21t-20 56z" />
    <glyph glyph-name="zero.fit" horiz-adv-x="532" 
d="M482 318q0 -154 -62.5 -241t-167.5 -87q-93 0 -147.5 80.5t-54.5 223.5q0 154 62.5 241t167.5 87q94 0 148 -80t54 -224zM412 306q0 132 -44 194.5t-114 62.5q-66 0 -101.5 -59.5t-35.5 -197.5q0 -132 44 -195t114 -63q66 0 101.5 59.5t35.5 198.5z" />
    <glyph glyph-name="one.fit" horiz-adv-x="357" 
d="M258 0h-70v548l-134 -58l-19 62q47 13 170 60h53v-612z" />
    <glyph glyph-name="two.fit" horiz-adv-x="472" 
d="M413 0h-361v67q157 144 219 229t62 156q0 49 -33 81.5t-86 32.5q-52 0 -137 -35l-21 52q98 39 176 39q81 0 129.5 -44.5t48.5 -119.5q0 -80 -73 -172.5t-220 -225.5l309 5z" />
    <glyph glyph-name="three.fit" horiz-adv-x="452" 
d="M179 -10q-82 0 -127 12l17 62q66 -18 141 -18q57 0 90.5 29.5t33.5 83.5q0 62 -43 94.5t-108 32.5q-15 0 -39 -2l-14 57q92 0 140 31t48 87q0 54 -34.5 80.5t-80.5 26.5q-51 0 -125 -33l-21 52q86 37 164 37q73 0 118 -37t45 -99q0 -59 -36.5 -103.5t-91.5 -61.5
q69 -11 108.5 -49t39.5 -93q0 -85 -67.5 -137t-157.5 -52z" />
    <glyph glyph-name="four.fit" horiz-adv-x="541" 
d="M332 198v310l-235 -310h235zM492 142h-93v-142h-67v142h-309v41l333 441h43v-426h116z" />
    <glyph glyph-name="five.fit" horiz-adv-x="492" 
d="M163 -10q-42 0 -106 15l20 63q71 -22 141 -22q65 0 102.5 34t37.5 91q0 37 -16.5 64.5t-42.5 41.5t-52 20.5t-51 6.5q-54 0 -103 -11l15 319h316l-15 -60h-246l-12 -196q42 6 69 6q95 0 151 -46t56 -115q0 -96 -69 -153.5t-195 -57.5z" />
    <glyph glyph-name="six.fit" horiz-adv-x="499" 
d="M447 197q0 -85 -57.5 -146t-141.5 -61q-88 0 -141.5 70.5t-53.5 203.5q0 178 71 268t195 90q64 0 109 -15l-17 -67q-5 1 -21.5 6t-29.5 8t-34 6t-40 3q-77 0 -117 -53.5t-48 -189.5q82 53 157 53q84 0 126.5 -50t42.5 -126zM266 46q53 0 83.5 34.5t30.5 97.5
q0 58 -32.5 96.5t-101.5 38.5q-59 0 -127 -37v-28q0 -86 36.5 -144t110.5 -58z" />
    <glyph glyph-name="seven.fit" horiz-adv-x="465" 
d="M178 -13l-66 26q38 91 124 274.5t131 261.5l-324 -3l11 64h373v-54q-42 -78 -128.5 -277t-120.5 -292z" />
    <glyph glyph-name="eight.fit" horiz-adv-x="492" 
d="M228 -10q-82 0 -131 40t-49 107q0 54 35 95t99 83q-57 32 -83 67t-26 86q0 62 52.5 107.5t135.5 45.5q65 0 112 -34.5t47 -94.5q0 -84 -122 -163q79 -39 112.5 -75t33.5 -88q0 -72 -60 -124t-156 -52zM140 476q0 -64 110 -123q104 59 104 123q0 36 -31 63.5t-89 27.5
q-45 0 -69.5 -25.5t-24.5 -65.5zM262 45q50 0 83 28t33 72q0 38 -28.5 69.5t-119.5 75.5q-33 -22 -47.5 -33t-33.5 -28.5t-26 -35.5t-7 -40q0 -51 41 -79.5t105 -28.5z" />
    <glyph glyph-name="nine.fit" horiz-adv-x="491" 
d="M249 300q59 0 122 26q1 12 1 37q0 89 -38.5 145t-114.5 56q-104 0 -104 -129q0 -58 32.5 -96.5t101.5 -38.5zM154 -10q-44 0 -94 12l12 64q47 -19 116 -19q73 0 120.5 59t59.5 176q-66 -42 -153 -42q-72 0 -119.5 50t-47.5 123q0 91 56.5 150t138.5 59q90 0 143 -70.5
t53 -202.5q0 -167 -82 -263t-203 -96z" />
    <glyph glyph-name="zero.osf" horiz-adv-x="507" 
d="M475 251q0 -119 -69.5 -190t-165.5 -71q-89 0 -148.5 63.5t-59.5 177.5q0 118 69.5 188t164.5 70q89 0 149 -63.5t60 -174.5zM412 229q0 94 -47 149.5t-123 55.5q-65 0 -106 -50.5t-41 -136.5q0 -93 46.5 -148t120.5 -55q67 0 108.5 50t41.5 135z" />
    <glyph glyph-name="one.osf" horiz-adv-x="312" 
d="M223 0h-64v419q-17 -10 -39 -22.5t-46 -26.5t-35 -20l-26 52q101 50 158 79h52v-481z" />
    <glyph glyph-name="two.osf" horiz-adv-x="433" 
d="M384 0h-329v58q138 109 190 165.5t52 111.5q0 44 -32 72t-71 28q-65 0 -131 -24l-18 50q77 30 162 30q65 0 111.5 -37.5t46.5 -107.5q0 -67 -55.5 -133t-191.5 -160l276 5z" />
    <glyph glyph-name="three.osf" horiz-adv-x="423" 
d="M44 -144l-20 63q73 3 127 13t84.5 22.5t48 30t23 33.5t5.5 35q0 49 -43.5 79.5t-109.5 30.5q-17 0 -47 -3l-10 59q196 14 196 114q0 48 -32.5 73.5t-76.5 25.5q-72 0 -128 -23l-18 56q80 24 163 24q18 0 41.5 -5.5t53 -18.5t49 -42t19.5 -69q0 -108 -134 -149
q74 -12 111.5 -48t37.5 -85q0 -86 -86.5 -143.5t-253.5 -72.5z" />
    <glyph glyph-name="four.osf" horiz-adv-x="493" 
d="M321 57v319l-223 -319h223zM386 -129l-65 -12v141h-296v49l306 433h55v-425h107l-17 -57h-90v-129z" />
    <glyph glyph-name="five.osf" horiz-adv-x="433" 
d="M396 86q0 -91 -89.5 -152.5t-249.5 -77.5l-18 66q125 3 205.5 36.5t80.5 98.5q0 64 -38.5 92t-92.5 28q-73 0 -121 -14l17 318h304l-14 -61h-235l-12 -190q42 8 77 8q85 0 135.5 -43t50.5 -109z" />
    <glyph glyph-name="six.osf" horiz-adv-x="472" 
d="M231 -10q-82 0 -135.5 56.5t-53.5 151.5q0 252 297 422l34 -49q-187 -98 -241 -236q69 39 129 39q82 0 130 -49.5t48 -124.5q0 -89 -58 -149.5t-150 -60.5zM258 46q57 0 85 35t28 92q0 59 -33.5 100.5t-103.5 41.5q-62 0 -118 -32q-6 -31 -6 -65q0 -76 35 -124t113 -48z
" />
    <glyph glyph-name="seven.osf" horiz-adv-x="431" 
d="M162 -144l-66 27q37 92 117 269t126 264h-318l13 65h376v-49q-39 -77 -126.5 -278.5t-121.5 -297.5z" />
    <glyph glyph-name="eight.osf" horiz-adv-x="483" 
d="M223 -10q-78 0 -128.5 41t-50.5 110q0 40 23 75t46.5 53t65.5 45q-55 30 -82 66t-27 90q0 64 53 108t139 44q62 0 107 -34t45 -93q0 -87 -123 -166q84 -37 116 -73.5t32 -92.5q0 -70 -60 -121.5t-156 -51.5zM136 481q0 -38 23 -68t83 -61q110 63 110 127q0 36 -32 63
t-90 27q-50 0 -72 -22t-22 -66zM256 44q55 0 88 26.5t33 67.5q0 48 -29.5 79t-122.5 74q-34 -22 -49 -33t-34 -28.5t-25.5 -35.5t-6.5 -41q0 -50 40.5 -79.5t105.5 -29.5z" />
    <glyph glyph-name="nine.osf" horiz-adv-x="472" 
d="M126 -144l-38 53q92 44 159.5 104t97.5 133q-60 -42 -136 -42q-83 0 -129.5 51t-46.5 124q0 89 58.5 149.5t143.5 60.5q99 0 147.5 -64t48.5 -155q0 -129 -84 -233.5t-221 -180.5zM238 161q64 0 123 39q5 27 5 51q0 45 -13 84t-48.5 68.5t-89.5 29.5q-57 0 -87.5 -36
t-30.5 -96q0 -55 34 -97.5t107 -42.5z" />
    <glyph glyph-name="zero.tosf" horiz-adv-x="484" 
d="M463 251q0 -119 -69.5 -190t-165.5 -71q-89 0 -148.5 63.5t-59.5 177.5q0 118 69.5 188t164.5 70q89 0 149 -63.5t60 -174.5zM400 229q0 94 -47 149.5t-123 55.5q-65 0 -106 -50.5t-41 -136.5q0 -93 46.5 -148t120.5 -55q67 0 108.5 50t41.5 135z" />
    <glyph glyph-name="one.tosf" horiz-adv-x="484" 
d="M305 0h-64v419q-23 -14 -71 -41l-49 -28l-26 52q101 50 158 79h52v-481z" />
    <glyph glyph-name="two.tosf" horiz-adv-x="484" 
d="M405 0h-329v58q138 109 190 165.5t52 111.5q0 44 -32 72t-71 28q-65 0 -131 -24l-18 50q77 30 162 30q65 0 111.5 -37.5t46.5 -107.5q0 -67 -55.5 -133t-191.5 -160l276 5z" />
    <glyph glyph-name="three.tosf" horiz-adv-x="484" 
d="M65 -144l-20 63q73 3 127 13t84.5 22.5t48 30t23 33.5t5.5 35q0 49 -43.5 79.5t-109.5 30.5q-17 0 -47 -3l-10 59q196 14 196 114q0 48 -32.5 73.5t-76.5 25.5q-72 0 -128 -23l-18 56q80 24 163 24q18 0 41.5 -5.5t53 -18.5t49 -42t19.5 -69q0 -108 -134 -149
q74 -12 111.5 -48t37.5 -85q0 -86 -86.5 -143.5t-253.5 -72.5z" />
    <glyph glyph-name="four.tosf" horiz-adv-x="484" 
d="M314 57v319l-223 -319h223zM379 -129l-65 -12v141h-296v49l306 433h55v-425h107l-17 -57h-90v-129z" />
    <glyph glyph-name="five.tosf" horiz-adv-x="484" 
d="M416 86q0 -91 -89.5 -152.5t-249.5 -77.5l-18 66q125 3 205.5 36.5t80.5 98.5q0 64 -38.5 92t-92.5 28q-73 0 -121 -14l17 318h304l-14 -61h-235l-12 -190q42 8 77 8q85 0 135.5 -43t50.5 -109z" />
    <glyph glyph-name="six.tosf" horiz-adv-x="484" 
d="M232 -10q-82 0 -135.5 56.5t-53.5 151.5q0 252 297 422l34 -49q-187 -98 -241 -236q69 39 129 39q82 0 130 -49.5t48 -124.5q0 -89 -58 -149.5t-150 -60.5zM259 46q57 0 85 35t28 92q0 59 -33.5 100.5t-103.5 41.5q-62 0 -118 -32q-6 -31 -6 -65q0 -76 35 -124t113 -48z
" />
    <glyph glyph-name="seven.tosf" horiz-adv-x="484" 
d="M177 -144l-66 27q37 92 117 269t126 264h-318l13 65h376v-49q-39 -77 -126.5 -278.5t-121.5 -297.5z" />
    <glyph glyph-name="eight.tosf" horiz-adv-x="484" 
d="M224 -10q-78 0 -128.5 41t-50.5 110q0 40 23 75t46.5 53t65.5 45q-55 30 -82 66t-27 90q0 64 53 108t139 44q62 0 107 -34t45 -93q0 -87 -123 -166q84 -37 116 -73.5t32 -92.5q0 -70 -60 -121.5t-156 -51.5zM137 481q0 -38 23 -68t83 -61q110 63 110 127q0 36 -32 63
t-90 27q-50 0 -72 -22t-22 -66zM257 44q55 0 88 26.5t33 67.5q0 48 -29.5 79t-122.5 74q-34 -22 -49 -33t-34 -28.5t-25.5 -35.5t-6.5 -41q0 -50 40.5 -79.5t105.5 -29.5z" />
    <glyph glyph-name="nine.tosf" horiz-adv-x="484" 
d="M138 -144l-38 53q92 44 159.5 104t97.5 133q-60 -42 -136 -42q-83 0 -129.5 51t-46.5 124q0 89 58.5 149.5t143.5 60.5q99 0 147.5 -64t48.5 -155q0 -129 -84 -233.5t-221 -180.5zM250 161q64 0 123 39q5 27 5 51q0 45 -13 84t-48.5 68.5t-89.5 29.5q-57 0 -87.5 -36
t-30.5 -96q0 -55 34 -97.5t107 -42.5z" />
    <glyph glyph-name="A.sc" horiz-adv-x="478" 
d="M319 195l-81 219l-83 -219h164zM390 0l-54 146h-200l-56 -146h-62l194 481h67l181 -481h-70z" />
    <glyph glyph-name="Agrave.sc" horiz-adv-x="478" 
d="M316 533h-53l-145 125l69 14zM319 195l-81 219l-83 -219h164zM390 0l-54 146h-200l-56 -146h-62l194 481h67l181 -481h-70z" />
    <glyph glyph-name="Aacute.sc" horiz-adv-x="478" 
d="M203 533l129 139l69 -14l-145 -125h-53zM319 195l-81 219l-83 -219h164zM390 0l-54 146h-200l-56 -146h-62l194 481h67l181 -481h-70z" />
    <glyph glyph-name="Acircumflex.sc" horiz-adv-x="478" 
d="M340 533l-90 81l-91 -81h-54l126 139h37l126 -139h-54zM319 195l-81 219l-83 -219h164zM390 0l-54 146h-200l-56 -146h-62l194 481h67l181 -481h-70z" />
    <glyph glyph-name="Atilde.sc" horiz-adv-x="478" 
d="M377 642l27 -29q-38 -41 -60 -51q-16 -8 -33 -8q-19 0 -63.5 16.5t-56.5 16.5q-24 0 -65 -33l-25 27q57 60 99 60q23 0 62 -14.5t52 -14.5q31 0 63 30zM319 195l-81 219l-83 -219h164zM390 0l-54 146h-200l-56 -146h-62l194 481h67l181 -481h-70z" />
    <glyph glyph-name="Adieresis.sc" horiz-adv-x="478" 
d="M289 619q0 13 15.5 29.5t26.5 16.5t29 -12.5t18 -24.5t-16 -28.5t-26 -16.5q-11 0 -29 12.5t-18 23.5zM115 619q0 13 15.5 29.5t26.5 16.5t29 -12.5t18 -24.5t-16 -28.5t-26 -16.5q-11 0 -29 12.5t-18 23.5zM319 195l-81 219l-83 -219h164zM390 0l-54 146h-200l-56 -146
h-62l194 481h67l181 -481h-70z" />
    <glyph glyph-name="Aring.sc" horiz-adv-x="478" 
d="M337 610q0 -35 -27.5 -60t-62.5 -25q-37 0 -63 23t-26 62q0 35 27 60.5t63 25.5q37 0 63 -22.5t26 -63.5zM201 610q0 -20 13.5 -33t32.5 -13t33 13t14 33q0 22 -14 35t-33 13t-32.5 -13t-13.5 -35zM319 195l-81 219l-83 -219h164zM390 0l-54 146h-200l-56 -146h-62
l194 481h67l181 -481h-70z" />
    <glyph glyph-name="Amacron.sc" horiz-adv-x="478" 
d="M378 630v-15l-15 -33h-239v15l15 33h239zM319 195l-81 219l-83 -219h164zM390 0l-54 146h-200l-56 -146h-62l194 481h67l181 -481h-70z" />
    <glyph glyph-name="Abreve.sc" horiz-adv-x="478" 
d="M247 590q75 0 96 92h39q0 -59 -41.5 -104t-98.5 -45q-62 0 -95.5 43.5t-33.5 105.5h39q21 -92 95 -92zM319 195l-81 219l-83 -219h164zM390 0l-54 146h-200l-56 -146h-62l194 481h67l181 -481h-70z" />
    <glyph glyph-name="Aogonek.sc" horiz-adv-x="478" 
d="M319 195l-81 219l-83 -219h164zM406 0h-16l-54 146h-200l-56 -146h-62l194 481h67l181 -481h-3q-37 -27 -64 -62.5t-27 -65.5q0 -21 13 -32t32 -11q11 0 39 14l12 -34q-36 -20 -69 -20q-37 0 -57 21t-20 56q0 64 90 134z" />
    <glyph glyph-name="Acaron.sc" horiz-adv-x="478" 
d="M271 537h-36l-126 139h53l91 -80l90 80h55zM319 195l-81 219l-83 -219h164zM390 0l-54 146h-200l-56 -146h-62l194 481h67l181 -481h-70z" />
    <glyph glyph-name="B.sc" horiz-adv-x="463" 
d="M207 266q63 0 87.5 20.5t24.5 56.5q0 93 -110 93q-16 0 -56 -2v-167q18 -1 54 -1zM255 48q42 0 70.5 19.5t28.5 61.5q0 43 -34.5 69.5t-92.5 26.5q-22 0 -74 -2v-173q62 -2 102 -2zM85 0v481h145q74 0 113.5 -30t39.5 -84q0 -76 -73 -114q50 -9 80.5 -37.5t30.5 -73.5
q0 -65 -55.5 -103.5t-151.5 -38.5h-129z" />
    <glyph glyph-name="C.sc" horiz-adv-x="464" 
d="M411 71l15 -44q-24 -15 -68 -25t-80 -10q-107 0 -171.5 64t-64.5 181q0 115 67.5 183.5t177.5 68.5q92 0 134 -21l-19 -53q-70 25 -135 25q-67 0 -112 -46.5t-45 -145.5q0 -56 16.5 -97.5t45 -64t60.5 -32.5t67 -10q31 0 64.5 8.5t47.5 18.5z" />
    <glyph glyph-name="Ccedilla.sc" horiz-adv-x="464" 
d="M335 -128q0 -35 -36.5 -63t-108.5 -36l-9 37q52 7 76.5 17t24.5 31q0 26 -77 48l-3 5l38 83q-91 11 -144.5 74t-53.5 169q0 115 67.5 183.5t177.5 68.5q92 0 134 -21l-19 -53q-70 25 -135 25q-67 0 -112 -46.5t-45 -145.5q0 -56 16.5 -97.5t45 -64t60.5 -32.5t67 -10
q31 0 64.5 8.5t47.5 18.5l15 -44q-24 -15 -67.5 -25t-76.5 -10l-22 -47q3 -2 10 -5q24 -12 35 -18.5t20.5 -19.5t9.5 -30z" />
    <glyph glyph-name="Cacute.sc" horiz-adv-x="464" 
d="M201 533l129 139l69 -14l-145 -125h-53zM411 71l15 -44q-24 -15 -68 -25t-80 -10q-107 0 -171.5 64t-64.5 181q0 115 67.5 183.5t177.5 68.5q92 0 134 -21l-19 -53q-70 25 -135 25q-67 0 -112 -46.5t-45 -145.5q0 -56 16.5 -97.5t45 -64t60.5 -32.5t67 -10q31 0 64.5 8.5
t47.5 18.5z" />
    <glyph glyph-name="Ccircumflex.sc" horiz-adv-x="464" 
d="M379 533l-90 81l-91 -81h-54l126 139h37l126 -139h-54zM411 71l15 -44q-24 -15 -68 -25t-80 -10q-107 0 -171.5 64t-64.5 181q0 115 67.5 183.5t177.5 68.5q92 0 134 -21l-19 -53q-70 25 -135 25q-67 0 -112 -46.5t-45 -145.5q0 -56 16.5 -97.5t45 -64t60.5 -32.5t67 -10
q31 0 64.5 8.5t47.5 18.5z" />
    <glyph glyph-name="Cdotaccent.sc" horiz-adv-x="464" 
d="M226 608q0 14 17.5 32.5t29.5 18.5q13 0 32.5 -14.5t19.5 -28.5t-17.5 -31.5t-29.5 -17.5q-13 0 -32.5 14t-19.5 27zM411 71l15 -44q-24 -15 -68 -25t-80 -10q-107 0 -171.5 64t-64.5 181q0 115 67.5 183.5t177.5 68.5q92 0 134 -21l-19 -53q-70 25 -135 25
q-67 0 -112 -46.5t-45 -145.5q0 -56 16.5 -97.5t45 -64t60.5 -32.5t67 -10q31 0 64.5 8.5t47.5 18.5z" />
    <glyph glyph-name="Ccaron.sc" horiz-adv-x="464" 
d="M318 537h-36l-126 139h53l91 -80l90 80h55zM411 71l15 -44q-24 -15 -68 -25t-80 -10q-107 0 -171.5 64t-64.5 181q0 115 67.5 183.5t177.5 68.5q92 0 134 -21l-19 -53q-70 25 -135 25q-67 0 -112 -46.5t-45 -145.5q0 -56 16.5 -97.5t45 -64t60.5 -32.5t67 -10
q31 0 64.5 8.5t47.5 18.5z" />
    <glyph glyph-name="D.sc" horiz-adv-x="522" 
d="M85 481h150q113 0 179 -60t66 -166q0 -119 -78.5 -188t-197.5 -69q-26 0 -119 6v477zM152 433v-380q42 -5 83 -5q76 0 126 47t50 150q0 97 -56 142.5t-147 45.5h-56z" />
    <glyph glyph-name="Dcaron.sc" horiz-adv-x="522" 
d="M271 537h-36l-126 139h53l91 -80l90 80h55zM85 481h150q113 0 179 -60t66 -166q0 -119 -78.5 -188t-197.5 -69q-26 0 -119 6v477zM152 433v-380q42 -5 83 -5q76 0 126 47t50 150q0 97 -56 142.5t-147 45.5h-56z" />
    <glyph glyph-name="E.sc" horiz-adv-x="427" 
d="M85 0v481h285l-6 -53q-60 1 -117 2.5t-97 1.5v-161h197l-8 -47l-189 3v-176l234 4l-6 -55h-293z" />
    <glyph glyph-name="Egrave.sc" horiz-adv-x="427" 
d="M318 533h-53l-145 125l69 14zM85 0v481h285l-6 -53q-60 1 -117 2.5t-97 1.5v-161h197l-8 -47l-189 3v-176l234 4l-6 -55h-293z" />
    <glyph glyph-name="Eacute.sc" horiz-adv-x="427" 
d="M160 533l129 139l69 -14l-145 -125h-53zM85 0v481h285l-6 -53q-60 1 -117 2.5t-97 1.5v-161h197l-8 -47l-189 3v-176l234 4l-6 -55h-293z" />
    <glyph glyph-name="Ecircumflex.sc" horiz-adv-x="427" 
d="M323 533l-90 81l-91 -81h-54l126 139h37l126 -139h-54zM85 0v481h285l-6 -53q-60 1 -117 2.5t-97 1.5v-161h197l-8 -47l-189 3v-176l234 4l-6 -55h-293z" />
    <glyph glyph-name="Edieresis.sc" horiz-adv-x="427" 
d="M280 619q0 13 15.5 29.5t26.5 16.5t29 -12.5t18 -24.5t-16 -28.5t-26 -16.5q-11 0 -29 12.5t-18 23.5zM106 619q0 13 15.5 29.5t26.5 16.5t29 -12.5t18 -24.5t-16 -28.5t-26 -16.5q-11 0 -29 12.5t-18 23.5zM85 0v481h285l-6 -53q-60 1 -117 2.5t-97 1.5v-161h197l-8 -47
l-189 3v-176l234 4l-6 -55h-293z" />
    <glyph glyph-name="Emacron.sc" horiz-adv-x="427" 
d="M366 630v-15l-15 -33h-239v15l15 33h239zM85 0v481h285l-6 -53q-60 1 -117 2.5t-97 1.5v-161h197l-8 -47l-189 3v-176l234 4l-6 -55h-293z" />
    <glyph glyph-name="Ebreve.sc" horiz-adv-x="427" 
d="M237 590q75 0 96 92h39q0 -59 -41.5 -104t-98.5 -45q-62 0 -95.5 43.5t-33.5 105.5h39q21 -92 95 -92zM85 0v481h285l-6 -53q-60 1 -117 2.5t-97 1.5v-161h197l-8 -47l-189 3v-176l234 4l-6 -55h-293z" />
    <glyph glyph-name="Edotaccent.sc" horiz-adv-x="427" 
d="M184 608q0 14 17.5 32.5t29.5 18.5q13 0 32.5 -14.5t19.5 -28.5t-17.5 -31.5t-29.5 -17.5q-13 0 -32.5 14t-19.5 27zM85 0v481h285l-6 -53q-60 1 -117 2.5t-97 1.5v-161h197l-8 -47l-189 3v-176l234 4l-6 -55h-293z" />
    <glyph glyph-name="Eogonek.sc" horiz-adv-x="427" 
d="M85 0v481h285l-6 -53q-60 1 -117 2.5t-97 1.5v-161h197l-8 -47l-189 3v-176l234 4l-6 -55h-293zM235 -134q0 64 90 134h51q-37 -27 -64 -62.5t-27 -65.5q0 -21 13 -32t32 -11q11 0 39 14l12 -34q-36 -20 -69 -20q-37 0 -57 21t-20 56z" />
    <glyph glyph-name="Ecaron.sc" horiz-adv-x="427" 
d="M261 537h-36l-126 139h53l91 -80l90 80h55zM85 0v481h285l-6 -53q-60 1 -117 2.5t-97 1.5v-161h197l-8 -47l-189 3v-176l234 4l-6 -55h-293z" />
    <glyph glyph-name="F.sc" horiz-adv-x="408" 
d="M339 220l-189 1v-221h-65v481h285l-6 -52l-214 3v-166h197z" />
    <glyph glyph-name="G.sc" horiz-adv-x="482" 
d="M429 27q-80 -34 -172 -34q-97 0 -156 64.5t-59 174.5q0 113 64 185t180 72q88 0 145 -27l-21 -51q-62 29 -139 29q-71 0 -115.5 -45t-44.5 -146q0 -107 47 -158t118 -51q40 0 96 15l-8 183h67z" />
    <glyph glyph-name="Gcircumflex.sc" horiz-adv-x="482" 
d="M364 533l-90 81l-91 -81h-54l126 139h37l126 -139h-54zM429 27q-80 -34 -172 -34q-97 0 -156 64.5t-59 174.5q0 113 64 185t180 72q88 0 145 -27l-21 -51q-62 29 -139 29q-71 0 -115.5 -45t-44.5 -146q0 -107 47 -158t118 -51q40 0 96 15l-8 183h67z" />
    <glyph glyph-name="Gbreve.sc" horiz-adv-x="482" 
d="M270 590q75 0 96 92h39q0 -59 -41.5 -104t-98.5 -45q-62 0 -95.5 43.5t-33.5 105.5h39q21 -92 95 -92zM429 27q-80 -34 -172 -34q-97 0 -156 64.5t-59 174.5q0 113 64 185t180 72q88 0 145 -27l-21 -51q-62 29 -139 29q-71 0 -115.5 -45t-44.5 -146q0 -107 47 -158
t118 -51q40 0 96 15l-8 183h67z" />
    <glyph glyph-name="Gdotaccent.sc" horiz-adv-x="482" 
d="M240 608q0 14 17.5 32.5t29.5 18.5q13 0 32.5 -14.5t19.5 -28.5t-17.5 -31.5t-29.5 -17.5q-13 0 -32.5 14t-19.5 27zM429 27q-80 -34 -172 -34q-97 0 -156 64.5t-59 174.5q0 113 64 185t180 72q88 0 145 -27l-21 -51q-62 29 -139 29q-71 0 -115.5 -45t-44.5 -146
q0 -107 47 -158t118 -51q40 0 96 15l-8 183h67z" />
    <glyph glyph-name="Gcommaaccent.sc" horiz-adv-x="482" 
d="M429 27q-80 -34 -172 -34q-97 0 -156 64.5t-59 174.5q0 113 64 185t180 72q88 0 145 -27l-21 -51q-62 29 -139 29q-71 0 -115.5 -45t-44.5 -146q0 -107 47 -158t118 -51q40 0 96 15l-8 183h67zM241 -79q0 12 12 22.5t25 10.5q14 0 32 -19.5t18 -38.5q0 -28 -57 -139
l-36 14q36 75 36 102q0 4 -15 20t-15 28z" />
    <glyph glyph-name="H.sc" horiz-adv-x="550" 
d="M396 0v226h-243v-226h-68v481h68v-208h243v208h69v-481h-69z" />
    <glyph glyph-name="Hcircumflex.sc" horiz-adv-x="550" 
d="M373 533l-90 81l-91 -81h-54l126 139h37l126 -139h-54zM396 0v226h-243v-226h-68v481h68v-208h243v208h69v-481h-69z" />
    <glyph glyph-name="I.sc" horiz-adv-x="235" 
d="M150 481v-481h-65v481h65z" />
    <glyph glyph-name="Igrave.sc" horiz-adv-x="235" 
d="M170 533h-53l-145 125l69 14zM150 481v-481h-65v481h65z" />
    <glyph glyph-name="Iacute.sc" horiz-adv-x="235" 
d="M72 533l129 139l69 -14l-145 -125h-53zM150 481v-481h-65v481h65z" />
    <glyph glyph-name="Icircumflex.sc" horiz-adv-x="235" 
d="M207 533l-90 81l-91 -81h-54l126 139h37l126 -139h-54zM150 481v-481h-65v481h65z" />
    <glyph glyph-name="Idieresis.sc" horiz-adv-x="235" 
d="M163 619q0 13 15.5 29.5t26.5 16.5t29 -12.5t18 -24.5t-16 -28.5t-26 -16.5q-11 0 -29 12.5t-18 23.5zM-11 619q0 13 15.5 29.5t26.5 16.5t29 -12.5t18 -24.5t-16 -28.5t-26 -16.5q-11 0 -29 12.5t-18 23.5zM150 481v-481h-65v481h65z" />
    <glyph glyph-name="Itilde.sc" horiz-adv-x="235" 
d="M242 642l27 -29q-38 -41 -60 -51q-16 -8 -33 -8q-19 0 -63.5 16.5t-56.5 16.5q-24 0 -65 -33l-25 27q57 60 99 60q23 0 62 -14.5t52 -14.5q31 0 63 30zM150 481v-481h-65v481h65z" />
    <glyph glyph-name="Imacron.sc" horiz-adv-x="235" 
d="M249 630v-15l-15 -33h-239v15l15 33h239zM150 481v-481h-65v481h65z" />
    <glyph glyph-name="Ibreve.sc" horiz-adv-x="235" 
d="M118 590q75 0 96 92h39q0 -59 -41.5 -104t-98.5 -45q-62 0 -95.5 43.5t-33.5 105.5h39q21 -92 95 -92zM150 481v-481h-65v481h65z" />
    <glyph glyph-name="Iogonek.sc" horiz-adv-x="235" 
d="M97 0h-12v481h65v-481h-2q-37 -27 -64 -62.5t-27 -65.5q0 -21 13 -32t32 -11q11 0 39 14l12 -34q-36 -20 -69 -20q-37 0 -57 21t-20 56q0 64 90 134z" />
    <glyph glyph-name="Idotaccent.sc" horiz-adv-x="235" 
d="M69 608q0 14 17.5 32.5t29.5 18.5q13 0 32.5 -14.5t19.5 -28.5t-17.5 -31.5t-29.5 -17.5q-13 0 -32.5 14t-19.5 27zM150 481v-481h-65v481h65z" />
    <glyph glyph-name="J.sc" horiz-adv-x="298" 
d="M224 481v-344q0 -69 -38 -107t-97 -38q-48 0 -74 14l13 50q49 -17 71 -17q27 0 44 18.5t17 53.5v370h64z" />
    <glyph glyph-name="Jcircumflex.sc" horiz-adv-x="298" 
d="M282 533l-90 81l-91 -81h-54l126 139h37l126 -139h-54zM224 481v-344q0 -69 -38 -107t-97 -38q-48 0 -74 14l13 50q49 -17 71 -17q27 0 44 18.5t17 53.5v370h64z" />
    <glyph glyph-name="K.sc" horiz-adv-x="478" 
d="M462 0h-87l-225 248l212 233h81l-220 -227zM150 481v-481h-65v481h65z" />
    <glyph glyph-name="Kcommaaccent.sc" horiz-adv-x="478" 
d="M462 0h-87l-225 248l212 233h81l-220 -227zM150 481v-481h-65v481h65zM201 -79q0 12 12 22.5t25 10.5q14 0 32 -19.5t18 -38.5q0 -28 -57 -139l-36 14q36 75 36 102q0 4 -15 20t-15 28z" />
    <glyph glyph-name="L.sc" horiz-adv-x="383" 
d="M85 0v481h65v-430l213 2l-8 -53h-270z" />
    <glyph glyph-name="Lacute.sc" horiz-adv-x="383" 
d="M82 533l129 139l69 -14l-145 -125h-53zM85 0v481h65v-430l213 2l-8 -53h-270z" />
    <glyph glyph-name="Lcommaaccent.sc" horiz-adv-x="383" 
d="M85 0v481h65v-430l213 2l-8 -53h-270zM174 -79q0 12 12 22.5t25 10.5q14 0 32 -19.5t18 -38.5q0 -28 -57 -139l-36 14q36 75 36 102q0 4 -15 20t-15 28z" />
    <glyph glyph-name="Lcaron.sc" horiz-adv-x="378" 
d="M276 526q2 10 15.5 18t27.5 8q12 0 23.5 -22.5t11.5 -46.5q0 -28 -14 -58t-51 -83l-28 20q3 5 9.5 16.5t9 16t7 13t6.5 13t4 11.5t3 12.5t1 10.5q0 19 -12.5 44t-12.5 27zM85 0v481h65v-430l213 2l-8 -53h-270z" />
    <glyph glyph-name="M.sc" horiz-adv-x="676" 
d="M302 0l-152 397l-40 -397h-60l53 481h80l154 -399l156 399h83l50 -481h-66l-41 400l-157 -400h-60z" />
    <glyph glyph-name="N.sc" horiz-adv-x="557" 
d="M409 0l-265 386v-386h-59v481h67l262 -386v386h58v-481h-63z" />
    <glyph glyph-name="Ntilde.sc" horiz-adv-x="557" 
d="M416 642l27 -29q-38 -41 -60 -51q-16 -8 -33 -8q-19 0 -63.5 16.5t-56.5 16.5q-24 0 -65 -33l-25 27q17 18 27.5 27.5t31.5 21t40 11.5q23 0 62 -14.5t52 -14.5q31 0 63 30zM409 0l-265 386v-386h-59v481h67l262 -386v386h58v-481h-63z" />
    <glyph glyph-name="Nacute.sc" horiz-adv-x="557" 
d="M207 533l129 139l69 -14l-145 -125h-53zM409 0l-265 386v-386h-59v481h67l262 -386v386h58v-481h-63z" />
    <glyph glyph-name="Ncommaaccent.sc" horiz-adv-x="557" 
d="M409 0l-265 386v-386h-59v481h67l262 -386v386h58v-481h-63zM237 -79q0 12 12 22.5t25 10.5q14 0 32 -19.5t18 -38.5q0 -28 -57 -139l-36 14q36 75 36 102q0 4 -15 20t-15 28z" />
    <glyph glyph-name="Ncaron.sc" horiz-adv-x="557" 
d="M318 537h-36l-126 139h53l91 -80l90 80h55zM409 0l-265 386v-386h-59v481h67l262 -386v386h58v-481h-63z" />
    <glyph glyph-name="O.sc" horiz-adv-x="544" 
d="M502 249q0 -120 -69 -188.5t-181 -68.5q-92 0 -151 63.5t-59 174.5q0 121 69 190t181 69q91 0 150.5 -64t59.5 -176zM433 227q0 106 -47 158t-129 52q-65 0 -105.5 -46t-40.5 -138q0 -106 46.5 -158t127.5 -52q66 0 107 45.5t41 138.5z" />
    <glyph glyph-name="Ograve.sc" horiz-adv-x="544" 
d="M387 533h-53l-145 125l69 14zM502 249q0 -120 -69 -188.5t-181 -68.5q-92 0 -151 63.5t-59 174.5q0 121 69 190t181 69q91 0 150.5 -64t59.5 -176zM433 227q0 106 -47 158t-129 52q-65 0 -105.5 -46t-40.5 -138q0 -106 46.5 -158t127.5 -52q66 0 107 45.5t41 138.5z" />
    <glyph glyph-name="Oacute.sc" horiz-adv-x="544" 
d="M179 533l129 139l69 -14l-145 -125h-53zM502 249q0 -120 -69 -188.5t-181 -68.5q-92 0 -151 63.5t-59 174.5q0 121 69 190t181 69q91 0 150.5 -64t59.5 -176zM433 227q0 106 -47 158t-129 52q-65 0 -105.5 -46t-40.5 -138q0 -106 46.5 -158t127.5 -52q66 0 107 45.5
t41 138.5z" />
    <glyph glyph-name="Ocircumflex.sc" horiz-adv-x="544" 
d="M376 533l-90 81l-91 -81h-54l126 139h37l126 -139h-54zM502 249q0 -120 -69 -188.5t-181 -68.5q-92 0 -151 63.5t-59 174.5q0 121 69 190t181 69q91 0 150.5 -64t59.5 -176zM433 227q0 106 -47 158t-129 52q-65 0 -105.5 -46t-40.5 -138q0 -106 46.5 -158t127.5 -52
q66 0 107 45.5t41 138.5z" />
    <glyph glyph-name="Otilde.sc" horiz-adv-x="544" 
d="M415 642l27 -29q-38 -41 -60 -51q-16 -8 -33 -8q-19 0 -63.5 16.5t-56.5 16.5q-24 0 -65 -33l-25 27q57 60 99 60q23 0 62 -14.5t52 -14.5q31 0 63 30zM502 249q0 -120 -69 -188.5t-181 -68.5q-92 0 -151 63.5t-59 174.5q0 121 69 190t181 69q91 0 150.5 -64t59.5 -176z
M433 227q0 106 -47 158t-129 52q-65 0 -105.5 -46t-40.5 -138q0 -106 46.5 -158t127.5 -52q66 0 107 45.5t41 138.5z" />
    <glyph glyph-name="Odieresis.sc" horiz-adv-x="544" 
d="M321 619q0 13 15.5 29.5t26.5 16.5t29 -12.5t18 -24.5t-16 -28.5t-26 -16.5q-11 0 -29 12.5t-18 23.5zM147 619q0 13 15.5 29.5t26.5 16.5t29 -12.5t18 -24.5t-16 -28.5t-26 -16.5q-11 0 -29 12.5t-18 23.5zM502 249q0 -120 -69 -188.5t-181 -68.5q-92 0 -151 63.5
t-59 174.5q0 121 69 190t181 69q91 0 150.5 -64t59.5 -176zM433 227q0 106 -47 158t-129 52q-65 0 -105.5 -46t-40.5 -138q0 -106 46.5 -158t127.5 -52q66 0 107 45.5t41 138.5z" />
    <glyph glyph-name="Omacron.sc" horiz-adv-x="544" 
d="M402 630v-15l-15 -33h-239v15l15 33h239zM502 249q0 -120 -69 -188.5t-181 -68.5q-92 0 -151 63.5t-59 174.5q0 121 69 190t181 69q91 0 150.5 -64t59.5 -176zM433 227q0 106 -47 158t-129 52q-65 0 -105.5 -46t-40.5 -138q0 -106 46.5 -158t127.5 -52q66 0 107 45.5
t41 138.5z" />
    <glyph glyph-name="Obreve.sc" horiz-adv-x="544" 
d="M284 590q75 0 96 92h39q0 -59 -41.5 -104t-98.5 -45q-62 0 -95.5 43.5t-33.5 105.5h39q21 -92 95 -92zM502 249q0 -120 -69 -188.5t-181 -68.5q-92 0 -151 63.5t-59 174.5q0 121 69 190t181 69q91 0 150.5 -64t59.5 -176zM433 227q0 106 -47 158t-129 52
q-65 0 -105.5 -46t-40.5 -138q0 -106 46.5 -158t127.5 -52q66 0 107 45.5t41 138.5z" />
    <glyph glyph-name="Ohungarumlaut.sc" horiz-adv-x="544" 
d="M272 533l134 139l70 -14l-151 -125h-53zM162 533l134 139l70 -14l-151 -125h-53zM502 249q0 -120 -69 -188.5t-181 -68.5q-92 0 -151 63.5t-59 174.5q0 121 69 190t181 69q91 0 150.5 -64t59.5 -176zM433 227q0 106 -47 158t-129 52q-65 0 -105.5 -46t-40.5 -138
q0 -106 46.5 -158t127.5 -52q66 0 107 45.5t41 138.5z" />
    <glyph glyph-name="P.sc" horiz-adv-x="437" 
d="M215 244q59 0 87.5 22.5t28.5 70.5q0 99 -128 99h-53v-190q42 -2 65 -2zM189 196q-27 0 -39 1v-197h-65v481h136q181 0 181 -130q0 -75 -62 -115t-151 -40z" />
    <glyph glyph-name="Q.sc" horiz-adv-x="544" 
d="M502 249q0 -120 -69 -188.5t-181 -68.5q-92 0 -151 63.5t-59 174.5q0 121 69 190t181 69q91 0 150.5 -64t59.5 -176zM433 227q0 106 -47 158t-129 52q-65 0 -105.5 -46t-40.5 -138q0 -106 46.5 -158t127.5 -52q66 0 107 45.5t41 138.5zM508 -65v-53q-35 -21 -78 -21
q-35 0 -110 26.5t-101 26.5q-36 0 -77 -32l-22 42q62 32 108 32t114 -20.5t97 -20.5q41 0 69 20z" />
    <glyph glyph-name="R.sc" horiz-adv-x="468" 
d="M222 254q42 0 70.5 20t28.5 64q0 45 -26 70.5t-78 25.5q-47 0 -67 -1v-177q23 -2 72 -2zM202 206q-14 0 -52 2v-208h-65v481h147q74 0 115.5 -32t41.5 -95q0 -87 -89 -127l130 -227h-75l-112 210q-19 -4 -41 -4z" />
    <glyph glyph-name="Racute.sc" horiz-adv-x="468" 
d="M155 533l129 139l69 -14l-145 -125h-53zM222 254q42 0 70.5 20t28.5 64q0 45 -26 70.5t-78 25.5q-47 0 -67 -1v-177q23 -2 72 -2zM202 206q-14 0 -52 2v-208h-65v481h147q74 0 115.5 -32t41.5 -95q0 -87 -89 -127l130 -227h-75l-112 210q-19 -4 -41 -4z" />
    <glyph glyph-name="Rcommaaccent.sc" horiz-adv-x="468" 
d="M222 254q42 0 70.5 20t28.5 64q0 45 -26 70.5t-78 25.5q-47 0 -67 -1v-177q23 -2 72 -2zM202 206q-14 0 -52 2v-208h-65v481h147q74 0 115.5 -32t41.5 -95q0 -87 -89 -127l130 -227h-75l-112 210q-19 -4 -41 -4zM195 -79q0 12 12 22.5t25 10.5q14 0 32 -19.5t18 -38.5
q0 -28 -57 -139l-36 14q36 75 36 102q0 4 -15 20t-15 28z" />
    <glyph glyph-name="Rcaron.sc" horiz-adv-x="468" 
d="M245 537h-36l-126 139h53l91 -80l90 80h55zM222 254q42 0 70.5 20t28.5 64q0 45 -26 70.5t-78 25.5q-47 0 -67 -1v-177q23 -2 72 -2zM202 206q-14 0 -52 2v-208h-65v481h147q74 0 115.5 -32t41.5 -95q0 -87 -89 -127l130 -227h-75l-112 210q-19 -4 -41 -4z" />
    <glyph glyph-name="S.sc" horiz-adv-x="428" 
d="M193 222q-73 32 -102 61t-29 79q0 54 48 90.5t121 36.5q80 0 139 -17l-12 -57q-74 27 -145 27q-41 0 -65.5 -17.5t-24.5 -50.5q0 -32 24 -53t86 -48q84 -36 115 -66.5t31 -77.5q0 -62 -54.5 -100.5t-146.5 -38.5q-71 0 -130 18l14 59q73 -29 144 -29q50 0 79.5 18.5
t29.5 50.5q0 36 -25 61t-97 54z" />
    <glyph glyph-name="Sacute.sc" horiz-adv-x="428" 
d="M160 533l129 139l69 -14l-145 -125h-53zM193 222q-73 32 -102 61t-29 79q0 54 48 90.5t121 36.5q80 0 139 -17l-12 -57q-74 27 -145 27q-41 0 -65.5 -17.5t-24.5 -50.5q0 -32 24 -53t86 -48q84 -36 115 -66.5t31 -77.5q0 -62 -54.5 -100.5t-146.5 -38.5q-71 0 -130 18
l14 59q73 -29 144 -29q50 0 79.5 18.5t29.5 50.5q0 36 -25 61t-97 54z" />
    <glyph glyph-name="Scircumflex.sc" horiz-adv-x="428" 
d="M325 533l-90 81l-91 -81h-54l126 139h37l126 -139h-54zM193 222q-73 32 -102 61t-29 79q0 54 48 90.5t121 36.5q80 0 139 -17l-12 -57q-74 27 -145 27q-41 0 -65.5 -17.5t-24.5 -50.5q0 -32 24 -53t86 -48q84 -36 115 -66.5t31 -77.5q0 -62 -54.5 -100.5t-146.5 -38.5
q-71 0 -130 18l14 59q73 -29 144 -29q50 0 79.5 18.5t29.5 50.5q0 36 -25 61t-97 54z" />
    <glyph glyph-name="Scedilla.sc" horiz-adv-x="428" 
d="M125 -227l-9 37q52 7 76.5 17t24.5 31q0 26 -77 48l-3 5l36 79q-73 2 -125 18l14 59q73 -29 144 -29q50 0 79.5 18.5t29.5 50.5q0 36 -25 61t-97 54q-73 32 -102 61t-29 79q0 54 48 90.5t121 36.5q80 0 139 -17l-12 -57q-74 27 -145 27q-41 0 -65.5 -17.5t-24.5 -50.5
q0 -32 24 -53t86 -48q84 -36 115 -66.5t31 -77.5q0 -55 -43.5 -92t-118.5 -45l-22 -47q3 -2 10 -5q24 -12 35 -18.5t20.5 -19.5t9.5 -30q0 -35 -36.5 -63t-108.5 -36z" />
    <glyph glyph-name="Scaron.sc" horiz-adv-x="428" 
d="M254 537h-36l-126 139h53l91 -80l90 80h55zM193 222q-73 32 -102 61t-29 79q0 54 48 90.5t121 36.5q80 0 139 -17l-12 -57q-74 27 -145 27q-41 0 -65.5 -17.5t-24.5 -50.5q0 -32 24 -53t86 -48q84 -36 115 -66.5t31 -77.5q0 -62 -54.5 -100.5t-146.5 -38.5q-71 0 -130 18
l14 59q73 -29 144 -29q50 0 79.5 18.5t29.5 50.5q0 36 -25 61t-97 54z" />
    <glyph glyph-name="Scommaaccent.sc" horiz-adv-x="428" 
d="M193 222q-73 32 -102 61t-29 79q0 54 48 90.5t121 36.5q80 0 139 -17l-12 -57q-74 27 -145 27q-41 0 -65.5 -17.5t-24.5 -50.5q0 -32 24 -53t86 -48q84 -36 115 -66.5t31 -77.5q0 -62 -54.5 -100.5t-146.5 -38.5q-71 0 -130 18l14 59q73 -29 144 -29q50 0 79.5 18.5
t29.5 50.5q0 36 -25 61t-97 54zM178 -79q0 12 12 22.5t25 10.5q14 0 32 -19.5t18 -38.5q0 -28 -57 -139l-36 14q36 75 36 102q0 4 -15 20t-15 28z" />
    <glyph glyph-name="T.sc" horiz-adv-x="429" 
d="M406 430l-157 2v-432h-65v433l-169 -3l9 51h390z" />
    <glyph glyph-name="Tcommaaccent.sc" horiz-adv-x="429" 
d="M406 430l-157 2v-432h-65v433l-169 -3l9 51h390zM169 -79q0 12 12 22.5t25 10.5q14 0 32 -19.5t18 -38.5q0 -28 -57 -139l-36 14q36 75 36 102q0 4 -15 20t-15 28z" />
    <glyph glyph-name="Tcaron.sc" horiz-adv-x="429" 
d="M236 537h-36l-126 139h53l91 -80l90 80h55zM406 430l-157 2v-432h-65v433l-169 -3l9 51h390z" />
    <glyph glyph-name="U.sc" horiz-adv-x="555" 
d="M80 174v307h64v-296q0 -73 39.5 -107t104.5 -34q57 0 91 31t34 90v316h62v-298q0 -92 -54 -141.5t-152 -49.5q-84 0 -136.5 46.5t-52.5 135.5z" />
    <glyph glyph-name="Ugrave.sc" horiz-adv-x="555" 
d="M400 533h-53l-145 125l69 14zM80 174v307h64v-296q0 -73 39.5 -107t104.5 -34q57 0 91 31t34 90v316h62v-298q0 -92 -54 -141.5t-152 -49.5q-84 0 -136.5 46.5t-52.5 135.5z" />
    <glyph glyph-name="Uacute.sc" horiz-adv-x="555" 
d="M188 533l129 139l69 -14l-145 -125h-53zM80 174v307h64v-296q0 -73 39.5 -107t104.5 -34q57 0 91 31t34 90v316h62v-298q0 -92 -54 -141.5t-152 -49.5q-84 0 -136.5 46.5t-52.5 135.5z" />
    <glyph glyph-name="Ucircumflex.sc" horiz-adv-x="555" 
d="M379 533l-90 81l-91 -81h-54l126 139h37l126 -139h-54zM80 174v307h64v-296q0 -73 39.5 -107t104.5 -34q57 0 91 31t34 90v316h62v-298q0 -92 -54 -141.5t-152 -49.5q-84 0 -136.5 46.5t-52.5 135.5z" />
    <glyph glyph-name="Udieresis.sc" horiz-adv-x="555" 
d="M326 619q0 13 15.5 29.5t26.5 16.5t29 -12.5t18 -24.5t-16 -28.5t-26 -16.5q-11 0 -29 12.5t-18 23.5zM152 619q0 13 15.5 29.5t26.5 16.5t29 -12.5t18 -24.5t-16 -28.5t-26 -16.5q-11 0 -29 12.5t-18 23.5zM80 174v307h64v-296q0 -73 39.5 -107t104.5 -34q57 0 91 31
t34 90v316h62v-298q0 -92 -54 -141.5t-152 -49.5q-84 0 -136.5 46.5t-52.5 135.5z" />
    <glyph glyph-name="Utilde.sc" horiz-adv-x="555" 
d="M404 642l27 -29q-38 -41 -60 -51q-16 -8 -33 -8q-19 0 -63.5 16.5t-56.5 16.5q-24 0 -65 -33l-25 27q17 18 27.5 27.5t31.5 21t40 11.5q23 0 62 -14.5t52 -14.5q31 0 63 30zM80 174v307h64v-296q0 -73 39.5 -107t104.5 -34q57 0 91 31t34 90v316h62v-298
q0 -92 -54 -141.5t-152 -49.5q-84 0 -136.5 46.5t-52.5 135.5z" />
    <glyph glyph-name="Umacron.sc" horiz-adv-x="555" 
d="M407 630v-15l-15 -33h-239v15l15 33h239zM80 174v307h64v-296q0 -73 39.5 -107t104.5 -34q57 0 91 31t34 90v316h62v-298q0 -92 -54 -141.5t-152 -49.5q-84 0 -136.5 46.5t-52.5 135.5z" />
    <glyph glyph-name="Ubreve.sc" horiz-adv-x="555" 
d="M286 590q75 0 96 92h39q0 -59 -41.5 -104t-98.5 -45q-62 0 -95.5 43.5t-33.5 105.5h39q21 -92 95 -92zM80 174v307h64v-296q0 -73 39.5 -107t104.5 -34q57 0 91 31t34 90v316h62v-298q0 -92 -54 -141.5t-152 -49.5q-84 0 -136.5 46.5t-52.5 135.5z" />
    <glyph glyph-name="Uring.sc" horiz-adv-x="555" 
d="M380 610q0 -35 -27.5 -60t-62.5 -25q-37 0 -63 23t-26 62q0 35 27 60.5t63 25.5q37 0 63 -22.5t26 -63.5zM244 610q0 -20 13.5 -33t32.5 -13t33 13t14 33q0 22 -14 35t-33 13t-32.5 -13t-13.5 -35zM80 174v307h64v-296q0 -73 39.5 -107t104.5 -34q57 0 91 31t34 90v316
h62v-298q0 -92 -54 -141.5t-152 -49.5q-84 0 -136.5 46.5t-52.5 135.5z" />
    <glyph glyph-name="Uhungarumlaut.sc" horiz-adv-x="555" 
d="M268 533l134 139l70 -14l-151 -125h-53zM158 533l134 139l70 -14l-151 -125h-53zM80 174v307h64v-296q0 -73 39.5 -107t104.5 -34q57 0 91 31t34 90v316h62v-298q0 -92 -54 -141.5t-152 -49.5q-84 0 -136.5 46.5t-52.5 135.5z" />
    <glyph glyph-name="Uogonek.sc" horiz-adv-x="555" 
d="M336 -186q-37 0 -57 21t-20 56q0 50 56 104q-23 -3 -46 -3q-84 0 -136.5 46.5t-52.5 135.5v307h64v-296q0 -73 39.5 -107t104.5 -34q57 0 91 31t34 90v316h62v-298q0 -108 -75 -158q-37 -27 -64 -62.5t-27 -65.5q0 -21 13 -32t32 -11q11 0 39 14l12 -34q-36 -20 -69 -20z
" />
    <glyph glyph-name="V.sc" horiz-adv-x="484" 
d="M272 0h-67l-188 481h71l157 -404l156 404h66z" />
    <glyph glyph-name="W.sc" horiz-adv-x="742" 
d="M514 0l-143 398l-135 -398h-74l-132 481h70l107 -407l131 407h72l143 -405l97 405h62l-124 -481h-74z" />
    <glyph glyph-name="Wcircumflex.sc" horiz-adv-x="742" 
d="M469 533l-90 81l-91 -81h-54l126 139h37l126 -139h-54zM514 0l-143 398l-135 -398h-74l-132 481h70l107 -407l131 407h72l143 -405l97 405h62l-124 -481h-74z" />
    <glyph glyph-name="Wgrave.sc" horiz-adv-x="742" 
d="M473 533h-53l-145 125l69 14zM514 0l-143 398l-135 -398h-74l-132 481h70l107 -407l131 407h72l143 -405l97 405h62l-124 -481h-74z" />
    <glyph glyph-name="Wacute.sc" horiz-adv-x="742" 
d="M332 533l129 139l69 -14l-145 -125h-53zM514 0l-143 398l-135 -398h-74l-132 481h70l107 -407l131 407h72l143 -405l97 405h62l-124 -481h-74z" />
    <glyph glyph-name="Wdieresis.sc" horiz-adv-x="742" 
d="M420 619q0 13 15.5 29.5t26.5 16.5t29 -12.5t18 -24.5t-16 -28.5t-26 -16.5q-11 0 -29 12.5t-18 23.5zM246 619q0 13 15.5 29.5t26.5 16.5t29 -12.5t18 -24.5t-16 -28.5t-26 -16.5q-11 0 -29 12.5t-18 23.5zM514 0l-143 398l-135 -398h-74l-132 481h70l107 -407l131 407
h72l143 -405l97 405h62l-124 -481h-74z" />
    <glyph glyph-name="X.sc" horiz-adv-x="473" 
d="M367 0l-137 200l-132 -200h-71l172 246l-161 235h78l129 -188l122 188h72l-163 -233l170 -248h-79z" />
    <glyph glyph-name="Y.sc" horiz-adv-x="451" 
d="M264 188v-188h-65v188l-182 293h79l142 -234l131 234h66z" />
    <glyph glyph-name="Yacute.sc" horiz-adv-x="451" 
d="M181 533l129 139l69 -14l-145 -125h-53zM264 188v-188h-65v188l-182 293h79l142 -234l131 234h66z" />
    <glyph glyph-name="Ycircumflex.sc" horiz-adv-x="451" 
d="M333 533l-90 81l-91 -81h-54l126 139h37l126 -139h-54zM264 188v-188h-65v188l-182 293h79l142 -234l131 234h66z" />
    <glyph glyph-name="Ydieresis.sc" horiz-adv-x="451" 
d="M281 619q0 13 15.5 29.5t26.5 16.5t29 -12.5t18 -24.5t-16 -28.5t-26 -16.5q-11 0 -29 12.5t-18 23.5zM107 619q0 13 15.5 29.5t26.5 16.5t29 -12.5t18 -24.5t-16 -28.5t-26 -16.5q-11 0 -29 12.5t-18 23.5zM264 188v-188h-65v188l-182 293h79l142 -234l131 234h66z" />
    <glyph glyph-name="Ygrave.sc" horiz-adv-x="451" 
d="M324 533h-53l-145 125l69 14zM264 188v-188h-65v188l-182 293h79l142 -234l131 234h66z" />
    <glyph glyph-name="Z.sc" horiz-adv-x="446" 
d="M404 0h-367v42l283 387h-272l10 52h344v-42l-284 -388h296z" />
    <glyph glyph-name="Zacute.sc" horiz-adv-x="446" 
d="M168 533l129 139l69 -14l-145 -125h-53zM404 0h-367v42l283 387h-272l10 52h344v-42l-284 -388h296z" />
    <glyph glyph-name="Zdotaccent.sc" horiz-adv-x="446" 
d="M182 608q0 14 17.5 32.5t29.5 18.5q13 0 32.5 -14.5t19.5 -28.5t-17.5 -31.5t-29.5 -17.5q-13 0 -32.5 14t-19.5 27zM404 0h-367v42l283 387h-272l10 52h344v-42l-284 -388h296z" />
    <glyph glyph-name="Zcaron.sc" horiz-adv-x="446" 
d="M257 537h-36l-126 139h53l91 -80l90 80h55zM404 0h-367v42l283 387h-272l10 52h344v-42l-284 -388h296z" />
    <glyph glyph-name="AE.sc" horiz-adv-x="680" 
d="M332 422l-131 -219h132v219h-1zM333 0v154h-161l-92 -154h-65l290 481h313l-7 -53q-59 1 -116.5 2.5t-96.5 1.5v-161h197l-9 -47l-188 3v-176l234 4l-7 -55h-292z" />
    <glyph glyph-name="AEacute.sc" horiz-adv-x="680" 
d="M327 533l129 139l69 -14l-145 -125h-53zM332 422l-131 -219h132v219h-1zM333 0v154h-161l-92 -154h-65l290 481h313l-7 -53q-59 1 -116.5 2.5t-96.5 1.5v-161h197l-9 -47l-188 3v-176l234 4l-7 -55h-292z" />
    <glyph glyph-name="Eth.sc" horiz-adv-x="524" 
d="M206 -2q-26 0 -119 6v224h-53v45h53v208h150q113 0 179 -60t66 -166q0 -119 -78.5 -188t-197.5 -69zM237 48q76 0 126 47t50 150q0 97 -56 142.5t-147 45.5h-56v-160h149l-8 -45h-141v-175q42 -5 83 -5z" />
    <glyph glyph-name="Oslash.sc" horiz-adv-x="544" 
d="M111 253q0 -115 56 -168l166 338q-36 14 -76 14q-65 0 -105.5 -46t-40.5 -138zM285 43q66 0 107 45.5t41 138.5q0 121 -64 174l-167 -341q37 -17 83 -17zM252 -8q-38 0 -77 13l-34 -69h-47l43 88q-95 63 -95 206q0 121 69 190t181 69q35 0 68 -11l32 65h46l-40 -82
q104 -61 104 -212q0 -120 -69 -188.5t-181 -68.5z" />
    <glyph glyph-name="Oslashacute.sc" horiz-adv-x="544" 
d="M199 533l129 139l69 -14l-145 -125h-53zM111 253q0 -115 56 -168l166 338q-36 14 -76 14q-65 0 -105.5 -46t-40.5 -138zM285 43q66 0 107 45.5t41 138.5q0 121 -64 174l-167 -341q37 -17 83 -17zM252 -8q-38 0 -77 13l-34 -69h-47l43 88q-95 63 -95 206q0 121 69 190
t181 69q35 0 68 -11l32 65h46l-40 -82q104 -61 104 -212q0 -120 -69 -188.5t-181 -68.5z" />
    <glyph glyph-name="Thorn.sc" horiz-adv-x="437" 
d="M215 152q59 0 87.5 22.5t28.5 70.5q0 98 -128 98h-53v-189q42 -2 65 -2zM189 104q-27 0 -39 1v-105h-65v481h65v-92h71q181 0 181 -130q0 -76 -62 -115.5t-151 -39.5z" />
    <glyph glyph-name="Dcroat.sc" horiz-adv-x="524" 
d="M206 -2q-26 0 -119 6v224h-53v45h53v208h150q113 0 179 -60t66 -166q0 -119 -78.5 -188t-197.5 -69zM237 48q76 0 126 47t50 150q0 97 -56 142.5t-147 45.5h-56v-160h149l-8 -45h-141v-175q42 -5 83 -5z" />
    <glyph glyph-name="Hbar.sc" horiz-adv-x="550" 
d="M396 273v84h-243v-84h243zM396 0v226h-243v-226h-68v357h-40v14l14 27h26v83h68v-83h243v83h69v-83h39v-13l-14 -28h-25v-357h-69z" />
    <glyph glyph-name="IJ.sc" horiz-adv-x="539" 
d="M150 481v-481h-65v481h65zM465 481v-344q0 -69 -38 -107t-97 -38q-48 0 -74 14l13 50q49 -17 71 -17q27 0 44 18.5t17 53.5v370h64z" />
    <glyph glyph-name="Ldot.sc" horiz-adv-x="378" 
d="M249 265q0 14 17.5 32.5t29.5 18.5q13 0 32.5 -14.5t19.5 -28.5t-17.5 -31.5t-29.5 -17.5q-13 0 -32.5 14t-19.5 27zM85 0v481h65v-430l213 2l-8 -53h-270z" />
    <glyph glyph-name="Lslash.sc" horiz-adv-x="383" 
d="M85 0v207l-68 -27v51l68 27v223h65v-198l111 44v-51l-111 -44v-181l213 2l-8 -53h-270z" />
    <glyph glyph-name="Eng.sc" horiz-adv-x="557" 
d="M343 -133q-26 0 -60 8l13 58q42 -14 67 -14q27 0 39.5 14t12.5 46v19l-272 384v-382h-58v481h63l267 -378v378h57v-485q0 -59 -36.5 -94t-92.5 -35z" />
    <glyph glyph-name="OE.sc" horiz-adv-x="703" 
d="M285 43q45 0 76 18v346q-40 30 -104 30q-66 0 -106 -45t-40 -139q0 -210 174 -210zM361 0v14q-47 -22 -109 -22q-94 0 -152 63t-58 175q0 119 69 189t169 70q44 0 81 -15v7h286l-7 -53l-213 3v-160h197l-9 -47l-188 3v-176l234 4l-8 -55h-292z" />
    <glyph glyph-name="Tbar.sc" horiz-adv-x="429" 
d="M360 257h-111v-257h-65v257h-133v11l14 30h119v135l-169 -3l9 51h390l-8 -51l-157 2v-134h124v-11z" />
    <glyph glyph-name="commaaccent.sc" horiz-adv-x="252" 
d="M85 -79q0 12 12 22.5t25 10.5q14 0 32 -19.5t18 -38.5q0 -28 -57 -139l-36 14q36 75 36 102q0 4 -15 20t-15 28z" />
    <glyph glyph-name="acute.sc" horiz-adv-x="340" 
d="M71 533l129 139l69 -14l-145 -125h-53z" />
    <glyph glyph-name="grave.sc" horiz-adv-x="340" 
d="M269 533h-53l-145 125l69 14z" />
    <glyph glyph-name="hungarumlaut.sc" horiz-adv-x="420" 
d="M164 533l134 139l70 -14l-151 -125h-53zM54 533l134 139l70 -14l-151 -125h-53z" />
    <glyph glyph-name="circumflex.sc" horiz-adv-x="431" 
d="M306 533l-90 81l-91 -81h-54l126 139h37l126 -139h-54z" />
    <glyph glyph-name="caron.sc" horiz-adv-x="431" 
d="M233 537h-36l-126 139h53l91 -80l90 80h55z" />
    <glyph glyph-name="breve.sc" horiz-adv-x="405" 
d="M202 590q75 0 96 92h39q0 -59 -41.5 -104t-98.5 -45q-62 0 -95.5 43.5t-33.5 105.5h39q21 -92 95 -92z" />
    <glyph glyph-name="tilde.sc" horiz-adv-x="437" 
d="M343 642l27 -29q-38 -41 -60 -51q-16 -8 -33 -8q-19 0 -63.5 16.5t-56.5 16.5q-24 0 -65 -33l-25 27q17 18 27.5 27.5t31.5 21t40 11.5q23 0 62 -14.5t52 -14.5q31 0 63 30z" />
    <glyph glyph-name="macron.sc" horiz-adv-x="414" 
d="M334 630v-15l-15 -33h-239v15l15 33h239z" />
    <glyph glyph-name="dieresis.sc" horiz-adv-x="393" 
d="M239 619q0 13 15.5 29.5t26.5 16.5t29 -12.5t18 -24.5t-16 -28.5t-26 -16.5q-11 0 -29 12.5t-18 23.5zM65 619q0 13 15.5 29.5t26.5 16.5t29 -12.5t18 -24.5t-16 -28.5t-26 -16.5q-11 0 -29 12.5t-18 23.5z" />
    <glyph glyph-name="dotaccent.sc" horiz-adv-x="174" 
d="M38 608q0 14 17.5 32.5t29.5 18.5q13 0 32.5 -14.5t19.5 -28.5t-17.5 -31.5t-29.5 -17.5q-13 0 -32.5 14t-19.5 27z" />
    <glyph glyph-name="ring.sc" horiz-adv-x="327" 
d="M253 610q0 -35 -27.5 -60t-62.5 -25q-37 0 -63 23t-26 62q0 35 27 60.5t63 25.5q37 0 63 -22.5t26 -63.5zM117 610q0 -20 13.5 -33t32.5 -13t33 13t14 33q0 22 -14 35t-33 13t-32.5 -13t-13.5 -35z" />
    <glyph glyph-name="cedilla.sc" horiz-adv-x="290" 
d="M89 -89l41 89h43l-26 -55q3 -2 10 -5q24 -12 35 -18.5t20.5 -19.5t9.5 -30q0 -35 -36.5 -63t-108.5 -36l-9 37q52 7 76.5 17t24.5 31q0 26 -77 48z" />
    <glyph glyph-name="ogonek.sc" horiz-adv-x="306" 
d="M80 -134q0 64 90 134h51q-37 -27 -64 -62.5t-27 -65.5q0 -21 13 -32t32 -11q11 0 39 14l12 -34q-36 -20 -69 -20q-37 0 -57 21t-20 56z" />
    <glyph glyph-name="Dotlessi.sc" horiz-adv-x="235" 
d="M150 481v-481h-65v481h65z" />
    <glyph glyph-name="Tcedilla.sc" horiz-adv-x="429" 
d="M195 0h-11v433l-169 -3l9 51h390l-8 -51l-157 2v-432h-11l-26 -55q3 -2 10 -5q24 -12 35 -18.5t20.5 -19.5t9.5 -30q0 -35 -36.5 -63t-108.5 -36l-9 37q52 7 76.5 17t24.5 31q0 26 -77 48l-3 5z" />
    <glyph glyph-name="f_f.sc" horiz-adv-x="792" 
d="M339 220l-189 1v-221h-65v481h285l-6 -52l-214 3v-166h197zM723 220l-189 1v-221h-65v481h285l-6 -52l-214 3v-166h197z" />
    <glyph glyph-name="f_f_i.sc" horiz-adv-x="1006" 
d="M921 481v-481h-65v481h65zM339 220l-189 1v-221h-65v481h285l-6 -52l-214 3v-166h197zM725 220l-189 1v-221h-65v481h285l-6 -52l-214 3v-166h197z" />
    <glyph glyph-name="f_f_l.sc" horiz-adv-x="1145" 
d="M339 220l-189 1v-221h-65v481h285l-6 -52l-214 3v-166h197zM724 220l-189 1v-221h-65v481h285l-6 -52l-214 3v-166h197zM847 0v481h65v-430l213 2l-8 -53h-270z" />
    <glyph glyph-name="fi.sc" horiz-adv-x="620" 
d="M535 481v-481h-65v481h65zM339 220l-189 1v-221h-65v481h285l-6 -52l-214 3v-166h197z" />
    <glyph glyph-name="fl.sc" horiz-adv-x="767" 
d="M339 220l-189 1v-221h-65v481h285l-6 -52l-214 3v-166h197zM469 0v481h65v-430l213 2l-8 -53h-270z" />
    </font>
</defs>
</svg>
