<?xml version="1.0" standalone="no"?>
<!DOCTYPE svg PUBLIC "-//W3C//DTD SVG 1.1//EN" "http://www.w3.org/Graphics/SVG/1.1/DTD/svg11.dtd" >
<svg xmlns="http://www.w3.org/2000/svg" xmlns:xlink="http://www.w3.org/1999/xlink" version="1.1">
<metadata>
Created by FontForge 20170731 at Sun Apr  3 01:33:34 2016
 By Aleksey,,,
Universidad Nacional de Colombia, Unidad de Medios de Comunicacio'n (Unimedios), 2012-2015.
</metadata>
<defs>
<font id="AncizarSerif-Light" horiz-adv-x="500" >
  <font-face 
    font-family="Ancizar Serif Light"
    font-weight="300"
    font-stretch="normal"
    units-per-em="1000"
    panose-1="2 10 5 2 7 3 0 0 0 3"
    ascent="750"
    descent="-250"
    x-height="450"
    cap-height="612"
    bbox="-119 -267 1267 904"
    underline-thickness="0"
    underline-position="0"
    unicode-range="U+0020-FB04"
  />
<missing-glyph horiz-adv-x="600" 
d="M50 0v703h500v-703h-500zM300 397l170 256h-340zM100 608v-513l170 256zM330 351l170 -256v513zM130 50h340l-170 256z" />
    <glyph glyph-name="f_f" unicode="ff" horiz-adv-x="599" 
d="M168 486v-36h213v22q0 69 22 118l-102 48q-72 0 -102.5 -33.5t-30.5 -118.5zM238 16v-16h-211v16l75 34v366h-61v34h61q3 112 66 166t150 54q61 0 122 -21l-3 -6q53 57 134 57q37 0 66 -9l-11 -74h-21l-68 47q-44 0 -67 -43t-23 -145v-26h19l103 5l-9 -47l-94 8h-19v-366
l107 -34v-16h-248v16l75 34v366h-213v-366z" />
    <glyph glyph-name="fi" unicode="fi" horiz-adv-x="545" 
d="M255 16v-16h-228v16l75 34v366h-61v34h61v5q0 78 37.5 136t87.5 83.5t100 25.5q94 0 138 -31l-13 -82h-21l-87 89q-91 -4 -133.5 -51t-42.5 -159v-16h164l100 13l-1 -6h16v-407l72 -34v-16h-213v16l75 34v352l-73 14h-140v-366z" />
    <glyph glyph-name="fl" unicode="fl" horiz-adv-x="539" 
d="M233 16v-16h-206v16l75 34v366h-61v34h61v22q0 117 56.5 172.5t138.5 55.5q60 0 108 -14l32 28h21l-11 -112v-552l72 -34v-16h-213v16l75 34v595l-9 -13l-84 35q-70 0 -95 -34.5t-25 -135.5v-47h49l103 5l-9 -47l-94 8h-49v-366z" />
    <glyph glyph-name="f_f_i" unicode="ffi" horiz-adv-x="824" 
d="M168 486v-36h213v5q0 72 33 130l-113 53q-72 0 -102.5 -33.5t-30.5 -118.5zM238 16v-16h-211v16l75 34v366h-61v34h61q3 112 66 166t150 54q86 0 141 -30q66 60 147 60q94 0 138 -31l-13 -82h-21l-87 89q-91 -4 -133.5 -51t-42.5 -159v-16h164l100 13l-1 -6h16v-407
l72 -34v-16h-213v16l75 34v352l-73 14h-140v-366l92 -34v-16h-233v16l75 34v366h-213v-366z" />
    <glyph glyph-name="f_f_l" unicode="ffl" horiz-adv-x="818" 
d="M168 486v-36h213v22q0 69 22 118l-102 48q-72 0 -102.5 -33.5t-30.5 -118.5zM238 16v-16h-211v16l75 34v366h-61v34h61q3 112 66 166t150 54q61 0 122 -21l-2 -4q52 55 138 55q59 0 102 -12l-7 -14l45 40h21l-11 -112v-552l72 -34v-16h-213v16l75 34v601l-9 -19l-84 35
q-70 0 -95 -34.5t-25 -135.5v-47h49l103 5l-9 -47l-94 8h-49v-366l70 -34v-16h-211v16l75 34v366h-213v-366z" />
    <glyph glyph-name=".notdef" horiz-adv-x="600" 
d="M50 0v703h500v-703h-500zM300 397l170 256h-340zM100 608v-513l170 256zM330 351l170 -256v513zM130 50h340l-170 256z" />
    <glyph glyph-name=".null" horiz-adv-x="0" 
 />
    <glyph glyph-name="nonmarkingreturn" horiz-adv-x="333" 
 />
    <glyph glyph-name="space" unicode=" " horiz-adv-x="252" 
 />
    <glyph glyph-name="exclam" unicode="!" horiz-adv-x="296" 
d="M170 175l-37 -21q1 177 -24 459l87 31zM96 34q0 14 18.5 31.5t31.5 17.5t33.5 -16t20.5 -30t-20 -30.5t-32 -16.5q-14 0 -33 15t-19 29z" />
    <glyph glyph-name="quotedbl" unicode="&#x22;" horiz-adv-x="291" 
d="M204 487l-26 206h60l-28 -206h-6zM81 487l-28 206h59l-25 -206h-6z" />
    <glyph glyph-name="numbersign" unicode="#" horiz-adv-x="527" 
d="M317 226l34 141h-135l-34 -141h135zM262 0l49 202h-135l-49 -202h-30l49 202h-103v15l4 9h105l34 141h-114v15l3 9h117l53 221h30l-53 -221h135l53 221h30l-53 -221h93v-15l-4 -9h-95l-34 -141h104v-15l-3 -9h-107l-49 -202h-30z" />
    <glyph glyph-name="dollar" unicode="$" horiz-adv-x="509" 
d="M292 -140h-47l8 131q-10 -1 -29 -1q-91 0 -157 25l24 127h25l32 -95q37 -16 121 -18q47 0 80.5 27.5t33.5 81.5q0 48 -26.5 82.5t-89.5 61.5l-55 22q-64 27 -95 63.5t-31 89.5q0 61 44.5 105.5t122.5 56.5l-10 116h50l-14 -114q7 1 22 1q81 0 140 -26l-21 -123h-25
l-44 93q-46 17 -105 17q-48 0 -74.5 -24t-26.5 -69q0 -51 28 -81.5t81 -53.5l55 -23q77 -31 106 -70t29 -91q0 -64 -45.5 -112.5t-118.5 -62.5z" />
    <glyph glyph-name="percent" unicode="%" horiz-adv-x="607" 
d="M296 485q0 -69 -38.5 -108t-98.5 -39q-52 0 -84.5 37t-32.5 100q0 67 39 107t97 40q53 0 85.5 -37.5t32.5 -99.5zM45 0l473 612h43l-472 -612h-44zM252 465q0 54 -26 90.5t-63 36.5q-41 0 -60 -23t-19 -74q0 -52 25.5 -88t62.5 -36q42 0 61 21.5t19 72.5zM565 136
q0 -68 -38.5 -107t-98.5 -39q-52 0 -84.5 37t-32.5 99q0 67 38.5 107.5t97.5 40.5q54 0 86 -38t32 -100zM521 119q0 53 -26 89.5t-63 36.5q-40 0 -59 -23t-19 -73q0 -52 25.5 -88.5t62.5 -36.5q42 0 60.5 22t18.5 73z" />
    <glyph glyph-name="ampersand" unicode="&#x26;" horiz-adv-x="639" 
d="M246 41q82 0 152 60q-52 50 -121 124q-25 27 -75 71q-95 -52 -95 -124q0 -55 41.5 -93t97.5 -38zM518 0q-38 23 -100 82q-107 -92 -215 -92q-64 0 -110 38t-46 94q0 57 34 101.5t102 89.5q-43 41 -65 73.5t-22 74.5q0 54 61 107.5t114 53.5q89 0 128 -21l-20 -123h-26
l-40 84q-42 15 -92 15q-38 0 -59 -24.5t-21 -64.5q0 -23 16.5 -50t34 -45.5t58 -57t60.5 -59.5q54 -57 130 -128q40 59 40 114q0 73 -29 108l-61 35v15h211v-15l-75 -35q7 -39 7 -64q0 -94 -71 -178q66 -60 104 -82l53 -32v-14h-101z" />
    <glyph glyph-name="quotesingle" unicode="'" horiz-adv-x="165" 
d="M81 487l-28 206h59l-25 -206h-6z" />
    <glyph glyph-name="parenleft" unicode="(" horiz-adv-x="292" 
d="M57 292q0 154 58 258.5t154 152.5l16 -25q-83 -45 -137 -149.5t-54 -236.5t54 -237t137 -150l-16 -25q-96 48 -154 152.5t-58 259.5z" />
    <glyph glyph-name="parenright" unicode=")" horiz-adv-x="292" 
d="M198 291q0 132 -54 237t-137 150l16 25q96 -48 154 -152.5t58 -259.5q0 -154 -58 -258.5t-154 -152.5l-16 25q83 45 137 149.5t54 236.5z" />
    <glyph glyph-name="asterisk" unicode="*" horiz-adv-x="438" 
d="M181 667l35 11q13 -28 15 -66.5t-10 -78.5l-3 1q-10 74 -37 133zM338 621l27 -24q-19 -25 -52.5 -47t-70.5 -29l-2 2q60 45 98 98zM63 554l7 36q31 -2 67 -20.5t61 -47.5v-2q-73 30 -135 34zM376 464l-5 -36q-31 2 -67 20t-62 46v2q71 -28 134 -32zM100 397l-27 24
q20 25 54.5 46.5t70.5 27.5l2 -2q-64 -46 -100 -96zM256 349l-36 -11q-28 71 -1 145l2 -1q7 -71 35 -133z" />
    <glyph glyph-name="plus" unicode="+" horiz-adv-x="509" 
d="M451 248h-179v-184h-35v184h-179v28h179v179h35v-179h179v-28z" />
    <glyph glyph-name="comma" unicode="," horiz-adv-x="243" 
d="M76 40q0 16 14.5 32t27.5 16q14 0 35 -26t21 -53q0 -61 -91 -152l-12 11q47 63 47 100q0 20 -21 39t-21 33z" />
    <glyph glyph-name="hyphen" unicode="-" horiz-adv-x="303" 
d="M256 275v-15l-14 -21h-195v15l14 21h195z" />
    <glyph glyph-name="period" unicode="." horiz-adv-x="243" 
d="M71 35q0 15 18 35t30 20q13 0 34 -16.5t21 -30.5q0 -15 -18.5 -34t-31.5 -19t-33 15.5t-20 29.5z" />
    <glyph glyph-name="slash" unicode="/" horiz-adv-x="294" 
d="M37 -110l194 803h33l-195 -803h-32z" />
    <glyph glyph-name="zero" unicode="0" horiz-adv-x="509" 
d="M464 318q0 -151 -64 -239.5t-156 -88.5q-98 0 -148.5 81t-50.5 224q0 151 63.5 239t155.5 88q98 0 149 -81t51 -223zM398 278q0 161 -43.5 226.5t-122.5 65.5q-64 0 -92 -52t-28 -186q0 -161 43 -225.5t122 -64.5q65 0 93 50.5t28 185.5z" />
    <glyph glyph-name="one" unicode="1" horiz-adv-x="509" 
d="M310 612v-554l99 -44v-14h-295v15l124 43v516l-135 -66l-16 55l183 49h40z" />
    <glyph glyph-name="two" unicode="2" horiz-adv-x="509" 
d="M444 0h-403v24q19 22 54 61q171 196 207 250q43 63 43 118q0 61 -35 91.5t-94 30.5q-21 0 -42 -5l-76 -127h-28l3 124q142 55 182 55q77 0 121 -39t44 -110q0 -37 -14.5 -73t-57 -88t-86.5 -98.5t-135 -138.5l-14 -14h274l61 99h23z" />
    <glyph glyph-name="three" unicode="3" horiz-adv-x="509" 
d="M181 -10q-62 0 -124 14l2 3l17 72h14l79 -60h18q194 0 194 130q0 63 -47.5 102t-138.5 39q-31 0 -49 -2l13 44q26 -4 55 -4q63 0 101 29.5t38 87.5q0 67 -40.5 102.5t-102.5 35.5q-21 0 -37 -4l-76 -112h-28v100q80 32 119 43.5t73 11.5q66 0 115.5 -39t49.5 -102
q0 -54 -33.5 -96t-96.5 -64q159 -32 159 -152q0 -72 -81.5 -125.5t-192.5 -53.5z" />
    <glyph glyph-name="four" unicode="4" horiz-adv-x="509" 
d="M329 195v311l-250 -311h250zM475 143h-74v-143h-72v143h-331v18l371 461h32v-427h96z" />
    <glyph glyph-name="five" unicode="5" horiz-adv-x="509" 
d="M186 -10q-68 0 -132 12l2 3l13 67h14l70 -52q7 -1 21 -1q103 0 148 31.5t45 98.5q0 82 -50.5 130.5t-176.5 48.5l-38 -10l19 280l19 14h250l34 31h22l-19 -92h-271l-10 -175q13 1 37 1q135 0 198 -52.5t63 -135.5q0 -89 -72.5 -144t-185.5 -55z" />
    <glyph glyph-name="six" unicode="6" horiz-adv-x="509" 
d="M458 191q0 -92 -64.5 -146.5t-146.5 -54.5q-98 0 -144 74.5t-46 198.5q0 94 22.5 166t60 112.5t80 60.5t88.5 20q66 0 124 -22l-21 -123h-22l-58 104q-18 5 -51 5q-156 0 -156 -288v-21q130 73 172 73q72 0 117 -41.5t45 -117.5zM274 27q115 0 115 139q0 130 -133 130
q-68 0 -130 -48q9 -102 50 -161.5t98 -59.5z" />
    <glyph glyph-name="seven" unicode="7" horiz-adv-x="509" 
d="M211 -1l-63 1l-4 11l277 540h-280l-58 -84h-23l24 145h392v-19z" />
    <glyph glyph-name="eight" unicode="8" horiz-adv-x="509" 
d="M240 -11q-81 0 -132 41t-51 102q0 104 155 187q-125 75 -125 162q0 54 54.5 97.5t124.5 43.5q68 0 116 -32.5t48 -92.5q0 -47 -31.5 -82.5t-96.5 -81.5q85 -49 117.5 -83t32.5 -89q0 -68 -64.5 -120t-147.5 -52zM150 499q0 -38 29 -73t93 -75q89 51 89 126q0 53 -34.5 82
t-84.5 29q-92 0 -92 -89zM270 33q57 0 87 23t30 80q0 51 -30.5 85.5t-112.5 79.5q-54 -26 -85.5 -65t-31.5 -81q0 -59 42 -90.5t101 -31.5z" />
    <glyph glyph-name="nine" unicode="9" horiz-adv-x="509" 
d="M254 294q75 0 128 41q-4 121 -45.5 185.5t-108.5 64.5q-53 0 -75.5 -33.5t-22.5 -109.5q0 -69 35 -108.5t89 -39.5zM155 -10q-39 0 -75 10l12 69h16l55 -52q214 16 219 288q-117 -61 -166 -61q-71 0 -112.5 49t-41.5 125q0 92 59.5 148t130.5 56q84 0 140.5 -64.5
t56.5 -205.5q0 -174 -84 -268t-210 -94z" />
    <glyph glyph-name="colon" unicode=":" horiz-adv-x="243" 
d="M71 315q0 15 18 35t30 20q13 0 34 -16.5t21 -30.5q0 -15 -18.5 -34t-31.5 -19t-33 15.5t-20 29.5zM71 35q0 15 18 35t30 20q13 0 34 -16.5t21 -30.5q0 -15 -18.5 -34t-31.5 -19t-33 15.5t-20 29.5z" />
    <glyph glyph-name="semicolon" unicode=";" horiz-adv-x="243" 
d="M71 315q0 15 18 35t30 20q13 0 34 -16.5t21 -30.5q0 -15 -18.5 -34t-31.5 -19t-33 15.5t-20 29.5zM76 40q0 16 14.5 32t27.5 16q14 0 35 -26t21 -53q0 -61 -91 -152l-12 11q47 63 47 100q0 20 -21 39t-21 33z" />
    <glyph glyph-name="less" unicode="&#x3c;" horiz-adv-x="509" 
d="M84 250v16l322 220l20 -28l-291 -199l291 -201l-20 -28z" />
    <glyph glyph-name="equal" unicode="=" horiz-adv-x="509" 
d="M426 326v-28h-343v28h343zM426 214v-29h-343v29h343z" />
    <glyph glyph-name="greater" unicode="&#x3e;" horiz-adv-x="509" 
d="M425 268v-16l-322 -220l-20 28l291 199l-291 201l20 28z" />
    <glyph glyph-name="question" unicode="?" horiz-adv-x="401" 
d="M255 184l-53 -23q-35 35 -35 62q0 25 14 46.5t34 38.5t40.5 36t34.5 48t14 65q0 49 -36.5 81t-92.5 32q-27 0 -35 -5l-76 -127h-18l22 139q26 9 55 20t40 15t24.5 7t26.5 3q77 0 122.5 -38t45.5 -98q0 -40 -16 -71.5t-38.5 -52t-45 -37.5t-38.5 -37.5t-16 -43.5
q0 -13 4.5 -24t12.5 -22t10 -14zM158 34q0 14 18 31.5t31 17.5t34 -16t21 -30t-19.5 -30.5t-31.5 -16.5q-14 0 -33.5 15t-19.5 29z" />
    <glyph glyph-name="at" unicode="@" horiz-adv-x="834" 
d="M378 -151q-37 0 -79.5 13.5t-86.5 42.5t-79 70t-57.5 101.5t-22.5 130.5q0 106 35.5 194.5t94 144.5t132.5 87t153 31q136 0 230.5 -82.5t94.5 -218.5q0 -210 -284 -316l-10 134v11q-78 -138 -137 -138q-82 0 -82 164q0 114 53 182.5t135 68.5q53 0 86 -18v-352
q179 86 179 235q0 120 -81.5 196t-205.5 76q-151 0 -242.5 -89t-91.5 -259q0 -90 29.5 -160.5t78 -111.5t104.5 -61.5t115 -20.5q83 0 189 42l8 -22q-88 -47 -142.5 -61t-115.5 -14zM389 107q17 0 41 21t46.5 74t22.5 123v80q-33 10 -77 10q-48 0 -65 -29.5t-17 -128.5
q0 -81 11.5 -115.5t37.5 -34.5z" />
    <glyph glyph-name="A" unicode="A" horiz-adv-x="636" 
d="M412 275l-96 250l-102 -250h198zM196 15v-15h-193v15l73 43l229 546l40 23l224 -569l64 -43v-15h-221v15l84 43l-71 183h-225l-75 -184z" />
    <glyph glyph-name="B" unicode="B" horiz-adv-x="556" 
d="M188 -1v1h-138v15l74 43v496l-74 44v14h219q202 0 202 -137q0 -97 -112 -144q71 -13 108.5 -51.5t37.5 -91.5q0 -87 -69.5 -137.5t-170.5 -50.5h1zM271 332q66 0 93.5 26t27.5 82q0 138 -152 138q-11 0 -25.5 -0.5t-18.5 -0.5v-235q30 -10 75 -10zM284 32q78 0 110.5 29
t32.5 100q0 65 -45 103t-122 38q-33 0 -64 -4v-256q50 -10 88 -10z" />
    <glyph glyph-name="C" unicode="C" horiz-adv-x="567" 
d="M494 142l24 -1l-22 -118q-86 -33 -181 -33q-122 0 -193 82.5t-71 221.5q0 148 88 238t212 90q99 0 146 -29l-22 -124h-23l-52 96q-29 9 -92 9q-84 0 -137 -58.5t-52 -192.5q-1 -135 62 -215t166 -80q35 0 61 6z" />
    <glyph glyph-name="D" unicode="D" horiz-adv-x="657" 
d="M329 39q101 0 154 59t53 197q0 73 -22 130t-58.5 89t-78.5 48t-86 16h-95v-521q77 -18 133 -18zM50 0v15l74 43v496l-74 44v14h278q278 0 278 -284q0 -162 -85.5 -245t-226.5 -83h-244z" />
    <glyph glyph-name="E" unicode="E" horiz-adv-x="522" 
d="M50 0v15l74 43v496l-74 44v14h404l-21 -122h-25l-50 88h-162v-244h57l131 8l-9 -49l-120 13h-59v-272h169l80 107h24l-27 -141h-392z" />
    <glyph glyph-name="F" unicode="F" horiz-adv-x="480" 
d="M298 14v-14h-245v15l74 43v496l-74 44v14h404l-21 -122h-25l-50 88h-162v-255h57l131 9l-9 -49l-120 13h-59v-238z" />
    <glyph glyph-name="G" unicode="G" horiz-adv-x="601" 
d="M506 216v-194q-84 -32 -182 -32q-133 0 -203 81.5t-70 222.5q0 148 89 238t208 90q95 0 161 -30l-21 -122h-23l-52 94q-30 10 -102 10q-192 0 -192 -250q0 -132 65.5 -214t174.5 -82q52 0 81 11v177l-73 44v14h203v-15z" />
    <glyph glyph-name="H" unicode="H" horiz-adv-x="712" 
d="M272 14v-14h-222v15l74 43v496l-74 44v14h222v-15l-76 -43v-221h320v221l-76 44v14h222v-15l-74 -43v-496l74 -44v-14h-222v15l76 43v245h-320v-245z" />
    <glyph glyph-name="I" unicode="I" horiz-adv-x="320" 
d="M196 554v-496l74 -44v-14h-220v15l74 43v496l-74 44v14h220v-15z" />
    <glyph glyph-name="J" unicode="J" horiz-adv-x="379" 
d="M56 83l66 -66q70 20 70 101v436l-89 44v14h234v-15l-74 -43v-406q0 -75 -51.5 -116.5t-123.5 -41.5q-39 0 -68 11l14 82h22z" />
    <glyph glyph-name="K" unicode="K" horiz-adv-x="612" 
d="M196 554v-496l74 -44v-14h-220v15l74 43v496l-74 44v14h220v-15zM614 15v-15h-130l-278 327l257 230l-67 40v15h187v-15l-73 -43l-226 -208l254 -288z" />
    <glyph glyph-name="L" unicode="L" horiz-adv-x="522" 
d="M50 0v15l74 43v496l-74 44v14h245v-15l-99 -43v-520h198l83 115h24l-29 -149h-422z" />
    <glyph glyph-name="M" unicode="M" horiz-adv-x="857" 
d="M217 14v-14h-190v15l74 43l36 496l-74 44v14h151l204 -487l218 487h155v-15l-74 -43l30 -496l74 -44v-14h-220v15l74 43l-28 469l-221 -482l-41 -23l-210 507l-32 -471z" />
    <glyph glyph-name="N" unicode="N" horiz-adv-x="686" 
d="M233 14v-14h-185v15l74 43v496l-74 44v14h133l310 -411l32 -60v413l-69 44v14h184v-15l-74 -43v-551h-27l-349 473l-24 42v-460z" />
    <glyph glyph-name="O" unicode="O" horiz-adv-x="656" 
d="M605 318q0 -145 -86.5 -236.5t-205.5 -91.5q-114 0 -188 79.5t-74 225.5q0 145 87 236t211 91q118 0 187 -81.5t69 -222.5zM539 295q0 133 -67.5 204.5t-160.5 71.5q-101 0 -147 -56.5t-46 -196.5q0 -132 68 -204.5t159 -72.5q102 0 148 56.5t46 197.5z" />
    <glyph glyph-name="P" unicode="P" horiz-adv-x="506" 
d="M295 0h-245v15l74 43v496l-74 44v14h236q92 0 144 -41.5t52 -118.5q0 -84 -72.5 -136t-184.5 -52q-21 0 -29 -1v-205l99 -44v-14zM247 300q79 0 117 31.5t38 99.5q0 71 -44 110t-112 39h-50v-276q23 -4 51 -4z" />
    <glyph glyph-name="Q" unicode="Q" horiz-adv-x="656" 
d="M605 318q0 -145 -86.5 -236.5t-205.5 -91.5q-114 0 -188 79.5t-74 225.5q0 145 87 236t211 91q118 0 187 -81.5t69 -222.5zM539 295q0 133 -67.5 204.5t-160.5 71.5q-101 0 -147 -56.5t-46 -196.5q0 -132 68 -204.5t159 -72.5q102 0 148 56.5t46 197.5zM275 -47
q31 0 137 -32t127 -32q50 0 103 31l3 -15q-47 -46 -73.5 -62.5t-56.5 -16.5q-34 0 -140.5 40.5t-132.5 39.5q-21 -1 -32 -8.5t-50 -48.5h-11l-16 49q108 55 142 55z" />
    <glyph glyph-name="R" unicode="R" horiz-adv-x="579" 
d="M256 315q76 0 108 26t32 91q0 70 -40.5 108t-112.5 38h-47v-257q28 -6 60 -6zM295 14v-14h-245v15l74 43v496l-74 44v14h238q87 0 137.5 -39t50.5 -105q0 -106 -122 -160l166 -256l64 -38v-14h-124l-172 287l3 2q-29 -6 -56 -6h-39v-225z" />
    <glyph glyph-name="S" unicode="S" horiz-adv-x="502" 
d="M262 282l-55 22q-64 27 -95 63.5t-31 89.5q0 71 58.5 118t156.5 47q81 0 140 -26l-21 -123h-25l-44 93q-46 17 -105 17q-48 0 -74.5 -24t-26.5 -69q0 -51 28 -81.5t81 -53.5l55 -23q77 -31 106 -70t29 -91q0 -77 -63 -129t-157 -52q-91 0 -157 25l24 127h25l32 -95
q37 -16 121 -18q47 0 80.5 27.5t33.5 81.5q0 48 -26.5 82.5t-89.5 61.5z" />
    <glyph glyph-name="T" unicode="T" horiz-adv-x="555" 
d="M390 14v-14h-240v15l84 43v520h-125l-73 -94h-24l21 128h510l-22 -128h-24l-54 94h-137v-520z" />
    <glyph glyph-name="U" unicode="U" horiz-adv-x="660" 
d="M108 197v357l-74 44v14h220v-15l-74 -43v-335q0 -171 179 -171q69 0 110 38.5t41 111.5v356l-74 44v14h190v-15l-74 -43v-331q0 -103 -64 -168t-170 -65q-100 0 -155 53t-55 154z" />
    <glyph glyph-name="V" unicode="V" horiz-adv-x="597" 
d="M317 8l-41 -23l-211 569l-63 43v15h221v-15l-84 -43l170 -459l177 459l-72 43v15h193v-15l-73 -43z" />
    <glyph glyph-name="W" unicode="W" horiz-adv-x="942" 
d="M648 -15l-182 490l-178 -467l-41 -23l-182 569h-2l-65 43v15h219v-15l-82 -42l144 -462l190 519h14l194 -521l144 464l-71 42v15h193v-15l-73 -43h-1l-180 -546z" />
    <glyph glyph-name="X" unicode="X" horiz-adv-x="617" 
d="M210 0h-204v15l76 40l187 262l-168 237l-73 43v15h248v-15l-89 -43l134 -191l132 192l-71 42v15h204v-15l-75 -39l-165 -230l192 -270l73 -43v-15h-248v15l89 43l-158 224l-155 -225l71 -42v-15z" />
    <glyph glyph-name="Y" unicode="Y" horiz-adv-x="613" 
d="M416 0h-219v15l74 43v198l-192 298h-3l-64 43v15h227v-15l-81 -43l159 -251l154 251l-72 43v15h196v-15l-72 -43l-181 -292v-204l74 -44v-14z" />
    <glyph glyph-name="Z" unicode="Z" horiz-adv-x="560" 
d="M497 0h-460v17l371 564h-252l-82 -114h-24l24 145h427v-19l-374 -562h290l87 124h24z" />
    <glyph glyph-name="bracketleft" unicode="[" horiz-adv-x="292" 
d="M68 -110v803h180v-31h-143v-741h143v-31h-180z" />
    <glyph glyph-name="backslash" unicode="\" horiz-adv-x="300" 
d="M52 693l227 -803h-34l-228 803h35z" />
    <glyph glyph-name="bracketright" unicode="]" horiz-adv-x="292" 
d="M44 -110v31h143v741h-143v31h180v-803h-180z" />
    <glyph glyph-name="asciicircum" unicode="^" 
d="M273 624l191 -391h-44l-181 284l-160 -284h-44l191 391h47z" />
    <glyph glyph-name="underscore" unicode="_" horiz-adv-x="440" 
d="M440 -110v-30h-440v30h440z" />
    <glyph glyph-name="grave" unicode="`" 
d="M246 679l79 -168h-23l-128 142z" />
    <glyph glyph-name="a" unicode="a" horiz-adv-x="447" 
d="M320 -10h-31v52q-6 -3 -20 -12t-21 -12.5t-19.5 -10t-21.5 -9.5t-21 -5.5t-24 -2.5q-51 0 -87 30t-36 75q0 59 70 101.5t180 44.5v90q0 37 -27.5 66t-78.5 29q-8 0 -14 -2l-79 -83h-23l-6 70q51 22 69 29t44 13.5t52 6.5q51 0 88 -27.5t37 -73.5v-297l71 -20v-14zM187 40
q43 0 102 30v122q-36 6 -89 6q-44 0 -72.5 -21t-28.5 -57q0 -40 26 -60t62 -20z" />
    <glyph glyph-name="b" unicode="b" horiz-adv-x="529" 
d="M269 42q145 0 145 165q0 100 -45.5 148t-108.5 48q-47 0 -101 -26v-316q41 -19 110 -19zM230 -10q-58 0 -90 15l-28 -32l-19 10v638l-71 22v13l115 37h31l-9 -87v-202q109 56 141 56q71 0 123.5 -56.5t52.5 -164.5q0 -109 -73.5 -179t-172.5 -70z" />
    <glyph glyph-name="c" unicode="c" horiz-adv-x="435" 
d="M342 353l-60 62q-13 3 -45 3q-64 0 -95 -38.5t-31 -124.5q0 -109 46 -159t123 -50q53 0 117 28l9 -22q-94 -62 -150 -62q-101 0 -152 59t-51 162q0 111 61 180t150 69q79 0 115 -18l-15 -89h-22z" />
    <glyph glyph-name="d" unicode="d" horiz-adv-x="531" 
d="M402 -10h-31v56q-109 -56 -142 -56q-71 0 -123.5 56.5t-52.5 164.5q0 109 73.5 179t172.5 70q36 0 72 -9v172l-71 20v13l114 37h31l-9 -87v-544l86 -20v-14zM269 47q48 0 102 26v315q-40 20 -111 20q-145 0 -145 -165q0 -100 45.5 -148t108.5 -48z" />
    <glyph glyph-name="e" unicode="e" horiz-adv-x="477" 
d="M227 421q-51 0 -74.5 -29t-28.5 -105h218q0 134 -115 134zM427 65q-109 -75 -168 -75q-93 0 -149.5 56t-56.5 177q0 97 58 167t145 70q159 0 159 -170q0 -32 -1 -37h-291v-12q0 -97 47.5 -145.5t125.5 -48.5q61 0 125 40z" />
    <glyph glyph-name="f" unicode="f" horiz-adv-x="320" 
d="M275 16v-16h-248v16l75 34v366h-61v34h61v22q0 116 57 172t133 56q38 0 66 -9l-11 -74h-21l-71 51q-87 0 -87 -175v-43h28l103 5l-9 -47l-94 8h-28v-366z" />
    <glyph glyph-name="g" unicode="g" horiz-adv-x="438" 
d="M292 301q0 63 -29 95.5t-82 32.5q-38 0 -57.5 -21.5t-19.5 -77.5q0 -63 29.5 -94t82.5 -31q37 0 56.5 20.5t19.5 75.5zM399 -21q0 -60 -72 -119t-165 -59q-70 0 -108.5 26t-38.5 65q0 32 32 64.5t119 83.5q-43 11 -59 25t-16 37q0 11 12.5 26t50.5 52q-49 9 -83.5 42
t-34.5 86q0 67 52.5 109t113.5 42q52 0 90 -22l140 44l-9 -80h-17l-99 26q54 -40 54 -111q0 -60 -54.5 -99.5t-121.5 -39.5h-6q-24 -45 -24 -56q0 -16 18.5 -25t67.5 -17l32 -9q74 -13 100 -33.5t26 -57.5zM202 -156q63 0 100.5 30.5t37.5 70.5q0 32 -29 50.5t-103 32.5
l-17 5q-53 -38 -79 -64t-26 -53q0 -30 29.5 -51t86.5 -21z" />
    <glyph glyph-name="h" unicode="h" horiz-adv-x="531" 
d="M244 16v-16h-221v16l75 34v573l-71 20v13l115 37h31l-9 -87v-205q3 2 10 6q85 48 122 52l13 1q57 0 95.5 -29t38.5 -85v-296l75 -34v-16h-173v16l32 34v264q0 37 -27.5 63t-69.5 26q-58 0 -116 -29v-324z" />
    <glyph glyph-name="i" unicode="i" horiz-adv-x="266" 
d="M88 593q0 13 16.5 31.5t27.5 18.5q12 0 30.5 -14.5t18.5 -27.5q0 -14 -16.5 -32t-27.5 -18q-13 0 -31 14.5t-18 27.5zM27 0v16l75 34v342l-73 14v15l108 39h31v-410l72 -34v-16h-213z" />
    <glyph glyph-name="j" unicode="j" horiz-adv-x="254" 
d="M81 593q0 13 16.5 31.5t27.5 18.5q12 0 30.5 -14.5t18.5 -27.5q0 -14 -16.5 -32t-27.5 -18q-13 0 -31 14.5t-18 27.5zM161 460v-450q0 -51 -9.5 -93t-30 -78.5t-58.5 -56.5t-90 -20q-21 0 -43 6l12 69h24l50 -47q24 4 39 14t27.5 48.5t12.5 105.5v434l-73 14v15l108 39
h31z" />
    <glyph glyph-name="k" unicode="k" horiz-adv-x="513" 
d="M233 16v-16h-213v16l75 34v573l-71 20v13l115 37h31l-9 -91v-380l193 175l-53 37v16h181v-16l-67 -37l-134 -114l172 -233l65 -34v-16h-119l-171 238l-67 -57v-131z" />
    <glyph glyph-name="l" unicode="l" horiz-adv-x="256" 
d="M161 602v-552l72 -34v-16h-213v16l75 34v573l-71 20v13l115 37h31z" />
    <glyph glyph-name="m" unicode="m" horiz-adv-x="792" 
d="M242 16v-16h-215v16l75 34v342l-73 14v15l108 39h31v-60q13 6 36 18t34 17.5t27 12.5t28 9.5t24 2.5q76 0 106 -61q7 3 21.5 10t21 10t18.5 8.5t18 8t16 7t16 6.5l13.5 4.5t13 3.5l11 2t10.5 1q48 0 84 -31t36 -83v-296l75 -34v-16h-167v16l26 34v270q0 34 -24.5 58.5
t-65.5 24.5t-114 -30q3 -12 3 -27v-296l74 -34v-16h-166v16l26 34v270q0 34 -23 58.5t-63 24.5q-44 0 -115 -29v-324z" />
    <glyph glyph-name="n" unicode="n" horiz-adv-x="535" 
d="M240 16v-16h-213v16l75 34v342l-73 14v15l108 39h31v-59q3 2 10 6q85 48 122 52l13 1q57 0 95.5 -29t38.5 -85v-296l75 -34v-16h-173v16l32 34v264q0 37 -27.5 63t-69.5 26q-58 0 -116 -29v-324z" />
    <glyph glyph-name="o" unicode="o" horiz-adv-x="526" 
d="M473 233q0 -111 -65 -177t-161 -66q-87 0 -140.5 62t-53.5 165q0 111 65.5 177t161.5 66q87 0 140 -62t53 -165zM405 199q0 99 -40 155.5t-111 56.5q-74 0 -103.5 -34t-29.5 -126q0 -98 40.5 -155.5t110.5 -57.5q75 0 104 34.5t29 126.5z" />
    <glyph glyph-name="p" unicode="p" horiz-adv-x="522" 
d="M262 42q145 0 145 165q0 100 -45.5 148t-108.5 48q-20 0 -51 -8.5t-50 -18.5v-315q41 -19 110 -19zM249 -204v-16h-238v16l75 40v556l-74 14v15l109 39h31v-56q109 56 141 56q71 0 123.5 -56.5t52.5 -164.5q0 -109 -73.5 -179t-172.5 -70q-41 0 -71 8v-162z" />
    <glyph glyph-name="q" unicode="q" horiz-adv-x="521" 
d="M508 -220h-233v16l95 40v210q-109 -56 -141 -56q-71 0 -123.5 56.5t-52.5 164.5q0 109 73.5 179t172.5 70q57 0 91 -15l31 32l15 -9v-632l72 -40v-16zM269 47q49 0 101 26v316q-41 19 -110 19q-145 0 -145 -165q0 -100 45.5 -148t108.5 -48z" />
    <glyph glyph-name="r" unicode="r" horiz-adv-x="355" 
d="M260 16v-16h-233v16l75 34v342l-73 14v15l108 39h31v-61q81 61 126 61q29 0 48 -10l-14 -84h-22l-73 35q-29 -4 -65 -27v-324z" />
    <glyph glyph-name="s" unicode="s" horiz-adv-x="402" 
d="M205 198l-51 21q-97 41 -97 120q0 49 50.5 85t117.5 36q70 0 124 -22l-15 -80h-22l-54 64q-26 6 -59 6q-81 0 -81 -68q0 -33 22.5 -53.5t63.5 -38.5l49 -20q53 -23 78.5 -50.5t25.5 -72.5q0 -57 -56.5 -96t-123.5 -39q-86 0 -135 20l16 84h26l50 -62q36 -9 57 -9
q50 0 75.5 18t25.5 63q0 33 -18.5 53.5t-68.5 40.5z" />
    <glyph glyph-name="t" unicode="t" horiz-adv-x="335" 
d="M334 36q-84 -46 -128 -46q-45 0 -81.5 29t-35.5 72l4 325h-73v15l115 96h24l-1 -77h51l108 5l-8 -47l-100 8h-51l-4 -285q-1 -41 25 -64.5t60 -23.5q43 0 90 14z" />
    <glyph glyph-name="u" unicode="u" horiz-adv-x="534" 
d="M402 -10h-31v59q-58 -32 -91.5 -45.5t-64.5 -13.5q-53 0 -88 30.5t-35 83.5v288l-74 19v13l118 36h31l-10 -70v-253q0 -39 25.5 -64.5t68.5 -25.5q49 0 120 29v316l-76 19v13l120 36h31l-10 -70v-328l86 -20v-14z" />
    <glyph glyph-name="v" unicode="v" horiz-adv-x="482" 
d="M229 -10l-173 409l-48 35v16h186v-16l-62 -37l132 -308l112 308h-1l-50 37v16h158v-16l-58 -37h-1l-162 -383z" />
    <glyph glyph-name="w" unicode="w" horiz-adv-x="724" 
d="M519 14l-33 -24l-124 320l-130 -296l-33 -24l-145 410l-46 34v16h186v-16l-65 -37l106 -306l138 359h5l142 -357l97 304h-3l-53 37v16h162v-16l-58 -37l-130 -341l1 -3h-2z" />
    <glyph glyph-name="x" unicode="x" horiz-adv-x="462" 
d="M153 16v-16h-144v16l53 35l135 173l-131 179l-46 31v16h180v-16l-52 -30l95 -135l93 133l-46 32v16h146v-16l-53 -35l-121 -154l145 -198l46 -31v-16h-179v16l52 30l-109 153l-109 -151z" />
    <glyph glyph-name="y" unicode="y" horiz-adv-x="484" 
d="M63 -238q-26 0 -53 10l14 74h17l54 -41q42 14 74.5 60.5t64.5 157.5l-18 3l-158 373l-49 35v16h186v-16l-61 -37l132 -304l111 304l-51 37v16h159v-16l-59 -37h-1l-158 -375q-66 -260 -204 -260z" />
    <glyph glyph-name="z" unicode="z" horiz-adv-x="434" 
d="M392 0h-290l-2 -3l-4 3h-61v18l264 398h-173l-68 -89h-16l21 123h327v-20l-265 -396h199l75 98h16z" />
    <glyph glyph-name="braceleft" unicode="{" horiz-adv-x="292" 
d="M118 372q0 32 -7 105t-7 104q0 119 129 119v-28q-48 0 -70 -21t-22 -49q0 -33 8 -108.5t8 -101.5q0 -42 -14 -65.5t-53 -33.5v-3q39 -10 53 -33.5t14 -65.5q0 -26 -8 -101.5t-8 -108.5q0 -28 22 -49t70 -21v-28q-129 0 -129 119q0 31 7 104t7 105q0 15 -1 22t-8 20
t-26 19.5t-50 8.5v21q31 2 50 8.5t26 19.5t8 20t1 22z" />
    <glyph glyph-name="bar" unicode="|" horiz-adv-x="262" 
d="M113 -220v913h36v-913h-36z" />
    <glyph glyph-name="braceright" unicode="}" horiz-adv-x="292" 
d="M174 211q0 -32 7 -105t7 -104q0 -119 -129 -119v28q48 0 70 21t22 49q0 33 -8 108.5t-8 101.5q0 42 14 65.5t53 33.5v3q-39 10 -53 33.5t-14 65.5q0 26 8 101.5t8 108.5q0 28 -22 49t-70 21v28q129 0 129 -119q0 -31 -7 -104t-7 -105q0 -15 1 -22t8 -20t26 -19.5t50 -8.5
v-21q-31 -2 -50 -8.5t-26 -19.5t-8 -20t-1 -22z" />
    <glyph glyph-name="asciitilde" unicode="~" 
d="M344 299q20 0 38 9.5t28 18.5t30 31l11 -13q-29 -43 -43 -60.5t-33.5 -31t-43.5 -13.5q-28 0 -88.5 17.5t-87.5 17.5q-50 0 -105 -51l-8 13q49 59 72 77.5t58 18.5q30 0 91.5 -17t80.5 -17z" />
    <glyph glyph-name="exclamdown" unicode="&#xa1;" horiz-adv-x="296" 
d="M200 404q0 -14 -18.5 -31.5t-31.5 -17.5t-33.5 16t-20.5 30t20 30.5t32 16.5q14 0 33 -15t19 -29zM126 263l37 21q-1 -177 24 -459l-87 -31z" />
    <glyph glyph-name="cent" unicode="&#xa2;" horiz-adv-x="509" 
d="M454 131q-83 -50 -139 -59l12 -132h-47l9 130q-101 2 -159 61.5t-58 159.5q0 106 64 174t151 74l-10 126h51l-14 -125q84 -2 114 -20l-15 -87h-21l-54 55q-21 7 -64 7q-131 0 -131 -156q0 -105 53 -155.5t127 -50.5q76 0 124 21z" />
    <glyph glyph-name="sterling" unicode="&#xa3;" horiz-adv-x="524" 
d="M38 0l-13 28q66 12 93.5 53t27.5 90q0 23 -10 113h-91v34h87q-6 70 -6 109q0 35 8 66.5t26.5 62t56 48.5t90.5 18q75 0 132 -25l-20 -119h-28l-37 91q-31 17 -90 17q-76 0 -76 -110q0 -28 9 -158h72l108 5l-8 -47l-100 8h-69q6 -84 6 -107q0 -62 -63 -116h255l63 89h26
l-28 -150h-421z" />
    <glyph glyph-name="currency" unicode="&#xa4;" horiz-adv-x="509" 
d="M411 -1l-62 90q-49 -30 -108 -30q-50 0 -90 19l-54 -79l-42 26l67 72q-64 52 -64 163q0 102 71 163l-74 79l42 26l59 -86q48 28 105 28q56 0 96 -22l54 80l43 -26l-68 -74q59 -51 59 -156q0 -102 -69 -163l78 -84zM97 265q0 -75 42.5 -117.5t111.5 -42.5q154 0 154 160
q0 74 -42.5 116.5t-111.5 42.5q-74 0 -114 -36.5t-40 -122.5z" />
    <glyph glyph-name="yen" unicode="&#xa5;" horiz-adv-x="509" 
d="M371 14v-14h-220v15l74 43v83h-171v16l15 25h156v62h-171v16l15 24h136l-168 270h-2l-64 43v15h228v-15l-83 -43l155 -252l150 252h-1l-72 43v15h197v-15l-72 -42l-164 -271h154v-16l-14 -24h-152v-62h166v-16l-14 -25h-152v-83z" />
    <glyph glyph-name="brokenbar" unicode="&#xa6;" horiz-adv-x="262" 
d="M149 325h-36v368h36v-368zM149 -220h-36v368h36v-368z" />
    <glyph glyph-name="section" unicode="&#xa7;" horiz-adv-x="479" 
d="M249 204l15 -7q114 24 114 105q0 41 -31 65t-110 57l-15 7q-114 -27 -114 -106q0 -39 31.5 -64t109.5 -57zM211 -73q-75 0 -123 21l20 103h26l21 -69q50 -19 107 -19q75 0 75 78q0 40 -23 61.5t-66 39.5l-38 16q-95 39 -130 69.5t-35 86.5q0 45 39 81t101 53
q-50 23 -74.5 50.5t-24.5 68.5q0 56 51.5 95t137.5 39q75 0 123 -21l-20 -103h-26l-21 69q-52 19 -107 19q-75 0 -75 -78q0 -40 23 -61.5t66 -39.5l38 -16q95 -39 130 -69.5t35 -86.5q0 -45 -38.5 -81t-100.5 -53q98 -43 98 -118q0 -58 -50 -96.5t-139 -38.5z" />
    <glyph glyph-name="dieresis" unicode="&#xa8;" 
d="M297 590q0 12 13 27t24 15q10 0 25.5 -12.5t15.5 -23.5q0 -12 -14 -27t-24 -15t-25 12.5t-15 23.5zM127 590q0 12 13.5 27t23.5 15q11 0 26 -12.5t15 -23.5q0 -12 -13.5 -27t-23.5 -15t-25.5 12.5t-15.5 23.5z" />
    <glyph glyph-name="copyright" unicode="&#xa9;" horiz-adv-x="566" 
d="M33 239q0 114 73 182t177 68q114 0 182 -71t68 -179q0 -113 -73 -181t-177 -68q-114 0 -182 70.5t-68 178.5zM58 239q0 -104 63.5 -166t160.5 -62q103 0 163.5 64.5t60.5 163.5q0 104 -63 165.5t-161 61.5q-103 0 -163.5 -64t-60.5 -163zM370 170l13 -1l-12 -60
q-44 -17 -93 -17q-63 0 -100 40t-37 106q0 73 45 115.5t110 42.5q51 0 76 -14l-10 -61h-13l-27 48q-10 4 -47 4q-46 0 -69.5 -27.5t-23.5 -92.5q0 -64 30.5 -101.5t81.5 -37.5q28 0 31 1z" />
    <glyph glyph-name="ordfeminine" unicode="&#xaa;" horiz-adv-x="250" 
d="M168 307h-16v29q-44 -29 -73 -29q-26 0 -45 16t-19 40q0 32 38 54.5t99 22.5v36q0 49 -50 49q-8 0 -10 -1l-46 -49h-12l-5 50q65 23 113 23q29 0 48 -16t19 -46v-141l38 -9v-11zM112 342q19 0 40 11v59q-22 4 -43 4q-41 0 -41 -34q0 -18 12.5 -29t31.5 -11z" />
    <glyph glyph-name="guillemotleft" unicode="&#xab;" horiz-adv-x="469" 
d="M292 252l104 -199l-13 -11l-169 210l169 210l13 -11zM117 252l104 -199l-13 -11l-169 210l169 210l13 -11z" />
    <glyph glyph-name="logicalnot" unicode="&#xac;" horiz-adv-x="509" 
d="M466 171h-30v154h-389v30h419v-184z" />
    <glyph glyph-name="registered" unicode="&#xae;" horiz-adv-x="566" 
d="M33 514q0 114 73 182t177 68q114 0 182 -71t68 -179q0 -112 -73 -180.5t-177 -68.5q-114 0 -182 70.5t-68 178.5zM58 514q0 -104 63.5 -166t160.5 -62q103 0 163.5 64.5t60.5 163.5q0 104 -63 166t-161 62q-103 0 -163.5 -64.5t-60.5 -163.5zM270 523q37 0 52.5 13.5
t15.5 44.5q0 33 -20.5 51t-56.5 18h-22v-124q27 -3 31 -3zM289 381v-7h-128v8l37 19v237l-37 22v7h123q45 0 71 -19t26 -52q0 -51 -62 -77l85 -119l31 -19v-7h-67l-85 135q-16 -2 -24 -2h-20v-106z" />
    <glyph glyph-name="macron" unicode="&#xaf;" 
d="M357 595v-15l-14 -21h-199v15l14 21h199z" />
    <glyph glyph-name="degree" unicode="&#xb0;" horiz-adv-x="342" 
d="M40 567q0 55 38.5 93.5t92.5 38.5q57 0 94 -35t37 -97q0 -54 -39 -92t-93 -38q-56 0 -93 34t-37 96zM81 565q0 -42 25 -67.5t64 -25.5q40 0 65.5 26t25.5 67q0 45 -26 72.5t-65 27.5t-64 -27.5t-25 -72.5z" />
    <glyph glyph-name="plusminus" unicode="&#xb1;" horiz-adv-x="509" 
d="M451 295h-179v-184h-35v184h-179v28h179v179h35v-179h179v-28zM426 39v-28h-343v28h343z" />
    <glyph glyph-name="twosuperior" unicode="&#xb2;" horiz-adv-x="304" 
d="M261 374h-246v20q99 91 131.5 131.5t32.5 70.5q0 22 -19 39.5t-48 17.5h-24l-44 -64h-14l11 77q78 25 112 25q40 0 70 -24.5t30 -59.5q0 -12 -2.5 -21.5t-10 -21t-13.5 -19.5t-22.5 -23t-26 -23t-35 -29.5t-40.5 -33.5h127l32 42h18z" />
    <glyph glyph-name="threesuperior" unicode="&#xb3;" horiz-adv-x="304" 
d="M128 365q-57 0 -88 9l2 4l13 67h21l31 -50h15q49 0 64.5 9t15.5 37q0 32 -24 53t-58 21q-16 0 -26 -1l11 35q12 -2 28 -2q33 0 45 9.5t12 34.5q0 26 -19 44t-48 18q-3 0 -8.5 -0.5t-7.5 -0.5l-46 -55h-16l11 69q80 25 100 25q52 0 79.5 -20t27.5 -54q0 -54 -72 -76
q41 -5 62 -26t21 -48q0 -42 -43 -72t-103 -30z" />
    <glyph glyph-name="acute" unicode="&#xb4;" 
d="M174 511l78 168l72 -26l-127 -142h-23z" />
    <glyph glyph-name="mu" unicode="&#xb5;" horiz-adv-x="529" 
d="M121 -218q-29 -12 -36 -12h-14l12 364v301l65 26v-292q0 -67 23 -93t65 -26q61 0 123 98v1v284l66 23v-310q0 -17 4 -51q9 -42 52 -42q8 0 25.5 2t23.5 2v-14q-21 -29 -40 -41.5t-50 -12.5q-32 0 -52.5 26t-23.5 63q0 2 -0.5 6.5t-0.5 6.5q-96 -105 -144 -105
q-50 0 -85 49q2 -162 18 -239z" />
    <glyph glyph-name="paragraph" unicode="&#xb6;" horiz-adv-x="583" 
d="M382 583h-78v-345h-66q-95 0 -149 52t-54 140q0 85 52 133.5t153 48.5h291v-15l-74 -43v-531q0 -75 -55.5 -117t-131.5 -42q-34 0 -64 10l16 85h23l54 -68q83 23 83 102v590z" />
    <glyph glyph-name="periodcentered" unicode="&#xb7;" horiz-adv-x="243" 
d="M71 220q0 15 18 35t30 20q13 0 34 -16.5t21 -30.5q0 -15 -18.5 -34t-31.5 -19t-33 15.5t-20 29.5z" />
    <glyph glyph-name="cedilla" unicode="&#xb8;" 
d="M198 -91l33 91h21l-17 -57q47 -13 69 -30t22 -46q0 -32 -42.5 -51t-109.5 -21l-7 28q34 0 50 0.5t31.5 3.5t21 9t5.5 17q0 19 -15.5 32t-61.5 24z" />
    <glyph glyph-name="onesuperior" unicode="&#xb9;" horiz-adv-x="304" 
d="M202 684v-280l61 -18v-12h-199v12l76 18v249l-82 -43l-13 44l114 30h43z" />
    <glyph glyph-name="ordmasculine" unicode="&#xba;" horiz-adv-x="279" 
d="M259 432q0 -57 -37.5 -91t-95.5 -34q-50 0 -78 30.5t-28 86.5q0 57 36.5 90.5t93.5 33.5q51 0 80 -30.5t29 -85.5zM197 420q0 102 -66 102q-28 0 -39.5 -18t-11.5 -68q0 -49 17 -75t47 -26q31 0 42 17t11 68z" />
    <glyph glyph-name="guillemotright" unicode="&#xbb;" horiz-adv-x="474" 
d="M357 252l-104 199l13 11l169 -210l-169 -210l-13 11zM177 252l-104 199l13 11l169 -210l-169 -210l-13 11z" />
    <glyph glyph-name="onequarter" unicode="&#xbc;" horiz-adv-x="658" 
d="M215 684v-280l61 -18v-12h-199v12l76 18v249l-82 -43l-13 44l114 30h43zM103 0l408 629l38 -17l-408 -629zM489 96v148l-113 -148h113zM591 57h-39v-57h-63v57h-163v23l188 238h38v-222h51z" />
    <glyph glyph-name="onehalf" unicode="&#xbd;" horiz-adv-x="658" 
d="M205 684v-280l61 -18v-12h-199v12l76 18v249l-82 -43l-13 44l114 30h43zM93 0l408 629l38 -17l-408 -629zM594 0h-246v20q99 91 131.5 131.5t32.5 70.5q0 22 -19 39.5t-48 17.5h-9h-10h-5l-44 -64h-14l11 77q78 25 112 25q40 0 70 -24.5t30 -59.5q0 -12 -2.5 -21.5
t-10 -21t-13.5 -19.5t-22.5 -23t-26 -23t-35 -29.5t-40.5 -33.5h127l32 42h18z" />
    <glyph glyph-name="threequarters" unicode="&#xbe;" horiz-adv-x="658" 
d="M123 0l408 629l38 -17l-408 -629zM158 365q-57 0 -88 9l2 4l13 67h21l31 -50h15q49 0 64.5 9t15.5 37q0 32 -24 53t-58 21q-16 0 -26 -1l11 35q12 -2 28 -2q33 0 45 9.5t12 34.5q0 26 -19 44t-48 18q-3 0 -8.5 -0.5t-7.5 -0.5l-46 -55h-16l11 69q80 25 100 25
q52 0 79.5 -20t27.5 -54q0 -54 -72 -76q41 -5 62 -26t21 -48q0 -42 -43 -72t-103 -30zM504 96v148l-113 -148h113zM606 57h-39v-57h-63v57h-163v23l188 238h38v-222h51z" />
    <glyph glyph-name="questiondown" unicode="&#xbf;" horiz-adv-x="401" 
d="M239 416q0 -14 -18 -31.5t-31 -17.5t-34 16t-21 30t19.5 30.5t31.5 16.5q14 0 33.5 -15t19.5 -29zM142 266l53 23q35 -35 35 -62q0 -25 -14 -46.5t-34 -38.5t-40.5 -36t-34.5 -48t-14 -65q0 -49 36.5 -81t92.5 -32q27 0 35 5l76 127h18l-22 -139q-26 -9 -55 -20t-40 -15
t-24.5 -7t-26.5 -3q-77 0 -122.5 38t-45.5 98q0 40 16 71.5t38.5 52t45 37.5t38.5 37.5t16 43.5q0 13 -4.5 24t-12.5 22t-10 14z" />
    <glyph glyph-name="Agrave" unicode="&#xc0;" horiz-adv-x="636" 
d="M300 829l79 -168h-23l-128 142zM412 275l-96 250l-102 -250h198zM196 15v-15h-193v15l73 43l229 546l40 23l224 -569l64 -43v-15h-221v15l84 43l-71 183h-225l-75 -184z" />
    <glyph glyph-name="Aacute" unicode="&#xc1;" horiz-adv-x="636" 
d="M303 661l79 168l72 -26l-128 -142h-23zM412 275l-96 250l-102 -250h198zM196 15v-15h-193v15l73 43l229 546l40 23l224 -569l64 -43v-15h-221v15l84 43l-71 183h-225l-75 -184z" />
    <glyph glyph-name="Acircumflex" unicode="&#xc2;" horiz-adv-x="636" 
d="M345 829l109 -168h-23l-103 98l-102 -98h-23l109 168h33zM412 275l-96 250l-102 -250h198zM196 15v-15h-193v15l73 43l229 546l40 23l224 -569l64 -43v-15h-221v15l84 43l-71 183h-225l-75 -184z" />
    <glyph glyph-name="Atilde" unicode="&#xc3;" horiz-adv-x="636" 
d="M397 757q15 0 28 8t20 15.5t22 25.5l8 -11q-21 -36 -31 -50.5t-24.5 -26t-31.5 -11.5q-21 0 -65 15t-63 15q-36 0 -76 -43l-6 11q36 50 52.5 65t41.5 15q22 0 66.5 -14t58.5 -14zM412 275l-96 250l-102 -250h198zM196 15v-15h-193v15l73 43l229 546l40 23l224 -569
l64 -43v-15h-221v15l84 43l-71 183h-225l-75 -184z" />
    <glyph glyph-name="Adieresis" unicode="&#xc4;" horiz-adv-x="636" 
d="M375 738q0 12 13 27t24 15q10 0 25.5 -12.5t15.5 -23.5q0 -12 -14 -26.5t-24 -14.5t-25 12t-15 23zM205 738q0 12 13.5 27t23.5 15q11 0 26 -12.5t15 -23.5q0 -12 -13.5 -26.5t-23.5 -14.5t-25.5 12t-15.5 23zM412 275l-96 250l-102 -250h198zM196 15v-15h-193v15l73 43
l229 546l40 23l224 -569l64 -43v-15h-221v15l84 43l-71 183h-225l-75 -184z" />
    <glyph glyph-name="Aring" unicode="&#xc5;" horiz-adv-x="636" 
d="M248 758q0 34 23.5 58t57.5 24q35 0 57.5 -21.5t22.5 -60.5q0 -34 -23.5 -58t-56.5 -24q-36 0 -58.5 21.5t-22.5 60.5zM276 758q0 -25 14 -40.5t37 -15.5t38 15.5t15 40.5q0 27 -14.5 42.5t-38.5 15.5q-23 0 -37 -15.5t-14 -42.5zM412 275l-96 250l-102 -250h198zM196 15
v-15h-193v15l73 43l229 546l40 23l224 -569l64 -43v-15h-221v15l84 43l-71 183h-225l-75 -184z" />
    <glyph glyph-name="AE" unicode="&#xc6;" horiz-adv-x="809" 
d="M411 325v248l-139 -248h139zM200 15v-15h-194v15l64 40l296 524l-56 19v14h431l-21 -122h-24l-50 88h-163v-259h57l131 8l-9 -49l-120 13h-59v-257h169l80 107h24l-27 -141h-399v15l81 43v234h-158l-131 -234h1z" />
    <glyph glyph-name="Ccedilla" unicode="&#xc7;" horiz-adv-x="567" 
d="M388 -133q0 -32 -42.5 -51t-109.5 -21l-7 28q34 0 50 0.5t31.5 3.5t21 9t5.5 17q0 18 -15.5 30.5t-61.5 23.5l30 84q-111 9 -175 90.5t-64 212.5q0 148 88 238t212 90q99 0 146 -29l-22 -124h-23l-52 96q-29 9 -92 9q-84 0 -137 -58.5t-52 -192.5q-1 -135 62 -215
t166 -80q35 0 61 6l86 108l24 -1l-22 -118q-86 -33 -181 -33h-4l-15 -49q48 -13 70 -29t22 -45z" />
    <glyph glyph-name="Egrave" unicode="&#xc8;" horiz-adv-x="522" 
d="M257 829l79 -168h-23l-128 142zM50 0v15l74 43v496l-74 44v14h404l-21 -122h-25l-50 88h-162v-244h57l131 8l-9 -49l-120 13h-59v-272h169l80 107h24l-27 -141h-392z" />
    <glyph glyph-name="Eacute" unicode="&#xc9;" horiz-adv-x="522" 
d="M195 661l79 168l72 -26l-128 -142h-23zM50 0v15l74 43v496l-74 44v14h404l-21 -122h-25l-50 88h-162v-244h57l131 8l-9 -49l-120 13h-59v-272h169l80 107h24l-27 -141h-392z" />
    <glyph glyph-name="Ecircumflex" unicode="&#xca;" horiz-adv-x="522" 
d="M297 829l109 -168h-23l-103 98l-102 -98h-23l109 168h33zM50 0v15l74 43v496l-74 44v14h404l-21 -122h-25l-50 88h-162v-244h57l131 8l-9 -49l-120 13h-59v-272h169l80 107h24l-27 -141h-392z" />
    <glyph glyph-name="Edieresis" unicode="&#xcb;" horiz-adv-x="522" 
d="M327 738q0 12 13 27t24 15q10 0 25.5 -12.5t15.5 -23.5q0 -12 -14 -26.5t-24 -14.5t-25 12t-15 23zM157 738q0 12 13.5 27t23.5 15q11 0 26 -12.5t15 -23.5q0 -12 -13.5 -26.5t-23.5 -14.5t-25.5 12t-15.5 23zM50 0v15l74 43v496l-74 44v14h404l-21 -122h-25l-50 88h-162
v-244h57l131 8l-9 -49l-120 13h-59v-272h169l80 107h24l-27 -141h-392z" />
    <glyph glyph-name="Igrave" unicode="&#xcc;" horiz-adv-x="320" 
d="M127 829l79 -168h-23l-128 142zM196 554v-496l74 -44v-14h-220v15l74 43v496l-74 44v14h220v-15z" />
    <glyph glyph-name="Iacute" unicode="&#xcd;" horiz-adv-x="320" 
d="M110 661l79 168l72 -26l-128 -142h-23zM196 554v-496l74 -44v-14h-220v15l74 43v496l-74 44v14h220v-15z" />
    <glyph glyph-name="Icircumflex" unicode="&#xce;" horiz-adv-x="320" 
d="M177 829l109 -168h-23l-103 98l-102 -98h-23l109 168h33zM196 554v-496l74 -44v-14h-220v15l74 43v496l-74 44v14h220v-15z" />
    <glyph glyph-name="Idieresis" unicode="&#xcf;" horiz-adv-x="320" 
d="M207 738q0 12 13 27t24 15q10 0 25.5 -12.5t15.5 -23.5q0 -12 -14 -26.5t-24 -14.5t-25 12t-15 23zM37 738q0 12 13.5 27t23.5 15q11 0 26 -12.5t15 -23.5q0 -12 -13.5 -26.5t-23.5 -14.5t-25.5 12t-15.5 23zM196 554v-496l74 -44v-14h-220v15l74 43v496l-74 44v14h220
v-15z" />
    <glyph glyph-name="Eth" unicode="&#xd0;" horiz-adv-x="657" 
d="M329 39q101 0 154 59t53 197q0 73 -22 130t-58.5 89t-78.5 48t-86 16h-95v-245h187v-30h-187v-246q77 -18 133 -18zM50 0v15l74 43v245h-74v30h74v221l-74 44v14h278q278 0 278 -284q0 -162 -85.5 -245t-226.5 -83h-244z" />
    <glyph glyph-name="Ntilde" unicode="&#xd1;" horiz-adv-x="686" 
d="M422 757q15 0 28 8t20 15.5t22 25.5l8 -11q-21 -36 -31 -50.5t-24.5 -26t-31.5 -11.5q-21 0 -65 15t-63 15q-36 0 -76 -43l-6 11q36 50 52.5 65t41.5 15q22 0 66.5 -14t58.5 -14zM233 14v-14h-185v15l74 43v496l-74 44v14h133l310 -411l32 -60v413l-69 44v14h184v-15
l-74 -43v-551h-27l-349 473l-24 42v-460z" />
    <glyph glyph-name="Ograve" unicode="&#xd2;" horiz-adv-x="656" 
d="M340 829l79 -168h-23l-128 142zM605 318q0 -145 -86.5 -236.5t-205.5 -91.5q-114 0 -188 79.5t-74 225.5q0 145 87 236t211 91q118 0 187 -81.5t69 -222.5zM539 295q0 133 -67.5 204.5t-160.5 71.5q-101 0 -147 -56.5t-46 -196.5q0 -132 68 -204.5t159 -72.5
q102 0 148 56.5t46 197.5z" />
    <glyph glyph-name="Oacute" unicode="&#xd3;" horiz-adv-x="656" 
d="M268 661l79 168l72 -26l-128 -142h-23zM605 318q0 -145 -86.5 -236.5t-205.5 -91.5q-114 0 -188 79.5t-74 225.5q0 145 87 236t211 91q118 0 187 -81.5t69 -222.5zM539 295q0 133 -67.5 204.5t-160.5 71.5q-101 0 -147 -56.5t-46 -196.5q0 -132 68 -204.5t159 -72.5
q102 0 148 56.5t46 197.5z" />
    <glyph glyph-name="Ocircumflex" unicode="&#xd4;" horiz-adv-x="656" 
d="M345 829l109 -168h-23l-103 98l-102 -98h-23l109 168h33zM605 318q0 -145 -86.5 -236.5t-205.5 -91.5q-114 0 -188 79.5t-74 225.5q0 145 87 236t211 91q118 0 187 -81.5t69 -222.5zM539 295q0 133 -67.5 204.5t-160.5 71.5q-101 0 -147 -56.5t-46 -196.5
q0 -132 68 -204.5t159 -72.5q102 0 148 56.5t46 197.5z" />
    <glyph glyph-name="Otilde" unicode="&#xd5;" horiz-adv-x="656" 
d="M395 757q15 0 28 8t20 15.5t22 25.5l8 -11q-21 -36 -31 -50.5t-24.5 -26t-31.5 -11.5q-21 0 -65 15t-63 15q-36 0 -76 -43l-6 11q36 50 52.5 65t41.5 15q22 0 66.5 -14t58.5 -14zM605 318q0 -145 -86.5 -236.5t-205.5 -91.5q-114 0 -188 79.5t-74 225.5q0 145 87 236
t211 91q118 0 187 -81.5t69 -222.5zM539 295q0 133 -67.5 204.5t-160.5 71.5q-101 0 -147 -56.5t-46 -196.5q0 -132 68 -204.5t159 -72.5q102 0 148 56.5t46 197.5z" />
    <glyph glyph-name="Odieresis" unicode="&#xd6;" horiz-adv-x="656" 
d="M375 738q0 12 13 27t24 15q10 0 25.5 -12.5t15.5 -23.5q0 -12 -14 -26.5t-24 -14.5t-25 12t-15 23zM205 738q0 12 13.5 27t23.5 15q11 0 26 -12.5t15 -23.5q0 -12 -13.5 -26.5t-23.5 -14.5t-25.5 12t-15.5 23zM605 318q0 -145 -86.5 -236.5t-205.5 -91.5
q-114 0 -188 79.5t-74 225.5q0 145 87 236t211 91q118 0 187 -81.5t69 -222.5zM539 295q0 133 -67.5 204.5t-160.5 71.5q-101 0 -147 -56.5t-46 -196.5q0 -132 68 -204.5t159 -72.5q102 0 148 56.5t46 197.5z" />
    <glyph glyph-name="multiply" unicode="&#xd7;" horiz-adv-x="509" 
d="M396 100l-142 142l-142 -142l-20 20l142 142l-142 142l20 20l142 -142l142 142l21 -20l-142 -142l142 -142z" />
    <glyph glyph-name="Oslash" unicode="&#xd8;" horiz-adv-x="656" 
d="M118 318q0 -153 92 -230l209 457q-49 30 -108 30q-98 0 -145.5 -59t-47.5 -198zM345 37q99 0 146.5 59t47.5 199q0 149 -89 228l-209 -457q49 -29 104 -29zM313 -10q-54 0 -99 19l-41 -91h-41l49 107q-130 78 -130 270q0 151 86 239t212 88q53 0 97 -18l41 89h41
l-48 -106q59 -36 92 -105.5t33 -163.5q0 -150 -85.5 -239t-206.5 -89z" />
    <glyph glyph-name="Ugrave" unicode="&#xd9;" horiz-adv-x="660" 
d="M342 829l79 -168h-23l-128 142zM108 197v357l-74 44v14h220v-15l-74 -43v-335q0 -171 179 -171q69 0 110 38.5t41 111.5v356l-74 44v14h190v-15l-74 -43v-331q0 -103 -64 -168t-170 -65q-100 0 -155 53t-55 154z" />
    <glyph glyph-name="Uacute" unicode="&#xda;" horiz-adv-x="660" 
d="M265 661l79 168l72 -26l-128 -142h-23zM108 197v357l-74 44v14h220v-15l-74 -43v-335q0 -171 179 -171q69 0 110 38.5t41 111.5v356l-74 44v14h190v-15l-74 -43v-331q0 -103 -64 -168t-170 -65q-100 0 -155 53t-55 154z" />
    <glyph glyph-name="Ucircumflex" unicode="&#xdb;" horiz-adv-x="660" 
d="M367 829l109 -168h-23l-103 98l-102 -98h-23l109 168h33zM108 197v357l-74 44v14h220v-15l-74 -43v-335q0 -171 179 -171q69 0 110 38.5t41 111.5v356l-74 44v14h190v-15l-74 -43v-331q0 -103 -64 -168t-170 -65q-100 0 -155 53t-55 154z" />
    <glyph glyph-name="Udieresis" unicode="&#xdc;" horiz-adv-x="660" 
d="M393 738q0 12 13 27t24 15q10 0 25.5 -12.5t15.5 -23.5q0 -12 -14 -26.5t-24 -14.5t-25 12t-15 23zM223 738q0 12 13.5 27t23.5 15q11 0 26 -12.5t15 -23.5q0 -12 -13.5 -26.5t-23.5 -14.5t-25.5 12t-15.5 23zM108 197v357l-74 44v14h220v-15l-74 -43v-335
q0 -171 179 -171q69 0 110 38.5t41 111.5v356l-74 44v14h190v-15l-74 -43v-331q0 -103 -64 -168t-170 -65q-100 0 -155 53t-55 154z" />
    <glyph glyph-name="Yacute" unicode="&#xdd;" horiz-adv-x="634" 
d="M259 661l79 168l72 -26l-128 -142h-23zM416 0h-219v15l74 43v198l-192 298h-3l-64 43v15h227v-15l-81 -43l159 -251l154 251l-72 43v15h196v-15l-72 -43l-181 -292v-204l74 -44v-14z" />
    <glyph glyph-name="Thorn" unicode="&#xde;" horiz-adv-x="491" 
d="M295 0h-245v15l74 43v496l-74 44v14h215v-15l-69 -43v-66h90q92 0 144 -41.5t52 -118.5q0 -84 -72.5 -136t-184.5 -52q-21 0 -29 -1v-81l99 -44v-14zM247 176q79 0 117 31.5t38 99.5q0 71 -44 110t-112 39h-50v-276q23 -4 51 -4z" />
    <glyph glyph-name="germandbls" unicode="&#xdf;" horiz-adv-x="529" 
d="M336 -10q-42 0 -104 16l16 81h20l45 -55q4 -1 11.5 -3.5t15 -4t17.5 -1.5q95 0 95 85q0 33 -15.5 55.5t-51.5 44.5l-47 29q-75 47 -75 112q0 33 19 60.5t42.5 44t42.5 41t19 53.5q0 47 -40 81.5t-89 34.5q-44 0 -66.5 -33t-22.5 -109v-522h-141v16l75 34v366h-61v34h61
v22q0 109 58.5 168.5t147.5 59.5q65 0 102 -39.5t37 -82.5q0 -30 -19 -59t-41.5 -48.5t-41.5 -46t-19 -51.5q0 -33 15.5 -54t53.5 -46l47 -29q38 -25 52 -50.5t14 -65.5q0 -56 -50 -97t-122 -41z" />
    <glyph glyph-name="agrave" unicode="&#xe0;" horiz-adv-x="447" 
d="M232 679l79 -168h-23l-128 142zM320 -10h-31v52q-6 -3 -20 -12t-21 -12.5t-19.5 -10t-21.5 -9.5t-21 -5.5t-24 -2.5q-51 0 -87 30t-36 75q0 59 70 101.5t180 44.5v90q0 37 -27.5 66t-78.5 29q-8 0 -14 -2l-79 -83h-23l-6 70q51 22 69 29t44 13.5t52 6.5q51 0 88 -27.5
t37 -73.5v-297l71 -20v-14zM187 40q43 0 102 30v122q-36 6 -89 6q-44 0 -72.5 -21t-28.5 -57q0 -40 26 -60t62 -20z" />
    <glyph glyph-name="aacute" unicode="&#xe1;" horiz-adv-x="447" 
d="M151 511l78 168l72 -26l-127 -142h-23zM320 -10h-31v52q-6 -3 -20 -12t-21 -12.5t-19.5 -10t-21.5 -9.5t-21 -5.5t-24 -2.5q-51 0 -87 30t-36 75q0 59 70 101.5t180 44.5v90q0 37 -27.5 66t-78.5 29q-8 0 -14 -2l-79 -83h-23l-6 70q51 22 69 29t44 13.5t52 6.5
q51 0 88 -27.5t37 -73.5v-297l71 -20v-14zM187 40q43 0 102 30v122q-36 6 -89 6q-44 0 -72.5 -21t-28.5 -57q0 -40 26 -60t62 -20z" />
    <glyph glyph-name="acircumflex" unicode="&#xe2;" horiz-adv-x="447" 
d="M237 679l109 -168h-23l-103 98l-102 -98h-23l109 168h33zM320 -10h-31v52q-6 -3 -20 -12t-21 -12.5t-19.5 -10t-21.5 -9.5t-21 -5.5t-24 -2.5q-51 0 -87 30t-36 75q0 59 70 101.5t180 44.5v90q0 37 -27.5 66t-78.5 29q-8 0 -14 -2l-79 -83h-23l-6 70q51 22 69 29t44 13.5
t52 6.5q51 0 88 -27.5t37 -73.5v-297l71 -20v-14zM187 40q43 0 102 30v122q-36 6 -89 6q-44 0 -72.5 -21t-28.5 -57q0 -40 26 -60t62 -20z" />
    <glyph glyph-name="atilde" unicode="&#xe3;" horiz-adv-x="447" 
d="M291 607q15 0 28 8t20 15.5t22 25.5l8 -11q-21 -36 -31 -50.5t-24.5 -26t-31.5 -11.5q-21 0 -65 15t-63 15q-36 0 -76 -43l-6 11q36 50 52.5 65t41.5 15q22 0 66.5 -14t58.5 -14zM320 -10h-31v52q-6 -3 -20 -12t-21 -12.5t-19.5 -10t-21.5 -9.5t-21 -5.5t-24 -2.5
q-51 0 -87 30t-36 75q0 59 70 101.5t180 44.5v90q0 37 -27.5 66t-78.5 29q-8 0 -14 -2l-79 -83h-23l-6 70q51 22 69 29t44 13.5t52 6.5q51 0 88 -27.5t37 -73.5v-297l71 -20v-14zM187 40q43 0 102 30v122q-36 6 -89 6q-44 0 -72.5 -21t-28.5 -57q0 -40 26 -60t62 -20z" />
    <glyph glyph-name="adieresis" unicode="&#xe4;" horiz-adv-x="447" 
d="M267 590q0 12 13 27t24 15q10 0 25.5 -12.5t15.5 -23.5q0 -12 -14 -27t-24 -15t-25 12.5t-15 23.5zM97 590q0 12 13.5 27t23.5 15q11 0 26 -12.5t15 -23.5q0 -12 -13.5 -27t-23.5 -15t-25.5 12.5t-15.5 23.5zM320 -10h-31v52q-6 -3 -20 -12t-21 -12.5t-19.5 -10
t-21.5 -9.5t-21 -5.5t-24 -2.5q-51 0 -87 30t-36 75q0 59 70 101.5t180 44.5v90q0 37 -27.5 66t-78.5 29q-8 0 -14 -2l-79 -83h-23l-6 70q51 22 69 29t44 13.5t52 6.5q51 0 88 -27.5t37 -73.5v-297l71 -20v-14zM187 40q43 0 102 30v122q-36 6 -89 6q-44 0 -72.5 -21
t-28.5 -57q0 -40 26 -60t62 -20z" />
    <glyph glyph-name="aring" unicode="&#xe5;" horiz-adv-x="447" 
d="M143 608q0 34 23.5 58t57.5 24q35 0 57.5 -21.5t22.5 -60.5q0 -34 -23.5 -58t-56.5 -24q-36 0 -58.5 21.5t-22.5 60.5zM171 608q0 -25 14 -40.5t37 -15.5t38 15.5t15 40.5q0 27 -14.5 42.5t-38.5 15.5q-23 0 -37 -15.5t-14 -42.5zM320 -10h-31v52q-6 -3 -20 -12
t-21 -12.5t-19.5 -10t-21.5 -9.5t-21 -5.5t-24 -2.5q-51 0 -87 30t-36 75q0 59 70 101.5t180 44.5v90q0 37 -27.5 66t-78.5 29q-8 0 -14 -2l-79 -83h-23l-6 70q51 22 69 29t44 13.5t52 6.5q51 0 88 -27.5t37 -73.5v-297l71 -20v-14zM187 40q43 0 102 30v122q-36 6 -89 6
q-44 0 -72.5 -21t-28.5 -57q0 -40 26 -60t62 -20z" />
    <glyph glyph-name="ae" unicode="&#xe6;" horiz-adv-x="708" 
d="M450 421q-93 0 -98 -144h217q10 144 -119 144zM656 65q-36 -24 -58.5 -37.5t-53.5 -25.5t-57 -12q-111 0 -159 72q-44 -28 -95 -50t-74 -22q-49 0 -84.5 30.5t-35.5 74.5q0 69 64.5 120.5t185.5 50.5v65q0 37 -27.5 67.5t-78.5 30.5q-9 0 -12 -1l-81 -87h-23l-6 70
q13 5 35.5 14t31.5 12.5t25.5 9t27 8t25 4t30.5 1.5q38 0 68 -16.5t42 -44.5q52 63 139 63q159 0 159 -172q0 -23 -9 -47h-283v-2q0 -97 47.5 -145.5t125.5 -48.5q61 0 124 40zM190 41q60 0 125 43q-26 54 -26 134q-30 5 -78 5q-55 0 -83.5 -27.5t-28.5 -69.5q0 -41 25 -63
t66 -22z" />
    <glyph glyph-name="ccedilla" unicode="&#xe7;" horiz-adv-x="435" 
d="M327 -133q0 -32 -42.5 -51t-109.5 -21l-7 28q34 0 50 0.5t31.5 3.5t21 9t5.5 17q0 19 -15.5 32t-61.5 24l30 82q-88 8 -132 66t-44 154q0 111 61 180t150 69q79 0 115 -18l-15 -89h-22l-60 62q-13 3 -45 3q-64 0 -95 -38.5t-31 -124.5q0 -109 46 -159t123 -50
q53 0 117 28l9 -22q-94 -62 -150 -62h-6l-14 -47q47 -13 69 -30t22 -46z" />
    <glyph glyph-name="egrave" unicode="&#xe8;" horiz-adv-x="477" 
d="M247 679l79 -168h-23l-128 142zM227 421q-51 0 -74.5 -29t-28.5 -105h218q0 134 -115 134zM427 65q-109 -75 -168 -75q-93 0 -149.5 56t-56.5 177q0 97 58 167t145 70q159 0 159 -170q0 -32 -1 -37h-291v-12q0 -97 47.5 -145.5t125.5 -48.5q61 0 125 40z" />
    <glyph glyph-name="eacute" unicode="&#xe9;" horiz-adv-x="477" 
d="M201 511l78 168l72 -26l-127 -142h-23zM227 421q-51 0 -74.5 -29t-28.5 -105h218q0 134 -115 134zM427 65q-109 -75 -168 -75q-93 0 -149.5 56t-56.5 177q0 97 58 167t145 70q159 0 159 -170q0 -32 -1 -37h-291v-12q0 -97 47.5 -145.5t125.5 -48.5q61 0 125 40z" />
    <glyph glyph-name="ecircumflex" unicode="&#xea;" horiz-adv-x="477" 
d="M277 679l109 -168h-23l-103 98l-102 -98h-23l109 168h33zM227 421q-51 0 -74.5 -29t-28.5 -105h218q0 134 -115 134zM427 65q-109 -75 -168 -75q-93 0 -149.5 56t-56.5 177q0 97 58 167t145 70q159 0 159 -170q0 -32 -1 -37h-291v-12q0 -97 47.5 -145.5t125.5 -48.5
q61 0 125 40z" />
    <glyph glyph-name="edieresis" unicode="&#xeb;" horiz-adv-x="477" 
d="M304 590q0 12 13 27t24 15q10 0 25.5 -12.5t15.5 -23.5q0 -12 -14 -27t-24 -15t-25 12.5t-15 23.5zM134 590q0 12 13.5 27t23.5 15q11 0 26 -12.5t15 -23.5q0 -12 -13.5 -27t-23.5 -15t-25.5 12.5t-15.5 23.5zM227 421q-51 0 -74.5 -29t-28.5 -105h218q0 134 -115 134z
M427 65q-109 -75 -168 -75q-93 0 -149.5 56t-56.5 177q0 97 58 167t145 70q159 0 159 -170q0 -32 -1 -37h-291v-12q0 -97 47.5 -145.5t125.5 -48.5q61 0 125 40z" />
    <glyph glyph-name="igrave" unicode="&#xec;" horiz-adv-x="266" 
d="M101 679l79 -168h-23l-128 142zM27 0v16l75 34v342l-73 14v15l108 36h31v-407l72 -34v-16h-213z" />
    <glyph glyph-name="iacute" unicode="&#xed;" horiz-adv-x="266" 
d="M84 511l78 168l72 -26l-127 -142h-23zM27 0v16l75 34v342l-73 14v15l108 36h31v-407l72 -34v-16h-213z" />
    <glyph glyph-name="icircumflex" unicode="&#xee;" horiz-adv-x="266" 
d="M151 679l109 -168h-23l-103 98l-102 -98h-23l109 168h33zM27 0v16l75 34v342l-73 14v15l108 36h31v-407l72 -34v-16h-213z" />
    <glyph glyph-name="idieresis" unicode="&#xef;" horiz-adv-x="266" 
d="M181 590q0 12 13 27t24 15q10 0 25.5 -12.5t15.5 -23.5q0 -12 -14 -27t-24 -15t-25 12.5t-15 23.5zM11 590q0 12 13.5 27t23.5 15q11 0 26 -12.5t15 -23.5q0 -12 -13.5 -27t-23.5 -15t-25.5 12.5t-15.5 23.5zM27 0v16l75 34v342l-73 14v15l108 36h31v-407l72 -34v-16
h-213z" />
    <glyph glyph-name="eth" unicode="&#xf0;" horiz-adv-x="523" 
d="M242 -10q-87 0 -138 60t-51 162q0 109 69.5 178.5t151.5 69.5q52 0 91 -11q-26 85 -88 138l-173 -81v36l144 68q-59 39 -154 68l7 22q112 -18 192 -69l149 70v-36l-119 -56q135 -108 135 -317q0 -80 -19 -141t-51.5 -94.5t-69 -50t-76.5 -16.5zM261 43q74 -2 101.5 38.5
t27.5 153.5q0 73 -8 137q-47 34 -146 34q-61 0 -95 -39.5t-34 -114.5q0 -103 43.5 -156t110.5 -53z" />
    <glyph glyph-name="ntilde" unicode="&#xf1;" horiz-adv-x="535" 
d="M344 607q15 0 28 8t20 15.5t22 25.5l8 -11q-21 -36 -31 -50.5t-24.5 -26t-31.5 -11.5q-21 0 -65 15t-63 15q-36 0 -76 -43l-6 11q36 50 52.5 65t41.5 15q22 0 66.5 -14t58.5 -14zM240 16v-16h-213v16l75 34v342l-73 14v15l108 39h31v-59q3 2 10 6q85 48 122 52l13 1
q57 0 95.5 -29t38.5 -85v-296l75 -34v-16h-173v16l32 34v264q0 37 -27.5 63t-69.5 26q-58 0 -116 -29v-324z" />
    <glyph glyph-name="ograve" unicode="&#xf2;" horiz-adv-x="526" 
d="M269 679l79 -168h-23l-128 142zM473 233q0 -111 -65 -177t-161 -66q-87 0 -140.5 62t-53.5 165q0 111 65.5 177t161.5 66q87 0 140 -62t53 -165zM405 199q0 99 -40 155.5t-111 56.5q-74 0 -103.5 -34t-29.5 -126q0 -98 40.5 -155.5t110.5 -57.5q75 0 104 34.5t29 126.5z
" />
    <glyph glyph-name="oacute" unicode="&#xf3;" horiz-adv-x="526" 
d="M182 511l78 168l72 -26l-127 -142h-23zM473 233q0 -111 -65 -177t-161 -66q-87 0 -140.5 62t-53.5 165q0 111 65.5 177t161.5 66q87 0 140 -62t53 -165zM405 199q0 99 -40 155.5t-111 56.5q-74 0 -103.5 -34t-29.5 -126q0 -98 40.5 -155.5t110.5 -57.5q75 0 104 34.5
t29 126.5z" />
    <glyph glyph-name="ocircumflex" unicode="&#xf4;" horiz-adv-x="526" 
d="M284 679l109 -168h-23l-103 98l-102 -98h-23l109 168h33zM473 233q0 -111 -65 -177t-161 -66q-87 0 -140.5 62t-53.5 165q0 111 65.5 177t161.5 66q87 0 140 -62t53 -165zM405 199q0 99 -40 155.5t-111 56.5q-74 0 -103.5 -34t-29.5 -126q0 -98 40.5 -155.5t110.5 -57.5
q75 0 104 34.5t29 126.5z" />
    <glyph glyph-name="otilde" unicode="&#xf5;" horiz-adv-x="526" 
d="M338 607q15 0 28 8t20 15.5t22 25.5l8 -11q-21 -36 -31 -50.5t-24.5 -26t-31.5 -11.5q-21 0 -65 15t-63 15q-36 0 -76 -43l-6 11q36 50 52.5 65t41.5 15q22 0 66.5 -14t58.5 -14zM473 233q0 -111 -65 -177t-161 -66q-87 0 -140.5 62t-53.5 165q0 111 65.5 177t161.5 66
q87 0 140 -62t53 -165zM405 199q0 99 -40 155.5t-111 56.5q-74 0 -103.5 -34t-29.5 -126q0 -98 40.5 -155.5t110.5 -57.5q75 0 104 34.5t29 126.5z" />
    <glyph glyph-name="odieresis" unicode="&#xf6;" horiz-adv-x="526" 
d="M314 590q0 12 13 27t24 15q10 0 25.5 -12.5t15.5 -23.5q0 -12 -14 -27t-24 -15t-25 12.5t-15 23.5zM144 590q0 12 13.5 27t23.5 15q11 0 26 -12.5t15 -23.5q0 -12 -13.5 -27t-23.5 -15t-25.5 12.5t-15.5 23.5zM473 233q0 -111 -65 -177t-161 -66q-87 0 -140.5 62
t-53.5 165q0 111 65.5 177t161.5 66q87 0 140 -62t53 -165zM405 199q0 99 -40 155.5t-111 56.5q-74 0 -103.5 -34t-29.5 -126q0 -98 40.5 -155.5t110.5 -57.5q75 0 104 34.5t29 126.5z" />
    <glyph glyph-name="divide" unicode="&#xf7;" horiz-adv-x="509" 
d="M207 396q0 14 16 32t27 18q12 0 31 -14.5t19 -27.5t-16.5 -30.5t-28.5 -17.5t-30 13.5t-18 26.5zM451 268v-28h-393v28h393zM207 96q0 14 16 32t27 18q12 0 31 -14.5t19 -27.5t-16.5 -30.5t-28.5 -17.5t-30 13.5t-18 26.5z" />
    <glyph glyph-name="oslash" unicode="&#xf8;" horiz-adv-x="526" 
d="M121 251q0 -99 42 -157l162 298q-32 19 -71 19q-74 0 -103.5 -34t-29.5 -126zM272 38q75 0 104 34.5t29 126.5q0 115 -52 170l-165 -302q35 -29 84 -29zM247 -10q-49 0 -90 21l-45 -83h-40l56 103q-75 62 -75 186q0 112 64 177.5t163 65.5q40 0 74 -14l42 76h40l-51 -93
q88 -59 88 -196q0 -112 -63.5 -177.5t-162.5 -65.5z" />
    <glyph glyph-name="ugrave" unicode="&#xf9;" horiz-adv-x="534" 
d="M265 679l79 -168h-23l-128 142zM402 -10h-31v59q-58 -32 -91.5 -45.5t-64.5 -13.5q-53 0 -88 30.5t-35 83.5v288l-74 19v13l118 36h31l-10 -70v-253q0 -39 25.5 -64.5t68.5 -25.5q49 0 120 29v316l-76 19v13l120 36h31l-10 -70v-328l86 -20v-14z" />
    <glyph glyph-name="uacute" unicode="&#xfa;" horiz-adv-x="534" 
d="M235 511l78 168l72 -26l-127 -142h-23zM402 -10h-31v59q-58 -32 -91.5 -45.5t-64.5 -13.5q-53 0 -88 30.5t-35 83.5v288l-74 19v13l118 36h31l-10 -70v-253q0 -39 25.5 -64.5t68.5 -25.5q49 0 120 29v316l-76 19v13l120 36h31l-10 -70v-328l86 -20v-14z" />
    <glyph glyph-name="ucircumflex" unicode="&#xfb;" horiz-adv-x="534" 
d="M291 679l109 -168h-23l-103 98l-102 -98h-23l109 168h33zM402 -10h-31v59q-58 -32 -91.5 -45.5t-64.5 -13.5q-53 0 -88 30.5t-35 83.5v288l-74 19v13l118 36h31l-10 -70v-253q0 -39 25.5 -64.5t68.5 -25.5q49 0 120 29v316l-76 19v13l120 36h31l-10 -70v-328l86 -20v-14z
" />
    <glyph glyph-name="udieresis" unicode="&#xfc;" horiz-adv-x="534" 
d="M321 590q0 12 13 27t24 15q10 0 25.5 -12.5t15.5 -23.5q0 -12 -14 -27t-24 -15t-25 12.5t-15 23.5zM151 590q0 12 13.5 27t23.5 15q11 0 26 -12.5t15 -23.5q0 -12 -13.5 -27t-23.5 -15t-25.5 12.5t-15.5 23.5zM402 -10h-31v59q-58 -32 -91.5 -45.5t-64.5 -13.5
q-53 0 -88 30.5t-35 83.5v288l-74 19v13l118 36h31l-10 -70v-253q0 -39 25.5 -64.5t68.5 -25.5q49 0 120 29v316l-76 19v13l120 36h31l-10 -70v-328l86 -20v-14z" />
    <glyph glyph-name="yacute" unicode="&#xfd;" horiz-adv-x="484" 
d="M206 511l78 168l72 -26l-127 -142h-23zM63 -238q-26 0 -53 10l14 74h17l54 -41q42 14 74.5 60.5t64.5 157.5l-18 3l-158 373l-49 35v16h186v-16l-61 -37l132 -304l111 304l-51 37v16h159v-16l-59 -37h-1l-158 -375q-66 -260 -204 -260z" />
    <glyph glyph-name="thorn" unicode="&#xfe;" horiz-adv-x="523" 
d="M258 48q85 0 116 33.5t31 129.5q0 97 -43 141.5t-105 44.5q-48 0 -102 -20l-2 5v-315q43 -19 105 -19zM250 -204v-16h-238v16l75 40v785l-71 22v13l115 37h31l-9 -87v-202q109 56 141 56q71 0 123.5 -56.5t52.5 -164.5q0 -103 -75.5 -176t-173.5 -73q-43 0 -68 6v-160z
" />
    <glyph glyph-name="ydieresis" unicode="&#xff;" horiz-adv-x="484" 
d="M305 590q0 12 13 27t24 15q10 0 25.5 -12.5t15.5 -23.5q0 -12 -14 -27t-24 -15t-25 12.5t-15 23.5zM135 590q0 12 13.5 27t23.5 15q11 0 26 -12.5t15 -23.5q0 -12 -13.5 -27t-23.5 -15t-25.5 12.5t-15.5 23.5zM63 -238q-26 0 -53 10l14 74h17l54 -41q42 14 74.5 60.5
t64.5 157.5l-18 3l-158 373l-49 35v16h186v-16l-61 -37l132 -304l111 304l-51 37v16h159v-16l-59 -37h-1l-158 -375q-66 -260 -204 -260z" />
    <glyph glyph-name="Amacron" unicode="&#x100;" horiz-adv-x="636" 
d="M435 745v-15l-14 -21h-199v15l14 21h199zM412 275l-96 250l-102 -250h198zM196 15v-15h-193v15l73 43l229 546l40 23l224 -569l64 -43v-15h-221v15l84 43l-71 183h-225l-75 -184z" />
    <glyph glyph-name="amacron" unicode="&#x101;" horiz-adv-x="447" 
d="M327 595v-15l-14 -21h-199v15l14 21h199zM320 -10h-31v52q-6 -3 -20 -12t-21 -12.5t-19.5 -10t-21.5 -9.5t-21 -5.5t-24 -2.5q-51 0 -87 30t-36 75q0 59 70 101.5t180 44.5v90q0 37 -27.5 66t-78.5 29q-8 0 -14 -2l-79 -83h-23l-6 70q51 22 69 29t44 13.5t52 6.5
q51 0 88 -27.5t37 -73.5v-297l71 -20v-14zM187 40q43 0 102 30v122q-36 6 -89 6q-44 0 -72.5 -21t-28.5 -57q0 -40 26 -60t62 -20z" />
    <glyph glyph-name="Abreve" unicode="&#x102;" horiz-adv-x="636" 
d="M329 717q50 0 72 30.5t29 81.5h23q0 -76 -31 -122t-96 -46q-123 0 -123 168h23q14 -112 103 -112zM412 275l-96 250l-102 -250h198zM196 15v-15h-193v15l73 43l229 546l40 23l224 -569l64 -43v-15h-221v15l84 43l-71 183h-225l-75 -184z" />
    <glyph glyph-name="abreve" unicode="&#x103;" horiz-adv-x="447" 
d="M221 567q50 0 72 30.5t29 81.5h23q0 -76 -31 -122t-96 -46q-123 0 -123 168h23q14 -112 103 -112zM320 -10h-31v52q-6 -3 -20 -12t-21 -12.5t-19.5 -10t-21.5 -9.5t-21 -5.5t-24 -2.5q-51 0 -87 30t-36 75q0 59 70 101.5t180 44.5v90q0 37 -27.5 66t-78.5 29q-8 0 -14 -2
l-79 -83h-23l-6 70q51 22 69 29t44 13.5t52 6.5q51 0 88 -27.5t37 -73.5v-297l71 -20v-14zM187 40q43 0 102 30v122q-36 6 -89 6q-44 0 -72.5 -21t-28.5 -57q0 -40 26 -60t62 -20z" />
    <glyph glyph-name="Aogonek" unicode="&#x104;" horiz-adv-x="636" 
d="M412 275l-96 250l-102 -250h198zM612 -208q-9 -3 -22 -8l-19.5 -7.5t-15 -4.5t-16.5 -2q-29 0 -51.5 21.5t-22.5 53.5q0 44 30.5 85.5t81.5 69.5h-165v15l84 43l-71 183h-225l-75 -184l71 -42v-15h-193v15l73 43l229 546l40 23l224 -569l64 -43v-15h-33q-90 -62 -90 -136
q0 -24 15.5 -42t41.5 -18q16 0 40 8z" />
    <glyph glyph-name="aogonek" unicode="&#x105;" horiz-adv-x="447" 
d="M331 -219q-29 0 -51.5 21.5t-22.5 53.5q0 84 98 147l-35 -13h-31v52q-6 -3 -20 -12t-21 -12.5t-19.5 -10t-21.5 -9.5t-21 -5.5t-24 -2.5q-51 0 -87 30t-36 75q0 59 70 101.5t180 44.5v90q0 37 -27.5 66t-78.5 29q-8 0 -14 -2l-79 -83h-23l-6 70q51 22 69 29t44 13.5
t52 6.5q51 0 88 -27.5t37 -73.5v-297l71 -20v-14l-12 -5q-108 -68 -108 -148q0 -24 15.5 -42t41.5 -18q16 0 40 8l5 -20q-9 -3 -22 -8l-19.5 -7.5t-15 -4.5t-16.5 -2zM187 40q43 0 102 30v122q-36 6 -89 6q-44 0 -72.5 -21t-28.5 -57q0 -40 26 -60t62 -20z" />
    <glyph glyph-name="Cacute" unicode="&#x106;" horiz-adv-x="567" 
d="M254 661l79 168l72 -26l-128 -142h-23zM494 142l24 -1l-22 -118q-86 -33 -181 -33q-122 0 -193 82.5t-71 221.5q0 148 88 238t212 90q99 0 146 -29l-22 -124h-23l-52 96q-29 9 -92 9q-84 0 -137 -58.5t-52 -192.5q-1 -135 62 -215t166 -80q35 0 61 6z" />
    <glyph glyph-name="cacute" unicode="&#x107;" horiz-adv-x="435" 
d="M203 511l78 168l72 -26l-127 -142h-23zM342 353l-60 62q-13 3 -45 3q-64 0 -95 -38.5t-31 -124.5q0 -109 46 -159t123 -50q53 0 117 28l9 -22q-94 -62 -150 -62q-101 0 -152 59t-51 162q0 111 61 180t150 69q79 0 115 -18l-15 -89h-22z" />
    <glyph glyph-name="Ccircumflex" unicode="&#x108;" horiz-adv-x="567" 
d="M351 829l109 -168h-23l-103 98l-102 -98h-23l109 168h33zM494 142l24 -1l-22 -118q-86 -33 -181 -33q-122 0 -193 82.5t-71 221.5q0 148 88 238t212 90q99 0 146 -29l-22 -124h-23l-52 96q-29 9 -92 9q-84 0 -137 -58.5t-52 -192.5q-1 -135 62 -215t166 -80q35 0 61 6z
" />
    <glyph glyph-name="ccircumflex" unicode="&#x109;" horiz-adv-x="435" 
d="M284 679l109 -168h-23l-103 98l-102 -98h-23l109 168h33zM342 353l-60 62q-13 3 -45 3q-64 0 -95 -38.5t-31 -124.5q0 -109 46 -159t123 -50q53 0 117 28l9 -22q-94 -62 -150 -62q-101 0 -152 59t-51 162q0 111 61 180t150 69q79 0 115 -18l-15 -89h-22z" />
    <glyph glyph-name="Cdotaccent" unicode="&#x10a;" horiz-adv-x="567" 
d="M288 743q0 13 16.5 31.5t27.5 18.5q12 0 30 -14.5t18 -27.5q0 -14 -16 -32t-28 -18t-30 14.5t-18 27.5zM494 142l24 -1l-22 -118q-86 -33 -181 -33q-122 0 -193 82.5t-71 221.5q0 148 88 238t212 90q99 0 146 -29l-22 -124h-23l-52 96q-29 9 -92 9q-84 0 -137 -58.5
t-52 -192.5q-1 -135 62 -215t166 -80q35 0 61 6z" />
    <glyph glyph-name="cdotaccent" unicode="&#x10b;" horiz-adv-x="435" 
d="M217 595q0 14 16 32t28 18t30 -14.5t18 -27.5q0 -14 -16 -31.5t-28 -17.5t-30 14.5t-18 26.5zM342 353l-60 62q-13 3 -45 3q-64 0 -95 -38.5t-31 -124.5q0 -109 46 -159t123 -50q53 0 117 28l9 -22q-94 -62 -150 -62q-101 0 -152 59t-51 162q0 111 61 180t150 69
q79 0 115 -18l-15 -89h-22z" />
    <glyph glyph-name="Ccaron" unicode="&#x10c;" horiz-adv-x="567" 
d="M460 829l-109 -168h-33l-109 168h23l102 -98l103 98h23zM494 142l24 -1l-22 -118q-86 -33 -181 -33q-122 0 -193 82.5t-71 221.5q0 148 88 238t212 90q99 0 146 -29l-22 -124h-23l-52 96q-29 9 -92 9q-84 0 -137 -58.5t-52 -192.5q-1 -135 62 -215t166 -80q35 0 61 6z
" />
    <glyph glyph-name="ccaron" unicode="&#x10d;" horiz-adv-x="435" 
d="M374 679l-109 -168h-33l-109 168h23l102 -98l103 98h23zM342 353l-60 62q-13 3 -45 3q-64 0 -95 -38.5t-31 -124.5q0 -109 46 -159t123 -50q53 0 117 28l9 -22q-94 -62 -150 -62q-101 0 -152 59t-51 162q0 111 61 180t150 69q79 0 115 -18l-15 -89h-22z" />
    <glyph glyph-name="Dcaron" unicode="&#x10e;" horiz-adv-x="657" 
d="M438 829l-109 -168h-33l-109 168h23l102 -98l103 98h23zM329 39q101 0 154 59t53 197q0 73 -22 130t-58.5 89t-78.5 48t-86 16h-95v-521q77 -18 133 -18zM50 0v15l74 43v496l-74 44v14h278q278 0 278 -284q0 -162 -85.5 -245t-226.5 -83h-244z" />
    <glyph glyph-name="dcaron" unicode="&#x10f;" horiz-adv-x="590" 
d="M494 647q4 16 18 27t28 11q12 0 30 -21t18 -45q0 -49 -66 -148l-17 3q23 67 23 97q0 41 -34 76zM402 -10h-31v56q-109 -56 -142 -56q-71 0 -123.5 56.5t-52.5 164.5q0 109 73.5 179t172.5 70q36 0 72 -9v172l-71 20v13l114 37h31l-9 -87v-544l86 -20v-14zM269 47
q48 0 102 26v315q-40 20 -111 20q-145 0 -145 -165q0 -100 45.5 -148t108.5 -48z" />
    <glyph glyph-name="Dcroat" unicode="&#x110;" horiz-adv-x="657" 
d="M329 39q101 0 154 59t53 197q0 73 -22 130t-58.5 89t-78.5 48t-86 16h-95v-242h148v-36h-148v-243q77 -18 133 -18zM50 0v15l74 43v242h-86v36h86v218l-74 44v14h278q278 0 278 -284q0 -162 -85.5 -245t-226.5 -83h-244z" />
    <glyph glyph-name="dcroat" unicode="&#x111;" horiz-adv-x="536" 
d="M402 -10h-31v56q-109 -56 -142 -56q-71 0 -123.5 56.5t-52.5 164.5q0 109 73.5 179t172.5 70q36 0 72 -9v79h-131v38h131v55l-71 20v13l114 37h31l-9 -87v-38h79v-38h-79v-468l86 -20v-14zM269 47q48 0 102 26v315q-40 20 -111 20q-145 0 -145 -165q0 -100 45.5 -148
t108.5 -48z" />
    <glyph glyph-name="Emacron" unicode="&#x112;" horiz-adv-x="522" 
d="M372 745v-15l-14 -21h-199v15l14 21h199zM50 0v15l74 43v496l-74 44v14h404l-21 -122h-25l-50 88h-162v-244h57l131 8l-9 -49l-120 13h-59v-272h169l80 107h24l-27 -141h-392z" />
    <glyph glyph-name="emacron" unicode="&#x113;" horiz-adv-x="477" 
d="M362 595v-15l-14 -21h-199v15l14 21h199zM227 421q-51 0 -74.5 -29t-28.5 -105h218q0 134 -115 134zM427 65q-109 -75 -168 -75q-93 0 -149.5 56t-56.5 177q0 97 58 167t145 70q159 0 159 -170q0 -32 -1 -37h-291v-12q0 -97 47.5 -145.5t125.5 -48.5q61 0 125 40z" />
    <glyph glyph-name="Ebreve" unicode="&#x114;" horiz-adv-x="522" 
d="M296 717q50 0 72 30.5t29 81.5h23q0 -76 -31 -122t-96 -46q-123 0 -123 168h23q14 -112 103 -112zM50 0v15l74 43v496l-74 44v14h404l-21 -122h-25l-50 88h-162v-244h57l131 8l-9 -49l-120 13h-59v-272h169l80 107h24l-27 -141h-392z" />
    <glyph glyph-name="ebreve" unicode="&#x115;" horiz-adv-x="477" 
d="M256 567q50 0 72 30.5t29 81.5h23q0 -76 -31 -122t-96 -46q-123 0 -123 168h23q14 -112 103 -112zM227 421q-51 0 -74.5 -29t-28.5 -105h218q0 134 -115 134zM427 65q-109 -75 -168 -75q-93 0 -149.5 56t-56.5 177q0 97 58 167t145 70q159 0 159 -170q0 -32 -1 -37h-291
v-12q0 -97 47.5 -145.5t125.5 -48.5q61 0 125 40z" />
    <glyph glyph-name="Edotaccent" unicode="&#x116;" horiz-adv-x="522" 
d="M234 743q0 13 16.5 31.5t27.5 18.5q12 0 30 -14.5t18 -27.5q0 -14 -16 -32t-28 -18t-30 14.5t-18 27.5zM50 0v15l74 43v496l-74 44v14h404l-21 -122h-25l-50 88h-162v-244h57l131 8l-9 -49l-120 13h-59v-272h169l80 107h24l-27 -141h-392z" />
    <glyph glyph-name="edotaccent" unicode="&#x117;" horiz-adv-x="477" 
d="M197 595q0 14 16 32t28 18t30 -14.5t18 -27.5q0 -14 -16 -31.5t-28 -17.5t-30 14.5t-18 26.5zM227 421q-51 0 -74.5 -29t-28.5 -105h218q0 134 -115 134zM427 65q-109 -75 -168 -75q-93 0 -149.5 56t-56.5 177q0 97 58 167t145 70q159 0 159 -170q0 -32 -1 -37h-291v-12
q0 -97 47.5 -145.5t125.5 -48.5q61 0 125 40z" />
    <glyph glyph-name="Eogonek" unicode="&#x118;" horiz-adv-x="522" 
d="M439 -208q-9 -3 -22 -8l-19.5 -7.5t-15 -4.5t-16.5 -2q-29 0 -51.5 21.5t-22.5 53.5q0 44 30.5 85.5t81.5 69.5h-354v15l74 43v496l-74 44v14h404l-21 -122h-25l-50 88h-162v-244h57l131 8l-9 -49l-120 13h-59v-272h169l80 107h24l-25 -128l1 -1l-1 -1l-2 -11h-15
q-90 -62 -90 -136q0 -24 15.5 -42t41.5 -18q16 0 40 8z" />
    <glyph glyph-name="eogonek" unicode="&#x119;" horiz-adv-x="477" 
d="M227 421q-51 0 -74.5 -29t-28.5 -105h218q0 134 -115 134zM399 -169l-21 -9t-20 -8t-15 -4t-17 -2q-30 0 -53.5 22t-23.5 58q0 61 69 114q-34 -12 -59 -12q-93 0 -149.5 56t-56.5 177q0 97 58 167t145 70q159 0 159 -170q0 -32 -1 -37h-291v-12q0 -97 47.5 -145.5
t125.5 -48.5q61 0 125 40l6 -22q-13 -9 -41 -27q-88 -62 -88 -135q0 -24 15.5 -42t40.5 -18q16 0 40 8z" />
    <glyph glyph-name="Ecaron" unicode="&#x11a;" horiz-adv-x="522" 
d="M391 829l-109 -168h-33l-109 168h23l102 -98l103 98h23zM50 0v15l74 43v496l-74 44v14h404l-21 -122h-25l-50 88h-162v-244h57l131 8l-9 -49l-120 13h-59v-272h169l80 107h24l-27 -141h-392z" />
    <glyph glyph-name="ecaron" unicode="&#x11b;" horiz-adv-x="477" 
d="M381 679l-109 -168h-33l-109 168h23l102 -98l103 98h23zM227 421q-51 0 -74.5 -29t-28.5 -105h218q0 134 -115 134zM427 65q-109 -75 -168 -75q-93 0 -149.5 56t-56.5 177q0 97 58 167t145 70q159 0 159 -170q0 -32 -1 -37h-291v-12q0 -97 47.5 -145.5t125.5 -48.5
q61 0 125 40z" />
    <glyph glyph-name="Gcircumflex" unicode="&#x11c;" horiz-adv-x="601" 
d="M357 829l109 -168h-23l-103 98l-102 -98h-23l109 168h33zM506 216v-194q-84 -32 -182 -32q-133 0 -203 81.5t-70 222.5q0 148 89 238t208 90q95 0 161 -30l-21 -122h-23l-52 94q-30 10 -102 10q-192 0 -192 -250q0 -132 65.5 -214t174.5 -82q52 0 81 11v177l-73 44v14
h203v-15z" />
    <glyph glyph-name="gcircumflex" unicode="&#x11d;" horiz-adv-x="438" 
d="M224 679l109 -168h-23l-103 98l-102 -98h-23l109 168h33zM292 301q0 63 -29 95.5t-82 32.5q-38 0 -57.5 -21.5t-19.5 -77.5q0 -63 29.5 -94t82.5 -31q37 0 56.5 20.5t19.5 75.5zM399 -21q0 -60 -72 -119t-165 -59q-70 0 -108.5 26t-38.5 65q0 32 32 64.5t119 83.5
q-43 11 -59 25t-16 37q0 11 12.5 26t50.5 52q-49 9 -83.5 42t-34.5 86q0 67 52.5 109t113.5 42q52 0 90 -22l140 44l-9 -80h-17l-99 26q54 -40 54 -111q0 -60 -54.5 -99.5t-121.5 -39.5h-6q-24 -45 -24 -56q0 -16 18.5 -25t67.5 -17l32 -9q74 -13 100 -33.5t26 -57.5z
M202 -156q63 0 100.5 30.5t37.5 70.5q0 32 -29 50.5t-103 32.5l-17 5q-53 -38 -79 -64t-26 -53q0 -30 29.5 -51t86.5 -21z" />
    <glyph glyph-name="Gbreve" unicode="&#x11e;" horiz-adv-x="601" 
d="M326 717q50 0 72 30.5t29 81.5h23q0 -76 -31 -122t-96 -46q-123 0 -123 168h23q14 -112 103 -112zM506 216v-194q-84 -32 -182 -32q-133 0 -203 81.5t-70 222.5q0 148 89 238t208 90q95 0 161 -30l-21 -122h-23l-52 94q-30 10 -102 10q-192 0 -192 -250q0 -132 65.5 -214
t174.5 -82q52 0 81 11v177l-73 44v14h203v-15z" />
    <glyph glyph-name="gbreve" unicode="&#x11f;" horiz-adv-x="438" 
d="M223 567q50 0 72 30.5t29 81.5h23q0 -76 -31 -122t-96 -46q-123 0 -123 168h23q14 -112 103 -112zM292 301q0 63 -29 95.5t-82 32.5q-38 0 -57.5 -21.5t-19.5 -77.5q0 -63 29.5 -94t82.5 -31q37 0 56.5 20.5t19.5 75.5zM399 -21q0 -60 -72 -119t-165 -59q-70 0 -108.5 26
t-38.5 65q0 32 32 64.5t119 83.5q-43 11 -59 25t-16 37q0 11 12.5 26t50.5 52q-49 9 -83.5 42t-34.5 86q0 67 52.5 109t113.5 42q52 0 90 -22l140 44l-9 -80h-17l-99 26q54 -40 54 -111q0 -60 -54.5 -99.5t-121.5 -39.5h-6q-24 -45 -24 -56q0 -16 18.5 -25t67.5 -17l32 -9
q74 -13 100 -33.5t26 -57.5zM202 -156q63 0 100.5 30.5t37.5 70.5q0 32 -29 50.5t-103 32.5l-17 5q-53 -38 -79 -64t-26 -53q0 -30 29.5 -51t86.5 -21z" />
    <glyph glyph-name="Gdotaccent" unicode="&#x120;" horiz-adv-x="601" 
d="M309 743q0 13 16.5 31.5t27.5 18.5q12 0 30 -14.5t18 -27.5q0 -14 -16 -32t-28 -18t-30 14.5t-18 27.5zM506 216v-194q-84 -32 -182 -32q-133 0 -203 81.5t-70 222.5q0 148 89 238t208 90q95 0 161 -30l-21 -122h-23l-52 94q-30 10 -102 10q-192 0 -192 -250
q0 -132 65.5 -214t174.5 -82q52 0 81 11v177l-73 44v14h203v-15z" />
    <glyph glyph-name="gdotaccent" unicode="&#x121;" horiz-adv-x="438" 
d="M161 595q0 14 16 32t28 18t30 -14.5t18 -27.5q0 -14 -16 -31.5t-28 -17.5t-30 14.5t-18 26.5zM292 301q0 63 -29 95.5t-82 32.5q-38 0 -57.5 -21.5t-19.5 -77.5q0 -63 29.5 -94t82.5 -31q37 0 56.5 20.5t19.5 75.5zM399 -21q0 -60 -72 -119t-165 -59q-70 0 -108.5 26
t-38.5 65q0 32 32 64.5t119 83.5q-43 11 -59 25t-16 37q0 11 12.5 26t50.5 52q-49 9 -83.5 42t-34.5 86q0 67 52.5 109t113.5 42q52 0 90 -22l140 44l-9 -80h-17l-99 26q54 -40 54 -111q0 -60 -54.5 -99.5t-121.5 -39.5h-6q-24 -45 -24 -56q0 -16 18.5 -25t67.5 -17l32 -9
q74 -13 100 -33.5t26 -57.5zM202 -156q63 0 100.5 30.5t37.5 70.5q0 32 -29 50.5t-103 32.5l-17 5q-53 -38 -79 -64t-26 -53q0 -30 29.5 -51t86.5 -21z" />
    <glyph glyph-name="Gcommaaccent" unicode="&#x122;" horiz-adv-x="601" 
d="M506 216v-194q-84 -32 -182 -32q-133 0 -203 81.5t-70 222.5q0 148 89 238t208 90q95 0 161 -30l-21 -122h-23l-52 94q-30 10 -102 10q-192 0 -192 -250q0 -132 65.5 -214t174.5 -82q52 0 81 11v177l-73 44v14h203v-15zM288 -93q0 15 14 30.5t26 15.5q14 0 34 -24.5
t20 -50.5q0 -60 -86 -145l-13 10q49 65 49 93q0 20 -22 39t-22 32z" />
    <glyph glyph-name="gcommaaccent" unicode="&#x123;" horiz-adv-x="438" 
d="M236 541q0 -15 -14 -30.5t-26 -15.5q-14 0 -34 24.5t-20 50.5q0 60 86 145l13 -10q-49 -65 -49 -93q0 -20 22 -39t22 -32zM292 301q0 63 -29 95.5t-82 32.5q-38 0 -57.5 -21.5t-19.5 -77.5q0 -63 29.5 -94t82.5 -31q37 0 56.5 20.5t19.5 75.5zM399 -21q0 -60 -72 -119
t-165 -59q-70 0 -108.5 26t-38.5 65q0 32 32 64.5t119 83.5q-43 11 -59 25t-16 37q0 11 12.5 26t50.5 52q-49 9 -83.5 42t-34.5 86q0 67 52.5 109t113.5 42q52 0 90 -22l140 44l-9 -80h-17l-99 26q54 -40 54 -111q0 -60 -54.5 -99.5t-121.5 -39.5h-6q-24 -45 -24 -56
q0 -16 18.5 -25t67.5 -17l32 -9q74 -13 100 -33.5t26 -57.5zM202 -156q63 0 100.5 30.5t37.5 70.5q0 32 -29 50.5t-103 32.5l-17 5q-53 -38 -79 -64t-26 -53q0 -30 29.5 -51t86.5 -21z" />
    <glyph glyph-name="Hcircumflex" unicode="&#x124;" horiz-adv-x="712" 
d="M372 829l109 -168h-23l-103 98l-102 -98h-23l109 168h33zM272 14v-14h-222v15l74 43v496l-74 44v14h222v-15l-76 -43v-221h320v221l-76 44v14h222v-15l-74 -43v-496l74 -44v-14h-222v15l76 43v245h-320v-245z" />
    <glyph glyph-name="hcircumflex" unicode="&#x125;" horiz-adv-x="531" 
d="M145 869l109 -168h-23l-103 98l-102 -98h-23l109 168h33zM244 16v-16h-221v16l75 34v573l-71 20v13l115 37h31l-9 -87v-205q3 2 10 6q85 48 122 52l13 1q57 0 95.5 -29t38.5 -85v-296l75 -34v-16h-173v16l32 34v264q0 37 -27.5 63t-69.5 26q-58 0 -116 -29v-324z" />
    <glyph glyph-name="Hbar" unicode="&#x126;" horiz-adv-x="712" 
d="M516 333v100h-320v-100h320zM272 14v-14h-222v15l74 43v375h-81v30h81v91l-74 44v14h222v-15l-76 -43v-91h320v91l-76 44v14h222v-15l-74 -43v-91h81v-30h-81v-375l74 -44v-14h-222v15l76 43v245h-320v-245z" />
    <glyph glyph-name="hbar" unicode="&#x127;" horiz-adv-x="531" 
d="M244 16v-16h-221v16l75 34v474h-73v36h73v63l-71 20v13l115 37h31l-9 -87v-46h101v-36h-101v-123q3 2 10 6q85 48 122 52l13 1q57 0 95.5 -29t38.5 -85v-296l75 -34v-16h-173v16l32 34v264q0 37 -27.5 63t-69.5 26q-58 0 -116 -29v-324z" />
    <glyph glyph-name="Itilde" unicode="&#x128;" horiz-adv-x="320" 
d="M244 757q15 0 28 8t20 15.5t22 25.5l8 -11q-21 -36 -31 -50.5t-24.5 -26t-31.5 -11.5q-21 0 -65 15t-63 15q-36 0 -76 -43l-6 11q36 50 52.5 65t41.5 15q22 0 66.5 -14t58.5 -14zM196 554v-496l74 -44v-14h-220v15l74 43v496l-74 44v14h220v-15z" />
    <glyph glyph-name="itilde" unicode="&#x129;" horiz-adv-x="266" 
d="M205 607q15 0 28 8t20 15.5t22 25.5l8 -11q-21 -36 -31 -50.5t-24.5 -26t-31.5 -11.5q-21 0 -65 15t-63 15q-36 0 -76 -43l-6 11q36 50 52.5 65t41.5 15q22 0 66.5 -14t58.5 -14zM27 0v16l75 34v342l-73 14v15l108 36h31v-407l72 -34v-16h-213z" />
    <glyph glyph-name="Imacron" unicode="&#x12a;" horiz-adv-x="320" 
d="M267 745v-15l-14 -21h-199v15l14 21h199zM196 554v-496l74 -44v-14h-220v15l74 43v496l-74 44v14h220v-15z" />
    <glyph glyph-name="imacron" unicode="&#x12b;" horiz-adv-x="266" 
d="M241 595v-15l-14 -21h-199v15l14 21h199zM27 0v16l75 34v342l-73 14v15l108 36h31v-407l72 -34v-16h-213z" />
    <glyph glyph-name="Ibreve" unicode="&#x12c;" horiz-adv-x="320" 
d="M161 717q50 0 72 30.5t29 81.5h23q0 -76 -31 -122t-96 -46q-123 0 -123 168h23q14 -112 103 -112zM196 554v-496l74 -44v-14h-220v15l74 43v496l-74 44v14h220v-15z" />
    <glyph glyph-name="ibreve" unicode="&#x12d;" horiz-adv-x="266" 
d="M135 567q50 0 72 30.5t29 81.5h23q0 -76 -31 -122t-96 -46q-123 0 -123 168h23q14 -112 103 -112zM27 0v16l75 34v342l-73 14v15l108 36h31v-407l72 -34v-16h-213z" />
    <glyph glyph-name="Iogonek" unicode="&#x12e;" horiz-adv-x="320" 
d="M272 -208q-9 -3 -22 -8l-19.5 -7.5t-15 -4.5t-16.5 -2q-29 0 -51.5 21.5t-22.5 53.5q0 44 30.5 85.5t81.5 69.5h-187v15l74 43v496l-74 44v14h220v-15l-74 -43v-496l72 -43l5 2l5 -5q-2 -1 -4 -2.5t-4 -2.5v-7h-10q-90 -62 -90 -136q0 -24 15.5 -42t41.5 -18q16 0 40 8z
" />
    <glyph glyph-name="iogonek" unicode="&#x12f;" horiz-adv-x="266" 
d="M88 593q0 13 16.5 31.5t27.5 18.5q12 0 30.5 -14.5t18.5 -27.5q0 -14 -16.5 -32t-27.5 -18q-13 0 -31 14.5t-18 27.5zM216 -208q-9 -3 -22 -8l-19.5 -7.5t-15 -4.5t-16.5 -2q-29 0 -51.5 21.5t-22.5 53.5q0 44 30.5 85.5t81.5 69.5h-154v16l75 34v342l-73 14v15l108 39
h31v-410l72 -34v-16h-36q-90 -62 -90 -136q0 -24 15.5 -42t41.5 -18q16 0 40 8z" />
    <glyph glyph-name="Idotaccent" unicode="&#x130;" horiz-adv-x="320" 
d="M114 743q0 13 16.5 31.5t27.5 18.5q12 0 30 -14.5t18 -27.5q0 -14 -16 -32t-28 -18t-30 14.5t-18 27.5zM196 554v-496l74 -44v-14h-220v15l74 43v496l-74 44v14h220v-15z" />
    <glyph glyph-name="dotlessi" unicode="&#x131;" horiz-adv-x="266" 
d="M27 0v16l75 34v342l-73 14v15l108 36h31v-407l72 -34v-16h-213z" />
    <glyph glyph-name="IJ" unicode="&#x132;" horiz-adv-x="699" 
d="M196 554v-496l74 -44v-14h-220v15l74 43v496l-74 44v14h220v-15zM376 83l66 -66q70 20 70 101v436l-89 44v14h234v-15l-74 -43v-406q0 -75 -51.5 -116.5t-123.5 -41.5q-39 0 -68 11l14 82h22z" />
    <glyph glyph-name="ij" unicode="&#x133;" horiz-adv-x="520" 
d="M347 593q0 13 16.5 31.5t27.5 18.5q12 0 30.5 -14.5t18.5 -27.5q0 -14 -16.5 -32t-27.5 -18q-13 0 -31 14.5t-18 27.5zM88 593q0 13 16.5 31.5t27.5 18.5q12 0 30.5 -14.5t18.5 -27.5q0 -14 -16.5 -32t-27.5 -18q-13 0 -31 14.5t-18 27.5zM27 0v16l75 34v342l-73 14v15
l108 39h31v-410l72 -34v-16h-213zM427 460v-450q0 -51 -9.5 -93t-30 -78.5t-58.5 -56.5t-90 -20q-21 0 -43 6l12 69h24l50 -47q24 4 39 14t27.5 48.5t12.5 105.5v434l-73 14v15l108 39h31z" />
    <glyph glyph-name="Jcircumflex" unicode="&#x134;" horiz-adv-x="379" 
d="M239 829l109 -168h-23l-103 98l-102 -98h-23l109 168h33zM56 83l66 -66q70 20 70 101v436l-89 44v14h234v-15l-74 -43v-406q0 -75 -51.5 -116.5t-123.5 -41.5q-39 0 -68 11l14 82h22z" />
    <glyph glyph-name="jcircumflex" unicode="&#x135;" horiz-adv-x="254" 
d="M141 679l109 -168h-23l-103 98l-102 -98h-23l109 168h33zM161 460v-450q0 -51 -9.5 -93t-30 -78.5t-58.5 -56.5t-90 -20q-21 0 -43 6l12 69h24l50 -47q24 4 39 14t27.5 48.5t12.5 105.5v434l-73 14v15l108 39h31z" />
    <glyph glyph-name="Kcommaaccent" unicode="&#x136;" horiz-adv-x="612" 
d="M196 554v-496l74 -44v-14h-220v15l74 43v496l-74 44v14h220v-15zM614 15v-15h-130l-278 327l257 230l-67 40v15h187v-15l-73 -43l-226 -208l254 -288zM272 -93q0 15 14 30.5t26 15.5q14 0 34 -24.5t20 -50.5q0 -60 -86 -145l-13 10q49 65 49 93q0 20 -22 39t-22 32z" />
    <glyph glyph-name="kcommaaccent" unicode="&#x137;" horiz-adv-x="513" 
d="M233 16v-16h-213v16l75 34v573l-71 20v13l115 37h31l-9 -91v-380l193 175l-53 37v16h181v-16l-67 -37l-134 -114l172 -233l65 -34v-16h-119l-171 238l-67 -57v-131zM233 -93q0 15 14 30.5t26 15.5q14 0 34 -24.5t20 -50.5q0 -60 -86 -145l-13 10q49 65 49 93q0 20 -22 39
t-22 32z" />
    <glyph glyph-name="Lacute" unicode="&#x139;" horiz-adv-x="522" 
d="M135 661l79 168l72 -26l-128 -142h-23zM50 0v15l74 43v496l-74 44v14h245v-15l-99 -43v-520h198l83 115h24l-29 -149h-422z" />
    <glyph glyph-name="lacute" unicode="&#x13a;" horiz-adv-x="256" 
d="M78 736l78 168l72 -26l-127 -142h-23zM161 602v-552l72 -34v-16h-213v16l75 34v573l-71 20v13l115 37h31z" />
    <glyph glyph-name="Lcommaaccent" unicode="&#x13b;" horiz-adv-x="522" 
d="M50 0v15l74 43v496l-74 44v14h245v-15l-99 -43v-520h198l83 115h24l-29 -149h-422zM202 -93q0 15 14 30.5t26 15.5q14 0 34 -24.5t20 -50.5q0 -60 -86 -145l-13 10q49 65 49 93q0 20 -22 39t-22 32z" />
    <glyph glyph-name="lcommaaccent" unicode="&#x13c;" horiz-adv-x="256" 
d="M161 602v-552l72 -34v-16h-213v16l75 34v573l-71 20v13l115 37h31zM82 -93q0 15 14 30.5t26 15.5q14 0 34 -24.5t20 -50.5q0 -60 -86 -145l-13 10q49 65 49 93q0 20 -22 39t-22 32z" />
    <glyph glyph-name="Lcaron" unicode="&#x13d;" horiz-adv-x="561" 
d="M367 647q4 16 18 27t28 11q12 0 30 -21t18 -45q0 -49 -66 -148l-17 3q23 67 23 97q0 41 -34 76zM50 0v15l74 43v496l-74 44v14h245v-15l-99 -43v-520h198l83 115h24l-29 -149h-422z" />
    <glyph glyph-name="lcaron" unicode="&#x13e;" horiz-adv-x="310" 
d="M161 602v-552l72 -34v-16h-213v16l75 34v573l-71 20v13l115 37h31zM214 647q4 16 18 27t28 11q12 0 30 -21t18 -45q0 -49 -66 -148l-17 3q23 67 23 97q0 41 -34 76z" />
    <glyph glyph-name="Ldot" unicode="&#x13f;" horiz-adv-x="583" 
d="M397 313q0 13 16.5 31.5t27.5 18.5q12 0 30 -14.5t18 -27.5q0 -14 -16 -32t-28 -18t-30 14.5t-18 27.5zM50 0v15l74 43v496l-74 44v14h245v-15l-99 -43v-520h198l83 115h24l-29 -149h-422z" />
    <glyph glyph-name="ldot" unicode="&#x140;" horiz-adv-x="348" 
d="M161 602v-552l72 -34v-16h-213v16l75 34v573l-71 20v13l115 37h31zM249 253q0 14 16 32t28 18t30 -14.5t18 -27.5q0 -14 -16 -31.5t-28 -17.5t-30 14.5t-18 26.5z" />
    <glyph glyph-name="Lslash" unicode="&#x141;" horiz-adv-x="522" 
d="M50 0v15l74 43v215l-74 -31v38l74 31v243l-74 44v14h245v-15l-99 -43v-212l124 52v-38l-124 -52v-270h198l83 115h24l-29 -149h-422z" />
    <glyph glyph-name="lslash" unicode="&#x142;" horiz-adv-x="256" 
d="M233 0h-213v16l75 34v252l-75 -32v37l75 32v284l-71 20v13l115 37h31l-9 -91v-234l72 31v-38l-72 -31v-280l72 -34v-16z" />
    <glyph glyph-name="Nacute" unicode="&#x143;" horiz-adv-x="686" 
d="M287 661l79 168l72 -26l-128 -142h-23zM233 14v-14h-185v15l74 43v496l-74 44v14h133l310 -411l32 -60v413l-69 44v14h184v-15l-74 -43v-551h-27l-349 473l-24 42v-460z" />
    <glyph glyph-name="nacute" unicode="&#x144;" horiz-adv-x="535" 
d="M213 511l78 168l72 -26l-127 -142h-23zM240 16v-16h-213v16l75 34v342l-73 14v15l108 39h31v-59q3 2 10 6q85 48 122 52l13 1q57 0 95.5 -29t38.5 -85v-296l75 -34v-16h-173v16l32 34v264q0 37 -27.5 63t-69.5 26q-58 0 -116 -29v-324z" />
    <glyph glyph-name="Ncommaaccent" unicode="&#x145;" horiz-adv-x="686" 
d="M233 14v-14h-185v15l74 43v496l-74 44v14h133l310 -411l32 -60v413l-69 44v14h184v-15l-74 -43v-551h-27l-349 473l-24 42v-460zM288 -93q0 15 14 30.5t26 15.5q14 0 34 -24.5t20 -50.5q0 -60 -86 -145l-13 10q49 65 49 93q0 20 -22 39t-22 32z" />
    <glyph glyph-name="ncommaaccent" unicode="&#x146;" horiz-adv-x="535" 
d="M240 16v-16h-213v16l75 34v342l-73 14v15l108 39h31v-59q3 2 10 6q85 48 122 52l13 1q57 0 95.5 -29t38.5 -85v-296l75 -34v-16h-173v16l32 34v264q0 37 -27.5 63t-69.5 26q-58 0 -116 -29v-324zM229 -93q0 15 14 30.5t26 15.5q14 0 34 -24.5t20 -50.5q0 -60 -86 -145
l-13 10q49 65 49 93q0 20 -22 39t-22 32z" />
    <glyph glyph-name="Ncaron" unicode="&#x147;" horiz-adv-x="686" 
d="M468 829l-109 -168h-33l-109 168h23l102 -98l103 98h23zM233 14v-14h-185v15l74 43v496l-74 44v14h133l310 -411l32 -60v413l-69 44v14h184v-15l-74 -43v-551h-27l-349 473l-24 42v-460z" />
    <glyph glyph-name="ncaron" unicode="&#x148;" horiz-adv-x="535" 
d="M401 679l-109 -168h-33l-109 168h23l102 -98l103 98h23zM240 16v-16h-213v16l75 34v342l-73 14v15l108 39h31v-59q3 2 10 6q85 48 122 52l13 1q57 0 95.5 -29t38.5 -85v-296l75 -34v-16h-173v16l32 34v264q0 37 -27.5 63t-69.5 26q-58 0 -116 -29v-324z" />
    <glyph glyph-name="Eng" unicode="&#x14a;" horiz-adv-x="686" 
d="M414 -160q-31 0 -64 11l13 74h23l45 -57q92 13 92 125v28l-330 448l-29 50v-461l69 -44v-14h-185v15l74 43v496l-74 44v14h133l312 -412l30 -59v413l-69 44v14h184v-15l-74 -43v-549q-2 -81 -44.5 -123t-105.5 -42z" />
    <glyph glyph-name="eng" unicode="&#x14b;" horiz-adv-x="520" 
d="M259 -238q-15 0 -43 3l12 72h24l46 -41q21 0 33.5 4.5t25 20t18.5 50.5t6 90v353q0 37 -27.5 63t-69.5 26q-58 0 -116 -29v-324l70 -34v-16h-211v16l75 34v342l-73 14v15l108 39h31v-59q106 59 143 59q59 0 97.5 -29t38.5 -85v-336q0 -51 -9.5 -93t-30 -78.5t-58.5 -56.5
t-90 -20z" />
    <glyph glyph-name="Omacron" unicode="&#x14c;" horiz-adv-x="656" 
d="M450 745v-15l-14 -21h-199v15l14 21h199zM605 318q0 -145 -86.5 -236.5t-205.5 -91.5q-114 0 -188 79.5t-74 225.5q0 145 87 236t211 91q118 0 187 -81.5t69 -222.5zM539 295q0 133 -67.5 204.5t-160.5 71.5q-101 0 -147 -56.5t-46 -196.5q0 -132 68 -204.5t159 -72.5
q102 0 148 56.5t46 197.5z" />
    <glyph glyph-name="omacron" unicode="&#x14d;" horiz-adv-x="526" 
d="M374 595v-15l-14 -21h-199v15l14 21h199zM473 233q0 -111 -65 -177t-161 -66q-87 0 -140.5 62t-53.5 165q0 111 65.5 177t161.5 66q87 0 140 -62t53 -165zM405 199q0 99 -40 155.5t-111 56.5q-74 0 -103.5 -34t-29.5 -126q0 -98 40.5 -155.5t110.5 -57.5q75 0 104 34.5
t29 126.5z" />
    <glyph glyph-name="Obreve" unicode="&#x14e;" horiz-adv-x="656" 
d="M327 717q50 0 72 30.5t29 81.5h23q0 -76 -31 -122t-96 -46q-123 0 -123 168h23q14 -112 103 -112zM605 318q0 -145 -86.5 -236.5t-205.5 -91.5q-114 0 -188 79.5t-74 225.5q0 145 87 236t211 91q118 0 187 -81.5t69 -222.5zM539 295q0 133 -67.5 204.5t-160.5 71.5
q-101 0 -147 -56.5t-46 -196.5q0 -132 68 -204.5t159 -72.5q102 0 148 56.5t46 197.5z" />
    <glyph glyph-name="obreve" unicode="&#x14f;" horiz-adv-x="526" 
d="M268 567q50 0 72 30.5t29 81.5h23q0 -76 -31 -122t-96 -46q-123 0 -123 168h23q14 -112 103 -112zM473 233q0 -111 -65 -177t-161 -66q-87 0 -140.5 62t-53.5 165q0 111 65.5 177t161.5 66q87 0 140 -62t53 -165zM405 199q0 99 -40 155.5t-111 56.5q-74 0 -103.5 -34
t-29.5 -126q0 -98 40.5 -155.5t110.5 -57.5q75 0 104 34.5t29 126.5z" />
    <glyph glyph-name="Ohungarumlaut" unicode="&#x150;" horiz-adv-x="656" 
d="M365 661l79 168l72 -26l-128 -142h-23zM220 661l79 168l72 -26l-128 -142h-23zM605 318q0 -145 -86.5 -236.5t-205.5 -91.5q-114 0 -188 79.5t-74 225.5q0 145 87 236t211 91q118 0 187 -81.5t69 -222.5zM539 295q0 133 -67.5 204.5t-160.5 71.5q-101 0 -147 -56.5
t-46 -196.5q0 -132 68 -204.5t159 -72.5q102 0 148 56.5t46 197.5z" />
    <glyph glyph-name="ohungarumlaut" unicode="&#x151;" horiz-adv-x="526" 
d="M305 511l79 168l72 -26l-128 -142h-23zM160 511l79 168l72 -26l-128 -142h-23zM473 233q0 -111 -65 -177t-161 -66q-87 0 -140.5 62t-53.5 165q0 111 65.5 177t161.5 66q87 0 140 -62t53 -165zM405 199q0 99 -40 155.5t-111 56.5q-74 0 -103.5 -34t-29.5 -126
q0 -98 40.5 -155.5t110.5 -57.5q75 0 104 34.5t29 126.5z" />
    <glyph glyph-name="OE" unicode="&#x152;" horiz-adv-x="866" 
d="M345 40q79 0 123 34v463q-73 36 -157 36q-98 0 -145.5 -58t-47.5 -197q0 -132 68 -205t159 -73zM394 0v1q-41 -11 -81 -11q-111 0 -186.5 80t-75.5 225q0 148 90 237.5t219 89.5q46 0 82 -10h355l-21 -122h-24l-50 88h-163v-244h57l132 8l-9 -49l-121 13h-59v-272h169
l80 107h25l-28 -141h-391z" />
    <glyph glyph-name="oe" unicode="&#x153;" horiz-adv-x="827" 
d="M571 421q-44 -1 -67.5 -30.5t-28.5 -103.5h219q0 133 -123 134zM405 199q0 99 -40 155.5t-111 56.5q-74 0 -103.5 -34t-29.5 -126q0 -98 40.5 -155.5t110.5 -57.5q75 0 104 34.5t29 126.5zM777 65q-35 -24 -57.5 -37.5t-53.5 -25.5t-57 -12q-131 0 -176 102
q-59 -102 -191 -102q-83 0 -136 62.5t-53 164.5q0 111 66.5 177t165.5 66q112 0 158 -99q54 99 163 99q159 0 159 -170q0 -32 -1 -37h-291v-12q0 -97 48 -145.5t126 -48.5q61 0 124 40z" />
    <glyph glyph-name="Racute" unicode="&#x154;" horiz-adv-x="579" 
d="M268 661l79 168l72 -26l-128 -142h-23zM256 315q76 0 108 26t32 91q0 70 -40.5 108t-112.5 38h-47v-257q28 -6 60 -6zM295 14v-14h-245v15l74 43v496l-74 44v14h238q87 0 137.5 -39t50.5 -105q0 -106 -122 -160l166 -256l64 -38v-14h-124l-172 287l3 2q-29 -6 -56 -6h-39
v-225z" />
    <glyph glyph-name="racute" unicode="&#x155;" horiz-adv-x="355" 
d="M126 511l78 168l72 -26l-127 -142h-23zM260 16v-16h-233v16l75 34v342l-73 14v15l108 39h31v-61q81 61 126 61q29 0 48 -10l-14 -84h-22l-73 35q-29 -4 -65 -27v-324z" />
    <glyph glyph-name="Rcommaaccent" unicode="&#x156;" horiz-adv-x="579" 
d="M256 315q76 0 108 26t32 91q0 70 -40.5 108t-112.5 38h-47v-257q28 -6 60 -6zM295 14v-14h-245v15l74 43v496l-74 44v14h238q87 0 137.5 -39t50.5 -105q0 -106 -122 -160l166 -256l64 -38v-14h-124l-172 287l3 2q-29 -6 -56 -6h-39v-225zM239 -93q0 15 14 30.5t26 15.5
q14 0 34 -24.5t20 -50.5q0 -60 -86 -145l-13 10q49 65 49 93q0 20 -22 39t-22 32z" />
    <glyph glyph-name="rcommaaccent" unicode="&#x157;" horiz-adv-x="355" 
d="M260 16v-16h-233v16l75 34v342l-73 14v15l108 39h31v-61q81 61 126 61q29 0 48 -10l-14 -84h-22l-73 35q-29 -4 -65 -27v-324zM104 -93q0 15 14 30.5t26 15.5q14 0 34 -24.5t20 -50.5q0 -60 -86 -145l-13 10q49 65 49 93q0 20 -22 39t-22 32z" />
    <glyph glyph-name="Rcaron" unicode="&#x158;" horiz-adv-x="579" 
d="M414 829l-109 -168h-33l-109 168h23l102 -98l103 98h23zM256 315q76 0 108 26t32 91q0 70 -40.5 108t-112.5 38h-47v-257q28 -6 60 -6zM295 14v-14h-245v15l74 43v496l-74 44v14h238q87 0 137.5 -39t50.5 -105q0 -106 -122 -160l166 -256l64 -38v-14h-124l-172 287l3 2
q-29 -6 -56 -6h-39v-225z" />
    <glyph glyph-name="rcaron" unicode="&#x159;" horiz-adv-x="355" 
d="M311 679l-109 -168h-33l-109 168h23l102 -98l103 98h23zM260 16v-16h-233v16l75 34v342l-73 14v15l108 39h31v-61q81 61 126 61q29 0 48 -10l-14 -84h-22l-73 35q-29 -4 -65 -27v-324z" />
    <glyph glyph-name="Sacute" unicode="&#x15a;" horiz-adv-x="502" 
d="M227 661l79 168l72 -26l-128 -142h-23zM262 282l-55 22q-64 27 -95 63.5t-31 89.5q0 71 58.5 118t156.5 47q81 0 140 -26l-21 -123h-25l-44 93q-46 17 -105 17q-48 0 -74.5 -24t-26.5 -69q0 -51 28 -81.5t81 -53.5l55 -23q77 -31 106 -70t29 -91q0 -77 -63 -129t-157 -52
q-91 0 -157 25l24 127h25l32 -95q37 -16 121 -18q47 0 80.5 27.5t33.5 81.5q0 48 -26.5 82.5t-89.5 61.5z" />
    <glyph glyph-name="sacute" unicode="&#x15b;" horiz-adv-x="402" 
d="M140 511l78 168l72 -26l-127 -142h-23zM205 198l-51 21q-97 41 -97 120q0 49 50.5 85t117.5 36q70 0 124 -22l-15 -80h-22l-54 64q-26 6 -59 6q-81 0 -81 -68q0 -33 22.5 -53.5t63.5 -38.5l49 -20q53 -23 78.5 -50.5t25.5 -72.5q0 -57 -56.5 -96t-123.5 -39
q-86 0 -135 20l16 84h26l50 -62q36 -9 57 -9q50 0 75.5 18t25.5 63q0 33 -18.5 53.5t-68.5 40.5z" />
    <glyph glyph-name="Scircumflex" unicode="&#x15c;" horiz-adv-x="502" 
d="M291 829l109 -168h-23l-103 98l-102 -98h-23l109 168h33zM262 282l-55 22q-64 27 -95 63.5t-31 89.5q0 71 58.5 118t156.5 47q81 0 140 -26l-21 -123h-25l-44 93q-46 17 -105 17q-48 0 -74.5 -24t-26.5 -69q0 -51 28 -81.5t81 -53.5l55 -23q77 -31 106 -70t29 -91
q0 -77 -63 -129t-157 -52q-91 0 -157 25l24 127h25l32 -95q37 -16 121 -18q47 0 80.5 27.5t33.5 81.5q0 48 -26.5 82.5t-89.5 61.5z" />
    <glyph glyph-name="scircumflex" unicode="&#x15d;" horiz-adv-x="402" 
d="M225 679l109 -168h-23l-103 98l-102 -98h-23l109 168h33zM205 198l-51 21q-97 41 -97 120q0 49 50.5 85t117.5 36q70 0 124 -22l-15 -80h-22l-54 64q-26 6 -59 6q-81 0 -81 -68q0 -33 22.5 -53.5t63.5 -38.5l49 -20q53 -23 78.5 -50.5t25.5 -72.5q0 -57 -56.5 -96
t-123.5 -39q-86 0 -135 20l16 84h26l50 -62q36 -9 57 -9q50 0 75.5 18t25.5 63q0 33 -18.5 53.5t-68.5 40.5z" />
    <glyph glyph-name="Scedilla" unicode="&#x15e;" horiz-adv-x="502" 
d="M174 -205l-7 28q34 0 50 0.5t31.5 3.5t21 9t5.5 17q0 18 -15.5 30.5t-61.5 23.5l30 83h-9q-91 0 -157 25l24 127h25l32 -95q37 -16 121 -18q47 0 80.5 27.5t33.5 81.5q0 48 -26.5 82.5t-89.5 61.5l-55 22q-64 27 -95 63.5t-31 89.5q0 71 58.5 118t156.5 47q81 0 140 -26
l-21 -123h-25l-44 93q-46 17 -105 17q-48 0 -74.5 -24t-26.5 -69q0 -51 28 -81.5t81 -53.5l55 -23q77 -31 106 -70t29 -91q0 -70 -53.5 -120.5t-136.5 -58.5l-15 -51q48 -13 70 -29t22 -45q0 -32 -42.5 -51t-109.5 -21z" />
    <glyph glyph-name="scedilla" unicode="&#x15f;" horiz-adv-x="402" 
d="M121 -205l-7 28q34 0 50 0.5t31.5 3.5t21 9t5.5 17q0 19 -15.5 32t-61.5 24l29 81q-84 0 -132 20l16 84h26l50 -62q36 -9 57 -9q50 0 75.5 18t25.5 63q0 33 -18.5 53.5t-68.5 40.5l-51 21q-97 41 -97 120q0 49 50.5 85t117.5 36q70 0 124 -22l-15 -80h-22l-54 64
q-26 6 -59 6q-81 0 -81 -68q0 -33 22.5 -53.5t63.5 -38.5l49 -20q53 -23 78.5 -50.5t25.5 -72.5q0 -52 -48.5 -90t-112.5 -44l-14 -48q47 -13 69 -30t22 -46q0 -32 -42.5 -51t-109.5 -21z" />
    <glyph glyph-name="Scaron" unicode="&#x160;" horiz-adv-x="502" 
d="M403 829l-109 -168h-33l-109 168h23l102 -98l103 98h23zM262 282l-55 22q-64 27 -95 63.5t-31 89.5q0 71 58.5 118t156.5 47q81 0 140 -26l-21 -123h-25l-44 93q-46 17 -105 17q-48 0 -74.5 -24t-26.5 -69q0 -51 28 -81.5t81 -53.5l55 -23q77 -31 106 -70t29 -91
q0 -77 -63 -129t-157 -52q-91 0 -157 25l24 127h25l32 -95q37 -16 121 -18q47 0 80.5 27.5t33.5 81.5q0 48 -26.5 82.5t-89.5 61.5z" />
    <glyph glyph-name="scaron" unicode="&#x161;" horiz-adv-x="402" 
d="M325 679l-109 -168h-33l-109 168h23l102 -98l103 98h23zM205 198l-51 21q-97 41 -97 120q0 49 50.5 85t117.5 36q70 0 124 -22l-15 -80h-22l-54 64q-26 6 -59 6q-81 0 -81 -68q0 -33 22.5 -53.5t63.5 -38.5l49 -20q53 -23 78.5 -50.5t25.5 -72.5q0 -57 -56.5 -96
t-123.5 -39q-86 0 -135 20l16 84h26l50 -62q36 -9 57 -9q50 0 75.5 18t25.5 63q0 33 -18.5 53.5t-68.5 40.5z" />
    <glyph glyph-name="Tcommaaccent" unicode="&#x162;" horiz-adv-x="555" 
d="M390 14v-14h-240v15l84 43v520h-125l-73 -94h-24l21 128h510l-22 -128h-24l-54 94h-137v-520zM224 -93q0 15 14 30.5t26 15.5q14 0 34 -24.5t20 -50.5q0 -60 -86 -145l-13 10q49 65 49 93q0 20 -22 39t-22 32z" />
    <glyph glyph-name="tcommaaccent" unicode="&#x163;" horiz-adv-x="335" 
d="M334 36q-84 -46 -128 -46q-45 0 -81.5 29t-35.5 72l4 325h-73v15l115 96h24l-1 -77h51l108 5l-8 -47l-100 8h-51l-4 -285q-1 -41 25 -64.5t60 -23.5q43 0 90 14zM153 -93q0 15 14 30.5t26 15.5q14 0 34 -24.5t20 -50.5q0 -60 -86 -145l-13 10q49 65 49 93q0 20 -22 39
t-22 32z" />
    <glyph glyph-name="Tcaron" unicode="&#x164;" horiz-adv-x="555" 
d="M403 829l-109 -168h-33l-109 168h23l102 -98l103 98h23zM390 14v-14h-240v15l84 43v520h-125l-73 -94h-24l21 128h510l-22 -128h-24l-54 94h-137v-520z" />
    <glyph glyph-name="tcaron" unicode="&#x165;" horiz-adv-x="335" 
d="M233 677q4 16 18 27t28 11q12 0 30 -21t18 -45q0 -49 -66 -148l-17 3q23 67 23 97q0 41 -34 76zM334 36q-84 -46 -128 -46q-45 0 -81.5 29t-35.5 72l4 325h-73v15l115 96h24l-1 -77h51l108 5l-8 -47l-100 8h-51l-4 -285q-1 -41 25 -64.5t60 -23.5q43 0 90 14z" />
    <glyph glyph-name="Tbar" unicode="&#x166;" horiz-adv-x="555" 
d="M390 14v-14h-240v15l84 43v250h-140v31h140v239h-125l-73 -94h-24l21 128h510l-22 -128h-24l-54 94h-137v-239h140v-31h-140v-250z" />
    <glyph glyph-name="tbar" unicode="&#x167;" horiz-adv-x="335" 
d="M334 36q-84 -46 -128 -46q-45 0 -81.5 29t-35.5 72l2 161h-63v36h63l2 128h-73v15l115 96h24l-1 -77h51l108 5l-8 -47l-100 8h-51l-2 -128h146v-36h-146l-2 -121q-1 -41 25 -64.5t60 -23.5q43 0 90 14z" />
    <glyph glyph-name="Utilde" unicode="&#x168;" horiz-adv-x="660" 
d="M414 757q15 0 28 8t20 15.5t22 25.5l8 -11q-21 -36 -31 -50.5t-24.5 -26t-31.5 -11.5q-21 0 -65 15t-63 15q-36 0 -76 -43l-6 11q36 50 52.5 65t41.5 15q22 0 66.5 -14t58.5 -14zM108 197v357l-74 44v14h220v-15l-74 -43v-335q0 -171 179 -171q69 0 110 38.5t41 111.5
v356l-74 44v14h190v-15l-74 -43v-331q0 -103 -64 -168t-170 -65q-100 0 -155 53t-55 154z" />
    <glyph glyph-name="utilde" unicode="&#x169;" horiz-adv-x="534" 
d="M340 607q15 0 28 8t20 15.5t22 25.5l8 -11q-21 -36 -31 -50.5t-24.5 -26t-31.5 -11.5q-21 0 -65 15t-63 15q-36 0 -76 -43l-6 11q36 50 52.5 65t41.5 15q22 0 66.5 -14t58.5 -14zM402 -10h-31v59q-58 -32 -91.5 -45.5t-64.5 -13.5q-53 0 -88 30.5t-35 83.5v288l-74 19v13
l118 36h31l-10 -70v-253q0 -39 25.5 -64.5t68.5 -25.5q49 0 120 29v316l-76 19v13l120 36h31l-10 -70v-328l86 -20v-14z" />
    <glyph glyph-name="Umacron" unicode="&#x16a;" horiz-adv-x="660" 
d="M452 745v-15l-14 -21h-199v15l14 21h199zM108 197v357l-74 44v14h220v-15l-74 -43v-335q0 -171 179 -171q69 0 110 38.5t41 111.5v356l-74 44v14h190v-15l-74 -43v-331q0 -103 -64 -168t-170 -65q-100 0 -155 53t-55 154z" />
    <glyph glyph-name="umacron" unicode="&#x16b;" horiz-adv-x="534" 
d="M376 595v-15l-14 -21h-199v15l14 21h199zM402 -10h-31v59q-58 -32 -91.5 -45.5t-64.5 -13.5q-53 0 -88 30.5t-35 83.5v288l-74 19v13l118 36h31l-10 -70v-253q0 -39 25.5 -64.5t68.5 -25.5q49 0 120 29v316l-76 19v13l120 36h31l-10 -70v-328l86 -20v-14z" />
    <glyph glyph-name="Ubreve" unicode="&#x16c;" horiz-adv-x="660" 
d="M346 717q50 0 72 30.5t29 81.5h23q0 -76 -31 -122t-96 -46q-123 0 -123 168h23q14 -112 103 -112zM108 197v357l-74 44v14h220v-15l-74 -43v-335q0 -171 179 -171q69 0 110 38.5t41 111.5v356l-74 44v14h190v-15l-74 -43v-331q0 -103 -64 -168t-170 -65q-100 0 -155 53
t-55 154z" />
    <glyph glyph-name="ubreve" unicode="&#x16d;" horiz-adv-x="534" 
d="M270 567q50 0 72 30.5t29 81.5h23q0 -76 -31 -122t-96 -46q-123 0 -123 168h23q14 -112 103 -112zM402 -10h-31v59q-58 -32 -91.5 -45.5t-64.5 -13.5q-53 0 -88 30.5t-35 83.5v288l-74 19v13l118 36h31l-10 -70v-253q0 -39 25.5 -64.5t68.5 -25.5q49 0 120 29v316l-76 19
v13l120 36h31l-10 -70v-328l86 -20v-14z" />
    <glyph glyph-name="Uring" unicode="&#x16e;" horiz-adv-x="660" 
d="M265 758q0 34 23.5 58t57.5 24q35 0 57.5 -21.5t22.5 -60.5q0 -34 -23.5 -58t-56.5 -24q-36 0 -58.5 21.5t-22.5 60.5zM293 758q0 -25 14 -40.5t37 -15.5t38 15.5t15 40.5q0 27 -14.5 42.5t-38.5 15.5q-23 0 -37 -15.5t-14 -42.5zM108 197v357l-74 44v14h220v-15l-74 -43
v-335q0 -171 179 -171q69 0 110 38.5t41 111.5v356l-74 44v14h190v-15l-74 -43v-331q0 -103 -64 -168t-170 -65q-100 0 -155 53t-55 154z" />
    <glyph glyph-name="uring" unicode="&#x16f;" horiz-adv-x="534" 
d="M183 608q0 34 23.5 58t57.5 24q35 0 57.5 -21.5t22.5 -60.5q0 -34 -23.5 -58t-56.5 -24q-36 0 -58.5 21.5t-22.5 60.5zM211 608q0 -25 14 -40.5t37 -15.5t38 15.5t15 40.5q0 27 -14.5 42.5t-38.5 15.5q-23 0 -37 -15.5t-14 -42.5zM402 -10h-31v59q-58 -32 -91.5 -45.5
t-64.5 -13.5q-53 0 -88 30.5t-35 83.5v288l-74 19v13l118 36h31l-10 -70v-253q0 -39 25.5 -64.5t68.5 -25.5q49 0 120 29v316l-76 19v13l120 36h31l-10 -70v-328l86 -20v-14z" />
    <glyph glyph-name="Uhungarumlaut" unicode="&#x170;" horiz-adv-x="660" 
d="M357 661l79 168l72 -26l-128 -142h-23zM212 661l79 168l72 -26l-128 -142h-23zM108 197v357l-74 44v14h220v-15l-74 -43v-335q0 -171 179 -171q69 0 110 38.5t41 111.5v356l-74 44v14h190v-15l-74 -43v-331q0 -103 -64 -168t-170 -65q-100 0 -155 53t-55 154z" />
    <glyph glyph-name="uhungarumlaut" unicode="&#x171;" horiz-adv-x="534" 
d="M311 511l79 168l72 -26l-128 -142h-23zM166 511l79 168l72 -26l-128 -142h-23zM402 -10h-31v59q-58 -32 -91.5 -45.5t-64.5 -13.5q-53 0 -88 30.5t-35 83.5v288l-74 19v13l118 36h31l-10 -70v-253q0 -39 25.5 -64.5t68.5 -25.5q49 0 120 29v316l-76 19v13l120 36h31
l-10 -70v-328l86 -20v-14z" />
    <glyph glyph-name="Uogonek" unicode="&#x172;" horiz-adv-x="660" 
d="M345 -230q-29 0 -51.5 21.5t-22.5 53.5q0 42 28.5 82.5t75.5 68.5q-27 -6 -57 -6q-100 0 -155 53t-55 154v357l-74 44v14h220v-15l-74 -43v-335q0 -171 179 -171q69 0 110 38.5t41 111.5v356l-74 44v14h190v-15l-74 -43v-331q0 -75 -35 -131.5t-97 -82.5
q-104 -66 -104 -145q0 -24 15.5 -42t41.5 -18q16 0 40 8l5 -20q-9 -3 -22 -8l-19.5 -7.5t-15 -4.5t-16.5 -2z" />
    <glyph glyph-name="uogonek" unicode="&#x173;" horiz-adv-x="534" 
d="M425 -220q-29 0 -51.5 21.5t-22.5 53.5q0 44 29.5 85t79.5 68l-58 -18h-31v59q-58 -32 -91.5 -45.5t-64.5 -13.5q-53 0 -88 30.5t-35 83.5v288l-74 19v13l118 36h31l-10 -70v-253q0 -39 25.5 -64.5t68.5 -25.5q49 0 120 29v316l-76 19v13l120 36h31l-10 -70v-328l86 -20
v-14l-18 -6q-108 -68 -108 -148q0 -24 15.5 -42t41.5 -18q16 0 40 8l5 -20q-9 -3 -22 -8l-19.5 -7.5t-15 -4.5t-16.5 -2z" />
    <glyph glyph-name="Wcircumflex" unicode="&#x174;" horiz-adv-x="942" 
d="M500 829l109 -168h-23l-103 98l-102 -98h-23l109 168h33zM648 -15l-182 490l-178 -467l-41 -23l-182 569h-2l-65 43v15h219v-15l-82 -42l144 -462l190 519h14l194 -521l144 464l-71 42v15h193v-15l-73 -43h-1l-180 -546z" />
    <glyph glyph-name="wcircumflex" unicode="&#x175;" horiz-adv-x="724" 
d="M393 679l109 -168h-23l-103 98l-102 -98h-23l109 168h33zM519 14l-33 -24l-124 320l-130 -296l-33 -24l-145 410l-46 34v16h186v-16l-65 -37l106 -306l138 359h5l142 -357l97 304h-3l-53 37v16h162v-16l-58 -37l-130 -341l1 -3h-2z" />
    <glyph glyph-name="Ycircumflex" unicode="&#x176;" horiz-adv-x="634" 
d="M326 829l109 -168h-23l-103 98l-102 -98h-23l109 168h33zM416 0h-219v15l74 43v198l-192 298h-3l-64 43v15h227v-15l-81 -43l159 -251l154 251l-72 43v15h196v-15l-72 -43l-181 -292v-204l74 -44v-14z" />
    <glyph glyph-name="ycircumflex" unicode="&#x177;" horiz-adv-x="484" 
d="M282 679l109 -168h-23l-103 98l-102 -98h-23l109 168h33zM63 -238q-26 0 -53 10l14 74h17l54 -41q42 14 74.5 60.5t64.5 157.5l-18 3l-158 373l-49 35v16h186v-16l-61 -37l132 -304l111 304l-51 37v16h159v-16l-59 -37h-1l-158 -375q-66 -260 -204 -260z" />
    <glyph glyph-name="Ydieresis" unicode="&#x178;" horiz-adv-x="634" 
d="M366 738q0 12 13 27t24 15q10 0 25.5 -12.5t15.5 -23.5q0 -12 -14 -26.5t-24 -14.5t-25 12t-15 23zM196 738q0 12 13.5 27t23.5 15q11 0 26 -12.5t15 -23.5q0 -12 -13.5 -26.5t-23.5 -14.5t-25.5 12t-15.5 23zM416 0h-219v15l74 43v198l-192 298h-3l-64 43v15h227v-15
l-81 -43l159 -251l154 251l-72 43v15h196v-15l-72 -43l-181 -292v-204l74 -44v-14z" />
    <glyph glyph-name="Zacute" unicode="&#x179;" horiz-adv-x="560" 
d="M212 661l79 168l72 -26l-128 -142h-23zM497 0h-460v17l371 564h-252l-82 -114h-24l24 145h427v-19l-374 -562h290l87 124h24z" />
    <glyph glyph-name="zacute" unicode="&#x17a;" horiz-adv-x="434" 
d="M180 511l78 168l72 -26l-127 -142h-23zM392 0h-290l-2 -3l-4 3h-61v18l264 398h-173l-68 -89h-16l21 123h327v-20l-265 -396h199l75 98h16z" />
    <glyph glyph-name="Zdotaccent" unicode="&#x17b;" horiz-adv-x="560" 
d="M231 743q0 13 16.5 31.5t27.5 18.5q12 0 30 -14.5t18 -27.5q0 -14 -16 -32t-28 -18t-30 14.5t-18 27.5zM497 0h-460v17l371 564h-252l-82 -114h-24l24 145h427v-19l-374 -562h290l87 124h24z" />
    <glyph glyph-name="zdotaccent" unicode="&#x17c;" horiz-adv-x="434" 
d="M199 595q0 14 16 32t28 18t30 -14.5t18 -27.5q0 -14 -16 -31.5t-28 -17.5t-30 14.5t-18 26.5zM392 0h-290l-2 -3l-4 3h-61v18l264 398h-173l-68 -89h-16l21 123h327v-20l-265 -396h199l75 98h16z" />
    <glyph glyph-name="Zcaron" unicode="&#x17d;" horiz-adv-x="560" 
d="M409 829l-109 -168h-33l-109 168h23l102 -98l103 98h23zM497 0h-460v17l371 564h-252l-82 -114h-24l24 145h427v-19l-374 -562h290l87 124h24z" />
    <glyph glyph-name="zcaron" unicode="&#x17e;" horiz-adv-x="434" 
d="M361 679l-109 -168h-33l-109 168h23l102 -98l103 98h23zM392 0h-290l-2 -3l-4 3h-61v18l264 398h-173l-68 -89h-16l21 123h327v-20l-265 -396h199l75 98h16z" />
    <glyph glyph-name="florin" unicode="&#x192;" horiz-adv-x="509" 
d="M31 -235q-7 0 -43 2l13 75h22l49 -45q23 0 41.5 22t24.5 63l71 534h-134v34h139v1q10 74 31.5 126.5t49.5 77.5t54.5 35.5t54.5 10.5q40 0 68 -9l-10 -76h-22l-76 48q-25 0 -45.5 -17.5t-25.5 -59.5l-19 -137h160v-34h-164l-57 -415q-17 -124 -66 -180t-116 -56z" />
    <glyph glyph-name="Acaron" unicode="&#x1cd;" horiz-adv-x="636" 
d="M456 829l-109 -168h-33l-109 168h23l102 -98l103 98h23zM412 275l-96 250l-102 -250h198zM196 15v-15h-193v15l73 43l229 546l40 23l224 -569l64 -43v-15h-221v15l84 43l-71 183h-225l-75 -184z" />
    <glyph glyph-name="acaron" unicode="&#x1ce;" horiz-adv-x="447" 
d="M340 679l-109 -168h-33l-109 168h23l102 -98l103 98h23zM320 -10h-31v52q-6 -3 -20 -12t-21 -12.5t-19.5 -10t-21.5 -9.5t-21 -5.5t-24 -2.5q-51 0 -87 30t-36 75q0 59 70 101.5t180 44.5v90q0 37 -27.5 66t-78.5 29q-8 0 -14 -2l-79 -83h-23l-6 70q51 22 69 29t44 13.5
t52 6.5q51 0 88 -27.5t37 -73.5v-297l71 -20v-14zM187 40q43 0 102 30v122q-36 6 -89 6q-44 0 -72.5 -21t-28.5 -57q0 -40 26 -60t62 -20z" />
    <glyph glyph-name="AEacute" unicode="&#x1fc;" horiz-adv-x="809" 
d="M435 661l79 168l72 -26l-128 -142h-23zM411 325v248l-139 -248h139zM200 15v-15h-194v15l64 40l296 524l-56 19v14h431l-21 -122h-24l-50 88h-163v-259h57l131 8l-9 -49l-120 13h-59v-257h169l80 107h24l-27 -141h-399v15l81 43v234h-158l-131 -234h1z" />
    <glyph glyph-name="aeacute" unicode="&#x1fd;" horiz-adv-x="705" 
d="M282 511l78 168l72 -26l-127 -142h-23zM450 421q-93 0 -98 -144h217q10 144 -119 144zM656 65q-36 -24 -58.5 -37.5t-53.5 -25.5t-57 -12q-111 0 -159 72q-44 -28 -95 -50t-74 -22q-49 0 -84.5 30.5t-35.5 74.5q0 69 64.5 120.5t185.5 50.5v65q0 37 -27.5 67.5
t-78.5 30.5q-9 0 -12 -1l-81 -87h-23l-6 70q13 5 35.5 14t31.5 12.5t25.5 9t27 8t25 4t30.5 1.5q38 0 68 -16.5t42 -44.5q52 63 139 63q159 0 159 -172q0 -23 -9 -47h-283v-2q0 -97 47.5 -145.5t125.5 -48.5q61 0 124 40zM190 41q60 0 125 43q-26 54 -26 134q-30 5 -78 5
q-55 0 -83.5 -27.5t-28.5 -69.5q0 -41 25 -63t66 -22z" />
    <glyph glyph-name="Oslashacute" unicode="&#x1fe;" horiz-adv-x="656" 
d="M278 661l79 168l72 -26l-128 -142h-23zM118 318q0 -153 92 -230l209 457q-49 30 -108 30q-98 0 -145.5 -59t-47.5 -198zM345 37q99 0 146.5 59t47.5 199q0 149 -89 228l-209 -457q49 -29 104 -29zM313 -10q-54 0 -99 19l-41 -91h-41l49 107q-130 78 -130 270
q0 151 86 239t212 88q53 0 97 -18l41 89h41l-48 -106q59 -36 92 -105.5t33 -163.5q0 -150 -85.5 -239t-206.5 -89z" />
    <glyph glyph-name="oslashacute" unicode="&#x1ff;" horiz-adv-x="526" 
d="M223 511l78 168l72 -26l-127 -142h-23zM121 251q0 -99 42 -157l162 298q-32 19 -71 19q-74 0 -103.5 -34t-29.5 -126zM272 38q75 0 104 34.5t29 126.5q0 115 -52 170l-165 -302q35 -29 84 -29zM247 -10q-49 0 -90 21l-45 -83h-40l56 103q-75 62 -75 186q0 112 64 177.5
t163 65.5q40 0 74 -14l42 76h40l-51 -93q88 -59 88 -196q0 -112 -63.5 -177.5t-162.5 -65.5z" />
    <glyph glyph-name="Scommaaccent" unicode="&#x218;" horiz-adv-x="502" 
d="M262 282l-55 22q-64 27 -95 63.5t-31 89.5q0 71 58.5 118t156.5 47q81 0 140 -26l-21 -123h-25l-44 93q-46 17 -105 17q-48 0 -74.5 -24t-26.5 -69q0 -51 28 -81.5t81 -53.5l55 -23q77 -31 106 -70t29 -91q0 -77 -63 -129t-157 -52q-91 0 -157 25l24 127h25l32 -95
q37 -16 121 -18q47 0 80.5 27.5t33.5 81.5q0 48 -26.5 82.5t-89.5 61.5zM201 -93q0 15 14 30.5t26 15.5q14 0 34 -24.5t20 -50.5q0 -60 -86 -145l-13 10q49 65 49 93q0 20 -22 39t-22 32z" />
    <glyph glyph-name="scommaaccent" unicode="&#x219;" horiz-adv-x="402" 
d="M205 198l-51 21q-97 41 -97 120q0 49 50.5 85t117.5 36q70 0 124 -22l-15 -80h-22l-54 64q-26 6 -59 6q-81 0 -81 -68q0 -33 22.5 -53.5t63.5 -38.5l49 -20q53 -23 78.5 -50.5t25.5 -72.5q0 -57 -56.5 -96t-123.5 -39q-86 0 -135 20l16 84h26l50 -62q36 -9 57 -9
q50 0 75.5 18t25.5 63q0 33 -18.5 53.5t-68.5 40.5zM153 -93q0 15 14 30.5t26 15.5q14 0 34 -24.5t20 -50.5q0 -60 -86 -145l-13 10q49 65 49 93q0 20 -22 39t-22 32z" />
    <glyph glyph-name="uni021A" unicode="&#x21a;" horiz-adv-x="555" 
d="M247 0h-97v15l84 43v520h-125l-73 -94h-24l21 128h510l-22 -128h-24l-54 94h-137v-520l84 -44v-14h-122l-18 -59q48 -13 70 -29t22 -45q0 -32 -42.5 -51t-109.5 -21l-7 28q34 0 50 0.5t31.5 3.5t21 9t5.5 17q0 18 -15.5 30.5t-61.5 23.5z" />
    <glyph glyph-name="uni021B" unicode="&#x21b;" horiz-adv-x="335" 
d="M281 -133q0 -32 -42.5 -51t-109.5 -21l-7 28q34 0 50 0.5t31.5 3.5t21 9t5.5 17q0 19 -15.5 32t-61.5 24l30 83q-39 7 -67 34.5t-27 64.5l4 325h-73v15l115 96h24l-1 -77h51l108 5l-8 -47l-100 8h-51l-4 -285q-1 -41 25 -64.5t60 -23.5q43 0 90 14l5 -21
q-84 -46 -128 -46h-2l-14 -47q47 -13 69 -30t22 -46z" />
    <glyph glyph-name="circumflex" unicode="&#x2c6;" 
d="M267 679l109 -168h-23l-103 98l-102 -98h-23l109 168h33z" />
    <glyph glyph-name="caron" unicode="&#x2c7;" 
d="M376 679l-109 -168h-33l-109 168h23l102 -98l103 98h23z" />
    <glyph glyph-name="breve" unicode="&#x2d8;" 
d="M251 567q50 0 72 30.5t29 81.5h23q0 -76 -31 -122t-96 -46q-123 0 -123 168h23q14 -112 103 -112z" />
    <glyph glyph-name="dotaccent" unicode="&#x2d9;" 
d="M204 595q0 14 16 32t28 18t30 -14.5t18 -27.5q0 -14 -16 -31.5t-28 -17.5t-30 14.5t-18 26.5z" />
    <glyph glyph-name="ring" unicode="&#x2da;" 
d="M170 608q0 34 23.5 58t57.5 24q35 0 57.5 -21.5t22.5 -60.5q0 -34 -23.5 -58t-56.5 -24q-36 0 -58.5 21.5t-22.5 60.5zM198 608q0 -25 14 -40.5t37 -15.5t38 15.5t15 40.5q0 27 -14.5 42.5t-38.5 15.5q-23 0 -37 -15.5t-14 -42.5z" />
    <glyph glyph-name="ogonek" unicode="&#x2db;" 
d="M175 -155q0 52 41.5 99.5t106.5 72.5l5 -5q-108 -68 -108 -148q0 -24 15.5 -42t41.5 -18q16 0 40 8l5 -20q-9 -3 -22 -8l-19.5 -7.5t-15 -4.5t-16.5 -2q-29 0 -51.5 21.5t-22.5 53.5z" />
    <glyph glyph-name="tilde" unicode="&#x2dc;" 
d="M315 607q15 0 28 8t20 15.5t22 25.5l8 -11q-21 -36 -31 -50.5t-24.5 -26t-31.5 -11.5q-21 0 -65 15t-63 15q-36 0 -76 -43l-6 11q36 50 52.5 65t41.5 15q22 0 66.5 -14t58.5 -14z" />
    <glyph glyph-name="hungarumlaut" unicode="&#x2dd;" 
d="M246 511l79 168l72 -26l-128 -142h-23zM101 511l79 168l72 -26l-128 -142h-23z" />
    <glyph glyph-name="numeralsigngreek" unicode="&#x374;" horiz-adv-x="247" 
d="M84 420l-26 7l56 268l79 -18z" />
    <glyph glyph-name="numeralsignlowergreek" unicode="&#x375;" horiz-adv-x="247" 
d="M58 -158l56 269l79 -19l-109 -257z" />
    <glyph glyph-name="questiongreek" unicode="&#x37e;" horiz-adv-x="247" 
d="M181 323q0 -15 -18 -34t-31 -19t-33.5 15.5t-20.5 29.5q0 15 18 35t31 20t33.5 -16.5t20.5 -30.5zM43 -158l56 268l80 -18l-109 -257z" />
    <glyph glyph-name="tonos" unicode="&#x384;" 
d="M250 511h-18l26 170l78 -13z" />
    <glyph glyph-name="dieresistonos" unicode="&#x385;" 
d="M239 526h-19l24 168l73 -12zM400 596q0 -12 -13.5 -25.5t-23.5 -13.5t-25.5 11t-15.5 22q0 12 13.5 25.5t23.5 13.5q11 0 26 -11t15 -22zM182 596q0 -12 -13.5 -25.5t-23.5 -13.5t-25 11t-15 22q0 12 13 25.5t24 13.5q10 0 25 -11t15 -22z" />
    <glyph glyph-name="Alphatonos" unicode="&#x386;" horiz-adv-x="636" 
d="M113 511h-22l18 170l78 -13zM412 275l-96 250l-102 -250h198zM196 15v-15h-193v15l73 43l229 546l40 23l224 -569l64 -43v-15h-221v15l84 43l-71 183h-225l-75 -184z" />
    <glyph glyph-name="anoteleia" unicode="&#x387;" horiz-adv-x="247" 
d="M191 341q0 -19 -24 -45t-41 -26t-43 22.5t-26 40.5q0 20 23.5 46t40.5 26t43.5 -23t26.5 -41z" />
    <glyph glyph-name="Epsilontonos" unicode="&#x388;" horiz-adv-x="522" 
d="M-75 511h-22l18 170l78 -13zM50 0v15l74 43v496l-74 44v14h404l-21 -122h-24l-50 88h-163v-246h57l131 8l-9 -49l-120 13h-59v-270h171v-3l78 103h23l-26 -134h-392z" />
    <glyph glyph-name="Etatonos" unicode="&#x389;" horiz-adv-x="712" 
d="M-75 511h-22l18 170l78 -13zM270 14v-14h-220v15l74 43v496l-74 44v14h220v-15l-74 -43v-221h320v221l-74 44v14h220v-15l-74 -43v-496l74 -44v-14h-220v15l74 43v245h-320v-245z" />
    <glyph glyph-name="Iotatonos" unicode="&#x38a;" horiz-adv-x="320" 
d="M-75 511h-22l18 170l78 -13zM270 0h-220v15l74 43v496l-74 44v14h220v-15l-74 -43v-496l74 -44v-14z" />
    <glyph glyph-name="Omicrontonos" unicode="&#x38c;" horiz-adv-x="656" 
d="M12 511h-22l18 170l78 -13zM605 318q0 -145 -86.5 -236.5t-205.5 -91.5q-114 0 -188 79.5t-74 225.5q0 145 87 236t211 91q118 0 187 -81.5t69 -222.5zM539 295q0 133 -67.5 204.5t-160.5 71.5q-101 0 -147 -56.5t-46 -196.5q0 -132 68 -204.5t159 -72.5q102 0 148 56.5
t46 197.5z" />
    <glyph glyph-name="Upsilontonos" unicode="&#x38e;" horiz-adv-x="617" 
d="M-97 511h-22l18 170l78 -13zM421 0h-219v15l74 43v144q0 164 -45 268.5t-132 104.5q-47 0 -78 -37l-15 15q-7 6 -7 14v7q55 50 124 50q55 0 93 -25t60 -73.5t32 -106.5t13 -137q9 87 34.5 162.5t72 127.5t103.5 52q58 0 80 -42l-18 -18q-18 8 -40 8q-58 0 -106 -53.5
t-74 -138t-26 -179.5v-143l74 -44v-14z" />
    <glyph glyph-name="Omegatonos" unicode="&#x38f;" horiz-adv-x="683" 
d="M27 511h-22l18 170l78 -13zM306 33v-33h-270l-24 129h23l47 -80h131q-65 46 -104 117t-39 159q0 137 88 217t211 80q110 0 179 -73.5t69 -179.5q0 -183 -148 -320h119l48 80h23l-24 -129h-255v29q103 77 136.5 142.5t33.5 152.5q0 115 -61.5 183t-151.5 68
q-204 0 -204 -231q0 -99 43 -183.5t130 -127.5z" />
    <glyph glyph-name="iotadieresistonos" unicode="&#x390;" horiz-adv-x="234" 
d="M90 526h-19l24 168l73 -12zM251 596q0 -12 -13.5 -25.5t-23.5 -13.5t-25.5 11t-15.5 22q0 12 13.5 25.5t23.5 13.5q11 0 26 -11t15 -22zM33 596q0 -12 -13.5 -25.5t-23.5 -13.5t-25 11t-15 22q0 12 13 25.5t24 13.5q10 0 25 -11t15 -22zM238 43q-39 -54 -93 -54
q-32 0 -51 22.5t-25 60.5q-4 28 -4 71v290l65 23v-310q0 -34 4 -51q8 -42 56 -42q27 0 48 4v-14z" />
    <glyph glyph-name="Alpha" unicode="&#x391;" horiz-adv-x="636" 
d="M412 275l-96 250l-102 -250h198zM196 15v-15h-193v15l73 43l229 546l40 23l224 -569l64 -43v-15h-221v15l84 43l-71 183h-225l-75 -184z" />
    <glyph glyph-name="Beta" unicode="&#x392;" horiz-adv-x="556" 
d="M188 -1v1h-138v15l74 43v496l-74 44v14h219q202 0 202 -137q0 -97 -112 -144q71 -13 108.5 -51.5t37.5 -91.5q0 -87 -69.5 -137.5t-170.5 -50.5h1zM271 332q66 0 93.5 26t27.5 82q0 138 -152 138q-11 0 -25.5 -0.5t-18.5 -0.5v-235q30 -10 75 -10zM284 32q78 0 110.5 29
t32.5 100q0 65 -45 103t-122 38q-33 0 -64 -4v-256q50 -10 88 -10z" />
    <glyph glyph-name="Gamma" unicode="&#x393;" horiz-adv-x="464" 
d="M295 15v-15h-245v14l74 44v496l-74 43v15h405l-24 -149h-26l-42 115h-167v-520z" />
    <glyph glyph-name="Delta" unicode="&#x394;" horiz-adv-x="605" 
d="M560 0h-525l-6 18l229 552l-1 3h3l12 30l33 24l261 -609zM480 51l-200 468l-187 -468h387z" />
    <glyph glyph-name="Epsilon" unicode="&#x395;" horiz-adv-x="522" 
d="M50 0v15l74 43v496l-74 44v14h404l-21 -122h-24l-50 88h-163v-246h57l131 8l-9 -49l-120 13h-59v-270h171v-3l78 103h23l-26 -134h-392z" />
    <glyph glyph-name="Zeta" unicode="&#x396;" horiz-adv-x="560" 
d="M497 0h-460v17l371 564h-252l-82 -114h-24l24 145h427v-19l-374 -562h290l87 124h24z" />
    <glyph glyph-name="Eta" unicode="&#x397;" horiz-adv-x="712" 
d="M270 14v-14h-220v15l74 43v496l-74 44v14h220v-15l-74 -43v-221h320v221l-74 44v14h220v-15l-74 -43v-496l74 -44v-14h-220v15l74 43v245h-320v-245z" />
    <glyph glyph-name="Theta" unicode="&#x398;" horiz-adv-x="660" 
d="M609 318q0 -145 -87 -236.5t-207 -91.5q-116 0 -190 79t-74 226q0 145 87.5 236t212.5 91q119 0 188.5 -81.5t69.5 -222.5zM543 295q0 133 -68 204.5t-162 71.5q-103 0 -149 -56.5t-46 -196.5q0 -132 68.5 -204.5t160.5 -72.5q103 0 149.5 56.5t46.5 197.5zM322 284
q-28 0 -82 -2l-29 -55h-25l41 150h27l-1 -39q52 -2 82 -2q32 0 86 2l30 54h25l-42 -149h-27v38q-39 3 -85 3z" />
    <glyph glyph-name="Iota" unicode="&#x399;" horiz-adv-x="320" 
d="M270 0h-220v15l74 43v496l-74 44v14h220v-15l-74 -43v-496l74 -44v-14z" />
    <glyph glyph-name="Kappa" unicode="&#x39a;" horiz-adv-x="612" 
d="M196 554v-496l74 -44v-14h-220v15l74 43v496l-74 44v14h220v-15zM614 15v-15h-130l-278 327l257 230l-67 40v15h187v-15l-73 -43l-226 -208l254 -288z" />
    <glyph glyph-name="Lambda" unicode="&#x39b;" horiz-adv-x="621" 
d="M192 0h-192v15l69 43l203 517v1l11 27l37 24l237 -569h1l63 -43v-15h-219v15l82 43h1l-191 466l-174 -466h1l71 -43v-15z" />
    <glyph glyph-name="Mu" unicode="&#x39c;" horiz-adv-x="857" 
d="M217 14v-14h-190v15l74 43l36 496l-74 44v14h151l204 -487l218 487h155v-15l-74 -43l30 -496l74 -44v-14h-220v15l74 43l-28 469l-221 -482l-41 -23l-210 507l-32 -471z" />
    <glyph glyph-name="Nu" unicode="&#x39d;" horiz-adv-x="686" 
d="M233 14v-14h-185v15l74 43v496l-74 44v14h133l310 -411l32 -60v413l-69 44v14h184v-15l-74 -43v-551h-27l-349 473l-24 42v-460z" />
    <glyph glyph-name="Xi" unicode="&#x39e;" horiz-adv-x="571" 
d="M495 461h-24l-40 103h-298l-58 -97h-24l26 151h27l33 -6h289l42 6h27v-157zM266 291q-52 0 -98 -3l-25 -50h-24l15 148h24l14 -46q40 -5 111 -5q60 0 103 4l24 49h24l-14 -147h-24l-17 46q-43 4 -113 4zM484 -3l-72 3h-277l-70 -3v135h24l35 -81h314l55 95h24z" />
    <glyph glyph-name="Omicron" unicode="&#x39f;" horiz-adv-x="656" 
d="M605 318q0 -145 -86.5 -236.5t-205.5 -91.5q-114 0 -188 79.5t-74 225.5q0 145 87 236t211 91q118 0 187 -81.5t69 -222.5zM539 295q0 133 -67.5 204.5t-160.5 71.5q-101 0 -147 -56.5t-46 -196.5q0 -132 68 -204.5t159 -72.5q102 0 148 56.5t46 197.5z" />
    <glyph glyph-name="Pi" unicode="&#x3a0;" horiz-adv-x="691" 
d="M270 14v-14h-220v15l74 43v496l-74 44v14h591v-15l-74 -43v-496l74 -44v-14h-220v15l74 43v523h-299v-523z" />
    <glyph glyph-name="Rho" unicode="&#x3a1;" horiz-adv-x="506" 
d="M295 0h-245v15l74 43v496l-74 44v14h236q92 0 144 -41.5t52 -118.5q0 -84 -72.5 -136t-184.5 -52q-21 0 -29 -1v-205l99 -44v-14zM247 300q79 0 117 31.5t38 99.5q0 71 -44 110t-112 39h-50v-276q23 -4 51 -4z" />
    <glyph glyph-name="Sigma" unicode="&#x3a3;" horiz-adv-x="542" 
d="M516 160l-32 -160h-445l-10 27l255 281l-258 279l10 25h447l-18 -125h-24l-54 99h-275l239 -259v-11l-230 -253h307l66 97h22z" />
    <glyph glyph-name="Tau" unicode="&#x3a4;" horiz-adv-x="555" 
d="M390 14v-14h-240v15l84 43v520h-125l-73 -94h-24l21 128h510l-22 -128h-24l-54 94h-137v-520z" />
    <glyph glyph-name="Upsilon" unicode="&#x3a5;" horiz-adv-x="617" 
d="M421 0h-219v15l74 43v144q0 164 -45 268.5t-132 104.5q-47 0 -78 -37l-15 15q-7 6 -7 14v7q55 50 124 50q55 0 93 -25t60 -73.5t32 -106.5t13 -137q9 87 34.5 162.5t72 127.5t103.5 52q58 0 80 -42l-18 -18q-18 8 -40 8q-58 0 -106 -53.5t-74 -138t-26 -179.5v-143
l74 -44v-14z" />
    <glyph glyph-name="Phi" unicode="&#x3a6;" horiz-adv-x="676" 
d="M441 0h-206v15l67 24v49q-115 6 -184.5 68t-69.5 173q0 118 68 181.5t186 70.5v50l-67 25v14h206v-15l-68 -24v-50q115 -6 185 -68t70 -173q0 -118 -68.5 -181.5t-186.5 -70.5v-49l68 -25v-14zM111 337q0 -99 50.5 -152.5t140.5 -61.5v424q-100 -4 -145.5 -55.5
t-45.5 -154.5zM565 332q0 99 -50.5 152.5t-141.5 61.5v-424q100 4 146 55.5t46 154.5z" />
    <glyph glyph-name="Chi" unicode="&#x3a7;" horiz-adv-x="617" 
d="M210 0h-204v15l76 40l187 262l-168 237l-73 43v15h248v-15l-89 -43l134 -191l132 192l-71 42v15h204v-15l-75 -39l-165 -230l192 -270l73 -43v-15h-248v15l89 43l-158 224l-155 -225l71 -42v-15z" />
    <glyph glyph-name="Psi" unicode="&#x3a8;" horiz-adv-x="682" 
d="M446 0h-200v18l66 35v160q-155 12 -195 123q-7 20 -18 73.5t-17 73.5q-6 22 -14 30t-27 8t-38 -13v12q29 35 43.5 46t31.5 11q18 0 31 -6.5t21 -19.5t12 -24.5t8 -28.5q5 -20 14 -71t16 -73q28 -97 132 -109v314l-66 36v17h200v-18l-66 -35v-313q103 17 131 108
q5 17 14 66.5t16 77.5q12 51 27 65t37 14q18 0 31 -11t43 -47v-12q-19 14 -38 14t-27 -8t-15 -31q-6 -21 -17 -74t-17 -72q-38 -107 -185 -122v-161l66 -36v-17z" />
    <glyph glyph-name="Omega" unicode="&#x3a9;" horiz-adv-x="683" 
d="M306 33v-33h-270l-24 129h23l47 -80h131q-65 46 -104 117t-39 159q0 137 88 217t211 80q110 0 179 -73.5t69 -179.5q0 -183 -148 -320h119l48 80h23l-24 -129h-255v29q103 77 136.5 142.5t33.5 152.5q0 115 -61.5 183t-151.5 68q-204 0 -204 -231q0 -99 43 -183.5
t130 -127.5z" />
    <glyph glyph-name="Iotadieresis" unicode="&#x3aa;" horiz-adv-x="320" 
d="M207 738q0 12 13 27t24 15q10 0 25.5 -12.5t15.5 -23.5q0 -12 -14 -26.5t-24 -14.5t-25 12t-15 23zM37 738q0 12 13.5 27t23.5 15q11 0 26 -12.5t15 -23.5q0 -12 -13.5 -26.5t-23.5 -14.5t-25.5 12t-15.5 23zM270 0h-220v15l74 43v496l-74 44v14h220v-15l-74 -43v-496
l74 -44v-14z" />
    <glyph glyph-name="Upsilondieresis" unicode="&#x3ab;" horiz-adv-x="617" 
d="M373 738q0 12 13 27t24 15q10 0 25.5 -12.5t15.5 -23.5q0 -12 -14 -26.5t-24 -14.5t-25 12t-15 23zM203 738q0 12 13.5 27t23.5 15q11 0 26 -12.5t15 -23.5q0 -12 -13.5 -26.5t-23.5 -14.5t-25.5 12t-15.5 23zM421 0h-219v15l74 43v144q0 164 -45 268.5t-132 104.5
q-47 0 -78 -37l-15 15q-7 6 -7 14v7q55 50 124 50q55 0 93 -25t60 -73.5t32 -106.5t13 -137q9 87 34.5 162.5t72 127.5t103.5 52q58 0 80 -42l-18 -18q-18 8 -40 8q-58 0 -106 -53.5t-74 -138t-26 -179.5v-143l74 -44v-14z" />
    <glyph glyph-name="alphatonos" unicode="&#x3ac;" horiz-adv-x="525" 
d="M262 511h-18l26 170l78 -13zM432 -11q-27 0 -46.5 25t-26.5 64q-2 9 -4 29q-75 -117 -143 -117t-114.5 54.5t-46.5 156.5q0 113 61 186t137 73q43 0 73.5 -29t40.5 -80q4 34 15 90l65 23q-26 -119 -26 -242q0 -100 7 -131q10 -40 52 -40q24 0 45 5v-15q-35 -52 -89 -52z
M227 51q37 0 70 34t55 93v32q0 32 3 69q-39 121 -139 121q-53 0 -80 -34.5t-27 -125.5q0 -95 36 -142t82 -47z" />
    <glyph glyph-name="epsilontonos" unicode="&#x3ad;" horiz-adv-x="405" 
d="M233 511h-18l26 170l78 -13zM401 97q-42 -48 -80 -73t-58 -29.5t-47 -4.5q-72 0 -120.5 33.5t-48.5 91.5q0 49 31.5 82t86.5 40q-47 6 -73.5 34.5t-26.5 65.5q0 60 43 91.5t117 31.5t137 -20l-17 -90h-24l-51 65q-20 5 -41 5q-45 0 -71 -20.5t-26 -58.5q0 -34 27 -55.5
t74 -21.5q50 0 83 9l3 -12q6 -20 6 -39v-22l-20 -5q-36 25 -88 25q-45 0 -71 -22t-26 -62q0 -39 28.5 -64t77.5 -25q97 0 154 68z" />
    <glyph glyph-name="etatonos" unicode="&#x3ae;" horiz-adv-x="496" 
d="M276 511h-18l26 170l78 -13zM165 346v10q55 60 86.5 83t55.5 23q123 0 123 -140v-550h-15q-8 0 -34 13l-21 14q9 192 9 474q0 125 -74 125q-56 0 -130 -107v-291h-65v312q0 50 -9 67.5t-34 17.5q-29 0 -50 -9v15q8 23 31.5 40t58.5 17q68 0 68 -114z" />
    <glyph glyph-name="iotatonos" unicode="&#x3af;" horiz-adv-x="234" 
d="M101 511h-18l26 170l78 -13zM238 43q-39 -54 -93 -54q-32 0 -51 22.5t-25 60.5q-4 28 -4 71v290l65 23v-310q0 -34 4 -51q8 -42 56 -42q27 0 48 4v-14z" />
    <glyph glyph-name="upsilondieresistonos" unicode="&#x3b0;" horiz-adv-x="495" 
d="M230 526h-19l24 168l73 -12zM391 596q0 -12 -13.5 -25.5t-23.5 -13.5t-25.5 11t-15.5 22q0 12 13.5 25.5t23.5 13.5q11 0 26 -11t15 -22zM173 596q0 -12 -13.5 -25.5t-23.5 -13.5t-25 11t-15 22q0 12 13 25.5t24 13.5q10 0 25 -11t15 -22zM230 -10q-62 0 -96.5 45
t-34.5 123v160q0 46 -9.5 62.5t-34.5 16.5q-28 0 -49 -9v15q33 57 95 57q66 0 66 -114v-172q0 -126 105 -126q57 0 89.5 44.5t32.5 130.5q0 137 -107 206l46 31q8 5 16 5h15q89 -64 89 -197q0 -113 -64.5 -195.5t-158.5 -82.5z" />
    <glyph glyph-name="alpha" unicode="&#x3b1;" horiz-adv-x="525" 
d="M432 -11q-27 0 -46.5 25t-26.5 64q-2 9 -4 29q-75 -117 -143 -117t-114.5 54.5t-46.5 156.5q0 113 61 186t137 73q43 0 73.5 -29t40.5 -80q4 34 15 90l65 23q-26 -119 -26 -242q0 -100 7 -131q10 -40 52 -40q24 0 45 5v-15q-35 -52 -89 -52zM227 51q37 0 70 34t55 93v32
q0 32 3 69q-39 121 -139 121q-53 0 -80 -34.5t-27 -125.5q0 -95 36 -142t82 -47z" />
    <glyph glyph-name="beta" unicode="&#x3b2;" horiz-adv-x="503" 
d="M272 50q125 0 125 147q0 60 -35 101.5t-96 41.5q-28 0 -47 -3v38q135 34 135 168q0 44 -20.5 75.5t-67.5 31.5q-61 0 -95 -58t-34 -151q0 -171 3 -338q35 -53 132 -53zM122 -215q-26 -13 -34 -13h-15v652q0 120 54 198t160 78q66 0 100 -38.5t34 -95.5
q0 -54 -26.5 -101.5t-73.5 -74.5q63 -7 103 -52t40 -112q0 -106 -66.5 -171t-159.5 -65q-37 0 -97 37q1 -70 5 -228z" />
    <glyph glyph-name="gamma" unicode="&#x3b3;" horiz-adv-x="459" 
d="M234 -219q-18 -9 -27 -9h-12q3 113 26 211q-31 184 -94 329q-37 86 -87 86q-30 0 -46 -11v21q24 29 41.5 40.5t37.5 11.5q30 0 55 -25.5t52 -82.5q55 -119 76 -300q0 -2 0.5 -5.5t0.5 -5.5l61 135q45 101 45 163q0 40 -52 78l58 42q6 5 16 5h15q19 -30 19 -85
q0 -93 -62 -218l-93 -192l-1 3q7 -97 7 -172z" />
    <glyph glyph-name="delta" unicode="&#x3b4;" horiz-adv-x="497" 
d="M458 237q0 -103 -61 -175t-157 -72q-83 0 -136.5 54t-53.5 148q0 105 54 175.5t140 87.5q-57 41 -81 77.5t-24 79.5q0 38 32 63t78 25q52 0 97 -20.5t98 -61.5l-6 -12q-6 -12 -12 -15l-43 -22q-25 44 -69.5 70.5t-89.5 26.5q-17 0 -26.5 -9.5t-9.5 -24.5q0 -47 105 -131
q85 -68 125 -129t40 -135zM264 40q67 0 96.5 46t29.5 136q0 121 -112 208l1 -1q-84 -24 -122 -73t-38 -134q0 -82 41 -132t104 -50z" />
    <glyph glyph-name="epsilon" unicode="&#x3b5;" horiz-adv-x="405" 
d="M401 97q-42 -48 -80 -73t-58 -29.5t-47 -4.5q-72 0 -120.5 33.5t-48.5 91.5q0 49 31.5 82t86.5 40q-47 6 -73.5 34.5t-26.5 65.5q0 60 43 91.5t117 31.5t137 -20l-17 -90h-24l-51 65q-20 5 -41 5q-45 0 -71 -20.5t-26 -58.5q0 -34 27 -55.5t74 -21.5q50 0 83 9l3 -12
q6 -20 6 -39v-22l-20 -5q-36 25 -88 25q-45 0 -71 -22t-26 -62q0 -39 28.5 -64t77.5 -25q97 0 154 68z" />
    <glyph glyph-name="zeta" unicode="&#x3b6;" horiz-adv-x="337" 
d="M147 -229l-10 16q-5 7 -5 14v55q68 0 108.5 29t40.5 73q0 17 -9.5 27.5t-36.5 16.5l-51 10q-63 14 -99.5 65t-36.5 128q0 103 63.5 221t157.5 193l-82 -5q-135 -4 -135 50q0 39 47 57h13q-11 -17 -11 -33q0 -34 72 -34q55 0 150 14l14 -49q-115 -79 -167.5 -186.5
t-52.5 -211.5q0 -68 21 -97.5t72 -41.5l40 -9q75 -18 75 -95q0 -66 -40.5 -115.5t-137.5 -91.5z" />
    <glyph glyph-name="eta" unicode="&#x3b7;" horiz-adv-x="496" 
d="M165 346v10q55 60 86.5 83t55.5 23q123 0 123 -140v-550h-15q-8 0 -34 13l-21 14q9 192 9 474q0 125 -74 125q-56 0 -130 -107v-291h-65v312q0 50 -9 67.5t-34 17.5q-29 0 -50 -9v15q8 23 31.5 40t58.5 17q68 0 68 -114z" />
    <glyph glyph-name="theta" unicode="&#x3b8;" horiz-adv-x="499" 
d="M453 355q0 -159 -65 -262t-157 -103q-87 0 -135 94.5t-48 250.5q0 159 64.5 262t155.5 103q88 0 136.5 -94.5t48.5 -250.5zM233 648q-117 0 -117 -278h268q-10 278 -151 278zM267 43q118 0 118 283h-268q8 -283 150 -283z" />
    <glyph glyph-name="iota" unicode="&#x3b9;" horiz-adv-x="234" 
d="M238 43q-39 -54 -93 -54q-32 0 -51 22.5t-25 60.5q-4 28 -4 71v290l65 23v-310q0 -34 4 -51q8 -42 56 -42q27 0 48 4v-14z" />
    <glyph glyph-name="kappa" unicode="&#x3ba;" horiz-adv-x="487" 
d="M409 -10q-22 0 -38 11.5t-36 43.5l-114 185l-56 -75l-1 2v-157h-64v312q0 50 -9.5 67.5t-34.5 17.5q-28 0 -49 -9v15q8 23 31.5 40t58.5 17q67 0 67 -114v-141l116 164q23 31 36.5 46.5t34.5 28.5t43 13q30 0 50 -15v-18q0 -10 -5 -16l-34 -37q-14 17 -36 17
q-29 0 -60 -40l-50 -66l122 -189q26 -40 60 -40q25 0 47 14v-21q-18 -32 -36 -44t-43 -12z" />
    <glyph glyph-name="lambda" unicode="&#x3bb;" horiz-adv-x="471" 
d="M391 -10q-30 0 -44 23.5t-38 99.5q-15 45 -86 280l3 -14q-63 -145 -135 -379h-58l175 440q-16 52 -24 77q-20 62 -42 92.5t-61 30.5t-63 -15v45q30 30 78 30q52 0 88 -41.5t64 -124.5q21 -63 58.5 -200.5t58.5 -202.5q16 -50 25.5 -64t27.5 -14q22 0 45 10v-22
q-39 -51 -72 -51z" />
    <glyph glyph-name="uni03BC" unicode="&#x3bc;" horiz-adv-x="529" 
d="M121 -218q-29 -12 -36 -12h-14l12 364v301l65 26v-292q0 -67 23 -93t65 -26q61 0 123 98v1v284l66 23v-310q0 -17 4 -51q9 -42 52 -42q8 0 25.5 2t23.5 2v-14q-21 -29 -40 -41.5t-50 -12.5q-32 0 -52.5 26t-23.5 63q0 2 -0.5 6.5t-0.5 6.5q-96 -105 -144 -105
q-50 0 -85 49q2 -162 18 -239z" />
    <glyph glyph-name="nu" unicode="&#x3bd;" horiz-adv-x="451" 
d="M221 -10q-41 181 -96 318q-19 49 -37 69.5t-41 20.5q-34 0 -49 -12v22q25 31 43 41.5t39 10.5q58 0 95 -100q48 -132 83 -278l52 101q53 101 53 163q0 33 -49 70l57 43q6 5 16 5h16q17 -26 17 -85q0 -82 -60 -190l-96 -175z" />
    <glyph glyph-name="xi" unicode="&#x3be;" horiz-adv-x="402" 
d="M200 -229l-10 16q-5 7 -5 14v55q67 0 108.5 25.5t41.5 63.5q0 48 -51 56l-68 14q-71 13 -116 52.5t-45 110.5q0 59 45.5 106.5t109.5 64.5q-58 5 -94.5 36t-36.5 77q0 45 32.5 89t115.5 75l-85 -10q-101 -14 -101 48q0 39 47 57h13q-11 -16 -11 -31q0 -34 62 -34
q79 0 173 12l13 -47q-85 0 -137 -42.5t-52 -100.5q0 -83 105 -83q10 0 35.5 0.5t37.5 0.5l2 -8q2 -7 2 -27v-13q-100 -9 -154.5 -52t-54.5 -109q0 -44 27.5 -70.5t85.5 -37.5l54 -10q43 -7 67 -31.5t24 -61.5q0 -122 -180 -205z" />
    <glyph glyph-name="omicron" unicode="&#x3bf;" horiz-adv-x="520" 
d="M470 254q0 -112 -60.5 -188t-155.5 -76q-91 0 -147.5 52.5t-56.5 153.5q0 112 61 188t156 76q91 0 147 -52t56 -154zM119 237q0 -93 41 -145t104 -52q74 0 105.5 40t31.5 133t-41 145t-106 52q-73 0 -104 -40t-31 -133z" />
    <glyph glyph-name="pi" unicode="&#x3c0;" horiz-adv-x="566" 
d="M172 388h-53q-29 0 -50 -21.5t-21 -51.5h-22q0 63 31.5 99t95.5 36h380l-22 -62h-87v-242q0 -30 4 -51q3 -20 19 -31t39 -11q6 0 25 2t28 2v-14q-39 -54 -100 -54q-27 0 -47 26.5t-23 62.5q0 4 -2 30t-2 41v239h-149q15 -60 15 -120q0 -50 -6 -94.5t-21 -88.5t-45 -70
t-72 -26q-13 0 -18 5l-16 77q10 -1 18 -1.5t11 -1t6 -0.5q31 0 53.5 17t33 45.5t15 55.5t4.5 55q0 89 -22 147z" />
    <glyph glyph-name="rho" unicode="&#x3c1;" horiz-adv-x="503" 
d="M262 50q60 0 94.5 41.5t34.5 126.5q0 91 -38.5 138.5t-103.5 47.5q-111 0 -111 -133q0 -103 1 -164q32 -57 123 -57zM123 -215q-26 -13 -34 -13h-15v466q0 101 55.5 161.5t152.5 60.5q81 0 126 -58t45 -158q0 -113 -68 -183.5t-153 -70.5q-34 0 -92 37q2 -125 7 -228z
" />
    <glyph glyph-name="sigma.alt" unicode="&#x3c2;" horiz-adv-x="415" 
d="M338 -51q0 46 -60 59l-79 17q-75 16 -113.5 72.5t-38.5 129.5q0 99 63.5 166t152.5 67q80 0 116 -20l-16 -87h-21l-70 60q-18 2 -43 2q-60 0 -87.5 -42.5t-27.5 -141.5q0 -61 24.5 -97t84.5 -48l64 -12q98 -20 98 -96q0 -129 -183 -207l-10 16q-5 7 -5 14v55q67 0 109 27
t42 66z" />
    <glyph glyph-name="sigma" unicode="&#x3c3;" horiz-adv-x="535" 
d="M459 223q-1 -96 -61 -164.5t-155 -68.5q-81 0 -137 55t-56 155q0 117 67.5 184.5t186.5 67.5h221l-19 -49l-158 3q55 -15 83.5 -63t27.5 -120zM119 235q0 -89 42.5 -142t99.5 -53q70 0 102.5 37.5t32.5 126.5q0 92 -41.5 140t-104.5 48q-68 0 -99.5 -34t-31.5 -123z" />
    <glyph glyph-name="tau" unicode="&#x3c4;" horiz-adv-x="420" 
d="M246 -12q-26 0 -47.5 24t-25.5 58q-5 37 -5 74q0 116 19 244h-75q-35 0 -57 -21t-22 -52h-21q0 135 125 135h280l-23 -62h-154v-243q0 -38 4 -55q8 -36 51 -36q22 0 49 3v-18q-40 -51 -98 -51z" />
    <glyph glyph-name="upsilon" unicode="&#x3c5;" horiz-adv-x="495" 
d="M230 -10q-62 0 -96.5 45t-34.5 123v160q0 46 -9.5 62.5t-34.5 16.5q-28 0 -49 -9v15q33 57 95 57q66 0 66 -114v-172q0 -126 105 -126q57 0 89.5 44.5t32.5 130.5q0 137 -107 206l46 31q8 5 16 5h15q89 -64 89 -197q0 -113 -64.5 -195.5t-158.5 -82.5z" />
    <glyph glyph-name="phi" unicode="&#x3c6;" horiz-adv-x="623" 
d="M282 -228h-16v217q-102 2 -159.5 59t-57.5 156q0 85 49.5 152.5t137.5 103.5l21 -43q-139 -38 -139 -194q0 -80 38 -131t110 -53v207q0 92 37.5 150.5t115.5 58.5q70 0 112.5 -54.5t42.5 -147.5q0 -120 -72.5 -191t-168.5 -73q4 -128 8 -189l-26 -15q-25 -13 -33 -13z
M329 284q0 -105 3 -249q88 1 130.5 46.5t42.5 148.5q0 74 -31.5 119t-84.5 45q-33 0 -46.5 -21t-13.5 -89z" />
    <glyph glyph-name="chi" unicode="&#x3c7;" horiz-adv-x="444" 
d="M370 -234q-28 0 -46 27t-44 93q-20 52 -63 167q-57 -127 -109 -275h-66l153 334q-56 154 -79 212q-16 40 -31 54.5t-33 14.5q-21 0 -46 -9v22q37 54 74 54q30 0 49.5 -26t43.5 -92q9 -23 28.5 -77.5t30.5 -83.5q62 143 104 269h67l-149 -330q45 -126 83 -215
q17 -39 31 -55.5t31 -16.5q24 0 43 11v-22q-36 -56 -72 -56z" />
    <glyph glyph-name="psi" unicode="&#x3c8;" horiz-adv-x="627" 
d="M363 -223h-55q0 135 1 212q-174 3 -198 173q-5 37 -9 93.5t-6 71.5q-8 70 -62 70q-21 0 -45 -14v15q54 62 91 62q71 0 82 -118q2 -23 5.5 -76t6.5 -83q11 -117 135 -134q0 361 -8 527l34 18q16 8 24 8h16l-8 -556q42 2 73.5 24.5t48 56.5t24 68.5t7.5 69.5q0 95 -31 165
l31 31q8 5 15 5h16q28 -86 28 -182q0 -112 -60 -191.5t-153 -98.5z" />
    <glyph glyph-name="omega" unicode="&#x3c9;" horiz-adv-x="651" 
d="M421 -10q-65 0 -90 91q-27 -47 -57.5 -69t-79.5 -22q-63 0 -103.5 49t-40.5 143q0 57 22.5 120.5t93.5 160.5l46 -19q-92 -98 -92 -246q0 -71 24 -114t74 -43q38 0 62 29t24 94q0 84 -20 133l10 30h16q12 0 24 -3l41 -12q-8 -63 -8 -141q0 -68 26.5 -95.5t63.5 -27.5
q43 0 68 44t25 123q0 142 -111 208l45 31q8 5 16 5h16q94 -63 94 -207q0 -106 -55 -184t-134 -78z" />
    <glyph glyph-name="iotadieresis" unicode="&#x3ca;" horiz-adv-x="234" 
d="M148 590q0 12 13 27t24 15q10 0 25.5 -12.5t15.5 -23.5q0 -12 -14 -27t-24 -15t-25 12.5t-15 23.5zM-22 590q0 12 13.5 27t23.5 15q11 0 26 -12.5t15 -23.5q0 -12 -13.5 -27t-23.5 -15t-25.5 12.5t-15.5 23.5zM238 43q-39 -54 -93 -54q-32 0 -51 22.5t-25 60.5
q-4 28 -4 71v290l65 23v-310q0 -34 4 -51q8 -42 56 -42q27 0 48 4v-14z" />
    <glyph glyph-name="upsilondieresis" unicode="&#x3cb;" horiz-adv-x="495" 
d="M288 590q0 12 13 27t24 15q10 0 25.5 -12.5t15.5 -23.5q0 -12 -14 -27t-24 -15t-25 12.5t-15 23.5zM118 590q0 12 13.5 27t23.5 15q11 0 26 -12.5t15 -23.5q0 -12 -13.5 -27t-23.5 -15t-25.5 12.5t-15.5 23.5zM230 -10q-62 0 -96.5 45t-34.5 123v160q0 46 -9.5 62.5
t-34.5 16.5q-28 0 -49 -9v15q33 57 95 57q66 0 66 -114v-172q0 -126 105 -126q57 0 89.5 44.5t32.5 130.5q0 137 -107 206l46 31q8 5 16 5h15q89 -64 89 -197q0 -113 -64.5 -195.5t-158.5 -82.5z" />
    <glyph glyph-name="omicrontonos" unicode="&#x3cc;" horiz-adv-x="520" 
d="M256 511h-18l26 170l78 -13zM470 254q0 -112 -60.5 -188t-155.5 -76q-91 0 -147.5 52.5t-56.5 153.5q0 112 61 188t156 76q91 0 147 -52t56 -154zM119 237q0 -93 41 -145t104 -52q74 0 105.5 40t31.5 133t-41 145t-106 52q-73 0 -104 -40t-31 -133z" />
    <glyph glyph-name="upsilontonos" unicode="&#x3cd;" horiz-adv-x="495" 
d="M241 511h-18l26 170l78 -13zM230 -10q-62 0 -96.5 45t-34.5 123v160q0 46 -9.5 62.5t-34.5 16.5q-28 0 -49 -9v15q33 57 95 57q66 0 66 -114v-172q0 -126 105 -126q57 0 89.5 44.5t32.5 130.5q0 137 -107 206l46 31q8 5 16 5h15q89 -64 89 -197q0 -113 -64.5 -195.5
t-158.5 -82.5z" />
    <glyph glyph-name="omegatonos" unicode="&#x3ce;" horiz-adv-x="651" 
d="M327 511h-18l26 170l78 -13zM421 -10q-65 0 -90 91q-27 -47 -57.5 -69t-79.5 -22q-63 0 -103.5 49t-40.5 143q0 57 22.5 120.5t93.5 160.5l46 -19q-92 -98 -92 -246q0 -71 24 -114t74 -43q38 0 62 29t24 94q0 84 -20 133l10 30h16q12 0 24 -3l41 -12q-8 -63 -8 -141
q0 -68 26.5 -95.5t63.5 -27.5q43 0 68 44t25 123q0 142 -111 208l45 31q8 5 16 5h16q94 -63 94 -207q0 -106 -55 -184t-134 -78z" />
    <glyph glyph-name="theta.alt" unicode="&#x3d1;" horiz-adv-x="482" 
d="M284 387q52 0 95 16q-4 116 -41 185.5t-113 69.5q-48 0 -73.5 -28.5t-25.5 -79.5q0 -73 42.5 -118t115.5 -45zM236 -10q-38 0 -66.5 28.5t-38.5 68.5q-5 21 -9.5 58t-7.5 48q-9 36 -48 36q-23 0 -45 -8v16q29 35 42 43.5t33 8.5q25 0 45.5 -19.5t26.5 -49.5
q5 -23 9.5 -59t8.5 -55q13 -56 75 -56q63 0 91 70.5t28 243.5q-57 -33 -131 -33q-77 0 -125.5 57t-48.5 138q0 79 50 126.5t116 47.5q99 0 149.5 -77.5t50.5 -227.5q0 -190 -59.5 -297.5t-145.5 -107.5z" />
    <glyph glyph-name="phi.alt" unicode="&#x3d5;" horiz-adv-x="572" 
d="M312 -223h-55q0 29 0.5 100.5t0.5 112.5q-94 7 -152 62.5t-58 148.5q0 105 58.5 172t150.5 83q-2 82 -4 120l32 20q8 6 21 6h16l-2 -151q85 -2 144.5 -56t59.5 -148q0 -103 -59.5 -174t-149.5 -82zM116 225q0 -83 38.5 -131.5t103.5 -58.5q2 258 0 380
q-142 -25 -142 -190zM456 222q0 82 -38.5 132.5t-97.5 60.5l-5 -381q141 15 141 188z" />
    <glyph glyph-name="Wgrave" unicode="&#x1e80;" horiz-adv-x="942" 
d="M422 829l79 -168h-23l-128 142zM648 -15l-182 490l-178 -467l-41 -23l-182 569h-2l-65 43v15h219v-15l-82 -42l144 -462l190 519h14l194 -521l144 464l-71 42v15h193v-15l-73 -43h-1l-180 -546z" />
    <glyph glyph-name="wgrave" unicode="&#x1e81;" horiz-adv-x="724" 
d="M363 679l79 -168h-23l-128 142zM519 14l-33 -24l-124 320l-130 -296l-33 -24l-145 410l-46 34v16h186v-16l-65 -37l106 -306l138 359h5l142 -357l97 304h-3l-53 37v16h162v-16l-58 -37l-130 -341l1 -3h-2z" />
    <glyph glyph-name="Wacute" unicode="&#x1e82;" horiz-adv-x="942" 
d="M420 661l79 168l72 -26l-128 -142h-23zM648 -15l-182 490l-178 -467l-41 -23l-182 569h-2l-65 43v15h219v-15l-82 -42l144 -462l190 519h14l194 -521l144 464l-71 42v15h193v-15l-73 -43h-1l-180 -546z" />
    <glyph glyph-name="wacute" unicode="&#x1e83;" horiz-adv-x="724" 
d="M351 511l78 168l72 -26l-127 -142h-23zM519 14l-33 -24l-124 320l-130 -296l-33 -24l-145 410l-46 34v16h186v-16l-65 -37l106 -306l138 359h5l142 -357l97 304h-3l-53 37v16h162v-16l-58 -37l-130 -341l1 -3h-2z" />
    <glyph glyph-name="Wdieresis" unicode="&#x1e84;" horiz-adv-x="942" 
d="M524 738q0 12 13 27t24 15q10 0 25.5 -12.5t15.5 -23.5q0 -12 -14 -26.5t-24 -14.5t-25 12t-15 23zM354 738q0 12 13.5 27t23.5 15q11 0 26 -12.5t15 -23.5q0 -12 -13.5 -26.5t-23.5 -14.5t-25.5 12t-15.5 23zM648 -15l-182 490l-178 -467l-41 -23l-182 569h-2l-65 43v15
h219v-15l-82 -42l144 -462l190 519h14l194 -521l144 464l-71 42v15h193v-15l-73 -43h-1l-180 -546z" />
    <glyph glyph-name="wdieresis" unicode="&#x1e85;" horiz-adv-x="724" 
d="M426 590q0 12 13 27t24 15q10 0 25.5 -12.5t15.5 -23.5q0 -12 -14 -27t-24 -15t-25 12.5t-15 23.5zM256 590q0 12 13.5 27t23.5 15q11 0 26 -12.5t15 -23.5q0 -12 -13.5 -27t-23.5 -15t-25.5 12.5t-15.5 23.5zM519 14l-33 -24l-124 320l-130 -296l-33 -24l-145 410
l-46 34v16h186v-16l-65 -37l106 -306l138 359h5l142 -357l97 304h-3l-53 37v16h162v-16l-58 -37l-130 -341l1 -3h-2z" />
    <glyph glyph-name="Ygrave" unicode="&#x1ef2;" horiz-adv-x="634" 
d="M308 829l79 -168h-23l-128 142zM416 0h-219v15l74 43v198l-192 298h-3l-64 43v15h227v-15l-81 -43l159 -251l154 251l-72 43v15h196v-15l-72 -43l-181 -292v-204l74 -44v-14z" />
    <glyph glyph-name="ygrave" unicode="&#x1ef3;" horiz-adv-x="484" 
d="M238 679l79 -168h-23l-128 142zM63 -238q-26 0 -53 10l14 74h17l54 -41q42 14 74.5 60.5t64.5 157.5l-18 3l-158 373l-49 35v16h186v-16l-61 -37l132 -304l111 304l-51 37v16h159v-16l-59 -37h-1l-158 -375q-66 -260 -204 -260z" />
    <glyph glyph-name="endash" unicode="&#x2013;" horiz-adv-x="443" 
d="M396 275v-15l-14 -21h-335v15l14 21h335z" />
    <glyph glyph-name="emdash" unicode="&#x2014;" horiz-adv-x="683" 
d="M636 275v-15l-14 -21h-575v15l14 21h575z" />
    <glyph glyph-name="quoteleft" unicode="&#x2018;" horiz-adv-x="243" 
d="M167 518q0 -16 -14.5 -32t-27.5 -16q-14 0 -35 26t-21 53q0 61 91 152l12 -11q-47 -63 -47 -100q0 -20 21 -39t21 -33z" />
    <glyph glyph-name="quoteright" unicode="&#x2019;" horiz-adv-x="243" 
d="M76 645q0 16 14.5 32t27.5 16q14 0 35 -26t21 -53q0 -61 -91 -152l-12 11q47 63 47 100q0 20 -21 39t-21 33z" />
    <glyph glyph-name="quotesinglbase" unicode="&#x201a;" horiz-adv-x="243" 
d="M76 40q0 16 14.5 32t27.5 16q14 0 35 -26t21 -53q0 -61 -91 -152l-12 11q47 63 47 100q0 20 -21 39t-21 33z" />
    <glyph glyph-name="quotedblleft" unicode="&#x201c;" horiz-adv-x="376" 
d="M304 518q0 -16 -14.5 -32t-27.5 -16q-14 0 -35 26t-21 53q0 61 91 152l12 -11q-47 -63 -47 -100q0 -20 21 -39t21 -33zM167 518q0 -16 -14.5 -32t-27.5 -16q-14 0 -35 26t-21 53q0 61 91 152l12 -11q-47 -63 -47 -100q0 -20 21 -39t21 -33z" />
    <glyph glyph-name="quotedblright" unicode="&#x201d;" horiz-adv-x="380" 
d="M213 645q0 16 14.5 32t27.5 16q14 0 35 -26t21 -53q0 -61 -91 -152l-12 11q47 63 47 100q0 20 -21 39t-21 33zM76 645q0 16 14.5 32t27.5 16q14 0 35 -26t21 -53q0 -61 -91 -152l-12 11q47 63 47 100q0 20 -21 39t-21 33z" />
    <glyph glyph-name="quotedblbase" unicode="&#x201e;" horiz-adv-x="380" 
d="M213 40q0 16 14.5 32t27.5 16q14 0 35 -26t21 -53q0 -61 -91 -152l-12 11q47 63 47 100q0 20 -21 39t-21 33zM76 40q0 16 14.5 32t27.5 16q14 0 35 -26t21 -53q0 -61 -91 -152l-12 11q47 63 47 100q0 20 -21 39t-21 33z" />
    <glyph glyph-name="dagger" unicode="&#x2020;" horiz-adv-x="524" 
d="M299 285l-27 -409h-20l-27 409l23 188l-180 -23v74l180 -24l-23 193h74l-24 -193l180 24v-74l-180 23z" />
    <glyph glyph-name="daggerdbl" unicode="&#x2021;" horiz-adv-x="524" 
d="M299 285l-24 -189l180 23v-74l-180 24l24 -193h-74l23 193l-180 -24v74l180 -23l-23 189l23 188l-180 -23v74l180 -24l-23 193h74l-24 -193l180 24v-74l-180 23z" />
    <glyph glyph-name="bullet" unicode="&#x2022;" horiz-adv-x="362" 
d="M95 302q0 25 29.5 57t51.5 32t56 -26.5t34 -50.5q0 -23 -30.5 -55.5t-51.5 -32.5q-22 0 -55.5 26.5t-33.5 49.5z" />
    <glyph glyph-name="ellipsis" unicode="&#x2026;" horiz-adv-x="729" 
d="M557 35q0 15 18 35t30 20q13 0 34 -16.5t21 -30.5q0 -15 -18.5 -34t-31.5 -19t-33 15.5t-20 29.5zM314 35q0 15 18 35t30 20q13 0 34 -16.5t21 -30.5q0 -15 -18.5 -34t-31.5 -19t-33 15.5t-20 29.5zM71 35q0 15 18 35t30 20q13 0 34 -16.5t21 -30.5q0 -15 -18.5 -34
t-31.5 -19t-33 15.5t-20 29.5z" />
    <glyph glyph-name="guilsinglleft" unicode="&#x2039;" horiz-adv-x="294" 
d="M117 252l104 -199l-13 -11l-169 210l169 210l13 -11z" />
    <glyph glyph-name="guilsinglright" unicode="&#x203a;" horiz-adv-x="294" 
d="M177 252l-104 199l13 11l169 -210l-169 -210l-13 11z" />
    <glyph glyph-name="fraction" unicode="&#x2044;" horiz-adv-x="214" 
d="M-45 0l276 625l28 -13l-276 -625z" />
    <glyph glyph-name="Euro" unicode="&#x20ac;" horiz-adv-x="509" 
d="M457 23q-77 -33 -169 -33q-93 0 -148 62t-69 171h-72v16l14 24h55q-1 10 -1 31q0 19 2 51h-71v16l15 24h61q17 114 81 175.5t166 61.5q90 0 136 -29l-21 -124h-23l-47 99q-32 11 -86 11q-72 0 -105 -39.5t-39 -154.5h256v-16l-15 -24h-243v-23q0 -21 2 -59h227v-16
l-15 -24h-207q29 -197 176 -197q27 0 52 6l85 110l25 -1z" />
    <glyph glyph-name="trademark" unicode="&#x2122;" horiz-adv-x="838" 
d="M245 359v-7h-147v9l48 23v289h-71l-45 -55h-16l13 76h307l-14 -76h-15l-31 55h-79v-289zM455 359v-7h-116v9l43 23l22 277l-44 23v10h96l120 -268l126 268h95v-9l-43 -24l19 -277l44 -25v-7h-137v9l44 23l-15 262l-129 -269l-29 -14l-123 281l-17 -260z" />
    <glyph glyph-name="partialdiff" unicode="&#x2202;" horiz-adv-x="506" 
d="M209 -12q-74 0 -115 55t-35 146q6 105 86.5 185t226.5 89l20 -38q-25 100 -85 159.5t-127 59.5q-79 0 -142 -59l-12 20q88 95 189 95q75 0 137 -54.5t94 -143t26 -184.5q-4 -54 -22 -109.5t-49.5 -106t-81.5 -82.5t-110 -32zM257 43q135 0 148 235q4 68 -9 132
q-9 2 -42 1l-33 -1q-57 0 -95.5 -15.5t-58 -45.5t-27.5 -61t-11 -75q-4 -81 33.5 -125.5t94.5 -44.5z" />
    <glyph glyph-name="increment" unicode="&#x2206;" horiz-adv-x="603" 
d="M17 0l271 682h31l267 -682h-569zM484 60l-193 513l-204 -513h397z" />
    <glyph glyph-name="product" unicode="&#x220f;" horiz-adv-x="818" 
d="M294 -205v-15h-225v16l74 40v801l-74 41v15h680v-16l-74 -40v-801l74 -41v-15h-225v16l74 40v821h-378v-821z" />
    <glyph glyph-name="summation" unicode="&#x2211;" horiz-adv-x="661" 
d="M34 -220v8l277 444l-250 448v13h554l-27 -162h-31l-54 127h-322l209 -378l-265 -422h414l67 96h31l-32 -174h-571z" />
    <glyph glyph-name="minus" unicode="&#x2212;" horiz-adv-x="509" 
d="M426 276v-28h-343v28h343z" />
    <glyph glyph-name="radical" unicode="&#x221a;" horiz-adv-x="473" 
d="M262 -136h-39l-171 529l-52 -23v29l111 49l148 -462l183 714h169v-34h-143z" />
    <glyph glyph-name="infinity" unicode="&#x221e;" horiz-adv-x="745" 
d="M544 115q-98 0 -181 119l-1 2q-54 -66 -99.5 -93.5t-97.5 -27.5q-46 0 -84.5 39.5t-38.5 105.5q0 75 45 118t114 43q98 0 181 -119l1 -2q54 66 99.5 93.5t97.5 27.5q46 0 84.5 -39.5t38.5 -105.5q0 -75 -45 -118t-114 -43zM571 156q36 0 57.5 22t21.5 81q0 53 -33.5 86
t-74.5 33q-68 0 -142 -101l-9 12q43 -61 75.5 -91t52 -36t52.5 -6zM203 158q67 0 141 101l14 -18l-2 3q-44 62 -77 93t-53 37t-53 6q-36 0 -57.5 -22t-21.5 -81q0 -53 34 -86t75 -33z" />
    <glyph glyph-name="integral" unicode="&#x222b;" horiz-adv-x="286" 
d="M148 516q0 -85 10 -257t10 -258q0 -100 -43.5 -168t-135.5 -68q-26 0 -45 2l12 79h25l42 -43q39 -3 59 26.5t20 114.5q0 88 -10 267t-10 269q0 108 56 164.5t133 56.5q37 0 66 -9l-10 -75h-22l-68 47q-43 2 -66 -35.5t-23 -112.5z" />
    <glyph glyph-name="approxequal" unicode="&#x2248;" horiz-adv-x="509" 
d="M177 322q-47 0 -74 -50l-23 11q30 73 102 73q26 0 75 -26.5t73 -26.5q46 0 74 50l24 -14q-14 -31 -41.5 -50t-61.5 -19q-30 0 -78 26t-70 26zM177 211q-47 0 -74 -50l-23 12q30 71 102 71q26 0 75 -26t73 -26q46 0 74 49l24 -13q-14 -31 -41.5 -50.5t-61.5 -19.5
q-30 0 -78 26.5t-70 26.5z" />
    <glyph glyph-name="notequal" unicode="&#x2260;" horiz-adv-x="509" 
d="M426 185h-175l-85 -185h-33l85 185h-135v29h148l39 84h-187v28h200l75 164h33l-75 -164h110v-28h-123l-39 -84h162v-29z" />
    <glyph glyph-name="lessequal" unicode="&#x2264;" horiz-adv-x="509" 
d="M78 320v16l322 201l21 -29l-290 -179l290 -181l-21 -29zM430 36v-31h-356v31h356z" />
    <glyph glyph-name="greaterequal" unicode="&#x2265;" horiz-adv-x="509" 
d="M431 336v-16l-322 -201l-21 29l290 181l-290 179l21 29zM79 5v31h356v-31h-356z" />
    <glyph glyph-name="lozenge" unicode="&#x25ca;" horiz-adv-x="483" 
d="M459 324l-217 -383h-10l-209 383l217 383h10zM410 324l-169 308l-168 -308l168 -308z" />
    <glyph glyph-name="commaaccent" unicode="&#xf6c3;" 
d="M204 -93q0 15 14 30.5t26 15.5q14 0 34 -24.5t20 -50.5q0 -60 -86 -145l-13 10q49 65 49 93q0 20 -22 39t-22 32z" />
    <glyph glyph-name="Tcedilla" horiz-adv-x="555" 
d="M247 0h-97v15l84 43v520h-125l-73 -94h-24l21 128h510l-22 -128h-24l-54 94h-137v-520l84 -44v-14h-122l-18 -59q48 -13 70 -29t22 -45q0 -32 -42.5 -51t-109.5 -21l-7 28q34 0 50 0.5t31.5 3.5t21 9t5.5 17q0 18 -15.5 30.5t-61.5 23.5z" />
    <glyph glyph-name="idotaccent" horiz-adv-x="266" 
d="M88 593q0 13 16.5 31.5t27.5 18.5q12 0 30.5 -14.5t18.5 -27.5q0 -14 -16.5 -32t-27.5 -18q-13 0 -31 14.5t-18 27.5zM27 0v16l75 34v342l-73 14v15l108 39h31v-410l72 -34v-16h-213z" />
    <glyph glyph-name="recordprotect" horiz-adv-x="566" 
d="M33 239q0 114 73 182t177 68q114 0 182 -71t68 -179q0 -113 -73 -181t-177 -68q-114 0 -182 70.5t-68 178.5zM58 239q0 -104 63.5 -166t160.5 -62q103 0 163.5 64.5t60.5 163.5q0 104 -63 165.5t-161 61.5q-103 0 -163.5 -64t-60.5 -163zM295 101h-126v8l37 20v238
l-37 21v7h123q48 0 75 -18.5t27 -52.5q0 -40 -37 -65.5t-90 -25.5q-5 0 -11.5 -0.5t-7.5 -0.5v-103l47 -21v-7zM276 250q74 0 74 59q0 31 -22 50.5t-57 19.5h-23v-127q18 -2 28 -2z" />
    <glyph glyph-name="tcedilla" horiz-adv-x="335" 
d="M281 -133q0 -32 -42.5 -51t-109.5 -21l-7 28q34 0 50 0.5t31.5 3.5t21 9t5.5 17q0 19 -15.5 32t-61.5 24l30 83q-39 7 -67 34.5t-27 64.5l4 325h-73v15l115 96h24l-1 -77h51l108 5l-8 -47l-100 8h-51l-4 -285q-1 -41 25 -64.5t60 -23.5q43 0 90 14l5 -21
q-84 -46 -128 -46h-2l-14 -47q47 -13 69 -30t22 -46z" />
    <glyph glyph-name="caron.alt.sc" 
d="M203 497q4 16 18 27t28 11q12 0 30 -21t18 -45q0 -49 -66 -148l-17 3q23 67 23 97q0 41 -34 76z" />
    <glyph glyph-name="caron.alt.case" 
d="M203 647q4 16 18 27t28 11q12 0 30 -21t18 -45q0 -49 -66 -148l-17 3q23 67 23 97q0 41 -34 76z" />
    <glyph glyph-name="acute.case" 
d="M175 661l79 168l72 -26l-128 -142h-23z" />
    <glyph glyph-name="grave.case" 
d="M246 829l79 -168h-23l-128 142z" />
    <glyph glyph-name="hungarumlaut.case" 
d="M246 661l79 168l72 -26l-128 -142h-23zM101 661l79 168l72 -26l-128 -142h-23z" />
    <glyph glyph-name="circumflex.case" 
d="M267 829l109 -168h-23l-103 98l-102 -98h-23l109 168h33z" />
    <glyph glyph-name="caron.case" 
d="M376 829l-109 -168h-33l-109 168h23l102 -98l103 98h23z" />
    <glyph glyph-name="breve.case" 
d="M251 717q50 0 72 30.5t29 81.5h23q0 -76 -31 -122t-96 -46q-123 0 -123 168h23q14 -112 103 -112z" />
    <glyph glyph-name="tilde.case" 
d="M315 757q15 0 28 8t20 15.5t22 25.5l8 -11q-21 -36 -31 -50.5t-24.5 -26t-31.5 -11.5q-21 0 -65 15t-63 15q-36 0 -76 -43l-6 11q36 50 52.5 65t41.5 15q22 0 66.5 -14t58.5 -14z" />
    <glyph glyph-name="macron.case" 
d="M357 745v-15l-14 -21h-199v15l14 21h199z" />
    <glyph glyph-name="dieresis.case" 
d="M297 738q0 12 13 27t24 15q10 0 25.5 -12.5t15.5 -23.5q0 -12 -14 -26.5t-24 -14.5t-25 12t-15 23zM127 738q0 12 13.5 27t23.5 15q11 0 26 -12.5t15 -23.5q0 -12 -13.5 -26.5t-23.5 -14.5t-25.5 12t-15.5 23z" />
    <glyph glyph-name="dotaccent.case" 
d="M204 743q0 13 16.5 31.5t27.5 18.5q12 0 30 -14.5t18 -27.5q0 -14 -16 -32t-28 -18t-30 14.5t-18 27.5z" />
    <glyph glyph-name="ring.case" 
d="M170 758q0 34 23.5 58t57.5 24q35 0 57.5 -21.5t22.5 -60.5q0 -34 -23.5 -58t-56.5 -24q-36 0 -58.5 21.5t-22.5 60.5zM198 758q0 -25 14 -40.5t37 -15.5t38 15.5t15 40.5q0 27 -14.5 42.5t-38.5 15.5q-23 0 -37 -15.5t-14 -42.5z" />
    <glyph glyph-name="cedilla.case" 
d="M198 -93l33 93h21l-18 -59q48 -13 70 -29t22 -45q0 -32 -42.5 -51t-109.5 -21l-7 28q34 0 50 0.5t31.5 3.5t21 9t5.5 17q0 18 -15.5 30.5t-61.5 23.5z" />
    <glyph glyph-name="ogonek.case" 
d="M175 -155q0 52 41.5 99.5t106.5 72.5l5 -5q-108 -68 -108 -148q0 -24 15.5 -42t41.5 -18q16 0 40 8l5 -20q-9 -3 -22 -8l-19.5 -7.5t-15 -4.5t-16.5 -2q-29 0 -51.5 21.5t-22.5 53.5z" />
    <glyph glyph-name="tonos.case" 
d="M252 511h-22l18 170l78 -13z" />
    <glyph glyph-name="commaaccent.case" 
d="M204 -93q0 15 14 30.5t26 15.5q14 0 34 -24.5t20 -50.5q0 -60 -86 -145l-13 10q49 65 49 93q0 20 -22 39t-22 32z" />
    <glyph glyph-name="zero.fit" horiz-adv-x="509" 
d="M464 318q0 -151 -64 -239.5t-156 -88.5q-98 0 -148.5 81t-50.5 224q0 151 63.5 239t155.5 88q98 0 149 -81t51 -223zM398 278q0 161 -43.5 226.5t-122.5 65.5q-64 0 -92 -52t-28 -186q0 -161 43 -225.5t122 -64.5q65 0 93 50.5t28 185.5z" />
    <glyph glyph-name="one.fit" horiz-adv-x="388" 
d="M256 612v-554l99 -44v-14h-295v15l124 43v516l-135 -66l-16 55l183 49h40z" />
    <glyph glyph-name="two.fit" horiz-adv-x="522" 
d="M447 0h-403v24q19 22 54 61q171 196 207 250q43 63 43 118q0 61 -35 91.5t-94 30.5q-21 0 -42 -5l-76 -127h-28l3 124q142 55 182 55q77 0 121 -39t44 -110q0 -37 -14.5 -73t-57 -88t-86.5 -98.5t-135 -138.5l-14 -14h274l61 99h23z" />
    <glyph glyph-name="three.fit" horiz-adv-x="501" 
d="M178 -10q-62 0 -124 14l2 3l17 72h14l79 -60h18q194 0 194 130q0 63 -47.5 102t-138.5 39q-31 0 -49 -2l13 44q26 -4 55 -4q63 0 101 29.5t38 87.5q0 67 -40.5 102.5t-102.5 35.5q-21 0 -37 -4l-76 -112h-28v100q80 32 119 43.5t73 11.5q66 0 115.5 -39t49.5 -102
q0 -54 -33.5 -96t-96.5 -64q159 -32 159 -152q0 -72 -81.5 -125.5t-192.5 -53.5z" />
    <glyph glyph-name="four.fit" horiz-adv-x="509" 
d="M328 195v311l-250 -311h250zM474 143h-74v-143h-72v143h-331v18l371 461h32v-427h96z" />
    <glyph glyph-name="five.fit" horiz-adv-x="464" 
d="M164 -10q-68 0 -132 12l2 3l13 67h14l70 -52q7 -1 21 -1q103 0 148 31.5t45 98.5q0 82 -50.5 130.5t-176.5 48.5l-38 -10l19 280l19 14h250l34 31h22l-19 -92h-271l-10 -175q13 1 37 1q135 0 198 -52.5t63 -135.5q0 -89 -72.5 -144t-185.5 -55z" />
    <glyph glyph-name="six.fit" horiz-adv-x="488" 
d="M446 191q0 -92 -64.5 -146.5t-146.5 -54.5q-98 0 -144 74.5t-46 198.5q0 94 22.5 166t60 112.5t80 60.5t88.5 20q66 0 124 -22l-21 -123h-22l-58 104q-18 5 -51 5q-156 0 -156 -288v-21q130 73 172 73q72 0 117 -41.5t45 -117.5zM262 27q115 0 115 139q0 130 -133 130
q-68 0 -130 -48q9 -102 50 -161.5t98 -59.5z" />
    <glyph glyph-name="seven.fit" horiz-adv-x="480" 
d="M196 -1l-63 1l-4 11l277 540h-280l-58 -84h-23l24 145h392v-19z" />
    <glyph glyph-name="eight.fit" horiz-adv-x="509" 
d="M240 -11q-81 0 -132 41t-51 102q0 104 155 187q-125 75 -125 162q0 54 54.5 97.5t124.5 43.5q68 0 116 -32.5t48 -92.5q0 -47 -31.5 -82.5t-96.5 -81.5q85 -49 117.5 -83t32.5 -89q0 -68 -64.5 -120t-147.5 -52zM150 499q0 -38 29 -73t93 -75q89 51 89 126q0 53 -34.5 82
t-84.5 29q-92 0 -92 -89zM270 33q57 0 87 23t30 80q0 51 -30.5 85.5t-112.5 79.5q-54 -26 -85.5 -65t-31.5 -81q0 -59 42 -90.5t101 -31.5z" />
    <glyph glyph-name="nine.fit" horiz-adv-x="478" 
d="M234 294q75 0 128 41q-4 121 -45.5 185.5t-108.5 64.5q-53 0 -75.5 -33.5t-22.5 -109.5q0 -69 35 -108.5t89 -39.5zM135 -10q-39 0 -75 10l12 69h16l55 -52q214 16 219 288q-117 -61 -166 -61q-71 0 -112.5 49t-41.5 125q0 92 59.5 148t130.5 56q84 0 140.5 -64.5
t56.5 -205.5q0 -174 -84 -268t-210 -94z" />
    <glyph glyph-name="zero.osf" horiz-adv-x="490" 
d="M452 247q0 -125 -63.5 -191t-164.5 -66q-85 0 -135.5 68t-50.5 173q0 125 64 191.5t165 66.5q85 0 135 -68t50 -174zM394 208q0 107 -50.5 165.5t-116.5 58.5q-71 0 -100 -38.5t-29 -125.5q0 -104 50 -162t116 -58q130 0 130 160z" />
    <glyph glyph-name="one.osf" horiz-adv-x="398" 
d="M284 481v-423l99 -44v-14h-300v15l134 43v384l-159 -77l-16 55l202 61h40z" />
    <glyph glyph-name="two.osf" horiz-adv-x="448" 
d="M390 0h-353v24q153 142 189 181q72 86 74 153q0 37 -27.5 60t-79.5 23q-25 0 -51 -6l-61 -99h-28l9 104q130 49 174 49q70 0 104.5 -32.5t34.5 -79.5q0 -68 -62.5 -144t-201.5 -177h219l61 83h23z" />
    <glyph glyph-name="three.osf" horiz-adv-x="442" 
d="M134 -144q-48 0 -110 14l2 3l12 56h13l73 -43h16q92 0 133.5 29.5t41.5 92.5q0 64 -50.5 99.5t-120.5 35.5q-31 0 -49 -2l36 61q26 -4 55 -4q47 0 75 31.5t28 91.5q0 51 -32.5 89.5t-78.5 38.5q-22 0 -40 -3l-77 -103h-28l17 98q120 48 194 48q51 0 86.5 -36.5
t35.5 -86.5q0 -56 -34 -106t-96 -74q78 -14 118.5 -51.5t40.5 -87.5q0 -76 -76.5 -133.5t-184.5 -57.5z" />
    <glyph glyph-name="four.osf" horiz-adv-x="478" 
d="M302 52v340l-234 -340h234zM436 0h-72v-134h-62v134h-302v5l333 484h31v-437h94z" />
    <glyph glyph-name="five.osf" horiz-adv-x="470" 
d="M159 -144q-72 0 -134 14l3 5l13 62h14l69 -50q7 -1 21 -1q106 0 153 29.5t47 95.5q0 79 -51 120t-182 41l-38 -9l19 304l19 14h256l33 31h22l-19 -92h-276l-12 -221l4 23h30q271 0 271 -173q0 -91 -73 -142t-189 -51z" />
    <glyph glyph-name="six.osf" horiz-adv-x="474" 
d="M449 191q0 -92 -64.5 -146.5t-146.5 -54.5q-98 0 -144 74.5t-46 198.5q0 94 22.5 166t60 112.5t80 60.5t88.5 20q66 0 124 -22l-21 -123h-22l-58 104q-18 5 -51 5q-156 0 -156 -288v-21q130 73 172 73q72 0 117 -41.5t45 -117.5zM265 27q115 0 115 139q0 130 -133 130
q-68 0 -130 -48q9 -102 50 -161.5t98 -59.5z" />
    <glyph glyph-name="seven.osf" horiz-adv-x="464" 
d="M175 -134h-70v14l286 540h-274l-58 -84h-23l24 145h392v-20z" />
    <glyph glyph-name="eight.osf" horiz-adv-x="486" 
d="M228 -10q-83 0 -134.5 38t-51.5 102q0 57 44.5 107t113.5 84q-62 37 -95.5 74.5t-33.5 87.5q0 54 57.5 96.5t128.5 42.5q70 0 117.5 -32.5t47.5 -91.5q0 -49 -33.5 -87.5t-98.5 -75.5q89 -51 121.5 -83.5t32.5 -90.5q0 -69 -66 -120t-150 -51zM148 501q0 -78 116 -151
q89 50 89 130q0 51 -34 80.5t-84 29.5q-45 0 -66 -21t-21 -68zM256 31q57 0 85 22.5t28 81.5q0 53 -29 88t-113 82q-52 -26 -82 -66t-30 -84q0 -60 41 -92t100 -32z" />
    <glyph glyph-name="nine.osf" horiz-adv-x="461" 
d="M218 161q75 0 128 41q-4 121 -45.5 185.5t-108.5 64.5q-53 0 -75.5 -33.5t-22.5 -109.5q0 -69 35 -108.5t89 -39.5zM119 -143q-39 0 -75 10l12 69h16l55 -52q214 16 219 288q-117 -61 -166 -61q-71 0 -112.5 49t-41.5 125q0 92 59.5 148t130.5 56q84 0 140.5 -64.5
t56.5 -205.5q0 -174 -84 -268t-210 -94z" />
    <glyph glyph-name="zero.tosf" horiz-adv-x="490" 
d="M451 247q0 -125 -63.5 -191t-164.5 -66q-85 0 -135.5 68t-50.5 173q0 125 64 191.5t165 66.5q85 0 135 -68t50 -174zM393 208q0 107 -50.5 165.5t-116.5 58.5q-71 0 -100 -38.5t-29 -125.5q0 -104 50 -162t116 -58q130 0 130 160z" />
    <glyph glyph-name="one.tosf" horiz-adv-x="490" 
d="M315 481v-423l99 -44v-14h-300v15l134 43v384l-159 -77l-16 55l202 61h40z" />
    <glyph glyph-name="two.tosf" horiz-adv-x="490" 
d="M414 0h-353v24q153 142 189 181q72 86 74 153q0 37 -27.5 60t-79.5 23q-25 0 -51 -6l-61 -99h-28l9 104q130 49 174 49q70 0 104.5 -32.5t34.5 -79.5q0 -68 -62.5 -144t-201.5 -177h219l61 83h23z" />
    <glyph glyph-name="three.tosf" horiz-adv-x="490" 
d="M181 -144q-48 0 -110 14l2 3l12 56h13l73 -43h16q92 0 133.5 29.5t41.5 92.5q0 64 -50.5 99.5t-120.5 35.5q-31 0 -49 -2l36 61q26 -4 55 -4q47 0 75 31.5t28 91.5q0 51 -32.5 89.5t-78.5 38.5q-22 0 -40 -3l-77 -103h-28l17 98q120 48 194 48q51 0 86.5 -36.5
t35.5 -86.5q0 -56 -34 -106t-96 -74q78 -14 118.5 -51.5t40.5 -87.5q0 -76 -76.5 -133.5t-184.5 -57.5z" />
    <glyph glyph-name="four.tosf" horiz-adv-x="490" 
d="M302 52v340l-234 -340h234zM436 0h-72v-134h-62v134h-302v5l333 484h31v-437h94z" />
    <glyph glyph-name="five.tosf" horiz-adv-x="490" 
d="M174 -144q-72 0 -134 14l3 5l13 62h14l69 -50q7 -1 21 -1q106 0 153 29.5t47 95.5q0 79 -51 120t-182 41l-38 -9l19 304l19 14h256l33 31h22l-19 -92h-276l-12 -221l4 23h30q271 0 271 -173q0 -91 -73 -142t-189 -51z" />
    <glyph glyph-name="six.tosf" horiz-adv-x="490" 
d="M467 191q0 -92 -64.5 -146.5t-146.5 -54.5q-98 0 -144 74.5t-46 198.5q0 94 22.5 166t60 112.5t80 60.5t88.5 20q66 0 124 -22l-21 -123h-22l-58 104q-18 5 -51 5q-156 0 -156 -288v-21q130 73 172 73q72 0 117 -41.5t45 -117.5zM283 27q115 0 115 139q0 130 -133 130
q-68 0 -130 -48q9 -102 50 -161.5t98 -59.5z" />
    <glyph glyph-name="seven.tosf" horiz-adv-x="490" 
d="M166 -134h-70v14l286 540h-274l-58 -84h-23l24 145h392v-20z" />
    <glyph glyph-name="eight.tosf" horiz-adv-x="490" 
d="M230 -10q-83 0 -134.5 38t-51.5 102q0 57 44.5 107t113.5 84q-62 37 -95.5 74.5t-33.5 87.5q0 54 57.5 96.5t128.5 42.5q70 0 117.5 -32.5t47.5 -91.5q0 -49 -33.5 -87.5t-98.5 -75.5q89 -51 121.5 -83.5t32.5 -90.5q0 -69 -66 -120t-150 -51zM150 501q0 -78 116 -151
q89 50 89 130q0 51 -34 80.5t-84 29.5q-45 0 -66 -21t-21 -68zM258 31q57 0 85 22.5t28 81.5q0 53 -29 88t-113 82q-52 -26 -82 -66t-30 -84q0 -60 41 -92t100 -32z" />
    <glyph glyph-name="nine.tosf" horiz-adv-x="490" 
d="M235 161q75 0 128 41q-4 121 -45.5 185.5t-108.5 64.5q-53 0 -75.5 -33.5t-22.5 -109.5q0 -69 35 -108.5t89 -39.5zM136 -143q-39 0 -75 10l12 69h16l55 -52q214 16 219 288q-117 -61 -166 -61q-71 0 -112.5 49t-41.5 125q0 92 59.5 148t130.5 56q84 0 140.5 -64.5
t56.5 -205.5q0 -174 -84 -268t-210 -94z" />
    <glyph glyph-name="caron.alt" 
d="M203 647q4 16 18 27t28 11q12 0 30 -21t18 -45q0 -49 -66 -148l-17 3q23 67 23 97q0 41 -34 76z" />
    <glyph glyph-name="A.sc" horiz-adv-x="538" 
d="M342 215l-81 192l-82 -192h163zM166 13v-13h-161v13l59 32l189 429l39 19l191 -448l50 -32v-13h-190v13l71 32l-59 141h-188l-61 -141h1z" />
    <glyph glyph-name="Agrave.sc" horiz-adv-x="538" 
d="M241 694l81 -168h-23l-130 142zM342 215l-81 192l-82 -192h163zM166 13v-13h-161v13l59 32l189 429l39 19l191 -448l50 -32v-13h-190v13l71 32l-59 141h-188l-61 -141h1z" />
    <glyph glyph-name="Aacute.sc" horiz-adv-x="538" 
d="M242 526l81 168l72 -26l-130 -142h-23zM342 215l-81 192l-82 -192h163zM166 13v-13h-161v13l59 32l189 429l39 19l191 -448l50 -32v-13h-190v13l71 32l-59 141h-188l-61 -141h1z" />
    <glyph glyph-name="Acircumflex.sc" horiz-adv-x="538" 
d="M299 694l111 -168h-23l-105 97l-104 -97h-23l111 168h33zM342 215l-81 192l-82 -192h163zM166 13v-13h-161v13l59 32l189 429l39 19l191 -448l50 -32v-13h-190v13l71 32l-59 141h-188l-61 -141h1z" />
    <glyph glyph-name="Atilde.sc" horiz-adv-x="538" 
d="M348 592q15 0 28 8t20 15.5t22 25.5l8 -11q-21 -36 -31 -50.5t-24.5 -26t-31.5 -11.5q-21 0 -65 15t-63 15q-35 0 -76 -44l-6 11q36 50 52.5 65.5t41.5 15.5q22 0 66.5 -14t58.5 -14zM342 215l-81 192l-82 -192h163zM166 13v-13h-161v13l59 32l189 429l39 19l191 -448
l50 -32v-13h-190v13l71 32l-59 141h-188l-61 -141h1z" />
    <glyph glyph-name="Adieresis.sc" horiz-adv-x="538" 
d="M326 574q0 12 13.5 27.5t23.5 15.5t25.5 -12.5t15.5 -24.5t-14 -26.5t-24 -14.5t-25 12t-15 23zM156 574q0 12 13.5 27.5t23.5 15.5q11 0 26 -12.5t15 -24.5t-13.5 -26.5t-23.5 -14.5t-25.5 12t-15.5 23zM342 215l-81 192l-82 -192h163zM166 13v-13h-161v13l59 32
l189 429l39 19l191 -448l50 -32v-13h-190v13l71 32l-59 141h-188l-61 -141h1z" />
    <glyph glyph-name="Aring.sc" horiz-adv-x="538" 
d="M198 623q0 34 23.5 58t57.5 24q35 0 57.5 -21.5t22.5 -60.5q0 -34 -23.5 -58t-56.5 -24q-36 0 -58.5 21.5t-22.5 60.5zM226 622q0 -25 14 -40t37 -15t38 15t15 40q0 27 -14.5 43t-38.5 16q-23 0 -37 -16t-14 -43zM342 215l-81 192l-82 -192h163zM166 13v-13h-161v13
l59 32l189 429l39 19l191 -448l50 -32v-13h-190v13l71 32l-59 141h-188l-61 -141h1z" />
    <glyph glyph-name="Amacron.sc" horiz-adv-x="538" 
d="M386 580v-15l-14 -21h-199v15l14 21h199zM342 215l-81 192l-82 -192h163zM166 13v-13h-161v13l59 32l189 429l39 19l191 -448l50 -32v-13h-190v13l71 32l-59 141h-188l-61 -141h1z" />
    <glyph glyph-name="Abreve.sc" horiz-adv-x="538" 
d="M280 582q50 0 72 30.5t29 81.5h23q0 -76 -31 -122t-96 -46q-123 0 -123 168h23q14 -112 103 -112zM342 215l-81 192l-82 -192h163zM166 13v-13h-161v13l59 32l189 429l39 19l191 -448l50 -32v-13h-190v13l71 32l-59 141h-188l-61 -141h1z" />
    <glyph glyph-name="Aogonek.sc" horiz-adv-x="538" 
d="M342 215l-81 192l-82 -192h163zM500 -208q-9 -3 -22 -8l-19.5 -7.5t-15 -4.5t-16.5 -2q-29 0 -51.5 21.5t-22.5 53.5q0 44 30.5 85.5t81.5 69.5h-122v13l71 32l-59 141h-188l-61 -141h1l59 -32v-13h-161v13l59 32l189 429l39 19l191 -448l50 -32v-13h-45
q-90 -62 -90 -136q0 -24 15.5 -42t41.5 -18q16 0 40 8z" />
    <glyph glyph-name="Acaron.sc" horiz-adv-x="538" 
d="M404 694l-111 -168h-33l-111 168h23l104 -98l105 98h23zM342 215l-81 192l-82 -192h163zM166 13v-13h-161v13l59 32l189 429l39 19l191 -448l50 -32v-13h-190v13l71 32l-59 141h-188l-61 -141h1z" />
    <glyph glyph-name="B.sc" horiz-adv-x="480" 
d="M166 -1v1h-121v13l62 32v389l-62 34v13h192q167 0 167 -108q0 -75 -93 -113q60 -9 90.5 -39.5t30.5 -73.5q0 -69 -58.5 -108t-143.5 -39h-4h-7h-8.5h-10h-10.5h-10t-7.5 -0.5t-4.5 -0.5h-2zM235 261q54 0 75.5 20t21.5 64q0 107 -125 107q-25 0 -33 -1v-182q30 -8 61 -8z
M247 27q63 0 88.5 22t25.5 77q0 51 -36 80.5t-103 29.5q-14 0 -48 -2v-198q37 -9 73 -9z" />
    <glyph glyph-name="C.sc" horiz-adv-x="487" 
d="M421 116l21 -1l-20 -98q-73 -25 -153 -25q-103 0 -163 64.5t-60 173.5q0 119 74 189t180 70q84 0 125 -23l-18 -100h-21l-43 73q-29 8 -78 8q-78 0 -116 -40.5t-38 -146.5q0 -109 51 -172.5t135 -63.5q38 0 51 3z" />
    <glyph glyph-name="Ccedilla.sc" horiz-adv-x="487" 
d="M367 -133q0 -32 -42.5 -51t-109.5 -21l-7 28q34 0 50 0.5t31.5 3.5t21 9t5.5 17q0 18 -15.5 30.5t-61.5 23.5l30 85q-103 0 -163 64.5t-60 173.5q0 119 74 189t180 70q84 0 125 -23l-18 -100h-21l-43 73q-29 8 -78 8q-78 0 -116 -40.5t-38 -146.5q0 -109 51 -172.5
t135 -63.5q38 0 51 3l73 89l21 -1l-20 -98q-62 -22 -131 -25l-15 -51q48 -13 69.5 -29t21.5 -45z" />
    <glyph glyph-name="Cacute.sc" horiz-adv-x="487" 
d="M206 526l81 168l72 -26l-130 -142h-23zM421 116l21 -1l-20 -98q-73 -25 -153 -25q-103 0 -163 64.5t-60 173.5q0 119 74 189t180 70q84 0 125 -23l-18 -100h-21l-43 73q-29 8 -78 8q-78 0 -116 -40.5t-38 -146.5q0 -109 51 -172.5t135 -63.5q38 0 51 3z" />
    <glyph glyph-name="Ccircumflex.sc" horiz-adv-x="487" 
d="M315 694l111 -168h-23l-105 97l-104 -97h-23l111 168h33zM421 116l21 -1l-20 -98q-73 -25 -153 -25q-103 0 -163 64.5t-60 173.5q0 119 74 189t180 70q84 0 125 -23l-18 -100h-21l-43 73q-29 8 -78 8q-78 0 -116 -40.5t-38 -146.5q0 -109 51 -172.5t135 -63.5q38 0 51 3z
" />
    <glyph glyph-name="Cdotaccent.sc" horiz-adv-x="487" 
d="M250 580q0 14 16 32t28 18t30 -14.5t18 -27.5q0 -14 -16 -32t-28 -18t-30 14.5t-18 27.5zM421 116l21 -1l-20 -98q-73 -25 -153 -25q-103 0 -163 64.5t-60 173.5q0 119 74 189t180 70q84 0 125 -23l-18 -100h-21l-43 73q-29 8 -78 8q-78 0 -116 -40.5t-38 -146.5
q0 -109 51 -172.5t135 -63.5q38 0 51 3z" />
    <glyph glyph-name="Ccaron.sc" horiz-adv-x="487" 
d="M411 694l-111 -168h-33l-111 168h23l104 -98l105 98h23zM421 116l21 -1l-20 -98q-73 -25 -153 -25q-103 0 -163 64.5t-60 173.5q0 119 74 189t180 70q84 0 125 -23l-18 -100h-21l-43 73q-29 8 -78 8q-78 0 -116 -40.5t-38 -146.5q0 -109 51 -172.5t135 -63.5q38 0 51 3z
" />
    <glyph glyph-name="D.sc" horiz-adv-x="562" 
d="M281 33q83 0 125.5 46.5t42.5 152.5q0 113 -59 166.5t-143 53.5h-73v-419l3 13q52 -13 104 -13zM45 0v13l62 32v389l-62 34v13h233q238 0 238 -222q0 -126 -73 -192.5t-193 -66.5h-205z" />
    <glyph glyph-name="Dcaron.sc" horiz-adv-x="562" 
d="M397 694l-111 -168h-33l-111 168h23l104 -98l105 98h23zM281 33q83 0 125.5 46.5t42.5 152.5q0 113 -59 166.5t-143 53.5h-73v-419l3 13q52 -13 104 -13zM45 0v13l62 32v389l-62 34v13h233q238 0 238 -222q0 -126 -73 -192.5t-193 -66.5h-205z" />
    <glyph glyph-name="E.sc" horiz-adv-x="452" 
d="M45 0v13l62 32v389l-62 34v13h344l-17 -101h-21l-43 72h-134v-191h60l104 8l-8 -42l-95 10h-61v-210h142l67 84h21l-23 -111h-336z" />
    <glyph glyph-name="Egrave.sc" horiz-adv-x="452" 
d="M227 694l81 -168h-23l-130 142zM45 0v13l62 32v389l-62 34v13h344l-17 -101h-21l-43 72h-134v-191h60l104 8l-8 -42l-95 10h-61v-210h142l67 84h21l-23 -111h-336z" />
    <glyph glyph-name="Eacute.sc" horiz-adv-x="452" 
d="M163 526l81 168l72 -26l-130 -142h-23zM45 0v13l62 32v389l-62 34v13h344l-17 -101h-21l-43 72h-134v-191h60l104 8l-8 -42l-95 10h-61v-210h142l67 84h21l-23 -111h-336z" />
    <glyph glyph-name="Ecircumflex.sc" horiz-adv-x="452" 
d="M262 694l111 -168h-23l-105 97l-104 -97h-23l111 168h33zM45 0v13l62 32v389l-62 34v13h344l-17 -101h-21l-43 72h-134v-191h60l104 8l-8 -42l-95 10h-61v-210h142l67 84h21l-23 -111h-336z" />
    <glyph glyph-name="Edieresis.sc" horiz-adv-x="452" 
d="M292 574q0 12 13.5 27.5t23.5 15.5t25.5 -12.5t15.5 -24.5t-14 -26.5t-24 -14.5t-25 12t-15 23zM122 574q0 12 13.5 27.5t23.5 15.5q11 0 26 -12.5t15 -24.5t-13.5 -26.5t-23.5 -14.5t-25.5 12t-15.5 23zM45 0v13l62 32v389l-62 34v13h344l-17 -101h-21l-43 72h-134v-191
h60l104 8l-8 -42l-95 10h-61v-210h142l67 84h21l-23 -111h-336z" />
    <glyph glyph-name="Emacron.sc" horiz-adv-x="452" 
d="M337 580v-15l-14 -21h-199v15l14 21h199zM45 0v13l62 32v389l-62 34v13h344l-17 -101h-21l-43 72h-134v-191h60l104 8l-8 -42l-95 10h-61v-210h142l67 84h21l-23 -111h-336z" />
    <glyph glyph-name="Ebreve.sc" horiz-adv-x="452" 
d="M261 582q50 0 72 30.5t29 81.5h23q0 -76 -31 -122t-96 -46q-123 0 -123 168h23q14 -112 103 -112zM45 0v13l62 32v389l-62 34v13h344l-17 -101h-21l-43 72h-134v-191h60l104 8l-8 -42l-95 10h-61v-210h142l67 84h21l-23 -111h-336z" />
    <glyph glyph-name="Edotaccent.sc" horiz-adv-x="452" 
d="M199 580q0 14 16 32t28 18t30 -14.5t18 -27.5q0 -14 -16 -32t-28 -18t-30 14.5t-18 27.5zM45 0v13l62 32v389l-62 34v13h344l-17 -101h-21l-43 72h-134v-191h60l104 8l-8 -42l-95 10h-61v-210h142l67 84h21l-23 -111h-336z" />
    <glyph glyph-name="Eogonek.sc" horiz-adv-x="452" 
d="M374 -208q-9 -3 -22 -8l-19.5 -7.5t-15 -4.5t-16.5 -2q-29 0 -51.5 21.5t-22.5 53.5q0 44 30.5 85.5t81.5 69.5h-294v13l62 32v389l-62 34v13h344l-17 -101h-21l-43 72h-134v-191h60l104 8l-8 -42l-95 10h-61v-210h142l67 84h21l-23 -111h-19q-90 -62 -90 -136
q0 -24 15.5 -42t41.5 -18q16 0 40 8z" />
    <glyph glyph-name="Ecaron.sc" horiz-adv-x="452" 
d="M358 694l-111 -168h-33l-111 168h23l104 -98l105 98h23zM45 0v13l62 32v389l-62 34v13h344l-17 -101h-21l-43 72h-134v-191h60l104 8l-8 -42l-95 10h-61v-210h142l67 84h21l-23 -111h-336z" />
    <glyph glyph-name="F.sc" horiz-adv-x="407" 
d="M256 12v-12h-211v13l62 32v389l-62 34v13h334l-18 -101h-20l-44 72h-123v-195h52l104 6l-8 -40l-95 10h-53v-188z" />
    <glyph glyph-name="G.sc" horiz-adv-x="515" 
d="M434 171v-152q-70 -27 -156 -27q-111 0 -171.5 63t-60.5 175q0 119 73.5 189t177.5 70q87 0 139 -22l-18 -101h-20l-43 71q-30 10 -85 10q-86 0 -122.5 -43t-36.5 -151q0 -103 53.5 -166t141.5 -63q46 0 66 6v141l-64 34v13h179v-14z" />
    <glyph glyph-name="Gcircumflex.sc" horiz-adv-x="515" 
d="M296 694l111 -168h-23l-105 97l-104 -97h-23l111 168h33zM434 171v-152q-70 -27 -156 -27q-111 0 -171.5 63t-60.5 175q0 119 73.5 189t177.5 70q87 0 139 -22l-18 -101h-20l-43 71q-30 10 -85 10q-86 0 -122.5 -43t-36.5 -151q0 -103 53.5 -166t141.5 -63q46 0 66 6v141
l-64 34v13h179v-14z" />
    <glyph glyph-name="Gbreve.sc" horiz-adv-x="515" 
d="M282 582q50 0 72 30.5t29 81.5h23q0 -76 -31 -122t-96 -46q-123 0 -123 168h23q14 -112 103 -112zM434 171v-152q-70 -27 -156 -27q-111 0 -171.5 63t-60.5 175q0 119 73.5 189t177.5 70q87 0 139 -22l-18 -101h-20l-43 71q-30 10 -85 10q-86 0 -122.5 -43t-36.5 -151
q0 -103 53.5 -166t141.5 -63q46 0 66 6v141l-64 34v13h179v-14z" />
    <glyph glyph-name="Gdotaccent.sc" horiz-adv-x="515" 
d="M253 580q0 14 16 32t28 18t30 -14.5t18 -27.5q0 -14 -16 -32t-28 -18t-30 14.5t-18 27.5zM434 171v-152q-70 -27 -156 -27q-111 0 -171.5 63t-60.5 175q0 119 73.5 189t177.5 70q87 0 139 -22l-18 -101h-20l-43 71q-30 10 -85 10q-86 0 -122.5 -43t-36.5 -151
q0 -103 53.5 -166t141.5 -63q46 0 66 6v141l-64 34v13h179v-14z" />
    <glyph glyph-name="Gcommaaccent.sc" horiz-adv-x="515" 
d="M434 171v-152q-70 -27 -156 -27q-111 0 -171.5 63t-60.5 175q0 119 73.5 189t177.5 70q87 0 139 -22l-18 -101h-20l-43 71q-30 10 -85 10q-86 0 -122.5 -43t-36.5 -151q0 -103 53.5 -166t141.5 -63q46 0 66 6v141l-64 34v13h179v-14zM253 -93q0 15 14 30.5t26 15.5
q14 0 34 -24.5t20 -50.5q0 -60 -86 -145l-13 10q49 65 49 93q0 20 -22 39t-22 32z" />
    <glyph glyph-name="H.sc" horiz-adv-x="603" 
d="M238 12v-12h-193v13l62 32v389l-62 34v13h193v-14l-64 -33v-172h254v172l-63 34v13h193v-14l-62 -33v-389l62 -33v-12h-193v13l63 32v192h-254v-192z" />
    <glyph glyph-name="Hcircumflex.sc" horiz-adv-x="606" 
d="M317 694l111 -168h-23l-105 97l-104 -97h-23l111 168h33zM238 12v-12h-193v13l62 32v389l-62 34v13h193v-14l-64 -33v-172h254v172l-63 34v13h193v-14l-62 -33v-389l62 -33v-12h-193v13l63 32v192h-254v-192z" />
    <glyph glyph-name="I.sc" horiz-adv-x="281" 
d="M174 434v-389l62 -33v-12h-191v13l62 32v389l-62 34v13h191v-14z" />
    <glyph glyph-name="Igrave.sc" horiz-adv-x="281" 
d="M123 694l81 -168h-23l-130 142zM174 434v-389l62 -33v-12h-191v13l62 32v389l-62 34v13h191v-14z" />
    <glyph glyph-name="Iacute.sc" horiz-adv-x="281" 
d="M89 526l81 168l72 -26l-130 -142h-23zM174 434v-389l62 -33v-12h-191v13l62 32v389l-62 34v13h191v-14z" />
    <glyph glyph-name="Icircumflex.sc" horiz-adv-x="281" 
d="M158 694l111 -168h-23l-105 97l-104 -97h-23l111 168h33zM174 434v-389l62 -33v-12h-191v13l62 32v389l-62 34v13h191v-14z" />
    <glyph glyph-name="Idieresis.sc" horiz-adv-x="281" 
d="M188 574q0 12 13.5 27.5t23.5 15.5t25.5 -12.5t15.5 -24.5t-14 -26.5t-24 -14.5t-25 12t-15 23zM18 574q0 12 13.5 27.5t23.5 15.5q11 0 26 -12.5t15 -24.5t-13.5 -26.5t-23.5 -14.5t-25.5 12t-15.5 23zM174 434v-389l62 -33v-12h-191v13l62 32v389l-62 34v13h191v-14z
" />
    <glyph glyph-name="Itilde.sc" horiz-adv-x="281" 
d="M224 592q15 0 28 8t20 15.5t22 25.5l8 -11q-21 -36 -31 -50.5t-24.5 -26t-31.5 -11.5q-21 0 -65 15t-63 15q-35 0 -76 -44l-6 11q36 50 52.5 65.5t41.5 15.5q22 0 66.5 -14t58.5 -14zM174 434v-389l62 -33v-12h-191v13l62 32v389l-62 34v13h191v-14z" />
    <glyph glyph-name="Imacron.sc" horiz-adv-x="281" 
d="M248 580v-15l-14 -21h-199v15l14 21h199zM174 434v-389l62 -33v-12h-191v13l62 32v389l-62 34v13h191v-14z" />
    <glyph glyph-name="Ibreve.sc" horiz-adv-x="281" 
d="M142 582q50 0 72 30.5t29 81.5h23q0 -76 -31 -122t-96 -46q-123 0 -123 168h23q14 -112 103 -112zM174 434v-389l62 -33v-12h-191v13l62 32v389l-62 34v13h191v-14z" />
    <glyph glyph-name="Iogonek.sc" horiz-adv-x="281" 
d="M232 -208q-9 -3 -22 -8l-19.5 -7.5t-15 -4.5t-16.5 -2q-29 0 -51.5 21.5t-22.5 53.5q0 44 30.5 85.5t81.5 69.5h-152v13l62 32v389l-62 34v13h191v-14l-62 -33v-389l55 -29l4 1l5 -5h-1l-1 -1v-11h-16q-90 -62 -90 -136q0 -24 15.5 -42t41.5 -18q16 0 40 8z" />
    <glyph glyph-name="Idotaccent.sc" horiz-adv-x="281" 
d="M95 580q0 14 16 32t28 18t30 -14.5t18 -27.5q0 -14 -16 -32t-28 -18t-30 14.5t-18 27.5zM174 434v-389l62 -33v-12h-191v13l62 32v389l-62 34v13h191v-14z" />
    <glyph glyph-name="J.sc" horiz-adv-x="328" 
d="M53 78l58 -62l10 5t10.5 5.5t9 6t9 9t6 11.5t5 16.5t1.5 20.5v344l-73 34v13h202v-14l-62 -33v-317q0 -59 -44 -92t-106 -33q-38 0 -60 8l14 78h20z" />
    <glyph glyph-name="Jcircumflex.sc" horiz-adv-x="328" 
d="M204 694l111 -168h-23l-105 97l-104 -97h-23l111 168h33zM53 78l58 -62l10 5t10.5 5.5t9 6t9 9t6 11.5t5 16.5t1.5 20.5v344l-73 34v13h202v-14l-62 -33v-317q0 -59 -44 -92t-106 -33q-38 0 -60 8l14 78h20z" />
    <glyph glyph-name="K.sc" horiz-adv-x="529" 
d="M174 434v-389l62 -33v-12h-191v13l62 32v389l-62 34v13h191v-14zM524 13v-13h-113l-213 230l-1 -1l-23 23l221 185l-55 30v14h159v-14l-60 -33l-196 -166l222 -223z" />
    <glyph glyph-name="Kcommaaccent.sc" horiz-adv-x="529" 
d="M174 434v-389l62 -33v-12h-191v13l62 32v389l-62 34v13h191v-14zM524 13v-13h-113l-213 230l-1 -1l-23 23l221 185l-55 30v14h159v-14l-60 -33l-196 -166l222 -223zM229 -93q0 15 14 30.5t26 15.5q14 0 34 -24.5t20 -50.5q0 -60 -86 -145l-13 10q49 65 49 93q0 20 -22 39
t-22 32z" />
    <glyph glyph-name="L.sc" horiz-adv-x="449" 
d="M45 0v13l62 32v389l-62 34v13h211v-14l-82 -33v-407h159l74 95h20l-25 -122h-357z" />
    <glyph glyph-name="Lacute.sc" horiz-adv-x="449" 
d="M104 526l81 168l72 -26l-130 -142h-23zM45 0v13l62 32v389l-62 34v13h211v-14l-82 -33v-407h159l74 95h20l-25 -122h-357z" />
    <glyph glyph-name="Lcommaaccent.sc" horiz-adv-x="449" 
d="M45 0v13l62 32v389l-62 34v13h211v-14l-82 -33v-407h159l74 95h20l-25 -122h-357zM171 -93q0 15 14 30.5t26 15.5q14 0 34 -24.5t20 -50.5q0 -60 -86 -145l-13 10q49 65 49 93q0 20 -22 39t-22 32z" />
    <glyph glyph-name="Lcaron.sc" horiz-adv-x="442" 
d="M320 497q4 16 18 27t28 11q12 0 30 -21t18 -45q0 -49 -66 -148l-17 3q23 67 23 97q0 41 -34 76zM45 0v13l62 32v389l-62 34v13h211v-14l-82 -33v-407h159l74 95h20l-25 -122h-357z" />
    <glyph glyph-name="M.sc" horiz-adv-x="729" 
d="M189 12v-12h-162v13l62 32l29 389l-62 34v13h134l171 -378l175 378h136v-14l-63 -33l26 -389l62 -33v-12h-191v13l62 32l-23 365l-178 -375l-39 -19l-176 398l-25 -369z" />
    <glyph glyph-name="N.sc" horiz-adv-x="581" 
d="M206 12v-12h-162v13l62 32v389l-62 34v13h123l271 -348v301l-62 35v12h163v-14l-62 -33v-431h-30l-303 399v-357z" />
    <glyph glyph-name="Ntilde.sc" horiz-adv-x="581" 
d="M376 592q15 0 28 8t20 15.5t22 25.5l8 -11q-21 -36 -31 -50.5t-24.5 -26t-31.5 -11.5q-21 0 -65 15t-63 15q-35 0 -76 -44l-6 11q36 50 52.5 65.5t41.5 15.5q22 0 66.5 -14t58.5 -14zM206 12v-12h-162v13l62 32v389l-62 34v13h123l271 -348v301l-62 35v12h163v-14
l-62 -33v-431h-30l-303 399v-357z" />
    <glyph glyph-name="Nacute.sc" horiz-adv-x="581" 
d="M225 526l81 168l72 -26l-130 -142h-23zM206 12v-12h-162v13l62 32v389l-62 34v13h123l271 -348v301l-62 35v12h163v-14l-62 -33v-431h-30l-303 399v-357z" />
    <glyph glyph-name="Ncommaaccent.sc" horiz-adv-x="581" 
d="M206 12v-12h-162v13l62 32v389l-62 34v13h123l271 -348v301l-62 35v12h163v-14l-62 -33v-431h-30l-303 399v-357zM246 -93q0 15 14 30.5t26 15.5q14 0 34 -24.5t20 -50.5q0 -60 -86 -145l-13 10q49 65 49 93q0 20 -22 39t-22 32z" />
    <glyph glyph-name="Ncaron.sc" horiz-adv-x="581" 
d="M420 694l-111 -168h-33l-111 168h23l104 -98l105 98h23zM206 12v-12h-162v13l62 32v389l-62 34v13h123l271 -348v301l-62 35v12h163v-14l-62 -33v-431h-30l-303 399v-357z" />
    <glyph glyph-name="O.sc" horiz-adv-x="561" 
d="M515 249q0 -119 -73 -188t-176 -69q-95 0 -157.5 62.5t-62.5 176.5q0 118 74 188t179 70q99 0 157.5 -64t58.5 -176zM452 230q0 105 -54.5 160.5t-132.5 55.5q-80 0 -117 -43.5t-37 -151.5q0 -105 54 -161t131 -56q81 0 118.5 43.5t37.5 152.5z" />
    <glyph glyph-name="Ograve.sc" horiz-adv-x="561" 
d="M292 694l81 -168h-23l-130 142zM515 249q0 -119 -73 -188t-176 -69q-95 0 -157.5 62.5t-62.5 176.5q0 118 74 188t179 70q99 0 157.5 -64t58.5 -176zM452 230q0 105 -54.5 160.5t-132.5 55.5q-80 0 -117 -43.5t-37 -151.5q0 -105 54 -161t131 -56q81 0 118.5 43.5
t37.5 152.5z" />
    <glyph glyph-name="Oacute.sc" horiz-adv-x="561" 
d="M203 526l81 168l72 -26l-130 -142h-23zM515 249q0 -119 -73 -188t-176 -69q-95 0 -157.5 62.5t-62.5 176.5q0 118 74 188t179 70q99 0 157.5 -64t58.5 -176zM452 230q0 105 -54.5 160.5t-132.5 55.5q-80 0 -117 -43.5t-37 -151.5q0 -105 54 -161t131 -56q81 0 118.5 43.5
t37.5 152.5z" />
    <glyph glyph-name="Ocircumflex.sc" horiz-adv-x="561" 
d="M297 694l111 -168h-23l-105 97l-104 -97h-23l111 168h33zM515 249q0 -119 -73 -188t-176 -69q-95 0 -157.5 62.5t-62.5 176.5q0 118 74 188t179 70q99 0 157.5 -64t58.5 -176zM452 230q0 105 -54.5 160.5t-132.5 55.5q-80 0 -117 -43.5t-37 -151.5q0 -105 54 -161
t131 -56q81 0 118.5 43.5t37.5 152.5z" />
    <glyph glyph-name="Otilde.sc" horiz-adv-x="561" 
d="M349 592q15 0 28 8t20 15.5t22 25.5l8 -11q-21 -36 -31 -50.5t-24.5 -26t-31.5 -11.5q-21 0 -65 15t-63 15q-35 0 -76 -44l-6 11q36 50 52.5 65.5t41.5 15.5q22 0 66.5 -14t58.5 -14zM515 249q0 -119 -73 -188t-176 -69q-95 0 -157.5 62.5t-62.5 176.5q0 118 74 188
t179 70q99 0 157.5 -64t58.5 -176zM452 230q0 105 -54.5 160.5t-132.5 55.5q-80 0 -117 -43.5t-37 -151.5q0 -105 54 -161t131 -56q81 0 118.5 43.5t37.5 152.5z" />
    <glyph glyph-name="Odieresis.sc" horiz-adv-x="561" 
d="M327 574q0 12 13.5 27.5t23.5 15.5t25.5 -12.5t15.5 -24.5t-14 -26.5t-24 -14.5t-25 12t-15 23zM157 574q0 12 13.5 27.5t23.5 15.5q11 0 26 -12.5t15 -24.5t-13.5 -26.5t-23.5 -14.5t-25.5 12t-15.5 23zM515 249q0 -119 -73 -188t-176 -69q-95 0 -157.5 62.5
t-62.5 176.5q0 118 74 188t179 70q99 0 157.5 -64t58.5 -176zM452 230q0 105 -54.5 160.5t-132.5 55.5q-80 0 -117 -43.5t-37 -151.5q0 -105 54 -161t131 -56q81 0 118.5 43.5t37.5 152.5z" />
    <glyph glyph-name="Omacron.sc" horiz-adv-x="561" 
d="M387 580v-15l-14 -21h-199v15l14 21h199zM515 249q0 -119 -73 -188t-176 -69q-95 0 -157.5 62.5t-62.5 176.5q0 118 74 188t179 70q99 0 157.5 -64t58.5 -176zM452 230q0 105 -54.5 160.5t-132.5 55.5q-80 0 -117 -43.5t-37 -151.5q0 -105 54 -161t131 -56
q81 0 118.5 43.5t37.5 152.5z" />
    <glyph glyph-name="Obreve.sc" horiz-adv-x="561" 
d="M281 582q50 0 72 30.5t29 81.5h23q0 -76 -31 -122t-96 -46q-123 0 -123 168h23q14 -112 103 -112zM515 249q0 -119 -73 -188t-176 -69q-95 0 -157.5 62.5t-62.5 176.5q0 118 74 188t179 70q99 0 157.5 -64t58.5 -176zM452 230q0 105 -54.5 160.5t-132.5 55.5
q-80 0 -117 -43.5t-37 -151.5q0 -105 54 -161t131 -56q81 0 118.5 43.5t37.5 152.5z" />
    <glyph glyph-name="Ohungarumlaut.sc" horiz-adv-x="561" 
d="M300 526l81 168l72 -26l-131 -142h-22zM155 526l81 168l72 -26l-130 -142h-23zM515 249q0 -119 -73 -188t-176 -69q-95 0 -157.5 62.5t-62.5 176.5q0 118 74 188t179 70q99 0 157.5 -64t58.5 -176zM452 230q0 105 -54.5 160.5t-132.5 55.5q-80 0 -117 -43.5t-37 -151.5
q0 -105 54 -161t131 -56q81 0 118.5 43.5t37.5 152.5z" />
    <glyph glyph-name="P.sc" horiz-adv-x="439" 
d="M251 0h-206v13l62 32v389l-62 34v13h202q79 0 123 -30.5t44 -85.5q0 -66 -60 -108t-148 -42q-24 0 -32 -1v-169l77 -33v-12zM221 244q121 0 121 95q0 52 -36.5 83.5t-93.5 31.5h-38v-208q30 -2 47 -2z" />
    <glyph glyph-name="Q.sc" horiz-adv-x="561" 
d="M515 249q0 -119 -73 -188t-176 -69q-95 0 -157.5 62.5t-62.5 176.5q0 118 74 188t179 70q99 0 157.5 -64t58.5 -176zM452 230q0 105 -54.5 160.5t-132.5 55.5q-80 0 -117 -43.5t-37 -151.5q0 -105 54 -161t131 -56q31 0 55.5 7.5t49 26.5t38 60.5t13.5 101.5zM242 -36
q27 0 116.5 -25t106.5 -25q41 0 84 23l4 -13q-41 -37 -64 -50t-48 -13q-29 0 -118 32t-111 32q-16 -1 -26.5 -8t-40.5 -37h-12l-12 43q92 41 121 41z" />
    <glyph glyph-name="R.sc" horiz-adv-x="501" 
d="M227 249q60 0 85 20t25 70q0 55 -33 84t-95 29h-35v-198q19 -5 53 -5zM256 12v-12h-211v13l62 32v389l-62 34v13h203q75 0 118 -31t43 -84q0 -45 -30 -77t-78 -50l145 -198l52 -29v-12h-111l-145 221l8 4q-20 -4 -43 -4h-33v-176z" />
    <glyph glyph-name="Racute.sc" horiz-adv-x="501" 
d="M194 526l81 168l72 -26l-130 -142h-23zM227 249q60 0 85 20t25 70q0 55 -33 84t-95 29h-35v-198q19 -5 53 -5zM256 12v-12h-211v13l62 32v389l-62 34v13h203q75 0 118 -31t43 -84q0 -45 -30 -77t-78 -50l145 -198l52 -29v-12h-111l-145 221l8 4q-20 -4 -43 -4h-33v-176z
" />
    <glyph glyph-name="Rcommaaccent.sc" horiz-adv-x="501" 
d="M227 249q60 0 85 20t25 70q0 55 -33 84t-95 29h-35v-198q19 -5 53 -5zM256 12v-12h-211v13l62 32v389l-62 34v13h203q75 0 118 -31t43 -84q0 -45 -30 -77t-78 -50l145 -198l52 -29v-12h-111l-145 221l8 4q-20 -4 -43 -4h-33v-176zM210 -93q0 15 14 30.5t26 15.5
q14 0 34 -24.5t20 -50.5q0 -60 -86 -145l-13 10q49 65 49 93q0 20 -22 39t-22 32z" />
    <glyph glyph-name="Rcaron.sc" horiz-adv-x="501" 
d="M364 694l-111 -168h-33l-111 168h23l104 -98l105 98h23zM227 249q60 0 85 20t25 70q0 55 -33 84t-95 29h-35v-198q19 -5 53 -5zM256 12v-12h-211v13l62 32v389l-62 34v13h203q75 0 118 -31t43 -84q0 -45 -30 -77t-78 -50l145 -198l52 -29v-12h-111l-145 221l8 4
q-20 -4 -43 -4h-33v-176z" />
    <glyph glyph-name="S.sc" horiz-adv-x="431" 
d="M222 218l-47 18q-107 42 -107 120q0 57 49.5 95t133.5 38q71 0 120 -21l-17 -99h-23l-36 72q-41 14 -89 14q-41 0 -59 -17.5t-18 -53.5q0 -70 85 -102l46 -19q66 -25 91 -55t25 -72q0 -60 -54.5 -102t-135.5 -42q-78 0 -133 20l22 102h25l24 -75q40 -13 102 -13
q43 0 65.5 17.5t22.5 62.5q0 38 -20 64.5t-72 47.5z" />
    <glyph glyph-name="Sacute.sc" horiz-adv-x="431" 
d="M159 526l81 168l72 -26l-130 -142h-23zM222 218l-47 18q-107 42 -107 120q0 57 49.5 95t133.5 38q71 0 120 -21l-17 -99h-23l-36 72q-41 14 -89 14q-41 0 -59 -17.5t-18 -53.5q0 -70 85 -102l46 -19q66 -25 91 -55t25 -72q0 -60 -54.5 -102t-135.5 -42q-78 0 -133 20
l22 102h25l24 -75q40 -13 102 -13q43 0 65.5 17.5t22.5 62.5q0 38 -20 64.5t-72 47.5z" />
    <glyph glyph-name="Scircumflex.sc" horiz-adv-x="431" 
d="M254 694l111 -168h-23l-105 97l-104 -97h-23l111 168h33zM222 218l-47 18q-107 42 -107 120q0 57 49.5 95t133.5 38q71 0 120 -21l-17 -99h-23l-36 72q-41 14 -89 14q-41 0 -59 -17.5t-18 -53.5q0 -70 85 -102l46 -19q66 -25 91 -55t25 -72q0 -60 -54.5 -102t-135.5 -42
q-78 0 -133 20l22 102h25l24 -75q40 -13 102 -13q43 0 65.5 17.5t22.5 62.5q0 38 -20 64.5t-72 47.5z" />
    <glyph glyph-name="Scedilla.sc" horiz-adv-x="431" 
d="M143 -205l-7 28q34 0 50 0.5t31.5 3.5t21 9t5.5 17q0 18 -15.5 30.5t-61.5 23.5l30 85h-11q-78 0 -133 20l22 102h25l24 -75q40 -13 102 -13q43 0 65.5 17.5t22.5 62.5q0 38 -20 64.5t-72 47.5l-47 18q-107 42 -107 120q0 57 49.5 95t133.5 38q71 0 120 -21l-17 -99h-23
l-36 72q-41 14 -89 14q-41 0 -59 -17.5t-18 -53.5q0 -70 85 -102l46 -19q66 -25 91 -55t25 -72q0 -54 -44 -93.5t-113 -48.5l-15 -53q48 -13 69.5 -29t21.5 -45q0 -32 -42.5 -51t-109.5 -21z" />
    <glyph glyph-name="Scaron.sc" horiz-adv-x="431" 
d="M368 694l-111 -168h-33l-111 168h23l104 -98l105 98h23zM222 218l-47 18q-107 42 -107 120q0 57 49.5 95t133.5 38q71 0 120 -21l-17 -99h-23l-36 72q-41 14 -89 14q-41 0 -59 -17.5t-18 -53.5q0 -70 85 -102l46 -19q66 -25 91 -55t25 -72q0 -60 -54.5 -102t-135.5 -42
q-78 0 -133 20l22 102h25l24 -75q40 -13 102 -13q43 0 65.5 17.5t22.5 62.5q0 38 -20 64.5t-72 47.5z" />
    <glyph glyph-name="Scommaaccent.sc" horiz-adv-x="431" 
d="M222 218l-47 18q-107 42 -107 120q0 57 49.5 95t133.5 38q71 0 120 -21l-17 -99h-23l-36 72q-41 14 -89 14q-41 0 -59 -17.5t-18 -53.5q0 -70 85 -102l46 -19q66 -25 91 -55t25 -72q0 -60 -54.5 -102t-135.5 -42q-78 0 -133 20l22 102h25l24 -75q40 -13 102 -13
q43 0 65.5 17.5t22.5 62.5q0 38 -20 64.5t-72 47.5zM183 -93q0 15 14 30.5t26 15.5q14 0 34 -24.5t20 -50.5q0 -60 -86 -145l-13 10q49 65 49 93q0 20 -22 39t-22 32z" />
    <glyph glyph-name="T.sc" horiz-adv-x="484" 
d="M341 12v-12h-207v13l69 32v407h-100l-63 -78h-22l18 107h427l-17 -107h-21l-45 78h-109v-407z" />
    <glyph glyph-name="Tcommaaccent.sc" horiz-adv-x="484" 
d="M341 12v-12h-207v13l69 32v407h-100l-63 -78h-22l18 107h427l-17 -107h-21l-45 78h-109v-407zM192 -93q0 15 14 30.5t26 15.5q14 0 34 -24.5t20 -50.5q0 -60 -86 -145l-13 10q49 65 49 93q0 20 -22 39t-22 32z" />
    <glyph glyph-name="Tcaron.sc" horiz-adv-x="484" 
d="M365 694l-111 -168h-33l-111 168h23l104 -98l105 98h23zM341 12v-12h-207v13l69 32v407h-100l-63 -78h-22l18 107h427l-17 -107h-21l-45 78h-109v-407z" />
    <glyph glyph-name="U.sc" horiz-adv-x="576" 
d="M105 155v279l-62 34v13h191v-14l-62 -33v-259q0 -136 143 -136q62 0 92.5 26.5t30.5 87.5v281l-62 35v12h162v-14l-62 -33v-258q0 -83 -53 -133.5t-142 -50.5q-85 0 -130.5 41t-45.5 122z" />
    <glyph glyph-name="Ugrave.sc" horiz-adv-x="576" 
d="M279 694l81 -168h-23l-130 142zM105 155v279l-62 34v13h191v-14l-62 -33v-259q0 -136 143 -136q62 0 92.5 26.5t30.5 87.5v281l-62 35v12h162v-14l-62 -33v-258q0 -83 -53 -133.5t-142 -50.5q-85 0 -130.5 41t-45.5 122z" />
    <glyph glyph-name="Uacute.sc" horiz-adv-x="576" 
d="M245 526l81 168l72 -26l-130 -142h-23zM105 155v279l-62 34v13h191v-14l-62 -33v-259q0 -136 143 -136q62 0 92.5 26.5t30.5 87.5v281l-62 35v12h162v-14l-62 -33v-258q0 -83 -53 -133.5t-142 -50.5q-85 0 -130.5 41t-45.5 122z" />
    <glyph glyph-name="Ucircumflex.sc" horiz-adv-x="576" 
d="M314 694l111 -168h-23l-105 97l-104 -97h-23l111 168h33zM105 155v279l-62 34v13h191v-14l-62 -33v-259q0 -136 143 -136q62 0 92.5 26.5t30.5 87.5v281l-62 35v12h162v-14l-62 -33v-258q0 -83 -53 -133.5t-142 -50.5q-85 0 -130.5 41t-45.5 122z" />
    <glyph glyph-name="Udieresis.sc" horiz-adv-x="576" 
d="M344 574q0 12 13.5 27.5t23.5 15.5t25.5 -12.5t15.5 -24.5t-14 -26.5t-24 -14.5t-25 12t-15 23zM174 574q0 12 13.5 27.5t23.5 15.5q11 0 26 -12.5t15 -24.5t-13.5 -26.5t-23.5 -14.5t-25.5 12t-15.5 23zM105 155v279l-62 34v13h191v-14l-62 -33v-259q0 -136 143 -136
q62 0 92.5 26.5t30.5 87.5v281l-62 35v12h162v-14l-62 -33v-258q0 -83 -53 -133.5t-142 -50.5q-85 0 -130.5 41t-45.5 122z" />
    <glyph glyph-name="Utilde.sc" horiz-adv-x="576" 
d="M366 592q15 0 28 8t20 15.5t22 25.5l8 -11q-21 -36 -31 -50.5t-24.5 -26t-31.5 -11.5q-21 0 -65 15t-63 15q-35 0 -76 -44l-6 11q36 50 52.5 65.5t41.5 15.5q22 0 66.5 -14t58.5 -14zM105 155v279l-62 34v13h191v-14l-62 -33v-259q0 -136 143 -136q62 0 92.5 26.5
t30.5 87.5v281l-62 35v12h162v-14l-62 -33v-258q0 -83 -53 -133.5t-142 -50.5q-85 0 -130.5 41t-45.5 122z" />
    <glyph glyph-name="Umacron.sc" horiz-adv-x="576" 
d="M404 580v-15l-14 -21h-199v15l14 21h199zM105 155v279l-62 34v13h191v-14l-62 -33v-259q0 -136 143 -136q62 0 92.5 26.5t30.5 87.5v281l-62 35v12h162v-14l-62 -33v-258q0 -83 -53 -133.5t-142 -50.5q-85 0 -130.5 41t-45.5 122z" />
    <glyph glyph-name="Ubreve.sc" horiz-adv-x="576" 
d="M298 582q50 0 72 30.5t29 81.5h23q0 -76 -31 -122t-96 -46q-123 0 -123 168h23q14 -112 103 -112zM105 155v279l-62 34v13h191v-14l-62 -33v-259q0 -136 143 -136q62 0 92.5 26.5t30.5 87.5v281l-62 35v12h162v-14l-62 -33v-258q0 -83 -53 -133.5t-142 -50.5
q-85 0 -130.5 41t-45.5 122z" />
    <glyph glyph-name="Uring.sc" horiz-adv-x="576" 
d="M217 623q0 34 23.5 58t57.5 24q35 0 57.5 -21.5t22.5 -60.5q0 -34 -23.5 -58t-56.5 -24q-36 0 -58.5 21.5t-22.5 60.5zM245 622q0 -25 14 -40t37 -15t38 15t15 40q0 27 -14.5 43t-38.5 16q-23 0 -37 -16t-14 -43zM105 155v279l-62 34v13h191v-14l-62 -33v-259
q0 -136 143 -136q62 0 92.5 26.5t30.5 87.5v281l-62 35v12h162v-14l-62 -33v-258q0 -83 -53 -133.5t-142 -50.5q-85 0 -130.5 41t-45.5 122z" />
    <glyph glyph-name="Uhungarumlaut.sc" horiz-adv-x="576" 
d="M317 526l81 168l72 -26l-131 -142h-22zM172 526l81 168l72 -26l-130 -142h-23zM105 155v279l-62 34v13h191v-14l-62 -33v-259q0 -136 143 -136q62 0 92.5 26.5t30.5 87.5v281l-62 35v12h162v-14l-62 -33v-258q0 -83 -53 -133.5t-142 -50.5q-85 0 -130.5 41t-45.5 122z
" />
    <glyph glyph-name="Uogonek.sc" horiz-adv-x="576" 
d="M330 -206q-29 0 -51.5 21.5t-22.5 53.5q0 70 70 127q-19 -4 -45 -4q-85 0 -130.5 41t-45.5 122v279l-62 34v13h191v-14l-62 -33v-259q0 -136 143 -136q62 0 92.5 26.5t30.5 87.5v281l-62 35v12h162v-14l-62 -33v-258q0 -60 -28 -104t-79 -64q-68 -55 -68 -120
q0 -24 15.5 -42t41.5 -18q16 0 40 8l5 -20q-9 -3 -22 -8l-19.5 -7.5t-15 -4.5t-16.5 -2z" />
    <glyph glyph-name="V.sc" horiz-adv-x="509" 
d="M269 6l-31 -19l-178 447l-52 33v14h192v-14l-71 -33l138 -344l142 344l-60 33v14h162v-14l-58 -33h-1l-167 -390l2 -5h-4z" />
    <glyph glyph-name="W.sc" horiz-adv-x="800" 
d="M547 -13l-151 384l-138 -341l-10 -24l-39 -19l-151 447h-3l-51 33v14h189v-14l-70 -32l119 -357l156 403h20l159 -403l117 356h-2l-58 33v14h161v-14l-58 -33h-1l-149 -428z" />
    <glyph glyph-name="Wcircumflex.sc" horiz-adv-x="800" 
d="M430 694l111 -168h-23l-105 97l-104 -97h-23l111 168h33zM547 -13l-151 384l-138 -341l-10 -24l-39 -19l-151 447h-3l-51 33v14h189v-14l-70 -32l119 -357l156 403h20l159 -403l117 356h-2l-58 33v14h161v-14l-58 -33h-1l-149 -428z" />
    <glyph glyph-name="Wgrave.sc" horiz-adv-x="800" 
d="M381 694l81 -168h-23l-130 142zM547 -13l-151 384l-138 -341l-10 -24l-39 -19l-151 447h-3l-51 33v14h189v-14l-70 -32l119 -357l156 403h20l159 -403l117 356h-2l-58 33v14h161v-14l-58 -33h-1l-149 -428z" />
    <glyph glyph-name="Wacute.sc" horiz-adv-x="800" 
d="M362 526l81 168l72 -26l-130 -142h-23zM547 -13l-151 384l-138 -341l-10 -24l-39 -19l-151 447h-3l-51 33v14h189v-14l-70 -32l119 -357l156 403h20l159 -403l117 356h-2l-58 33v14h161v-14l-58 -33h-1l-149 -428z" />
    <glyph glyph-name="Wdieresis.sc" horiz-adv-x="800" 
d="M456 574q0 12 13.5 27.5t23.5 15.5t25.5 -12.5t15.5 -24.5t-14 -26.5t-24 -14.5t-25 12t-15 23zM286 574q0 12 13.5 27.5t23.5 15.5q11 0 26 -12.5t15 -24.5t-13.5 -26.5t-23.5 -14.5t-25.5 12t-15.5 23zM547 -13l-151 384l-138 -341l-10 -24l-39 -19l-151 447h-3l-51 33
v14h189v-14l-70 -32l119 -357l156 403h20l159 -403l117 356h-2l-58 33v14h161v-14l-58 -33h-1l-149 -428z" />
    <glyph glyph-name="X.sc" horiz-adv-x="530" 
d="M181 13v-13h-171v13l61 29l158 204l-141 188l-60 33v14h212v-14l-72 -33l109 -146l109 147l-58 32v14h171v-14l-62 -30l-138 -177l162 -216l58 -31v-13h-212v13l72 32l-128 171l-128 -172z" />
    <glyph glyph-name="Y.sc" horiz-adv-x="491" 
d="M341 0h-191v13l62 32v158l-139 231h-1l-52 33v14h195v-14l-68 -33l112 -190l107 190h-2l-60 33v14h163v-14l-58 -33l-130 -222v-167l62 -33v-12z" />
    <glyph glyph-name="Yacute.sc" horiz-adv-x="491" 
d="M187 526l81 168l72 -26l-130 -142h-23zM341 0h-191v13l62 32v158l-139 231h-1l-52 33v14h195v-14l-68 -33l112 -190l107 190h-2l-60 33v14h163v-14l-58 -33l-130 -222v-167l62 -33v-12z" />
    <glyph glyph-name="Ycircumflex.sc" horiz-adv-x="491" 
d="M275 694l111 -168h-23l-105 97l-104 -97h-23l111 168h33zM341 0h-191v13l62 32v158l-139 231h-1l-52 33v14h195v-14l-68 -33l112 -190l107 190h-2l-60 33v14h163v-14l-58 -33l-130 -222v-167l62 -33v-12z" />
    <glyph glyph-name="Ydieresis.sc" horiz-adv-x="491" 
d="M307 574q0 12 13.5 27.5t23.5 15.5t25.5 -12.5t15.5 -24.5t-14 -26.5t-24 -14.5t-25 12t-15 23zM137 574q0 12 13.5 27.5t23.5 15.5q11 0 26 -12.5t15 -24.5t-13.5 -26.5t-23.5 -14.5t-25.5 12t-15.5 23zM341 0h-191v13l62 32v158l-139 231h-1l-52 33v14h195v-14l-68 -33
l112 -190l107 190h-2l-60 33v14h163v-14l-58 -33l-130 -222v-167l62 -33v-12z" />
    <glyph glyph-name="Ygrave.sc" horiz-adv-x="491" 
d="M246 694l81 -168h-23l-130 142zM341 0h-191v13l62 32v158l-139 231h-1l-52 33v14h195v-14l-68 -33l112 -190l107 190h-2l-60 33v14h163v-14l-58 -33l-130 -222v-167l62 -33v-12z" />
    <glyph glyph-name="Z.sc" horiz-adv-x="476" 
d="M418 0h-384v16l307 436h-202l-71 -92h-21l23 121h354v-18l-306 -434h231l75 100h21z" />
    <glyph glyph-name="Zacute.sc" horiz-adv-x="476" 
d="M152 526l81 168l72 -26l-130 -142h-23zM418 0h-384v16l307 436h-202l-71 -92h-21l23 121h354v-18l-306 -434h231l75 100h21z" />
    <glyph glyph-name="Zdotaccent.sc" horiz-adv-x="476" 
d="M188 580q0 14 16 32t28 18t30 -14.5t18 -27.5q0 -14 -16 -32t-28 -18t-30 14.5t-18 27.5zM418 0h-384v16l307 436h-202l-71 -92h-21l23 121h354v-18l-306 -434h231l75 100h21z" />
    <glyph glyph-name="Zcaron.sc" horiz-adv-x="476" 
d="M362 694l-111 -168h-33l-111 168h23l104 -98l105 98h23zM418 0h-384v16l307 436h-202l-71 -92h-21l23 121h354v-18l-306 -434h231l75 100h21z" />
    <glyph glyph-name="AE.sc" horiz-adv-x="688" 
d="M343 255v191l-116 -191h116zM162 13v-13h-162v13l52 29l253 412l-47 14v13h369l-19 -101h-21l-43 72h-133v-199h54l104 8l-8 -42l-95 10h-55v-202h140l71 94h20l-25 -121h-343v13l69 32v183h-133l-111 -183z" />
    <glyph glyph-name="AEacute.sc" horiz-adv-x="688" 
d="M359 526l81 168l72 -26l-130 -142h-23zM343 255v191l-116 -191h116zM162 13v-13h-162v13l52 29l253 412l-47 14v13h369l-19 -101h-21l-43 72h-133v-199h54l104 8l-8 -42l-95 10h-55v-202h140l71 94h20l-25 -121h-343v13l69 32v183h-133l-111 -183z" />
    <glyph glyph-name="Eth.sc" horiz-adv-x="562" 
d="M281 33q83 0 125.5 46.5t42.5 152.5q0 113 -59 166.5t-143 53.5h-73v-190h152v-25h-152v-204l3 13q52 -13 104 -13zM45 0v13l62 32v192h-62v25h62v172l-62 34v13h233q238 0 238 -222q0 -126 -73 -192.5t-193 -66.5h-205z" />
    <glyph glyph-name="Oslash.sc" horiz-adv-x="561" 
d="M111 251q0 -119 71 -178l171 353q-40 22 -88 22q-80 0 -117 -44.5t-37 -152.5zM296 31q80 0 118 45t38 154q0 119 -72 178l-172 -354q41 -23 88 -23zM266 -8q-42 0 -82 14l-34 -71h-35l41 84q-110 60 -110 212q0 118 74 188t179 70q44 0 79 -13l32 67h36l-39 -80
q108 -57 108 -214q0 -119 -73 -188t-176 -69z" />
    <glyph glyph-name="Oslashacute.sc" horiz-adv-x="561" 
d="M238 526l81 168l72 -26l-130 -142h-23zM111 251q0 -119 71 -178l171 353q-40 22 -88 22q-80 0 -117 -44.5t-37 -152.5zM296 31q80 0 118 45t38 154q0 119 -72 178l-172 -354q41 -23 88 -23zM266 -8q-42 0 -82 14l-34 -71h-35l41 84q-110 60 -110 212q0 118 74 188t179 70
q44 0 79 -13l32 67h36l-39 -80q108 -57 108 -214q0 -119 -73 -188t-176 -69z" />
    <glyph glyph-name="Thorn.sc" horiz-adv-x="428" 
d="M217 145q62 0 88 21t26 72q0 53 -34 82.5t-96 29.5h-27v-202q22 -3 43 -3zM256 12v-12h-211v13l62 32v389l-62 34v13h188v-14l-59 -33v-57h64q83 0 124.5 -29.5t41.5 -82.5q0 -69 -59.5 -109.5t-141.5 -40.5h-29v-70z" />
    <glyph glyph-name="Dcroat.sc" horiz-adv-x="562" 
d="M281 33q83 0 125.5 46.5t42.5 152.5q0 113 -59 166.5t-143 53.5h-73v-190h152v-25h-152v-204l3 13q52 -13 104 -13zM45 0v13l62 32v192h-62v25h62v172l-62 34v13h233q238 0 238 -222q0 -126 -73 -192.5t-193 -66.5h-205z" />
    <glyph glyph-name="Hbar.sc" horiz-adv-x="606" 
d="M428 262v88h-254v-88h254zM238 12v-12h-193v13l62 32v305h-61v25h61v59l-62 34v13h193v-14l-64 -33v-59h254v59l-63 34v13h193v-14l-62 -33v-59h62v-25h-62v-305l62 -33v-12h-193v13l63 32v192h-254v-192z" />
    <glyph glyph-name="IJ.sc" horiz-adv-x="590" 
d="M174 434v-389l62 -33v-12h-191v13l62 32v389l-62 34v13h191v-14zM315 78l58 -62l10 5t10.5 5.5t9 6t9 9t6 11.5t5 16.5t1.5 20.5v344l-73 34v13h202v-14l-62 -33v-317q0 -59 -44 -92t-106 -33q-38 0 -60 8l14 78h20z" />
    <glyph glyph-name="Ldot.sc" horiz-adv-x="442" 
d="M304 250q0 14 16 32t28 18t30 -14.5t18 -27.5q0 -14 -16 -32t-28 -18t-30 14.5t-18 27.5zM45 0v13l62 32v389l-62 34v13h211v-14l-82 -33v-407h159l74 95h20l-25 -122h-357z" />
    <glyph glyph-name="Lslash.sc" horiz-adv-x="449" 
d="M45 0v13l62 32v169l-62 -25v31l62 25v189l-62 34v13h211v-14l-82 -33v-163l102 41v-31l-102 -41v-213h159l74 95h20l-25 -122h-357z" />
    <glyph glyph-name="Eng.sc" horiz-adv-x="586" 
d="M367 -138q-37 0 -68 9l15 77h20l58 -62q31 16 40 29q11 17 11 48v51l-299 382v-351l62 -33v-12h-162v13l62 32v389l-62 34v13h118l281 -354v307l-62 35v12h163v-14l-62 -33v-442q0 -65 -35.5 -97.5t-79.5 -32.5z" />
    <glyph glyph-name="OE.sc" horiz-adv-x="740" 
d="M296 31q63 0 99 29v366l-5 -6q-47 28 -125 28q-80 0 -117 -44.5t-37 -152.5q0 -105 54.5 -162.5t130.5 -57.5zM333 0q-35 -8 -67 -8q-95 0 -157.5 62.5t-62.5 176.5q0 118 74 188t179 70q35 0 64 -8h316l-19 -101h-21l-43 72h-134v-191h55l104 8l-8 -42l-96 10h-55v-210
h141l71 92h20l-25 -119h-336z" />
    <glyph glyph-name="Tbar.sc" horiz-adv-x="484" 
d="M341 12v-12h-207v13l69 32v185h-150v25h150v197h-100l-63 -78h-22l18 107h427l-17 -107h-21l-45 78h-109v-197h144v-25h-144v-185z" />
    <glyph glyph-name="germandbls.sc" horiz-adv-x="851" 
d="M642 218l-47 18q-107 42 -107 120q0 57 49.5 95t133.5 38q71 0 120 -21l-17 -99h-23l-36 72q-41 14 -89 14q-41 0 -59 -17.5t-18 -53.5q0 -70 85 -102l46 -19q66 -25 91 -55t25 -72q0 -60 -54.5 -102t-135.5 -42q-78 0 -133 20l22 102h25l24 -75q40 -13 102 -13
q43 0 65.5 17.5t22.5 62.5q0 38 -20 64.5t-72 47.5zM222 218l-47 18q-107 42 -107 120q0 57 49.5 95t133.5 38q71 0 120 -21l-17 -99h-23l-36 72q-41 14 -89 14q-41 0 -59 -17.5t-18 -53.5q0 -70 85 -102l46 -19q66 -25 91 -55t25 -72q0 -60 -54.5 -102t-135.5 -42
q-78 0 -133 20l22 102h25l24 -75q40 -13 102 -13q43 0 65.5 17.5t22.5 62.5q0 38 -20 64.5t-72 47.5z" />
    <glyph glyph-name="acute.sc" 
d="M173 526l81 168l72 -26l-130 -142h-23z" />
    <glyph glyph-name="grave.sc" 
d="M246 694l81 -168h-23l-130 142z" />
    <glyph glyph-name="hungarumlaut.sc" 
d="M244 526l81 168l72 -26l-131 -142h-22zM99 526l81 168l72 -26l-130 -142h-23z" />
    <glyph glyph-name="circumflex.sc" 
d="M267 694l111 -168h-23l-105 97l-104 -97h-23l111 168h33z" />
    <glyph glyph-name="caron.sc" 
d="M378 694l-111 -168h-33l-111 168h23l104 -98l105 98h23z" />
    <glyph glyph-name="breve.sc" 
d="M251 582q50 0 72 30.5t29 81.5h23q0 -76 -31 -122t-96 -46q-123 0 -123 168h23q14 -112 103 -112z" />
    <glyph glyph-name="tilde.sc" 
d="M315 592q15 0 28 8t20 15.5t22 25.5l8 -11q-21 -36 -31 -50.5t-24.5 -26t-31.5 -11.5q-21 0 -65 15t-63 15q-35 0 -76 -44l-6 11q36 50 52.5 65.5t41.5 15.5q22 0 66.5 -14t58.5 -14z" />
    <glyph glyph-name="macron.sc" 
d="M357 580v-15l-14 -21h-199v15l14 21h199z" />
    <glyph glyph-name="dieresis.sc" 
d="M297 574q0 12 13.5 27.5t23.5 15.5t25.5 -12.5t15.5 -24.5t-14 -26.5t-24 -14.5t-25 12t-15 23zM127 574q0 12 13.5 27.5t23.5 15.5q11 0 26 -12.5t15 -24.5t-13.5 -26.5t-23.5 -14.5t-25.5 12t-15.5 23z" />
    <glyph glyph-name="dotaccent.sc" 
d="M204 580q0 14 16 32t28 18t30 -14.5t18 -27.5q0 -14 -16 -32t-28 -18t-30 14.5t-18 27.5z" />
    <glyph glyph-name="ring.sc" 
d="M170 623q0 34 23.5 58t57.5 24q35 0 57.5 -21.5t22.5 -60.5q0 -34 -23.5 -58t-56.5 -24q-36 0 -58.5 21.5t-22.5 60.5zM198 622q0 -25 14 -40t37 -15t38 15t15 40q0 27 -14.5 43t-38.5 16q-23 0 -37 -16t-14 -43z" />
    <glyph glyph-name="cedilla.sc" 
d="M198 -93l33 93h21l-17 -59q48 -13 69.5 -29t21.5 -45q0 -32 -42.5 -51t-109.5 -21l-7 28q34 0 50 0.5t31.5 3.5t21 9t5.5 17q0 18 -15.5 30.5t-61.5 23.5z" />
    <glyph glyph-name="ogonek.sc" 
d="M175 -155q0 52 41.5 99.5t106.5 72.5l5 -5q-108 -68 -108 -148q0 -24 15.5 -42t41.5 -18q16 0 40 8l5 -20q-9 -3 -22 -8l-19.5 -7.5t-15 -4.5t-16.5 -2q-29 0 -51.5 21.5t-22.5 53.5z" />
    <glyph glyph-name="Dotlessi.sc" horiz-adv-x="281" 
d="M174 434v-389l62 -33v-12h-191v13l62 32v389l-62 34v13h191v-14z" />
    <glyph glyph-name="Tcedilla.sc" horiz-adv-x="484" 
d="M221 0h-87v13l69 32v407h-100l-63 -78h-22l18 107h427l-17 -107h-21l-45 78h-109v-407l70 -33v-12h-99l-17 -59q48 -13 69.5 -29t21.5 -45q0 -32 -42.5 -51t-109.5 -21l-7 28q34 0 50 0.5t31.5 3.5t21 9t5.5 17q0 18 -15.5 30.5t-61.5 23.5z" />
    <glyph glyph-name="commaaccent.sc" 
d="M204 -93q0 15 14 30.5t26 15.5q14 0 34 -24.5t20 -50.5q0 -60 -86 -145l-13 10q49 65 49 93q0 20 -22 39t-22 32z" />
    <glyph glyph-name="f_f.sc" horiz-adv-x="827" 
d="M676 12v-12h-211v13l62 32v389l-62 34v13h334l-18 -101h-20l-44 72h-123v-195h52l104 6l-8 -40l-95 10h-53v-188zM256 12v-12h-211v13l62 32v389l-62 34v13h334l-18 -101h-20l-44 72h-123v-195h52l104 6l-8 -40l-95 10h-53v-188z" />
    <glyph glyph-name="f_f_i.sc" horiz-adv-x="1121" 
d="M1014 434v-389l62 -33v-12h-191v13l62 32v389l-62 34v13h191v-14zM676 12v-12h-211v13l62 32v389l-62 34v13h334l-18 -101h-20l-44 72h-123v-195h52l104 6l-8 -40l-95 10h-53v-188zM256 12v-12h-211v13l62 32v389l-62 34v13h334l-18 -101h-20l-44 72h-123v-195h52l104 6
l-8 -40l-95 10h-53v-188z" />
    <glyph glyph-name="f_f_l.sc" horiz-adv-x="1289" 
d="M676 12v-12h-211v13l62 32v389l-62 34v13h334l-18 -101h-20l-44 72h-123v-195h52l104 6l-8 -40l-95 10h-53v-188zM256 12v-12h-211v13l62 32v389l-62 34v13h334l-18 -101h-20l-44 72h-123v-195h52l104 6l-8 -40l-95 10h-53v-188zM885 0v13l62 32v389l-62 34v13h211v-14
l-82 -33v-407h159l74 95h20l-25 -122h-357z" />
    <glyph glyph-name="fi.sc" horiz-adv-x="701" 
d="M594 434v-389l62 -33v-12h-191v13l62 32v389l-62 34v13h191v-14zM256 12v-12h-211v13l62 32v389l-62 34v13h334l-18 -101h-20l-44 72h-123v-195h52l104 6l-8 -40l-95 10h-53v-188z" />
    <glyph glyph-name="fl.sc" horiz-adv-x="869" 
d="M256 12v-12h-211v13l62 32v389l-62 34v13h334l-18 -101h-20l-44 72h-123v-195h52l104 6l-8 -40l-95 10h-53v-188zM465 0v13l62 32v389l-62 34v13h211v-14l-82 -33v-407h159l74 95h20l-25 -122h-357z" />
    </font>
</defs>
</svg>
