<?xml version="1.0" standalone="no"?>
<!DOCTYPE svg PUBLIC "-//W3C//DTD SVG 1.1//EN" "http://www.w3.org/Graphics/SVG/1.1/DTD/svg11.dtd" >
<svg xmlns="http://www.w3.org/2000/svg" xmlns:xlink="http://www.w3.org/1999/xlink" version="1.1">
<metadata>
Created by FontForge 20170731 at Sun Apr  3 01:34:22 2016
 By Aleksey,,,
Universidad Nacional de Colombia, Unidad de Medios de Comunicacio'n (Unimedios), 2012-2015.
</metadata>
<defs>
<font id="AncizarSerif-Bold" horiz-adv-x="500" >
  <font-face 
    font-family="Ancizar Serif"
    font-weight="700"
    font-stretch="normal"
    units-per-em="1000"
    panose-1="2 10 8 2 7 3 0 0 0 3"
    ascent="750"
    descent="-250"
    x-height="450"
    cap-height="612"
    bbox="-115 -289 1457 897"
    underline-thickness="0"
    underline-position="0"
    unicode-range="U+0020-FB04"
  />
<missing-glyph horiz-adv-x="600" 
d="M50 0v703h500v-703h-500zM300 397l170 256h-340zM100 608v-513l170 256zM330 351l170 -256v513zM130 50h340l-170 256z" />
    <glyph glyph-name="f_f" unicode="ff" horiz-adv-x="597" 
d="M215 536v-86h146v48q0 40 12 75l-94 59q-30 0 -47 -20t-17 -76zM268 23v-23h-244v23l58 36v347h-61v44h61v19q0 93 60 152t154 59q79 0 135 -20q58 49 143 49q44 0 73 -9l-15 -92h-24l-83 53q-18 0 -24.5 -11t-6.5 -38v-162h29l86 5l-13 -57l-73 8h-29v-347l82 -36v-23
h-273v23l58 36v347h-146v-347z" />
    <glyph glyph-name="fi" unicode="fi" horiz-adv-x="572" 
d="M277 23v-23h-253v23l58 36v347h-61v44h61v22q0 237 257 237q99 0 153 -28l-18 -104h-23l-120 76q-51 8 -83.5 -18.5t-32.5 -66.5v-118h124l63 3l61 13h31v-407l64 -36v-23h-255v23l58 36v314l-65 33h-81v-347z" />
    <glyph glyph-name="fl" unicode="fl" horiz-adv-x="578" 
d="M280 23v-23h-256v23l58 36v347h-61v44h61v48q0 94 61.5 152.5t166.5 58.5q72 0 126 -18l43 40h32l-17 -152v-520l64 -36v-23h-255v23l58 36v551l-85 55q-61 0 -61 -56v-159h25l87 5l-14 -57l-73 8h-25v-347z" />
    <glyph glyph-name="f_f_i" unicode="ffi" horiz-adv-x="851" 
d="M215 536v-86h146v22q0 60 16 104l-3 -5l-95 61q-30 0 -47 -20t-17 -76zM268 23v-23h-244v23l58 36v347h-61v44h61v19q0 93 60 152t154 59q82 0 139 -21l-2 -3q65 53 185 53q99 0 153 -28l-18 -104h-23l-120 76q-51 8 -83.5 -18.5t-32.5 -66.5v-118h124l63 3l61 13h31
v-407l64 -36v-23h-255v23l58 36v314l-65 33h-81v-347l51 -36v-23h-242v23l58 36v347h-146v-347z" />
    <glyph glyph-name="f_f_l" unicode="ffl" horiz-adv-x="857" 
d="M215 536v-86h146v48q0 40 12 75l-94 59q-30 0 -47 -20t-17 -76zM268 23v-23h-244v23l58 36v347h-61v44h61v19q0 93 60 152t154 59q84 0 137 -20q62 49 156 49q68 0 125 -17l44 39h32l-17 -152v-520l64 -36v-23h-255v23l58 36v551l-85 55q-61 0 -61 -56v-159h25l87 5
l-14 -57l-73 8h-25v-347l53 -36v-23h-244v23l58 36v347h-146v-347z" />
    <glyph glyph-name=".notdef" horiz-adv-x="600" 
d="M50 0v703h500v-703h-500zM300 397l170 256h-340zM100 608v-513l170 256zM330 351l170 -256v513zM130 50h340l-170 256z" />
    <glyph glyph-name=".null" horiz-adv-x="0" 
 />
    <glyph glyph-name="nonmarkingreturn" horiz-adv-x="333" 
 />
    <glyph glyph-name="space" unicode=" " horiz-adv-x="213" 
 />
    <glyph glyph-name="exclam" unicode="!" horiz-adv-x="276" 
d="M167 175l-61 -21q-1 51 -3 101t-7 103.5t-8 86t-10 91.5t-9 77l134 31zM57 43q0 19 32.5 41t53.5 22q18 0 47 -20.5t29 -38.5q0 -19 -31.5 -41t-51.5 -22t-49.5 20.5t-29.5 38.5z" />
    <glyph glyph-name="quotedbl" unicode="&#x22;" horiz-adv-x="341" 
d="M217 454l-30 239h127l-24 -239h-73zM51 454l-24 239h127l-30 -239h-73z" />
    <glyph glyph-name="numbersign" unicode="#" horiz-adv-x="518" 
d="M301 243l26 107h-102l-26 -107h102zM242 0l41 169h-102l-41 -169h-80l41 169h-85v15l25 59h78l26 107h-99v15l26 59h91l45 188h80l-45 -188h102l45 188h80l-45 -188h85v-15l-25 -59h-78l-26 -107h99v-15l-25 -59h-92l-41 -169h-80z" />
    <glyph glyph-name="dollar" unicode="$" horiz-adv-x="559" 
d="M325 -140h-80l13 125q-8 -1 -24 -1q-110 0 -176 25l27 149h29l61 -102q55 -16 118 -15q46 1 65.5 20t19.5 61q0 39 -24 65.5t-86 52.5l-55 24q-146 61 -146 176q0 70 50 120.5t138 63.5l-14 111h84l-16 -107q117 0 176 -26l-25 -145h-29l-57 100q-41 16 -108 16
q-77 0 -77 -80q0 -39 24 -63t75 -46l55 -23q87 -36 122 -74.5t35 -102.5q0 -74 -52.5 -125.5t-138.5 -67.5z" />
    <glyph glyph-name="percent" unicode="%" horiz-adv-x="640" 
d="M313 483q0 -73 -45 -117t-116 -44q-61 0 -95 38t-34 109q0 73 45.5 116.5t116.5 43.5q61 0 94.5 -37.5t33.5 -108.5zM28 0l507 612h76l-505 -612h-78zM226 471q0 115 -69 115q-28 0 -37.5 -20t-9.5 -84q0 -117 68 -117q29 0 38.5 20.5t9.5 85.5zM617 145q0 -73 -45 -117
t-115 -44q-61 0 -95 38t-34 110t45.5 115.5t115.5 43.5q61 0 94.5 -37.5t33.5 -108.5zM531 132q0 116 -69 116q-28 0 -38 -20.5t-10 -84.5q0 -116 68 -116q29 0 39 20.5t10 84.5z" />
    <glyph glyph-name="ampersand" unicode="&#x26;" horiz-adv-x="652" 
d="M276 63q46 0 89 20q-62 65 -127 144q-22 29 -48 51q-53 -33 -53 -100q0 -46 39 -80.5t100 -34.5zM458 0q-22 14 -63 53q-112 -69 -201 -69q-77 0 -125 45t-48 112q0 50 34 89.5t105 75.5q-34 30 -48.5 45t-29.5 43t-15 58q0 72 68.5 124t172.5 52q57 0 120 -27l-23 -133
h-33l-57 87q-20 13 -51 13q-80 0 -80 -67q0 -30 17.5 -54t66.5 -65.5t75 -68.5q2 -2 120 -137q26 50 26 108q0 43 -15 83l-75 36v23h244v-23l-58 -36q1 -9 1 -25q0 -110 -88 -205q66 -70 98 -84l62 -29v-24h-200z" />
    <glyph glyph-name="quotesingle" unicode="'" horiz-adv-x="182" 
d="M51 454l-24 239h127l-30 -239h-73z" />
    <glyph glyph-name="parenleft" unicode="(" horiz-adv-x="334" 
d="M66 292q0 154 58 258.5t154 152.5l32 -58q-174 -93 -174 -353q0 -261 174 -354l-32 -58q-96 48 -154 152.5t-58 259.5z" />
    <glyph glyph-name="parenright" unicode=")" horiz-adv-x="334" 
d="M198 291q0 261 -174 354l32 58q96 -48 154 -152.5t58 -259.5q0 -154 -58 -258.5t-154 -152.5l-32 58q174 93 174 353z" />
    <glyph glyph-name="asterisk" unicode="*" horiz-adv-x="438" 
d="M161 658l71 26q14 -28 13 -68.5t-14 -80.5l-23 -3q-3 25 -22 72.5t-25 53.5zM319 634l58 -49q-13 -26 -49.5 -45.5t-78.5 -28.5l-15 19q20 16 51.5 56t33.5 48zM60 532l13 75q29 0 64.5 -21.5t63.5 -53.5l-9 -22q-23 10 -73 17t-59 5zM119 381l-58 50q13 26 49.5 45.5
t78.5 28.5l14 -19q-20 -16 -51 -56t-33 -49zM378 484l-13 -76q-62 2 -129 76l9 21q24 -10 74.5 -17t58.5 -4zM278 358l-71 -27q-15 28 -14 69t14 81l23 3q3 -26 22.5 -73.5t25.5 -52.5z" />
    <glyph glyph-name="plus" unicode="+" horiz-adv-x="559" 
d="M491 212h-176v-174h-71v174h-176v70h176v167h71v-167h176v-70z" />
    <glyph glyph-name="comma" unicode="," horiz-adv-x="243" 
d="M43 63q0 21 24 44t45 23q23 0 57 -26.5t34 -55.5q0 -94 -127 -201l-28 19q36 45 48 64.5t12 37.5q0 21 -16 37t-32.5 29.5t-16.5 28.5z" />
    <glyph glyph-name="hyphen" unicode="-" horiz-adv-x="303" 
d="M273 298v-15l-14 -63h-229v15l14 63h229z" />
    <glyph glyph-name="period" unicode="." horiz-adv-x="243" 
d="M35 51q0 21 29.5 49.5t51.5 28.5t55 -23t33 -44t-30 -49.5t-50 -28.5q-22 0 -55.5 23.5t-33.5 43.5z" />
    <glyph glyph-name="slash" unicode="/" horiz-adv-x="294" 
d="M5 -110l196 803h73l-195 -803h-74z" />
    <glyph glyph-name="zero" unicode="0" horiz-adv-x="559" 
d="M524 318q0 -156 -75 -245t-198 -89q-101 0 -158.5 79.5t-57.5 229.5q0 156 75.5 245.5t200.5 89.5q99 0 156 -80t57 -230zM381 284q0 136 -32.5 209.5t-89.5 73.5q-30 0 -47 -19t-25.5 -71t-8.5 -148q0 -135 33.5 -208t91.5 -73q43 0 60.5 48.5t17.5 187.5z" />
    <glyph glyph-name="one" unicode="1" horiz-adv-x="559" 
d="M370 612v-554l82 -34v-24h-345v24l124 34v494l-121 -83l-25 85l208 58h77z" />
    <glyph glyph-name="two" unicode="2" horiz-adv-x="559" 
d="M481 0h-452v37q183 180 243.5 261t60.5 142q0 50 -35 82.5t-91 32.5q-27 0 -43 -2l-82 -126h-28l21 149q147 52 209 52q79 0 131 -44.5t52 -117.5q0 -17 -3 -33t-11 -33t-15.5 -30.5t-25 -33.5t-30 -33.5t-39 -38.5t-44.5 -41t-54 -48.5t-60 -54.5h239l57 82h33z" />
    <glyph glyph-name="three" unicode="3" horiz-adv-x="559" 
d="M233 -16q-98 0 -160 14l2 5l24 129h38l72 -91h15q91 0 119.5 18t28.5 74q0 64 -42.5 104t-108.5 40q-31 0 -49 -2l19 70q26 -4 55 -4q60 0 82.5 19t22.5 69q0 58 -34 91.5t-88 33.5q-15 0 -33 -2l-83 -98h-28l17 122q140 52 188 52q92 0 142.5 -40.5t50.5 -106.5
q0 -51 -33.5 -90t-96.5 -61q75 -11 113.5 -52.5t38.5 -96.5q0 -80 -80 -138.5t-192 -58.5z" />
    <glyph glyph-name="four" unicode="4" horiz-adv-x="559" 
d="M299 193v242l-201 -242h201zM524 104h-86v-104h-139v104h-295v45l394 479h40v-435h109z" />
    <glyph glyph-name="five" unicode="5" horiz-adv-x="559" 
d="M215 -16q-83 0 -141 18l24 126h37l65 -86q104 1 145 19.5t41 68.5q0 137 -230 142l-54 -16l22 342l19 14h273l65 60h32l-34 -180h-307l-6 -107q38 4 64 4q133 0 203.5 -54t70.5 -143q0 -90 -86.5 -149t-202.5 -59z" />
    <glyph glyph-name="six" unicode="6" horiz-adv-x="559" 
d="M515 189q0 -86 -69.5 -145.5t-165.5 -59.5q-104 0 -168.5 67t-64.5 212q0 89 26.5 160.5t70.5 115t97 66.5t110 23q96 0 138 -19l-28 -149h-32l-65 102q-19 5 -62 5q-45 0 -66 -15t-33.5 -70t-12.5 -169q107 44 172 44q69 0 111 -48t42 -120zM311 46q37 0 52.5 23.5
t15.5 79.5q0 140 -110 140q-41 0 -79 -22q4 -123 34.5 -172t86.5 -49z" />
    <glyph glyph-name="seven" unicode="7" horiz-adv-x="559" 
d="M146 0v34l281 458h-283l-58 -84h-33l34 204h426v-38l-215 -573z" />
    <glyph glyph-name="eight" unicode="8" horiz-adv-x="559" 
d="M253 -14q-96 0 -151 39t-55 104q0 49 33.5 91.5t93.5 70.5q-106 62 -106 158q0 77 69 128t165 51q85 0 133 -38t48 -91q0 -96 -119 -139q84 -40 115.5 -79t31.5 -97q0 -78 -72.5 -138t-185.5 -60zM177 505q0 -36 27.5 -62t108.5 -61q61 39 61 92q0 43 -30.5 72t-84.5 29
q-42 0 -62 -19t-20 -51zM302 45q102 0 102 75q0 40 -32 68t-137 73q-3 1 -8.5 3.5t-8.5 3.5q-58 -42 -58 -107q0 -49 38 -82.5t104 -33.5z" />
    <glyph glyph-name="nine" unicode="9" horiz-adv-x="559" 
d="M304 314q37 0 71 25q-3 118 -32.5 172.5t-88.5 54.5q-38 0 -55 -23t-17 -78q0 -70 31.5 -110.5t90.5 -40.5zM182 -16q-51 0 -118 16l21 128h33l96 -83q70 10 114 70t47 180q-111 -57 -162 -57q-72 0 -119.5 46t-47.5 127q0 88 71 152.5t175 64.5q105 0 165.5 -70
t60.5 -206q0 -87 -30.5 -158.5t-79.5 -116.5t-107.5 -69t-118.5 -24z" />
    <glyph glyph-name="colon" unicode=":" horiz-adv-x="243" 
d="M35 331q0 21 29.5 49.5t51.5 28.5t55 -23t33 -44t-30 -49.5t-50 -28.5q-22 0 -55.5 23.5t-33.5 43.5zM35 51q0 21 29.5 49.5t51.5 28.5t55 -23t33 -44t-30 -49.5t-50 -28.5q-22 0 -55.5 23.5t-33.5 43.5z" />
    <glyph glyph-name="semicolon" unicode=";" horiz-adv-x="243" 
d="M35 331q0 21 29.5 49.5t51.5 28.5t55 -23t33 -44t-30 -49.5t-50 -28.5q-22 0 -55.5 23.5t-33.5 43.5zM43 63q0 21 24 44t45 23q23 0 57 -26.5t34 -55.5q0 -94 -127 -201l-28 19q36 45 48 64.5t12 37.5q0 21 -16 37t-32.5 29.5t-16.5 28.5z" />
    <glyph glyph-name="less" unicode="&#x3c;" horiz-adv-x="559" 
d="M96 233v50l322 220l37 -57l-274 -187l274 -189l-37 -57z" />
    <glyph glyph-name="equal" unicode="=" horiz-adv-x="559" 
d="M473 358v-69h-387v69h387zM473 221v-69h-387v69h387z" />
    <glyph glyph-name="greater" unicode="&#x3e;" horiz-adv-x="559" 
d="M463 285v-50l-322 -220l-37 57l274 187l-274 189l37 57z" />
    <glyph glyph-name="question" unicode="?" horiz-adv-x="398" 
d="M282 184l-106 -46q-41 25 -58.5 45.5t-17.5 48.5q0 24 24.5 49.5t54 46t54 55t24.5 74.5q0 55 -27.5 82.5t-67.5 27.5q-19 0 -29 -2l-82 -127h-51l19 130q139 60 192 60q73 0 123 -42.5t50 -105.5q0 -34 -16 -62.5t-38.5 -48.5t-45 -36.5t-38.5 -34t-16 -34.5
q0 -28 52 -80zM106 43q0 20 33.5 41.5t55.5 21.5q18 0 45.5 -20.5t27.5 -38.5q0 -19 -33 -41t-54 -22q-19 0 -47 20.5t-28 38.5z" />
    <glyph glyph-name="at" unicode="@" horiz-adv-x="834" 
d="M378 -151q-65 0 -124.5 22.5t-109 65.5t-79 115.5t-29.5 164.5q0 106 35.5 192.5t96 141.5t137.5 84t163 29q149 0 245.5 -82t96.5 -219q0 -123 -94.5 -212t-223.5 -104l-8 109q-56 -102 -124 -102q-47 0 -80 43t-33 127q0 113 62.5 179t158.5 66q82 0 119 -18v-323
q114 63 114 215q0 121 -67 183.5t-195 62.5q-160 0 -227 -75t-67 -256q0 -91 24 -158t66.5 -105t93.5 -56t110 -18q83 0 189 42l8 -30q-93 -49 -148 -66.5t-110 -17.5zM408 136q18 0 33 14t28 62.5t13 128.5v58q-24 6 -53 6q-39 0 -55.5 -31t-16.5 -117q0 -121 51 -121z" />
    <glyph glyph-name="A" unicode="A" horiz-adv-x="624" 
d="M364 258l-84 223l-87 -223h171zM186 24v-24h-192v24l56 34l225 549l87 29l220 -578l48 -34v-24h-274v24l84 34l-58 153h-208l-59 -153z" />
    <glyph glyph-name="B" unicode="B" horiz-adv-x="598" 
d="M293 342q55 0 77 20.5t22 77.5q0 60 -32.5 93t-110.5 33v-220q26 -4 44 -4zM331 52q50 0 71.5 21t21.5 78q0 144 -167 144h-8v-233q35 -10 82 -10zM302 0h-53h-212v24l74 34v496l-74 35v23h291q82 0 139 -36t57 -101q0 -98 -116 -136q149 -28 149 -151q0 -88 -76.5 -138
t-178.5 -50z" />
    <glyph glyph-name="C" unicode="C" horiz-adv-x="599" 
d="M524 181h30l-29 -160q-97 -37 -193 -37q-137 0 -214 79.5t-77 230.5q0 81 26.5 146t72 105.5t102.5 61.5t122 21q118 0 176 -32l-26 -146h-30l-67 105q-32 12 -87 12q-78 0 -112.5 -57t-35.5 -190q1 -130 52 -201.5t133 -71.5q41 0 67 6z" />
    <glyph glyph-name="D" unicode="D" horiz-adv-x="686" 
d="M342 61q88 0 124.5 48t36.5 177q0 154 -53 216.5t-159 62.5h-42v-493q44 -11 93 -11zM37 0v24l74 34v496l-74 35v23h289q159 0 239 -68.5t80 -215.5q0 -152 -96.5 -240t-254.5 -88h-257z" />
    <glyph glyph-name="E" unicode="E" horiz-adv-x="571" 
d="M37 0v24l74 34v496l-74 35v23h470l-27 -158h-30l-64 111h-137v-228h74l120 11l-12 -68l-113 9h-69v-242h156l100 134h30l-33 -181h-465z" />
    <glyph glyph-name="F" unicode="F" horiz-adv-x="533" 
d="M331 24v-24h-295v24l74 34v496l-74 35v23h471l-28 -158h-29l-64 111h-137v-236h74l120 10l-13 -68l-112 9h-69v-222z" />
    <glyph glyph-name="G" unicode="G" horiz-adv-x="634" 
d="M563 235v-200q-93 -51 -223 -51q-141 0 -220 76.5t-79 233.5t92.5 245.5t237.5 88.5q60 0 117 -10t80 -24l-27 -146h-29l-69 104q-47 15 -106 15q-82 0 -118.5 -55t-36.5 -194q0 -134 51.5 -202.5t132.5 -68.5q44 0 68 4v184l-76 35v23h269v-24z" />
    <glyph glyph-name="H" unicode="H" horiz-adv-x="732" 
d="M318 24v-24h-281v24l74 34v496l-74 35v23h281v-24l-69 -34v-209h234v209l-69 35v23h281v-24l-74 -34v-496l74 -34v-24h-281v24l69 34v233h-234v-233z" />
    <glyph glyph-name="I" unicode="I" horiz-adv-x="360" 
d="M249 554v-496l74 -34v-24h-286v24l74 34v496l-74 35v23h286v-24z" />
    <glyph glyph-name="J" unicode="J" horiz-adv-x="391" 
d="M50 120l53 -93q28 -1 40.5 17t12.5 67v443l-72 35v23h285v-24l-74 -34v-394q0 -77 -60.5 -126.5t-146.5 -49.5q-47 0 -94 14l27 122h29z" />
    <glyph glyph-name="K" unicode="K" horiz-adv-x="678" 
d="M674 0h-178l-243 320l247 234l-72 34v24h215v-24l-55 -33l-214 -197l254 -307l46 -27v-24zM249 554v-496l74 -34v-24h-286v24l74 34v496l-74 35v23h286v-24z" />
    <glyph glyph-name="L" unicode="L" horiz-adv-x="544" 
d="M37 0v24l74 34v496l-74 35v23h295v-24l-83 -34v-507h143l112 149h29l-34 -196h-462z" />
    <glyph glyph-name="M" unicode="M" horiz-adv-x="894" 
d="M240 24v-24h-223v24l74 34l29 496l-74 35v23h228l185 -438l177 438h212v-24l-74 -34l30 -496l74 -34v-24h-287v24l74 34l-18 430l-185 -443l-84 -29l-193 467l-19 -425z" />
    <glyph glyph-name="N" unicode="N" horiz-adv-x="698" 
d="M596 -7h-62l-319 383l-38 59v-377l86 -34v-24h-235v24l74 34v493l-2 4l-72 34v23h172l281 -339l40 -58v339l-86 34v24h235v-24l-74 -34v-561z" />
    <glyph glyph-name="O" unicode="O" horiz-adv-x="689" 
d="M648 318q0 -85 -27.5 -151t-75 -105t-105.5 -58.5t-124 -19.5q-126 0 -200.5 80.5t-74.5 228.5q0 85 28 150.5t75.5 105t106 59.5t124.5 20q124 0 198.5 -81t74.5 -229zM506 282q0 282 -183 282q-74 0 -106.5 -50.5t-32.5 -183.5q0 -139 47.5 -209.5t136.5 -70.5
q73 0 105.5 51t32.5 181z" />
    <glyph glyph-name="P" unicode="P" horiz-adv-x="566" 
d="M313 323q50 0 74.5 22t24.5 77q0 69 -36.5 105t-123.5 36h-3v-233q27 -7 64 -7zM332 24v-24h-295v24l74 34v496l-74 35v23h281q224 0 224 -162q0 -77 -66 -128t-175 -51q-31 0 -52 3v-216z" />
    <glyph glyph-name="Q" unicode="Q" horiz-adv-x="689" 
d="M648 318q0 -85 -27.5 -151t-75 -105t-105.5 -58.5t-124 -19.5q-126 0 -200.5 80.5t-74.5 228.5q0 85 28 150.5t75.5 105t106 59.5t124.5 20q124 0 198.5 -81t74.5 -229zM506 282q0 282 -183 282q-74 0 -106.5 -50.5t-32.5 -183.5q0 -139 47.5 -209.5t136.5 -70.5
q73 0 105.5 51t32.5 181zM305 -35q34 0 150.5 -28.5t143.5 -28.5q45 0 79 19l13 -25q-49 -56 -84.5 -77.5t-71.5 -21.5q-35 0 -146.5 46.5t-143.5 44.5q-17 -1 -73 -54h-26l-11 91q122 34 170 34z" />
    <glyph glyph-name="R" unicode="R" horiz-adv-x="635" 
d="M323 321q47 0 68.5 26t21.5 85q0 68 -38 100.5t-126 32.5v-237q27 -7 74 -7zM332 24v-24h-295v24l74 34v496l-74 35v23h270q236 0 236 -146q0 -57 -35.5 -101t-94.5 -69l164 -244l47 -28v-24h-173l-152 271h-12q-16 0 -38 2v-215z" />
    <glyph glyph-name="S" unicode="S" horiz-adv-x="518" 
d="M246 240l-55 24q-146 61 -146 176q0 81 65 134.5t176 53.5q118 0 177 -26l-25 -145h-29l-57 100q-41 16 -108 16q-77 0 -77 -80q0 -39 24 -63t75 -46l55 -23q87 -36 122 -74.5t35 -102.5q0 -90 -75 -145t-191 -55q-110 0 -176 25l27 149h29l61 -102q55 -16 118 -15
q46 1 65.5 20t19.5 61q0 39 -24 65.5t-86 52.5z" />
    <glyph glyph-name="T" unicode="T" horiz-adv-x="604" 
d="M457 24v-24h-307v24l84 34v507h-87l-105 -130h-30l31 177h549l-32 -177h-30l-55 130h-102v-507z" />
    <glyph glyph-name="U" unicode="U" horiz-adv-x="707" 
d="M101 203v351l-74 35v23h287v-24l-74 -34v-313q0 -81 40.5 -124t111.5 -43q73 0 105.5 30t32.5 106v344l-74 34v24h223v-24l-74 -34v-322q0 -122 -74 -185t-184 -63q-113 0 -179.5 54.5t-66.5 164.5z" />
    <glyph glyph-name="V" unicode="V" horiz-adv-x="606" 
d="M264 -24l-221 578l-48 34v24h274v-24l-84 -34l159 -415l159 415l-72 34v24h192v-24l-57 -34l-219 -549z" />
    <glyph glyph-name="W" unicode="W" horiz-adv-x="972" 
d="M741 5l-83 -29l-178 465l-166 -436l-84 -29l-182 580l-44 32v24h273v-24l-84 -34h-1l121 -403l166 461h84l171 -460l117 402h-2l-72 34v24h192v-24l-53 -31z" />
    <glyph glyph-name="X" unicode="X" horiz-adv-x="657" 
d="M217 0h-211v24l65 34l196 239l-178 257l-58 34v24h292v-24l-73 -34h-1l111 -159l126 159h-1l-71 34v24h211v-24l-66 -34l-168 -205l203 -291l57 -34v-24h-291v24l72 34h1l-134 193l-154 -193h1l71 -34v-24z" />
    <glyph glyph-name="Y" unicode="Y" horiz-adv-x="629" 
d="M462 0h-287v24l74 34v199l-189 297h-1l-47 34v24h273v-24l-77 -31l153 -232l146 231l-68 32v24h192v-24l-57 -34l-186 -291v-205l74 -34v-24z" />
    <glyph glyph-name="Z" unicode="Z" horiz-adv-x="550" 
d="M507 0h-493v36l348 519h-206l-102 -147h-31l34 204h464v-38l-343 -517h227l109 157h31z" />
    <glyph glyph-name="bracketleft" unicode="[" horiz-adv-x="334" 
d="M120 -110v803h197v-64h-127v-675h127v-64h-197z" />
    <glyph glyph-name="backslash" unicode="\" horiz-adv-x="280" 
d="M119 693l121 -803h-71l-120 803h70z" />
    <glyph glyph-name="bracketright" unicode="]" horiz-adv-x="334" 
d="M17 -110v64h127v675h-127v64h197v-803h-197z" />
    <glyph glyph-name="asciicircum" unicode="^" 
d="M296 624l168 -391h-44l-181 258l-160 -258h-44l168 391h93z" />
    <glyph glyph-name="underscore" unicode="_" horiz-adv-x="440" 
d="M440 -110v-80h-440v80h440z" />
    <glyph glyph-name="grave" unicode="`" 
d="M275 689l83 -181h-39l-178 142z" />
    <glyph glyph-name="a" unicode="a" horiz-adv-x="487" 
d="M317 -16h-31v63q-85 -63 -140 -63q-45 0 -81 34t-36 84q0 64 69.5 109t187.5 47v56q0 99 -87 99q-13 0 -23 -2l-86 -106h-23l-12 115q124 46 207 46q152 0 152 -133v-269l71 -20v-25zM223 63q33 0 63 17v116q-36 9 -74 9q-34 0 -50 -14.5t-16 -50.5q0 -34 21 -55.5
t56 -21.5z" />
    <glyph glyph-name="b" unicode="b" horiz-adv-x="539" 
d="M286 49q42 0 65 34.5t23 121.5q0 182 -98 182q-35 0 -80 -21v-291q14 -10 41 -18t49 -8zM263 -16q-69 0 -129 19l-45 -43l-26 6v645l-71 19v26l185 37h31l-12 -123v-166q48 34 79.5 48t71.5 14q75 0 120 -54t45 -154q0 -126 -76.5 -200t-172.5 -74z" />
    <glyph glyph-name="c" unicode="c" horiz-adv-x="429" 
d="M351 316l-81 96q-13 4 -42 4q-36 0 -55.5 -32.5t-19.5 -118.5q0 -103 42.5 -149.5t106.5 -46.5q50 0 101 21l12 -32q-67 -46 -101 -60t-81 -14q-85 0 -145.5 55.5t-60.5 164.5q0 127 69 194.5t185 67.5q65 0 115 -21l-22 -129h-23z" />
    <glyph glyph-name="d" unicode="d" horiz-adv-x="553" 
d="M373 -16h-31v61q-49 -34 -80 -47.5t-70 -13.5q-75 0 -120 54t-45 154q0 126 76.5 200t172.5 74q29 0 66 -5v150l-71 19v26l185 37h31l-12 -123v-506l69 -20v-25zM263 63q36 0 79 21v292q-37 25 -89 25q-42 0 -65 -34.5t-23 -121.5q0 -182 98 -182z" />
    <glyph glyph-name="e" unicode="e" horiz-adv-x="461" 
d="M210 411q-31 0 -44 -27t-14 -106h150q0 133 -92 133zM434 65q-72 -49 -107 -65t-84 -16q-95 0 -155.5 57t-60.5 170q0 125 65 190t161 65q86 0 130.5 -48.5t44.5 -127.5q0 -28 -4 -50h-272q3 -90 45.5 -130.5t107.5 -40.5q60 0 110 28z" />
    <glyph glyph-name="f" unicode="f" horiz-adv-x="318" 
d="M297 23v-23h-273v23l58 36v347h-61v44h61v48q0 93 59 152t154 59q45 0 73 -9l-15 -92h-24l-68 54q-23 0 -34.5 -20t-11.5 -70v-122h28l86 5l-13 -57l-73 8h-28v-347z" />
    <glyph glyph-name="g" unicode="g" horiz-adv-x="477" 
d="M292 311q0 53 -24 82.5t-58 29.5q-35 0 -49 -20.5t-14 -78.5q0 -52 24 -81t57 -29q35 0 49.5 19.5t14.5 77.5zM455 -21q0 -72 -87.5 -136.5t-189.5 -64.5q-86 0 -129 27t-43 70q0 69 118 122q-65 23 -65 72q0 31 15.5 51.5t57.5 51.5q-106 25 -106 133q0 75 58 118
t150 43q86 0 131 -34l140 42l-13 -103h-24l-75 32q21 -33 21 -81q0 -73 -58 -115.5t-149 -42.5q-15 0 -39 2q-22 -19 -22 -36q0 -23 62 -25l115 -6q64 -3 98 -34t34 -86zM238 -140q63 0 102.5 17t39.5 51q0 47 -82 50l-109 7q-8 0 -20 2q-70 -24 -70 -68q0 -25 35.5 -42
t103.5 -17z" />
    <glyph glyph-name="h" unicode="h" horiz-adv-x="563" 
d="M257 23v-23h-237v23l58 36v552l-71 19v26l185 37h31l-12 -123v-162q90 58 157 58q55 0 88.5 -30.5t33.5 -83.5v-293l58 -36v-23h-215v23l24 36v238q0 46 -22.5 68t-57.5 22q-36 0 -66 -15v-313z" />
    <glyph glyph-name="i" unicode="i" horiz-adv-x="293" 
d="M65 584q0 22 29.5 50.5t50.5 28.5q22 0 55.5 -23t33.5 -45q0 -21 -30 -49t-50 -28q-22 0 -55.5 23t-33.5 43zM24 0v23l58 36v311l-65 33v24l167 39h31v-407l64 -36v-23h-255z" />
    <glyph glyph-name="j" unicode="j" horiz-adv-x="274" 
d="M61 584q0 22 29.5 50.5t51.5 28.5t55.5 -23t33.5 -45q0 -21 -30.5 -49t-50.5 -28q-22 0 -55.5 23t-33.5 43zM211 466v-485q0 -94 -58.5 -151.5t-142.5 -57.5q-43 0 -73 9l15 93h23l67 -55q36 -2 36 92v459l-65 33v24l167 39h31z" />
    <glyph glyph-name="k" unicode="k" horiz-adv-x="543" 
d="M275 23v-23h-255v23l58 36v552l-71 19v26l185 37h31l-12 -114v-334l165 146h-2l-57 36v23h215v-23l-72 -35l-113 -91l153 -243l48 -35v-23h-165l-129 225l-43 -34v-132z" />
    <glyph glyph-name="l" unicode="l" horiz-adv-x="289" 
d="M211 579v-520l64 -36v-23h-255v23l58 36v552l-71 19v26l185 37h31z" />
    <glyph glyph-name="m" unicode="m" horiz-adv-x="835" 
d="M259 23v-23h-235v23l58 36v311l-65 33v24l167 39h31v-58q88 58 155 58q83 0 108 -62q92 62 157 62q62 0 94.5 -29.5t32.5 -84.5v-293l58 -36v-23h-212v23l21 36v238q0 90 -74 90q-36 0 -68 -16q1 -6 1 -19v-293l44 -36v-23h-198v23l22 36v238q0 90 -75 90q-38 0 -66 -15
v-313z" />
    <glyph glyph-name="n" unicode="n" horiz-adv-x="567" 
d="M262 23v-23h-238v23l58 36v311l-65 33v24l167 39h31v-58q90 58 157 58q55 0 88.5 -30.5t33.5 -83.5v-293l58 -36v-23h-215v23l24 36v238q0 46 -22.5 68t-57.5 22q-36 0 -66 -15v-313z" />
    <glyph glyph-name="o" unicode="o" horiz-adv-x="509" 
d="M482 236q0 -117 -67 -184.5t-185 -67.5q-97 0 -150 58.5t-53 171.5q0 117 68 184.5t185 67.5q96 0 149 -58.5t53 -171.5zM346 216q0 192 -108 192q-43 0 -59 -35t-16 -139q0 -95 28.5 -142.5t78.5 -47.5q45 0 60.5 34t15.5 138z" />
    <glyph glyph-name="p" unicode="p" horiz-adv-x="555" 
d="M302 49q42 0 65 34.5t23 121.5q0 182 -98 182q-35 0 -80 -21v-291q15 -10 42 -18t48 -8zM285 -197v-23h-264v23l58 35v532l-65 33v24l167 39h31v-62q48 34 79.5 48t71.5 14q75 0 120 -54t45 -154q0 -65 -22.5 -118.5t-58.5 -86.5t-79 -51t-88 -18q-31 0 -68 5v-151z" />
    <glyph glyph-name="q" unicode="q" horiz-adv-x="540" 
d="M540 -220h-275v23l78 35v208q-48 -34 -79.5 -48t-71.5 -14q-75 0 -120 54t-45 154q0 126 76.5 200t172.5 74q68 0 127 -19l47 43l26 -6v-646l64 -35v-23zM263 63q35 0 80 21v291q-14 10 -41 18t-49 8q-42 0 -65 -34.5t-23 -121.5q0 -182 98 -182z" />
    <glyph glyph-name="r" unicode="r" horiz-adv-x="391" 
d="M299 23v-23h-275v23l58 36v311l-65 33v24l167 39h31v-67q86 67 129 67q29 0 48 -10l-24 -136h-23l-83 61q-32 -10 -47 -19v-303z" />
    <glyph glyph-name="s" unicode="s" horiz-adv-x="431" 
d="M195 168l-28 9q-126 40 -126 142q0 68 54.5 107.5t138.5 39.5q98 0 152 -22l-19 -118h-23l-86 93q-7 3 -33 3q-70 0 -70 -52q0 -27 16.5 -46t62.5 -33l32 -10q73 -23 101.5 -54.5t28.5 -84.5q0 -74 -59 -116t-151 -42q-87 0 -146 24l18 118h23l82 -94q13 -3 37 -3
q79 0 79 59q0 27 -17.5 45.5t-66.5 34.5z" />
    <glyph glyph-name="t" unicode="t" horiz-adv-x="364" 
d="M364 49q-62 -37 -93.5 -51t-62.5 -14q-62 0 -99 36t-36 107l7 279h-67v28l168 103h31l-1 -87h44l108 5l-14 -57l-94 8h-45l-4 -256q-1 -85 75 -85q43 0 70 15z" />
    <glyph glyph-name="u" unicode="u" horiz-adv-x="563" 
d="M383 -16h-31v58q-87 -58 -160 -58q-52 0 -85.5 30.5t-33.5 83.5v272l-65 32v24l177 40h31l-10 -138v-175q0 -46 23 -68t58 -22t65 15v292l-60 32v24l172 40h31l-10 -138v-264l69 -20v-25z" />
    <glyph glyph-name="v" unicode="v" horiz-adv-x="504" 
d="M312 8l-103 -24l-163 407l-44 36v23h265v-23l-70 -36h-1l106 -274l95 274l-59 36v23h174v-23l-50 -36z" />
    <glyph glyph-name="w" unicode="w" horiz-adv-x="766" 
d="M595 8l-103 -24l-107 273l-103 -249l-103 -24l-129 408l-48 35v23h264v-23l-65 -36h-1l76 -265l117 324h67l122 -323l74 264l-53 36v23h167v-23l-48 -33z" />
    <glyph glyph-name="x" unicode="x" horiz-adv-x="519" 
d="M175 23v-23h-176v23l59 36l141 150l-144 184l-47 34v23h249v-23l-44 -32l83 -111l81 110l-40 33v23h172v-23l-57 -35l-131 -141l151 -194l48 -34v-23h-252v23l46 33l-90 120l-91 -119z" />
    <glyph glyph-name="y" unicode="y" horiz-adv-x="501" 
d="M89 -229q-47 0 -73 18l17 94h17l72 -52q35 1 72 37t61 121l-48 -9l-165 411l-43 36v23h265v-23l-71 -36h-1l104 -281l98 281l-59 36v23h173v-23l-49 -35l-152 -388q-56 -233 -218 -233z" />
    <glyph glyph-name="z" unicode="z" horiz-adv-x="457" 
d="M411 0h-388v35l251 374h-121l-104 -129h-23l28 170h366v-37l-250 -372h135l111 141h22z" />
    <glyph glyph-name="braceleft" unicode="{" horiz-adv-x="334" 
d="M160 399q0 25 -7 92t-7 99q0 60 38.5 89.5t123.5 29.5v-63q-92 0 -92 -70q0 -33 8 -95.5t8 -88.5q0 -82 -67 -99v-3q67 -17 67 -99q0 -26 -8 -88.5t-8 -95.5q0 -70 92 -70v-63q-85 0 -123.5 30t-38.5 89q0 32 7 99t7 92q0 73 -85 80v55q85 7 85 80z" />
    <glyph glyph-name="bar" unicode="|" horiz-adv-x="262" 
d="M96 -220v913h70v-913h-70z" />
    <glyph glyph-name="braceright" unicode="}" horiz-adv-x="334" 
d="M174 184q0 -25 7 -92t7 -99q0 -59 -38 -89t-124 -30v63q92 0 92 70q0 33 -8 95.5t-8 88.5q0 82 67 99v3q-67 17 -67 99q0 26 8 88.5t8 95.5q0 70 -92 70v63q86 0 124 -29.5t38 -89.5q0 -32 -7 -99t-7 -92q0 -73 85 -80v-55q-85 -7 -85 -80z" />
    <glyph glyph-name="asciitilde" unicode="~" 
d="M366 310q55 0 96 44l33 -13q-28 -78 -78 -113.5t-95 -35.5q-29 0 -89.5 18t-87.5 18q-28 0 -49 -10t-50 -37l-31 13q36 76 81.5 113t87.5 37q29 0 93 -17t89 -17z" />
    <glyph glyph-name="exclamdown" unicode="&#xa1;" horiz-adv-x="276" 
d="M219 395q0 -19 -32.5 -41t-53.5 -22q-18 0 -47 20.5t-29 38.5q0 19 31.5 41t51.5 22t49.5 -20.5t29.5 -38.5zM109 263l61 21q1 -51 3 -101t7 -103.5t8 -86t10 -91.5t9 -77l-134 -31z" />
    <glyph glyph-name="cent" unicode="&#xa2;" horiz-adv-x="559" 
d="M481 140q-87 -61 -153 -73l16 -127h-81l13 124q-53 2 -101 26t-82 75t-34 119q0 106 60.5 173.5t157.5 83.5l-17 124h85l-18 -119h5q77 0 126 -16l-23 -134h-23l-93 94q-15 5 -45 5q-47 0 -69 -30.5t-22 -115.5q0 -105 51 -152.5t119 -47.5q60 0 111 21z" />
    <glyph glyph-name="sterling" unicode="&#xa3;" horiz-adv-x="524" 
d="M38 0l-11 40q57 20 71.5 39.5t14.5 78.5q0 37 -10 123h-77v44h72q-5 40 -5 65q0 93 75.5 165.5t180.5 72.5q62 0 110 -21l-28 -155h-28l-66 105q-33 6 -51 6q-39 0 -52 -21.5t-13 -65.5q0 -36 12 -151h48l108 5l-13 -57l-95 8h-44q2 -26 2 -34q0 -63 -58 -136h228l61 82
h26l-37 -193h-421z" />
    <glyph glyph-name="currency" unicode="&#xa4;" horiz-adv-x="559" 
d="M440 -38l-51 121q-56 -31 -122 -31q-55 0 -101 23l-47 -113l-87 70l95 68q-69 59 -69 158q0 100 74 162l-100 72l87 69l50 -117q52 29 118 29q57 0 105 -25l48 113l87 -69l-97 -70q65 -57 65 -152q0 -99 -72 -163l104 -75zM167 262q0 -151 111 -151q59 0 84.5 35
t25.5 116q0 70 -27 111.5t-83 41.5q-59 0 -85 -36t-26 -117z" />
    <glyph glyph-name="yen" unicode="&#xa5;" horiz-adv-x="559" 
d="M421 24v-24h-287v24l74 34v50h-145v12l13 56h132v62h-145v13l13 56h108l-145 248l-46 33v24h273v-24l-78 -32l134 -226l124 225l-69 33v24h191v-24l-54 -33l-143 -248h134v-12l-13 -57h-145v-62h158v-12l-13 -56h-145v-50z" />
    <glyph glyph-name="brokenbar" unicode="&#xa6;" horiz-adv-x="262" 
d="M166 325h-70v368h70v-368zM166 -220h-70v368h70v-368z" />
    <glyph glyph-name="section" unicode="&#xa7;" horiz-adv-x="502" 
d="M233 223l45 -15q61 25 61 81q0 70 -86 99l-47 17q-59 -25 -59 -80q0 -37 19.5 -61.5t66.5 -40.5zM214 -96q-82 0 -136 22l18 115h22l90 -92q18 -3 28 -3q71 0 71 48q0 19 -4 32.5t-22.5 30.5t-52.5 29l-67 25q-70 26 -101 64t-31 92q0 104 121 160q-84 43 -84 124
q0 70 55.5 113.5t150.5 43.5q77 0 136 -22l-18 -116h-22l-90 93q-2 0 -12 1t-16 1q-71 0 -71 -48q0 -29 15 -51.5t64 -40.5l67 -25q70 -26 101 -64t31 -92q0 -104 -120 -159q83 -45 83 -125q0 -68 -58.5 -112t-147.5 -44z" />
    <glyph glyph-name="dieresis" unicode="&#xa8;" 
d="M275 571q0 19 26.5 45t45.5 26q21 0 51 -21t30 -41q0 -19 -27 -44t-45 -25q-21 0 -51 20.5t-30 39.5zM71 571q0 19 27 45t46 26q20 0 50.5 -21t30.5 -41q0 -19 -27.5 -44t-45.5 -25q-21 0 -51 20.5t-30 39.5z" />
    <glyph glyph-name="copyright" unicode="&#xa9;" horiz-adv-x="626" 
d="M43 255q0 122 79 196t191 74q123 0 196.5 -76.5t73.5 -193.5q0 -123 -79 -197t-191 -74q-124 0 -197 76.5t-73 194.5zM101 256q0 -100 61 -159t153 -59q97 0 155 62t58 156q0 101 -60 160t-153 59q-98 0 -156 -62t-58 -157zM420 202h16l-15 -86q-52 -18 -107 -18
q-161 0 -161 159q0 77 55 124t125 47q62 0 98 -16l-16 -78h-16l-47 51q-3 0 -11 1.5t-15.5 2t-13.5 0.5q-48 0 -60.5 -22t-12.5 -97q0 -136 95 -136q22 0 37 3z" />
    <glyph glyph-name="ordfeminine" unicode="&#xaa;" horiz-adv-x="270" 
d="M175 305h-16v33q-49 -33 -78 -33q-23 0 -43 17.5t-20 43.5q0 33 38.5 57t102.5 24v23q0 26 -10.5 36t-34.5 10q-8 0 -13 -1l-48 -52h-12l-6 64q65 23 133 23q70 0 70 -71v-132l38 -11v-13zM129 349q17 0 30 7v57q-18 5 -38 5q-16 0 -23.5 -7t-7.5 -26q0 -14 10.5 -25
t28.5 -11z" />
    <glyph glyph-name="guillemotleft" unicode="&#xab;" horiz-adv-x="505" 
d="M352 252l94 -199l-27 -11l-211 210l211 210l27 -11zM160 252l94 -199l-27 -11l-211 210l211 210l27 -11z" />
    <glyph glyph-name="logicalnot" unicode="&#xac;" horiz-adv-x="559" 
d="M485 171h-69v128h-353v65h422v-193z" />
    <glyph glyph-name="registered" unicode="&#xae;" horiz-adv-x="626" 
d="M43 520q0 122 79 196t191 74q123 0 196.5 -76.5t73.5 -193.5q0 -123 -79 -197t-191 -74q-124 0 -197 76.5t-73 194.5zM488 388v-1q40 57 40 134q0 101 -60 160t-153 59q-87 0 -143 -50h141q135 0 135 -75q0 -57 -70 -83l86 -132zM315 303q105 0 163 71h-90l-82 146
q-8 0 -20 2v-118l42 -16v-14h-167v14l40 16v256l-40 17v3q-60 -62 -60 -159q0 -100 61 -159t153 -59zM327 549q23 0 33 10t10 39q0 34 -19 49.5t-65 15.5v-110q10 -4 41 -4z" />
    <glyph glyph-name="macron" unicode="&#xaf;" 
d="M399 607v-15l-14 -63h-284v15l14 63h284z" />
    <glyph glyph-name="degree" unicode="&#xb0;" horiz-adv-x="342" 
d="M28 567q0 61 42 102.5t101 41.5q62 0 102.5 -38t40.5 -106q0 -59 -42.5 -100.5t-101.5 -41.5q-62 0 -102 37.5t-40 104.5zM104 567q0 -32 18.5 -52t47.5 -20q30 0 49 20t19 52q0 34 -19 54.5t-49 20.5q-29 0 -47.5 -20.5t-18.5 -54.5z" />
    <glyph glyph-name="plusminus" unicode="&#xb1;" horiz-adv-x="559" 
d="M491 259h-176v-174h-71v174h-176v70h176v167h71v-167h176v-70zM473 45v-70h-387v70h387z" />
    <glyph glyph-name="twosuperior" unicode="&#xb2;" horiz-adv-x="316" 
d="M270 374h-258v22q95 80 129.5 123t34.5 74q0 18 -20.5 37.5t-46.5 19.5h-23l-45 -64h-17l17 82q82 25 121 25q36 0 69.5 -27.5t33.5 -64.5q0 -16 -5 -28.5t-19 -26.5t-27 -24t-42.5 -31.5t-51.5 -38.5h120l29 36h21z" />
    <glyph glyph-name="threesuperior" unicode="&#xb3;" horiz-adv-x="316" 
d="M141 365q-64 0 -98 7l2 7l17 82h26l29 -60h15q49 0 58.5 5.5t9.5 31.5q0 30 -24.5 50.5t-49.5 20.5q-16 0 -26 -1l12 44q16 -2 30 -2q32 0 40 7t8 31q0 21 -19 39.5t-41 18.5h-17l-46 -61h-16l14 83q75 25 100 25q57 0 84 -20.5t27 -55.5q0 -51 -70 -73q38 -4 59.5 -25.5
t21.5 -49.5q0 -43 -43 -73.5t-103 -30.5z" />
    <glyph glyph-name="acute" unicode="&#xb4;" 
d="M145 508l84 181l134 -39l-178 -142h-40z" />
    <glyph glyph-name="mu" unicode="&#xb5;" horiz-adv-x="556" 
d="M119 -221q-27 -9 -34 -9h-30l12 364v308l133 22v-295q0 -109 66 -109q45 0 81 38q-1 15 -1 44v300l132 23v-321q0 -52 3 -66q5 -23 37 -23q20 0 35 8v-26q-45 -50 -113 -50q-63 0 -86 66q-72 -67 -125 -67q-43 0 -74 21q9 -86 36 -208z" />
    <glyph glyph-name="paragraph" unicode="&#xb6;" horiz-adv-x="546" 
d="M376 571h-69l-1 -366h-71q-113 0 -175 51.5t-62 146.5q0 100 67 154.5t175 54.5h307v-24l-74 -34v-514q0 -78 -50.5 -127t-129.5 -49q-61 0 -104 17l23 115h26l81 -89q29 -1 43 17t14 67v580z" />
    <glyph glyph-name="periodcentered" unicode="&#xb7;" horiz-adv-x="243" 
d="M35 220q0 21 29.5 49.5t51.5 28.5t55 -23t33 -44t-30 -49.5t-50 -28.5q-22 0 -55.5 23.5t-33.5 43.5z" />
    <glyph glyph-name="cedilla" unicode="&#xb8;" 
d="M188 -108l41 108h33l-5 -48q49 -13 70.5 -28t21.5 -41q0 -37 -40 -71t-129 -50l-11 52q45 0 69.5 3t31.5 7t7 12q0 19 -19.5 31.5t-69.5 24.5z" />
    <glyph glyph-name="onesuperior" unicode="&#xb9;" horiz-adv-x="316" 
d="M218 684v-280l36 -16v-14h-187v14l54 16v243l-60 -46l-16 51l120 32h53z" />
    <glyph glyph-name="ordmasculine" unicode="&#xba;" horiz-adv-x="295" 
d="M272 434q0 -58 -39 -93.5t-100 -35.5q-111 0 -111 117q0 58 39.5 93t100.5 35q110 0 110 -116zM188 426q0 93 -51 93q-18 0 -24.5 -17.5t-6.5 -72.5q0 -92 50 -92q19 0 25.5 17t6.5 72z" />
    <glyph glyph-name="guillemotright" unicode="&#xbb;" horiz-adv-x="493" 
d="M333 252l-94 199l27 11l211 -210l-211 -210l-27 11zM153 252l-94 199l27 11l211 -210l-211 -210l-27 11z" />
    <glyph glyph-name="onequarter" unicode="&#xbc;" horiz-adv-x="677" 
d="M231 684v-280l36 -16v-14h-187v14l54 16v243l-60 -46l-16 51l120 32h53zM103 0l408 629l38 -17l-408 -629zM472 105v117l-99 -117h99zM604 57h-35v-57h-97v57h-162v23l204 238h55v-213h51z" />
    <glyph glyph-name="onehalf" unicode="&#xbd;" horiz-adv-x="677" 
d="M221 684v-280l36 -16v-14h-187v14l54 16v243l-60 -46l-16 51l120 32h53zM93 0l408 629l38 -17l-408 -629zM603 0h-258v22q95 80 129.5 123t34.5 74q0 18 -20.5 37.5t-46.5 19.5h-23l-45 -64h-17l17 82q82 25 121 25q36 0 69.5 -27.5t33.5 -64.5q0 -16 -5 -28.5t-19 -26.5
t-27 -24t-42.5 -31.5t-51.5 -38.5h120l29 36h21z" />
    <glyph glyph-name="threequarters" unicode="&#xbe;" horiz-adv-x="677" 
d="M123 0l408 629l38 -17l-408 -629zM171 365q-64 0 -98 7l2 7l17 82h26l29 -60h15q49 0 58.5 5.5t9.5 31.5q0 30 -24.5 50.5t-49.5 20.5q-16 0 -26 -1l12 44q16 -2 30 -2q32 0 40 7t8 31q0 21 -19 39.5t-41 18.5h-17l-46 -61h-16l14 83q75 25 100 25q57 0 84 -20.5
t27 -55.5q0 -51 -70 -73q38 -4 59.5 -25.5t21.5 -49.5q0 -43 -43 -73.5t-103 -30.5zM471 105v117l-100 -117h100zM603 57h-36v-57h-96v57h-162v23l203 238h55v-213h51z" />
    <glyph glyph-name="questiondown" unicode="&#xbf;" horiz-adv-x="398" 
d="M300 407q0 -20 -33.5 -41.5t-55.5 -21.5q-18 0 -45.5 20.5t-27.5 38.5q0 19 33 41t54 22q19 0 47 -20.5t28 -38.5zM124 266l106 46q41 -25 58.5 -45.5t17.5 -48.5q0 -24 -24.5 -49.5t-54 -46t-54 -55t-24.5 -74.5q0 -55 27.5 -82.5t67.5 -27.5q19 0 29 2l82 127h51
l-19 -130q-139 -60 -192 -60q-73 0 -123 42.5t-50 105.5q0 34 16 62.5t38.5 48.5t45 36.5t38.5 34t16 34.5q0 28 -52 80z" />
    <glyph glyph-name="Agrave" unicode="&#xc0;" horiz-adv-x="624" 
d="M307 839l83 -181h-39l-178 142zM364 258l-84 223l-87 -223h171zM186 24v-24h-192v24l56 34l225 549l87 29l220 -578l48 -34v-24h-274v24l84 34l-58 153h-208l-59 -153z" />
    <glyph glyph-name="Aacute" unicode="&#xc1;" horiz-adv-x="624" 
d="M264 658l83 181l134 -39l-178 -142h-39zM364 258l-84 223l-87 -223h171zM186 24v-24h-192v24l56 34l225 549l87 29l220 -578l48 -34v-24h-274v24l84 34l-58 153h-208l-59 -153z" />
    <glyph glyph-name="Acircumflex" unicode="&#xc2;" horiz-adv-x="624" 
d="M368 839l113 -181h-39l-120 89l-119 -89h-39l113 181h91zM364 258l-84 223l-87 -223h171zM186 24v-24h-192v24l56 34l225 549l87 29l220 -578l48 -34v-24h-274v24l84 34l-58 153h-208l-59 -153z" />
    <glyph glyph-name="Atilde" unicode="&#xc3;" horiz-adv-x="624" 
d="M407 766q40 0 70 37l24 -11q-20 -65 -56.5 -95t-69.5 -30q-21 0 -65 15t-63 15q-36 0 -72 -39l-23 11q26 63 59.5 94t63.5 31q21 0 67.5 -14t64.5 -14zM364 258l-84 223l-87 -223h171zM186 24v-24h-192v24l56 34l225 549l87 29l220 -578l48 -34v-24h-274v24l84 34
l-58 153h-208l-59 -153z" />
    <glyph glyph-name="Adieresis" unicode="&#xc4;" horiz-adv-x="624" 
d="M347 725q0 19 26.5 45t45.5 26q21 0 51 -21t30 -41q0 -19 -27 -44.5t-45 -25.5q-21 0 -51 20.5t-30 40.5zM143 725q0 19 27 45t46 26q20 0 50.5 -21t30.5 -41q0 -19 -27.5 -44.5t-45.5 -25.5q-21 0 -51 20.5t-30 40.5zM364 258l-84 223l-87 -223h171zM186 24v-24h-192v24
l56 34l225 549l87 29l220 -578l48 -34v-24h-274v24l84 34l-58 153h-208l-59 -153z" />
    <glyph glyph-name="Aring" unicode="&#xc5;" horiz-adv-x="624" 
d="M225 751q0 39 29.5 67t68.5 28q40 0 68 -25t28 -70q0 -37 -29.5 -64.5t-68.5 -27.5q-40 0 -68 24.5t-28 67.5zM286 752q0 -16 10.5 -28t26.5 -12t27 12t11 28q0 17 -11 29t-27 12t-26.5 -12t-10.5 -29zM364 258l-84 223l-87 -223h171zM186 24v-24h-192v24l56 34l225 549
l87 29l220 -578l48 -34v-24h-274v24l84 34l-58 153h-208l-59 -153z" />
    <glyph glyph-name="AE" unicode="&#xc6;" horiz-adv-x="831" 
d="M371 331v215l-142 -215h142zM111 24v-24h-192v24l63 31l337 517l-59 17v23h508l-28 -158h-31l-63 111h-136v-226h73l120 10l-12 -68l-112 10h-69v-244h155l100 134h30l-33 -181h-482v24l91 34v225h-174l-148 -225h2z" />
    <glyph glyph-name="Ccedilla" unicode="&#xc7;" horiz-adv-x="599" 
d="M430 -117q0 -37 -40 -71t-129 -50l-11 52q45 0 69.5 3t31.5 7t7 12q0 39 -89 61l35 88q-124 8 -193.5 87t-69.5 222q0 81 26.5 146t72 105.5t102.5 61.5t122 21q118 0 176 -32l-26 -146h-30l-67 105q-32 12 -87 12q-78 0 -112.5 -57t-35.5 -190q1 -130 52 -201.5
t133 -71.5q41 0 67 6l90 128h30l-29 -160q-92 -35 -183 -37l-1 -27q46 -12 67.5 -29.5t21.5 -44.5z" />
    <glyph glyph-name="Egrave" unicode="&#xc8;" horiz-adv-x="571" 
d="M308 839l83 -181h-39l-178 142zM37 0v24l74 34v496l-74 35v23h470l-27 -158h-30l-64 111h-137v-228h74l120 11l-12 -68l-113 9h-69v-242h156l100 134h30l-33 -181h-465z" />
    <glyph glyph-name="Eacute" unicode="&#xc9;" horiz-adv-x="571" 
d="M218 658l83 181l134 -39l-178 -142h-39zM37 0v24l74 34v496l-74 35v23h470l-27 -158h-30l-64 111h-137v-228h74l120 11l-12 -68l-113 9h-69v-242h156l100 134h30l-33 -181h-465z" />
    <glyph glyph-name="Ecircumflex" unicode="&#xca;" horiz-adv-x="571" 
d="M348 839l113 -181h-39l-120 89l-119 -89h-39l113 181h91zM37 0v24l74 34v496l-74 35v23h470l-27 -158h-30l-64 111h-137v-228h74l120 11l-12 -68l-113 9h-69v-242h156l100 134h30l-33 -181h-465z" />
    <glyph glyph-name="Edieresis" unicode="&#xcb;" horiz-adv-x="571" 
d="M327 725q0 19 26.5 45t45.5 26q21 0 51 -21t30 -41q0 -19 -27 -44.5t-45 -25.5q-21 0 -51 20.5t-30 40.5zM123 725q0 19 27 45t46 26q20 0 50.5 -21t30.5 -41q0 -19 -27.5 -44.5t-45.5 -25.5q-21 0 -51 20.5t-30 40.5zM37 0v24l74 34v496l-74 35v23h470l-27 -158h-30
l-64 111h-137v-228h74l120 11l-12 -68l-113 9h-69v-242h156l100 134h30l-33 -181h-465z" />
    <glyph glyph-name="Igrave" unicode="&#xcc;" horiz-adv-x="360" 
d="M176 839l83 -181h-39l-178 142zM249 554v-496l74 -34v-24h-286v24l74 34v496l-74 35v23h286v-24z" />
    <glyph glyph-name="Iacute" unicode="&#xcd;" horiz-adv-x="360" 
d="M114 658l83 181l134 -39l-178 -142h-39zM249 554v-496l74 -34v-24h-286v24l74 34v496l-74 35v23h286v-24z" />
    <glyph glyph-name="Icircumflex" unicode="&#xce;" horiz-adv-x="360" 
d="M226 839l113 -181h-39l-120 89l-119 -89h-39l113 181h91zM249 554v-496l74 -34v-24h-286v24l74 34v496l-74 35v23h286v-24z" />
    <glyph glyph-name="Idieresis" unicode="&#xcf;" horiz-adv-x="360" 
d="M205 725q0 19 26.5 45t45.5 26q21 0 51 -21t30 -41q0 -19 -27 -44.5t-45 -25.5q-21 0 -51 20.5t-30 40.5zM1 725q0 19 27 45t46 26q20 0 50.5 -21t30.5 -41q0 -19 -27.5 -44.5t-45.5 -25.5q-21 0 -51 20.5t-30 40.5zM249 554v-496l74 -34v-24h-286v24l74 34v496l-74 35
v23h286v-24z" />
    <glyph glyph-name="Eth" unicode="&#xd0;" horiz-adv-x="686" 
d="M342 61q88 0 124.5 48t36.5 177q0 154 -53 216.5t-159 62.5h-42v-220h147v-54h-147v-219q44 -11 93 -11zM37 0v24l74 34v233h-74v54h74v209l-74 35v23h289q159 0 239 -68.5t80 -215.5q0 -152 -96.5 -240t-254.5 -88h-257z" />
    <glyph glyph-name="Ntilde" unicode="&#xd1;" horiz-adv-x="698" 
d="M444 766q40 0 70 37l24 -11q-20 -65 -56.5 -95t-69.5 -30q-21 0 -65 15t-63 15q-36 0 -72 -39l-23 11q26 63 59.5 94t63.5 31q21 0 67.5 -14t64.5 -14zM596 -7h-62l-319 383l-38 59v-377l86 -34v-24h-235v24l74 34v493l-2 4l-72 34v23h172l281 -339l40 -58v339l-86 34v24
h235v-24l-74 -34v-561z" />
    <glyph glyph-name="Ograve" unicode="&#xd2;" horiz-adv-x="689" 
d="M369 839l83 -181h-39l-178 142zM648 318q0 -85 -27.5 -151t-75 -105t-105.5 -58.5t-124 -19.5q-126 0 -200.5 80.5t-74.5 228.5q0 85 28 150.5t75.5 105t106 59.5t124.5 20q124 0 198.5 -81t74.5 -229zM506 282q0 282 -183 282q-74 0 -106.5 -50.5t-32.5 -183.5
q0 -139 47.5 -209.5t136.5 -70.5q73 0 105.5 51t32.5 181z" />
    <glyph glyph-name="Oacute" unicode="&#xd3;" horiz-adv-x="689" 
d="M235 658l83 181l134 -39l-178 -142h-39zM648 318q0 -85 -27.5 -151t-75 -105t-105.5 -58.5t-124 -19.5q-126 0 -200.5 80.5t-74.5 228.5q0 85 28 150.5t75.5 105t106 59.5t124.5 20q124 0 198.5 -81t74.5 -229zM506 282q0 282 -183 282q-74 0 -106.5 -50.5t-32.5 -183.5
q0 -139 47.5 -209.5t136.5 -70.5q73 0 105.5 51t32.5 181z" />
    <glyph glyph-name="Ocircumflex" unicode="&#xd4;" horiz-adv-x="689" 
d="M391 839l113 -181h-39l-120 89l-119 -89h-39l113 181h91zM648 318q0 -85 -27.5 -151t-75 -105t-105.5 -58.5t-124 -19.5q-126 0 -200.5 80.5t-74.5 228.5q0 85 28 150.5t75.5 105t106 59.5t124.5 20q124 0 198.5 -81t74.5 -229zM506 282q0 282 -183 282
q-74 0 -106.5 -50.5t-32.5 -183.5q0 -139 47.5 -209.5t136.5 -70.5q73 0 105.5 51t32.5 181z" />
    <glyph glyph-name="Otilde" unicode="&#xd5;" horiz-adv-x="689" 
d="M433 766q40 0 70 37l24 -11q-20 -65 -56.5 -95t-69.5 -30q-21 0 -65 15t-63 15q-36 0 -72 -39l-23 11q26 63 59.5 94t63.5 31q21 0 67.5 -14t64.5 -14zM648 318q0 -85 -27.5 -151t-75 -105t-105.5 -58.5t-124 -19.5q-126 0 -200.5 80.5t-74.5 228.5q0 85 28 150.5
t75.5 105t106 59.5t124.5 20q124 0 198.5 -81t74.5 -229zM506 282q0 282 -183 282q-74 0 -106.5 -50.5t-32.5 -183.5q0 -139 47.5 -209.5t136.5 -70.5q73 0 105.5 51t32.5 181z" />
    <glyph glyph-name="Odieresis" unicode="&#xd6;" horiz-adv-x="689" 
d="M370 725q0 19 26.5 45t45.5 26q21 0 51 -21t30 -41q0 -19 -27 -44.5t-45 -25.5q-21 0 -51 20.5t-30 40.5zM166 725q0 19 27 45t46 26q20 0 50.5 -21t30.5 -41q0 -19 -27.5 -44.5t-45.5 -25.5q-21 0 -51 20.5t-30 40.5zM648 318q0 -85 -27.5 -151t-75 -105t-105.5 -58.5
t-124 -19.5q-126 0 -200.5 80.5t-74.5 228.5q0 85 28 150.5t75.5 105t106 59.5t124.5 20q124 0 198.5 -81t74.5 -229zM506 282q0 282 -183 282q-74 0 -106.5 -50.5t-32.5 -183.5q0 -139 47.5 -209.5t136.5 -70.5q73 0 105.5 51t32.5 181z" />
    <glyph glyph-name="multiply" unicode="&#xd7;" horiz-adv-x="559" 
d="M415 64l-135 136l-136 -136l-49 49l136 136l-136 135l49 49l136 -135l135 135l49 -49l-135 -135l135 -136z" />
    <glyph glyph-name="Oslash" unicode="&#xd8;" horiz-adv-x="689" 
d="M184 330q0 -127 41 -195l183 401q-35 19 -85 19q-82 0 -110.5 -45t-28.5 -180zM368 59q80 0 109 45t29 178q0 154 -58 221l-188 -410q43 -34 108 -34zM316 -16q-54 0 -99 14l-37 -80h-55l46 99q-130 73 -130 276q0 151 99.5 243t234.5 92q41 0 72 -7l33 72h55l-40 -87
q153 -64 153 -288q0 -101 -48 -179t-122.5 -116.5t-161.5 -38.5z" />
    <glyph glyph-name="Ugrave" unicode="&#xd9;" horiz-adv-x="707" 
d="M410 839l83 -181h-39l-178 142zM101 203v351l-74 35v23h287v-24l-74 -34v-313q0 -81 40.5 -124t111.5 -43q73 0 105.5 30t32.5 106v344l-74 34v24h223v-24l-74 -34v-322q0 -122 -74 -185t-184 -63q-113 0 -179.5 54.5t-66.5 164.5z" />
    <glyph glyph-name="Uacute" unicode="&#xda;" horiz-adv-x="707" 
d="M288 658l83 181l134 -39l-178 -142h-39zM101 203v351l-74 35v23h287v-24l-74 -34v-313q0 -81 40.5 -124t111.5 -43q73 0 105.5 30t32.5 106v344l-74 34v24h223v-24l-74 -34v-322q0 -122 -74 -185t-184 -63q-113 0 -179.5 54.5t-66.5 164.5z" />
    <glyph glyph-name="Ucircumflex" unicode="&#xdb;" horiz-adv-x="707" 
d="M429 839l113 -181h-39l-120 89l-119 -89h-39l113 181h91zM101 203v351l-74 35v23h287v-24l-74 -34v-313q0 -81 40.5 -124t111.5 -43q73 0 105.5 30t32.5 106v344l-74 34v24h223v-24l-74 -34v-322q0 -122 -74 -185t-184 -63q-113 0 -179.5 54.5t-66.5 164.5z" />
    <glyph glyph-name="Udieresis" unicode="&#xdc;" horiz-adv-x="707" 
d="M413 725q0 19 26.5 45t45.5 26q21 0 51 -21t30 -41q0 -19 -27 -44.5t-45 -25.5q-21 0 -51 20.5t-30 40.5zM209 725q0 19 27 45t46 26q20 0 50.5 -21t30.5 -41q0 -19 -27.5 -44.5t-45.5 -25.5q-21 0 -51 20.5t-30 40.5zM101 203v351l-74 35v23h287v-24l-74 -34v-313
q0 -81 40.5 -124t111.5 -43q73 0 105.5 30t32.5 106v344l-74 34v24h223v-24l-74 -34v-322q0 -122 -74 -185t-184 -63q-113 0 -179.5 54.5t-66.5 164.5z" />
    <glyph glyph-name="Yacute" unicode="&#xdd;" horiz-adv-x="582" 
d="M248 658l83 181l134 -39l-178 -142h-39zM462 0h-287v24l74 34v199l-189 297h-1l-47 34v24h273v-24l-77 -31l153 -232l146 231l-68 32v24h192v-24l-57 -34l-186 -291v-205l74 -34v-24z" />
    <glyph glyph-name="Thorn" unicode="&#xde;" horiz-adv-x="568" 
d="M313 196q51 0 75 22t24 77q0 68 -37 104.5t-123 36.5h-3v-233q27 -7 64 -7zM332 24v-24h-295v24l74 34v496l-74 35v23h298v-24l-86 -34v-69h69q224 0 224 -163q0 -77 -66 -128t-175 -51q-10 0 -52 3v-88z" />
    <glyph glyph-name="germandbls" unicode="&#xdf;" horiz-adv-x="562" 
d="M363 -16q-60 0 -114 16l16 100h23l58 -68q10 -3 33 -3q54 0 54 56q0 53 -75 100l-23 15q-74 49 -74 122q0 33 15.5 63t33.5 49t33.5 46t15.5 55q0 53 -30 89.5t-63 36.5q-30 0 -40.5 -22.5t-10.5 -70.5v-568h-191v23l58 36v347h-61v44h61v48q0 93 62 152t154 59
q77 0 127.5 -37.5t50.5 -96.5q0 -30 -17 -57t-38 -44.5t-38 -41t-17 -46.5q0 -46 61 -84l25 -16q55 -35 77 -67t22 -78q0 -70 -52.5 -113.5t-135.5 -43.5z" />
    <glyph glyph-name="agrave" unicode="&#xe0;" horiz-adv-x="487" 
d="M270 689l83 -181h-39l-178 142zM317 -16h-31v63q-85 -63 -140 -63q-45 0 -81 34t-36 84q0 64 69.5 109t187.5 47v56q0 99 -87 99q-13 0 -23 -2l-86 -106h-23l-12 115q124 46 207 46q152 0 152 -133v-269l71 -20v-25zM223 63q33 0 63 17v116q-36 9 -74 9q-34 0 -50 -14.5
t-16 -50.5q0 -34 21 -55.5t56 -21.5z" />
    <glyph glyph-name="aacute" unicode="&#xe1;" horiz-adv-x="487" 
d="M159 508l84 181l134 -39l-178 -142h-40zM317 -16h-31v63q-85 -63 -140 -63q-45 0 -81 34t-36 84q0 64 69.5 109t187.5 47v56q0 99 -87 99q-13 0 -23 -2l-86 -106h-23l-12 115q124 46 207 46q152 0 152 -133v-269l71 -20v-25zM223 63q33 0 63 17v116q-36 9 -74 9
q-34 0 -50 -14.5t-16 -50.5q0 -34 21 -55.5t56 -21.5z" />
    <glyph glyph-name="acircumflex" unicode="&#xe2;" horiz-adv-x="487" 
d="M292 689l113 -181h-39l-120 89l-119 -89h-39l113 181h91zM317 -16h-31v63q-85 -63 -140 -63q-45 0 -81 34t-36 84q0 64 69.5 109t187.5 47v56q0 99 -87 99q-13 0 -23 -2l-86 -106h-23l-12 115q124 46 207 46q152 0 152 -133v-269l71 -20v-25zM223 63q33 0 63 17v116
q-36 9 -74 9q-34 0 -50 -14.5t-16 -50.5q0 -34 21 -55.5t56 -21.5z" />
    <glyph glyph-name="atilde" unicode="&#xe3;" horiz-adv-x="487" 
d="M326 616q40 0 70 37l24 -11q-20 -65 -56.5 -95t-69.5 -30q-21 0 -65 15t-63 15q-36 0 -72 -39l-23 11q26 63 59.5 94t63.5 31q21 0 67.5 -14t64.5 -14zM317 -16h-31v63q-85 -63 -140 -63q-45 0 -81 34t-36 84q0 64 69.5 109t187.5 47v56q0 99 -87 99q-13 0 -23 -2
l-86 -106h-23l-12 115q124 46 207 46q152 0 152 -133v-269l71 -20v-25zM223 63q33 0 63 17v116q-36 9 -74 9q-34 0 -50 -14.5t-16 -50.5q0 -34 21 -55.5t56 -21.5z" />
    <glyph glyph-name="adieresis" unicode="&#xe4;" horiz-adv-x="487" 
d="M271 571q0 19 26.5 45t45.5 26q21 0 51 -21t30 -41q0 -19 -27 -44t-45 -25q-21 0 -51 20.5t-30 39.5zM67 571q0 19 27 45t46 26q20 0 50.5 -21t30.5 -41q0 -19 -27.5 -44t-45.5 -25q-21 0 -51 20.5t-30 39.5zM317 -16h-31v63q-85 -63 -140 -63q-45 0 -81 34t-36 84
q0 64 69.5 109t187.5 47v56q0 99 -87 99q-13 0 -23 -2l-86 -106h-23l-12 115q124 46 207 46q152 0 152 -133v-269l71 -20v-25zM223 63q33 0 63 17v116q-36 9 -74 9q-34 0 -50 -14.5t-16 -50.5q0 -34 21 -55.5t56 -21.5z" />
    <glyph glyph-name="aring" unicode="&#xe5;" horiz-adv-x="487" 
d="M153 601q0 39 29.5 67t68.5 28q40 0 68 -25t28 -70q0 -37 -29.5 -64.5t-68.5 -27.5q-40 0 -68 24.5t-28 67.5zM214 602q0 -16 10.5 -28t26.5 -12t27 12t11 28q0 17 -11 29t-27 12t-26.5 -12t-10.5 -29zM317 -16h-31v63q-85 -63 -140 -63q-45 0 -81 34t-36 84
q0 64 69.5 109t187.5 47v56q0 99 -87 99q-13 0 -23 -2l-86 -106h-23l-12 115q124 46 207 46q152 0 152 -133v-269l71 -20v-25zM223 63q33 0 63 17v116q-36 9 -74 9q-34 0 -50 -14.5t-16 -50.5q0 -34 21 -55.5t56 -21.5z" />
    <glyph glyph-name="ae" unicode="&#xe6;" horiz-adv-x="720" 
d="M411 273v-5h151q0 143 -92 143q-33 0 -45.5 -27t-13.5 -111zM693 65q-68 -47 -105 -64t-85 -17q-114 0 -174 83q-55 -51 -94.5 -67t-82.5 -16q-49 0 -86 34t-37 84q0 66 63.5 111t193.5 53v48q0 49 -21.5 71t-65.5 22q-14 0 -22 -1l-87 -101h-23l-12 115q126 46 224 46
q69 0 105 -54q53 50 128 50q86 0 130.5 -46.5t44.5 -125.5q0 -35 -5 -60h-270q6 -85 47.5 -123t104.5 -38q59 0 111 28zM226 63q43 0 83 38q-22 43 -23 103q-36 9 -75 9q-31 0 -48 -18.5t-17 -52.5q0 -35 22 -57t58 -22z" />
    <glyph glyph-name="ccedilla" unicode="&#xe7;" horiz-adv-x="429" 
d="M331 -117q0 -37 -40 -71t-129 -50l-11 52q45 0 69.5 3t31.5 7t7 12q0 19 -19.5 31.5t-69.5 24.5l36 94q-77 8 -128 63t-51 155q0 127 69 194.5t185 67.5q65 0 115 -21l-22 -129h-23l-81 96q-13 4 -42 4q-36 0 -55.5 -32.5t-19.5 -118.5q0 -103 42.5 -149.5t106.5 -46.5
q50 0 101 21l12 -32q-64 -43 -97.5 -58t-75.5 -16l-3 -32q49 -13 70.5 -28t21.5 -41z" />
    <glyph glyph-name="egrave" unicode="&#xe8;" horiz-adv-x="461" 
d="M256 689l83 -181h-39l-178 142zM210 411q-31 0 -44 -27t-14 -106h150q0 133 -92 133zM434 65q-72 -49 -107 -65t-84 -16q-95 0 -155.5 57t-60.5 170q0 125 65 190t161 65q86 0 130.5 -48.5t44.5 -127.5q0 -28 -4 -50h-272q3 -90 45.5 -130.5t107.5 -40.5q60 0 110 28z
" />
    <glyph glyph-name="eacute" unicode="&#xe9;" horiz-adv-x="461" 
d="M163 508l84 181l134 -39l-178 -142h-40zM210 411q-31 0 -44 -27t-14 -106h150q0 133 -92 133zM434 65q-72 -49 -107 -65t-84 -16q-95 0 -155.5 57t-60.5 170q0 125 65 190t161 65q86 0 130.5 -48.5t44.5 -127.5q0 -28 -4 -50h-272q3 -90 45.5 -130.5t107.5 -40.5
q60 0 110 28z" />
    <glyph glyph-name="ecircumflex" unicode="&#xea;" horiz-adv-x="461" 
d="M286 689l113 -181h-39l-120 89l-119 -89h-39l113 181h91zM210 411q-31 0 -44 -27t-14 -106h150q0 133 -92 133zM434 65q-72 -49 -107 -65t-84 -16q-95 0 -155.5 57t-60.5 170q0 125 65 190t161 65q86 0 130.5 -48.5t44.5 -127.5q0 -28 -4 -50h-272q3 -90 45.5 -130.5
t107.5 -40.5q60 0 110 28z" />
    <glyph glyph-name="edieresis" unicode="&#xeb;" horiz-adv-x="461" 
d="M272 571q0 19 26.5 45t45.5 26q21 0 51 -21t30 -41q0 -19 -27 -44t-45 -25q-21 0 -51 20.5t-30 39.5zM68 571q0 19 27 45t46 26q20 0 50.5 -21t30.5 -41q0 -19 -27.5 -44t-45.5 -25q-21 0 -51 20.5t-30 39.5zM210 411q-31 0 -44 -27t-14 -106h150q0 133 -92 133zM434 65
q-72 -49 -107 -65t-84 -16q-95 0 -155.5 57t-60.5 170q0 125 65 190t161 65q86 0 130.5 -48.5t44.5 -127.5q0 -28 -4 -50h-272q3 -90 45.5 -130.5t107.5 -40.5q60 0 110 28z" />
    <glyph glyph-name="igrave" unicode="&#xec;" horiz-adv-x="293" 
d="M143 689l83 -181h-39l-178 142zM24 0v23l58 36v311l-65 33v24l167 39h31v-407l64 -36v-23h-255z" />
    <glyph glyph-name="iacute" unicode="&#xed;" horiz-adv-x="293" 
d="M81 508l84 181l134 -39l-178 -142h-40zM24 0v23l58 36v311l-65 33v24l167 39h31v-407l64 -36v-23h-255z" />
    <glyph glyph-name="icircumflex" unicode="&#xee;" horiz-adv-x="293" 
d="M193 689l113 -181h-39l-120 89l-119 -89h-39l113 181h91zM24 0v23l58 36v311l-65 33v24l167 39h31v-407l64 -36v-23h-255z" />
    <glyph glyph-name="idieresis" unicode="&#xef;" horiz-adv-x="293" 
d="M172 571q0 19 26.5 45t45.5 26q21 0 51 -21t30 -41q0 -19 -27 -44t-45 -25q-21 0 -51 20.5t-30 39.5zM-32 571q0 19 27 45t46 26q20 0 50.5 -21t30.5 -41q0 -19 -27.5 -44t-45.5 -25q-21 0 -51 20.5t-30 39.5zM24 0v23l58 36v311l-65 33v24l167 39h31v-407l64 -36v-23
h-255z" />
    <glyph glyph-name="eth" unicode="&#xf0;" horiz-adv-x="517" 
d="M229 -16q-93 0 -147.5 61.5t-54.5 159.5q0 120 73 190.5t191 70.5q8 0 30 -2q-16 62 -55 107l-165 -78v56l125 59q-45 35 -139 77l21 24q116 -22 193 -66l138 65v-56l-90 -42q131 -105 131 -312q0 -157 -73 -235.5t-178 -78.5zM274 63q24 0 37.5 11t21.5 49t8 112
q0 97 -6 146q-39 22 -77 22q-50 0 -70.5 -33.5t-20.5 -129.5q0 -177 107 -177z" />
    <glyph glyph-name="ntilde" unicode="&#xf1;" horiz-adv-x="567" 
d="M369 616q40 0 70 37l24 -11q-20 -65 -56.5 -95t-69.5 -30q-21 0 -65 15t-63 15q-36 0 -72 -39l-23 11q26 63 59.5 94t63.5 31q21 0 67.5 -14t64.5 -14zM262 23v-23h-238v23l58 36v311l-65 33v24l167 39h31v-58q90 58 157 58q55 0 88.5 -30.5t33.5 -83.5v-293l58 -36v-23
h-215v23l24 36v238q0 46 -22.5 68t-57.5 22q-36 0 -66 -15v-313z" />
    <glyph glyph-name="ograve" unicode="&#xf2;" horiz-adv-x="509" 
d="M268 689l83 -181h-39l-178 142zM482 236q0 -117 -67 -184.5t-185 -67.5q-97 0 -150 58.5t-53 171.5q0 117 68 184.5t185 67.5q96 0 149 -58.5t53 -171.5zM346 216q0 192 -108 192q-43 0 -59 -35t-16 -139q0 -95 28.5 -142.5t78.5 -47.5q45 0 60.5 34t15.5 138z" />
    <glyph glyph-name="oacute" unicode="&#xf3;" horiz-adv-x="509" 
d="M169 508l84 181l134 -39l-178 -142h-40zM482 236q0 -117 -67 -184.5t-185 -67.5q-97 0 -150 58.5t-53 171.5q0 117 68 184.5t185 67.5q96 0 149 -58.5t53 -171.5zM346 216q0 192 -108 192q-43 0 -59 -35t-16 -139q0 -95 28.5 -142.5t78.5 -47.5q45 0 60.5 34t15.5 138z
" />
    <glyph glyph-name="ocircumflex" unicode="&#xf4;" horiz-adv-x="509" 
d="M300 689l113 -181h-39l-120 89l-119 -89h-39l113 181h91zM482 236q0 -117 -67 -184.5t-185 -67.5q-97 0 -150 58.5t-53 171.5q0 117 68 184.5t185 67.5q96 0 149 -58.5t53 -171.5zM346 216q0 192 -108 192q-43 0 -59 -35t-16 -139q0 -95 28.5 -142.5t78.5 -47.5
q45 0 60.5 34t15.5 138z" />
    <glyph glyph-name="otilde" unicode="&#xf5;" horiz-adv-x="509" 
d="M334 616q40 0 70 37l24 -11q-20 -65 -56.5 -95t-69.5 -30q-21 0 -65 15t-63 15q-36 0 -72 -39l-23 11q26 63 59.5 94t63.5 31q21 0 67.5 -14t64.5 -14zM482 236q0 -117 -67 -184.5t-185 -67.5q-97 0 -150 58.5t-53 171.5q0 117 68 184.5t185 67.5q96 0 149 -58.5
t53 -171.5zM346 216q0 192 -108 192q-43 0 -59 -35t-16 -139q0 -95 28.5 -142.5t78.5 -47.5q45 0 60.5 34t15.5 138z" />
    <glyph glyph-name="odieresis" unicode="&#xf6;" horiz-adv-x="509" 
d="M279 571q0 19 26.5 45t45.5 26q21 0 51 -21t30 -41q0 -19 -27 -44t-45 -25q-21 0 -51 20.5t-30 39.5zM75 571q0 19 27 45t46 26q20 0 50.5 -21t30.5 -41q0 -19 -27.5 -44t-45.5 -25q-21 0 -51 20.5t-30 39.5zM482 236q0 -117 -67 -184.5t-185 -67.5q-97 0 -150 58.5
t-53 171.5q0 117 68 184.5t185 67.5q96 0 149 -58.5t53 -171.5zM346 216q0 192 -108 192q-43 0 -59 -35t-16 -139q0 -95 28.5 -142.5t78.5 -47.5q45 0 60.5 34t15.5 138z" />
    <glyph glyph-name="divide" unicode="&#xf7;" horiz-adv-x="559" 
d="M200 411q0 19 26.5 44.5t46.5 25.5t50 -20.5t30 -39.5t-27 -44.5t-45 -25.5q-20 0 -50.5 21t-30.5 39zM491 300v-69h-423v69h423zM200 111q0 19 26.5 44.5t46.5 25.5t50 -20.5t30 -39.5t-27 -44.5t-45 -25.5q-20 0 -50.5 21t-30.5 39z" />
    <glyph glyph-name="oslash" unicode="&#xf8;" horiz-adv-x="509" 
d="M163 234q0 -65 14 -110l135 247q-27 37 -74 37q-43 0 -59 -35t-16 -139zM270 44q45 0 60.5 34t15.5 138q0 55 -10 100l-132 -242q26 -30 66 -30zM230 -16q-38 0 -70 9l-36 -65h-54l46 85q-89 55 -89 201q0 115 71 183.5t182 68.5q42 0 77 -12l37 68h54l-48 -89
q82 -56 82 -197q0 -115 -70.5 -183.5t-181.5 -68.5z" />
    <glyph glyph-name="ugrave" unicode="&#xf9;" horiz-adv-x="563" 
d="M285 689l83 -181h-39l-178 142zM383 -16h-31v58q-87 -58 -160 -58q-52 0 -85.5 30.5t-33.5 83.5v272l-65 32v24l177 40h31l-10 -138v-175q0 -46 23 -68t58 -22t65 15v292l-60 32v24l172 40h31l-10 -138v-264l69 -20v-25z" />
    <glyph glyph-name="uacute" unicode="&#xfa;" horiz-adv-x="563" 
d="M190 508l84 181l134 -39l-178 -142h-40zM383 -16h-31v58q-87 -58 -160 -58q-52 0 -85.5 30.5t-33.5 83.5v272l-65 32v24l177 40h31l-10 -138v-175q0 -46 23 -68t58 -22t65 15v292l-60 32v24l172 40h31l-10 -138v-264l69 -20v-25z" />
    <glyph glyph-name="ucircumflex" unicode="&#xfb;" horiz-adv-x="563" 
d="M327 689l113 -181h-39l-120 89l-119 -89h-39l113 181h91zM383 -16h-31v58q-87 -58 -160 -58q-52 0 -85.5 30.5t-33.5 83.5v272l-65 32v24l177 40h31l-10 -138v-175q0 -46 23 -68t58 -22t65 15v292l-60 32v24l172 40h31l-10 -138v-264l69 -20v-25z" />
    <glyph glyph-name="udieresis" unicode="&#xfc;" horiz-adv-x="563" 
d="M306 571q0 19 26.5 45t45.5 26q21 0 51 -21t30 -41q0 -19 -27 -44t-45 -25q-21 0 -51 20.5t-30 39.5zM102 571q0 19 27 45t46 26q20 0 50.5 -21t30.5 -41q0 -19 -27.5 -44t-45.5 -25q-21 0 -51 20.5t-30 39.5zM383 -16h-31v58q-87 -58 -160 -58q-52 0 -85.5 30.5
t-33.5 83.5v272l-65 32v24l177 40h31l-10 -138v-175q0 -46 23 -68t58 -22t65 15v292l-60 32v24l172 40h31l-10 -138v-264l69 -20v-25z" />
    <glyph glyph-name="yacute" unicode="&#xfd;" horiz-adv-x="501" 
d="M199 508l84 181l134 -39l-178 -142h-40zM89 -229q-47 0 -73 18l17 94h17l72 -52q35 1 72 37t61 121l-48 -9l-165 411l-43 36v23h265v-23l-71 -36h-1l104 -281l98 281l-59 36v23h173v-23l-49 -35l-152 -388q-56 -233 -218 -233z" />
    <glyph glyph-name="thorn" unicode="&#xfe;" horiz-adv-x="540" 
d="M297 48q38 0 58 33.5t20 126.5q0 180 -99 180q-36 0 -80 -22v-292l1 1q40 -27 100 -27zM269 -197v-23h-264v23l59 35v773l-71 19v26l185 37h31l-13 -123v-167q50 35 81 49t70 14q75 0 120 -54t45 -154q0 -127 -76 -200.5t-172 -73.5q-35 0 -68 6v-152z" />
    <glyph glyph-name="ydieresis" unicode="&#xff;" horiz-adv-x="501" 
d="M320 571q0 19 26.5 45t45.5 26q21 0 51 -21t30 -41q0 -19 -27 -44t-45 -25q-21 0 -51 20.5t-30 39.5zM116 571q0 19 27 45t46 26q20 0 50.5 -21t30.5 -41q0 -19 -27.5 -44t-45.5 -25q-21 0 -51 20.5t-30 39.5zM89 -229q-47 0 -73 18l17 94h17l72 -52q35 1 72 37t61 121
l-48 -9l-165 411l-43 36v23h265v-23l-71 -36h-1l104 -281l98 281l-59 36v23h173v-23l-49 -35l-152 -388q-56 -233 -218 -233z" />
    <glyph glyph-name="Amacron" unicode="&#x100;" horiz-adv-x="624" 
d="M471 757v-15l-14 -63h-284v15l14 63h284zM364 258l-84 223l-87 -223h171zM186 24v-24h-192v24l56 34l225 549l87 29l220 -578l48 -34v-24h-274v24l84 34l-58 153h-208l-59 -153z" />
    <glyph glyph-name="amacron" unicode="&#x101;" horiz-adv-x="487" 
d="M395 607v-15l-14 -63h-284v15l14 63h284zM317 -16h-31v63q-85 -63 -140 -63q-45 0 -81 34t-36 84q0 64 69.5 109t187.5 47v56q0 99 -87 99q-13 0 -23 -2l-86 -106h-23l-12 115q124 46 207 46q152 0 152 -133v-269l71 -20v-25zM223 63q33 0 63 17v116q-36 9 -74 9
q-34 0 -50 -14.5t-16 -50.5q0 -34 21 -55.5t56 -21.5z" />
    <glyph glyph-name="Abreve" unicode="&#x102;" horiz-adv-x="624" 
d="M321 750q42 0 76 25.5t44 63.5h39q0 -79 -40.5 -130t-128.5 -51q-45 0 -75.5 14.5t-45.5 41.5t-20.5 56t-5.5 69h39q9 -40 41 -64.5t77 -24.5zM364 258l-84 223l-87 -223h171zM186 24v-24h-192v24l56 34l225 549l87 29l220 -578l48 -34v-24h-274v24l84 34l-58 153h-208
l-59 -153z" />
    <glyph glyph-name="abreve" unicode="&#x103;" horiz-adv-x="487" 
d="M245 600q42 0 76 25.5t44 63.5h39q0 -79 -40.5 -130t-128.5 -51q-45 0 -75.5 14.5t-45.5 41.5t-20.5 56t-5.5 69h39q9 -40 41 -64.5t77 -24.5zM317 -16h-31v63q-85 -63 -140 -63q-45 0 -81 34t-36 84q0 64 69.5 109t187.5 47v56q0 99 -87 99q-13 0 -23 -2l-86 -106h-23
l-12 115q124 46 207 46q152 0 152 -133v-269l71 -20v-25zM223 63q33 0 63 17v116q-36 9 -74 9q-34 0 -50 -14.5t-16 -50.5q0 -34 21 -55.5t56 -21.5z" />
    <glyph glyph-name="Aogonek" unicode="&#x104;" horiz-adv-x="624" 
d="M364 258l-84 223l-87 -223h171zM599 -202q-75 -28 -112 -28q-44 0 -71 21.5t-27 59.5q0 80 150 149h-183v24l84 34l-58 153h-208l-59 -153l71 -34v-24h-192v24l56 34l225 549l87 29l220 -578l48 -34v-24h-45q-49 -38 -65.5 -66.5t-16.5 -60.5q0 -57 68 -57q15 0 23 2z
" />
    <glyph glyph-name="aogonek" unicode="&#x105;" horiz-adv-x="487" 
d="M367 -217q-44 0 -71 21.5t-27 59.5q0 74 122 136l-74 -16h-31v63q-85 -63 -140 -63q-45 0 -81 34t-36 84q0 64 69.5 109t187.5 47v56q0 99 -87 99q-13 0 -23 -2l-86 -106h-23l-12 115q124 46 207 46q152 0 152 -133v-269l71 -20v-25l-17 -4q-51 -38 -68 -67.5t-17 -61.5
q0 -57 68 -57q15 0 23 2l5 -20q-75 -28 -112 -28zM223 63q33 0 63 17v116q-36 9 -74 9q-34 0 -50 -14.5t-16 -50.5q0 -34 21 -55.5t56 -21.5z" />
    <glyph glyph-name="Cacute" unicode="&#x106;" horiz-adv-x="599" 
d="M251 658l83 181l134 -39l-178 -142h-39zM524 181h30l-29 -160q-97 -37 -193 -37q-137 0 -214 79.5t-77 230.5q0 81 26.5 146t72 105.5t102.5 61.5t122 21q118 0 176 -32l-26 -146h-30l-67 105q-32 12 -87 12q-78 0 -112.5 -57t-35.5 -190q1 -130 52 -201.5t133 -71.5
q41 0 67 6z" />
    <glyph glyph-name="cacute" unicode="&#x107;" horiz-adv-x="429" 
d="M176 508l84 181l134 -39l-178 -142h-40zM351 316l-81 96q-13 4 -42 4q-36 0 -55.5 -32.5t-19.5 -118.5q0 -103 42.5 -149.5t106.5 -46.5q50 0 101 21l12 -32q-67 -46 -101 -60t-81 -14q-85 0 -145.5 55.5t-60.5 164.5q0 127 69 194.5t185 67.5q65 0 115 -21l-22 -129h-23
z" />
    <glyph glyph-name="Ccircumflex" unicode="&#x108;" horiz-adv-x="599" 
d="M393 839l113 -181h-39l-120 89l-119 -89h-39l113 181h91zM524 181h30l-29 -160q-97 -37 -193 -37q-137 0 -214 79.5t-77 230.5q0 81 26.5 146t72 105.5t102.5 61.5t122 21q118 0 176 -32l-26 -146h-30l-67 105q-32 12 -87 12q-78 0 -112.5 -57t-35.5 -190
q1 -130 52 -201.5t133 -71.5q41 0 67 6z" />
    <glyph glyph-name="ccircumflex" unicode="&#x109;" horiz-adv-x="429" 
d="M291 689l113 -181h-39l-120 89l-119 -89h-39l113 181h91zM351 316l-81 96q-13 4 -42 4q-36 0 -55.5 -32.5t-19.5 -118.5q0 -103 42.5 -149.5t106.5 -46.5q50 0 101 21l12 -32q-67 -46 -101 -60t-81 -14q-85 0 -145.5 55.5t-60.5 164.5q0 127 69 194.5t185 67.5
q65 0 115 -21l-22 -129h-23z" />
    <glyph glyph-name="Cdotaccent" unicode="&#x10a;" horiz-adv-x="599" 
d="M262 734q0 22 29.5 50.5t51.5 28.5t55.5 -23t33.5 -45q0 -21 -30.5 -49t-50.5 -28q-22 0 -55.5 23t-33.5 43zM524 181h30l-29 -160q-97 -37 -193 -37q-137 0 -214 79.5t-77 230.5q0 81 26.5 146t72 105.5t102.5 61.5t122 21q118 0 176 -32l-26 -146h-30l-67 105
q-32 12 -87 12q-78 0 -112.5 -57t-35.5 -190q1 -130 52 -201.5t133 -71.5q41 0 67 6z" />
    <glyph glyph-name="cdotaccent" unicode="&#x10b;" horiz-adv-x="429" 
d="M168 578q0 22 29.5 50.5t51.5 28.5t55.5 -23t33.5 -44t-30.5 -49.5t-50.5 -28.5q-22 0 -55.5 23t-33.5 43zM351 316l-81 96q-13 4 -42 4q-36 0 -55.5 -32.5t-19.5 -118.5q0 -103 42.5 -149.5t106.5 -46.5q50 0 101 21l12 -32q-67 -46 -101 -60t-81 -14q-85 0 -145.5 55.5
t-60.5 164.5q0 127 69 194.5t185 67.5q65 0 115 -21l-22 -129h-23z" />
    <glyph glyph-name="Ccaron" unicode="&#x10c;" horiz-adv-x="599" 
d="M506 839l-113 -181h-91l-113 181h39l119 -89l120 89h39zM524 181h30l-29 -160q-97 -37 -193 -37q-137 0 -214 79.5t-77 230.5q0 81 26.5 146t72 105.5t102.5 61.5t122 21q118 0 176 -32l-26 -146h-30l-67 105q-32 12 -87 12q-78 0 -112.5 -57t-35.5 -190
q1 -130 52 -201.5t133 -71.5q41 0 67 6z" />
    <glyph glyph-name="ccaron" unicode="&#x10d;" horiz-adv-x="429" 
d="M414 689l-113 -181h-91l-113 181h39l119 -89l120 89h39zM351 316l-81 96q-13 4 -42 4q-36 0 -55.5 -32.5t-19.5 -118.5q0 -103 42.5 -149.5t106.5 -46.5q50 0 101 21l12 -32q-67 -46 -101 -60t-81 -14q-85 0 -145.5 55.5t-60.5 164.5q0 127 69 194.5t185 67.5
q65 0 115 -21l-22 -129h-23z" />
    <glyph glyph-name="Dcaron" unicode="&#x10e;" horiz-adv-x="686" 
d="M471 839l-113 -181h-91l-113 181h39l119 -89l120 89h39zM342 61q88 0 124.5 48t36.5 177q0 154 -53 216.5t-159 62.5h-42v-493q44 -11 93 -11zM37 0v24l74 34v496l-74 35v23h289q159 0 239 -68.5t80 -215.5q0 -152 -96.5 -240t-254.5 -88h-257z" />
    <glyph glyph-name="dcaron" unicode="&#x10f;" horiz-adv-x="649" 
d="M522 650q6 23 27.5 42t37.5 19q22 0 45 -28t23 -55q0 -34 -19 -72.5t-70 -97.5l-27 6q20 59 20 107q0 40 -37 79zM373 -16h-31v61q-49 -34 -80 -47.5t-70 -13.5q-75 0 -120 54t-45 154q0 126 76.5 200t172.5 74q29 0 66 -5v150l-71 19v26l185 37h31l-12 -123v-506l69 -20
v-25zM263 63q36 0 79 21v292q-37 25 -89 25q-42 0 -65 -34.5t-23 -121.5q0 -182 98 -182z" />
    <glyph glyph-name="Dcroat" unicode="&#x110;" horiz-adv-x="686" 
d="M342 61q88 0 124.5 48t36.5 177q0 154 -53 216.5t-159 62.5h-42v-220h152v-54h-152v-219q44 -11 93 -11zM37 0v24l74 34v233h-73v54h73v209l-74 35v23h289q159 0 239 -68.5t80 -215.5q0 -152 -96.5 -240t-254.5 -88h-257z" />
    <glyph glyph-name="dcroat" unicode="&#x111;" horiz-adv-x="553" 
d="M373 -16h-31v61q-49 -34 -80 -47.5t-70 -13.5q-75 0 -120 54t-45 154q0 126 76.5 200t172.5 74q29 0 66 -5v63h-109v51h109v36l-71 19v26l185 37h31l-12 -118h59v-51h-59v-460l69 -20v-25zM263 63q36 0 79 21v292q-37 25 -89 25q-42 0 -65 -34.5t-23 -121.5
q0 -182 98 -182z" />
    <glyph glyph-name="Emacron" unicode="&#x112;" horiz-adv-x="571" 
d="M453 757v-15l-14 -63h-284v15l14 63h284zM37 0v24l74 34v496l-74 35v23h470l-27 -158h-30l-64 111h-137v-228h74l120 11l-12 -68l-113 9h-69v-242h156l100 134h30l-33 -181h-465z" />
    <glyph glyph-name="emacron" unicode="&#x113;" horiz-adv-x="461" 
d="M401 607v-15l-14 -63h-284v15l14 63h284zM210 411q-31 0 -44 -27t-14 -106h150q0 133 -92 133zM434 65q-72 -49 -107 -65t-84 -16q-95 0 -155.5 57t-60.5 170q0 125 65 190t161 65q86 0 130.5 -48.5t44.5 -127.5q0 -28 -4 -50h-272q3 -90 45.5 -130.5t107.5 -40.5
q60 0 110 28z" />
    <glyph glyph-name="Ebreve" unicode="&#x114;" horiz-adv-x="571" 
d="M300 750q42 0 76 25.5t44 63.5h39q0 -79 -40.5 -130t-128.5 -51q-45 0 -75.5 14.5t-45.5 41.5t-20.5 56t-5.5 69h39q9 -40 41 -64.5t77 -24.5zM37 0v24l74 34v496l-74 35v23h470l-27 -158h-30l-64 111h-137v-228h74l120 11l-12 -68l-113 9h-69v-242h156l100 134h30
l-33 -181h-465z" />
    <glyph glyph-name="ebreve" unicode="&#x115;" horiz-adv-x="461" 
d="M251 600q42 0 76 25.5t44 63.5h39q0 -79 -40.5 -130t-128.5 -51q-45 0 -75.5 14.5t-45.5 41.5t-20.5 56t-5.5 69h39q9 -40 41 -64.5t77 -24.5zM210 411q-31 0 -44 -27t-14 -106h150q0 133 -92 133zM434 65q-72 -49 -107 -65t-84 -16q-95 0 -155.5 57t-60.5 170
q0 125 65 190t161 65q86 0 130.5 -48.5t44.5 -127.5q0 -28 -4 -50h-272q3 -90 45.5 -130.5t107.5 -40.5q60 0 110 28z" />
    <glyph glyph-name="Edotaccent" unicode="&#x116;" horiz-adv-x="571" 
d="M217 734q0 22 29.5 50.5t51.5 28.5t55.5 -23t33.5 -45q0 -21 -30.5 -49t-50.5 -28q-22 0 -55.5 23t-33.5 43zM37 0v24l74 34v496l-74 35v23h470l-27 -158h-30l-64 111h-137v-228h74l120 11l-12 -68l-113 9h-69v-242h156l100 134h30l-33 -181h-465z" />
    <glyph glyph-name="edotaccent" unicode="&#x117;" horiz-adv-x="461" 
d="M160 578q0 22 29.5 50.5t51.5 28.5t55.5 -23t33.5 -44t-30.5 -49.5t-50.5 -28.5q-22 0 -55.5 23t-33.5 43zM210 411q-31 0 -44 -27t-14 -106h150q0 133 -92 133zM434 65q-72 -49 -107 -65t-84 -16q-95 0 -155.5 57t-60.5 170q0 125 65 190t161 65q86 0 130.5 -48.5
t44.5 -127.5q0 -28 -4 -50h-272q3 -90 45.5 -130.5t107.5 -40.5q60 0 110 28z" />
    <glyph glyph-name="Eogonek" unicode="&#x118;" horiz-adv-x="571" 
d="M509 -202q-75 -28 -112 -28q-44 0 -71 21.5t-27 59.5q0 80 150 149h-412v24l74 34v496l-74 35v23h470l-27 -158h-30l-64 111h-137v-228h74l120 11l-12 -68l-113 9h-69v-242h156l100 134h30l-33 -181h-7q-49 -38 -65.5 -66.5t-16.5 -60.5q0 -57 68 -57q15 0 23 2z" />
    <glyph glyph-name="eogonek" unicode="&#x119;" horiz-adv-x="461" 
d="M210 411q-31 0 -44 -27t-14 -106h150q0 133 -92 133zM411 -162q-78 -28 -112 -28q-43 0 -66.5 20t-22.5 52q0 51 69 104q-22 -2 -36 -2q-95 0 -155.5 57t-60.5 170q0 125 65 190t161 65q86 0 130.5 -48.5t44.5 -127.5q0 -28 -4 -50h-272q3 -90 45.5 -130.5t107.5 -40.5
q60 0 110 28l19 -32q-8 -5 -21 -14t-19 -13q-47 -37 -63 -65.5t-16 -59.5q0 -57 68 -57q15 0 23 2z" />
    <glyph glyph-name="Ecaron" unicode="&#x11a;" horiz-adv-x="571" 
d="M463 839l-113 -181h-91l-113 181h39l119 -89l120 89h39zM37 0v24l74 34v496l-74 35v23h470l-27 -158h-30l-64 111h-137v-228h74l120 11l-12 -68l-113 9h-69v-242h156l100 134h30l-33 -181h-465z" />
    <glyph glyph-name="ecaron" unicode="&#x11b;" horiz-adv-x="461" 
d="M411 689l-113 -181h-91l-113 181h39l119 -89l120 89h39zM210 411q-31 0 -44 -27t-14 -106h150q0 133 -92 133zM434 65q-72 -49 -107 -65t-84 -16q-95 0 -155.5 57t-60.5 170q0 125 65 190t161 65q86 0 130.5 -48.5t44.5 -127.5q0 -28 -4 -50h-272q3 -90 45.5 -130.5
t107.5 -40.5q60 0 110 28z" />
    <glyph glyph-name="Gcircumflex" unicode="&#x11c;" horiz-adv-x="634" 
d="M409 839l113 -181h-39l-120 89l-119 -89h-39l113 181h91zM563 235v-200q-93 -51 -223 -51q-141 0 -220 76.5t-79 233.5t92.5 245.5t237.5 88.5q60 0 117 -10t80 -24l-27 -146h-29l-69 104q-47 15 -106 15q-82 0 -118.5 -55t-36.5 -194q0 -134 51.5 -202.5t132.5 -68.5
q44 0 68 4v184l-76 35v23h269v-24z" />
    <glyph glyph-name="gcircumflex" unicode="&#x11d;" horiz-adv-x="477" 
d="M279 689l113 -181h-39l-120 89l-119 -89h-39l113 181h91zM292 311q0 53 -24 82.5t-58 29.5q-35 0 -49 -20.5t-14 -78.5q0 -52 24 -81t57 -29q35 0 49.5 19.5t14.5 77.5zM455 -21q0 -72 -87.5 -136.5t-189.5 -64.5q-86 0 -129 27t-43 70q0 69 118 122q-65 23 -65 72
q0 31 15.5 51.5t57.5 51.5q-106 25 -106 133q0 75 58 118t150 43q86 0 131 -34l140 42l-13 -103h-24l-75 32q21 -33 21 -81q0 -73 -58 -115.5t-149 -42.5q-15 0 -39 2q-22 -19 -22 -36q0 -23 62 -25l115 -6q64 -3 98 -34t34 -86zM238 -140q63 0 102.5 17t39.5 51
q0 47 -82 50l-109 7q-8 0 -20 2q-70 -24 -70 -68q0 -25 35.5 -42t103.5 -17z" />
    <glyph glyph-name="Gbreve" unicode="&#x11e;" horiz-adv-x="634" 
d="M364 750q42 0 76 25.5t44 63.5h39q0 -79 -40.5 -130t-128.5 -51q-45 0 -75.5 14.5t-45.5 41.5t-20.5 56t-5.5 69h39q9 -40 41 -64.5t77 -24.5zM563 235v-200q-93 -51 -223 -51q-141 0 -220 76.5t-79 233.5t92.5 245.5t237.5 88.5q60 0 117 -10t80 -24l-27 -146h-29
l-69 104q-47 15 -106 15q-82 0 -118.5 -55t-36.5 -194q0 -134 51.5 -202.5t132.5 -68.5q44 0 68 4v184l-76 35v23h269v-24z" />
    <glyph glyph-name="gbreve" unicode="&#x11f;" horiz-adv-x="477" 
d="M230 600q42 0 76 25.5t44 63.5h39q0 -79 -40.5 -130t-128.5 -51q-45 0 -75.5 14.5t-45.5 41.5t-20.5 56t-5.5 69h39q9 -40 41 -64.5t77 -24.5zM292 311q0 53 -24 82.5t-58 29.5q-35 0 -49 -20.5t-14 -78.5q0 -52 24 -81t57 -29q35 0 49.5 19.5t14.5 77.5zM455 -21
q0 -72 -87.5 -136.5t-189.5 -64.5q-86 0 -129 27t-43 70q0 69 118 122q-65 23 -65 72q0 31 15.5 51.5t57.5 51.5q-106 25 -106 133q0 75 58 118t150 43q86 0 131 -34l140 42l-13 -103h-24l-75 32q21 -33 21 -81q0 -73 -58 -115.5t-149 -42.5q-15 0 -39 2q-22 -19 -22 -36
q0 -23 62 -25l115 -6q64 -3 98 -34t34 -86zM238 -140q63 0 102.5 17t39.5 51q0 47 -82 50l-109 7q-8 0 -20 2q-70 -24 -70 -68q0 -25 35.5 -42t103.5 -17z" />
    <glyph glyph-name="Gdotaccent" unicode="&#x120;" horiz-adv-x="634" 
d="M277 734q0 22 29.5 50.5t51.5 28.5t55.5 -23t33.5 -45q0 -21 -30.5 -49t-50.5 -28q-22 0 -55.5 23t-33.5 43zM563 235v-200q-93 -51 -223 -51q-141 0 -220 76.5t-79 233.5t92.5 245.5t237.5 88.5q60 0 117 -10t80 -24l-27 -146h-29l-69 104q-47 15 -106 15
q-82 0 -118.5 -55t-36.5 -194q0 -134 51.5 -202.5t132.5 -68.5q44 0 68 4v184l-76 35v23h269v-24z" />
    <glyph glyph-name="gdotaccent" unicode="&#x121;" horiz-adv-x="477" 
d="M148 578q0 22 29.5 50.5t51.5 28.5t55.5 -23t33.5 -44t-30.5 -49.5t-50.5 -28.5q-22 0 -55.5 23t-33.5 43zM292 311q0 53 -24 82.5t-58 29.5q-35 0 -49 -20.5t-14 -78.5q0 -52 24 -81t57 -29q35 0 49.5 19.5t14.5 77.5zM455 -21q0 -72 -87.5 -136.5t-189.5 -64.5
q-86 0 -129 27t-43 70q0 69 118 122q-65 23 -65 72q0 31 15.5 51.5t57.5 51.5q-106 25 -106 133q0 75 58 118t150 43q86 0 131 -34l140 42l-13 -103h-24l-75 32q21 -33 21 -81q0 -73 -58 -115.5t-149 -42.5q-15 0 -39 2q-22 -19 -22 -36q0 -23 62 -25l115 -6q64 -3 98 -34
t34 -86zM238 -140q63 0 102.5 17t39.5 51q0 47 -82 50l-109 7q-8 0 -20 2q-70 -24 -70 -68q0 -25 35.5 -42t103.5 -17z" />
    <glyph glyph-name="Gcommaaccent" unicode="&#x122;" horiz-adv-x="634" 
d="M563 235v-200q-93 -51 -223 -51q-141 0 -220 76.5t-79 233.5t92.5 245.5t237.5 88.5q60 0 117 -10t80 -24l-27 -146h-29l-69 104q-47 15 -106 15q-82 0 -118.5 -55t-36.5 -194q0 -134 51.5 -202.5t132.5 -68.5q44 0 68 4v184l-76 35v23h269v-24zM284 -102q0 18 21.5 38
t39.5 20q19 0 48.5 -22.5t29.5 -48.5q0 -40 -24 -81t-86 -93l-24 16q42 54 42 92q0 23 -23.5 44t-23.5 35z" />
    <glyph glyph-name="gcommaaccent" unicode="&#x123;" horiz-adv-x="477" 
d="M292 569q0 -18 -21.5 -38t-39.5 -20q-19 0 -48.5 22.5t-29.5 48.5q0 82 110 174l24 -16q-42 -54 -42 -92q0 -24 23.5 -44t23.5 -35zM292 311q0 53 -24 82.5t-58 29.5q-35 0 -49 -20.5t-14 -78.5q0 -52 24 -81t57 -29q35 0 49.5 19.5t14.5 77.5zM455 -21
q0 -72 -87.5 -136.5t-189.5 -64.5q-86 0 -129 27t-43 70q0 69 118 122q-65 23 -65 72q0 31 15.5 51.5t57.5 51.5q-106 25 -106 133q0 75 58 118t150 43q86 0 131 -34l140 42l-13 -103h-24l-75 32q21 -33 21 -81q0 -73 -58 -115.5t-149 -42.5q-15 0 -39 2q-22 -19 -22 -36
q0 -23 62 -25l115 -6q64 -3 98 -34t34 -86zM238 -140q63 0 102.5 17t39.5 51q0 47 -82 50l-109 7q-8 0 -20 2q-70 -24 -70 -68q0 -25 35.5 -42t103.5 -17z" />
    <glyph glyph-name="Hcircumflex" unicode="&#x124;" horiz-adv-x="732" 
d="M413 839l113 -181h-39l-120 89l-119 -89h-39l113 181h91zM318 24v-24h-281v24l74 34v496l-74 35v23h281v-24l-69 -34v-209h234v209l-69 35v23h281v-24l-74 -34v-496l74 -34v-24h-281v24l69 34v233h-234v-233z" />
    <glyph glyph-name="hcircumflex" unicode="&#x125;" horiz-adv-x="563" 
d="M187 888l113 -181h-39l-120 89l-119 -89h-39l113 181h91zM257 23v-23h-237v23l58 36v552l-71 19v26l185 37h31l-12 -123v-162q90 58 157 58q55 0 88.5 -30.5t33.5 -83.5v-293l58 -36v-23h-215v23l24 36v238q0 46 -22.5 68t-57.5 22q-36 0 -66 -15v-313z" />
    <glyph glyph-name="Hbar" unicode="&#x126;" horiz-adv-x="732" 
d="M483 345v76h-234v-76h234zM318 24v-24h-281v24l74 34v363h-78v54h78v79l-74 35v23h281v-24l-69 -34v-79h234v79l-69 35v23h281v-24l-74 -34v-79h78v-54h-78v-363l74 -34v-24h-281v24l69 34v233h-234v-233z" />
    <glyph glyph-name="hbar" unicode="&#x127;" horiz-adv-x="563" 
d="M257 23v-23h-237v23l58 36v445h-70v56h70v51l-71 19v26l185 37h31l-12 -123v-10h91v-56h-91v-96q90 58 157 58q55 0 88.5 -30.5t33.5 -83.5v-293l58 -36v-23h-215v23l24 36v238q0 46 -22.5 68t-57.5 22q-36 0 -66 -15v-313z" />
    <glyph glyph-name="Itilde" unicode="&#x128;" horiz-adv-x="360" 
d="M263 766q40 0 70 37l24 -11q-20 -65 -56.5 -95t-69.5 -30q-21 0 -65 15t-63 15q-36 0 -72 -39l-23 11q26 63 59.5 94t63.5 31q21 0 67.5 -14t64.5 -14zM249 554v-496l74 -34v-24h-286v24l74 34v496l-74 35v23h286v-24z" />
    <glyph glyph-name="itilde" unicode="&#x129;" horiz-adv-x="293" 
d="M228 616q40 0 70 37l24 -11q-20 -65 -56.5 -95t-69.5 -30q-21 0 -65 15t-63 15q-36 0 -72 -39l-23 11q26 63 59.5 94t63.5 31q21 0 67.5 -14t64.5 -14zM24 0v23l58 36v311l-65 33v24l167 39h31v-407l64 -36v-23h-255z" />
    <glyph glyph-name="Imacron" unicode="&#x12a;" horiz-adv-x="360" 
d="M329 757v-15l-14 -63h-284v15l14 63h284zM249 554v-496l74 -34v-24h-286v24l74 34v496l-74 35v23h286v-24z" />
    <glyph glyph-name="imacron" unicode="&#x12b;" horiz-adv-x="293" 
d="M296 607v-15l-14 -63h-284v15l14 63h284zM24 0v23l58 36v311l-65 33v24l167 39h31v-407l64 -36v-23h-255z" />
    <glyph glyph-name="Ibreve" unicode="&#x12c;" horiz-adv-x="360" 
d="M179 750q42 0 76 25.5t44 63.5h39q0 -79 -40.5 -130t-128.5 -51q-45 0 -75.5 14.5t-45.5 41.5t-20.5 56t-5.5 69h39q9 -40 41 -64.5t77 -24.5zM249 554v-496l74 -34v-24h-286v24l74 34v496l-74 35v23h286v-24z" />
    <glyph glyph-name="ibreve" unicode="&#x12d;" horiz-adv-x="293" 
d="M146 600q42 0 76 25.5t44 63.5h39q0 -79 -40.5 -130t-128.5 -51q-45 0 -75.5 14.5t-45.5 41.5t-20.5 56t-5.5 69h39q9 -40 41 -64.5t77 -24.5zM24 0v23l58 36v311l-65 33v24l167 39h31v-407l64 -36v-23h-255z" />
    <glyph glyph-name="Iogonek" unicode="&#x12e;" horiz-adv-x="360" 
d="M314 -202q-75 -28 -112 -28q-44 0 -71 21.5t-27 59.5q0 80 150 149h-217v24l74 34v496l-74 35v23h286v-24l-74 -34v-496l74 -34v-24h-23q-49 -38 -65.5 -66.5t-16.5 -60.5q0 -57 68 -57q15 0 23 2z" />
    <glyph glyph-name="iogonek" unicode="&#x12f;" horiz-adv-x="293" 
d="M65 584q0 22 29.5 50.5t50.5 28.5q22 0 55.5 -23t33.5 -45q0 -21 -30 -49t-50 -28q-22 0 -55.5 23t-33.5 43zM262 -202q-75 -28 -112 -28q-44 0 -71 21.5t-27 59.5q0 80 150 149h-178v23l58 36v311l-65 33v24l167 39h31v-407l64 -36v-23h-31q-49 -38 -65.5 -66.5
t-16.5 -60.5q0 -57 68 -57q15 0 23 2z" />
    <glyph glyph-name="Idotaccent" unicode="&#x130;" horiz-adv-x="360" 
d="M95 734q0 22 29.5 50.5t51.5 28.5t55.5 -23t33.5 -45q0 -21 -30.5 -49t-50.5 -28q-22 0 -55.5 23t-33.5 43zM249 554v-496l74 -34v-24h-286v24l74 34v496l-74 35v23h286v-24z" />
    <glyph glyph-name="dotlessi" unicode="&#x131;" horiz-adv-x="293" 
d="M24 0v23l58 36v311l-65 33v24l167 39h31v-407l64 -36v-23h-255z" />
    <glyph glyph-name="IJ" unicode="&#x132;" horiz-adv-x="751" 
d="M249 554v-496l74 -34v-24h-286v24l74 34v496l-74 35v23h286v-24zM410 120l53 -93q28 -1 40.5 17t12.5 67v443l-72 35v23h285v-24l-74 -34v-394q0 -77 -60.5 -126.5t-146.5 -49.5q-47 0 -94 14l27 122h29z" />
    <glyph glyph-name="ij" unicode="&#x133;" horiz-adv-x="567" 
d="M354 584q0 22 29.5 50.5t51.5 28.5t55.5 -23t33.5 -45q0 -21 -30.5 -49t-50.5 -28q-22 0 -55.5 23t-33.5 43zM65 584q0 22 29.5 50.5t50.5 28.5q22 0 55.5 -23t33.5 -45q0 -21 -30 -49t-50 -28q-22 0 -55.5 23t-33.5 43zM24 0v23l58 36v311l-65 33v24l167 39h31v-407
l64 -36v-23h-255zM504 466v-485q0 -94 -58.5 -151.5t-142.5 -57.5q-43 0 -73 9l15 93h23l67 -55q36 -2 36 92v459l-65 33v24l167 39h31z" />
    <glyph glyph-name="Jcircumflex" unicode="&#x134;" horiz-adv-x="391" 
d="M268 839l113 -181h-39l-120 89l-119 -89h-39l113 181h91zM50 120l53 -93q28 -1 40.5 17t12.5 67v443l-72 35v23h285v-24l-74 -34v-394q0 -77 -60.5 -126.5t-146.5 -49.5q-47 0 -94 14l27 122h29z" />
    <glyph glyph-name="jcircumflex" unicode="&#x135;" horiz-adv-x="274" 
d="M190 689l113 -181h-39l-120 89l-119 -89h-39l113 181h91zM211 466v-485q0 -94 -58.5 -151.5t-142.5 -57.5q-43 0 -73 9l15 93h23l67 -55q36 -2 36 92v459l-65 33v24l167 39h31z" />
    <glyph glyph-name="Kcommaaccent" unicode="&#x136;" horiz-adv-x="678" 
d="M674 0h-178l-243 320l247 234l-72 34v24h215v-24l-55 -33l-214 -197l254 -307l46 -27v-24zM249 554v-496l74 -34v-24h-286v24l74 34v496l-74 35v23h286v-24zM288 -102q0 18 21.5 38t39.5 20q19 0 48.5 -22.5t29.5 -48.5q0 -40 -24 -81t-86 -93l-24 16q42 54 42 92
q0 23 -23.5 44t-23.5 35z" />
    <glyph glyph-name="kcommaaccent" unicode="&#x137;" horiz-adv-x="543" 
d="M275 23v-23h-255v23l58 36v552l-71 19v26l185 37h31l-12 -114v-334l165 146h-2l-57 36v23h215v-23l-72 -35l-113 -91l153 -243l48 -35v-23h-165l-129 225l-43 -34v-132zM208 -102q0 18 21.5 38t39.5 20q19 0 48.5 -22.5t29.5 -48.5q0 -40 -24 -81t-86 -93l-24 16
q42 54 42 92q0 23 -23.5 44t-23.5 35z" />
    <glyph glyph-name="Lacute" unicode="&#x139;" horiz-adv-x="544" 
d="M129 658l83 181l134 -39l-178 -142h-39zM37 0v24l74 34v496l-74 35v23h295v-24l-83 -34v-507h143l112 149h29l-34 -196h-462z" />
    <glyph glyph-name="lacute" unicode="&#x13a;" horiz-adv-x="289" 
d="M76 716l84 181l134 -39l-178 -142h-40zM211 579v-520l64 -36v-23h-255v23l58 36v552l-71 19v26l185 37h31z" />
    <glyph glyph-name="Lcommaaccent" unicode="&#x13b;" horiz-adv-x="544" 
d="M37 0v24l74 34v496l-74 35v23h295v-24l-83 -34v-507h143l112 149h29l-34 -196h-462zM219 -102q0 18 21.5 38t39.5 20q19 0 48.5 -22.5t29.5 -48.5q0 -40 -24 -81t-86 -93l-24 16q42 54 42 92q0 23 -23.5 44t-23.5 35z" />
    <glyph glyph-name="lcommaaccent" unicode="&#x13c;" horiz-adv-x="289" 
d="M211 579v-520l64 -36v-23h-255v23l58 36v552l-71 19v26l185 37h31zM72 -102q0 18 21.5 38t39.5 20q19 0 48.5 -22.5t29.5 -48.5q0 -40 -24 -81t-86 -93l-24 16q42 54 42 92q0 23 -23.5 44t-23.5 35z" />
    <glyph glyph-name="Lcaron" unicode="&#x13d;" horiz-adv-x="564" 
d="M437 650q6 23 27.5 42t37.5 19q22 0 45 -28t23 -55q0 -34 -19 -72.5t-70 -97.5l-27 6q20 59 20 107q0 40 -37 79zM37 0v24l74 34v496l-74 35v23h295v-24l-83 -34v-507h143l112 149h29l-34 -196h-462z" />
    <glyph glyph-name="lcaron" unicode="&#x13e;" horiz-adv-x="386" 
d="M258 650q6 23 27.5 42t37.5 19q22 0 45 -28t23 -55q0 -34 -19 -72.5t-70 -97.5l-27 6q20 59 20 107q0 40 -37 79zM211 579v-520l64 -36v-23h-255v23l58 36v552l-71 19v26l185 37h31z" />
    <glyph glyph-name="Ldot" unicode="&#x13f;" horiz-adv-x="550" 
d="M388 326q0 22 29.5 50.5t51.5 28.5t55.5 -23t33.5 -45q0 -21 -30.5 -49t-50.5 -28q-22 0 -55.5 23t-33.5 43zM37 0v24l74 34v496l-74 35v23h295v-24l-83 -34v-507h143l112 149h29l-34 -196h-462z" />
    <glyph glyph-name="ldot" unicode="&#x140;" horiz-adv-x="417" 
d="M211 579v-520l64 -36v-23h-255v23l58 36v552l-71 19v26l185 37h31zM262 279q0 22 29.5 50.5t51.5 28.5t55.5 -23t33.5 -44t-30.5 -49.5t-50.5 -28.5q-22 0 -55.5 23t-33.5 43z" />
    <glyph glyph-name="Lslash" unicode="&#x141;" horiz-adv-x="544" 
d="M37 0v24l74 34v203l-74 -32v51l74 32v242l-74 35v23h295v-24l-83 -34v-183l114 49v-52l-114 -49v-272h143l112 149h29l-34 -196h-462z" />
    <glyph glyph-name="lslash" unicode="&#x142;" horiz-adv-x="289" 
d="M275 0h-255v23l58 36v229l-58 -24v52l58 24v271l-71 19v26l185 37h31l-12 -114v-184l64 27v-51l-64 -27v-285l64 -36v-23z" />
    <glyph glyph-name="Nacute" unicode="&#x143;" horiz-adv-x="698" 
d="M264 658l83 181l134 -39l-178 -142h-39zM596 -7h-62l-319 383l-38 59v-377l86 -34v-24h-235v24l74 34v493l-2 4l-72 34v23h172l281 -339l40 -58v339l-86 34v24h235v-24l-74 -34v-561z" />
    <glyph glyph-name="nacute" unicode="&#x144;" horiz-adv-x="567" 
d="M196 508l84 181l134 -39l-178 -142h-40zM262 23v-23h-238v23l58 36v311l-65 33v24l167 39h31v-58q90 58 157 58q55 0 88.5 -30.5t33.5 -83.5v-293l58 -36v-23h-215v23l24 36v238q0 46 -22.5 68t-57.5 22q-36 0 -66 -15v-313z" />
    <glyph glyph-name="Ncommaaccent" unicode="&#x145;" horiz-adv-x="698" 
d="M596 -7h-62l-319 383l-38 59v-377l86 -34v-24h-235v24l74 34v493l-2 4l-72 34v23h172l281 -339l40 -58v339l-86 34v24h235v-24l-74 -34v-561zM284 -102q0 18 21.5 38t39.5 20q19 0 48.5 -22.5t29.5 -48.5q0 -40 -24 -81t-86 -93l-24 16q42 54 42 92q0 23 -23.5 44
t-23.5 35z" />
    <glyph glyph-name="ncommaaccent" unicode="&#x146;" horiz-adv-x="567" 
d="M262 23v-23h-238v23l58 36v311l-65 33v24l167 39h31v-58q90 58 157 58q55 0 88.5 -30.5t33.5 -83.5v-293l58 -36v-23h-215v23l24 36v238q0 46 -22.5 68t-57.5 22q-36 0 -66 -15v-313zM215 -102q0 18 21.5 38t39.5 20q19 0 48.5 -22.5t29.5 -48.5q0 -40 -24 -81t-86 -93
l-24 16q42 54 42 92q0 23 -23.5 44t-23.5 35z" />
    <glyph glyph-name="Ncaron" unicode="&#x147;" horiz-adv-x="698" 
d="M511 839l-113 -181h-91l-113 181h39l119 -89l120 89h39zM596 -7h-62l-319 383l-38 59v-377l86 -34v-24h-235v24l74 34v493l-2 4l-72 34v23h172l281 -339l40 -58v339l-86 34v24h235v-24l-74 -34v-561z" />
    <glyph glyph-name="ncaron" unicode="&#x148;" horiz-adv-x="567" 
d="M443 689l-113 -181h-91l-113 181h39l119 -89l120 89h39zM262 23v-23h-238v23l58 36v311l-65 33v24l167 39h31v-58q90 58 157 58q55 0 88.5 -30.5t33.5 -83.5v-293l58 -36v-23h-215v23l24 36v238q0 46 -22.5 68t-57.5 22q-36 0 -66 -15v-313z" />
    <glyph glyph-name="Eng" unicode="&#x14a;" horiz-adv-x="698" 
d="M440 -166q-47 0 -80 14l23 103h26l61 -74q51 -2 51 93v38l-308 371l-36 56v-377l86 -34v-24h-235v24l74 34v493l-2 4l-72 34v23h172l284 -343l37 -54v339l-86 35v23h235v-24l-74 -34v-566h-1q-4 -69 -48 -111.5t-107 -42.5z" />
    <glyph glyph-name="eng" unicode="&#x14b;" horiz-adv-x="552" 
d="M292 -228q-46 0 -73 10l16 92h23l67 -55q36 0 36 86v392q0 46 -22.5 68t-57.5 22q-36 0 -66 -15v-313l53 -36v-23h-244v23l58 36v311l-65 33v24l167 39h31v-58q88 58 162 58q51 0 84 -31t33 -83v-371q0 -94 -58.5 -151.5t-143.5 -57.5z" />
    <glyph glyph-name="Omacron" unicode="&#x14c;" horiz-adv-x="689" 
d="M492 757v-15l-14 -63h-284v15l14 63h284zM648 318q0 -85 -27.5 -151t-75 -105t-105.5 -58.5t-124 -19.5q-126 0 -200.5 80.5t-74.5 228.5q0 85 28 150.5t75.5 105t106 59.5t124.5 20q124 0 198.5 -81t74.5 -229zM506 282q0 282 -183 282q-74 0 -106.5 -50.5t-32.5 -183.5
q0 -139 47.5 -209.5t136.5 -70.5q73 0 105.5 51t32.5 181z" />
    <glyph glyph-name="omacron" unicode="&#x14d;" horiz-adv-x="509" 
d="M403 607v-15l-14 -63h-284v15l14 63h284zM482 236q0 -117 -67 -184.5t-185 -67.5q-97 0 -150 58.5t-53 171.5q0 117 68 184.5t185 67.5q96 0 149 -58.5t53 -171.5zM346 216q0 192 -108 192q-43 0 -59 -35t-16 -139q0 -95 28.5 -142.5t78.5 -47.5q45 0 60.5 34t15.5 138z
" />
    <glyph glyph-name="Obreve" unicode="&#x14e;" horiz-adv-x="689" 
d="M348 750q42 0 76 25.5t44 63.5h39q0 -79 -40.5 -130t-128.5 -51q-45 0 -75.5 14.5t-45.5 41.5t-20.5 56t-5.5 69h39q9 -40 41 -64.5t77 -24.5zM648 318q0 -85 -27.5 -151t-75 -105t-105.5 -58.5t-124 -19.5q-126 0 -200.5 80.5t-74.5 228.5q0 85 28 150.5t75.5 105
t106 59.5t124.5 20q124 0 198.5 -81t74.5 -229zM506 282q0 282 -183 282q-74 0 -106.5 -50.5t-32.5 -183.5q0 -139 47.5 -209.5t136.5 -70.5q73 0 105.5 51t32.5 181z" />
    <glyph glyph-name="obreve" unicode="&#x14f;" horiz-adv-x="509" 
d="M253 600q42 0 76 25.5t44 63.5h39q0 -79 -40.5 -130t-128.5 -51q-45 0 -75.5 14.5t-45.5 41.5t-20.5 56t-5.5 69h39q9 -40 41 -64.5t77 -24.5zM482 236q0 -117 -67 -184.5t-185 -67.5q-97 0 -150 58.5t-53 171.5q0 117 68 184.5t185 67.5q96 0 149 -58.5t53 -171.5z
M346 216q0 192 -108 192q-43 0 -59 -35t-16 -139q0 -95 28.5 -142.5t78.5 -47.5q45 0 60.5 34t15.5 138z" />
    <glyph glyph-name="Ohungarumlaut" unicode="&#x150;" horiz-adv-x="689" 
d="M359 658l83 181l134 -39l-178 -142h-39zM197 658l83 181l135 -39l-178 -142h-40zM648 318q0 -85 -27.5 -151t-75 -105t-105.5 -58.5t-124 -19.5q-126 0 -200.5 80.5t-74.5 228.5q0 85 28 150.5t75.5 105t106 59.5t124.5 20q124 0 198.5 -81t74.5 -229zM506 282
q0 282 -183 282q-74 0 -106.5 -50.5t-32.5 -183.5q0 -139 47.5 -209.5t136.5 -70.5q73 0 105.5 51t32.5 181z" />
    <glyph glyph-name="ohungarumlaut" unicode="&#x151;" horiz-adv-x="509" 
d="M266 508l83 181l134 -39l-178 -142h-39zM104 508l83 181l135 -39l-178 -142h-40zM482 236q0 -117 -67 -184.5t-185 -67.5q-97 0 -150 58.5t-53 171.5q0 117 68 184.5t185 67.5q96 0 149 -58.5t53 -171.5zM346 216q0 192 -108 192q-43 0 -59 -35t-16 -139
q0 -95 28.5 -142.5t78.5 -47.5q45 0 60.5 34t15.5 138z" />
    <glyph glyph-name="OE" unicode="&#x152;" horiz-adv-x="906" 
d="M368 53q50 0 78 17v444q-50 47 -123 47q-81 0 -110 -47.5t-29 -183.5q0 -277 184 -277zM837 0h-416q-48 -16 -105 -16q-132 0 -203.5 79.5t-71.5 229.5q0 158 91 246.5t218 88.5q61 0 109 -16h384l-28 -158h-31l-63 111h-136v-228h73l120 11l-12 -68l-112 9h-69v-242h155
l100 134h30z" />
    <glyph glyph-name="oe" unicode="&#x153;" horiz-adv-x="785" 
d="M534 411q-32 0 -45 -26.5t-14 -106.5h150q0 133 -91 133zM346 216q0 192 -108 192q-43 0 -59 -35t-16 -139q0 -95 28.5 -142.5t78.5 -47.5q45 0 60.5 34t15.5 138zM757 65q-69 -48 -105.5 -64.5t-84.5 -16.5q-107 0 -158 74q-63 -74 -167 -74q-106 0 -160.5 58t-54.5 172
q0 116 66 184t175 68q106 0 157 -74q58 74 151 74q86 0 131 -48.5t45 -127.5q0 -22 -5 -50h-272q3 -90 45.5 -130.5t107.5 -40.5q59 0 111 28z" />
    <glyph glyph-name="Racute" unicode="&#x154;" horiz-adv-x="635" 
d="M195 658l83 181l134 -39l-178 -142h-39zM323 321q47 0 68.5 26t21.5 85q0 68 -38 100.5t-126 32.5v-237q27 -7 74 -7zM332 24v-24h-295v24l74 34v496l-74 35v23h270q236 0 236 -146q0 -57 -35.5 -101t-94.5 -69l164 -244l47 -28v-24h-173l-152 271h-12q-16 0 -38 2v-215z
" />
    <glyph glyph-name="racute" unicode="&#x155;" horiz-adv-x="391" 
d="M127 508l84 181l134 -39l-178 -142h-40zM299 23v-23h-275v23l58 36v311l-65 33v24l167 39h31v-67q86 67 129 67q29 0 48 -10l-24 -136h-23l-83 61q-32 -10 -47 -19v-303z" />
    <glyph glyph-name="Rcommaaccent" unicode="&#x156;" horiz-adv-x="635" 
d="M323 321q47 0 68.5 26t21.5 85q0 68 -38 100.5t-126 32.5v-237q27 -7 74 -7zM332 24v-24h-295v24l74 34v496l-74 35v23h270q236 0 236 -146q0 -57 -35.5 -101t-94.5 -69l164 -244l47 -28v-24h-173l-152 271h-12q-16 0 -38 2v-215zM265 -102q0 18 21.5 38t39.5 20
q19 0 48.5 -22.5t29.5 -48.5q0 -40 -24 -81t-86 -93l-24 16q42 54 42 92q0 23 -23.5 44t-23.5 35z" />
    <glyph glyph-name="rcommaaccent" unicode="&#x157;" horiz-adv-x="391" 
d="M299 23v-23h-275v23l58 36v311l-65 33v24l167 39h31v-67q86 67 129 67q29 0 48 -10l-24 -136h-23l-83 61q-32 -10 -47 -19v-303zM117 -102q0 18 21.5 38t39.5 20q19 0 48.5 -22.5t29.5 -48.5q0 -40 -24 -81t-86 -93l-24 16q42 54 42 92q0 23 -23.5 44t-23.5 35z" />
    <glyph glyph-name="Rcaron" unicode="&#x158;" horiz-adv-x="635" 
d="M457 839l-113 -181h-91l-113 181h39l119 -89l120 89h39zM323 321q47 0 68.5 26t21.5 85q0 68 -38 100.5t-126 32.5v-237q27 -7 74 -7zM332 24v-24h-295v24l74 34v496l-74 35v23h270q236 0 236 -146q0 -57 -35.5 -101t-94.5 -69l164 -244l47 -28v-24h-173l-152 271h-12
q-16 0 -38 2v-215z" />
    <glyph glyph-name="rcaron" unicode="&#x159;" horiz-adv-x="391" 
d="M363 689l-113 -181h-91l-113 181h39l119 -89l120 89h39zM299 23v-23h-275v23l58 36v311l-65 33v24l167 39h31v-67q86 67 129 67q29 0 48 -10l-24 -136h-23l-83 61q-32 -10 -47 -19v-303z" />
    <glyph glyph-name="Sacute" unicode="&#x15a;" horiz-adv-x="518" 
d="M162 658l83 181l134 -39l-178 -142h-39zM246 240l-55 24q-146 61 -146 176q0 81 65 134.5t176 53.5q118 0 177 -26l-25 -145h-29l-57 100q-41 16 -108 16q-77 0 -77 -80q0 -39 24 -63t75 -46l55 -23q87 -36 122 -74.5t35 -102.5q0 -90 -75 -145t-191 -55q-110 0 -176 25
l27 149h29l61 -102q55 -16 118 -15q46 1 65.5 20t19.5 61q0 39 -24 65.5t-86 52.5z" />
    <glyph glyph-name="sacute" unicode="&#x15b;" horiz-adv-x="431" 
d="M141 508l84 181l134 -39l-178 -142h-40zM195 168l-28 9q-126 40 -126 142q0 68 54.5 107.5t138.5 39.5q98 0 152 -22l-19 -118h-23l-86 93q-7 3 -33 3q-70 0 -70 -52q0 -27 16.5 -46t62.5 -33l32 -10q73 -23 101.5 -54.5t28.5 -84.5q0 -74 -59 -116t-151 -42
q-87 0 -146 24l18 118h23l82 -94q13 -3 37 -3q79 0 79 59q0 27 -17.5 45.5t-66.5 34.5z" />
    <glyph glyph-name="Scircumflex" unicode="&#x15c;" horiz-adv-x="518" 
d="M313 839l113 -181h-39l-120 89l-119 -89h-39l113 181h91zM246 240l-55 24q-146 61 -146 176q0 81 65 134.5t176 53.5q118 0 177 -26l-25 -145h-29l-57 100q-41 16 -108 16q-77 0 -77 -80q0 -39 24 -63t75 -46l55 -23q87 -36 122 -74.5t35 -102.5q0 -90 -75 -145t-191 -55
q-110 0 -176 25l27 149h29l61 -102q55 -16 118 -15q46 1 65.5 20t19.5 61q0 39 -24 65.5t-86 52.5z" />
    <glyph glyph-name="scircumflex" unicode="&#x15d;" horiz-adv-x="431" 
d="M277 689l113 -181h-39l-120 89l-119 -89h-39l113 181h91zM195 168l-28 9q-126 40 -126 142q0 68 54.5 107.5t138.5 39.5q98 0 152 -22l-19 -118h-23l-86 93q-7 3 -33 3q-70 0 -70 -52q0 -27 16.5 -46t62.5 -33l32 -10q73 -23 101.5 -54.5t28.5 -84.5q0 -74 -59 -116
t-151 -42q-87 0 -146 24l18 118h23l82 -94q13 -3 37 -3q79 0 79 59q0 27 -17.5 45.5t-66.5 34.5z" />
    <glyph glyph-name="Scedilla" unicode="&#x15e;" horiz-adv-x="518" 
d="M187 -238l-11 52q45 0 69.5 3t31.5 7t7 12q0 39 -89 61l35 87h-18q-110 0 -176 25l27 149h29l61 -102q55 -16 118 -15q46 1 65.5 20t19.5 61q0 39 -24 65.5t-86 52.5l-55 24q-146 61 -146 176q0 81 65 134.5t176 53.5q118 0 177 -26l-25 -145h-29l-57 100q-41 16 -108 16
q-77 0 -77 -80q0 -39 24 -63t75 -46l55 -23q87 -36 122 -74.5t35 -102.5q0 -78 -58 -130.5t-152 -65.5l-1 -31q46 -12 67.5 -29.5t21.5 -44.5q0 -37 -40 -71t-129 -50z" />
    <glyph glyph-name="scedilla" unicode="&#x15f;" horiz-adv-x="431" 
d="M137 -238l-11 52q45 0 69.5 3t31.5 7t7 12q0 19 -19.5 31.5t-69.5 24.5l35 92q-86 1 -140 24l18 118h23l82 -94q13 -3 37 -3q79 0 79 59q0 27 -17.5 45.5t-66.5 34.5l-28 9q-126 40 -126 142q0 68 54.5 107.5t138.5 39.5q98 0 152 -22l-19 -118h-23l-86 93q-7 3 -33 3
q-70 0 -70 -52q0 -27 16.5 -46t62.5 -33l32 -10q73 -23 101.5 -54.5t28.5 -84.5q0 -68 -49 -109t-130 -48l-3 -33q49 -13 70.5 -28t21.5 -41q0 -37 -40 -71t-129 -50z" />
    <glyph glyph-name="Scaron" unicode="&#x160;" horiz-adv-x="518" 
d="M420 839l-113 -181h-91l-113 181h39l119 -89l120 89h39zM246 240l-55 24q-146 61 -146 176q0 81 65 134.5t176 53.5q118 0 177 -26l-25 -145h-29l-57 100q-41 16 -108 16q-77 0 -77 -80q0 -39 24 -63t75 -46l55 -23q87 -36 122 -74.5t35 -102.5q0 -90 -75 -145t-191 -55
q-110 0 -176 25l27 149h29l61 -102q55 -16 118 -15q46 1 65.5 20t19.5 61q0 39 -24 65.5t-86 52.5z" />
    <glyph glyph-name="scaron" unicode="&#x161;" horiz-adv-x="431" 
d="M377 689l-113 -181h-91l-113 181h39l119 -89l120 89h39zM195 168l-28 9q-126 40 -126 142q0 68 54.5 107.5t138.5 39.5q98 0 152 -22l-19 -118h-23l-86 93q-7 3 -33 3q-70 0 -70 -52q0 -27 16.5 -46t62.5 -33l32 -10q73 -23 101.5 -54.5t28.5 -84.5q0 -74 -59 -116
t-151 -42q-87 0 -146 24l18 118h23l82 -94q13 -3 37 -3q79 0 79 59q0 27 -17.5 45.5t-66.5 34.5z" />
    <glyph glyph-name="Tcommaaccent" unicode="&#x162;" horiz-adv-x="604" 
d="M457 24v-24h-307v24l84 34v507h-87l-105 -130h-30l31 177h549l-32 -177h-30l-55 130h-102v-507zM233 -102q0 18 21.5 38t39.5 20q19 0 48.5 -22.5t29.5 -48.5q0 -40 -24 -81t-86 -93l-24 16q42 54 42 92q0 23 -23.5 44t-23.5 35z" />
    <glyph glyph-name="tcommaaccent" unicode="&#x163;" horiz-adv-x="364" 
d="M364 49q-62 -37 -93.5 -51t-62.5 -14q-62 0 -99 36t-36 107l7 279h-67v28l168 103h31l-1 -87h44l108 5l-14 -57l-94 8h-45l-4 -256q-1 -85 75 -85q43 0 70 15zM124 -102q0 18 21.5 38t39.5 20q19 0 48.5 -22.5t29.5 -48.5q0 -40 -24 -81t-86 -93l-24 16q42 54 42 92
q0 23 -23.5 44t-23.5 35z" />
    <glyph glyph-name="Tcaron" unicode="&#x164;" horiz-adv-x="604" 
d="M462 839l-113 -181h-91l-113 181h39l119 -89l120 89h39zM457 24v-24h-307v24l84 34v507h-87l-105 -130h-30l31 177h549l-32 -177h-30l-55 130h-102v-507z" />
    <glyph glyph-name="tcaron" unicode="&#x165;" horiz-adv-x="364" 
d="M250 680q6 23 27.5 42t37.5 19q22 0 45 -28t23 -55q0 -34 -19 -72.5t-70 -97.5l-27 6q20 59 20 107q0 40 -37 79zM364 49q-62 -37 -93.5 -51t-62.5 -14q-62 0 -99 36t-36 107l7 279h-67v28l168 103h31l-1 -87h44l108 5l-14 -57l-94 8h-45l-4 -256q-1 -85 75 -85
q43 0 70 15z" />
    <glyph glyph-name="Tbar" unicode="&#x166;" horiz-adv-x="604" 
d="M457 24v-24h-307v24l84 34v221h-140v54h140v232h-87l-105 -130h-30l31 177h549l-32 -177h-30l-55 130h-102v-232h140v-54h-140v-221z" />
    <glyph glyph-name="tbar" unicode="&#x167;" horiz-adv-x="364" 
d="M364 49q-62 -37 -93.5 -51t-62.5 -14q-62 0 -99 36t-36 107l3 112h-61v56h62l3 111h-67v28l168 103h31l-1 -87h44l108 5l-14 -57l-94 8h-45l-2 -111h134v-56h-135l-1 -89q-1 -85 75 -85q43 0 70 15z" />
    <glyph glyph-name="Utilde" unicode="&#x168;" horiz-adv-x="707" 
d="M469 766q40 0 70 37l24 -11q-20 -65 -56.5 -95t-69.5 -30q-21 0 -65 15t-63 15q-36 0 -72 -39l-23 11q26 63 59.5 94t63.5 31q21 0 67.5 -14t64.5 -14zM101 203v351l-74 35v23h287v-24l-74 -34v-313q0 -81 40.5 -124t111.5 -43q73 0 105.5 30t32.5 106v344l-74 34v24h223
v-24l-74 -34v-322q0 -122 -74 -185t-184 -63q-113 0 -179.5 54.5t-66.5 164.5z" />
    <glyph glyph-name="utilde" unicode="&#x169;" horiz-adv-x="563" 
d="M373 616q40 0 70 37l24 -11q-20 -65 -56.5 -95t-69.5 -30q-21 0 -65 15t-63 15q-36 0 -72 -39l-23 11q26 63 59.5 94t63.5 31q21 0 67.5 -14t64.5 -14zM383 -16h-31v58q-87 -58 -160 -58q-52 0 -85.5 30.5t-33.5 83.5v272l-65 32v24l177 40h31l-10 -138v-175
q0 -46 23 -68t58 -22t65 15v292l-60 32v24l172 40h31l-10 -138v-264l69 -20v-25z" />
    <glyph glyph-name="Umacron" unicode="&#x16a;" horiz-adv-x="707" 
d="M533 757v-15l-14 -63h-284v15l14 63h284zM101 203v351l-74 35v23h287v-24l-74 -34v-313q0 -81 40.5 -124t111.5 -43q73 0 105.5 30t32.5 106v344l-74 34v24h223v-24l-74 -34v-322q0 -122 -74 -185t-184 -63q-113 0 -179.5 54.5t-66.5 164.5z" />
    <glyph glyph-name="umacron" unicode="&#x16b;" horiz-adv-x="563" 
d="M441 607v-15l-14 -63h-284v15l14 63h284zM383 -16h-31v58q-87 -58 -160 -58q-52 0 -85.5 30.5t-33.5 83.5v272l-65 32v24l177 40h31l-10 -138v-175q0 -46 23 -68t58 -22t65 15v292l-60 32v24l172 40h31l-10 -138v-264l69 -20v-25z" />
    <glyph glyph-name="Ubreve" unicode="&#x16c;" horiz-adv-x="707" 
d="M383 750q42 0 76 25.5t44 63.5h39q0 -79 -40.5 -130t-128.5 -51q-45 0 -75.5 14.5t-45.5 41.5t-20.5 56t-5.5 69h39q9 -40 41 -64.5t77 -24.5zM101 203v351l-74 35v23h287v-24l-74 -34v-313q0 -81 40.5 -124t111.5 -43q73 0 105.5 30t32.5 106v344l-74 34v24h223v-24
l-74 -34v-322q0 -122 -74 -185t-184 -63q-113 0 -179.5 54.5t-66.5 164.5z" />
    <glyph glyph-name="ubreve" unicode="&#x16d;" horiz-adv-x="563" 
d="M291 600q42 0 76 25.5t44 63.5h39q0 -79 -40.5 -130t-128.5 -51q-45 0 -75.5 14.5t-45.5 41.5t-20.5 56t-5.5 69h39q9 -40 41 -64.5t77 -24.5zM383 -16h-31v58q-87 -58 -160 -58q-52 0 -85.5 30.5t-33.5 83.5v272l-65 32v24l177 40h31l-10 -138v-175q0 -46 23 -68t58 -22
t65 15v292l-60 32v24l172 40h31l-10 -138v-264l69 -20v-25z" />
    <glyph glyph-name="Uring" unicode="&#x16e;" horiz-adv-x="707" 
d="M287 751q0 39 29.5 67t68.5 28q40 0 68 -25t28 -70q0 -37 -29.5 -64.5t-68.5 -27.5q-40 0 -68 24.5t-28 67.5zM348 752q0 -16 10.5 -28t26.5 -12t27 12t11 28q0 17 -11 29t-27 12t-26.5 -12t-10.5 -29zM101 203v351l-74 35v23h287v-24l-74 -34v-313q0 -81 40.5 -124
t111.5 -43q73 0 105.5 30t32.5 106v344l-74 34v24h223v-24l-74 -34v-322q0 -122 -74 -185t-184 -63q-113 0 -179.5 54.5t-66.5 164.5z" />
    <glyph glyph-name="uring" unicode="&#x16f;" horiz-adv-x="563" 
d="M185 601q0 39 29.5 67t68.5 28q40 0 68 -25t28 -70q0 -37 -29.5 -64.5t-68.5 -27.5q-40 0 -68 24.5t-28 67.5zM246 602q0 -16 10.5 -28t26.5 -12t27 12t11 28q0 17 -11 29t-27 12t-26.5 -12t-10.5 -29zM383 -16h-31v58q-87 -58 -160 -58q-52 0 -85.5 30.5t-33.5 83.5v272
l-65 32v24l177 40h31l-10 -138v-175q0 -46 23 -68t58 -22t65 15v292l-60 32v24l172 40h31l-10 -138v-264l69 -20v-25z" />
    <glyph glyph-name="Uhungarumlaut" unicode="&#x170;" horiz-adv-x="707" 
d="M390 658l83 181l134 -39l-178 -142h-39zM228 658l83 181l135 -39l-178 -142h-40zM101 203v351l-74 35v23h287v-24l-74 -34v-313q0 -81 40.5 -124t111.5 -43q73 0 105.5 30t32.5 106v344l-74 34v24h223v-24l-74 -34v-322q0 -122 -74 -185t-184 -63q-113 0 -179.5 54.5
t-66.5 164.5z" />
    <glyph glyph-name="uhungarumlaut" unicode="&#x171;" horiz-adv-x="563" 
d="M294 508l83 181l134 -39l-178 -142h-39zM132 508l83 181l135 -39l-178 -142h-40zM383 -16h-31v58q-87 -58 -160 -58q-52 0 -85.5 30.5t-33.5 83.5v272l-65 32v24l177 40h31l-10 -138v-175q0 -46 23 -68t58 -22t65 15v292l-60 32v24l172 40h31l-10 -138v-264l69 -20v-25z
" />
    <glyph glyph-name="Uogonek" unicode="&#x172;" horiz-adv-x="707" 
d="M355 -230q-44 0 -71 21.5t-27 59.5q0 73 120 134q-10 -1 -30 -1q-113 0 -179.5 54.5t-66.5 164.5v351l-74 35v23h287v-24l-74 -34v-313q0 -81 40.5 -124t111.5 -43q73 0 105.5 30t32.5 106v344l-74 34v24h223v-24l-74 -34v-322q0 -89 -40.5 -147t-108.5 -83
q-51 -38 -68 -67.5t-17 -61.5q0 -57 68 -57q15 0 23 2l5 -20q-75 -28 -112 -28z" />
    <glyph glyph-name="uogonek" unicode="&#x173;" horiz-adv-x="563" 
d="M431 -218q-44 0 -71 21.5t-27 59.5q0 73 123 136l-73 -15h-31v58q-87 -58 -160 -58q-52 0 -85.5 30.5t-33.5 83.5v272l-65 32v24l177 40h31l-10 -138v-175q0 -46 23 -68t58 -22t65 15v292l-60 32v24l172 40h31l-10 -138v-264l69 -20v-25l-22 -5q-51 -38 -68 -67.5
t-17 -61.5q0 -57 68 -57q15 0 23 2l5 -20q-75 -28 -112 -28z" />
    <glyph glyph-name="Wcircumflex" unicode="&#x174;" horiz-adv-x="972" 
d="M565 839l113 -181h-39l-120 89l-119 -89h-39l113 181h91zM741 5l-83 -29l-178 465l-166 -436l-84 -29l-182 580l-44 32v24h273v-24l-84 -34h-1l121 -403l166 461h84l171 -460l117 402h-2l-72 34v24h192v-24l-53 -31z" />
    <glyph glyph-name="wcircumflex" unicode="&#x175;" horiz-adv-x="766" 
d="M472 689l113 -181h-39l-120 89l-119 -89h-39l113 181h91zM595 8l-103 -24l-107 273l-103 -249l-103 -24l-129 408l-48 35v23h264v-23l-65 -36h-1l76 -265l117 324h67l122 -323l74 264l-53 36v23h167v-23l-48 -33z" />
    <glyph glyph-name="Ycircumflex" unicode="&#x176;" horiz-adv-x="582" 
d="M405 839l113 -181h-39l-120 89l-119 -89h-39l113 181h91zM462 0h-287v24l74 34v199l-189 297h-1l-47 34v24h273v-24l-77 -31l153 -232l146 231l-68 32v24h192v-24l-57 -34l-186 -291v-205l74 -34v-24z" />
    <glyph glyph-name="ycircumflex" unicode="&#x177;" horiz-adv-x="501" 
d="M344 689l113 -181h-39l-120 89l-119 -89h-39l113 181h91zM89 -229q-47 0 -73 18l17 94h17l72 -52q35 1 72 37t61 121l-48 -9l-165 411l-43 36v23h265v-23l-71 -36h-1l104 -281l98 281l-59 36v23h173v-23l-49 -35l-152 -388q-56 -233 -218 -233z" />
    <glyph glyph-name="Ydieresis" unicode="&#x178;" horiz-adv-x="582" 
d="M383 725q0 19 26.5 45t45.5 26q21 0 51 -21t30 -41q0 -19 -27 -44.5t-45 -25.5q-21 0 -51 20.5t-30 40.5zM179 725q0 19 27 45t46 26q20 0 50.5 -21t30.5 -41q0 -19 -27.5 -44.5t-45.5 -25.5q-21 0 -51 20.5t-30 40.5zM462 0h-287v24l74 34v199l-189 297h-1l-47 34v24
h273v-24l-77 -31l153 -232l146 231l-68 32v24h192v-24l-57 -34l-186 -291v-205l74 -34v-24z" />
    <glyph glyph-name="Zacute" unicode="&#x179;" horiz-adv-x="550" 
d="M191 658l83 181l134 -39l-178 -142h-39zM507 0h-493v36l348 519h-206l-102 -147h-31l34 204h464v-38l-343 -517h227l109 157h31z" />
    <glyph glyph-name="zacute" unicode="&#x17a;" horiz-adv-x="457" 
d="M141 508l84 181l134 -39l-178 -142h-40zM411 0h-388v35l251 374h-121l-104 -129h-23l28 170h366v-37l-250 -372h135l111 141h22z" />
    <glyph glyph-name="Zdotaccent" unicode="&#x17b;" horiz-adv-x="550" 
d="M204 734q0 22 29.5 50.5t51.5 28.5t55.5 -23t33.5 -45q0 -21 -30.5 -49t-50.5 -28q-22 0 -55.5 23t-33.5 43zM507 0h-493v36l348 519h-206l-102 -147h-31l34 204h464v-38l-343 -517h227l109 157h31z" />
    <glyph glyph-name="zdotaccent" unicode="&#x17c;" horiz-adv-x="457" 
d="M154 578q0 22 29.5 50.5t51.5 28.5t55.5 -23t33.5 -44t-30.5 -49.5t-50.5 -28.5q-22 0 -55.5 23t-33.5 43zM411 0h-388v35l251 374h-121l-104 -129h-23l28 170h366v-37l-250 -372h135l111 141h22z" />
    <glyph glyph-name="Zcaron" unicode="&#x17d;" horiz-adv-x="550" 
d="M436 839l-113 -181h-91l-113 181h39l119 -89l120 89h39zM507 0h-493v36l348 519h-206l-102 -147h-31l34 204h464v-38l-343 -517h227l109 157h31z" />
    <glyph glyph-name="zcaron" unicode="&#x17e;" horiz-adv-x="457" 
d="M388 689l-113 -181h-91l-113 181h39l119 -89l120 89h39zM411 0h-388v35l251 374h-121l-104 -129h-23l28 170h366v-37l-250 -372h135l111 141h22z" />
    <glyph glyph-name="florin" unicode="&#x192;" horiz-adv-x="559" 
d="M64 -235q-38 0 -74 11l14 86h28l60 -49q25 0 32.5 12t13.5 57l70 524h-100v44h106v1q10 75 33 128t55.5 79.5t65 38t69.5 11.5q39 0 68 -9l-16 -90h-22l-67 52q-20 0 -27 -13.5t-13 -60.5l-19 -137h126v-44h-132l-55 -405q-9 -63 -32.5 -110.5t-55 -74t-64 -39
t-64.5 -12.5z" />
    <glyph glyph-name="Acaron" unicode="&#x1cd;" horiz-adv-x="624" 
d="M480 839l-113 -181h-91l-113 181h39l119 -89l120 89h39zM364 258l-84 223l-87 -223h171zM186 24v-24h-192v24l56 34l225 549l87 29l220 -578l48 -34v-24h-274v24l84 34l-58 153h-208l-59 -153z" />
    <glyph glyph-name="acaron" unicode="&#x1ce;" horiz-adv-x="487" 
d="M405 689l-113 -181h-91l-113 181h39l119 -89l120 89h39zM317 -16h-31v63q-85 -63 -140 -63q-45 0 -81 34t-36 84q0 64 69.5 109t187.5 47v56q0 99 -87 99q-13 0 -23 -2l-86 -106h-23l-12 115q124 46 207 46q152 0 152 -133v-269l71 -20v-25zM223 63q33 0 63 17v116
q-36 9 -74 9q-34 0 -50 -14.5t-16 -50.5q0 -34 21 -55.5t56 -21.5z" />
    <glyph glyph-name="AEacute" unicode="&#x1fc;" horiz-adv-x="831" 
d="M402 658l83 181l134 -39l-178 -142h-39zM371 331v215l-142 -215h142zM111 24v-24h-192v24l63 31l337 517l-59 17v23h508l-28 -158h-31l-63 111h-136v-226h73l120 10l-12 -68l-112 10h-69v-244h155l100 134h30l-33 -181h-482v24l91 34v225h-174l-148 -225h2z" />
    <glyph glyph-name="aeacute" unicode="&#x1fd;" horiz-adv-x="721" 
d="M329 508l84 181l134 -39l-178 -142h-40zM411 273v-5h151q0 143 -92 143q-33 0 -45.5 -27t-13.5 -111zM693 65q-68 -47 -105 -64t-85 -17q-114 0 -174 83q-55 -51 -94.5 -67t-82.5 -16q-49 0 -86 34t-37 84q0 66 63.5 111t193.5 53v48q0 49 -21.5 71t-65.5 22
q-14 0 -22 -1l-87 -101h-23l-12 115q126 46 224 46q69 0 105 -54q53 50 128 50q86 0 130.5 -46.5t44.5 -125.5q0 -35 -5 -60h-270q6 -85 47.5 -123t104.5 -38q59 0 111 28zM226 63q43 0 83 38q-22 43 -23 103q-36 9 -75 9q-31 0 -48 -18.5t-17 -52.5q0 -35 22 -57t58 -22z
" />
    <glyph glyph-name="Oslashacute" unicode="&#x1fe;" horiz-adv-x="689" 
d="M267 658l83 181l134 -39l-178 -142h-39zM184 330q0 -127 41 -195l183 401q-35 19 -85 19q-82 0 -110.5 -45t-28.5 -180zM368 59q80 0 109 45t29 178q0 154 -58 221l-188 -410q43 -34 108 -34zM316 -16q-54 0 -99 14l-37 -80h-55l46 99q-130 73 -130 276q0 151 99.5 243
t234.5 92q41 0 72 -7l33 72h55l-40 -87q153 -64 153 -288q0 -101 -48 -179t-122.5 -116.5t-161.5 -38.5z" />
    <glyph glyph-name="oslashacute" unicode="&#x1ff;" horiz-adv-x="509" 
d="M175 508l84 181l134 -39l-178 -142h-40zM163 234q0 -65 14 -110l135 247q-27 37 -74 37q-43 0 -59 -35t-16 -139zM270 44q45 0 60.5 34t15.5 138q0 55 -10 100l-132 -242q26 -30 66 -30zM230 -16q-38 0 -70 9l-36 -65h-54l46 85q-89 55 -89 201q0 115 71 183.5t182 68.5
q42 0 77 -12l37 68h54l-48 -89q82 -56 82 -197q0 -115 -70.5 -183.5t-181.5 -68.5z" />
    <glyph glyph-name="Scommaaccent" unicode="&#x218;" horiz-adv-x="518" 
d="M246 240l-55 24q-146 61 -146 176q0 81 65 134.5t176 53.5q118 0 177 -26l-25 -145h-29l-57 100q-41 16 -108 16q-77 0 -77 -80q0 -39 24 -63t75 -46l55 -23q87 -36 122 -74.5t35 -102.5q0 -90 -75 -145t-191 -55q-110 0 -176 25l27 149h29l61 -102q55 -16 118 -15
q46 1 65.5 20t19.5 61q0 39 -24 65.5t-86 52.5zM188 -102q0 18 21.5 38t39.5 20q19 0 48.5 -22.5t29.5 -48.5q0 -40 -24 -81t-86 -93l-24 16q42 54 42 92q0 23 -23.5 44t-23.5 35z" />
    <glyph glyph-name="scommaaccent" unicode="&#x219;" horiz-adv-x="431" 
d="M195 168l-28 9q-126 40 -126 142q0 68 54.5 107.5t138.5 39.5q98 0 152 -22l-19 -118h-23l-86 93q-7 3 -33 3q-70 0 -70 -52q0 -27 16.5 -46t62.5 -33l32 -10q73 -23 101.5 -54.5t28.5 -84.5q0 -74 -59 -116t-151 -42q-87 0 -146 24l18 118h23l82 -94q13 -3 37 -3
q79 0 79 59q0 27 -17.5 45.5t-66.5 34.5zM149 -102q0 18 21.5 38t39.5 20q19 0 48.5 -22.5t29.5 -48.5q0 -40 -24 -81t-86 -93l-24 16q42 54 42 92q0 23 -23.5 44t-23.5 35z" />
    <glyph glyph-name="uni021A" unicode="&#x21a;" horiz-adv-x="604" 
d="M278 0h-128v24l84 34v507h-87l-105 -130h-30l31 177h549l-32 -177h-30l-55 130h-102v-507l84 -34v-24h-146l-2 -43q46 -12 67.5 -29.5t21.5 -44.5q0 -37 -40 -71t-129 -50l-11 52q45 0 69.5 3t31.5 7t7 12q0 39 -89 61z" />
    <glyph glyph-name="uni021B" unicode="&#x21b;" horiz-adv-x="364" 
d="M291 -117q0 -37 -40 -71t-129 -50l-11 52q45 0 69.5 3t31.5 7t7 12q0 19 -19.5 31.5t-69.5 24.5l37 97q-97 24 -94 138l7 279h-67v28l168 103h31l-1 -87h44l108 5l-14 -57l-94 8h-45l-4 -256q-1 -85 75 -85q43 0 70 15l13 -31q-62 -37 -93.5 -51t-62.5 -14h-6l-3 -32
q49 -13 70.5 -28t21.5 -41z" />
    <glyph glyph-name="circumflex" unicode="&#x2c6;" 
d="M296 689l113 -181h-39l-120 89l-119 -89h-39l113 181h91z" />
    <glyph glyph-name="caron" unicode="&#x2c7;" 
d="M409 689l-113 -181h-91l-113 181h39l119 -89l120 89h39z" />
    <glyph glyph-name="breve" unicode="&#x2d8;" 
d="M249 600q42 0 76 25.5t44 63.5h39q0 -79 -40.5 -130t-128.5 -51q-45 0 -75.5 14.5t-45.5 41.5t-20.5 56t-5.5 69h39q9 -40 41 -64.5t77 -24.5z" />
    <glyph glyph-name="dotaccent" unicode="&#x2d9;" 
d="M165 578q0 22 29.5 50.5t51.5 28.5t55.5 -23t33.5 -44t-30.5 -49.5t-50.5 -28.5q-22 0 -55.5 23t-33.5 43z" />
    <glyph glyph-name="ring" unicode="&#x2da;" 
d="M153 601q0 39 29.5 67t68.5 28q40 0 68 -25t28 -70q0 -37 -29.5 -64.5t-68.5 -27.5q-40 0 -68 24.5t-28 67.5zM214 602q0 -16 10.5 -28t26.5 -12t27 12t11 28q0 17 -11 29t-27 12t-26.5 -12t-10.5 -29z" />
    <glyph glyph-name="ogonek" unicode="&#x2db;" 
d="M145 -149q0 46 45.5 85.5t139.5 78.5l14 -13q-51 -38 -68 -67.5t-17 -61.5q0 -57 68 -57q15 0 23 2l5 -20q-75 -28 -112 -28q-44 0 -71 21.5t-27 59.5z" />
    <glyph glyph-name="tilde" unicode="&#x2dc;" 
d="M331 616q40 0 70 37l24 -11q-20 -65 -56.5 -95t-69.5 -30q-21 0 -65 15t-63 15q-36 0 -72 -39l-23 11q26 63 59.5 94t63.5 31q21 0 67.5 -14t64.5 -14z" />
    <glyph glyph-name="hungarumlaut" unicode="&#x2dd;" 
d="M223 508l83 181l134 -39l-178 -142h-39zM61 508l83 181l135 -39l-178 -142h-40z" />
    <glyph glyph-name="numeralsigngreek" unicode="&#x374;" horiz-adv-x="247" 
d="M90 411l-44 10l36 286l147 -36z" />
    <glyph glyph-name="numeralsignlowergreek" unicode="&#x375;" horiz-adv-x="247" 
d="M46 -161l36 285l147 -35l-139 -261z" />
    <glyph glyph-name="questiongreek" unicode="&#x37e;" horiz-adv-x="247" 
d="M203 342q0 -21 -30 -49.5t-50 -28.5q-22 0 -55 23t-33 44t29.5 49.5t50.5 28.5q22 0 55 -23t33 -44zM30 -160l36 286l146 -36l-139 -261z" />
    <glyph glyph-name="tonos" unicode="&#x384;" 
d="M272 508h-49l25 203l130 -26z" />
    <glyph glyph-name="dieresistonos" unicode="&#x385;" 
d="M259 517h-49l31 203l116 -22zM460 580q0 -19 -23 -42t-41 -23q-20 0 -46 18.5t-26 37.5q0 20 22.5 43.5t41.5 23.5q20 0 46 -19t26 -39zM195 580q0 -19 -22.5 -42t-40.5 -23q-21 0 -47 18.5t-26 37.5q0 20 22.5 43.5t41.5 23.5q20 0 46 -19t26 -39z" />
    <glyph glyph-name="Alphatonos" unicode="&#x386;" horiz-adv-x="624" 
d="M123 508h-40l10 203l130 -26zM364 258l-84 223l-87 -223h171zM186 24v-24h-192v24l56 34l225 549l87 29l220 -578l48 -34v-24h-274v24l84 34l-58 153h-208l-59 -153z" />
    <glyph glyph-name="anoteleia" unicode="&#x387;" horiz-adv-x="247" 
d="M220 351q0 -22 -35.5 -56.5t-58.5 -34.5q-25 0 -63.5 29t-38.5 51q0 23 35 57.5t59 34.5t63 -29t39 -52z" />
    <glyph glyph-name="Epsilontonos" unicode="&#x388;" horiz-adv-x="571" 
d="M-68 508h-40l10 203l130 -26zM37 0v24l74 34v496l-74 35v23h470l-27 -158h-31l-63 111h-137v-223h74l120 10l-12 -68l-113 10h-69v-247h146l110 150h32l-35 -197h-465z" />
    <glyph glyph-name="Etatonos" unicode="&#x389;" horiz-adv-x="732" 
d="M-68 508h-40l10 203l130 -26zM323 24v-24h-286v24l74 34v496l-74 35v23h286v-24l-74 -34v-209h234v209l-74 35v23h286v-24l-74 -34v-496l74 -34v-24h-286v24l74 34v233h-234v-233z" />
    <glyph glyph-name="Iotatonos" unicode="&#x38a;" horiz-adv-x="360" 
d="M-68 508h-40l10 203l130 -26zM323 0h-286v24l74 34v496l-74 35v23h286v-24l-74 -34v-496l74 -34v-24z" />
    <glyph glyph-name="Omicrontonos" unicode="&#x38c;" horiz-adv-x="689" 
d="M28 508h-40l10 203l130 -26zM648 318q0 -85 -27.5 -151t-75 -105t-105.5 -58.5t-124 -19.5q-126 0 -200.5 80.5t-74.5 228.5q0 85 28 150.5t75.5 105t106 59.5t124.5 20q124 0 198.5 -81t74.5 -229zM506 282q0 282 -183 282q-74 0 -106.5 -50.5t-32.5 -183.5
q0 -139 47.5 -209.5t136.5 -70.5q73 0 105.5 51t32.5 181z" />
    <glyph glyph-name="Upsilontonos" unicode="&#x38e;" horiz-adv-x="640" 
d="M-75 508h-40l10 203l130 -26zM477 0h-287v24l74 34v137q0 87 -20 162.5t-60.5 125t-94.5 49.5q-31 0 -62 -21l-15 23q-7 10 -7 14v16q59 60 144 60q107 0 155 -87.5t55 -251.5q13 140 65 239.5t129 99.5q66 0 97 -59l-18 -18q-13 8 -37 8q-49 0 -94 -50.5t-71.5 -134
t-26.5 -176.5v-136l74 -34v-24z" />
    <glyph glyph-name="Omegatonos" unicode="&#x38f;" horiz-adv-x="759" 
d="M41 508h-40l10 203l130 -26zM349 50v-50h-315l-24 195h23l55 -84h115q-123 78 -123 227q0 131 96.5 210.5t229.5 79.5q123 0 195.5 -71.5t72.5 -193.5q0 -146 -123 -252h114l54 84h23l-24 -195h-285v46q61 70 80.5 135t19.5 159q0 107 -50 161t-130 54q-76 0 -108 -40
t-32 -155q0 -107 33.5 -189t102.5 -121z" />
    <glyph glyph-name="iotadieresistonos" unicode="&#x390;" horiz-adv-x="281" 
d="M130 517h-49l31 203l116 -22zM331 580q0 -19 -23 -42t-41 -23q-20 0 -46 18.5t-26 37.5q0 20 22.5 43.5t41.5 23.5q20 0 46 -19t26 -39zM66 580q0 -19 -22.5 -42t-40.5 -23q-21 0 -47 18.5t-26 37.5q0 20 22.5 43.5t41.5 23.5q20 0 46 -19t26 -39zM270 37
q-45 -50 -112 -50q-34 0 -57.5 21t-31.5 55q-6 28 -6 80v299l133 23v-321q0 -49 5 -66q8 -23 35 -23q20 0 34 8v-26z" />
    <glyph glyph-name="Alpha" unicode="&#x391;" horiz-adv-x="624" 
d="M364 258l-84 223l-87 -223h171zM186 24v-24h-192v24l56 34l225 549l87 29l220 -578l48 -34v-24h-274v24l84 34l-58 153h-208l-59 -153z" />
    <glyph glyph-name="Beta" unicode="&#x392;" horiz-adv-x="598" 
d="M293 342q55 0 77 20.5t22 77.5q0 60 -32.5 93t-110.5 33v-220q26 -4 44 -4zM331 52q50 0 71.5 21t21.5 78q0 144 -167 144h-8v-233q35 -10 82 -10zM302 0h-53h-212v24l74 34v496l-74 35v23h291q82 0 139 -36t57 -101q0 -98 -116 -136q149 -28 149 -151q0 -88 -76.5 -138
t-178.5 -50z" />
    <glyph glyph-name="Gamma" unicode="&#x393;" horiz-adv-x="510" 
d="M332 24v-24h-295v23l74 35v496l-74 34v24h465l-38 -196h-26l-58 149h-131v-507z" />
    <glyph glyph-name="Delta" unicode="&#x394;" horiz-adv-x="608" 
d="M596 0h-581l-5 24l245 588l82 24l262 -612zM435 80l-174 409l-163 -409h337z" />
    <glyph glyph-name="Epsilon" unicode="&#x395;" horiz-adv-x="571" 
d="M37 0v24l74 34v496l-74 35v23h470l-27 -158h-31l-63 111h-137v-223h74l120 10l-12 -68l-113 10h-69v-247h146l110 150h32l-35 -197h-465z" />
    <glyph glyph-name="Zeta" unicode="&#x396;" horiz-adv-x="550" 
d="M507 0h-493v36l348 519h-206l-102 -147h-31l34 204h464v-38l-343 -517h227l109 157h31z" />
    <glyph glyph-name="Eta" unicode="&#x397;" horiz-adv-x="732" 
d="M323 24v-24h-286v24l74 34v496l-74 35v23h286v-24l-74 -34v-209h234v209l-74 35v23h286v-24l-74 -34v-496l74 -34v-24h-286v24l74 34v233h-234v-233z" />
    <glyph glyph-name="Theta" unicode="&#x398;" horiz-adv-x="700" 
d="M659 318q0 -85 -28.5 -151t-77 -105t-107 -58.5t-124.5 -19.5q-126 0 -203.5 81t-77.5 228q0 84 28.5 150.5t77.5 105.5t108 59t125 20q125 0 202 -81.5t77 -228.5zM516 282q0 139 -49 210.5t-138 71.5q-76 0 -110.5 -51t-34.5 -183q0 -138 49.5 -209t140.5 -71
q74 0 108 51t34 181zM341 264q-26 0 -53 -3l-31 -41h-32l21 177h34l10 -37q25 -4 61 -4q29 0 58 3l30 40h31l-20 -176h-34l-11 36q-33 5 -64 5z" />
    <glyph glyph-name="Iota" unicode="&#x399;" horiz-adv-x="360" 
d="M323 0h-286v24l74 34v496l-74 35v23h286v-24l-74 -34v-496l74 -34v-24z" />
    <glyph glyph-name="Kappa" unicode="&#x39a;" horiz-adv-x="678" 
d="M674 0h-178l-243 320l247 234l-72 34v24h215v-24l-55 -33l-214 -197l254 -307l46 -27v-24zM249 554v-496l74 -34v-24h-286v24l74 34v496l-74 35v23h286v-24z" />
    <glyph glyph-name="Lambda" unicode="&#x39b;" horiz-adv-x="612" 
d="M198 24v-24h-198v24l56 33l207 555l86 24l220 -579l43 -33v-24h-279v24l92 33l-156 416l-147 -416z" />
    <glyph glyph-name="Mu" unicode="&#x39c;" horiz-adv-x="894" 
d="M240 24v-24h-223v24l74 34l29 496l-74 35v23h228l185 -438l177 438h212v-24l-74 -34l30 -496l74 -34v-24h-287v24l74 34l-18 430l-185 -443l-84 -29l-193 467l-19 -425z" />
    <glyph glyph-name="Nu" unicode="&#x39d;" horiz-adv-x="698" 
d="M596 -7h-62l-319 383l-38 59v-377l86 -34v-24h-235v24l74 34v493l-2 4l-72 34v23h172l281 -339l40 -58v339l-86 34v24h235v-24l-74 -34v-561z" />
    <glyph glyph-name="Xi" unicode="&#x39e;" horiz-adv-x="600" 
d="M508 424l-35 81h-335l-60 -81h-30l36 213h27l42 -25h309l49 25h27v-213h-30zM288 261q-53 0 -111 -5l-25 -54h-31l20 224h30l14 -50q58 -5 120 -5q43 0 113 4l24 53h31l-20 -223h-30l-16 51q-57 5 -119 5zM527 -12l-79 12h-307l-79 -12v187h30l29 -61h360l49 75h30z" />
    <glyph glyph-name="Omicron" unicode="&#x39f;" horiz-adv-x="689" 
d="M648 318q0 -85 -27.5 -151t-75 -105t-105.5 -58.5t-124 -19.5q-126 0 -200.5 80.5t-74.5 228.5q0 85 28 150.5t75.5 105t106 59.5t124.5 20q124 0 198.5 -81t74.5 -229zM506 282q0 282 -183 282q-74 0 -106.5 -50.5t-32.5 -183.5q0 -139 47.5 -209.5t136.5 -70.5
q73 0 105.5 51t32.5 181z" />
    <glyph glyph-name="Pi" unicode="&#x3a0;" horiz-adv-x="734" 
d="M323 24v-24h-286v24l74 34v496l-74 35v23h661v-24l-74 -34v-496l74 -34v-24h-287v24l74 34v500h-236v-500z" />
    <glyph glyph-name="Rho" unicode="&#x3a1;" horiz-adv-x="566" 
d="M313 323q50 0 74.5 22t24.5 77q0 69 -36.5 105t-123.5 36h-3v-233q27 -7 64 -7zM332 24v-24h-295v24l74 34v496l-74 35v23h281q224 0 224 -162q0 -77 -66 -128t-175 -51q-31 0 -52 3v-216z" />
    <glyph glyph-name="Sigma" unicode="&#x3a3;" horiz-adv-x="554" 
d="M542 202l-41 -202h-459l-10 27l225 254l-241 306l10 25h487l-28 -157h-31l-54 109h-193l161 -207v-34l-186 -211h259l66 90h35z" />
    <glyph glyph-name="Tau" unicode="&#x3a4;" horiz-adv-x="604" 
d="M457 24v-24h-307v24l84 34v507h-87l-105 -130h-30l31 177h549l-32 -177h-30l-55 130h-102v-507z" />
    <glyph glyph-name="Upsilon" unicode="&#x3a5;" horiz-adv-x="640" 
d="M477 0h-287v24l74 34v137q0 87 -20 162.5t-60.5 125t-94.5 49.5q-31 0 -62 -21l-15 23q-7 10 -7 14v16q59 60 144 60q107 0 155 -87.5t55 -251.5q13 140 65 239.5t129 99.5q66 0 97 -59l-18 -18q-13 8 -37 8q-49 0 -94 -50.5t-71.5 -134t-26.5 -176.5v-136l74 -34v-24z
" />
    <glyph glyph-name="Phi" unicode="&#x3a6;" horiz-adv-x="769" 
d="M528 0h-286v24l79 31v32q-128 12 -205.5 75t-77.5 167q0 110 76 174.5t207 77.5v34l-79 32v23h286v-24l-79 -31v-33q128 -12 205 -75t77 -167q0 -111 -75.5 -175.5t-206.5 -77.5v-32l79 -32v-23zM174 337q0 -84 39.5 -134t107.5 -65v396q-147 -23 -147 -197zM595 332
q0 84 -39.5 134t-106.5 65v-396q146 23 146 197z" />
    <glyph glyph-name="Chi" unicode="&#x3a7;" horiz-adv-x="657" 
d="M217 0h-211v24l65 34l196 239l-178 257l-58 34v24h292v-24l-73 -34h-1l111 -159l126 159h-1l-71 34v24h211v-24l-66 -34l-168 -205l203 -291l57 -34v-24h-291v24l72 34h1l-134 193l-154 -193h1l71 -34v-24z" />
    <glyph glyph-name="Psi" unicode="&#x3a8;" horiz-adv-x="735" 
d="M506 0h-267v18l67 35v156q-187 15 -211 120q-4 18 -11.5 72t-14.5 80q-12 42 -35 42q-19 0 -34 -12v25q55 58 104 58q32 0 55.5 -23t29.5 -63q18 -149 20 -157q11 -52 30 -75.5t67 -27.5v311l-67 36v17h267v-18l-67 -35v-310q43 7 65.5 31.5t33.5 70.5q5 22 11 80.5
t9 76.5q5 38 25.5 62t50.5 24q46 0 102 -56v-25q-16 11 -35 11q-23 0 -33 -42q-6 -24 -13 -78.5t-13 -74.5q-29 -102 -203 -119v-157l67 -36v-17z" />
    <glyph glyph-name="Omega" unicode="&#x3a9;" horiz-adv-x="759" 
d="M349 50v-50h-315l-24 195h23l55 -84h115q-123 78 -123 227q0 131 96.5 210.5t229.5 79.5q123 0 195.5 -71.5t72.5 -193.5q0 -146 -123 -252h114l54 84h23l-24 -195h-285v46q61 70 80.5 135t19.5 159q0 107 -50 161t-130 54q-76 0 -108 -40t-32 -155q0 -107 33.5 -189
t102.5 -121z" />
    <glyph glyph-name="Iotadieresis" unicode="&#x3aa;" horiz-adv-x="360" 
d="M205 725q0 19 26.5 45t45.5 26q21 0 51 -21t30 -41q0 -19 -27 -44.5t-45 -25.5q-21 0 -51 20.5t-30 40.5zM1 725q0 19 27 45t46 26q20 0 50.5 -21t30.5 -41q0 -19 -27.5 -44.5t-45.5 -25.5q-21 0 -51 20.5t-30 40.5zM323 0h-286v24l74 34v496l-74 35v23h286v-24l-74 -34
v-496l74 -34v-24z" />
    <glyph glyph-name="Upsilondieresis" unicode="&#x3ab;" horiz-adv-x="640" 
d="M363 725q0 19 26.5 45t45.5 26q21 0 51 -21t30 -41q0 -19 -27 -44.5t-45 -25.5q-21 0 -51 20.5t-30 40.5zM159 725q0 19 27 45t46 26q20 0 50.5 -21t30.5 -41q0 -19 -27.5 -44.5t-45.5 -25.5q-21 0 -51 20.5t-30 40.5zM477 0h-287v24l74 34v137q0 87 -20 162.5t-60.5 125
t-94.5 49.5q-31 0 -62 -21l-15 23q-7 10 -7 14v16q59 60 144 60q107 0 155 -87.5t55 -251.5q13 140 65 239.5t129 99.5q66 0 97 -59l-18 -18q-13 8 -37 8q-49 0 -94 -50.5t-71.5 -134t-26.5 -176.5v-136l74 -34v-24z" />
    <glyph glyph-name="alphatonos" unicode="&#x3ac;" horiz-adv-x="542" 
d="M281 508h-49l25 203l130 -26zM253 64q51 0 83 57q-3 31 -3 89q0 30 3 65q-31 125 -97 125q-77 0 -77 -148q0 -101 26.5 -144.5t64.5 -43.5zM422 -13q-32 0 -52 23t-27 62q-69 -88 -138 -88q-77 0 -127 56t-50 159q0 61 22 113.5t55.5 85t70.5 50.5t71 18q76 0 105 -76
q1 6 10 51l124 23q-26 -116 -26 -248q0 -68 6 -113q6 -42 37 -42q17 0 35 8v-25q-51 -57 -116 -57z" />
    <glyph glyph-name="epsilontonos" unicode="&#x3ad;" horiz-adv-x="425" 
d="M248 508h-49l25 203l130 -26zM417 99q-72 -73 -114 -94t-84 -21q-82 0 -133 35t-51 102q0 47 33.5 79.5t96.5 39.5q-120 11 -120 100q0 54 58.5 90t138.5 36q67 0 149 -23l-24 -113h-24l-73 91q-10 5 -25 5q-29 0 -47.5 -20t-18.5 -56q0 -35 18 -57t45 -22q40 0 96 12
l3 -15q6 -32 6 -49v-19l-19 -7q-36 25 -78 25q-37 0 -59 -21.5t-22 -57.5q0 -76 90 -76q73 0 133 61z" />
    <glyph glyph-name="etatonos" unicode="&#x3ae;" horiz-adv-x="552" 
d="M296 508h-49l25 203l130 -26zM489 -228h-34q-1 0 -32 7l-82 22q22 269 22 482q0 105 -74 105q-47 0 -78 -30v-12v-346h-133v329q0 58 -33 58q-25 0 -44 -9v25q64 57 123 57q58 0 79 -59q85 61 154 61q60 0 96 -32.5t36 -98.5v-559z" />
    <glyph glyph-name="iotatonos" unicode="&#x3af;" horiz-adv-x="281" 
d="M143 508h-49l25 203l130 -26zM270 37q-45 -50 -112 -50q-34 0 -57.5 21t-31.5 55q-6 28 -6 80v299l133 23v-321q0 -49 5 -66q8 -23 35 -23q20 0 34 8v-26z" />
    <glyph glyph-name="upsilondieresistonos" unicode="&#x3b0;" horiz-adv-x="518" 
d="M248 517h-49l31 203l116 -22zM449 580q0 -19 -23 -42t-41 -23q-20 0 -46 18.5t-26 37.5q0 20 22.5 43.5t41.5 23.5q20 0 46 -19t26 -39zM184 580q0 -19 -22.5 -42t-40.5 -23q-21 0 -47 18.5t-26 37.5q0 20 22.5 43.5t41.5 23.5q20 0 46 -19t26 -39zM236 -16
q-73 0 -116.5 42.5t-43.5 115.5v186q0 59 -31 59q-27 0 -46 -9v25q53 57 111 57q94 0 94 -114v-188q0 -110 71 -110q83 0 83 168q0 67 -24 123t-64 87l54 37q7 5 16 5h34q108 -62 108 -200q0 -112 -72.5 -198t-173.5 -86z" />
    <glyph glyph-name="alpha" unicode="&#x3b1;" horiz-adv-x="542" 
d="M253 64q51 0 83 57q-3 31 -3 89q0 30 3 65q-31 125 -97 125q-77 0 -77 -148q0 -101 26.5 -144.5t64.5 -43.5zM422 -13q-32 0 -52 23t-27 62q-69 -88 -138 -88q-77 0 -127 56t-50 159q0 61 22 113.5t55.5 85t70.5 50.5t71 18q76 0 105 -76q1 6 10 51l124 23
q-26 -116 -26 -248q0 -68 6 -113q6 -42 37 -42q17 0 35 8v-25q-51 -57 -116 -57z" />
    <glyph glyph-name="beta" unicode="&#x3b2;" horiz-adv-x="542" 
d="M269 50q51 0 79.5 37.5t28.5 109.5q0 63 -24.5 101.5t-69.5 38.5q-29 0 -51 -12v57q50 19 77.5 63.5t27.5 99.5q0 108 -68 108q-47 0 -66 -51t-19 -149q0 -201 7 -375q29 -28 78 -28zM129 -221q-31 -7 -32 -7h-34v658q0 118 67 198.5t170 80.5q82 0 123 -38.5t41 -101.5
q0 -52 -35 -97t-91 -70q72 -6 122.5 -57t50.5 -125q0 -103 -72.5 -169.5t-170.5 -66.5q-32 0 -73 25q4 -86 14 -208z" />
    <glyph glyph-name="gamma" unicode="&#x3b3;" horiz-adv-x="475" 
d="M204 -228h-38q6 97 36 192q-12 92 -44 189t-67 165q-18 35 -32.5 47.5t-31.5 12.5q-21 0 -39 -13v26q57 69 111 69q35 0 60.5 -21.5t47.5 -73.5q50 -127 75 -276l27 60q37 85 37 163q0 76 -52 105l72 49q8 5 16 5h34q30 -41 30 -92q0 -82 -86 -240l-66 -124
q18 -141 18 -215l-80 -21z" />
    <glyph glyph-name="delta" unicode="&#x3b4;" horiz-adv-x="514" 
d="M475 231q0 -103 -67 -175t-166 -72q-100 0 -157.5 56t-57.5 165q0 88 46.5 149.5t126.5 87.5q-74 60 -74 138q0 59 35.5 94t90.5 35q54 0 122 -22.5t117 -55.5l-24 -37q-2 -4 -21 -19l-63 -39q-37 52 -79.5 88t-73.5 36q-26 0 -26 -26q0 -27 25.5 -53.5t86.5 -69.5
q159 -110 159 -280zM258 43q45 0 67.5 44t22.5 113q0 73 -24 118.5t-78 88.5q-44 -26 -64 -69.5t-20 -115.5q0 -179 96 -179z" />
    <glyph glyph-name="epsilon" unicode="&#x3b5;" horiz-adv-x="425" 
d="M417 99q-72 -73 -114 -94t-84 -21q-82 0 -133 35t-51 102q0 47 33.5 79.5t96.5 39.5q-120 11 -120 100q0 54 58.5 90t138.5 36q67 0 149 -23l-24 -113h-24l-73 91q-10 5 -25 5q-29 0 -47.5 -20t-18.5 -56q0 -35 18 -57t45 -22q40 0 96 12l3 -15q6 -32 6 -49v-19l-19 -7
q-36 25 -78 25q-37 0 -59 -21.5t-22 -57.5q0 -76 90 -76q73 0 133 61z" />
    <glyph glyph-name="zeta" unicode="&#x3b6;" horiz-adv-x="347" 
d="M138 -227l-17 31q-8 13 -8 36v78q171 0 171 53q0 20 -29 25l-78 18q-64 14 -103 57t-39 118q0 204 261 399l-79 -7q-89 -8 -132 13.5t-43 63.5q0 26 15.5 44t39.5 26h27q-11 -9 -11 -24q0 -31 63 -31q68 0 153 22l30 -109q-212 -180 -212 -353q0 -88 69 -105l41 -12
q81 -21 81 -109q0 -146 -200 -234z" />
    <glyph glyph-name="eta" unicode="&#x3b7;" horiz-adv-x="552" 
d="M489 -228h-34q-1 0 -32 7l-82 22q22 269 22 482q0 105 -74 105q-47 0 -78 -30v-12v-346h-133v329q0 58 -33 58q-25 0 -44 -9v25q64 57 123 57q58 0 79 -59q85 61 154 61q60 0 96 -32.5t36 -98.5v-559z" />
    <glyph glyph-name="theta" unicode="&#x3b8;" horiz-adv-x="532" 
d="M502 385q0 -170 -73 -285.5t-179 -115.5q-103 0 -160.5 86t-57.5 235q0 170 73 285.5t179 115.5q103 0 160.5 -86t57.5 -235zM259 646q-91 0 -97 -263h211q-4 141 -32 202t-82 61zM276 45q93 0 97 271h-211q3 -146 31 -208.5t83 -62.5z" />
    <glyph glyph-name="iota" unicode="&#x3b9;" horiz-adv-x="281" 
d="M270 37q-45 -50 -112 -50q-34 0 -57.5 21t-31.5 55q-6 28 -6 80v299l133 23v-321q0 -49 5 -66q8 -23 35 -23q20 0 34 8v-26z" />
    <glyph glyph-name="kappa" unicode="&#x3ba;" horiz-adv-x="527" 
d="M418 -13q-29 0 -50 15t-42 50l-87 146l-33 -46v-152h-128v329q0 58 -31 58q-27 0 -46 -9v25q64 57 123 57q40 0 61 -30.5t21 -83.5v-129l84 123q81 120 157 120q35 0 56 -16v-27q0 -10 -5 -16l-44 -59q-20 17 -52 17q-47 0 -83 -50l-7 -9l125 -197q20 -34 51 -34
q20 0 33 10v-26q-23 -36 -46.5 -51t-56.5 -15z" />
    <glyph glyph-name="lambda" unicode="&#x3bb;" horiz-adv-x="501" 
d="M403 -13q-35 0 -60 26.5t-46 87.5q-20 61 -60 246q-74 -212 -110 -347h-113l203 435q-10 40 -16 59q-35 109 -114 109q-35 0 -60 -17v91q38 32 96 32q131 0 178 -156q20 -63 54.5 -205.5t55.5 -207.5q23 -71 57 -71q18 0 35 11v-27q-38 -66 -100 -66z" />
    <glyph glyph-name="uni03BC" unicode="&#x3bc;" horiz-adv-x="556" 
d="M119 -221q-27 -9 -34 -9h-30l12 364v308l133 22v-295q0 -109 66 -109q45 0 81 38q-1 15 -1 44v300l132 23v-321q0 -52 3 -66q5 -23 37 -23q20 0 35 8v-26q-45 -50 -113 -50q-63 0 -86 66q-72 -67 -125 -67q-43 0 -74 21q9 -86 36 -208z" />
    <glyph glyph-name="nu" unicode="&#x3bd;" horiz-adv-x="473" 
d="M188 -16q-46 197 -100 327q-27 67 -61 67q-21 0 -36 -12v26q52 68 99 68q42 0 69 -23t48 -77q39 -96 73 -267l33 68q37 76 37 148q0 77 -56 109l74 48q8 5 16 5h32q31 -47 31 -85q0 -49 -18 -96t-60 -127l-83 -155z" />
    <glyph glyph-name="xi" unicode="&#x3be;" horiz-adv-x="405" 
d="M184 -227l-16 31q-9 12 -9 36v78q173 0 173 40q0 16 -26 23l-132 28q-136 31 -136 137q0 122 143 159q-55 10 -85 43.5t-30 83.5q0 118 172 155l-83 -3q-58 -2 -92.5 18t-34.5 59q0 24 15.5 41.5t38.5 25.5h28q-11 -13 -11 -28q0 -27 62 -27q50 0 158 22l32 -113
q-82 0 -132 -33t-50 -77q0 -27 22.5 -46t69.5 -19q35 0 69 6l9 -31q4 -12 4 -37v-40q-89 -1 -143.5 -33.5t-54.5 -84.5q0 -56 57 -68l114 -24q73 -17 73 -93q0 -150 -205 -229z" />
    <glyph glyph-name="omicron" unicode="&#x3bf;" horiz-adv-x="503" 
d="M477 247q0 -117 -70.5 -190t-175.5 -73q-95 0 -149.5 57t-54.5 162q0 117 70.5 190t176.5 73q95 0 149 -57t54 -162zM162 225q0 -182 100 -182q44 0 61.5 39t17.5 143q0 183 -100 183q-43 0 -61 -39.5t-18 -143.5z" />
    <glyph glyph-name="pi" unicode="&#x3c0;" horiz-adv-x="599" 
d="M446 -13q-58 0 -77 75q-6 24 -6 80v223h-98q13 -43 13 -106t-17 -123.5t-55 -104.5t-90 -44q-24 0 -41 5l-29 139q28 -6 61 -6q93 0 93 123q0 66 -17 117h-27q-37 0 -62.5 -24t-25.5 -58h-42q0 69 36.5 118t106.5 49h420l-31 -85h-74v-221q0 -46 4 -65q6 -24 35 -24
q20 0 35 8v-26q-45 -50 -112 -50z" />
    <glyph glyph-name="rho" unicode="&#x3c1;" horiz-adv-x="510" 
d="M255 50q45 0 67.5 32.5t22.5 115.5q0 206 -105 206q-36 0 -51 -30.5t-15 -111.5q0 -95 4 -188q35 -24 77 -24zM114 -221q-29 -7 -32 -7h-34v473q0 92 63 156.5t165 64.5q95 0 150.5 -57.5t55.5 -158.5q0 -113 -71.5 -189.5t-156.5 -76.5q-37 0 -73 21q5 -100 12 -204z
" />
    <glyph glyph-name="sigma.alt" unicode="&#x3c2;" horiz-adv-x="399" 
d="M331 -34q0 12 -7 18t-29 11l-96 20q-78 17 -126 66.5t-48 139.5q0 104 64.5 174.5t166.5 70.5q62 0 111 -17l-21 -133h-23l-70 95q-13 4 -43 4q-77 0 -77 -132q0 -66 22.5 -99.5t67.5 -44.5l83 -18q79 -19 79 -114q0 -75 -49 -131t-151 -103l-16 31q-9 12 -9 36v78
q171 0 171 48z" />
    <glyph glyph-name="sigma" unicode="&#x3c3;" horiz-adv-x="529" 
d="M162 229q0 -186 96 -186q42 0 58.5 38t16.5 133q0 89 -24.5 136.5t-65.5 47.5q-43 0 -62 -39t-19 -130zM465 225q2 -98 -64 -169.5t-171 -71.5q-90 0 -146.5 54t-56.5 156q0 118 75 191.5t202 73.5h224l-35 -95l-112 17q81 -47 84 -156z" />
    <glyph glyph-name="tau" unicode="&#x3c4;" horiz-adv-x="460" 
d="M263 -12q-68 0 -90 85q-7 30 -7 74q0 103 23 218h-54q-36 0 -61 -24t-25 -58h-43q0 69 36.5 118t106.5 49h305l-31 -85h-136v-220q0 -38 4 -55q7 -36 47 -36q18 0 45 9v-18q-20 -26 -56 -41.5t-64 -15.5z" />
    <glyph glyph-name="upsilon" unicode="&#x3c5;" horiz-adv-x="518" 
d="M236 -16q-73 0 -116.5 42.5t-43.5 115.5v186q0 59 -31 59q-27 0 -46 -9v25q53 57 111 57q94 0 94 -114v-188q0 -110 71 -110q83 0 83 168q0 67 -24 123t-64 87l54 37q7 5 16 5h34q108 -62 108 -200q0 -112 -72.5 -198t-173.5 -86z" />
    <glyph glyph-name="phi" unicode="&#x3c6;" horiz-adv-x="656" 
d="M295 -228h-31v215q-112 7 -175 64.5t-63 150.5q0 88 60.5 159t166.5 105l21 -43q-59 -18 -87.5 -73t-28.5 -129q0 -69 28 -116.5t78 -59.5v203q0 100 49.5 155t127.5 55q85 0 137.5 -56t52.5 -146q0 -112 -72 -183t-176 -84q2 -59 8 -189l-64 -21q-26 -7 -32 -7zM379 284
q0 -102 3 -242q123 25 123 200q0 165 -77 165q-25 0 -37 -28t-12 -95z" />
    <glyph glyph-name="chi" unicode="&#x3c7;" horiz-adv-x="447" 
d="M364 -234q-41 0 -69.5 25.5t-50.5 82.5q-24 68 -56 173q-87 -196 -117 -272h-81l179 333q-40 134 -66 200q-19 47 -35 63t-35 16q-17 0 -33 -13v26q18 27 45.5 43.5t54.5 16.5q43 0 70.5 -25t48.5 -80q7 -18 40 -115q33 66 94 210h77l-153 -268q79 -254 83 -264
q28 -79 65 -79q16 0 33 15v-26q-40 -62 -94 -62z" />
    <glyph glyph-name="psi" unicode="&#x3c8;" horiz-adv-x="659" 
d="M373 -223h-58q0 95 -3 210q-84 6 -146 54.5t-72 127.5q-4 36 -8.5 88.5t-6.5 69.5q-7 60 -39 60q-20 0 -44 -14v25q53 62 100 62t75 -31.5t33 -86.5q2 -21 4 -74.5t6 -84.5q13 -113 97 -134q-5 244 -19 527l59 24q10 2 17 2h33l-19 -556q115 19 115 225q0 93 -31 159
l76 31q10 5 19 5h32q29 -68 29 -176q0 -124 -68.5 -204.5t-173.5 -96.5z" />
    <glyph glyph-name="omega" unicode="&#x3c9;" horiz-adv-x="711" 
d="M447 -16q-75 0 -116 66q-47 -66 -121 -66q-78 0 -130 49t-52 143q0 38 7 70t39 91t92 128l58 -28q-65 -97 -65 -233q0 -69 20.5 -116t54.5 -47q27 0 44 30.5t17 95.5q0 95 -27 133l10 40h34q18 0 42 -3l77 -12q-15 -58 -15 -147q0 -130 67 -130q29 0 49 43.5t20 120.5
q0 148 -93 214l55 38q8 5 16 5h33q113 -63 113 -214q0 -106 -67.5 -188.5t-161.5 -82.5z" />
    <glyph glyph-name="iotadieresis" unicode="&#x3ca;" horiz-adv-x="281" 
d="M146 571q0 19 26.5 45t45.5 26q21 0 51 -21t30 -41q0 -19 -27 -44t-45 -25q-21 0 -51 20.5t-30 39.5zM-58 571q0 19 27 45t46 26q20 0 50.5 -21t30.5 -41q0 -19 -27.5 -44t-45.5 -25q-21 0 -51 20.5t-30 39.5zM270 37q-45 -50 -112 -50q-34 0 -57.5 21t-31.5 55
q-6 28 -6 80v299l133 23v-321q0 -49 5 -66q8 -23 35 -23q20 0 34 8v-26z" />
    <glyph glyph-name="upsilondieresis" unicode="&#x3cb;" horiz-adv-x="518" 
d="M264 571q0 19 26.5 45t45.5 26q21 0 51 -21t30 -41q0 -19 -27 -44t-45 -25q-21 0 -51 20.5t-30 39.5zM60 571q0 19 27 45t46 26q20 0 50.5 -21t30.5 -41q0 -19 -27.5 -44t-45.5 -25q-21 0 -51 20.5t-30 39.5zM236 -16q-73 0 -116.5 42.5t-43.5 115.5v186q0 59 -31 59
q-27 0 -46 -9v25q53 57 111 57q94 0 94 -114v-188q0 -110 71 -110q83 0 83 168q0 67 -24 123t-64 87l54 37q7 5 16 5h34q108 -62 108 -200q0 -112 -72.5 -198t-173.5 -86z" />
    <glyph glyph-name="omicrontonos" unicode="&#x3cc;" horiz-adv-x="503" 
d="M280 508h-49l25 203l130 -26zM477 247q0 -117 -70.5 -190t-175.5 -73q-95 0 -149.5 57t-54.5 162q0 117 70.5 190t176.5 73q95 0 149 -57t54 -162zM162 225q0 -182 100 -182q44 0 61.5 39t17.5 143q0 183 -100 183q-43 0 -61 -39.5t-18 -143.5z" />
    <glyph glyph-name="upsilontonos" unicode="&#x3cd;" horiz-adv-x="518" 
d="M261 508h-49l25 203l130 -26zM236 -16q-73 0 -116.5 42.5t-43.5 115.5v186q0 59 -31 59q-27 0 -46 -9v25q53 57 111 57q94 0 94 -114v-188q0 -110 71 -110q83 0 83 168q0 67 -24 123t-64 87l54 37q7 5 16 5h34q108 -62 108 -200q0 -112 -72.5 -198t-173.5 -86z" />
    <glyph glyph-name="omegatonos" unicode="&#x3ce;" horiz-adv-x="711" 
d="M371 508h-49l25 203l130 -26zM447 -16q-75 0 -116 66q-47 -66 -121 -66q-78 0 -130 49t-52 143q0 38 7 70t39 91t92 128l58 -28q-65 -97 -65 -233q0 -69 20.5 -116t54.5 -47q27 0 44 30.5t17 95.5q0 95 -27 133l10 40h34q18 0 42 -3l77 -12q-15 -58 -15 -147
q0 -130 67 -130q29 0 49 43.5t20 120.5q0 148 -93 214l55 38q8 5 16 5h33q113 -63 113 -214q0 -106 -67.5 -188.5t-161.5 -82.5z" />
    <glyph glyph-name="theta.alt" unicode="&#x3d1;" horiz-adv-x="535" 
d="M300 390q40 0 69 11q-6 108 -40 179.5t-87 71.5q-32 0 -51 -22t-19 -64q0 -79 33.5 -127.5t94.5 -48.5zM246 -16q-129 0 -154 103q-5 20 -11.5 59t-8.5 49q-8 32 -32 32q-13 0 -28 -12v25q53 58 103 58q34 0 57 -20t29 -55q4 -23 8.5 -60.5t8.5 -56.5q6 -31 19 -46.5
t40 -15.5q93 0 93 306q-51 -39 -104 -39q-99 0 -153.5 53t-54.5 152q0 80 57.5 135t144.5 55q105 0 171.5 -81.5t66.5 -226.5q0 -190 -74 -302t-178 -112z" />
    <glyph glyph-name="phi.alt" unicode="&#x3d5;" horiz-adv-x="591" 
d="M318 -223h-59q0 56 -2 210q-107 8 -168 65.5t-61 154.5q0 106 57 172t160 81q-1 18 -2.5 57t-2.5 59l47 20q14 6 22 6h33l-4 -148q103 -1 164 -60t61 -153q0 -113 -64 -178.5t-175 -74.5zM155 223q0 -154 101 -179q-3 202 -9 365q-48 -12 -70 -56t-22 -130zM436 224
q0 162 -100 184l-10 -368q60 7 85 49.5t25 134.5z" />
    <glyph glyph-name="Wgrave" unicode="&#x1e80;" horiz-adv-x="972" 
d="M517 839l83 -181h-39l-178 142zM741 5l-83 -29l-178 465l-166 -436l-84 -29l-182 580l-44 32v24h273v-24l-84 -34h-1l121 -403l166 461h84l171 -460l117 402h-2l-72 34v24h192v-24l-53 -31z" />
    <glyph glyph-name="wgrave" unicode="&#x1e81;" horiz-adv-x="766" 
d="M409 689l83 -181h-39l-178 142zM595 8l-103 -24l-107 273l-103 -249l-103 -24l-129 408l-48 35v23h264v-23l-65 -36h-1l76 -265l117 324h67l122 -323l74 264l-53 36v23h167v-23l-48 -33z" />
    <glyph glyph-name="Wacute" unicode="&#x1e82;" horiz-adv-x="972" 
d="M453 658l83 181l134 -39l-178 -142h-39zM741 5l-83 -29l-178 465l-166 -436l-84 -29l-182 580l-44 32v24h273v-24l-84 -34h-1l121 -403l166 461h84l171 -460l117 402h-2l-72 34v24h192v-24l-53 -31z" />
    <glyph glyph-name="wacute" unicode="&#x1e83;" horiz-adv-x="766" 
d="M368 508l84 181l134 -39l-178 -142h-40zM595 8l-103 -24l-107 273l-103 -249l-103 -24l-129 408l-48 35v23h264v-23l-65 -36h-1l76 -265l117 324h67l122 -323l74 264l-53 36v23h167v-23l-48 -33z" />
    <glyph glyph-name="Wdieresis" unicode="&#x1e84;" horiz-adv-x="972" 
d="M551 725q0 19 26.5 45t45.5 26q21 0 51 -21t30 -41q0 -19 -27 -44.5t-45 -25.5q-21 0 -51 20.5t-30 40.5zM347 725q0 19 27 45t46 26q20 0 50.5 -21t30.5 -41q0 -19 -27.5 -44.5t-45.5 -25.5q-21 0 -51 20.5t-30 40.5zM741 5l-83 -29l-178 465l-166 -436l-84 -29
l-182 580l-44 32v24h273v-24l-84 -34h-1l121 -403l166 461h84l171 -460l117 402h-2l-72 34v24h192v-24l-53 -31z" />
    <glyph glyph-name="wdieresis" unicode="&#x1e85;" horiz-adv-x="766" 
d="M451 571q0 19 26.5 45t45.5 26q21 0 51 -21t30 -41q0 -19 -27 -44t-45 -25q-21 0 -51 20.5t-30 39.5zM247 571q0 19 27 45t46 26q20 0 50.5 -21t30.5 -41q0 -19 -27.5 -44t-45.5 -25q-21 0 -51 20.5t-30 39.5zM595 8l-103 -24l-107 273l-103 -249l-103 -24l-129 408
l-48 35v23h264v-23l-65 -36h-1l76 -265l117 324h67l122 -323l74 264l-53 36v23h167v-23l-48 -33z" />
    <glyph glyph-name="Ygrave" unicode="&#x1ef2;" horiz-adv-x="582" 
d="M363 839l83 -181h-39l-178 142zM462 0h-287v24l74 34v199l-189 297h-1l-47 34v24h273v-24l-77 -31l153 -232l146 231l-68 32v24h192v-24l-57 -34l-186 -291v-205l74 -34v-24z" />
    <glyph glyph-name="ygrave" unicode="&#x1ef3;" horiz-adv-x="501" 
d="M294 689l83 -181h-39l-178 142zM89 -229q-47 0 -73 18l17 94h17l72 -52q35 1 72 37t61 121l-48 -9l-165 411l-43 36v23h265v-23l-71 -36h-1l104 -281l98 281l-59 36v23h173v-23l-49 -35l-152 -388q-56 -233 -218 -233z" />
    <glyph glyph-name="endash" unicode="&#x2013;" horiz-adv-x="443" 
d="M413 298v-15l-14 -63h-369v15l14 63h369z" />
    <glyph glyph-name="emdash" unicode="&#x2014;" horiz-adv-x="683" 
d="M653 298v-15l-14 -63h-609v15l14 63h609z" />
    <glyph glyph-name="quoteleft" unicode="&#x2018;" horiz-adv-x="243" 
d="M200 493q0 -21 -24 -44t-45 -23q-23 0 -57 26.5t-34 55.5q0 94 127 201l28 -19q-36 -45 -48 -64.5t-12 -37.5q0 -21 16.5 -37t32.5 -29.5t16 -28.5z" />
    <glyph glyph-name="quoteright" unicode="&#x2019;" horiz-adv-x="243" 
d="M43 626q0 21 24 44t45 23q23 0 57 -26.5t34 -55.5q0 -94 -127 -201l-28 19q36 45 48 64.5t12 37.5q0 21 -16 37t-32.5 29.5t-16.5 28.5z" />
    <glyph glyph-name="quotesinglbase" unicode="&#x201a;" horiz-adv-x="243" 
d="M43 63q0 21 24 44t45 23q23 0 57 -26.5t34 -55.5q0 -94 -127 -201l-28 19q36 45 48 64.5t12 37.5q0 21 -16 37t-32.5 29.5t-16.5 28.5z" />
    <glyph glyph-name="quotedblleft" unicode="&#x201c;" horiz-adv-x="436" 
d="M396 493q0 -21 -24 -44t-45 -23q-23 0 -57 26.5t-34 55.5q0 94 127 201l28 -19q-36 -45 -48 -64.5t-12 -37.5q0 -21 16.5 -37t32.5 -29.5t16 -28.5zM200 493q0 -21 -24 -44t-45 -23q-23 0 -57 26.5t-34 55.5q0 94 127 201l28 -19q-36 -45 -48 -64.5t-12 -37.5
q0 -21 16.5 -37t32.5 -29.5t16 -28.5z" />
    <glyph glyph-name="quotedblright" unicode="&#x201d;" horiz-adv-x="439" 
d="M239 626q0 21 24 44t45 23q23 0 57 -26.5t34 -55.5q0 -94 -127 -201l-28 19q36 45 48 64.5t12 37.5q0 21 -16 37t-32.5 29.5t-16.5 28.5zM43 626q0 21 24 44t45 23q23 0 57 -26.5t34 -55.5q0 -94 -127 -201l-28 19q36 45 48 64.5t12 37.5q0 21 -16 37t-32.5 29.5
t-16.5 28.5z" />
    <glyph glyph-name="quotedblbase" unicode="&#x201e;" horiz-adv-x="439" 
d="M239 63q0 21 24 44t45 23q23 0 57 -26.5t34 -55.5q0 -94 -127 -201l-28 19q36 45 48 64.5t12 37.5q0 21 -16 37t-32.5 29.5t-16.5 28.5zM43 63q0 21 24 44t45 23q23 0 57 -26.5t34 -55.5q0 -94 -127 -201l-28 19q36 45 48 64.5t12 37.5q0 21 -16 37t-32.5 29.5
t-16.5 28.5z" />
    <glyph glyph-name="dagger" unicode="&#x2020;" horiz-adv-x="524" 
d="M325 285l-36 -409h-54l-36 409l32 171l-180 -32v126l180 -33l-32 176h126l-33 -176l180 33v-126l-180 32z" />
    <glyph glyph-name="daggerdbl" unicode="&#x2021;" horiz-adv-x="524" 
d="M325 285l-33 -172l180 32v-126l-180 33l33 -176h-126l32 176l-180 -33v126l180 -32l-32 172l32 171l-180 -32v126l180 -33l-32 176h126l-33 -176l180 33v-126l-180 32z" />
    <glyph glyph-name="bullet" unicode="&#x2022;" horiz-adv-x="404" 
d="M72 272q0 37 45.5 86.5t77.5 49.5q34 0 86 -40.5t52 -76.5q0 -37 -46 -86t-77 -49q-36 0 -87 40t-51 76z" />
    <glyph glyph-name="ellipsis" unicode="&#x2026;" horiz-adv-x="729" 
d="M521 51q0 21 29.5 49.5t51.5 28.5t55 -23t33 -44t-30 -49.5t-50 -28.5q-22 0 -55.5 23.5t-33.5 43.5zM278 51q0 21 29.5 49.5t51.5 28.5t55 -23t33 -44t-30 -49.5t-50 -28.5q-22 0 -55.5 23.5t-33.5 43.5zM35 51q0 21 29.5 49.5t51.5 28.5t55 -23t33 -44t-30 -49.5
t-50 -28.5q-22 0 -55.5 23.5t-33.5 43.5z" />
    <glyph glyph-name="guilsinglleft" unicode="&#x2039;" horiz-adv-x="313" 
d="M160 252l94 -199l-27 -11l-211 210l211 210l27 -11z" />
    <glyph glyph-name="guilsinglright" unicode="&#x203a;" horiz-adv-x="313" 
d="M153 252l-94 199l27 11l211 -210l-211 -210l-27 11z" />
    <glyph glyph-name="fraction" unicode="&#x2044;" horiz-adv-x="154" 
d="M-95 0l283 638l61 -26l-282 -638z" />
    <glyph glyph-name="Euro" unicode="&#x20ac;" horiz-adv-x="559" 
d="M507 21q-97 -37 -183 -37q-116 0 -178.5 53t-78.5 167h-65v13l13 56h46v21q0 13 2 39h-59v12l11 57h59q29 106 106.5 166t176.5 60q106 0 166 -32l-27 -146h-30l-80 98q-31 9 -66 9q-74 0 -94.5 -30.5t-21.5 -124.5h210v-13l-11 -56h-199v-11q0 -34 1 -49h178v-13
l-13 -56h-158q13 -79 49.5 -115.5t97.5 -36.5q31 0 57 6l90 123h30z" />
    <glyph glyph-name="trademark" unicode="&#x2122;" horiz-adv-x="921" 
d="M291 361v-16h-193v16l51 17v285h-48l-65 -77h-20l20 106h334l-21 -106h-18l-33 77h-57v-285zM517 361v-16h-138v16l45 17l17 281l-45 18v15h147l107 -241l99 235v6h137v-16l-45 -17l19 -281l44 -17v-16h-181v16l44 17l-13 228l-102 -236l-55 -16l-112 253l-12 -229z" />
    <glyph glyph-name="partialdiff" unicode="&#x2202;" horiz-adv-x="533" 
d="M209 -12q-76 0 -127.5 56t-48.5 145q5 109 87 182t222 89q-19 85 -62 131t-102 46q-76 0 -134 -54l-18 22q47 50 102.5 77t102.5 27q121 0 192.5 -103t65.5 -288q-5 -139 -81.5 -234.5t-198.5 -95.5zM264 59q33 0 49 13.5t26 59.5t16 146q3 59 -1 103q-41 12 -66 12
q-44 0 -70 -25t-35 -61t-12 -94q-8 -154 93 -154z" />
    <glyph glyph-name="increment" unicode="&#x2206;" horiz-adv-x="633" 
d="M15 0l290 718h31l282 -718h-603zM459 60l-174 459l-182 -459h356z" />
    <glyph glyph-name="product" unicode="&#x220f;" horiz-adv-x="831" 
d="M334 -198v-22h-275v23l74 40v787l-74 41v22h713v-23l-74 -40v-787l74 -41v-22h-275v23l74 40v807h-311v-807z" />
    <glyph glyph-name="summation" unicode="&#x2211;" horiz-adv-x="674" 
d="M41 -220v18l282 423l-255 452v20h554l-31 -181h-34l-59 137h-263l195 -357l-259 -398h353l92 122h34l-43 -236h-566z" />
    <glyph glyph-name="minus" unicode="&#x2212;" horiz-adv-x="559" 
d="M473 282v-70h-387v70h387z" />
    <glyph glyph-name="radical" unicode="&#x221a;" horiz-adv-x="503" 
d="M269 -136h-63l-170 517l-36 -17v38l134 62l134 -421l171 666h174v-41h-138l-181 -707v-1z" />
    <glyph glyph-name="infinity" unicode="&#x221e;" horiz-adv-x="772" 
d="M557 98q-64 0 -109 25.5t-90 86.5q-50 -59 -92 -85.5t-88 -26.5q-67 0 -111.5 45.5t-44.5 116.5q0 76 56.5 127t135.5 51q65 0 109.5 -25t89.5 -87q50 59 92 85.5t88 26.5q67 0 112 -45.5t45 -116.5q0 -76 -56.5 -127t-136.5 -51zM216 158q59 0 122 81
q-72 103 -98.5 130.5t-64.5 27.5q-33 0 -56 -27t-23 -76q0 -66 33.5 -101t86.5 -35zM597 140q33 0 56 26.5t23 75.5q0 66 -33.5 101t-87.5 35q-58 0 -121 -81q70 -101 97.5 -129t65.5 -28z" />
    <glyph glyph-name="integral" unicode="&#x222b;" horiz-adv-x="346" 
d="M230 518q0 -85 10 -258t10 -259q0 -112 -58.5 -174t-162.5 -62q-27 0 -69 11l16 90h22l88 -54q14 5 19.5 12t9.5 34t4 86q0 88 -10 267t-10 269q0 111 61 169.5t153 58.5q45 0 73 -9l-17 -91h-22l-83 54q-14 -4 -20 -12t-10 -38.5t-4 -93.5z" />
    <glyph glyph-name="approxequal" unicode="&#x2248;" horiz-adv-x="559" 
d="M197 320q-23 0 -38 -11.5t-33 -43.5l-55 34q18 44 52.5 67t75.5 23q33 0 86 -26.5t78 -26.5q24 0 39 11t32 43l54 -28q-19 -49 -52.5 -73.5t-73.5 -24.5q-36 0 -88 28t-77 28zM197 179q-24 0 -38.5 -11t-32.5 -43l-55 32q18 45 53 69.5t75 24.5q33 0 86 -28t78 -28
q24 0 39 11.5t32 43.5l54 -29q-36 -95 -126 -95q-36 0 -88 26.5t-77 26.5z" />
    <glyph glyph-name="notequal" unicode="&#x2260;" horiz-adv-x="559" 
d="M473 152h-217l-70 -152h-73l70 152h-97v69h128l32 68h-160v69h191l61 132h73l-61 -132h123v-69h-154l-32 -68h186v-69z" />
    <glyph glyph-name="lessequal" unicode="&#x2264;" horiz-adv-x="559" 
d="M111 303v50l322 197l35 -54l-278 -167l278 -169l-35 -54zM463 53v-65h-356v65h356z" />
    <glyph glyph-name="greaterequal" unicode="&#x2265;" horiz-adv-x="559" 
d="M448 353v-50l-322 -197l-35 54l278 169l-278 167l35 54zM96 -12v65h356v-65h-356z" />
    <glyph glyph-name="lozenge" unicode="&#x25ca;" horiz-adv-x="520" 
d="M478 324l-217 -383h-10l-209 383l217 383h10zM403 324l-143 266l-144 -266l144 -266z" />
    <glyph glyph-name="commaaccent" unicode="&#xf6c3;" 
d="M181 -102q0 18 21.5 38t39.5 20q19 0 48.5 -22.5t29.5 -48.5q0 -40 -24 -81t-86 -93l-24 16q42 54 42 92q0 23 -23.5 44t-23.5 35z" />
    <glyph glyph-name="Tcedilla" horiz-adv-x="604" 
d="M278 0h-128v24l84 34v507h-87l-105 -130h-30l31 177h549l-32 -177h-30l-55 130h-102v-507l84 -34v-24h-146l-2 -43q46 -12 67.5 -29.5t21.5 -44.5q0 -37 -40 -71t-129 -50l-11 52q45 0 69.5 3t31.5 7t7 12q0 39 -89 61z" />
    <glyph glyph-name="idotaccent" horiz-adv-x="293" 
d="M65 584q0 22 29.5 50.5t50.5 28.5q22 0 55.5 -23t33.5 -45q0 -21 -30 -49t-50 -28q-22 0 -55.5 23t-33.5 43zM24 0v23l58 36v311l-65 33v24l167 39h31v-407l64 -36v-23h-255z" />
    <glyph glyph-name="recordprotect" horiz-adv-x="626" 
d="M43 255q0 122 79 196t191 74q123 0 196.5 -76.5t73.5 -193.5q0 -123 -79 -197t-191 -74q-124 0 -197 76.5t-73 194.5zM101 256q0 -100 61 -159t153 -59q97 0 155 62t58 156q0 101 -60 160t-153 59q-98 0 -156 -62t-58 -157zM339 250q46 0 46 54q0 40 -18 56.5t-66 16.5
v-122q18 -5 38 -5zM351 104v-13h-173v13l40 16v254l-40 17v13h158q125 0 125 -80q0 -48 -40 -75.5t-96 -27.5q-3 0 -11.5 0.5t-12.5 0.5v-102z" />
    <glyph glyph-name="tcedilla" horiz-adv-x="364" 
d="M291 -117q0 -37 -40 -71t-129 -50l-11 52q45 0 69.5 3t31.5 7t7 12q0 19 -19.5 31.5t-69.5 24.5l37 97q-97 24 -94 138l7 279h-67v28l168 103h31l-1 -87h44l108 5l-14 -57l-94 8h-45l-4 -256q-1 -85 75 -85q43 0 70 15l13 -31q-62 -37 -93.5 -51t-62.5 -14h-6l-3 -32
q49 -13 70.5 -28t21.5 -41z" />
    <glyph glyph-name="caron.alt.sc" 
d="M184 500q6 23 27.5 42t37.5 19q22 0 45 -28t23 -55q0 -34 -19 -72.5t-70 -97.5l-27 6q20 59 20 107q0 40 -37 79z" />
    <glyph glyph-name="caron.alt.case" 
d="M184 650q6 23 27.5 42t37.5 19q22 0 45 -28t23 -55q0 -34 -19 -72.5t-70 -97.5l-27 6q20 59 20 107q0 40 -37 79z" />
    <glyph glyph-name="acute.case" 
d="M142 658l83 181l134 -39l-178 -142h-39z" />
    <glyph glyph-name="grave.case" 
d="M275 839l83 -181h-39l-178 142z" />
    <glyph glyph-name="hungarumlaut.case" 
d="M223 658l83 181l134 -39l-178 -142h-39zM61 658l83 181l135 -39l-178 -142h-40z" />
    <glyph glyph-name="circumflex.case" 
d="M296 839l113 -181h-39l-120 89l-119 -89h-39l113 181h91z" />
    <glyph glyph-name="caron.case" 
d="M409 839l-113 -181h-91l-113 181h39l119 -89l120 89h39z" />
    <glyph glyph-name="breve.case" 
d="M249 750q42 0 76 25.5t44 63.5h39q0 -79 -40.5 -130t-128.5 -51q-45 0 -75.5 14.5t-45.5 41.5t-20.5 56t-5.5 69h39q9 -40 41 -64.5t77 -24.5z" />
    <glyph glyph-name="tilde.case" 
d="M331 766q40 0 70 37l24 -11q-20 -65 -56.5 -95t-69.5 -30q-21 0 -65 15t-63 15q-36 0 -72 -39l-23 11q26 63 59.5 94t63.5 31q21 0 67.5 -14t64.5 -14z" />
    <glyph glyph-name="macron.case" 
d="M399 757v-15l-14 -63h-284v15l14 63h284z" />
    <glyph glyph-name="dieresis.case" 
d="M275 725q0 19 26.5 45t45.5 26q21 0 51 -21t30 -41q0 -19 -27 -44.5t-45 -25.5q-21 0 -51 20.5t-30 40.5zM71 725q0 19 27 45t46 26q20 0 50.5 -21t30.5 -41q0 -19 -27.5 -44.5t-45.5 -25.5q-21 0 -51 20.5t-30 40.5z" />
    <glyph glyph-name="dotaccent.case" 
d="M165 734q0 22 29.5 50.5t51.5 28.5t55.5 -23t33.5 -45q0 -21 -30.5 -49t-50.5 -28q-22 0 -55.5 23t-33.5 43z" />
    <glyph glyph-name="ring.case" 
d="M153 751q0 39 29.5 67t68.5 28q40 0 68 -25t28 -70q0 -37 -29.5 -64.5t-68.5 -27.5q-40 0 -68 24.5t-28 67.5zM214 752q0 -16 10.5 -28t26.5 -12t27 12t11 28q0 17 -11 29t-27 12t-26.5 -12t-10.5 -29z" />
    <glyph glyph-name="cedilla.case" 
d="M188 -103l41 103h33l-2 -43q46 -12 67.5 -29.5t21.5 -44.5q0 -37 -40 -71t-129 -50l-11 52q45 0 69.5 3t31.5 7t7 12q0 39 -89 61z" />
    <glyph glyph-name="ogonek.case" 
d="M145 -149q0 46 45.5 85.5t139.5 78.5l14 -13q-51 -38 -68 -67.5t-17 -61.5q0 -57 68 -57q15 0 23 2l5 -20q-75 -28 -112 -28q-44 0 -71 21.5t-27 59.5z" />
    <glyph glyph-name="tonos.case" 
d="M268 508h-40l10 203l130 -26z" />
    <glyph glyph-name="commaaccent.case" 
d="M181 -102q0 18 21.5 38t39.5 20q19 0 48.5 -22.5t29.5 -48.5q0 -40 -24 -81t-86 -93l-24 16q42 54 42 92q0 23 -23.5 44t-23.5 35z" />
    <glyph glyph-name="zero.fit" horiz-adv-x="559" 
d="M524 318q0 -156 -75 -245t-198 -89q-101 0 -158.5 79.5t-57.5 229.5q0 156 75.5 245.5t200.5 89.5q99 0 156 -80t57 -230zM381 284q0 136 -32.5 209.5t-89.5 73.5q-30 0 -47 -19t-25.5 -71t-8.5 -148q0 -135 33.5 -208t91.5 -73q43 0 60.5 48.5t17.5 187.5z" />
    <glyph glyph-name="one.fit" horiz-adv-x="454" 
d="M328 612v-554l82 -34v-24h-345v24l124 34v494l-121 -83l-25 85l208 58h77z" />
    <glyph glyph-name="two.fit" horiz-adv-x="529" 
d="M474 0h-452v37q183 180 243.5 261t60.5 142q0 50 -35 82.5t-91 32.5q-27 0 -43 -2l-82 -126h-28l21 149q147 52 209 52q79 0 131 -44.5t52 -117.5q0 -17 -3 -33t-11 -33t-15.5 -30.5t-25 -33.5t-30 -33.5t-39 -38.5t-44.5 -41t-54 -48.5t-60 -54.5h239l57 82h33z" />
    <glyph glyph-name="three.fit" horiz-adv-x="514" 
d="M208 -16q-98 0 -160 14l2 5l24 129h38l72 -91h15q91 0 119.5 18t28.5 74q0 64 -42.5 104t-108.5 40q-31 0 -49 -2l19 70q26 -4 55 -4q60 0 82.5 19t22.5 69q0 58 -34 91.5t-88 33.5q-15 0 -33 -2l-83 -98h-28l17 122q140 52 188 52q92 0 142.5 -40.5t50.5 -106.5
q0 -51 -33.5 -90t-96.5 -61q75 -11 113.5 -52.5t38.5 -96.5q0 -80 -80 -138.5t-192 -58.5z" />
    <glyph glyph-name="four.fit" horiz-adv-x="559" 
d="M300 193v242l-201 -242h201zM525 104h-86v-104h-139v104h-295v45l394 479h40v-435h109z" />
    <glyph glyph-name="five.fit" horiz-adv-x="531" 
d="M191 -16q-83 0 -141 18l24 126h37l65 -86q104 1 145 19.5t41 68.5q0 137 -230 142l-54 -16l22 342l19 14h273l65 60h32l-34 -180h-307l-6 -107q38 4 64 4q133 0 203.5 -54t70.5 -143q0 -90 -86.5 -149t-202.5 -59z" />
    <glyph glyph-name="six.fit" horiz-adv-x="538" 
d="M503 189q0 -86 -69.5 -145.5t-165.5 -59.5q-104 0 -168.5 67t-64.5 212q0 89 26.5 160.5t70.5 115t97 66.5t110 23q96 0 138 -19l-28 -149h-32l-65 102q-19 5 -62 5q-45 0 -66 -15t-33.5 -70t-12.5 -169q107 44 172 44q69 0 111 -48t42 -120zM299 46q37 0 52.5 23.5
t15.5 79.5q0 140 -110 140q-41 0 -79 -22q4 -123 34.5 -172t86.5 -49z" />
    <glyph glyph-name="seven.fit" horiz-adv-x="519" 
d="M128 0v34l281 458h-283l-58 -84h-33l34 204h426v-38l-215 -573z" />
    <glyph glyph-name="eight.fit" horiz-adv-x="518" 
d="M233 -14q-96 0 -151 39t-55 104q0 49 33.5 91.5t93.5 70.5q-106 62 -106 158q0 77 69 128t165 51q85 0 133 -38t48 -91q0 -96 -119 -139q84 -40 115.5 -79t31.5 -97q0 -78 -72.5 -138t-185.5 -60zM157 505q0 -36 27.5 -62t108.5 -61q61 39 61 92q0 43 -30.5 72t-84.5 29
q-42 0 -62 -19t-20 -51zM282 45q102 0 102 75q0 40 -32 68t-137 73q-3 1 -8.5 3.5t-8.5 3.5q-58 -42 -58 -107q0 -49 38 -82.5t104 -33.5z" />
    <glyph glyph-name="nine.fit" horiz-adv-x="535" 
d="M293 314q37 0 71 25q-3 118 -32.5 172.5t-88.5 54.5q-38 0 -55 -23t-17 -78q0 -70 31.5 -110.5t90.5 -40.5zM171 -16q-51 0 -118 16l21 128h33l96 -83q70 10 114 70t47 180q-111 -57 -162 -57q-72 0 -119.5 46t-47.5 127q0 88 71 152.5t175 64.5q105 0 165.5 -70
t60.5 -206q0 -87 -30.5 -158.5t-79.5 -116.5t-107.5 -69t-118.5 -24z" />
    <glyph glyph-name="zero.osf" horiz-adv-x="527" 
d="M498 266q0 -130 -68.5 -206t-178.5 -76q-101 0 -161.5 63.5t-60.5 195.5q0 131 68.5 206.5t179.5 75.5q101 0 161 -63.5t60 -195.5zM436 237q0 79 -53 120.5t-147 41.5q-78 0 -112.5 -28.5t-34.5 -95.5q0 -80 53 -122t148 -42q77 0 111.5 29t34.5 97z" />
    <glyph glyph-name="one.osf" horiz-adv-x="407" 
d="M300 511v-453l83 -34v-24h-334v24l115 34v393l-127 -84l-25 85l212 59h76z" />
    <glyph glyph-name="two.osf" horiz-adv-x="491" 
d="M425 0h-402v37q160 116 213 181.5t53 127.5q0 46 -31.5 77t-79.5 31h-7.5h-8h-6.5l-83 -128h-28l15 147q138 52 186 52q80 0 128.5 -41.5t48.5 -104.5q0 -66 -64 -132.5t-185 -148.5h184l64 88h33z" />
    <glyph glyph-name="three.osf" horiz-adv-x="479" 
d="M183 -118q-97 0 -159 14l2 5l26 147h38l58 -110h25q88 0 116.5 24.5t28.5 84.5q0 63 -39 99t-108 36q-31 0 -49 -2l17 69q26 -4 55 -4q61 0 82 20t21 72q0 54 -32.5 84t-85.5 30q-9 0 -27 -2l-81 -118h-28l21 142q136 52 174 52q93 0 141.5 -36.5t48.5 -106.5
q0 -49 -33 -87t-95 -60q77 -11 114 -51t37 -100q0 -77 -78 -139.5t-190 -62.5z" />
    <glyph glyph-name="four.osf" horiz-adv-x="525" 
d="M280 89v238l-183 -238h183zM492 0h-76v-102h-136v102h-280v44l376 481h40v-436h99z" />
    <glyph glyph-name="five.osf" horiz-adv-x="468" 
d="M163 -118q-81 0 -139 15l24 133h37l63 -90l-3 -1q99 0 138 23t39 76q0 69 -54.5 101.5t-165.5 34.5l-53 -17l21 340l19 14h260l66 60h32l-34 -180h-295l-6 -105q33 5 75 5q122 0 187.5 -51t65.5 -134q0 -85 -83.5 -154.5t-193.5 -69.5z" />
    <glyph glyph-name="six.osf" horiz-adv-x="520" 
d="M496 189q0 -86 -69.5 -145.5t-165.5 -59.5q-104 0 -168.5 67t-64.5 212q0 89 26.5 160.5t70.5 115t97 66.5t110 23q96 0 138 -19l-28 -149h-32l-65 102q-19 5 -62 5q-45 0 -66 -15t-33.5 -70t-12.5 -169q107 44 172 44q69 0 111 -48t42 -120zM292 46q37 0 52.5 23.5
t15.5 79.5q0 140 -110 140q-41 0 -79 -22q4 -123 34.5 -172t86.5 -49z" />
    <glyph glyph-name="seven.osf" horiz-adv-x="481" 
d="M263 -102h-160v22l274 471h-277l-58 -84h-33l34 204h426v-38z" />
    <glyph glyph-name="eight.osf" horiz-adv-x="492" 
d="M222 -16q-91 0 -145.5 45.5t-54.5 103.5q0 100 112 160q-88 60 -88 150q0 79 62 132t155 53q80 0 129.5 -39t49.5 -91q0 -86 -109 -142q77 -39 107 -80.5t30 -92.5q0 -75 -69 -137t-179 -62zM141 503q0 -39 27 -63.5t109 -59.5q56 38 56 88q0 47 -31 74.5t-87 27.5
q-74 0 -74 -67zM275 51q94 0 94 72q0 39 -32 66t-136 69q-3 1 -8.5 3.5t-8.5 3.5q-49 -38 -49 -97q0 -49 37.5 -83t102.5 -34z" />
    <glyph glyph-name="nine.osf" horiz-adv-x="523" 
d="M281 211q37 0 71 25q-3 118 -32.5 172.5t-88.5 54.5q-38 0 -55 -23t-17 -78q0 -70 31.5 -110.5t90.5 -40.5zM159 -119q-51 0 -118 16l21 128h33l96 -83q70 10 114 70t47 180q-111 -57 -162 -57q-72 0 -119.5 46t-47.5 127q0 88 71 152.5t175 64.5q105 0 165.5 -70
t60.5 -206q0 -87 -30.5 -158.5t-79.5 -116.5t-107.5 -69t-118.5 -24z" />
    <glyph glyph-name="zero.tosf" horiz-adv-x="523" 
d="M497 266q0 -130 -68.5 -206t-178.5 -76q-101 0 -161.5 63.5t-60.5 195.5q0 131 68.5 206.5t179.5 75.5q101 0 161 -63.5t60 -195.5zM435 237q0 79 -53 120.5t-147 41.5q-78 0 -112.5 -28.5t-34.5 -95.5q0 -80 53 -122t148 -42q77 0 111.5 29t34.5 97z" />
    <glyph glyph-name="one.tosf" horiz-adv-x="523" 
d="M358 511v-453l83 -34v-24h-334v24l115 34v393l-127 -84l-25 85l212 59h76z" />
    <glyph glyph-name="two.tosf" horiz-adv-x="523" 
d="M451 0h-402v37q160 116 213 181.5t53 127.5q0 46 -31.5 77t-79.5 31h-22l-83 -128h-28l15 147q138 52 186 52q80 0 128.5 -41.5t48.5 -104.5q0 -66 -64 -132.5t-185 -148.5h184l64 88h33z" />
    <glyph glyph-name="three.tosf" horiz-adv-x="523" 
d="M200 -118q-97 0 -159 14l2 5l26 147h38l58 -110h25q88 0 116.5 24.5t28.5 84.5q0 63 -39 99t-108 36q-31 0 -49 -2l17 69q26 -4 55 -4q61 0 82 20t21 72q0 54 -32.5 84t-85.5 30q-9 0 -27 -2l-81 -118h-28l21 142q136 52 174 52q93 0 141.5 -36.5t48.5 -106.5
q0 -49 -33 -87t-95 -60q77 -11 114 -51t37 -100q0 -77 -78 -139.5t-190 -62.5z" />
    <glyph glyph-name="four.tosf" horiz-adv-x="523" 
d="M280 89v238l-183 -238h183zM492 0h-76v-102h-136v102h-280v44l376 481h40v-436h99z" />
    <glyph glyph-name="five.tosf" horiz-adv-x="523" 
d="M181 -118q-81 0 -139 15l24 133h37l63 -90l-3 -1q99 0 138 23t39 76q0 69 -54.5 101.5t-165.5 34.5l-53 -17l21 340l19 14h260l66 60h32l-34 -180h-295l-6 -105q33 5 75 5q122 0 187.5 -51t65.5 -134q0 -85 -83.5 -154.5t-193.5 -69.5z" />
    <glyph glyph-name="six.tosf" horiz-adv-x="523" 
d="M494 189q0 -86 -69.5 -145.5t-165.5 -59.5q-104 0 -168.5 67t-64.5 212q0 89 26.5 160.5t70.5 115t97 66.5t110 23q96 0 138 -19l-28 -149h-32l-65 102q-19 5 -62 5q-45 0 -66 -15t-33.5 -70t-12.5 -169q107 44 172 44q69 0 111 -48t42 -120zM290 46q37 0 52.5 23.5
t15.5 79.5q0 140 -110 140q-41 0 -79 -22q4 -123 34.5 -172t86.5 -49z" />
    <glyph glyph-name="seven.tosf" horiz-adv-x="523" 
d="M283 -102h-160v22l274 471h-277l-58 -84h-33l34 204h426v-38z" />
    <glyph glyph-name="eight.tosf" horiz-adv-x="523" 
d="M237 -16q-91 0 -145.5 45.5t-54.5 103.5q0 100 112 160q-88 60 -88 150q0 79 62 132t155 53q80 0 129.5 -39t49.5 -91q0 -86 -109 -142q77 -39 107 -80.5t30 -92.5q0 -75 -69 -137t-179 -62zM156 503q0 -39 27 -63.5t109 -59.5q56 38 56 88q0 47 -31 74.5t-87 27.5
q-74 0 -74 -67zM290 51q94 0 94 72q0 39 -32 66t-136 69q-3 1 -8.5 3.5t-8.5 3.5q-49 -38 -49 -97q0 -49 37.5 -83t102.5 -34z" />
    <glyph glyph-name="nine.tosf" horiz-adv-x="523" 
d="M283 211q37 0 71 25q-3 118 -32.5 172.5t-88.5 54.5q-38 0 -55 -23t-17 -78q0 -70 31.5 -110.5t90.5 -40.5zM161 -119q-51 0 -118 16l21 128h33l96 -83q70 10 114 70t47 180q-111 -57 -162 -57q-72 0 -119.5 46t-47.5 127q0 88 71 152.5t175 64.5q105 0 165.5 -70
t60.5 -206q0 -87 -30.5 -158.5t-79.5 -116.5t-107.5 -69t-118.5 -24z" />
    <glyph glyph-name="caron.alt" 
d="M184 650q6 23 27.5 42t37.5 19q22 0 45 -28t23 -55q0 -34 -19 -72.5t-70 -97.5l-27 6q20 59 20 107q0 40 -37 79z" />
    <glyph glyph-name="A.sc" horiz-adv-x="560" 
d="M318 213l-66 178l-72 -178h138zM175 0h-170v22l46 26l199 459l81 26l186 -485l38 -26v-22h-252v22l74 26h1l-44 122h-172l-50 -123l63 -25v-22z" />
    <glyph glyph-name="Agrave.sc" horiz-adv-x="560" 
d="M296 721l78 -182h-40l-172 142zM318 213l-66 178l-72 -178h138zM175 0h-170v22l46 26l199 459l81 26l186 -485l38 -26v-22h-252v22l74 26h1l-44 122h-172l-50 -123l63 -25v-22z" />
    <glyph glyph-name="Aacute.sc" horiz-adv-x="560" 
d="M225 539l78 182l134 -40l-172 -142h-40zM318 213l-66 178l-72 -178h138zM175 0h-170v22l46 26l199 459l81 26l186 -485l38 -26v-22h-252v22l74 26h1l-44 122h-172l-50 -123l63 -25v-22z" />
    <glyph glyph-name="Acircumflex.sc" horiz-adv-x="560" 
d="M345 721l108 -182h-40l-114 90l-113 -90h-40l108 182h91zM318 213l-66 178l-72 -178h138zM175 0h-170v22l46 26l199 459l81 26l186 -485l38 -26v-22h-252v22l74 26h1l-44 122h-172l-50 -123l63 -25v-22z" />
    <glyph glyph-name="Atilde.sc" horiz-adv-x="560" 
d="M373 651q40 0 70 37l24 -11q-20 -65 -56.5 -95t-69.5 -30q-21 0 -65 15t-63 15q-37 0 -72 -38l-23 11q26 63 59.5 93.5t63.5 30.5q21 0 67.5 -14t64.5 -14zM318 213l-66 178l-72 -178h138zM175 0h-170v22l46 26l199 459l81 26l186 -485l38 -26v-22h-252v22l74 26h1
l-44 122h-172l-50 -123l63 -25v-22z" />
    <glyph glyph-name="Adieresis.sc" horiz-adv-x="560" 
d="M313 606q0 19 26.5 45t45.5 26q21 0 51 -20.5t30 -40.5q0 -19 -27 -44.5t-45 -25.5q-21 0 -51 20.5t-30 39.5zM109 606q0 19 27 45t46 26q20 0 50.5 -20.5t30.5 -40.5q0 -19 -27.5 -44.5t-45.5 -25.5q-21 0 -51 20.5t-30 39.5zM318 213l-66 178l-72 -178h138zM175 0h-170
v22l46 26l199 459l81 26l186 -485l38 -26v-22h-252v22l74 26h1l-44 122h-172l-50 -123l63 -25v-22z" />
    <glyph glyph-name="Aring.sc" horiz-adv-x="560" 
d="M193 633q0 39 29 66.5t69 27.5q41 0 68.5 -25t27.5 -69q0 -37 -29.5 -64.5t-68.5 -27.5q-40 0 -68 24.5t-28 67.5zM254 634q0 -17 10.5 -28.5t26.5 -11.5t27 11.5t11 28.5t-11 28.5t-27 11.5t-26.5 -11.5t-10.5 -28.5zM318 213l-66 178l-72 -178h138zM175 0h-170v22
l46 26l199 459l81 26l186 -485l38 -26v-22h-252v22l74 26h1l-44 122h-172l-50 -123l63 -25v-22z" />
    <glyph glyph-name="Amacron.sc" horiz-adv-x="560" 
d="M437 642v-15l-14 -63h-284v15l14 63h284zM318 213l-66 178l-72 -178h138zM175 0h-170v22l46 26l199 459l81 26l186 -485l38 -26v-22h-252v22l74 26h1l-44 122h-172l-50 -123l63 -25v-22z" />
    <glyph glyph-name="Abreve.sc" horiz-adv-x="560" 
d="M287 632q42 0 76 25.5t44 63.5h39q0 -79 -40.5 -130.5t-128.5 -51.5q-45 0 -75.5 14.5t-45.5 41.5t-20.5 56.5t-5.5 69.5h39q9 -40 41 -64.5t77 -24.5zM318 213l-66 178l-72 -178h138zM175 0h-170v22l46 26l199 459l81 26l186 -485l38 -26v-22h-252v22l74 26h1l-44 122
h-172l-50 -123l63 -25v-22z" />
    <glyph glyph-name="Aogonek.sc" horiz-adv-x="560" 
d="M318 213l-66 178l-72 -178h138zM545 -202q-75 -28 -112 -28q-44 0 -71 21.5t-27 59.5q0 80 150 149h-182v22l74 26h1l-44 122h-172l-50 -123l63 -25v-22h-170v22l46 26l199 459l81 26l186 -485l38 -26v-22h-24q-49 -38 -65.5 -66.5t-16.5 -60.5q0 -57 68 -57q15 0 23 2z
" />
    <glyph glyph-name="Acaron.sc" horiz-adv-x="560" 
d="M442 721l-108 -182h-91l-108 182h40l113 -89l114 89h40zM318 213l-66 178l-72 -178h138zM175 0h-170v22l46 26l199 459l81 26l186 -485l38 -26v-22h-252v22l74 26h1l-44 122h-172l-50 -123l63 -25v-22z" />
    <glyph glyph-name="B.sc" horiz-adv-x="547" 
d="M268 288q49 0 66.5 15.5t17.5 63.5q0 47 -26 74.5t-90 29.5v-181q18 -2 32 -2zM307 47q39 0 56 16t17 61q0 55 -30 88.5t-114 33.5v-190q25 -9 71 -9zM279 0h-43h-201v22l65 26v415l-65 27v21h271q70 0 122 -30.5t52 -84.5q0 -79 -102 -112q130 -24 130 -127
q0 -73 -69.5 -115t-159.5 -42z" />
    <glyph glyph-name="C.sc" horiz-adv-x="546" 
d="M474 158h27l-26 -141q-88 -31 -174 -31q-262 0 -262 260q0 126 89.5 202.5t201.5 76.5q107 0 162 -27l-25 -125h-28l-77 93q-26 7 -64 7q-76 0 -97 -47t-21 -173q0 -105 42 -155.5t112 -50.5q28 0 60 6z" />
    <glyph glyph-name="Ccedilla.sc" horiz-adv-x="546" 
d="M392 -117q0 -37 -40 -71t-129 -50l-11 52q45 0 69.5 3t31.5 7t7 12q0 40 -89 62l36 89q-228 16 -228 259q0 126 89.5 202.5t201.5 76.5q107 0 162 -27l-25 -125h-28l-77 93q-26 7 -64 7q-76 0 -97 -47t-21 -173q0 -105 42 -155.5t112 -50.5q28 0 60 6l80 105h27l-26 -141
q-88 -31 -172 -31l-3 -29q47 -12 69.5 -29.5t22.5 -44.5z" />
    <glyph glyph-name="Cacute.sc" horiz-adv-x="546" 
d="M209 539l78 182l134 -40l-172 -142h-40zM474 158h27l-26 -141q-88 -31 -174 -31q-262 0 -262 260q0 126 89.5 202.5t201.5 76.5q107 0 162 -27l-25 -125h-28l-77 93q-26 7 -64 7q-76 0 -97 -47t-21 -173q0 -105 42 -155.5t112 -50.5q28 0 60 6z" />
    <glyph glyph-name="Ccircumflex.sc" horiz-adv-x="546" 
d="M356 721l108 -182h-40l-114 90l-113 -90h-40l108 182h91zM474 158h27l-26 -141q-88 -31 -174 -31q-262 0 -262 260q0 126 89.5 202.5t201.5 76.5q107 0 162 -27l-25 -125h-28l-77 93q-26 7 -64 7q-76 0 -97 -47t-21 -173q0 -105 42 -155.5t112 -50.5q28 0 60 6z" />
    <glyph glyph-name="Cdotaccent.sc" horiz-adv-x="546" 
d="M230 613q0 22 29.5 50.5t51.5 28.5t55.5 -23t33.5 -44t-30.5 -49.5t-50.5 -28.5q-22 0 -55.5 23t-33.5 43zM474 158h27l-26 -141q-88 -31 -174 -31q-262 0 -262 260q0 126 89.5 202.5t201.5 76.5q107 0 162 -27l-25 -125h-28l-77 93q-26 7 -64 7q-76 0 -97 -47t-21 -173
q0 -105 42 -155.5t112 -50.5q28 0 60 6z" />
    <glyph glyph-name="Ccaron.sc" horiz-adv-x="546" 
d="M466 721l-108 -182h-91l-108 182h40l113 -89l114 89h40zM474 158h27l-26 -141q-88 -31 -174 -31q-262 0 -262 260q0 126 89.5 202.5t201.5 76.5q107 0 162 -27l-25 -125h-28l-77 93q-26 7 -64 7q-76 0 -97 -47t-21 -173q0 -105 42 -155.5t112 -50.5q28 0 60 6z" />
    <glyph glyph-name="D.sc" horiz-adv-x="622" 
d="M311 55q77 0 104.5 32t27.5 138q0 132 -43 188t-137 56h-27v-406q37 -8 75 -8zM35 0v22l65 26v415l-65 27v21h259q144 0 216.5 -63.5t72.5 -186.5t-86.5 -192t-230.5 -69h-231z" />
    <glyph glyph-name="Dcaron.sc" horiz-adv-x="622" 
d="M455 721l-108 -182h-91l-108 182h40l113 -89l114 89h40zM311 55q77 0 104.5 32t27.5 138q0 132 -43 188t-137 56h-27v-406q37 -8 75 -8zM35 0v22l65 26v415l-65 27v21h259q144 0 216.5 -63.5t72.5 -186.5t-86.5 -192t-230.5 -69h-231z" />
    <glyph glyph-name="E.sc" horiz-adv-x="524" 
d="M35 0v22l65 26v415l-65 27v21h430l-26 -138h-29l-58 96h-116v-181h45l130 8l-11 -60l-125 8h-39v-201h123l104 134h30l-32 -177h-426z" />
    <glyph glyph-name="Egrave.sc" horiz-adv-x="524" 
d="M308 721l78 -182h-40l-172 142zM35 0v22l65 26v415l-65 27v21h430l-26 -138h-29l-58 96h-116v-181h45l130 8l-11 -60l-125 8h-39v-201h123l104 134h30l-32 -177h-426z" />
    <glyph glyph-name="Eacute.sc" horiz-adv-x="524" 
d="M189 539l78 182l134 -40l-172 -142h-40zM35 0v22l65 26v415l-65 27v21h430l-26 -138h-29l-58 96h-116v-181h45l130 8l-11 -60l-125 8h-39v-201h123l104 134h30l-32 -177h-426z" />
    <glyph glyph-name="Ecircumflex.sc" horiz-adv-x="524" 
d="M327 721l108 -182h-40l-114 90l-113 -90h-40l108 182h91zM35 0v22l65 26v415l-65 27v21h430l-26 -138h-29l-58 96h-116v-181h45l130 8l-11 -60l-125 8h-39v-201h123l104 134h30l-32 -177h-426z" />
    <glyph glyph-name="Edieresis.sc" horiz-adv-x="524" 
d="M306 606q0 19 26.5 45t45.5 26q21 0 51 -20.5t30 -40.5q0 -19 -27 -44.5t-45 -25.5q-21 0 -51 20.5t-30 39.5zM102 606q0 19 27 45t46 26q20 0 50.5 -20.5t30.5 -40.5q0 -19 -27.5 -44.5t-45.5 -25.5q-21 0 -51 20.5t-30 39.5zM35 0v22l65 26v415l-65 27v21h430l-26 -138
h-29l-58 96h-116v-181h45l130 8l-11 -60l-125 8h-39v-201h123l104 134h30l-32 -177h-426z" />
    <glyph glyph-name="Emacron.sc" horiz-adv-x="524" 
d="M431 642v-15l-14 -63h-284v15l14 63h284zM35 0v22l65 26v415l-65 27v21h430l-26 -138h-29l-58 96h-116v-181h45l130 8l-11 -60l-125 8h-39v-201h123l104 134h30l-32 -177h-426z" />
    <glyph glyph-name="Ebreve.sc" horiz-adv-x="524" 
d="M278 632q42 0 76 25.5t44 63.5h39q0 -79 -40.5 -130.5t-128.5 -51.5q-45 0 -75.5 14.5t-45.5 41.5t-20.5 56.5t-5.5 69.5h39q9 -40 41 -64.5t77 -24.5zM35 0v22l65 26v415l-65 27v21h430l-26 -138h-29l-58 96h-116v-181h45l130 8l-11 -60l-125 8h-39v-201h123l104 134h30
l-32 -177h-426z" />
    <glyph glyph-name="Edotaccent.sc" horiz-adv-x="524" 
d="M196 613q0 22 29.5 50.5t51.5 28.5t55.5 -23t33.5 -44t-30.5 -49.5t-50.5 -28.5q-22 0 -55.5 23t-33.5 43zM35 0v22l65 26v415l-65 27v21h430l-26 -138h-29l-58 96h-116v-181h45l130 8l-11 -60l-125 8h-39v-201h123l104 134h30l-32 -177h-426z" />
    <glyph glyph-name="Eogonek.sc" horiz-adv-x="524" 
d="M474 -202q-75 -28 -112 -28q-44 0 -71 21.5t-27 59.5q0 80 150 149h-379v22l65 26v415l-65 27v21h430l-26 -138h-29l-58 96h-116v-181h45l130 8l-11 -60l-125 8h-39v-201h123l104 134h30l-31 -174l1 -1l-2 -1v-1h-1q-49 -38 -65.5 -66.5t-16.5 -60.5q0 -57 68 -57
q15 0 23 2z" />
    <glyph glyph-name="Ecaron.sc" horiz-adv-x="524" 
d="M436 721l-108 -182h-91l-108 182h40l113 -89l114 89h40zM35 0v22l65 26v415l-65 27v21h430l-26 -138h-29l-58 96h-116v-181h45l130 8l-11 -60l-125 8h-39v-201h123l104 134h30l-32 -177h-426z" />
    <glyph glyph-name="F.sc" horiz-adv-x="493" 
d="M305 22v-22h-270v22l65 26v415l-65 27v21h434l-26 -138h-29l-58 96h-120v-189h43l131 9l-11 -60l-125 7h-38v-188z" />
    <glyph glyph-name="G.sc" horiz-adv-x="577" 
d="M514 200v-168q-81 -46 -206 -46q-269 0 -269 260q0 128 90.5 203.5t216.5 75.5q47 0 96.5 -9.5t69.5 -21.5l-24 -126h-28l-78 95q-38 10 -85 10q-70 0 -93.5 -42.5t-23.5 -161.5q0 -116 40.5 -169t108.5 -53q39 0 60 5v148l-72 27v21h253v-22z" />
    <glyph glyph-name="Gcircumflex.sc" horiz-adv-x="577" 
d="M361 721l108 -182h-40l-114 90l-113 -90h-40l108 182h91zM514 200v-168q-81 -46 -206 -46q-269 0 -269 260q0 128 90.5 203.5t216.5 75.5q47 0 96.5 -9.5t69.5 -21.5l-24 -126h-28l-78 95q-38 10 -85 10q-70 0 -93.5 -42.5t-23.5 -161.5q0 -116 40.5 -169t108.5 -53
q39 0 60 5v148l-72 27v21h253v-22z" />
    <glyph glyph-name="Gbreve.sc" horiz-adv-x="577" 
d="M309 632q42 0 76 25.5t44 63.5h39q0 -79 -40.5 -130.5t-128.5 -51.5q-45 0 -75.5 14.5t-45.5 41.5t-20.5 56.5t-5.5 69.5h39q9 -40 41 -64.5t77 -24.5zM514 200v-168q-81 -46 -206 -46q-269 0 -269 260q0 128 90.5 203.5t216.5 75.5q47 0 96.5 -9.5t69.5 -21.5l-24 -126
h-28l-78 95q-38 10 -85 10q-70 0 -93.5 -42.5t-23.5 -161.5q0 -116 40.5 -169t108.5 -53q39 0 60 5v148l-72 27v21h253v-22z" />
    <glyph glyph-name="Gdotaccent.sc" horiz-adv-x="577" 
d="M243 613q0 22 29.5 50.5t51.5 28.5t55.5 -23t33.5 -44t-30.5 -49.5t-50.5 -28.5q-22 0 -55.5 23t-33.5 43zM514 200v-168q-81 -46 -206 -46q-269 0 -269 260q0 128 90.5 203.5t216.5 75.5q47 0 96.5 -9.5t69.5 -21.5l-24 -126h-28l-78 95q-38 10 -85 10
q-70 0 -93.5 -42.5t-23.5 -161.5q0 -116 40.5 -169t108.5 -53q39 0 60 5v148l-72 27v21h253v-22z" />
    <glyph glyph-name="Gcommaaccent.sc" horiz-adv-x="577" 
d="M514 200v-168q-81 -46 -206 -46q-269 0 -269 260q0 128 90.5 203.5t216.5 75.5q47 0 96.5 -9.5t69.5 -21.5l-24 -126h-28l-78 95q-38 10 -85 10q-70 0 -93.5 -42.5t-23.5 -161.5q0 -116 40.5 -169t108.5 -53q39 0 60 5v148l-72 27v21h253v-22zM232 -102q0 18 21.5 38
t39.5 20q19 0 48.5 -22.5t29.5 -48.5q0 -40 -24 -81t-86 -93l-24 16q42 54 42 92q0 23 -23.5 44t-23.5 35z" />
    <glyph glyph-name="H.sc" horiz-adv-x="669" 
d="M297 22v-22h-262v22l65 26v415l-65 27v21h262v-22l-61 -26v-172h198v172l-62 27v21h262v-22l-66 -26v-415l66 -26v-22h-262v22l62 26v192h-198v-192z" />
    <glyph glyph-name="Hcircumflex.sc" horiz-adv-x="662" 
d="M383 721l108 -182h-40l-114 90l-113 -90h-40l108 182h91zM297 22v-22h-262v22l65 26v415l-65 27v21h262v-22l-61 -26v-172h198v172l-62 27v21h262v-22l-66 -26v-415l66 -26v-22h-262v22l62 26v192h-198v-192z" />
    <glyph glyph-name="I.sc" horiz-adv-x="337" 
d="M236 463v-415l66 -26v-22h-267v22l65 26v415l-65 27v21h267v-22z" />
    <glyph glyph-name="Igrave.sc" horiz-adv-x="337" 
d="M162 721l78 -182h-40l-172 142zM236 463v-415l66 -26v-22h-267v22l65 26v415l-65 27v21h267v-22z" />
    <glyph glyph-name="Iacute.sc" horiz-adv-x="337" 
d="M106 539l78 182l134 -40l-172 -142h-40zM236 463v-415l66 -26v-22h-267v22l65 26v415l-65 27v21h267v-22z" />
    <glyph glyph-name="Icircumflex.sc" horiz-adv-x="337" 
d="M214 721l108 -182h-40l-114 90l-113 -90h-40l108 182h91zM236 463v-415l66 -26v-22h-267v22l65 26v415l-65 27v21h267v-22z" />
    <glyph glyph-name="Idieresis.sc" horiz-adv-x="337" 
d="M193 606q0 19 26.5 45t45.5 26q21 0 51 -20.5t30 -40.5q0 -19 -27 -44.5t-45 -25.5q-21 0 -51 20.5t-30 39.5zM-11 606q0 19 27 45t46 26q20 0 50.5 -20.5t30.5 -40.5q0 -19 -27.5 -44.5t-45.5 -25.5q-21 0 -51 20.5t-30 39.5zM236 463v-415l66 -26v-22h-267v22l65 26
v415l-65 27v21h267v-22z" />
    <glyph glyph-name="Itilde.sc" horiz-adv-x="337" 
d="M253 651q40 0 70 37l24 -11q-20 -65 -56.5 -95t-69.5 -30q-21 0 -65 15t-63 15q-37 0 -72 -38l-23 11q26 63 59.5 93.5t63.5 30.5q21 0 67.5 -14t64.5 -14zM236 463v-415l66 -26v-22h-267v22l65 26v415l-65 27v21h267v-22z" />
    <glyph glyph-name="Imacron.sc" horiz-adv-x="337" 
d="M317 642v-15l-14 -63h-284v15l14 63h284zM236 463v-415l66 -26v-22h-267v22l65 26v415l-65 27v21h267v-22z" />
    <glyph glyph-name="Ibreve.sc" horiz-adv-x="337" 
d="M167 632q42 0 76 25.5t44 63.5h39q0 -79 -40.5 -130.5t-128.5 -51.5q-45 0 -75.5 14.5t-45.5 41.5t-20.5 56.5t-5.5 69.5h39q9 -40 41 -64.5t77 -24.5zM236 463v-415l66 -26v-22h-267v22l65 26v415l-65 27v21h267v-22z" />
    <glyph glyph-name="Iogonek.sc" horiz-adv-x="337" 
d="M304 -202q-75 -28 -112 -28q-44 0 -71 21.5t-27 59.5q0 80 150 149h-209v22l65 26v415l-65 27v21h267v-22l-66 -26v-415l66 -26v-22h-12q-49 -38 -65.5 -66.5t-16.5 -60.5q0 -57 68 -57q15 0 23 2z" />
    <glyph glyph-name="Idotaccent.sc" horiz-adv-x="337" 
d="M83 613q0 22 29.5 50.5t51.5 28.5t55.5 -23t33.5 -44t-30.5 -49.5t-50.5 -28.5q-22 0 -55.5 23t-33.5 43zM236 463v-415l66 -26v-22h-267v22l65 26v415l-65 27v21h267v-22z" />
    <glyph glyph-name="J.sc" horiz-adv-x="358" 
d="M47 105l48 -80q22 -3 31.5 12.5t9.5 58.5v367l-60 27v21h262v-22l-66 -26v-327q0 -65 -55.5 -107.5t-134.5 -42.5q-35 0 -83 14l25 105h23z" />
    <glyph glyph-name="Jcircumflex.sc" horiz-adv-x="358" 
d="M246 721l108 -182h-40l-114 90l-113 -90h-40l108 182h91zM47 105l48 -80q22 -3 31.5 12.5t9.5 58.5v367l-60 27v21h262v-22l-66 -26v-327q0 -65 -55.5 -107.5t-134.5 -42.5q-35 0 -83 14l25 105h23z" />
    <glyph glyph-name="K.sc" horiz-adv-x="621" 
d="M613 0h-166l-181 229l-30 40l219 194h-2l-63 26v22h196v-22l-45 -25l-185 -158l221 -264l36 -20v-22zM236 463v-415l66 -26v-22h-267v22l65 26v415l-65 27v21h267v-22z" />
    <glyph glyph-name="Kcommaaccent.sc" horiz-adv-x="621" 
d="M613 0h-166l-181 229l-30 40l219 194h-2l-63 26v22h196v-22l-45 -25l-185 -158l221 -264l36 -20v-22zM236 463v-415l66 -26v-22h-267v22l65 26v415l-65 27v21h267v-22zM256 -102q0 18 21.5 38t39.5 20q19 0 48.5 -22.5t29.5 -48.5q0 -40 -24 -81t-86 -93l-24 16
q42 54 42 92q0 23 -23.5 44t-23.5 35z" />
    <glyph glyph-name="L.sc" horiz-adv-x="496" 
d="M35 0v22l65 26v415l-65 27v21h270v-22l-69 -26v-420h117l100 129h30l-32 -172h-416z" />
    <glyph glyph-name="Lacute.sc" horiz-adv-x="496" 
d="M117 539l78 182l134 -40l-172 -142h-40zM35 0v22l65 26v415l-65 27v21h270v-22l-69 -26v-420h117l100 129h30l-32 -172h-416z" />
    <glyph glyph-name="Lcommaaccent.sc" horiz-adv-x="496" 
d="M35 0v22l65 26v415l-65 27v21h270v-22l-69 -26v-420h117l100 129h30l-32 -172h-416zM191 -102q0 18 21.5 38t39.5 20q19 0 48.5 -22.5t29.5 -48.5q0 -40 -24 -81t-86 -93l-24 16q42 54 42 92q0 23 -23.5 44t-23.5 35z" />
    <glyph glyph-name="Lcaron.sc" horiz-adv-x="511" 
d="M378 500q6 23 27.5 42t37.5 19q22 0 45 -28t23 -55q0 -34 -19 -72.5t-70 -97.5l-27 6q20 59 20 107q0 40 -37 79zM35 0v22l65 26v415l-65 27v21h270v-22l-69 -26v-420h117l100 129h30l-32 -172h-416z" />
    <glyph glyph-name="M.sc" horiz-adv-x="808" 
d="M222 22v-22h-204v22l65 26l25 415l-65 27v21h216l156 -357l153 357h197v-22l-64 -26l26 -415l66 -26v-22h-267v22l65 26l-16 346l-158 -357l-82 -24l-160 370l-18 -335z" />
    <glyph glyph-name="N.sc" horiz-adv-x="640" 
d="M543 -13h-57l-315 371v-310l65 -26v-22h-204v22l65 26v415l-65 27v21h185l253 -308v260l-65 26v22h203v-22l-65 -26v-476z" />
    <glyph glyph-name="Ntilde.sc" horiz-adv-x="640" 
d="M402 651q40 0 70 37l24 -11q-20 -65 -56.5 -95t-69.5 -30q-21 0 -65 15t-63 15q-37 0 -72 -38l-23 11q26 63 59.5 93.5t63.5 30.5q21 0 67.5 -14t64.5 -14zM543 -13h-57l-315 371v-310l65 -26v-22h-204v22l65 26v415l-65 27v21h185l253 -308v260l-65 26v22h203v-22
l-65 -26v-476z" />
    <glyph glyph-name="Nacute.sc" horiz-adv-x="640" 
d="M226 539l78 182l134 -40l-172 -142h-40zM543 -13h-57l-315 371v-310l65 -26v-22h-204v22l65 26v415l-65 27v21h185l253 -308v260l-65 26v22h203v-22l-65 -26v-476z" />
    <glyph glyph-name="Ncommaaccent.sc" horiz-adv-x="640" 
d="M543 -13h-57l-315 371v-310l65 -26v-22h-204v22l65 26v415l-65 27v21h185l253 -308v260l-65 26v22h203v-22l-65 -26v-476zM250 -102q0 18 21.5 38t39.5 20q19 0 48.5 -22.5t29.5 -48.5q0 -40 -24 -81t-86 -93l-24 16q42 54 42 92q0 23 -23.5 44t-23.5 35z" />
    <glyph glyph-name="Ncaron.sc" horiz-adv-x="640" 
d="M473 721l-108 -182h-91l-108 182h40l113 -89l114 89h40zM543 -13h-57l-315 371v-310l65 -26v-22h-204v22l65 26v415l-65 27v21h185l253 -308v260l-65 26v22h203v-22l-65 -26v-476z" />
    <glyph glyph-name="O.sc" horiz-adv-x="627" 
d="M587 266q0 -126 -90 -203t-211 -77t-184 66t-63 192q0 127 90 204t212 77q119 0 182.5 -66t63.5 -193zM446 233q0 118 -37 175.5t-115 57.5q-69 0 -91.5 -37t-22.5 -151q0 -117 38 -174t117 -57q67 0 89 37.5t22 148.5z" />
    <glyph glyph-name="Ograve.sc" horiz-adv-x="627" 
d="M338 721l78 -182h-40l-172 142zM587 266q0 -126 -90 -203t-211 -77t-184 66t-63 192q0 127 90 204t212 77q119 0 182.5 -66t63.5 -193zM446 233q0 118 -37 175.5t-115 57.5q-69 0 -91.5 -37t-22.5 -151q0 -117 38 -174t117 -57q67 0 89 37.5t22 148.5z" />
    <glyph glyph-name="Oacute.sc" horiz-adv-x="627" 
d="M210 539l78 182l134 -40l-172 -142h-40zM587 266q0 -126 -90 -203t-211 -77t-184 66t-63 192q0 127 90 204t212 77q119 0 182.5 -66t63.5 -193zM446 233q0 118 -37 175.5t-115 57.5q-69 0 -91.5 -37t-22.5 -151q0 -117 38 -174t117 -57q67 0 89 37.5t22 148.5z" />
    <glyph glyph-name="Ocircumflex.sc" horiz-adv-x="627" 
d="M359 721l108 -182h-40l-114 90l-113 -90h-40l108 182h91zM587 266q0 -126 -90 -203t-211 -77t-184 66t-63 192q0 127 90 204t212 77q119 0 182.5 -66t63.5 -193zM446 233q0 118 -37 175.5t-115 57.5q-69 0 -91.5 -37t-22.5 -151q0 -117 38 -174t117 -57q67 0 89 37.5
t22 148.5z" />
    <glyph glyph-name="Otilde.sc" horiz-adv-x="627" 
d="M398 651q40 0 70 37l24 -11q-20 -65 -56.5 -95t-69.5 -30q-21 0 -65 15t-63 15q-37 0 -72 -38l-23 11q26 63 59.5 93.5t63.5 30.5q21 0 67.5 -14t64.5 -14zM587 266q0 -126 -90 -203t-211 -77t-184 66t-63 192q0 127 90 204t212 77q119 0 182.5 -66t63.5 -193zM446 233
q0 118 -37 175.5t-115 57.5q-69 0 -91.5 -37t-22.5 -151q0 -117 38 -174t117 -57q67 0 89 37.5t22 148.5z" />
    <glyph glyph-name="Odieresis.sc" horiz-adv-x="627" 
d="M338 606q0 19 26.5 45t45.5 26q21 0 51 -20.5t30 -40.5q0 -19 -27 -44.5t-45 -25.5q-21 0 -51 20.5t-30 39.5zM134 606q0 19 27 45t46 26q20 0 50.5 -20.5t30.5 -40.5q0 -19 -27.5 -44.5t-45.5 -25.5q-21 0 -51 20.5t-30 39.5zM587 266q0 -126 -90 -203t-211 -77t-184 66
t-63 192q0 127 90 204t212 77q119 0 182.5 -66t63.5 -193zM446 233q0 118 -37 175.5t-115 57.5q-69 0 -91.5 -37t-22.5 -151q0 -117 38 -174t117 -57q67 0 89 37.5t22 148.5z" />
    <glyph glyph-name="Omacron.sc" horiz-adv-x="627" 
d="M462 642v-15l-14 -63h-284v15l14 63h284zM587 266q0 -126 -90 -203t-211 -77t-184 66t-63 192q0 127 90 204t212 77q119 0 182.5 -66t63.5 -193zM446 233q0 118 -37 175.5t-115 57.5q-69 0 -91.5 -37t-22.5 -151q0 -117 38 -174t117 -57q67 0 89 37.5t22 148.5z" />
    <glyph glyph-name="Obreve.sc" horiz-adv-x="627" 
d="M312 632q42 0 76 25.5t44 63.5h39q0 -79 -40.5 -130.5t-128.5 -51.5q-45 0 -75.5 14.5t-45.5 41.5t-20.5 56.5t-5.5 69.5h39q9 -40 41 -64.5t77 -24.5zM587 266q0 -126 -90 -203t-211 -77t-184 66t-63 192q0 127 90 204t212 77q119 0 182.5 -66t63.5 -193zM446 233
q0 118 -37 175.5t-115 57.5q-69 0 -91.5 -37t-22.5 -151q0 -117 38 -174t117 -57q67 0 89 37.5t22 148.5z" />
    <glyph glyph-name="Ohungarumlaut.sc" horiz-adv-x="627" 
d="M334 539l78 182l134 -40l-172 -142h-40zM173 539l77 182l135 -40l-173 -142h-39zM587 266q0 -126 -90 -203t-211 -77t-184 66t-63 192q0 127 90 204t212 77q119 0 182.5 -66t63.5 -193zM446 233q0 118 -37 175.5t-115 57.5q-69 0 -91.5 -37t-22.5 -151q0 -117 38 -174
t117 -57q67 0 89 37.5t22 148.5z" />
    <glyph glyph-name="P.sc" horiz-adv-x="522" 
d="M297 260q75 0 75 88q0 64 -29 91.5t-107 27.5v-199q27 -8 61 -8zM317 22v-22h-282v22l65 26v415l-65 27v21h258q98 0 150.5 -33t52.5 -97q0 -79 -65.5 -123.5t-155.5 -44.5q-26 0 -39 1v-166z" />
    <glyph glyph-name="Q.sc" horiz-adv-x="627" 
d="M587 266q0 -126 -90 -203t-211 -77t-184 66t-63 192q0 127 90 204t212 77q119 0 182.5 -66t63.5 -193zM446 233q0 118 -37 175.5t-115 57.5q-69 0 -91.5 -37t-22.5 -151q0 -117 38 -174t117 -57q68 0 89.5 37.5t21.5 148.5zM258 -34q29 0 134.5 -23t131.5 -23q37 0 64 14
l14 -23q-79 -87 -142 -87q-32 0 -131.5 40.5t-128.5 38.5q-13 -1 -64 -45h-25l-9 84q105 24 156 24z" />
    <glyph glyph-name="R.sc" horiz-adv-x="574" 
d="M300 275q39 0 56.5 19.5t17.5 66.5q0 56 -31.5 82t-106.5 26v-187q32 -7 64 -7zM305 22v-22h-270v22l65 26v415l-65 27v21h245q111 0 164.5 -29.5t53.5 -93.5q0 -89 -103 -134l131 -211l39 -21v-22h-162l-117 230h-17q-13 0 -33 2v-184z" />
    <glyph glyph-name="Racute.sc" horiz-adv-x="574" 
d="M197 539l78 182l134 -40l-172 -142h-40zM300 275q39 0 56.5 19.5t17.5 66.5q0 56 -31.5 82t-106.5 26v-187q32 -7 64 -7zM305 22v-22h-270v22l65 26v415l-65 27v21h245q111 0 164.5 -29.5t53.5 -93.5q0 -89 -103 -134l131 -211l39 -21v-22h-162l-117 230h-17q-13 0 -33 2
v-184z" />
    <glyph glyph-name="Rcommaaccent.sc" horiz-adv-x="574" 
d="M300 275q39 0 56.5 19.5t17.5 66.5q0 56 -31.5 82t-106.5 26v-187q32 -7 64 -7zM305 22v-22h-270v22l65 26v415l-65 27v21h245q111 0 164.5 -29.5t53.5 -93.5q0 -89 -103 -134l131 -211l39 -21v-22h-162l-117 230h-17q-13 0 -33 2v-184zM233 -102q0 18 21.5 38t39.5 20
q19 0 48.5 -22.5t29.5 -48.5q0 -40 -24 -81t-86 -93l-24 16q42 54 42 92q0 23 -23.5 44t-23.5 35z" />
    <glyph glyph-name="Rcaron.sc" horiz-adv-x="574" 
d="M436 721l-108 -182h-91l-108 182h40l113 -89l114 89h40zM300 275q39 0 56.5 19.5t17.5 66.5q0 56 -31.5 82t-106.5 26v-187q32 -7 64 -7zM305 22v-22h-270v22l65 26v415l-65 27v21h245q111 0 164.5 -29.5t53.5 -93.5q0 -89 -103 -134l131 -211l39 -21v-22h-162l-117 230
h-17q-13 0 -33 2v-184z" />
    <glyph glyph-name="S.sc" horiz-adv-x="471" 
d="M220 192l-48 21q-133 52 -133 152q0 70 58.5 115t159.5 45q111 0 163 -21l-23 -125h-29l-57 85q-34 13 -89 13q-29 0 -47.5 -16.5t-18.5 -47.5q0 -30 20.5 -49t66.5 -39l49 -19q79 -30 111 -62.5t32 -87.5q0 -78 -68 -124t-175 -46q-102 0 -159 20l23 128h34l60 -86
q43 -12 96 -12q33 0 52 18t19 45q0 32 -20.5 51t-76.5 42z" />
    <glyph glyph-name="Sacute.sc" horiz-adv-x="471" 
d="M145 539l78 182l134 -40l-172 -142h-40zM220 192l-48 21q-133 52 -133 152q0 70 58.5 115t159.5 45q111 0 163 -21l-23 -125h-29l-57 85q-34 13 -89 13q-29 0 -47.5 -16.5t-18.5 -47.5q0 -30 20.5 -49t66.5 -39l49 -19q79 -30 111 -62.5t32 -87.5q0 -78 -68 -124
t-175 -46q-102 0 -159 20l23 128h34l60 -86q43 -12 96 -12q33 0 52 18t19 45q0 32 -20.5 51t-76.5 42z" />
    <glyph glyph-name="Scircumflex.sc" horiz-adv-x="471" 
d="M292 721l108 -182h-40l-114 90l-113 -90h-40l108 182h91zM220 192l-48 21q-133 52 -133 152q0 70 58.5 115t159.5 45q111 0 163 -21l-23 -125h-29l-57 85q-34 13 -89 13q-29 0 -47.5 -16.5t-18.5 -47.5q0 -30 20.5 -49t66.5 -39l49 -19q79 -30 111 -62.5t32 -87.5
q0 -78 -68 -124t-175 -46q-102 0 -159 20l23 128h34l60 -86q43 -12 96 -12q33 0 52 18t19 45q0 32 -20.5 51t-76.5 42z" />
    <glyph glyph-name="Scedilla.sc" horiz-adv-x="471" 
d="M152 -238l-11 52q45 0 69.5 3t31.5 7t7 12q0 40 -89 62l35 88h-3q-102 0 -159 20l23 128h34l60 -86q43 -12 96 -12q33 0 52 18t19 45q0 32 -20.5 51t-76.5 42l-48 21q-133 52 -133 152q0 70 58.5 115t159.5 45q111 0 163 -21l-23 -125h-29l-57 85q-34 13 -89 13
q-29 0 -47.5 -16.5t-18.5 -47.5q0 -30 20.5 -49t66.5 -39l49 -19q79 -30 111 -62.5t32 -87.5q0 -70 -56 -115t-146 -53l-4 -31q47 -12 69.5 -29.5t22.5 -44.5q0 -37 -40 -71t-129 -50z" />
    <glyph glyph-name="Scaron.sc" horiz-adv-x="471" 
d="M394 721l-108 -182h-91l-108 182h40l113 -89l114 89h40zM220 192l-48 21q-133 52 -133 152q0 70 58.5 115t159.5 45q111 0 163 -21l-23 -125h-29l-57 85q-34 13 -89 13q-29 0 -47.5 -16.5t-18.5 -47.5q0 -30 20.5 -49t66.5 -39l49 -19q79 -30 111 -62.5t32 -87.5
q0 -78 -68 -124t-175 -46q-102 0 -159 20l23 128h34l60 -86q43 -12 96 -12q33 0 52 18t19 45q0 32 -20.5 51t-76.5 42z" />
    <glyph glyph-name="Scommaaccent.sc" horiz-adv-x="471" 
d="M220 192l-48 21q-133 52 -133 152q0 70 58.5 115t159.5 45q111 0 163 -21l-23 -125h-29l-57 85q-34 13 -89 13q-29 0 -47.5 -16.5t-18.5 -47.5q0 -30 20.5 -49t66.5 -39l49 -19q79 -30 111 -62.5t32 -87.5q0 -78 -68 -124t-175 -46q-102 0 -159 20l23 128h34l60 -86
q43 -12 96 -12q33 0 52 18t19 45q0 32 -20.5 51t-76.5 42zM163 -102q0 18 21.5 38t39.5 20q19 0 48.5 -22.5t29.5 -48.5q0 -40 -24 -81t-86 -93l-24 16q42 54 42 92q0 23 -23.5 44t-23.5 35z" />
    <glyph glyph-name="T.sc" horiz-adv-x="543" 
d="M414 22v-22h-283v22l74 26v421h-71l-96 -114h-29l29 156h502l-35 -156h-28l-47 114h-90v-421z" />
    <glyph glyph-name="Tcommaaccent.sc" horiz-adv-x="543" 
d="M414 22v-22h-283v22l74 26v421h-71l-96 -114h-29l29 156h502l-35 -156h-28l-47 114h-90v-421zM208 -102q0 18 21.5 38t39.5 20q19 0 48.5 -22.5t29.5 -48.5q0 -40 -24 -81t-86 -93l-24 16q42 54 42 92q0 23 -23.5 44t-23.5 35z" />
    <glyph glyph-name="Tcaron.sc" horiz-adv-x="543" 
d="M433 721l-108 -182h-91l-108 182h40l113 -89l114 89h40zM414 22v-22h-283v22l74 26v421h-71l-96 -114h-29l29 156h502l-35 -156h-28l-47 114h-90v-421z" />
    <glyph glyph-name="U.sc" horiz-adv-x="612" 
d="M83 171v292l-66 27v21h267v-22l-65 -26v-258q0 -133 122 -133q60 0 87 22.5t27 85.5v283l-66 26v22h205v-22l-66 -26v-268q0 -105 -64.5 -157t-162.5 -52q-101 0 -159.5 46t-58.5 139z" />
    <glyph glyph-name="Ugrave.sc" horiz-adv-x="612" 
d="M384 721l78 -182h-40l-172 142zM83 171v292l-66 27v21h267v-22l-65 -26v-258q0 -133 122 -133q60 0 87 22.5t27 85.5v283l-66 26v22h205v-22l-66 -26v-268q0 -105 -64.5 -157t-162.5 -52q-101 0 -159.5 46t-58.5 139z" />
    <glyph glyph-name="Uacute.sc" horiz-adv-x="612" 
d="M261 539l78 182l134 -40l-172 -142h-40zM83 171v292l-66 27v21h267v-22l-65 -26v-258q0 -133 122 -133q60 0 87 22.5t27 85.5v283l-66 26v22h205v-22l-66 -26v-268q0 -105 -64.5 -157t-162.5 -52q-101 0 -159.5 46t-58.5 139z" />
    <glyph glyph-name="Ucircumflex.sc" horiz-adv-x="612" 
d="M402 721l108 -182h-40l-114 90l-113 -90h-40l108 182h91zM83 171v292l-66 27v21h267v-22l-65 -26v-258q0 -133 122 -133q60 0 87 22.5t27 85.5v283l-66 26v22h205v-22l-66 -26v-268q0 -105 -64.5 -157t-162.5 -52q-101 0 -159.5 46t-58.5 139z" />
    <glyph glyph-name="Udieresis.sc" horiz-adv-x="612" 
d="M381 606q0 19 26.5 45t45.5 26q21 0 51 -20.5t30 -40.5q0 -19 -27 -44.5t-45 -25.5q-21 0 -51 20.5t-30 39.5zM177 606q0 19 27 45t46 26q20 0 50.5 -20.5t30.5 -40.5q0 -19 -27.5 -44.5t-45.5 -25.5q-21 0 -51 20.5t-30 39.5zM83 171v292l-66 27v21h267v-22l-65 -26
v-258q0 -133 122 -133q60 0 87 22.5t27 85.5v283l-66 26v22h205v-22l-66 -26v-268q0 -105 -64.5 -157t-162.5 -52q-101 0 -159.5 46t-58.5 139z" />
    <glyph glyph-name="Utilde.sc" horiz-adv-x="612" 
d="M441 651q40 0 70 37l24 -11q-20 -65 -56.5 -95t-69.5 -30q-21 0 -65 15t-63 15q-37 0 -72 -38l-23 11q26 63 59.5 93.5t63.5 30.5q21 0 67.5 -14t64.5 -14zM83 171v292l-66 27v21h267v-22l-65 -26v-258q0 -133 122 -133q60 0 87 22.5t27 85.5v283l-66 26v22h205v-22
l-66 -26v-268q0 -105 -64.5 -157t-162.5 -52q-101 0 -159.5 46t-58.5 139z" />
    <glyph glyph-name="Umacron.sc" horiz-adv-x="612" 
d="M505 642v-15l-14 -63h-284v15l14 63h284zM83 171v292l-66 27v21h267v-22l-65 -26v-258q0 -133 122 -133q60 0 87 22.5t27 85.5v283l-66 26v22h205v-22l-66 -26v-268q0 -105 -64.5 -157t-162.5 -52q-101 0 -159.5 46t-58.5 139z" />
    <glyph glyph-name="Ubreve.sc" horiz-adv-x="612" 
d="M355 632q42 0 76 25.5t44 63.5h39q0 -79 -40.5 -130.5t-128.5 -51.5q-45 0 -75.5 14.5t-45.5 41.5t-20.5 56.5t-5.5 69.5h39q9 -40 41 -64.5t77 -24.5zM83 171v292l-66 27v21h267v-22l-65 -26v-258q0 -133 122 -133q60 0 87 22.5t27 85.5v283l-66 26v22h205v-22l-66 -26
v-268q0 -105 -64.5 -157t-162.5 -52q-101 0 -159.5 46t-58.5 139z" />
    <glyph glyph-name="Uring.sc" horiz-adv-x="612" 
d="M259 633q0 39 29 66.5t69 27.5q41 0 68.5 -25t27.5 -69q0 -37 -29.5 -64.5t-68.5 -27.5q-40 0 -68 24.5t-28 67.5zM320 634q0 -17 10.5 -28.5t26.5 -11.5t27 11.5t11 28.5t-11 28.5t-27 11.5t-26.5 -11.5t-10.5 -28.5zM83 171v292l-66 27v21h267v-22l-65 -26v-258
q0 -133 122 -133q60 0 87 22.5t27 85.5v283l-66 26v22h205v-22l-66 -26v-268q0 -105 -64.5 -157t-162.5 -52q-101 0 -159.5 46t-58.5 139z" />
    <glyph glyph-name="Uhungarumlaut.sc" horiz-adv-x="612" 
d="M343 539l78 182l134 -40l-172 -142h-40zM182 539l77 182l135 -40l-173 -142h-39zM83 171v292l-66 27v21h267v-22l-65 -26v-258q0 -133 122 -133q60 0 87 22.5t27 85.5v283l-66 26v22h205v-22l-66 -26v-268q0 -105 -64.5 -157t-162.5 -52q-101 0 -159.5 46t-58.5 139z" />
    <glyph glyph-name="Uogonek.sc" horiz-adv-x="612" 
d="M363 -206q-44 0 -71 21.5t-27 59.5q0 61 85 115q-21 -4 -49 -4q-101 0 -159.5 46t-58.5 139v292l-66 27v21h267v-22l-65 -26v-258q0 -133 122 -133q60 0 87 22.5t27 85.5v283l-66 26v22h205v-22l-66 -26v-268q0 -108 -71 -162l7 -7q-51 -38 -68 -67.5t-17 -61.5
q0 -57 68 -57q15 0 23 2l5 -20q-75 -28 -112 -28z" />
    <glyph glyph-name="V.sc" horiz-adv-x="548" 
d="M329 4l-104 -26l-186 485l-38 26v22h252v-22l-74 -26h-1l138 -364l136 364h-1l-63 26v22h169v-22l-45 -25z" />
    <glyph glyph-name="W.sc" horiz-adv-x="876" 
d="M670 4l-81 -26l-156 384l-146 -358l-81 -26l-161 487l-35 24v22h252v-22l-74 -26h-3l104 -326l141 374h88l148 -372l98 324l-67 26v22h170v-22l-43 -24z" />
    <glyph glyph-name="Wcircumflex.sc" horiz-adv-x="876" 
d="M519 721l108 -182h-40l-114 90l-113 -90h-40l108 182h91zM670 4l-81 -26l-156 384l-146 -358l-81 -26l-161 487l-35 24v22h252v-22l-74 -26h-3l104 -326l141 374h88l148 -372l98 324l-67 26v22h170v-22l-43 -24z" />
    <glyph glyph-name="Wgrave.sc" horiz-adv-x="876" 
d="M466 721l78 -182h-40l-172 142zM670 4l-81 -26l-156 384l-146 -358l-81 -26l-161 487l-35 24v22h252v-22l-74 -26h-3l104 -326l141 374h88l148 -372l98 324l-67 26v22h170v-22l-43 -24z" />
    <glyph glyph-name="Wacute.sc" horiz-adv-x="876" 
d="M408 539l78 182l134 -40l-172 -142h-40zM670 4l-81 -26l-156 384l-146 -358l-81 -26l-161 487l-35 24v22h252v-22l-74 -26h-3l104 -326l141 374h88l148 -372l98 324l-67 26v22h170v-22l-43 -24z" />
    <glyph glyph-name="Wdieresis.sc" horiz-adv-x="876" 
d="M506 606q0 19 26.5 45t45.5 26q21 0 51 -20.5t30 -40.5q0 -19 -27 -44.5t-45 -25.5q-21 0 -51 20.5t-30 39.5zM302 606q0 19 27 45t46 26q20 0 50.5 -20.5t30.5 -40.5q0 -19 -27.5 -44.5t-45.5 -25.5q-21 0 -51 20.5t-30 39.5zM670 4l-81 -26l-156 384l-146 -358l-81 -26
l-161 487l-35 24v22h252v-22l-74 -26h-3l104 -326l141 374h88l148 -372l98 324l-67 26v22h170v-22l-43 -24z" />
    <glyph glyph-name="X.sc" horiz-adv-x="599" 
d="M198 0h-188v22l56 25l175 197l-160 219l-47 26v22h265v-22l-61 -26l93 -128l111 128h-2l-62 26v22h188v-22l-56 -25l-150 -169l180 -247h1l48 -26v-22h-266v22l60 26h2l-115 157l-136 -157h2l62 -26v-22z" />
    <glyph glyph-name="Y.sc" horiz-adv-x="533" 
d="M404 0h-266v22l65 26v153l-163 264l-36 24v22h250v-22l-69 -23l129 -207l124 205l-61 25v22h169v-22l-45 -25l-162 -266v-150l65 -26v-22z" />
    <glyph glyph-name="Yacute.sc" horiz-adv-x="533" 
d="M223 539l78 182l134 -40l-172 -142h-40zM404 0h-266v22l65 26v153l-163 264l-36 24v22h250v-22l-69 -23l129 -207l124 205l-61 25v22h169v-22l-45 -25l-162 -266v-150l65 -26v-22z" />
    <glyph glyph-name="Ycircumflex.sc" horiz-adv-x="533" 
d="M360 721l108 -182h-40l-114 90l-113 -90h-40l108 182h91zM404 0h-266v22l65 26v153l-163 264l-36 24v22h250v-22l-69 -23l129 -207l124 205l-61 25v22h169v-22l-45 -25l-162 -266v-150l65 -26v-22z" />
    <glyph glyph-name="Ydieresis.sc" horiz-adv-x="533" 
d="M337 606q0 19 26.5 45t45.5 26q21 0 51 -20.5t30 -40.5q0 -19 -27 -44.5t-45 -25.5q-21 0 -51 20.5t-30 39.5zM133 606q0 19 27 45t46 26q20 0 50.5 -20.5t30.5 -40.5q0 -19 -27.5 -44.5t-45.5 -25.5q-21 0 -51 20.5t-30 39.5zM404 0h-266v22l65 26v153l-163 264l-36 24
v22h250v-22l-69 -23l129 -207l124 205l-61 25v22h169v-22l-45 -25l-162 -266v-150l65 -26v-22z" />
    <glyph glyph-name="Ygrave.sc" horiz-adv-x="533" 
d="M321 721l78 -182h-40l-172 142zM404 0h-266v22l65 26v153l-163 264l-36 24v22h250v-22l-69 -23l129 -207l124 205l-61 25v22h169v-22l-45 -25l-162 -266v-150l65 -26v-22z" />
    <glyph glyph-name="Z.sc" horiz-adv-x="495" 
d="M454 0h-436v33l287 429h-159l-91 -132h-31l30 181h407v-35l-287 -427h185l98 140h31z" />
    <glyph glyph-name="Zacute.sc" horiz-adv-x="495" 
d="M172 539l78 182l134 -40l-172 -142h-40zM454 0h-436v33l287 429h-159l-91 -132h-31l30 181h407v-35l-287 -427h185l98 140h31z" />
    <glyph glyph-name="Zdotaccent.sc" horiz-adv-x="495" 
d="M178 613q0 22 29.5 50.5t51.5 28.5t55.5 -23t33.5 -44t-30.5 -49.5t-50.5 -28.5q-22 0 -55.5 23t-33.5 43zM454 0h-436v33l287 429h-159l-91 -132h-31l30 181h407v-35l-287 -427h185l98 140h31z" />
    <glyph glyph-name="Zcaron.sc" horiz-adv-x="495" 
d="M417 721l-108 -182h-91l-108 182h40l113 -89l114 89h40zM454 0h-436v33l287 429h-159l-91 -132h-31l30 181h407v-35l-287 -427h185l98 140h31z" />
    <glyph glyph-name="AE.sc" horiz-adv-x="750" 
d="M326 277v174l-126 -174h126zM86 22v-22h-168v22l54 24l306 430l-52 14v21h463l-25 -138h-28l-58 96h-117v-190h57l131 9l-12 -60l-124 8h-52v-193h127l96 110h30l-28 -153h-442v22l82 26v187h-156l-135 -187h2z" />
    <glyph glyph-name="AEacute.sc" horiz-adv-x="750" 
d="M346 539l78 182l134 -40l-172 -142h-40zM326 277v174l-126 -174h126zM86 22v-22h-168v22l54 24l306 430l-52 14v21h463l-25 -138h-28l-58 96h-117v-190h57l131 9l-12 -60l-124 8h-52v-193h127l96 110h30l-28 -153h-442v22l82 26v187h-156l-135 -187h2z" />
    <glyph glyph-name="Eth.sc" horiz-adv-x="622" 
d="M311 55q77 0 104.5 32t27.5 138q0 132 -43 188t-137 56h-27v-178h122v-51h-122v-177q37 -8 75 -8zM35 0v22l65 26v192h-65v51h65v172l-65 27v21h259q144 0 216.5 -63.5t72.5 -186.5t-86.5 -192t-230.5 -69h-231z" />
    <glyph glyph-name="Oslash.sc" horiz-adv-x="627" 
d="M180 278q0 -100 28 -155l156 322q-30 15 -70 15q-70 0 -92 -34.5t-22 -147.5zM335 53q68 0 89.5 35t21.5 145q0 129 -46 184l-161 -334q36 -30 96 -30zM286 -14q-47 0 -89 11l-31 -65h-51l39 81q-115 59 -115 231q0 127 90 204t212 77q29 0 59 -5l29 59h50l-34 -70
q142 -51 142 -243q0 -126 -90 -203t-211 -77z" />
    <glyph glyph-name="Oslashacute.sc" horiz-adv-x="627" 
d="M229 539l78 182l134 -40l-172 -142h-40zM180 278q0 -100 28 -155l156 322q-30 15 -70 15q-70 0 -92 -34.5t-22 -147.5zM335 53q68 0 89.5 35t21.5 145q0 129 -46 184l-161 -334q36 -30 96 -30zM286 -14q-47 0 -89 11l-31 -65h-51l39 81q-115 59 -115 231q0 127 90 204
t212 77q29 0 59 -5l29 59h50l-34 -70q142 -51 142 -243q0 -126 -90 -203t-211 -77z" />
    <glyph glyph-name="Thorn.sc" horiz-adv-x="527" 
d="M307 165q37 0 53.5 17t16.5 63q0 62 -27 90t-114 28v-190q29 -8 71 -8zM305 22v-22h-270v22l65 26v415l-65 27v21h280v-22l-79 -26v-57h51q214 0 214 -132q0 -73 -67 -114.5t-159 -41.5q-3 0 -39 3v-73z" />
    <glyph glyph-name="Dcroat.sc" horiz-adv-x="622" 
d="M311 55q77 0 104.5 32t27.5 138q0 132 -43 188t-137 56h-27v-178h122v-51h-122v-177q37 -8 75 -8zM35 0v22l65 26v192h-65v51h65v172l-65 27v21h259q144 0 216.5 -63.5t72.5 -186.5t-86.5 -192t-230.5 -69h-231z" />
    <glyph glyph-name="Hbar.sc" horiz-adv-x="662" 
d="M434 291v59h-198v-59h198zM297 22v-22h-262v22l65 26v302h-56v51h56v62l-65 27v21h262v-22l-61 -26v-62h198v62l-62 27v21h262v-22l-66 -26v-62h57v-51h-57v-302l66 -26v-22h-262v22l62 26v192h-198v-192z" />
    <glyph glyph-name="IJ.sc" horiz-adv-x="697" 
d="M236 463v-415l66 -26v-22h-267v22l65 26v415l-65 27v21h267v-22zM386 105l48 -80q22 -3 31.5 12.5t9.5 58.5v367l-60 27v21h262v-22l-66 -26v-327q0 -65 -55.5 -107.5t-134.5 -42.5q-35 0 -83 14l25 105h23z" />
    <glyph glyph-name="Ldot.sc" horiz-adv-x="564" 
d="M365 283q0 22 29.5 50.5t51.5 28.5t55.5 -23t33.5 -44t-30.5 -49.5t-50.5 -28.5q-22 0 -55.5 23t-33.5 43zM35 0v22l65 26v415l-65 27v21h270v-22l-69 -26v-420h117l100 129h30l-32 -172h-416z" />
    <glyph glyph-name="Lslash.sc" horiz-adv-x="496" 
d="M35 0v22l65 26v167l-65 -26v44l65 26v204l-65 27v21h270v-22l-69 -26v-149l99 40v-44l-99 -40v-227h117l100 129h30l-32 -172h-416z" />
    <glyph glyph-name="Eng.sc" horiz-adv-x="628" 
d="M390 -144q-40 0 -64 12l20 107h24l48 -80q22 -3 31.5 10.5t9.5 51.5v49l-288 363v-321l65 -26v-22h-204v22l65 26v414l-1 2l-64 26v21h197l230 -292v244l-66 26v22h203v-22l-65 -26v-484q0 -49 -37.5 -86t-103.5 -37z" />
    <glyph glyph-name="OE.sc" horiz-adv-x="806" 
d="M335 53q31 0 47 5v373q-33 29 -88 29q-70 0 -92 -34.5t-22 -147.5q0 -117 37.5 -171t117.5 -54zM742 0h-360q-48 -14 -96 -14q-121 0 -184 66t-63 192q0 127 90 204t212 77q53 0 99 -14h306l-26 -138h-29l-58 96h-115v-181h56l130 8l-11 -60l-124 8h-51v-201h126l97 116
h30z" />
    <glyph glyph-name="Tbar.sc" horiz-adv-x="543" 
d="M414 22v-22h-283v22l74 26v182h-115v51h115v188h-71l-96 -114h-29l29 156h502l-35 -156h-28l-47 114h-90v-188h131v-51h-131v-182z" />
    <glyph glyph-name="germandbls.sc" horiz-adv-x="924" 
d="M673 192l-48 21q-133 52 -133 152q0 70 58.5 115t159.5 45q111 0 163 -21l-23 -125h-29l-57 85q-34 13 -89 13q-29 0 -47.5 -16.5t-18.5 -47.5q0 -30 20.5 -49t66.5 -39l49 -19q79 -30 111 -62.5t32 -87.5q0 -78 -68 -124t-175 -46q-102 0 -159 20l23 128h34l60 -86
q43 -12 96 -12q33 0 52 18t19 45q0 32 -20.5 51t-76.5 42zM220 192l-48 21q-133 52 -133 152q0 70 58.5 115t159.5 45q111 0 163 -21l-23 -125h-29l-57 85q-34 13 -89 13q-29 0 -47.5 -16.5t-18.5 -47.5q0 -30 20.5 -49t66.5 -39l49 -19q79 -30 111 -62.5t32 -87.5
q0 -78 -68 -124t-175 -46q-102 0 -159 20l23 128h34l60 -86q43 -12 96 -12q33 0 52 18t19 45q0 32 -20.5 51t-76.5 42z" />
    <glyph glyph-name="acute.sc" 
d="M147 539l78 182l134 -40l-172 -142h-40z" />
    <glyph glyph-name="grave.sc" 
d="M275 721l78 -182h-40l-172 142z" />
    <glyph glyph-name="hungarumlaut.sc" 
d="M228 539l78 182l134 -40l-172 -142h-40zM67 539l77 182l135 -40l-173 -142h-39z" />
    <glyph glyph-name="circumflex.sc" 
d="M296 721l108 -182h-40l-114 90l-113 -90h-40l108 182h91z" />
    <glyph glyph-name="caron.sc" 
d="M404 721l-108 -182h-91l-108 182h40l113 -89l114 89h40z" />
    <glyph glyph-name="breve.sc" 
d="M249 632q42 0 76 25.5t44 63.5h39q0 -79 -40.5 -130.5t-128.5 -51.5q-45 0 -75.5 14.5t-45.5 41.5t-20.5 56.5t-5.5 69.5h39q9 -40 41 -64.5t77 -24.5z" />
    <glyph glyph-name="tilde.sc" 
d="M331 651q40 0 70 37l24 -11q-20 -65 -56.5 -95t-69.5 -30q-21 0 -65 15t-63 15q-37 0 -72 -38l-23 11q26 63 59.5 93.5t63.5 30.5q21 0 67.5 -14t64.5 -14z" />
    <glyph glyph-name="macron.sc" 
d="M399 642v-15l-14 -63h-284v15l14 63h284z" />
    <glyph glyph-name="dieresis.sc" 
d="M275 606q0 19 26.5 45t45.5 26q21 0 51 -20.5t30 -40.5q0 -19 -27 -44.5t-45 -25.5q-21 0 -51 20.5t-30 39.5zM71 606q0 19 27 45t46 26q20 0 50.5 -20.5t30.5 -40.5q0 -19 -27.5 -44.5t-45.5 -25.5q-21 0 -51 20.5t-30 39.5z" />
    <glyph glyph-name="dotaccent.sc" 
d="M165 613q0 22 29.5 50.5t51.5 28.5t55.5 -23t33.5 -44t-30.5 -49.5t-50.5 -28.5q-22 0 -55.5 23t-33.5 43z" />
    <glyph glyph-name="ring.sc" 
d="M153 633q0 39 29 66.5t69 27.5q41 0 68.5 -25t27.5 -69q0 -37 -29.5 -64.5t-68.5 -27.5q-40 0 -68 24.5t-28 67.5zM214 634q0 -17 10.5 -28.5t26.5 -11.5t27 11.5t11 28.5t-11 28.5t-27 11.5t-26.5 -11.5t-10.5 -28.5z" />
    <glyph glyph-name="cedilla.sc" 
d="M188 -102l41 102h33l-5 -43q47 -12 69.5 -29.5t22.5 -44.5q0 -37 -40 -71t-129 -50l-11 52q45 0 69.5 3t31.5 7t7 12q0 40 -89 62z" />
    <glyph glyph-name="ogonek.sc" 
d="M145 -149q0 46 45.5 85.5t139.5 78.5l14 -13q-51 -38 -68 -67.5t-17 -61.5q0 -57 68 -57q15 0 23 2l5 -20q-75 -28 -112 -28q-44 0 -71 21.5t-27 59.5z" />
    <glyph glyph-name="Dotlessi.sc" horiz-adv-x="337" 
d="M236 463v-415l66 -26v-22h-267v22l65 26v415l-65 27v21h267v-22z" />
    <glyph glyph-name="Tcedilla.sc" horiz-adv-x="543" 
d="M252 0h-121v22l74 26v421h-71l-96 -114h-29l29 156h502l-35 -156h-28l-47 114h-90v-421l74 -26v-22h-129l-5 -43q47 -12 69.5 -29.5t22.5 -44.5q0 -37 -40 -71t-129 -50l-11 52q45 0 69.5 3t31.5 7t7 12q0 40 -89 62z" />
    <glyph glyph-name="commaaccent.sc" 
d="M181 -102q0 18 21.5 38t39.5 20q19 0 48.5 -22.5t29.5 -48.5q0 -40 -24 -81t-86 -93l-24 16q42 54 42 92q0 23 -23.5 44t-23.5 35z" />
    <glyph glyph-name="f_f.sc" horiz-adv-x="980" 
d="M792 22v-22h-270v22l65 26v415l-65 27v21h434l-26 -138h-29l-58 96h-120v-189h43l131 9l-11 -60l-125 7h-38v-188zM305 22v-22h-270v22l65 26v415l-65 27v21h434l-26 -138h-29l-58 96h-120v-189h43l131 9l-11 -60l-125 7h-38v-188z" />
    <glyph glyph-name="f_f_i.sc" horiz-adv-x="1311" 
d="M1210 463v-415l66 -26v-22h-267v22l65 26v415l-65 27v21h267v-22zM792 22v-22h-270v22l65 26v415l-65 27v21h434l-26 -138h-29l-58 96h-120v-189h43l131 9l-11 -60l-125 7h-38v-188zM305 22v-22h-270v22l65 26v415l-65 27v21h434l-26 -138h-29l-58 96h-120v-189h43l131 9
l-11 -60l-125 7h-38v-188z" />
    <glyph glyph-name="f_f_l.sc" horiz-adv-x="1470" 
d="M792 22v-22h-270v22l65 26v415l-65 27v21h434l-26 -138h-29l-58 96h-120v-189h43l131 9l-11 -60l-125 7h-38v-188zM305 22v-22h-270v22l65 26v415l-65 27v21h434l-26 -138h-29l-58 96h-120v-189h43l131 9l-11 -60l-125 7h-38v-188zM1009 0v22l65 26v415l-65 27v21h270
v-22l-69 -26v-420h117l100 129h30l-32 -172h-416z" />
    <glyph glyph-name="fi.sc" horiz-adv-x="824" 
d="M723 463v-415l66 -26v-22h-267v22l65 26v415l-65 27v21h267v-22zM305 22v-22h-270v22l65 26v415l-65 27v21h434l-26 -138h-29l-58 96h-120v-189h43l131 9l-11 -60l-125 7h-38v-188z" />
    <glyph glyph-name="fl.sc" horiz-adv-x="983" 
d="M305 22v-22h-270v22l65 26v415l-65 27v21h434l-26 -138h-29l-58 96h-120v-189h43l131 9l-11 -60l-125 7h-38v-188zM522 0v22l65 26v415l-65 27v21h270v-22l-69 -26v-420h117l100 129h30l-32 -172h-416z" />
    </font>
</defs>
</svg>
