<?xml version="1.0" standalone="no"?>
<!DOCTYPE svg PUBLIC "-//W3C//DTD SVG 1.1//EN" "http://www.w3.org/Graphics/SVG/1.1/DTD/svg11.dtd" >
<svg xmlns="http://www.w3.org/2000/svg" xmlns:xlink="http://www.w3.org/1999/xlink" version="1.1">
<metadata>
Created by FontForge 20170731 at Sun Apr  3 01:41:43 2016
 By Aleksey,,,
Universidad Nacional de Colombia, Unidad de Medios de Comunicacio'n (Unimedios), 2012-2015.
</metadata>
<defs>
<font id="AncizarSans-ExtrablackItalic" horiz-adv-x="543" >
  <font-face 
    font-family="Ancizar Sans Extrablack"
    font-weight="900"
    font-style="italic"
    font-stretch="normal"
    units-per-em="1000"
    panose-1="2 11 11 2 4 3 0 0 0 3"
    ascent="750"
    descent="-250"
    x-height="450"
    cap-height="612"
    bbox="-127 -275 1311 944"
    underline-thickness="0"
    underline-position="0"
    slope="-4"
    unicode-range="U+0020-FB04"
  />
<missing-glyph horiz-adv-x="770" 
d="M135 0v703h500v-703h-500zM385 397l170 256h-340zM185 608v-513l170 256zM415 351l170 -256v513zM215 50h340l-170 256z" />
    <glyph glyph-name="f_f" unicode="ff" horiz-adv-x="565" 
d="M253 497l-3 -47h84q3 43 14 81q-30 6 -50 6t-31.5 -11t-13.5 -29zM253 -85q53 0 54 46l21 369h-84l-18 -338q-2 -38 -12 -68q18 -9 39 -9zM249 -244q-67 0 -83 18l25 99q-35 -58 -96 -87.5t-120 -29.5q-67 0 -83 18l41 156q7 -9 46 -9q26 0 40 8t15 32l17 369h-51l1 96
l57 21q6 64 31.5 113t61.5 75.5t73 39.5t74 13q64 0 97 -11l-19 -83q35 58 89.5 86t110.5 28q62 0 97 -11l-35 -150q-20 10 -63 10q-20 0 -31.5 -11t-13.5 -29l-4 -67h74l-18 -120h-63l-19 -338q-4 -62 -30 -109.5t-64 -74t-78 -39.5t-79 -13z" />
    <glyph glyph-name="fi" unicode="fi" horiz-adv-x="554" 
d="M-25 -244q-67 0 -83 18l41 156q7 -9 46 -9q26 0 40 8t15 32l20 369h-54l1 96l59 22q8 121 90.5 190.5t196.5 69.5q109 0 193 -33l-64 -147q-1 0 -19 7t-53.5 14.5t-74.5 7.5q-36 0 -55 -14.5t-21 -55.5l-2 -37h128l153 20l-33 -470h-190l24 330h-89l-18 -338
q-3 -62 -29 -109.5t-64 -74t-78.5 -39.5t-79.5 -13z" />
    <glyph glyph-name="fl" unicode="fl" horiz-adv-x="597" 
d="M-25 -244q-67 0 -83 18l41 156q7 -9 46 -9q26 0 40 8t15 32l20 369h-54l1 96l59 22q8 121 90.5 190.5t196.5 69.5q68 0 121 -12l88 12q-9 -111 -22 -237t-19.5 -196t-6.5 -104q0 -9 5 -19t16 -10q9 0 45 11l22 -125q-96 -48 -166 -48q-116 0 -116 120q0 70 39 456
q-7 1 -24 1q-36 0 -55 -14.5t-21 -55.5l-2 -37h66l-19 -120h-54l-18 -338q-3 -62 -29 -109.5t-64 -74t-78.5 -39.5t-79.5 -13z" />
    <glyph glyph-name="f_f_i" unicode="ffi" horiz-adv-x="827" 
d="M253 497l-3 -47h84q3 40 16 80q-24 7 -52 7q-20 0 -31.5 -11t-13.5 -29zM253 -79q26 0 39.5 8t14.5 32l21 369h-84l-18 -338q-1 -37 -12 -67q13 -4 39 -4zM249 -244q-67 0 -83 18l25 99q-35 -58 -96 -87.5t-120 -29.5q-67 0 -83 18l41 156q7 -9 46 -9q26 0 40 8t15 32
l17 369h-51l1 96l57 21q6 64 31.5 113t61.5 75.5t73 39.5t74 13q64 0 97 -11l-24 -102q38 64 104 98.5t145 34.5q108 0 194 -33l-64 -147q-1 0 -19 7t-53.5 14.5t-74.5 7.5q-36 0 -55.5 -14.5t-20.5 -55.5l-2 -37h128l152 20l-33 -470h-189l24 330h-89l-18 -338
q-4 -62 -29.5 -109.5t-64 -74t-78.5 -39.5t-79 -13z" />
    <glyph glyph-name="f_f_l" unicode="ffl" horiz-adv-x="868" 
d="M253 497l-3 -47h81q3 42 17 81q-30 6 -50 6t-31.5 -11t-13.5 -29zM250 -79q26 0 40 8t15 32l20 369h-81l-18 -338q-2 -38 -12 -68q10 -3 36 -3zM246 -244q-66 0 -83 18l23 91q-36 -54 -95 -81.5t-116 -27.5q-67 0 -83 18l41 156q7 -9 46 -9q26 0 40 8t15 32l17 369h-51
l1 96l57 21q6 64 31.5 113t61.5 75.5t73 39.5t74 13q64 0 97 -11l-22 -94q38 60 103 92.5t141 32.5q63 0 122 -11l87 11q-9 -112 -21.5 -237t-19 -195.5t-6.5 -104.5q0 -5 1.5 -11t6.5 -12t12 -6q10 0 46 11l21 -125q-94 -48 -165 -48q-116 0 -116 120q0 70 39 456
q-8 1 -24 1q-36 0 -55.5 -14.5t-20.5 -55.5l-2 -37h78l-18 -120h-67l-18 -338q-3 -62 -29 -109.5t-64 -74t-78.5 -39.5t-79.5 -13z" />
    <glyph glyph-name=".notdef" horiz-adv-x="770" 
d="M135 0v703h500v-703h-500zM385 397l170 256h-340zM185 608v-513l170 256zM415 351l170 -256v513zM215 50h340l-170 256z" />
    <glyph glyph-name=".null" horiz-adv-x="0" 
 />
    <glyph glyph-name="nonmarkingreturn" horiz-adv-x="333" 
 />
    <glyph glyph-name="space" unicode=" " horiz-adv-x="185" 
 />
    <glyph glyph-name="exclam" unicode="!" horiz-adv-x="330" 
d="M230 187l-147 -19q20 307 11 446l183 31q-41 -373 -47 -458zM44 46q1 25 44.5 60.5t66.5 35.5q22 0 59.5 -33.5t34.5 -57.5q-1 -18 -42 -50t-61 -32q-22 0 -62.5 30.5t-39.5 46.5z" />
    <glyph glyph-name="quotedbl" unicode="&#x22;" horiz-adv-x="399" 
d="M226 423l1 270h174l-39 -270h-136zM49 423l-7 270h175l-31 -270h-137z" />
    <glyph glyph-name="numbersign" unicode="#" horiz-adv-x="663" 
d="M363 253l28 90h-111l-28 -90h111zM284 0l52 166h-111l-52 -166h-101l52 166h-119l1 15l50 72h95l28 90h-132l1 15l50 74h109l56 180h101l-56 -180h111l56 180h101l-56 -180h133l-1 -15l-50 -74h-110l-28 -90h147l-1 -15l-50 -72h-123l-52 -166h-101z" />
    <glyph glyph-name="dollar" unicode="$" horiz-adv-x="533" 
d="M282 -154h-133l20 137q-84 9 -152 34l38 169q111 -59 200 -61l5 1q6 1 9 2.5t7.5 4.5t6.5 9.5t2 15.5q0 28 -45 51l-96 47q-43 22 -68 66t-25 91q0 76 45.5 131.5t120.5 76.5l-2 138h133l-19 -128q31 -2 64 -8t54 -11.5t41 -11.5t23 -7l-45 -172q-14 11 -77 33.5
t-94 22.5q-37 0 -45 -9q-6 -7 -6 -19t12.5 -26t29.5 -22l101 -51q60 -29 81 -71t21 -97q0 -74 -59 -129t-150 -69z" />
    <glyph glyph-name="percent" unicode="%" horiz-adv-x="733" 
d="M365 481q-4 -75 -55.5 -122.5t-126.5 -47.5q-72 0 -110 39t-34 117q8 73 59 119.5t125 46.5q72 0 111 -38t31 -114zM2 0l595 612h129l-597 -612h-127zM251 473q3 80 -50 80q-38 0 -44 -78q-3 -80 50 -80q39 0 44 78zM693 149q-6 -74 -57.5 -121.5t-125.5 -47.5
q-73 0 -111.5 39t-31.5 116q4 73 55.5 120t126.5 47q72 0 110 -38t34 -115zM575 141q7 80 -47 80q-41 0 -47 -78q-4 -80 49 -80q39 0 45 78z" />
    <glyph glyph-name="ampersand" unicode="&#x26;" horiz-adv-x="642" 
d="M597 -2q0 -112 -132 -204l-88 78q34 45 38 86q0 15 -0.5 19.5t-3.5 12.5t-11 18q-81 -30 -175 -30q-108 0 -163.5 42t-55.5 118q0 53 26.5 89.5t81.5 70.5q-31 32 -45 61.5t-14 70.5q0 83 68.5 142.5t196.5 59.5q28 0 72.5 -6.5t65.5 -18.5l-52 -131q-18 11 -54.5 19.5
t-54.5 8.5q-21 0 -35.5 -10t-14.5 -25q0 -17 20 -36t62 -52.5t74 -69.5q34 -38 56 -65q1 5 1 14q0 66 -54 127l167 69q17 -15 33 -58.5t16 -95.5q0 -103 -61 -182q21 -32 28.5 -58t7.5 -64zM280 102q10 0 28 2q-10 10 -15 16q-38 42 -99 101q-10 -16 -10 -46q0 -35 29.5 -54
t66.5 -19z" />
    <glyph glyph-name="quotesingle" unicode="'" horiz-adv-x="214" 
d="M47 423l-5 270h175l-37 -270h-133z" />
    <glyph glyph-name="parenleft" unicode="(" horiz-adv-x="347" 
d="M330 -99l-67 -67q-102 58 -156.5 190.5t-45.5 277.5q9 138 82.5 266.5t182.5 202.5l62 -67q-87 -68 -149.5 -180t-69.5 -222q-9 -124 35 -228.5t126 -172.5z" />
    <glyph glyph-name="parenright" unicode=")" horiz-adv-x="347" 
d="M17 705l67 67q102 -58 156.5 -190.5t45.5 -277.5q-9 -138 -82.5 -266.5t-182.5 -202.5l-62 67q87 68 149.5 180t69.5 222q9 124 -35 228.5t-126 172.5z" />
    <glyph glyph-name="asterisk" unicode="*" horiz-adv-x="375" 
d="M229 680q13 -19 9 -69q-3 -39 -13 -67l-39 -4q0 70 -45 118zM362 578q-8 -8 -16 -14.5t-14 -12t-13 -10t-11.5 -7t-11.5 -5.5t-10 -4.5t-10.5 -3.5t-9.5 -2.5t-10.5 -2.5t-10.5 -2l-20 21q10 7 19 15.5t14.5 14t14 19t11 17t13 22.5t11.5 21zM70 606q49 -9 71 -22.5
t42 -41.5l-13 -35q-48 21 -123 11zM332 408q-19 4 -32.5 8t-24 9.5t-16.5 8t-12.5 10t-8 8.5t-7.5 11.5t-7 11.5l10 32q56 -23 131 -11zM45 442q23 20 40 32t25 15.5t24 8.5t26 9l23 -31q-45 -33 -76 -97zM174 340q-10 25 -6 70q3 32 13 58l35 9q4 -68 48 -120z" />
    <glyph glyph-name="plus" unicode="+" horiz-adv-x="533" 
d="M462 211h-141l-10 -144h-120l10 144h-141l9 112h140l10 141h120l-10 -141h142z" />
    <glyph glyph-name="comma" unicode="," horiz-adv-x="254" 
d="M9 81q4 33 34.5 59.5t62.5 26.5q37 0 71 -35t31 -84q-11 -77 -122 -212l-91 35q7 11 19.5 30t17 26.5t12 21t10 21t5.5 18t3 21.5q0 9 -27 32.5t-26 39.5z" />
    <glyph glyph-name="hyphen" unicode="-" horiz-adv-x="366" 
d="M343 302l-6 -31l-40 -85h-274l6 31l52 85h262z" />
    <glyph glyph-name="period" unicode="." horiz-adv-x="254" 
d="M4 64q3 28 45 64t71 36q30 0 72 -29t41 -56q-3 -27 -46 -63t-69 -36q-31 0 -73 29t-41 55z" />
    <glyph glyph-name="slash" unicode="/" horiz-adv-x="397" 
d="M21 -110l250 803h105l-250 -803h-105z" />
    <glyph glyph-name="zero" unicode="0" horiz-adv-x="533" 
d="M526 370q2 -191 -79.5 -290.5t-208.5 -99.5q-231 0 -231 251q0 96 18 169.5t46 116.5t68 69.5t78.5 36t82.5 9.5q231 0 226 -262zM253 113q70 6 70 236q2 34 1.5 61.5t-4 47t-13.5 30t-28 10.5q-66 0 -66 -252q0 -5 -0.5 -21t0 -25t1 -24t3 -24t7 -18.5t12 -14.5t17.5 -6
z" />
    <glyph glyph-name="one" unicode="1" horiz-adv-x="533" 
d="M412 0h-206l29 417l-133 -55l-33 164q8 3 117.5 38.5t144.5 47.5h124z" />
    <glyph glyph-name="two" unicode="2" horiz-adv-x="533" 
d="M462 0h-434l7 145q149 116 204.5 176t54.5 99q0 24 -22 36.5t-54 12.5q-57 0 -129 -35l-33 152q115 46 232 46q104 0 159 -45.5t55 -127.5q0 -139 -215 -302l212 4z" />
    <glyph glyph-name="three" unicode="3" horiz-adv-x="533" 
d="M177 -20q-105 0 -162 25l44 164q81 -27 127 -27q92 0 92 44q0 10 -1.5 16t-6.5 14t-18 12t-34 4q-60 0 -82 -6l-22 145q174 0 174 61q0 41 -54 41q-26 0 -65 -12t-65 -28l-31 150q41 23 106 36t121 13q95 0 147.5 -38.5t52.5 -103.5q0 -112 -119 -155q106 -31 106 -141
q0 -101 -88 -157.5t-222 -56.5z" />
    <glyph glyph-name="four" unicode="4" horiz-adv-x="533" 
d="M276 220l12 173l-127 -173h115zM504 77h-52l-5 -77h-187l5 77h-296l10 138l306 397h205l-28 -392h79z" />
    <glyph glyph-name="five" unicode="5" horiz-adv-x="533" 
d="M176 -20q-15 0 -28 0.5t-22.5 1t-22 2t-18 2t-19 3t-17 3.5t-20 4.5t-20.5 4.5l41 156q93 -30 152 -30q17 0 28.5 1.5t26.5 6.5t23 17.5t8 32.5q0 54 -107 54q-59 0 -121 -11l43 384h409l-33 -147h-219l-9 -80q25 6 49 6q88 0 139.5 -42.5t52.5 -120.5
q-1 -125 -91.5 -186.5t-224.5 -61.5z" />
    <glyph glyph-name="six" unicode="6" horiz-adv-x="533" 
d="M515 226q0 -42 -15.5 -83t-46 -78.5t-85.5 -61t-126 -23.5q-224 0 -224 259q0 90 21 160t54.5 113t80 70.5t93.5 38.5t99 11q90 0 145 -21l-34 -162q-78 26 -122 26q-50 0 -78.5 -17t-43.5 -68q42 26 101 26q181 0 181 -190zM273 113q18 0 33 21t15 63q0 32 -16.5 53.5
t-41.5 21.5q-24 0 -45 -12v-41q1 -33 4.5 -53.5t16 -36.5t34.5 -16z" />
    <glyph glyph-name="seven" unicode="7" horiz-adv-x="533" 
d="M268 -27l-203 62l224 407h-252l35 170h462l-12 -143q-16 -31 -42.5 -82.5t-82.5 -160t-93 -181t-36 -72.5z" />
    <glyph glyph-name="eight" unicode="8" horiz-adv-x="533" 
d="M240 -20q-118 0 -176 43t-58 115q0 95 98 160q-57 52 -57 136q0 95 74.5 146.5t182.5 50.5q104 1 158.5 -37.5t54.5 -111.5q0 -34 -22.5 -75t-69.5 -73q49 -32 68.5 -65t19.5 -92q0 -83 -76 -140t-197 -57zM234 464q0 -15 13.5 -27t52.5 -33q34 30 34 63q0 15 -14.5 24
t-33.5 9q-21 0 -33.5 -7.5t-15.5 -14.5t-3 -14zM266 112q17 0 29.5 4.5t18 10.5t8.5 13.5t3 11v7.5q0 5 -6 12.5t-29 22t-59 29.5q-35 -27 -35 -64q0 -20 20 -33.5t50 -13.5z" />
    <glyph glyph-name="nine" unicode="9" horiz-adv-x="533" 
d="M271 336q25 0 44 12q1 12 1 41q-2 51 -13 78.5t-43 27.5q-20 0 -34 -20t-14 -59q0 -80 59 -80zM173 -20q-86 0 -155 21l32 155q40 -19 112 -19q45 0 77 15.5t52 59.5q-42 -20 -91 -20q-95 0 -138.5 52.5t-43.5 141.5q0 42 15.5 83t46 78.5t86 61t126.5 23.5
q224 0 224 -259q0 -89 -22.5 -159.5t-58 -113t-82 -71t-91 -39t-89.5 -10.5z" />
    <glyph glyph-name="colon" unicode=":" horiz-adv-x="254" 
d="M13 344q3 28 45 64t71 36q30 0 72 -29t41 -56q-3 -27 -46 -63t-69 -36q-31 0 -73 29t-41 55zM-7 64q3 28 45 64t71 36q30 0 72 -29t41 -56q-3 -27 -46 -63t-69 -36q-31 0 -73 29t-41 55z" />
    <glyph glyph-name="semicolon" unicode=";" horiz-adv-x="254" 
d="M7 344q3 28 45 64t71 36q30 0 72 -29t41 -56q-3 -27 -46 -63t-69 -36q-31 0 -73 29t-41 55zM-2 81q4 33 34.5 59.5t62.5 26.5q37 0 71 -35t31 -84q-11 -77 -122 -212l-91 35q7 11 19.5 30t17 26.5t12 21t10 21t5.5 18t3 21.5q0 9 -27 32.5t-26 39.5z" />
    <glyph glyph-name="equal" unicode="=" horiz-adv-x="533" 
d="M453 404l2 -15l-26 -98h-339l-2 15l26 98h339zM445 238l2 -15l-26 -98h-339l-2 15l26 98h339z" />
    <glyph glyph-name="question" unicode="?" horiz-adv-x="473" 
d="M299 203l-173 -36q-27 40 -29 71q2 30 17 49.5t57 52.5q49 39 67.5 63.5t19.5 59.5q1 11 -14 26.5t-33 15.5q-33 0 -54.5 -8t-73.5 -38l-49 129q51 27 114 45t103 18q96 0 156 -49t53 -127q-2 -67 -115 -150q-33 -24 -46 -39t-14 -31q1 -5 6.5 -24t7.5 -28zM98 39
q3 29 43 65t66 36q22 0 58.5 -34t34.5 -61q-1 -27 -43.5 -63.5t-64.5 -36.5q-25 0 -60 34t-34 60z" />
    <glyph glyph-name="at" unicode="@" horiz-adv-x="833" 
d="M364 -151q-54 0 -102.5 9.5t-99 36.5t-85.5 68.5t-54 111.5t-12 160q6 92 37 167t77.5 124t106.5 83t121 48.5t124 14.5q162 0 260 -81.5t88 -214.5q-10 -128 -110 -220t-235 -117l-24 125q-40 -55 -65 -77t-62 -22q-54 0 -84 41.5t-23 134.5q7 94 72 166.5t180 72.5
q33 0 78.5 -12.5t57.5 -14.5l-19 -270q83 61 90 187q3 83 -60 130.5t-172 47.5q-117 0 -195 -77.5t-92 -211.5q-13 -150 54 -220.5t183 -70.5q82 0 177 39l35 -104q-129 -54 -247 -54zM394 180q49 0 64 98l7 105q-8 1 -26 1q-36 0 -49.5 -31.5t-21.5 -104.5q-9 -68 26 -68z
" />
    <glyph glyph-name="A" unicode="A" horiz-adv-x="577" 
d="M325 217l-33 210l-69 -210h102zM360 0l-11 69h-175l-23 -69h-193l230 612h266l106 -612h-200z" />
    <glyph glyph-name="B" unicode="B" horiz-adv-x="564" 
d="M276 489h-16l-9 -117h19q73 0 73 51q0 28 -19.5 47t-47.5 19zM264 125q30 0 53 15.5t23 43.5q0 29 -22 50.5t-64 21.5q0 -1 -12 -1l-10 -129zM33 0l43 612h229q113 0 166.5 -36t53.5 -114q0 -75 -72 -131q88 -34 88 -131q0 -98 -85 -149t-199 -51h-224z" />
    <glyph glyph-name="C" unicode="C" horiz-adv-x="488" 
d="M442 152l22 -136q-73 -33 -181 -33q-128 0 -202 80.5t-74 216.5q0 68 22.5 130t65 112.5t112 80t156.5 29.5q79 0 136 -23l-41 -157q-67 21 -123 21q-122 0 -122 -184q0 -73 39.5 -112.5t89.5 -39.5q58 0 100 15z" />
    <glyph glyph-name="D" unicode="D" horiz-adv-x="632" 
d="M76 612h251q128 0 204.5 -70.5t78.5 -207.5q-2 -142 -99 -238t-257 -96h-221zM269 462l-25 -312h9q63 0 104.5 37.5t41.5 121.5q0 81 -33.5 117t-79.5 36h-17z" />
    <glyph glyph-name="E" unicode="E" horiz-adv-x="518" 
d="M33 0l43 612h426l-34 -147l-202 3l-6 -86h205l-36 -148l-179 6l-6 -89l239 3l-34 -154h-416z" />
    <glyph glyph-name="F" unicode="F" horiz-adv-x="496" 
d="M426 215l-177 6l-16 -221h-200l43 612h426l-34 -147l-202 3l-7 -105h201z" />
    <glyph glyph-name="G" unicode="G" horiz-adv-x="575" 
d="M515 21q-37 -17 -100 -29t-113 -12q-146 0 -220.5 76.5t-74.5 224.5q0 44 12.5 91.5t40.5 95t67.5 84.5t98.5 60t128 23q146 0 205 -39l-38 -161q-91 38 -184 38q-64 0 -95 -45t-31 -153q0 -70 35.5 -106.5t90.5 -36.5h12l11 172h172z" />
    <glyph glyph-name="H" unicode="H" horiz-adv-x="651" 
d="M375 0l16 225h-142l-16 -225h-200l43 612h200l-16 -221h142l16 221h201l-43 -612h-201z" />
    <glyph glyph-name="I" unicode="I" horiz-adv-x="309" 
d="M276 612l-43 -612h-200l43 612h200z" />
    <glyph glyph-name="J" unicode="J" horiz-adv-x="377" 
d="M344 612l-30 -436q-6 -87 -72.5 -141.5t-156.5 -54.5q-35 0 -72 8t-52 16l43 160q22 -18 58 -18q25 0 38.5 13.5t16.5 56.5l26 396h201z" />
    <glyph glyph-name="K" unicode="K" horiz-adv-x="632" 
d="M397 0l-142 321l-23 -321h-199l43 612h199l-19 -276l179 276h221l-204 -284l174 -328h-229z" />
    <glyph glyph-name="L" unicode="L" horiz-adv-x="484" 
d="M33 0l43 612h200l-32 -454l241 3l-36 -161h-416z" />
    <glyph glyph-name="M" unicode="M" horiz-adv-x="863" 
d="M309 0l-74 336l-44 -336h-183l92 612h259l70 -291l100 291h279l-7 -612h-199l6 348l-121 -348h-178z" />
    <glyph glyph-name="N" unicode="N" horiz-adv-x="645" 
d="M390 0l-152 295l-20 -295h-185l44 612h200l136 -293l14 293h186l-41 -612h-182z" />
    <glyph glyph-name="O" unicode="O" horiz-adv-x="628" 
d="M621 353q0 -162 -94 -267.5t-243 -105.5q-132 0 -204.5 77t-72.5 202q0 162 94 267.5t243 105.5q132 0 204.5 -77t72.5 -202zM311 133q24 0 41 8.5t31.5 30.5t22 65.5t7.5 107.5q0 54 -26.5 94t-74.5 40q-50 0 -74.5 -44.5t-24.5 -167.5q0 -59 25.5 -96.5t72.5 -37.5z
" />
    <glyph glyph-name="P" unicode="P" horiz-adv-x="562" 
d="M287 480h-22l-10 -157h26q75 0 75 70q0 35 -19.5 61t-49.5 26zM286 178h-41l-12 -178h-200l40 612h242q121 0 183 -52t62 -145q0 -102 -74.5 -169.5t-199.5 -67.5z" />
    <glyph glyph-name="Q" unicode="Q" horiz-adv-x="628" 
d="M444 -234q-49 0 -133 36.5t-114 36.5q-13 0 -22.5 -2.5t-16.5 -6.5t-25 -13t-38 -18l-22 117l4 2l-4 3q86 34 146 65q-102 18 -157 91.5t-55 181.5q0 162 94 267.5t243 105.5q132 0 204.5 -77t72.5 -202q0 -107 -43 -192t-120 -133q-42 -31 -153 -89q123 -26 161 -26
q55 0 120 37l-7 -144q-18 -14 -55.5 -27t-79.5 -13zM311 133q24 0 41 8.5t31.5 30.5t22 65.5t7.5 107.5q0 54 -26.5 94t-74.5 40q-50 0 -74.5 -44.5t-24.5 -167.5q0 -59 25.5 -96.5t72.5 -37.5z" />
    <glyph glyph-name="R" unicode="R" horiz-adv-x="577" 
d="M278 480h-13l-8 -129h17q45 0 61 18t16 48q0 28 -22.5 45.5t-50.5 17.5zM283 204h-36l-14 -204h-200l40 612h247q114 0 174.5 -47.5t60.5 -133.5q0 -113 -94 -178l121 -253h-216z" />
    <glyph glyph-name="S" unicode="S" horiz-adv-x="515" 
d="M233 209l-96 47q-43 22 -68 66t-25 91q0 97 71 158t176 61q29 0 59 -3.5t55.5 -9t44 -10.5t35.5 -10t19 -6l-45 -172q-14 11 -77 33.5t-94 22.5q-37 0 -45 -9q-6 -7 -6 -19t12.5 -26t29.5 -22l101 -51q60 -29 81 -71t21 -97q0 -85 -75.5 -143.5t-185.5 -58.5
q-111 0 -211 37l38 169q111 -59 200 -61l6 1q5 1 8 2.5t7.5 4.5t6.5 9.5t2 15.5q0 28 -45 51z" />
    <glyph glyph-name="T" unicode="T" horiz-adv-x="502" 
d="M501 453l-137 2l-32 -455h-200l31 456l-165 -3l34 159h502z" />
    <glyph glyph-name="U" unicode="U" horiz-adv-x="646" 
d="M75 612h200q-29 -375 -29 -401q0 -44 24 -63t55 -19q63 0 67 84l30 399h192l-27 -376q-8 -119 -82 -187.5t-212 -68.5q-117 0 -181.5 53t-64.5 151q0 43 28 428z" />
    <glyph glyph-name="V" unicode="V" horiz-adv-x="590" 
d="M387 0h-239l-134 612h209l71 -387l140 387h197z" />
    <glyph glyph-name="W" unicode="W" horiz-adv-x="872" 
d="M490 0l-57 274l-101 -274h-227l-72 612h213l27 -309l104 309h178l64 -312l71 312h184l-154 -612h-230z" />
    <glyph glyph-name="X" unicode="X" horiz-adv-x="566" 
d="M343 0l-87 160l-89 -160h-220l217 331l-153 281h222l74 -138l78 138h221l-206 -308l164 -304h-221z" />
    <glyph glyph-name="Y" unicode="Y" horiz-adv-x="523" 
d="M361 215h-3l-15 -215h-200l15 215h-2l-152 397h211l71 -191l88 191h202z" />
    <glyph glyph-name="Z" unicode="Z" horiz-adv-x="548" 
d="M493 0h-473l4 118l250 332h-231l23 162h463l-5 -133l-249 -321h243z" />
    <glyph glyph-name="bracketleft" unicode="[" horiz-adv-x="347" 
d="M321 -55l-4 -86h-242l62 889h241l-4 -86h-135l-49 -717h131z" />
    <glyph glyph-name="backslash" unicode="\" horiz-adv-x="397" 
d="M182 693l138 -803h-105l-138 803h105z" />
    <glyph glyph-name="bracketright" unicode="]" horiz-adv-x="347" 
d="M210 -141h-241l4 86h135l49 717h-131l4 86h242z" />
    <glyph glyph-name="underscore" unicode="_" horiz-adv-x="440" 
d="M430 -101v-109h-440v109h440z" />
    <glyph glyph-name="grave" unicode="`" horiz-adv-x="307" 
d="M310 497h-160l-152 145l193 33z" />
    <glyph glyph-name="a" unicode="a" horiz-adv-x="532" 
d="M314 -20l-8 70q-82 -70 -155 -70q-64 0 -104 46t-40 138q0 136 84 221t209 85q139 0 215 -39l-30 -431zM242 112q58 0 73 168l1 -3l6 63q-14 4 -27 4q-17 0 -27.5 -2t-23 -11t-19.5 -26.5t-12 -50.5t-5 -81q0 -17 3 -30t7 -18.5t9.5 -8.5t8 -3.5t6.5 -0.5z" />
    <glyph glyph-name="b" unicode="b" horiz-adv-x="519" 
d="M253 109q37 0 48.5 39t11.5 121q0 43 -7.5 57.5t-24.5 14.5q-49 0 -60 -122l-8 -106q16 -4 40 -4zM224 -17q-46 0 -105 16l-70 -23l-33 20l51 713l190 25l-23 -321q60 57 135 57q41 0 70.5 -15t45 -40.5t22 -54t6.5 -62.5q0 -70 -20 -126.5t-50.5 -90.5t-70.5 -57
t-76.5 -32t-71.5 -9z" />
    <glyph glyph-name="c" unicode="c" horiz-adv-x="385" 
d="M373 33q-79 -53 -181 -53q-35 0 -65.5 10t-57.5 32.5t-42.5 64.5t-15.5 100q0 136 71 209.5t183 73.5q28 0 72 -10.5t67 -27.5l-59 -132q0 -2 -1 -2l1 2q-4 7 -34 22t-48 15h-8.5t-12.5 -7t-15.5 -20t-11 -43.5t-5.5 -72.5q0 -27 10 -44t19 -22t17 -5q39 0 77 27z" />
    <glyph glyph-name="d" unicode="d" horiz-adv-x="522" 
d="M293 -20l-2 64q-63 -61 -140 -61q-41 0 -70.5 14.5t-44.5 40.5t-21.5 54.5t-6.5 62.5q0 86 29.5 151t75.5 98.5t92.5 49.5t91.5 16q13 0 20 -1l17 241l190 25l-49 -735zM239 112q46 0 60 107l8 122q-15 4 -38 4q-37 0 -49 -40t-12 -121q0 -43 7.5 -57.5t23.5 -14.5z" />
    <glyph glyph-name="e" unicode="e" horiz-adv-x="441" 
d="M211 -20q-91 0 -144 50.5t-53 152.5q0 64 17 115.5t43 82.5t61.5 52t69 29t68.5 8q76 0 118.5 -35.5t42.5 -93.5q0 -66 -61.5 -115.5t-159.5 -64.5q5 -20 15.5 -31t20 -13t24.5 -2q46 0 106 43l40 -109q-99 -69 -208 -69zM243 354q-53 0 -49 -101q69 14 69 70
q0 31 -20 31z" />
    <glyph glyph-name="f" unicode="f" horiz-adv-x="292" 
d="M-25 -244q-67 0 -83 18l41 156q7 -9 46 -9q26 0 40 8t15 32l20 369h-54l1 96l59 22q4 56 21.5 102t42 74.5t56 48t62 27.5t60.5 8q64 0 97 -11l-35 -150q-18 10 -63 10q-42 0 -44 -40l-4 -67h74l-18 -120h-63l-20 -338q-4 -62 -30 -109.5t-64 -74t-78 -39.5t-79 -13z" />
    <glyph glyph-name="g" unicode="g" horiz-adv-x="418" 
d="M223 251q10 0 16.5 13.5t6.5 27.5q0 47 -8 58t-27 11q-6 0 -10.5 -1.5t-7.5 -3t-5 -5t-3 -6t-1.5 -7t-0.5 -7v-7.5v-6q0 -27 1.5 -38t10.5 -20t28 -9zM419 -19q0 -91 -85.5 -164t-203.5 -73q-96 0 -142 32.5t-46 85.5q0 42 22.5 74t81.5 65q-29 29 -27 68q-1 17 15.5 43
t44.5 49q-69 32 -69 132q0 81 69 129t162 48q38 0 62 -5l87 130l94 -94l-12 -28l-83 -51q30 -36 30 -105q0 -73 -64 -124t-170 -51q0 -11 3 -15t23.5 -8.5t68.5 -7.5q81 -6 110 -39t29 -91zM171 -122q93 0 93 45q0 20 -17 25q-4 2 -85 10q-28 4 -41 7q-19 -19 -19 -41
q0 -46 69 -46z" />
    <glyph glyph-name="h" unicode="h" horiz-adv-x="533" 
d="M289 322q-9 0 -15 -2t-17 -10.5t-19.5 -32t-14.5 -59.5l-16 -218h-190l50 709l195 25l-26 -345q66 81 144 81q128 0 128 -134q0 -45 -18.5 -181.5t-19.5 -154.5h-190q34 233 34 284q0 38 -25 38z" />
    <glyph glyph-name="i" unicode="i" horiz-adv-x="256" 
d="M42 584q0 29 36.5 68t70.5 39q29 0 69 -28.5t40 -56.5q0 -30 -37.5 -68.5t-69.5 -38.5q-30 0 -69.5 28.5t-39.5 56.5zM49 445l190 25l-33 -470h-189z" />
    <glyph glyph-name="j" unicode="j" horiz-adv-x="240" 
d="M33 584q0 29 36.5 68t70.5 39q30 0 69.5 -28.5t39.5 -56.5q0 -30 -37.5 -68.5t-69.5 -38.5q-30 0 -69.5 28.5t-39.5 56.5zM-108 -230l-16 165q19 -4 62 -4q63 0 70 61l33 452l190 24l-31 -450q-10 -122 -82 -186t-226 -62z" />
    <glyph glyph-name="k" unicode="k" horiz-adv-x="508" 
d="M17 0l52 717l190 14l-53 -731h-189zM340 -13q-46 67 -116 256q77 98 124 207h191q-9 -36 -48.5 -97.5t-87.5 -115.5q85 -155 132 -211z" />
    <glyph glyph-name="l" unicode="l" horiz-adv-x="303" 
d="M281 153l21 -125q-96 -48 -166 -48q-116 0 -116 120q0 53 8 150.5t23 246.5t21 213l190 25q-9 -106 -22 -242.5t-19.5 -211.5t-6.5 -110q0 -9 5 -19t16 -10q7 0 46 11z" />
    <glyph glyph-name="m" unicode="m" horiz-adv-x="808" 
d="M219 148l-10 -148h-192l31 445l177 25l5 -91q72 91 152 91q105 0 126 -89q70 89 150 89q129 0 129 -134q0 -45 -21 -181t-22 -155h-190q2 15 12.5 79.5t18.5 123t8 81.5q0 38 -26 38q-9 0 -15 -2t-16 -10t-18.5 -30t-14.5 -57q-1 -8 -3 -24.5t-3 -24.5q-1 -4 -1.5 -13
t-0.5 -13l-1 3q-17 -121 -18 -151l-190 3q31 213 31 283q0 36 -25 36q-9 0 -14.5 -1t-16.5 -10.5t-18 -26t-14 -52t-10 -84.5z" />
    <glyph glyph-name="n" unicode="n" horiz-adv-x="532" 
d="M289 322q-8 0 -13.5 -1t-15.5 -9t-17.5 -23t-14.5 -46.5t-11 -75.5l-10 -167h-190l31 445l177 25l6 -85v-2q69 87 149 87q128 0 128 -134q0 -45 -18.5 -181.5t-19.5 -154.5h-190q34 233 34 284q0 38 -25 38z" />
    <glyph glyph-name="o" unicode="o" horiz-adv-x="476" 
d="M467 255q0 -112 -68 -193.5t-190 -81.5q-87 0 -143.5 51.5t-56.5 163.5q0 111 69 193t189 82q200 0 200 -215zM243 98q11 0 18 14t9.5 42.5t3 49t0.5 56.5v6q0 51 -8.5 68.5t-32.5 17.5q-11 0 -18 -14.5t-9.5 -43.5t-3 -49t-0.5 -55v-6q0 -55 7 -70.5t34 -15.5z" />
    <glyph glyph-name="p" unicode="p" horiz-adv-x="522" 
d="M255 109q37 0 48.5 39t11.5 121q0 43 -7.5 57.5t-24.5 14.5q-41 0 -55 -83l-10 -146q16 -3 37 -3zM196 -219l-190 -25l42 689l180 25l3 -62q64 62 140 62q41 0 70.5 -15t45 -40.5t22 -54t6.5 -62.5q0 -70 -20 -126.5t-50.5 -90.5t-70.5 -57t-76.5 -32t-71.5 -9
q-11 0 -17 1z" />
    <glyph glyph-name="q" unicode="q" horiz-adv-x="517" 
d="M266 -244l20 283q-61 -56 -135 -56q-41 0 -70.5 14.5t-44.5 40.5t-21.5 54.5t-6.5 62.5q0 86 29.5 151t75.5 98.5t92.5 49.5t91.5 16q31 0 77 -11l99 18l31 -34l-48 -662zM239 112q45 0 59 100l9 130q-17 3 -38 3q-37 0 -49 -40t-12 -121q0 -43 7.5 -57.5t23.5 -14.5z
" />
    <glyph glyph-name="r" unicode="r" horiz-adv-x="366" 
d="M312 281q-46 0 -64.5 -19.5t-25.5 -63.5l-15 -198h-190l34 445l174 25l5 -120q24 58 62 89t70 31q29 0 41 -4l-38 -194q-18 9 -53 9z" />
    <glyph glyph-name="s" unicode="s" horiz-adv-x="392" 
d="M155 -20q-43 0 -88.5 11.5t-73.5 28.5l48 142q70 -50 129 -50q25 0 25 14q0 3 -1.5 5t-5.5 4t-7.5 3t-12 4.5t-14.5 5.5l-51 24q-43 23 -63.5 55.5t-20.5 83.5q0 66 54 112.5t155 46.5q93 0 157 -33l-42 -131q-63 42 -123 42q-24 0 -24 -16q0 -12 53 -28l38 -13
q46 -22 67.5 -51t21.5 -85q0 -28 -11.5 -56.5t-35.5 -56t-69.5 -45t-104.5 -17.5z" />
    <glyph glyph-name="t" unicode="t" horiz-adv-x="343" 
d="M343 38q-87 -58 -178 -58q-61 0 -102 36.5t-41 113.5q0 44 21 200h-55l9 110l62 10q1 7 4.5 42l5.5 55l191 25q-3 -23 -8 -64t-7 -58h114l-15 -120h-112l-4 -38t-3.5 -32.5t-2.5 -26t-1.5 -20.5t-1.5 -13.5t-1 -7.5t0 -1q1 -22 12 -34.5t30 -12.5q9 0 26.5 4.5t24.5 9.5z
" />
    <glyph glyph-name="u" unicode="u" horiz-adv-x="534" 
d="M305 -20l-9 79v7q-70 -86 -149 -86q-130 0 -130 134q0 46 17.5 180.5t18.5 148.5l193 29q-1 -9 -7.5 -58t-12 -90.5t-10.5 -88t-5 -66.5q0 -14 9.5 -27.5t20.5 -13.5q12 0 19 2t17.5 11t18.5 32t13 61l15 211l193 25l-33 -470z" />
    <glyph glyph-name="v" unicode="v" horiz-adv-x="454" 
d="M303 0h-256l-34 444l194 30l6 -301q65 159 75 277h181q-29 -237 -166 -450z" />
    <glyph glyph-name="w" unicode="w" horiz-adv-x="725" 
d="M358 0l-13 90q-43 -72 -71 -91l-209 1l-32 439l193 30l7 -312q48 82 70 201l3 -1l-14 93h188l24 -275q54 131 53 275h181q-4 -59 -16 -114.5t-33.5 -108.5t-36 -83.5t-42.5 -81.5t-34 -62h-218z" />
    <glyph glyph-name="x" unicode="x" horiz-adv-x="443" 
d="M244 -13q-11 31 -58 116q-43 -99 -45 -103h-175q59 129 147 239q-79 147 -101 199l191 26q10 -35 51 -113q3 6 18 41t28 58h173q-97 -164 -150 -225q93 -167 112 -212z" />
    <glyph glyph-name="y" unicode="y" horiz-adv-x="449" 
d="M-1 -244q-74 0 -107 17l21 156q21 -8 65 -8q95 0 154 72h-91l-45 455l187 21l28 -318q32 92 78 299h181q-4 -40 -13.5 -90.5t-28.5 -119t-44 -133.5t-63 -129.5t-83 -113t-107 -78.5t-132 -30z" />
    <glyph glyph-name="z" unicode="z" horiz-adv-x="429" 
d="M388 0h-389l4 76l176 236l-153 -9l17 147h396l-2 -75l-178 -235l145 8z" />
    <glyph glyph-name="braceleft" unicode="{" horiz-adv-x="347" 
d="M69 303l2 53q35 -8 56.5 10t25.5 48q2 23 -4.5 101t-3.5 127q6 59 69 94.5t147 35.5l-4 -90q-38 0 -66.5 -17.5t-29.5 -50.5q-3 -37 -1 -114.5t0 -105.5q-2 -33 -25 -58t-53 -33q28 -8 48 -33t18 -58q-2 -28 -15.5 -105t-16.5 -113q-1 -33 23.5 -50.5t61.5 -17.5l-4 -90
q-85 0 -144 36t-53 94q3 49 18.5 126.5t17.5 99.5q2 29 -17 47t-52 10z" />
    <glyph glyph-name="bar" unicode="|" horiz-adv-x="378" 
d="M100 -220l64 913h114l-64 -913h-114z" />
    <glyph glyph-name="braceright" unicode="}" horiz-adv-x="347" 
d="M165 306q-28 8 -48 33t-18 58q2 28 15.5 105t16.5 113q1 33 -23.5 50.5t-61.5 17.5l4 90q85 0 144 -36t53 -94q-3 -49 -18.5 -126.5t-17.5 -99.5q-2 -29 17 -47t52 -10l-2 -54l-2 -53q-35 8 -56.5 -10t-25.5 -48q-2 -23 4.5 -101t3.5 -127q-6 -59 -69 -94.5t-147 -35.5
l4 90q38 0 66.5 17.5t29.5 50.5q3 37 1 114.5t0 105.5q2 33 25 58t53 33z" />
    <glyph glyph-name="exclamdown" unicode="&#xa1;" horiz-adv-x="330" 
d="M274 411q-1 -25 -44.5 -60.5t-66.5 -35.5q-22 0 -59.5 33.5t-34.5 57.5q1 18 42 50t61 32q22 0 62.5 -30.5t39.5 -46.5zM88 270l147 19q-20 -307 -11 -446l-183 -31q41 373 47 458z" />
    <glyph glyph-name="cent" unicode="&#xa2;" horiz-adv-x="533" 
d="M449 113q-51 -34 -107 -46l2 -141h-140l28 137q-64 10 -104.5 58.5t-40.5 145.5q0 111 49 181t131 92l-6 139h140l-25 -132q73 -11 104 -35l-59 -132q0 -2 -1 -2l1 2q-4 7 -34 22t-48 15h-8.5t-12.5 -7t-15.5 -20t-11 -43.5t-5.5 -72.5q0 -27 10 -44t19 -22t17 -5
q39 0 77 27z" />
    <glyph glyph-name="sterling" unicode="&#xa3;" horiz-adv-x="533" 
d="M501 156l-33 -156h-433h-1l-18 120q37 2 52 7l2 6l14 1q28 15 31 53q1 20 -4 59h-95l1 13l18 73l37 28h21q-3 26 -1 52q6 98 79 159t180 61q94 0 162 -30l-57 -135q-15 4 -32 10t-25.5 8.5t-24.5 4.5t-38 2q-16 0 -34.5 -13t-21.5 -36q-2 -27 0 -83h162l-41 -114h-112
q2 -26 0 -47q-1 -28 -19 -55z" />
    <glyph glyph-name="section" unicode="&#xa7;" horiz-adv-x="478" 
d="M221 267l10 -4q62 3 64 42q0 24 -38 40l-10 4q-62 -3 -64 -42q-1 -15 8.5 -23.5t29.5 -16.5zM177 -118q-98 0 -162 38l55 141q17 -6 47 -18.5t46 -17.5t31 -5t22.5 3.5t9 7.5t3.5 13q0 1 0.5 5t0.5 6t-0.5 5.5t-2 5.5t-4 4.5t-7.5 4.5t-11 4l-81 27q-65 19 -101.5 55.5
t-31.5 106.5q8 100 111 156q-52 44 -47 116q5 81 78.5 135.5t167.5 54.5q105 0 167 -37l-55 -141q-13 5 -38.5 14.5t-36.5 13.5t-26.5 8t-27.5 4q-15 0 -22.5 -3.5t-9 -7.5t-3.5 -13l-1 -6v-6.5t1 -6t3.5 -6.5t8 -5t12.5 -5l81 -27q64 -19 101 -55.5t32 -105.5
q-8 -101 -111 -157q52 -43 47 -116q-6 -81 -79 -135.5t-167 -54.5z" />
    <glyph glyph-name="dieresis" unicode="&#xa8;" horiz-adv-x="593" 
d="M301 571q1 25 38 62.5t64 37.5q28 0 62.5 -31.5t33.5 -59.5q-1 -25 -39 -61.5t-62 -36.5q-28 0 -63 30.5t-34 58.5zM95 571q1 25 38 62.5t64 37.5q28 0 62.5 -31.5t33.5 -59.5q-1 -25 -39 -61.5t-62 -36.5q-28 0 -63 30.5t-34 58.5z" />
    <glyph glyph-name="copyright" unicode="&#xa9;" horiz-adv-x="681" 
d="M52 268q10 130 100 209.5t209 79.5q132 0 205 -82t63 -207q-10 -131 -100 -209.5t-209 -78.5q-133 0 -205 81t-63 207zM117 271q-9 -110 53 -171.5t161 -61.5t164.5 68t71.5 165q9 106 -50.5 168t-155.5 62q-106 0 -171 -62t-73 -168zM452 205l11 -70q-53 -33 -133 -33
q-72 0 -117.5 41.5t-40.5 115.5q5 82 60.5 135t142.5 53q83 0 105 -20l-28 -82q-40 15 -73 15q-42 0 -61.5 -20.5t-25.5 -62.5q-2 -36 19.5 -61t70.5 -25q36 0 70 14z" />
    <glyph glyph-name="ordfeminine" unicode="&#xaa;" horiz-adv-x="354" 
d="M209 340l-3 32q-39 -32 -85 -32q-43 0 -70 23t-27 69q0 153 202 153q52 0 109 -19l-18 -212zM167 405q31 0 40 47l8 80h-9q-30 0 -42.5 -31t-12.5 -64q0 -12 4 -20t7.5 -10t4.5 -2z" />
    <glyph glyph-name="guillemotleft" unicode="&#xab;" horiz-adv-x="541" 
d="M376 -6l-163 238l196 238l111 -49l-106 -189l82 -189zM159 -6l-163 238l196 238l111 -49l-106 -189l82 -189z" />
    <glyph glyph-name="registered" unicode="&#xae;" horiz-adv-x="681" 
d="M62 524q10 130 100 209.5t209 79.5q132 0 205 -82t63 -207q-10 -132 -100 -210t-209 -78q-133 0 -205 81t-63 207zM127 527q-9 -110 53 -171.5t161 -61.5t164.5 67.5t71.5 165.5q9 106 -50.5 168t-155.5 62q-106 0 -171 -62t-73 -168zM352 545q7 0 17.5 9.5t11.5 22.5
q2 15 -10.5 29.5t-39.5 17.5l-5 -77q10 -2 26 -2zM319 622v1v-1zM328 475h-6l-7 -101h-124l21 322h155q73 0 110 -27t34 -75q-3 -52 -54 -86l57 -134h-127l-31 102q-9 -1 -28 -1z" />
    <glyph glyph-name="macron" unicode="&#xaf;" horiz-adv-x="422" 
d="M369 639l-1 -15l-40 -113h-277l1 15l39 113h278z" />
    <glyph glyph-name="twosuperior" unicode="&#xb2;" horiz-adv-x="295" 
d="M272 390h-251l6 72q148 80 148 122q7 37 -32 37q-52 0 -94 -26l-17 84q73 27 141 27q129 0 124 -99q-4 -38 -33.5 -69t-88.5 -65l120 7z" />
    <glyph glyph-name="threesuperior" unicode="&#xb3;" horiz-adv-x="287" 
d="M119 380q-69 0 -107 9l26 77q56 -11 77 -11q51 0 54 28q2 24 -38 24q-18 0 -44 -2l-3 76q50 0 69.5 5t23.5 21q-1 15 -8.5 19t-30.5 4q-44 0 -76 -14l-17 67q52 23 133 23q53 0 84 -19.5t28 -52.5q-1 -30 -25.5 -51t-61.5 -31q95 -11 92 -70q-3 -47 -58.5 -74.5
t-117.5 -27.5z" />
    <glyph glyph-name="acute" unicode="&#xb4;" horiz-adv-x="303" 
d="M-14 497l139 178l191 -33l-170 -145h-160z" />
    <glyph glyph-name="paragraph" unicode="&#xb6;" horiz-adv-x="580" 
d="M331 459l-24 -324h-68q-108 0 -170 56.5t-53 174.5q7 116 80 181t180 65h289l-38 -568q-7 -83 -72 -131.5t-149 -48.5q-76 0 -129 20l31 143q43 -14 71 -16t43 9t21.5 28t8.5 46l27 365h-48z" />
    <glyph glyph-name="cedilla" unicode="&#xb8;" horiz-adv-x="308" 
d="M74 -102l58 102h68l-21 -49q88 -26 84 -79q-3 -42 -53.5 -77.5t-146.5 -38.5l-17 71q96 7 98 31q2 22 -68 35z" />
    <glyph glyph-name="onesuperior" unicode="&#xb9;" horiz-adv-x="249" 
d="M201 390h-120l14 200l-51 -19l-19 90q40 14 130 35h68z" />
    <glyph glyph-name="ordmasculine" unicode="&#xba;" horiz-adv-x="354" 
d="M323 478q0 -67 -43.5 -102.5t-122.5 -35.5q-56 0 -91.5 26t-35.5 81q0 66 44 102t122 36q127 0 127 -107zM176 394q10 0 14.5 2t10.5 21.5t6 60.5q0 23 -8 37.5t-22 14.5q-9 0 -14 -2.5t-11 -22t-6 -58.5q0 -53 30 -53z" />
    <glyph glyph-name="guillemotright" unicode="&#xbb;" horiz-adv-x="541" 
d="M382 470l163 -238l-196 -238l-111 46l106 192l-82 187zM165 470l163 -238l-196 -238l-111 46l106 192l-82 187z" />
    <glyph glyph-name="questiondown" unicode="&#xbf;" horiz-adv-x="416" 
d="M333 409q-3 -29 -43 -65t-66 -36q-22 0 -58.5 34t-34.5 61q1 27 43.5 63.5t64.5 36.5q25 0 60 -34t34 -60zM132 245l173 36q27 -40 29 -71q-2 -30 -17 -49.5t-57 -52.5q-49 -39 -67.5 -63.5t-19.5 -59.5q-1 -11 14 -26.5t33 -15.5q33 0 54.5 8t73.5 38l49 -129
q-51 -27 -114 -45t-103 -18q-96 0 -156 49t-53 127q2 67 115 150q33 24 46 39t14 31q-1 5 -6.5 24t-7.5 28z" />
    <glyph glyph-name="Agrave" unicode="&#xc0;" horiz-adv-x="577" 
d="M458 647h-160l-152 145l193 33zM325 217l-33 210l-69 -210h102zM360 0l-11 69h-175l-23 -69h-193l230 612h266l106 -612h-200z" />
    <glyph glyph-name="Aacute" unicode="&#xc1;" horiz-adv-x="577" 
d="M202 647l139 178l191 -33l-170 -145h-160zM325 217l-33 210l-69 -210h102zM360 0l-11 69h-175l-23 -69h-193l230 612h266l106 -612h-200z" />
    <glyph glyph-name="Acircumflex" unicode="&#xc2;" horiz-adv-x="577" 
d="M393 647l-65 61l-72 -61h-134l120 178h185l103 -178h-137zM325 217l-33 210l-69 -210h102zM360 0l-11 69h-175l-23 -69h-193l230 612h266l106 -612h-200z" />
    <glyph glyph-name="Atilde" unicode="&#xc3;" horiz-adv-x="577" 
d="M460 831l60 -65q-11 -34 -64 -78.5t-84 -44.5q-19 0 -70.5 16.5t-63.5 16.5q-17 0 -40 -18.5t-28 -27.5l-51 79l17 21q78 83 114 84q23 0 71 -18t61 -18q29 0 78 53zM325 217l-33 210l-69 -210h102zM360 0l-11 69h-175l-23 -69h-193l230 612h266l106 -612h-200z" />
    <glyph glyph-name="Adieresis" unicode="&#xc4;" horiz-adv-x="577" 
d="M333 721q1 25 38 62.5t64 37.5q28 0 62.5 -31.5t33.5 -59.5q-1 -25 -39 -61.5t-62 -36.5q-28 0 -63 30.5t-34 58.5zM127 721q1 25 38 62.5t64 37.5q28 0 62.5 -31.5t33.5 -59.5q-1 -25 -39 -61.5t-62 -36.5q-28 0 -63 30.5t-34 58.5zM325 217l-33 210l-69 -210h102z
M360 0l-11 69h-175l-23 -69h-193l230 612h266l106 -612h-200z" />
    <glyph glyph-name="Aring" unicode="&#xc5;" horiz-adv-x="577" 
d="M448 755q-5 -45 -41.5 -77.5t-82.5 -32.5q-49 0 -79 30t-27 80q5 46 41.5 79t82.5 33q50 0 79.5 -29.5t26.5 -82.5zM293 755q-2 -16 8 -27.5t28 -11.5t30 11.5t14 27.5q2 18 -9 30t-29 12t-29 -12t-13 -30zM325 217l-33 210l-69 -210h102zM360 0l-11 69h-175l-23 -69
h-193l230 612h266l106 -612h-200z" />
    <glyph glyph-name="AE" unicode="&#xc6;" horiz-adv-x="821" 
d="M352 458l-95 -225h95l16 225h-16zM336 0l6 86h-147l-36 -86h-185l286 612h545l-34 -147l-202 3l-6 -86h205l-35 -148l-180 6l-6 -89l239 3l-34 -154h-416z" />
    <glyph glyph-name="Ccedilla" unicode="&#xc7;" horiz-adv-x="488" 
d="M404 -128q-3 -42 -53.5 -77.5t-146.5 -38.5l-17 71q96 7 98 31q2 22 -68 35l-2 5l49 86q-120 6 -188.5 85.5t-68.5 210.5q0 68 22.5 130t65 112.5t112 80t156.5 29.5q79 0 136 -23l-41 -157q-67 21 -123 21q-122 0 -122 -184q0 -73 39.5 -112.5t89.5 -39.5q58 0 100 15
l22 -136q-57 -26 -130 -31l-14 -34q88 -26 84 -79z" />
    <glyph glyph-name="Egrave" unicode="&#xc8;" horiz-adv-x="518" 
d="M440 647h-160l-152 145l193 33zM33 0l43 612h426l-34 -147l-202 3l-6 -86h205l-36 -148l-179 6l-6 -89l239 3l-34 -154h-416z" />
    <glyph glyph-name="Eacute" unicode="&#xc9;" horiz-adv-x="518" 
d="M161 647l139 178l191 -33l-170 -145h-160zM33 0l43 612h426l-34 -147l-202 3l-6 -86h205l-36 -148l-179 6l-6 -89l239 3l-34 -154h-416z" />
    <glyph glyph-name="Ecircumflex" unicode="&#xca;" horiz-adv-x="518" 
d="M361 647l-65 61l-72 -61h-134l120 178h185l103 -178h-137zM33 0l43 612h426l-34 -147l-202 3l-6 -86h205l-36 -148l-179 6l-6 -89l239 3l-34 -154h-416z" />
    <glyph glyph-name="Edieresis" unicode="&#xcb;" horiz-adv-x="518" 
d="M316 721q1 25 38.5 62.5t63.5 37.5q28 0 62.5 -31.5t33.5 -59.5q-1 -25 -39 -61.5t-62 -36.5q-28 0 -63 30.5t-34 58.5zM110 721q1 25 38.5 62.5t63.5 37.5q28 0 62.5 -31.5t33.5 -59.5q-1 -25 -39 -61.5t-62 -36.5q-28 0 -63 30.5t-34 58.5zM33 0l43 612h426l-34 -147
l-202 3l-6 -86h205l-36 -148l-179 6l-6 -89l239 3l-34 -154h-416z" />
    <glyph glyph-name="Igrave" unicode="&#xcc;" horiz-adv-x="305" 
d="M300 647h-160l-152 145l193 33zM276 612l-43 -612h-200l43 612h200z" />
    <glyph glyph-name="Iacute" unicode="&#xcd;" horiz-adv-x="305" 
d="M64 647l139 178l191 -33l-170 -145h-160zM276 612l-43 -612h-200l43 612h200z" />
    <glyph glyph-name="Icircumflex" unicode="&#xce;" horiz-adv-x="305" 
d="M258 647l-65 61l-72 -61h-134l120 178h185l103 -178h-137zM276 612l-43 -612h-200l43 612h200z" />
    <glyph glyph-name="Idieresis" unicode="&#xcf;" horiz-adv-x="305" 
d="M191 721q1 25 38 62.5t63 37.5q28 0 63 -31.5t34 -59.5q-1 -25 -39.5 -61.5t-62.5 -36.5q-28 0 -62.5 30.5t-33.5 58.5zM-33 721q1 25 38 62.5t64 37.5q28 0 62.5 -31.5t33.5 -59.5q-1 -25 -39.5 -61.5t-62.5 -36.5q-28 0 -62.5 30.5t-33.5 58.5zM276 612l-43 -612h-200
l43 612h200z" />
    <glyph glyph-name="Eth" unicode="&#xd0;" horiz-adv-x="617" 
d="M239 0h-221l17 240h-55v26l26 111h38l17 235h251q128 0 204.5 -70.5t78.5 -207.5q-2 -142 -99 -238t-257 -96zM229 150h9q63 0 104.5 37.5t41.5 121.5q0 81 -33.5 117t-79.5 36h-17l-7 -85h98v-25l-26 -112h-83z" />
    <glyph glyph-name="Ntilde" unicode="&#xd1;" horiz-adv-x="645" 
d="M517 831l60 -65q-11 -34 -64 -78.5t-84 -44.5q-19 0 -70.5 16.5t-63.5 16.5q-17 0 -40 -18.5t-28 -27.5l-51 79l17 21q78 83 114 84q23 0 71 -18t61 -18q29 0 78 53zM390 0l-152 295l-20 -295h-185l44 612h200l136 -293l14 293h186l-41 -612h-182z" />
    <glyph glyph-name="Ograve" unicode="&#xd2;" horiz-adv-x="645" 
d="M504 647h-160l-152 145l193 33zM621 353q0 -162 -94 -267.5t-243 -105.5q-132 0 -204.5 77t-72.5 202q0 162 94 267.5t243 105.5q132 0 204.5 -77t72.5 -202zM311 133q24 0 41 8.5t31.5 30.5t22 65.5t7.5 107.5q0 54 -26.5 94t-74.5 40q-50 0 -74.5 -44.5t-24.5 -167.5
q0 -59 25.5 -96.5t72.5 -37.5z" />
    <glyph glyph-name="Oacute" unicode="&#xd3;" horiz-adv-x="645" 
d="M198 647l139 178l191 -33l-170 -145h-160zM621 353q0 -162 -94 -267.5t-243 -105.5q-132 0 -204.5 77t-72.5 202q0 162 94 267.5t243 105.5q132 0 204.5 -77t72.5 -202zM311 133q24 0 41 8.5t31.5 30.5t22 65.5t7.5 107.5q0 54 -26.5 94t-74.5 40q-50 0 -74.5 -44.5
t-24.5 -167.5q0 -59 25.5 -96.5t72.5 -37.5z" />
    <glyph glyph-name="Ocircumflex" unicode="&#xd4;" horiz-adv-x="645" 
d="M409 647l-65 61l-72 -61h-134l120 178h185l103 -178h-137zM621 353q0 -162 -94 -267.5t-243 -105.5q-132 0 -204.5 77t-72.5 202q0 162 94 267.5t243 105.5q132 0 204.5 -77t72.5 -202zM311 133q24 0 41 8.5t31.5 30.5t22 65.5t7.5 107.5q0 54 -26.5 94t-74.5 40
q-50 0 -74.5 -44.5t-24.5 -167.5q0 -59 25.5 -96.5t72.5 -37.5z" />
    <glyph glyph-name="Otilde" unicode="&#xd5;" horiz-adv-x="645" 
d="M469 831l60 -65q-11 -34 -64 -78.5t-84 -44.5q-19 0 -70.5 16.5t-63.5 16.5q-17 0 -40 -18.5t-28 -27.5l-51 79l17 21q78 83 114 84q23 0 71 -18t61 -18q29 0 78 53zM621 353q0 -162 -94 -267.5t-243 -105.5q-132 0 -204.5 77t-72.5 202q0 162 94 267.5t243 105.5
q132 0 204.5 -77t72.5 -202zM311 133q24 0 41 8.5t31.5 30.5t22 65.5t7.5 107.5q0 54 -26.5 94t-74.5 40q-50 0 -74.5 -44.5t-24.5 -167.5q0 -59 25.5 -96.5t72.5 -37.5z" />
    <glyph glyph-name="Odieresis" unicode="&#xd6;" horiz-adv-x="645" 
d="M341 721q1 25 38 62.5t64 37.5q28 0 62.5 -31.5t33.5 -59.5q-1 -25 -39 -61.5t-62 -36.5q-28 0 -63 30.5t-34 58.5zM135 721q1 25 38 62.5t64 37.5q28 0 62.5 -31.5t33.5 -59.5q-1 -25 -39 -61.5t-62 -36.5q-28 0 -63 30.5t-34 58.5zM621 353q0 -162 -94 -267.5
t-243 -105.5q-132 0 -204.5 77t-72.5 202q0 162 94 267.5t243 105.5q132 0 204.5 -77t72.5 -202zM311 133q24 0 41 8.5t31.5 30.5t22 65.5t7.5 107.5q0 54 -26.5 94t-74.5 40q-50 0 -74.5 -44.5t-24.5 -167.5q0 -59 25.5 -96.5t72.5 -37.5z" />
    <glyph glyph-name="multiply" unicode="&#xd7;" horiz-adv-x="533" 
d="M361 80l-99 106l-112 -106l-74 81l111 104l-99 106l87 80l98 -104l111 104l75 -80l-111 -104l99 -106z" />
    <glyph glyph-name="Oslash" unicode="&#xd8;" horiz-adv-x="628" 
d="M213 267q0 -19 3 -35l107 246q-3 1 -11 1q-50 0 -74.5 -44.5t-24.5 -167.5zM311 133q24 0 41 8.5t31.5 30.5t22 65.5t7.5 107.5q0 22 -4 41l-110 -252q4 -1 12 -1zM284 -20q-27 0 -51 3l-29 -66h-126l46 104q-117 73 -117 238q0 162 94 267.5t243 105.5q24 0 45 -3l28 64
h126l-43 -99q59 -35 90 -97.5t31 -143.5q0 -162 -94 -267.5t-243 -105.5z" />
    <glyph glyph-name="Ugrave" unicode="&#xd9;" horiz-adv-x="657" 
d="M492 647h-160l-152 145l193 33zM75 612h200q-29 -375 -29 -401q0 -44 24 -63t55 -19q63 0 67 84l30 399h192l-27 -376q-8 -119 -82 -187.5t-212 -68.5q-117 0 -181.5 53t-64.5 151q0 43 28 428z" />
    <glyph glyph-name="Uacute" unicode="&#xda;" horiz-adv-x="657" 
d="M221 647l139 178l191 -33l-170 -145h-160zM75 612h200q-29 -375 -29 -401q0 -44 24 -63t55 -19q63 0 67 84l30 399h192l-27 -376q-8 -119 -82 -187.5t-212 -68.5q-117 0 -181.5 53t-64.5 151q0 43 28 428z" />
    <glyph glyph-name="Ucircumflex" unicode="&#xdb;" horiz-adv-x="657" 
d="M440 647l-65 61l-72 -61h-134l120 178h185l103 -178h-137zM75 612h200q-29 -375 -29 -401q0 -44 24 -63t55 -19q63 0 67 84l30 399h192l-27 -376q-8 -119 -82 -187.5t-212 -68.5q-117 0 -181.5 53t-64.5 151q0 43 28 428z" />
    <glyph glyph-name="Udieresis" unicode="&#xdc;" horiz-adv-x="657" 
d="M402 721q1 25 38.5 62.5t63.5 37.5q28 0 62.5 -31.5t33.5 -59.5q-1 -25 -39 -61.5t-62 -36.5q-28 0 -63 30.5t-34 58.5zM196 721q1 25 38.5 62.5t63.5 37.5q28 0 62.5 -31.5t33.5 -59.5q-1 -25 -39 -61.5t-62 -36.5q-28 0 -63 30.5t-34 58.5zM75 612h200
q-29 -375 -29 -401q0 -44 24 -63t55 -19q63 0 67 84l30 399h192l-27 -376q-8 -119 -82 -187.5t-212 -68.5q-117 0 -181.5 53t-64.5 151q0 43 28 428z" />
    <glyph glyph-name="Yacute" unicode="&#xdd;" horiz-adv-x="547" 
d="M178 647l139 178l191 -33l-170 -145h-160zM361 215h-3l-15 -215h-200l15 215h-2l-152 397h211l71 -191l88 191h202z" />
    <glyph glyph-name="Thorn" unicode="&#xde;" horiz-adv-x="567" 
d="M287 385h-28l-11 -156h33q75 0 75 69q0 36 -19 61.5t-50 25.5zM286 84h-47l-6 -84h-200l40 612h201l-6 -94h47q120 0 182.5 -52.5t62.5 -145.5q0 -101 -74.5 -168.5t-199.5 -67.5z" />
    <glyph glyph-name="germandbls" unicode="&#xdf;" 
d="M338 -20q-70 0 -118 19l32 147q9 -10 33.5 -18t31.5 -8q15 0 22.5 3t9 6t3.5 10q2 19 -27 51q-56 48 -70 73t-14 64q0 37 40 90t40 73q0 27 -11 42.5t-22 18.5t-16 1q-14 2 -22.5 -11.5t-11.5 -49.5l-23 -503q-3 -64 -26.5 -110.5t-51.5 -69t-66 -35.5t-59 -15t-43 -2
q-72 0 -96 18l37 143q27 -19 57 -19t42 19.5t15 82.5l24 479q4 102 75.5 165.5t170.5 63.5q87 0 142.5 -42.5t55.5 -110.5q0 -35 -13 -62.5t-29 -41t-29 -30.5t-13 -34q0 -16 7.5 -28t43.5 -46q51 -48 70.5 -78t18.5 -77q0 -59 -35.5 -101t-81.5 -59.5t-93 -17.5z" />
    <glyph glyph-name="agrave" unicode="&#xe0;" 
d="M559 497h-160l-152 145l193 33zM314 -20l-8 70q-82 -70 -155 -70q-64 0 -104 46t-40 138q0 136 84 221t209 85q139 0 215 -39l-30 -431zM242 112q58 0 73 168l1 -3l6 63q-14 4 -27 4q-17 0 -27.5 -2t-23 -11t-19.5 -26.5t-12 -50.5t-5 -81q0 -17 3 -30t7 -18.5t9.5 -8.5
t8 -3.5t6.5 -0.5z" />
    <glyph glyph-name="aacute" unicode="&#xe1;" 
d="M220 497l139 178l191 -33l-170 -145h-160zM314 -20l-8 70q-82 -70 -155 -70q-64 0 -104 46t-40 138q0 136 84 221t209 85q139 0 215 -39l-30 -431zM242 112q58 0 73 168l1 -3l6 63q-14 4 -27 4q-17 0 -27.5 -2t-23 -11t-19.5 -26.5t-12 -50.5t-5 -81q0 -17 3 -30t7 -18.5
t9.5 -8.5t8 -3.5t6.5 -0.5z" />
    <glyph glyph-name="acircumflex" unicode="&#xe2;" 
d="M405 497l-65 61l-72 -61h-134l120 178h185l103 -178h-137zM314 -20l-8 70q-82 -70 -155 -70q-64 0 -104 46t-40 138q0 136 84 221t209 85q139 0 215 -39l-30 -431zM242 112q58 0 73 168l1 -3l6 63q-14 4 -27 4q-17 0 -27.5 -2t-23 -11t-19.5 -26.5t-12 -50.5t-5 -81
q0 -17 3 -30t7 -18.5t9.5 -8.5t8 -3.5t6.5 -0.5z" />
    <glyph glyph-name="atilde" unicode="&#xe3;" 
d="M482 681l60 -65q-11 -34 -64 -78.5t-84 -44.5q-19 0 -70.5 16.5t-63.5 16.5q-17 0 -40 -18.5t-28 -27.5l-51 79l17 21q78 83 114 84q23 0 71 -18t61 -18q29 0 78 53zM314 -20l-8 70q-82 -70 -155 -70q-64 0 -104 46t-40 138q0 136 84 221t209 85q139 0 215 -39l-30 -431z
M242 112q58 0 73 168l1 -3l6 63q-14 4 -27 4q-17 0 -27.5 -2t-23 -11t-19.5 -26.5t-12 -50.5t-5 -81q0 -17 3 -30t7 -18.5t9.5 -8.5t8 -3.5t6.5 -0.5z" />
    <glyph glyph-name="adieresis" unicode="&#xe4;" 
d="M349 571q1 25 38 62.5t64 37.5q28 0 62.5 -31.5t33.5 -59.5q-1 -25 -39 -61.5t-62 -36.5q-28 0 -63 30.5t-34 58.5zM143 571q1 25 38 62.5t64 37.5q28 0 62.5 -31.5t33.5 -59.5q-1 -25 -39 -61.5t-62 -36.5q-28 0 -63 30.5t-34 58.5zM314 -20l-8 70q-82 -70 -155 -70
q-64 0 -104 46t-40 138q0 136 84 221t209 85q139 0 215 -39l-30 -431zM242 112q58 0 73 168l1 -3l6 63q-14 4 -27 4q-17 0 -27.5 -2t-23 -11t-19.5 -26.5t-12 -50.5t-5 -81q0 -17 3 -30t7 -18.5t9.5 -8.5t8 -3.5t6.5 -0.5z" />
    <glyph glyph-name="aring" unicode="&#xe5;" 
d="M450 589q-5 -45 -41.5 -77.5t-82.5 -32.5q-49 0 -79 30t-27 80q5 46 41.5 79t82.5 33q50 0 79.5 -29.5t26.5 -82.5zM295 589q-2 -16 8 -27.5t28 -11.5t30 11.5t14 27.5q2 18 -9 30t-29 12t-29 -12t-13 -30zM314 -20l-8 70q-82 -70 -155 -70q-64 0 -104 46t-40 138
q0 136 84 221t209 85q139 0 215 -39l-30 -431zM242 112q58 0 73 168l1 -3l6 63q-14 4 -27 4q-17 0 -27.5 -2t-23 -11t-19.5 -26.5t-12 -50.5t-5 -81q0 -17 3 -30t7 -18.5t9.5 -8.5t8 -3.5t6.5 -0.5z" />
    <glyph glyph-name="ae" unicode="&#xe6;" horiz-adv-x="712" 
d="M482 -20q-121 0 -170 84q-66 -81 -145 -81q-90 0 -125 51.5t-35 149.5q0 67 22.5 120t55 83t72 50t69 26.5t50.5 6.5q98 0 170 -17q47 17 97 17q76 0 119 -35.5t43 -93.5q0 -66 -62 -115.5t-160 -64.5q5 -21 16 -31.5t20.5 -12.5t24.5 -2q46 0 105 43l41 -109
q-99 -69 -208 -69zM514 354q-52 0 -50 -101q70 15 70 70q0 31 -20 31zM249 112q30 0 36 59v12q0 16 2 46v13l2 -1q7 56 29 98q-9 1 -25.5 0t-20.5 -1q-27 0 -45.5 -29.5t-18.5 -94.5q0 -67 8.5 -84.5t32.5 -17.5z" />
    <glyph glyph-name="ccedilla" unicode="&#xe7;" horiz-adv-x="392" 
d="M302 -128q-3 -42 -53.5 -77.5t-146.5 -38.5l-17 71q96 7 98 31q2 22 -68 35l-2 5l48 84q-66 8 -108 57t-42 148q0 136 71 209.5t183 73.5q28 0 72 -10.5t67 -27.5l-59 -132q0 -2 -1 -2l1 2q-4 7 -34 22t-48 15h-8.5t-12.5 -7t-15.5 -20t-11 -43.5t-5.5 -72.5
q0 -27 10 -44t19 -22t17 -5q39 0 77 27l40 -117q-69 -45 -142 -51l-13 -31q88 -26 84 -79z" />
    <glyph glyph-name="egrave" unicode="&#xe8;" horiz-adv-x="440" 
d="M383 497h-160l-152 145l193 33zM211 -20q-91 0 -144 50.5t-53 152.5q0 64 17 115.5t43 82.5t61.5 52t69 29t68.5 8q76 0 118.5 -35.5t42.5 -93.5q0 -66 -61.5 -115.5t-159.5 -64.5q5 -20 15.5 -31t20 -13t24.5 -2q46 0 106 43l40 -109q-99 -69 -208 -69zM243 354
q-53 0 -49 -101q69 14 69 70q0 31 -20 31z" />
    <glyph glyph-name="eacute" unicode="&#xe9;" horiz-adv-x="440" 
d="M151 497l139 178l191 -33l-170 -145h-160zM211 -20q-91 0 -144 50.5t-53 152.5q0 64 17 115.5t43 82.5t61.5 52t69 29t68.5 8q76 0 118.5 -35.5t42.5 -93.5q0 -66 -61.5 -115.5t-159.5 -64.5q5 -20 15.5 -31t20 -13t24.5 -2q46 0 106 43l40 -109q-99 -69 -208 -69z
M243 354q-53 0 -49 -101q69 14 69 70q0 31 -20 31z" />
    <glyph glyph-name="ecircumflex" unicode="&#xea;" horiz-adv-x="440" 
d="M329 497l-65 61l-72 -61h-134l120 178h185l103 -178h-137zM211 -20q-91 0 -144 50.5t-53 152.5q0 64 17 115.5t43 82.5t61.5 52t69 29t68.5 8q76 0 118.5 -35.5t42.5 -93.5q0 -66 -61.5 -115.5t-159.5 -64.5q5 -20 15.5 -31t20 -13t24.5 -2q46 0 106 43l40 -109
q-99 -69 -208 -69zM243 354q-53 0 -49 -101q69 14 69 70q0 31 -20 31z" />
    <glyph glyph-name="edieresis" unicode="&#xeb;" horiz-adv-x="440" 
d="M280 571q1 25 38.5 62.5t63.5 37.5q28 0 62.5 -31.5t33.5 -59.5q-1 -25 -39 -61.5t-62 -36.5q-28 0 -63 30.5t-34 58.5zM74 571q1 25 38.5 62.5t63.5 37.5q28 0 62.5 -31.5t33.5 -59.5q-1 -25 -39 -61.5t-62 -36.5q-28 0 -63 30.5t-34 58.5zM211 -20q-91 0 -144 50.5
t-53 152.5q0 64 17 115.5t43 82.5t61.5 52t69 29t68.5 8q76 0 118.5 -35.5t42.5 -93.5q0 -66 -61.5 -115.5t-159.5 -64.5q5 -20 15.5 -31t20 -13t24.5 -2q46 0 106 43l40 -109q-99 -69 -208 -69zM243 354q-53 0 -49 -101q69 14 69 70q0 31 -20 31z" />
    <glyph glyph-name="igrave" unicode="&#xec;" horiz-adv-x="261" 
d="M267 495h-160l-152 145l193 33zM242 470l-33 -470h-189l32 445z" />
    <glyph glyph-name="iacute" unicode="&#xed;" horiz-adv-x="261" 
d="M52 495l139 178l191 -33l-170 -145h-160zM242 470l-33 -470h-189l32 445z" />
    <glyph glyph-name="icircumflex" unicode="&#xee;" horiz-adv-x="261" 
d="M231 495l-65 61l-72 -61h-134l120 178h185l103 -178h-137zM242 470l-33 -470h-189l32 445z" />
    <glyph glyph-name="idieresis" unicode="&#xef;" horiz-adv-x="261" 
d="M176 571q1 25 38 62.5t63 37.5q28 0 62.5 -31.5t33.5 -59.5q-1 -25 -39 -61.5t-62 -36.5q-28 0 -62.5 30.5t-33.5 58.5zM-43 571q1 25 38 62.5t64 37.5q28 0 62.5 -31.5t33.5 -59.5q-1 -25 -39 -61.5t-63 -36.5q-28 0 -62.5 30.5t-33.5 58.5zM242 470l-33 -470h-189
l32 445z" />
    <glyph glyph-name="eth" unicode="&#xf0;" horiz-adv-x="506" 
d="M175 -20q-71 0 -119 47.5t-48 132.5q-1 70 22 129.5t61.5 97t83 59t89.5 24.5q-16 32 -39 58l-105 -67l-63 70l94 59q-44 28 -95 47l68 79q80 -15 149 -48l101 64l60 -70l-76 -48q75 -61 106 -138t31 -146q0 -77 -28 -144.5t-74 -111.5t-103 -69t-115 -25zM238 114
q24 2 42.5 51t18.5 131q0 26 -3 51q-7 1 -26 1q-68 0 -68 -178q0 -25 5.5 -37.5t11 -14.5t19.5 -4z" />
    <glyph glyph-name="ntilde" unicode="&#xf1;" horiz-adv-x="528" 
d="M460 681l60 -65q-11 -34 -64 -78.5t-84 -44.5q-19 0 -70.5 16.5t-63.5 16.5q-17 0 -40 -18.5t-28 -27.5l-51 79l17 21q78 83 114 84q23 0 71 -18t61 -18q29 0 78 53zM289 322q-8 0 -13.5 -1t-15.5 -9t-17.5 -23t-14.5 -46.5t-11 -75.5l-10 -167h-190l31 445l177 25l6 -85
v-2q69 87 149 87q128 0 128 -134q0 -45 -18.5 -181.5t-19.5 -154.5h-190q34 233 34 284q0 38 -25 38z" />
    <glyph glyph-name="ograve" unicode="&#xf2;" horiz-adv-x="476" 
d="M400 497h-160l-152 145l193 33zM467 255q0 -112 -68 -193.5t-190 -81.5q-87 0 -143.5 51.5t-56.5 163.5q0 111 69 193t189 82q200 0 200 -215zM243 98q11 0 18 14t9.5 42.5t3 49t0.5 56.5v6q0 51 -8.5 68.5t-32.5 17.5q-11 0 -18 -14.5t-9.5 -43.5t-3 -49t-0.5 -55v-6
q0 -55 7 -70.5t34 -15.5z" />
    <glyph glyph-name="oacute" unicode="&#xf3;" horiz-adv-x="476" 
d="M125 497l139 178l191 -33l-170 -145h-160zM467 255q0 -112 -68 -193.5t-190 -81.5q-87 0 -143.5 51.5t-56.5 163.5q0 111 69 193t189 82q200 0 200 -215zM243 98q11 0 18 14t9.5 42.5t3 49t0.5 56.5v6q0 51 -8.5 68.5t-32.5 17.5q-11 0 -18 -14.5t-9.5 -43.5t-3 -49
t-0.5 -55v-6q0 -55 7 -70.5t34 -15.5z" />
    <glyph glyph-name="ocircumflex" unicode="&#xf4;" horiz-adv-x="476" 
d="M332 497l-65 61l-72 -61h-134l120 178h185l103 -178h-137zM467 255q0 -112 -68 -193.5t-190 -81.5q-87 0 -143.5 51.5t-56.5 163.5q0 111 69 193t189 82q200 0 200 -215zM243 98q11 0 18 14t9.5 42.5t3 49t0.5 56.5v6q0 51 -8.5 68.5t-32.5 17.5q-11 0 -18 -14.5
t-9.5 -43.5t-3 -49t-0.5 -55v-6q0 -55 7 -70.5t34 -15.5z" />
    <glyph glyph-name="otilde" unicode="&#xf5;" horiz-adv-x="476" 
d="M376 681l60 -65q-11 -34 -64 -78.5t-84 -44.5q-19 0 -70.5 16.5t-63.5 16.5q-17 0 -40 -18.5t-28 -27.5l-51 79l17 21q78 83 114 84q23 0 71 -18t61 -18q29 0 78 53zM467 255q0 -112 -68 -193.5t-190 -81.5q-87 0 -143.5 51.5t-56.5 163.5q0 111 69 193t189 82
q200 0 200 -215zM243 98q11 0 18 14t9.5 42.5t3 49t0.5 56.5v6q0 51 -8.5 68.5t-32.5 17.5q-11 0 -18 -14.5t-9.5 -43.5t-3 -49t-0.5 -55v-6q0 -55 7 -70.5t34 -15.5z" />
    <glyph glyph-name="odieresis" unicode="&#xf6;" horiz-adv-x="476" 
d="M262 571q1 25 38.5 62.5t63.5 37.5q28 0 62.5 -31.5t33.5 -59.5q-1 -25 -39 -61.5t-62 -36.5q-28 0 -63 30.5t-34 58.5zM56 571q1 25 38.5 62.5t63.5 37.5q28 0 62.5 -31.5t33.5 -59.5q-1 -25 -39 -61.5t-62 -36.5q-28 0 -63 30.5t-34 58.5zM467 255q0 -112 -68 -193.5
t-190 -81.5q-87 0 -143.5 51.5t-56.5 163.5q0 111 69 193t189 82q200 0 200 -215zM243 98q11 0 18 14t9.5 42.5t3 49t0.5 56.5v6q0 51 -8.5 68.5t-32.5 17.5q-11 0 -18 -14.5t-9.5 -43.5t-3 -49t-0.5 -55v-6q0 -55 7 -70.5t34 -15.5z" />
    <glyph glyph-name="divide" unicode="&#xf7;" horiz-adv-x="533" 
d="M184 435q1 37 31 66t63 29q32 0 64.5 -24t31.5 -56q-4 -37 -34.5 -65.5t-63.5 -28.5q-35 0 -64 22t-28 57zM483 325l-9 -113h-426l9 113h426zM159 90q3 37 32.5 66t62.5 29q34 0 65.5 -23.5t30.5 -56.5q-1 -36 -33 -65t-65 -29q-37 0 -65.5 22t-27.5 57z" />
    <glyph glyph-name="oslash" unicode="&#xf8;" horiz-adv-x="476" 
d="M233 352q-36 0 -45 -135l78 124q-12 11 -33 11zM243 98q19 0 30.5 38.5t14.5 93.5l-78 -124q11 -8 33 -8zM209 -20q-41 0 -72 10l-39 -61h-92l63 99q-60 55 -60 167q0 111 69 193t189 82q41 0 75 -9l39 62h92l-63 -99q57 -54 57 -169q0 -112 -68 -193.5t-190 -81.5z" />
    <glyph glyph-name="ugrave" unicode="&#xf9;" horiz-adv-x="534" 
d="M481 497h-160l-152 145l193 33zM305 -20l-9 79v7q-70 -86 -149 -86q-130 0 -130 134q0 46 17.5 180.5t18.5 148.5l193 29q-1 -9 -7.5 -58t-12 -90.5t-10.5 -88t-5 -66.5q0 -14 9.5 -27.5t20.5 -13.5q12 0 19 2t17.5 11t18.5 32t13 61l15 211l193 25l-33 -470z" />
    <glyph glyph-name="uacute" unicode="&#xfa;" horiz-adv-x="534" 
d="M179 497l139 178l191 -33l-170 -145h-160zM305 -20l-9 79v7q-70 -86 -149 -86q-130 0 -130 134q0 46 17.5 180.5t18.5 148.5l193 29q-1 -9 -7.5 -58t-12 -90.5t-10.5 -88t-5 -66.5q0 -14 9.5 -27.5t20.5 -13.5q12 0 19 2t17.5 11t18.5 32t13 61l15 211l193 25l-33 -470z
" />
    <glyph glyph-name="ucircumflex" unicode="&#xfb;" horiz-adv-x="534" 
d="M354 497l-65 61l-72 -61h-134l120 178h185l103 -178h-137zM305 -20l-9 79v7q-70 -86 -149 -86q-130 0 -130 134q0 46 17.5 180.5t18.5 148.5l193 29q-1 -9 -7.5 -58t-12 -90.5t-10.5 -88t-5 -66.5q0 -14 9.5 -27.5t20.5 -13.5q12 0 19 2t17.5 11t18.5 32t13 61l15 211
l193 25l-33 -470z" />
    <glyph glyph-name="udieresis" unicode="&#xfc;" horiz-adv-x="534" 
d="M303 571q1 25 38 62.5t64 37.5q28 0 62.5 -31.5t33.5 -59.5q-1 -25 -39 -61.5t-62 -36.5q-28 0 -63 30.5t-34 58.5zM97 571q1 25 38 62.5t64 37.5q28 0 62.5 -31.5t33.5 -59.5q-1 -25 -39 -61.5t-62 -36.5q-28 0 -63 30.5t-34 58.5zM305 -20l-9 79v7q-70 -86 -149 -86
q-130 0 -130 134q0 46 17.5 180.5t18.5 148.5l193 29q-1 -9 -7.5 -58t-12 -90.5t-10.5 -88t-5 -66.5q0 -14 9.5 -27.5t20.5 -13.5q12 0 19 2t17.5 11t18.5 32t13 61l15 211l193 25l-33 -470z" />
    <glyph glyph-name="yacute" unicode="&#xfd;" horiz-adv-x="449" 
d="M79 497l139 178l191 -33l-170 -145h-160zM-1 -244q-74 0 -107 17l21 156q21 -8 65 -8q95 0 154 72h-91l-45 455l187 21l28 -318q32 92 78 299h181q-4 -40 -13.5 -90.5t-28.5 -119t-44 -133.5t-63 -129.5t-83 -113t-107 -78.5t-132 -30z" />
    <glyph glyph-name="thorn" unicode="&#xfe;" horiz-adv-x="525" 
d="M258 109q19 0 31.5 11t18 34.5t7.5 49t2 65.5q0 43 -7.5 57.5t-23.5 14.5q-49 0 -62 -125l-6 -103q16 -4 40 -4zM198 -219l-190 -25l58 953l190 25l-20 -323q62 59 138 59q41 0 70.5 -14.5t44.5 -40.5t21.5 -54.5t6.5 -62.5q0 -70 -20 -126.5t-50.5 -90.5t-70.5 -57
t-76.5 -32t-71.5 -9q-12 0 -18 1z" />
    <glyph glyph-name="ydieresis" unicode="&#xff;" horiz-adv-x="449" 
d="M245 571q1 25 38 62.5t64 37.5q28 0 62.5 -31.5t33.5 -59.5q-1 -25 -39 -61.5t-62 -36.5q-28 0 -63 30.5t-34 58.5zM39 571q1 25 38 62.5t64 37.5q28 0 62.5 -31.5t33.5 -59.5q-1 -25 -39 -61.5t-62 -36.5q-28 0 -63 30.5t-34 58.5zM-1 -244q-74 0 -107 17l21 156
q21 -8 65 -8q95 0 154 72h-91l-45 455l187 21l28 -318q32 92 78 299h181q-4 -40 -13.5 -90.5t-28.5 -119t-44 -133.5t-63 -129.5t-83 -113t-107 -78.5t-132 -30z" />
    <glyph glyph-name="Amacron" unicode="&#x100;" horiz-adv-x="577" 
d="M485 789l-1 -15l-40 -113h-277l1 15l39 113h278zM325 217l-33 210l-69 -210h102zM360 0l-11 69h-175l-23 -69h-193l230 612h266l106 -612h-200z" />
    <glyph glyph-name="amacron" unicode="&#x101;" 
d="M498 639l-1 -15l-40 -113h-277l1 15l39 113h278zM314 -20l-8 70q-82 -70 -155 -70q-64 0 -104 46t-40 138q0 136 84 221t209 85q139 0 215 -39l-30 -431zM242 112q58 0 73 168l1 -3l6 63q-14 4 -27 4q-17 0 -27.5 -2t-23 -11t-19.5 -26.5t-12 -50.5t-5 -81q0 -17 3 -30
t7 -18.5t9.5 -8.5t8 -3.5t6.5 -0.5z" />
    <glyph glyph-name="Abreve" unicode="&#x102;" horiz-adv-x="577" 
d="M324 760q33 0 53.5 16t29.5 60h110q-8 -88 -69.5 -139t-137.5 -51q-82 0 -128.5 49.5t-39.5 140.5h110q1 -44 19.5 -60t52.5 -16zM325 217l-33 210l-69 -210h102zM360 0l-11 69h-175l-23 -69h-193l230 612h266l106 -612h-200z" />
    <glyph glyph-name="abreve" unicode="&#x103;" 
d="M314 610q33 0 53.5 16t29.5 60h110q-8 -88 -69.5 -139t-137.5 -51q-82 0 -128.5 49.5t-39.5 140.5h110q1 -44 19.5 -60t52.5 -16zM314 -20l-8 70q-82 -70 -155 -70q-64 0 -104 46t-40 138q0 136 84 221t209 85q139 0 215 -39l-30 -431zM242 112q58 0 73 168l1 -3l6 63
q-14 4 -27 4q-17 0 -27.5 -2t-23 -11t-19.5 -26.5t-12 -50.5t-5 -81q0 -17 3 -30t7 -18.5t9.5 -8.5t8 -3.5t6.5 -0.5z" />
    <glyph glyph-name="Aogonek" unicode="&#x104;" horiz-adv-x="577" 
d="M325 217l-33 210l-69 -210h102zM474 0h-114l-11 69h-175l-23 -69h-193l230 612h266l106 -612h3q-106 -71 -113 -118q1 -12 11 -21t24 -9q35 0 53 10l19 -79q-15 -8 -49.5 -17t-53.5 -9q-55 0 -89 28t-30 77q4 32 37 69t102 69z" />
    <glyph glyph-name="aogonek" unicode="&#x105;" 
d="M378 -243q-55 0 -89 28t-30 77q8 68 113 125l-58 -7l-8 70q-82 -70 -155 -70q-64 0 -104 46t-40 138q0 136 84 221t209 85q139 0 215 -39l-30 -431h2q-106 -71 -113 -118q1 -12 11 -21t24 -9q35 0 53 10l19 -79q-15 -8 -49.5 -17t-53.5 -9zM242 112q58 0 73 168l1 -3
l6 63q-14 4 -27 4q-17 0 -27.5 -2t-23 -11t-19.5 -26.5t-12 -50.5t-5 -81q0 -17 3 -30t7 -18.5t9.5 -8.5t8 -3.5t6.5 -0.5z" />
    <glyph glyph-name="Cacute" unicode="&#x106;" horiz-adv-x="488" 
d="M219 647l139 178l191 -33l-170 -145h-160zM442 152l22 -136q-73 -33 -181 -33q-128 0 -202 80.5t-74 216.5q0 68 22.5 130t65 112.5t112 80t156.5 29.5q79 0 136 -23l-41 -157q-67 21 -123 21q-122 0 -122 -184q0 -73 39.5 -112.5t89.5 -39.5q58 0 100 15z" />
    <glyph glyph-name="cacute" unicode="&#x107;" horiz-adv-x="392" 
d="M140 497l139 178l191 -33l-170 -145h-160zM373 33q-79 -53 -181 -53q-35 0 -65.5 10t-57.5 32.5t-42.5 64.5t-15.5 100q0 136 71 209.5t183 73.5q28 0 72 -10.5t67 -27.5l-59 -132q0 -2 -1 -2l1 2q-4 7 -34 22t-48 15h-8.5t-12.5 -7t-15.5 -20t-11 -43.5t-5.5 -72.5
q0 -27 10 -44t19 -22t17 -5q39 0 77 27z" />
    <glyph glyph-name="Ccircumflex" unicode="&#x108;" horiz-adv-x="488" 
d="M384 647l-65 61l-72 -61h-134l120 178h185l103 -178h-137zM442 152l22 -136q-73 -33 -181 -33q-128 0 -202 80.5t-74 216.5q0 68 22.5 130t65 112.5t112 80t156.5 29.5q79 0 136 -23l-41 -157q-67 21 -123 21q-122 0 -122 -184q0 -73 39.5 -112.5t89.5 -39.5q58 0 100 15
z" />
    <glyph glyph-name="ccircumflex" unicode="&#x109;" horiz-adv-x="392" 
d="M326 497l-65 61l-72 -61h-134l120 178h185l103 -178h-137zM373 33q-79 -53 -181 -53q-35 0 -65.5 10t-57.5 32.5t-42.5 64.5t-15.5 100q0 136 71 209.5t183 73.5q28 0 72 -10.5t67 -27.5l-59 -132q0 -2 -1 -2l1 2q-4 7 -34 22t-48 15h-8.5t-12.5 -7t-15.5 -20t-11 -43.5
t-5.5 -72.5q0 -27 10 -44t19 -22t17 -5q39 0 77 27z" />
    <glyph glyph-name="Cdotaccent" unicode="&#x10a;" horiz-adv-x="488" 
d="M220 748q3 30 42.5 70.5t69.5 40.5q29 0 69.5 -34t39.5 -62q-3 -30 -43.5 -70.5t-67.5 -40.5q-30 0 -70.5 34t-39.5 62zM442 152l22 -136q-73 -33 -181 -33q-128 0 -202 80.5t-74 216.5q0 68 22.5 130t65 112.5t112 80t156.5 29.5q79 0 136 -23l-41 -157q-67 21 -123 21
q-122 0 -122 -184q0 -73 39.5 -112.5t89.5 -39.5q58 0 100 15z" />
    <glyph glyph-name="cdotaccent" unicode="&#x10b;" horiz-adv-x="392" 
d="M176 598q3 30 42.5 70.5t69.5 40.5q29 0 69.5 -34t39.5 -62q-3 -30 -43.5 -70.5t-67.5 -40.5q-30 0 -70.5 34t-39.5 62zM373 33q-79 -53 -181 -53q-35 0 -65.5 10t-57.5 32.5t-42.5 64.5t-15.5 100q0 136 71 209.5t183 73.5q28 0 72 -10.5t67 -27.5l-59 -132q0 -2 -1 -2
l1 2q-4 7 -34 22t-48 15h-8.5t-12.5 -7t-15.5 -20t-11 -43.5t-5.5 -72.5q0 -27 10 -44t19 -22t17 -5q39 0 77 27z" />
    <glyph glyph-name="Ccaron" unicode="&#x10c;" horiz-adv-x="488" 
d="M413 654h-184l-104 178h138l65 -61l71 61h135zM442 152l22 -136q-73 -33 -181 -33q-128 0 -202 80.5t-74 216.5q0 68 22.5 130t65 112.5t112 80t156.5 29.5q79 0 136 -23l-41 -157q-67 21 -123 21q-122 0 -122 -184q0 -73 39.5 -112.5t89.5 -39.5q58 0 100 15z" />
    <glyph glyph-name="ccaron" unicode="&#x10d;" horiz-adv-x="392" 
d="M341 504h-184l-104 178h138l65 -61l71 61h135zM373 33q-79 -53 -181 -53q-35 0 -65.5 10t-57.5 32.5t-42.5 64.5t-15.5 100q0 136 71 209.5t183 73.5q28 0 72 -10.5t67 -27.5l-59 -132q0 -2 -1 -2l1 2q-4 7 -34 22t-48 15h-8.5t-12.5 -7t-15.5 -20t-11 -43.5t-5.5 -72.5
q0 -27 10 -44t19 -22t17 -5q39 0 77 27z" />
    <glyph glyph-name="Dcaron" unicode="&#x10e;" horiz-adv-x="632" 
d="M420 654h-184l-104 178h138l65 -61l71 61h135zM76 612h251q128 0 204.5 -70.5t78.5 -207.5q-2 -142 -99 -238t-257 -96h-221zM269 462l-25 -312h9q63 0 104.5 37.5t41.5 121.5q0 81 -33.5 117t-79.5 36h-17z" />
    <glyph glyph-name="dcaron" unicode="&#x10f;" horiz-adv-x="710" 
d="M561 637q1 22 36 40.5t63 18.5q65 0 60 -122q-4 -63 -121 -214l-75 36q39 66 44 144q1 21 -3 51t-4 46zM293 -20l-2 64q-63 -61 -140 -61q-41 0 -70.5 14.5t-44.5 40.5t-21.5 54.5t-6.5 62.5q0 86 29.5 151t75.5 98.5t92.5 49.5t91.5 16q13 0 20 -1l17 241l190 25
l-49 -735zM239 112q46 0 60 107l8 122q-15 4 -38 4q-37 0 -49 -40t-12 -121q0 -43 7.5 -57.5t23.5 -14.5z" />
    <glyph glyph-name="Dcroat" unicode="&#x110;" horiz-adv-x="615" 
d="M237 0h-221l17 240h-53v26l26 111h36l17 235h251q128 0 204.5 -70.5t78.5 -207.5q-2 -142 -99 -238t-257 -96zM227 150h9q63 0 104.5 37.5t41.5 121.5q0 81 -33.5 117t-79.5 36h-17l-7 -85h100v-25l-26 -112h-85z" />
    <glyph glyph-name="dcroat" unicode="&#x111;" horiz-adv-x="519" 
d="M293 -20l-2 64q-63 -61 -140 -61q-41 0 -70.5 14.5t-44.5 40.5t-21.5 54.5t-6.5 62.5q0 86 29.5 151t75.5 98.5t92.5 49.5t91.5 16q13 0 20 -1l4 61h-85l-1 15l36 75h57l6 90l190 25l-8 -115h116v-15l-36 -75h-86l-35 -530zM239 112q46 0 60 107l8 122q-15 4 -38 4
q-37 0 -49 -40t-12 -121q0 -43 7.5 -57.5t23.5 -14.5z" />
    <glyph glyph-name="Emacron" unicode="&#x112;" horiz-adv-x="518" 
d="M455 789l-1 -15l-40 -113h-277l1 15l39 113h278zM33 0l43 612h426l-34 -147l-202 3l-6 -86h205l-36 -148l-179 6l-6 -89l239 3l-34 -154h-416z" />
    <glyph glyph-name="emacron" unicode="&#x113;" horiz-adv-x="440" 
d="M426 639l-1 -15l-40 -113h-277l1 15l39 113h278zM211 -20q-91 0 -144 50.5t-53 152.5q0 64 17 115.5t43 82.5t61.5 52t69 29t68.5 8q76 0 118.5 -35.5t42.5 -93.5q0 -66 -61.5 -115.5t-159.5 -64.5q5 -20 15.5 -31t20 -13t24.5 -2q46 0 106 43l40 -109q-99 -69 -208 -69z
M243 354q-53 0 -49 -101q69 14 69 70q0 31 -20 31z" />
    <glyph glyph-name="Ebreve" unicode="&#x114;" horiz-adv-x="518" 
d="M305 760q33 0 53.5 16t29.5 60h110q-8 -88 -69.5 -139t-137.5 -51q-82 0 -128.5 49.5t-39.5 140.5h110q1 -44 19.5 -60t52.5 -16zM33 0l43 612h426l-34 -147l-202 3l-6 -86h205l-36 -148l-179 6l-6 -89l239 3l-34 -154h-416z" />
    <glyph glyph-name="ebreve" unicode="&#x115;" horiz-adv-x="440" 
d="M278 610q33 0 53.5 16t29.5 60h110q-8 -88 -69.5 -139t-137.5 -51q-82 0 -128.5 49.5t-39.5 140.5h110q1 -44 19.5 -60t52.5 -16zM211 -20q-91 0 -144 50.5t-53 152.5q0 64 17 115.5t43 82.5t61.5 52t69 29t68.5 8q76 0 118.5 -35.5t42.5 -93.5q0 -66 -61.5 -115.5
t-159.5 -64.5q5 -20 15.5 -31t20 -13t24.5 -2q46 0 106 43l40 -109q-99 -69 -208 -69zM243 354q-53 0 -49 -101q69 14 69 70q0 31 -20 31z" />
    <glyph glyph-name="Edotaccent" unicode="&#x116;" horiz-adv-x="518" 
d="M195 748q3 30 42.5 70.5t69.5 40.5q29 0 69.5 -34t39.5 -62q-3 -30 -43.5 -70.5t-67.5 -40.5q-30 0 -70.5 34t-39.5 62zM33 0l43 612h426l-34 -147l-202 3l-6 -86h205l-36 -148l-179 6l-6 -89l239 3l-34 -154h-416z" />
    <glyph glyph-name="edotaccent" unicode="&#x117;" horiz-adv-x="440" 
d="M145 598q3 30 42.5 70.5t69.5 40.5q29 0 69.5 -34t39.5 -62q-3 -30 -43.5 -70.5t-67.5 -40.5q-30 0 -70.5 34t-39.5 62zM211 -20q-91 0 -144 50.5t-53 152.5q0 64 17 115.5t43 82.5t61.5 52t69 29t68.5 8q76 0 118.5 -35.5t42.5 -93.5q0 -66 -61.5 -115.5t-159.5 -64.5
q5 -20 15.5 -31t20 -13t24.5 -2q46 0 106 43l40 -109q-99 -69 -208 -69zM243 354q-53 0 -49 -101q69 14 69 70q0 31 -20 31z" />
    <glyph glyph-name="Eogonek" unicode="&#x118;" horiz-adv-x="518" 
d="M33 0l43 612h426l-34 -147l-202 3l-6 -86h205l-36 -148l-179 6l-6 -89l239 3l-34 -154h-416zM227 -138q4 32 37 69t102 69h89q-106 -71 -113 -118q1 -12 11 -21t24 -9q35 0 53 10l19 -79q-15 -8 -49.5 -17t-53.5 -9q-55 0 -89 28t-30 77z" />
    <glyph glyph-name="eogonek" unicode="&#x119;" horiz-adv-x="440" 
d="M255 -230q-55 0 -89 28t-30 77q6 55 80 105h-5q-91 0 -144 50.5t-53 152.5q0 64 17 115.5t43 82.5t61.5 52t69 29t68.5 8q76 0 118.5 -35.5t42.5 -93.5q0 -66 -61.5 -115.5t-159.5 -64.5q5 -20 15.5 -31t20 -13t24.5 -2q46 0 106 43l40 -109q-28 -20 -61 -36h6
q-106 -69 -113 -116v-2q1 -12 11 -21t24 -9q35 0 53 10l19 -79q-15 -8 -49.5 -17t-53.5 -9zM243 354q-53 0 -49 -101q69 14 69 70q0 31 -20 31z" />
    <glyph glyph-name="Ecaron" unicode="&#x11a;" horiz-adv-x="518" 
d="M383 654h-184l-104 178h138l65 -61l71 61h135zM33 0l43 612h426l-34 -147l-202 3l-6 -86h205l-36 -148l-179 6l-6 -89l239 3l-34 -154h-416z" />
    <glyph glyph-name="ecaron" unicode="&#x11b;" horiz-adv-x="440" 
d="M360 504h-184l-104 178h138l65 -61l71 61h135zM211 -20q-91 0 -144 50.5t-53 152.5q0 64 17 115.5t43 82.5t61.5 52t69 29t68.5 8q76 0 118.5 -35.5t42.5 -93.5q0 -66 -61.5 -115.5t-159.5 -64.5q5 -20 15.5 -31t20 -13t24.5 -2q46 0 106 43l40 -109q-99 -69 -208 -69z
M243 354q-53 0 -49 -101q69 14 69 70q0 31 -20 31z" />
    <glyph glyph-name="Gcircumflex" unicode="&#x11c;" horiz-adv-x="582" 
d="M427 647l-65 61l-72 -61h-134l120 178h185l103 -178h-137zM515 21q-37 -17 -100 -29t-113 -12q-146 0 -220.5 76.5t-74.5 224.5q0 44 12.5 91.5t40.5 95t67.5 84.5t98.5 60t128 23q146 0 205 -39l-38 -161q-91 38 -184 38q-64 0 -95 -45t-31 -153q0 -70 35.5 -106.5
t90.5 -36.5h12l11 172h172z" />
    <glyph glyph-name="gcircumflex" unicode="&#x11d;" horiz-adv-x="418" 
d="M223 251q10 0 16.5 13.5t6.5 27.5q0 47 -8 58t-27 11q-6 0 -10.5 -1.5t-7.5 -3t-5 -5t-3 -6t-1.5 -7t-0.5 -7v-7.5v-6q0 -27 1.5 -38t10.5 -20t28 -9zM419 -19q0 -91 -85.5 -164t-203.5 -73q-96 0 -142 32.5t-46 85.5q0 42 22.5 74t81.5 65q-29 29 -27 68q-1 17 15.5 43
t44.5 49q-69 32 -69 132q0 81 69 129t162 48q38 0 62 -5l21 32h-23l-65 61l-72 -61h-134l120 178h185l50 -87l5 7l94 -94l-12 -28l-83 -51q30 -36 30 -105q0 -73 -64 -124t-170 -51q0 -11 3 -15t23.5 -8.5t68.5 -7.5q81 -6 110 -39t29 -91zM171 -122q93 0 93 45q0 20 -17 25
q-4 2 -85 10q-28 4 -41 7q-19 -19 -19 -41q0 -46 69 -46z" />
    <glyph glyph-name="Gbreve" unicode="&#x11e;" horiz-adv-x="582" 
d="M344 760q33 0 53.5 16t29.5 60h110q-8 -88 -69.5 -139t-137.5 -51q-82 0 -128.5 49.5t-39.5 140.5h110q1 -44 19.5 -60t52.5 -16zM515 21q-37 -17 -100 -29t-113 -12q-146 0 -220.5 76.5t-74.5 224.5q0 44 12.5 91.5t40.5 95t67.5 84.5t98.5 60t128 23q146 0 205 -39
l-38 -161q-91 38 -184 38q-64 0 -95 -45t-31 -153q0 -70 35.5 -106.5t90.5 -36.5h12l11 172h172z" />
    <glyph glyph-name="gbreve" unicode="&#x11f;" horiz-adv-x="418" 
d="M223 251q10 0 16.5 13.5t6.5 27.5q0 47 -8 58t-27 11q-6 0 -10.5 -1.5t-7.5 -3t-5 -5t-3 -6t-1.5 -7t-0.5 -7v-7.5v-6q0 -27 1.5 -38t10.5 -20t28 -9zM237 610q33 0 53.5 16t29.5 60h110q-4 -55 -33 -98l87 -87l-12 -28l-83 -51q30 -36 30 -105q0 -73 -64 -124t-170 -51
q0 -11 3 -15t23.5 -8.5t68.5 -7.5q81 -6 110 -39t29 -91q0 -91 -85.5 -164t-203.5 -73q-96 0 -142 32.5t-46 85.5q0 42 22.5 74t81.5 65q-29 29 -27 68q-1 17 15.5 43t44.5 49q-69 32 -69 132q0 81 69 129t162 48q38 0 62 -5l51 77q-56 -46 -131 -46q-82 0 -128.5 49.5
t-39.5 140.5h110q1 -44 19.5 -60t52.5 -16zM171 -122q93 0 93 45q0 20 -17 25q-4 2 -85 10q-28 4 -41 7q-19 -19 -19 -41q0 -46 69 -46z" />
    <glyph glyph-name="Gdotaccent" unicode="&#x120;" horiz-adv-x="582" 
d="M259 748q3 30 42.5 70.5t69.5 40.5q29 0 69.5 -34t39.5 -62q-3 -30 -43.5 -70.5t-67.5 -40.5q-30 0 -70.5 34t-39.5 62zM515 21q-37 -17 -100 -29t-113 -12q-146 0 -220.5 76.5t-74.5 224.5q0 44 12.5 91.5t40.5 95t67.5 84.5t98.5 60t128 23q146 0 205 -39l-38 -161
q-91 38 -184 38q-64 0 -95 -45t-31 -153q0 -70 35.5 -106.5t90.5 -36.5h12l11 172h172z" />
    <glyph glyph-name="gdotaccent" unicode="&#x121;" horiz-adv-x="418" 
d="M132 598q3 30 42.5 70.5t69.5 40.5q29 0 69.5 -34t39.5 -62q-3 -30 -43.5 -70.5t-67.5 -40.5q-30 0 -70.5 34t-39.5 62zM223 251q10 0 16.5 13.5t6.5 27.5q0 47 -8 58t-27 11q-6 0 -10.5 -1.5t-7.5 -3t-5 -5t-3 -6t-1.5 -7t-0.5 -7v-7.5v-6q0 -27 1.5 -38t10.5 -20t28 -9
zM419 -19q0 -91 -85.5 -164t-203.5 -73q-96 0 -142 32.5t-46 85.5q0 42 22.5 74t81.5 65q-29 29 -27 68q-1 17 15.5 43t44.5 49q-69 32 -69 132q0 81 69 129t162 48q38 0 62 -5l87 130l94 -94l-12 -28l-83 -51q30 -36 30 -105q0 -73 -64 -124t-170 -51q0 -11 3 -15
t23.5 -8.5t68.5 -7.5q81 -6 110 -39t29 -91zM171 -122q93 0 93 45q0 20 -17 25q-4 2 -85 10q-28 4 -41 7q-19 -19 -19 -41q0 -46 69 -46z" />
    <glyph glyph-name="Gcommaaccent" unicode="&#x122;" horiz-adv-x="582" 
d="M515 21q-37 -17 -100 -29t-113 -12q-146 0 -220.5 76.5t-74.5 224.5q0 44 12.5 91.5t40.5 95t67.5 84.5t98.5 60t128 23q146 0 205 -39l-38 -161q-91 38 -184 38q-64 0 -95 -45t-31 -153q0 -70 35.5 -106.5t90.5 -36.5h12l11 172h172zM244 -108q0 21 30 46.5t55 25.5
t51.5 -29t24.5 -45q-2 -22 -24.5 -65.5t-68.5 -99.5l-81 33q3 10 25.5 43t23.5 40q0 6 -18.5 23.5t-17.5 27.5z" />
    <glyph glyph-name="gcommaaccent" unicode="&#x123;" horiz-adv-x="418" 
d="M278 550q1 -22 -29 -47t-56 -25q-25 0 -51 28.5t-24 45.5q2 21 24.5 65t68.5 100l81 -34q-3 -8 -26 -41.5t-24 -40.5q1 -6 19 -24t17 -27zM223 251q10 0 16.5 13.5t6.5 27.5q0 47 -8 58t-27 11q-6 0 -10.5 -1.5t-7.5 -3t-5 -5t-3 -6t-1.5 -7t-0.5 -7v-7.5v-6
q0 -27 1.5 -38t10.5 -20t28 -9zM419 -19q0 -91 -85.5 -164t-203.5 -73q-96 0 -142 32.5t-46 85.5q0 42 22.5 74t81.5 65q-29 29 -27 68q-1 17 15.5 43t44.5 49q-69 32 -69 132q0 81 69 129t162 48q38 0 62 -5l87 130l94 -94l-12 -28l-83 -51q30 -36 30 -105q0 -73 -64 -124
t-170 -51q0 -11 3 -15t23.5 -8.5t68.5 -7.5q81 -6 110 -39t29 -91zM171 -122q93 0 93 45q0 20 -17 25q-4 2 -85 10q-28 4 -41 7q-19 -19 -19 -41q0 -46 69 -46z" />
    <glyph glyph-name="Hcircumflex" unicode="&#x124;" horiz-adv-x="662" 
d="M416 647l-65 61l-72 -61h-134l120 178h185l103 -178h-137zM375 0l16 225h-142l-16 -225h-200l43 612h200l-16 -221h142l16 221h201l-43 -612h-201z" />
    <glyph glyph-name="hcircumflex" unicode="&#x125;" horiz-adv-x="530" 
d="M289 322q-9 0 -15 -2t-17 -10.5t-19.5 -32t-14.5 -59.5l-16 -218h-190l50 709l181 23l-60 57l-72 -61h-134l120 178h185l103 -178h-128l-26 -339q66 81 144 81q128 0 128 -134q0 -45 -18.5 -181.5t-19.5 -154.5h-190q34 233 34 284q0 38 -25 38z" />
    <glyph glyph-name="Hbar" unicode="&#x126;" horiz-adv-x="629" 
d="M392 391l4 51h-142l-4 -51h142zM365 0l16 225h-142l-16 -225h-200l31 442h-67l3 25l29 95h43l4 50h200l-4 -50h142l4 50h201l-4 -50h62l-3 -26l-29 -94h-38l-31 -442h-201z" />
    <glyph glyph-name="hbar" unicode="&#x127;" horiz-adv-x="554" 
d="M289 322q-9 0 -15 -2t-17 -10.5t-19.5 -32t-14.5 -59.5l-16 -218h-190l37 530h-46l-1 15l36 75h18l6 89l195 25l-9 -114h143l1 -15l-37 -75h-113l-11 -141q66 81 144 81q128 0 128 -134q0 -45 -18.5 -181.5t-19.5 -154.5h-190q34 233 34 284q0 38 -25 38z" />
    <glyph glyph-name="Itilde" unicode="&#x128;" horiz-adv-x="305" 
d="M335 831l60 -65q-12 -34 -63.5 -78.5t-82.5 -44.5q-19 0 -71.5 16.5t-64.5 16.5q-17 0 -39.5 -18.5t-25.5 -27.5l-51 79l16 20q75 81 112 85q23 0 72 -18t62 -18q12 0 27 9.5t23.5 17.5t25.5 26zM276 612l-43 -612h-200l43 612h200z" />
    <glyph glyph-name="itilde" unicode="&#x129;" horiz-adv-x="261" 
d="M296 681l60 -65q-11 -34 -64 -78.5t-84 -44.5q-19 0 -70.5 16.5t-63.5 16.5q-17 0 -40 -18.5t-28 -27.5l-51 79l17 21q78 83 114 84q23 0 71 -18t61 -18q29 0 78 53zM242 470l-33 -470h-189l32 445z" />
    <glyph glyph-name="Imacron" unicode="&#x12a;" horiz-adv-x="305" 
d="M351 789l-1 -15l-40 -113h-277l1 15l39 113h278zM276 612l-43 -612h-200l43 612h200z" />
    <glyph glyph-name="imacron" unicode="&#x12b;" horiz-adv-x="261" 
d="M314 639l-1 -15l-40 -113h-277l1 15l39 113h278zM242 473l-33 -470h-189l32 445z" />
    <glyph glyph-name="Ibreve" unicode="&#x12c;" horiz-adv-x="305" 
d="M178 760q33 0 53.5 16t29.5 60h110q-8 -88 -69.5 -139t-137.5 -51q-82 0 -128.5 49.5t-39.5 140.5h110q1 -44 19.5 -60t52.5 -16zM276 612l-43 -612h-200l43 612h200z" />
    <glyph glyph-name="ibreve" unicode="&#x12d;" horiz-adv-x="261" 
d="M150 610q33 0 53.5 16t29.5 60h110q-8 -88 -69.5 -139t-137.5 -51q-82 0 -128.5 49.5t-39.5 140.5h110q1 -44 19.5 -60t52.5 -16zM242 470l-33 -470h-189l32 445z" />
    <glyph glyph-name="Iogonek" unicode="&#x12e;" horiz-adv-x="305" 
d="M146 0h-113l43 612h200l-43 -612h2q-106 -69 -113 -116v-2q1 -12 11 -21t24 -9q35 0 53 10l19 -79q-15 -8 -49.5 -17t-53.5 -9q-55 0 -89 28t-30 77q4 32 37 69t102 69z" />
    <glyph glyph-name="iogonek" unicode="&#x12f;" horiz-adv-x="261" 
d="M42 584q0 29 36.5 68t70.5 39q29 0 69 -28.5t40 -56.5q0 -30 -37.5 -68.5t-69.5 -38.5q-30 0 -69.5 28.5t-39.5 56.5zM119 0h-102l32 445l190 25l-33 -470h2q-106 -69 -113 -116v-2q1 -12 11 -21t24 -9q35 0 53 10l19 -79q-15 -8 -49.5 -17t-53.5 -9q-55 0 -89 28t-30 77
q4 32 37 69t102 69z" />
    <glyph glyph-name="Idotaccent" unicode="&#x130;" horiz-adv-x="305" 
d="M68 748q3 30 42.5 70.5t69.5 40.5q29 0 69.5 -34t39.5 -62q-3 -30 -43.5 -70.5t-67.5 -40.5q-30 0 -70.5 34t-39.5 62zM276 612l-43 -612h-200l43 612h200z" />
    <glyph glyph-name="dotlessi" unicode="&#x131;" horiz-adv-x="291" 
d="M269 470l-33 -470h-189l32 445z" />
    <glyph glyph-name="IJ" unicode="&#x132;" horiz-adv-x="678" 
d="M276 612l-43 -612h-200l43 612h200zM645 612l-30 -436q-6 -87 -72.5 -141.5t-156.5 -54.5q-35 0 -72 8t-52 16l43 160q22 -18 58 -18q25 0 38.5 13.5t16.5 56.5l26 396h201z" />
    <glyph glyph-name="ij" unicode="&#x133;" horiz-adv-x="499" 
d="M276 584q0 29 36.5 68t70.5 39q29 0 69 -28.5t40 -56.5q0 -30 -37.5 -68.5t-69.5 -38.5q-30 0 -69.5 28.5t-39.5 56.5zM42 584q0 29 36.5 68t70.5 39q29 0 69 -28.5t40 -56.5q0 -30 -37.5 -68.5t-69.5 -38.5q-30 0 -69.5 28.5t-39.5 56.5zM49 445l190 25l-33 -470h-189z
M135 -230l-16 165q19 -4 62 -4q63 0 70 61l33 452l190 24l-31 -450q-10 -122 -82 -186t-226 -62z" />
    <glyph glyph-name="Jcircumflex" unicode="&#x134;" horiz-adv-x="388" 
d="M305 647l-65 61l-72 -61h-134l120 178h185l103 -178h-137zM344 612l-30 -436q-6 -87 -72.5 -141.5t-156.5 -54.5q-35 0 -72 8t-52 16l43 160q22 -18 58 -18q25 0 38.5 13.5t16.5 56.5l26 396h201z" />
    <glyph glyph-name="jcircumflex" unicode="&#x135;" horiz-adv-x="240" 
d="M205 497l-65 61l-72 -61h-134l120 178h185l103 -178h-137zM-108 -230l-16 165q19 -4 62 -4q63 0 70 61l33 452l190 24l-31 -450q-10 -122 -82 -186t-226 -62z" />
    <glyph glyph-name="Kcommaaccent" unicode="&#x136;" horiz-adv-x="632" 
d="M397 0l-142 321l-23 -321h-199l43 612h199l-19 -276l179 276h221l-204 -284l174 -328h-229zM225 -108q0 21 30 46.5t55 25.5t51.5 -29t24.5 -45q-2 -22 -24.5 -65.5t-68.5 -99.5l-81 33q3 10 25.5 43t23.5 40q0 6 -18.5 23.5t-17.5 27.5z" />
    <glyph glyph-name="kcommaaccent" unicode="&#x137;" horiz-adv-x="529" 
d="M17 0l52 717l190 14l-53 -731h-189zM340 -13q-46 67 -116 256q77 98 124 207h191q-9 -36 -48.5 -97.5t-87.5 -115.5q85 -155 132 -211zM176 -108q0 21 30 46.5t55 25.5t51.5 -29t24.5 -45q-2 -22 -24.5 -65.5t-68.5 -99.5l-81 33q3 10 25.5 43t23.5 40q0 6 -18.5 23.5
t-17.5 27.5z" />
    <glyph glyph-name="Lacute" unicode="&#x139;" horiz-adv-x="497" 
d="M75 647l139 178l191 -33l-170 -145h-160zM33 0l43 612h200l-32 -454l241 3l-36 -161h-416z" />
    <glyph glyph-name="lacute" unicode="&#x13a;" horiz-adv-x="293" 
d="M79 766l139 178l191 -33l-170 -145h-160zM281 153l21 -125q-96 -48 -166 -48q-116 0 -116 120q0 53 8 150.5t23 246.5t21 213l190 25q-9 -106 -22 -242.5t-19.5 -211.5t-6.5 -110q0 -9 5 -19t16 -10q7 0 46 11z" />
    <glyph glyph-name="Lcommaaccent" unicode="&#x13b;" horiz-adv-x="497" 
d="M33 0l43 612h200l-32 -454l241 3l-36 -161h-416zM181 -108q0 21 30 46.5t55 25.5t51.5 -29t24.5 -45q-2 -22 -24.5 -65.5t-68.5 -99.5l-81 33q3 10 25.5 43t23.5 40q0 6 -18.5 23.5t-17.5 27.5z" />
    <glyph glyph-name="lcommaaccent" unicode="&#x13c;" horiz-adv-x="293" 
d="M281 153l21 -125q-96 -48 -166 -48q-116 0 -116 120q0 53 8 150.5t23 246.5t21 213l190 25q-9 -106 -22 -242.5t-19.5 -211.5t-6.5 -110q0 -9 5 -19t16 -10q7 0 46 11zM54 -108q0 21 30 46.5t55 25.5t51.5 -29t24.5 -45q-2 -22 -24.5 -65.5t-68.5 -99.5l-81 33
q3 10 25.5 43t23.5 40q0 6 -18.5 23.5t-17.5 27.5z" />
    <glyph glyph-name="Lcaron" unicode="&#x13d;" horiz-adv-x="486" 
d="M328 637q1 22 36 40.5t63 18.5q65 0 60 -122q-4 -63 -121 -214l-75 36q39 66 44 144q1 21 -3 51t-4 46zM33 0l43 612h200l-32 -454l241 3l-36 -161h-416z" />
    <glyph glyph-name="lcaron" unicode="&#x13e;" horiz-adv-x="436" 
d="M281 153l21 -125q-96 -48 -166 -48q-116 0 -116 120q0 53 8 150.5t23 246.5t21 213l190 25q-9 -106 -22 -242.5t-19.5 -211.5t-6.5 -110q0 -9 5 -19t16 -10q7 0 46 11zM290 637q1 22 36 40.5t63 18.5q65 0 60 -122q-4 -63 -121 -214l-75 36q39 66 44 144q1 21 -3 51
t-4 46z" />
    <glyph glyph-name="Ldot" unicode="&#x13f;" horiz-adv-x="497" 
d="M302 376q3 30 42.5 70.5t69.5 40.5q29 0 69.5 -34t39.5 -62q-3 -30 -43.5 -70.5t-67.5 -40.5q-30 0 -70.5 34t-39.5 62zM33 0l43 612h200l-32 -454l241 3l-36 -161h-416z" />
    <glyph glyph-name="ldot" unicode="&#x140;" horiz-adv-x="422" 
d="M281 153l21 -125q-96 -48 -166 -48q-116 0 -116 120q0 53 8 150.5t23 246.5t21 213l190 25q-9 -106 -22 -242.5t-19.5 -211.5t-6.5 -110q0 -9 5 -19t16 -10q7 0 46 11zM229 288q3 30 42.5 70.5t69.5 40.5q29 0 69.5 -34t39.5 -62q-3 -30 -43.5 -70.5t-67.5 -40.5
q-30 0 -70.5 34t-39.5 62z" />
    <glyph glyph-name="Lslash" unicode="&#x141;" horiz-adv-x="474" 
d="M39 0l15 213l-50 -22l8 131l51 23l19 267h200l-12 -177l92 41l-7 -131l-95 -42l-10 -145l241 3l-36 -161h-416z" />
    <glyph glyph-name="lslash" unicode="&#x142;" horiz-adv-x="306" 
d="M136 -20q-116 0 -116 120q0 50 8 143l-41 -17l8 137l45 18q4 46 15.5 159.5t16.5 169.5l190 25q-9 -115 -25 -274l68 28l-8 -136l-73 -30q-10 -115 -10 -152q0 -9 5 -19t16 -10q7 0 46 11l21 -125q-96 -48 -166 -48z" />
    <glyph glyph-name="Nacute" unicode="&#x143;" horiz-adv-x="645" 
d="M253 647l139 178l191 -33l-170 -145h-160zM390 0l-152 295l-20 -295h-185l44 612h200l136 -293l14 293h186l-41 -612h-182z" />
    <glyph glyph-name="nacute" unicode="&#x144;" horiz-adv-x="528" 
d="M187 497l139 178l191 -33l-170 -145h-160zM289 322q-8 0 -13.5 -1t-15.5 -9t-17.5 -23t-14.5 -46.5t-11 -75.5l-10 -167h-190l31 445l177 25l6 -85v-2q69 87 149 87q128 0 128 -134q0 -45 -18.5 -181.5t-19.5 -154.5h-190q34 233 34 284q0 38 -25 38z" />
    <glyph glyph-name="Ncommaaccent" unicode="&#x145;" horiz-adv-x="645" 
d="M390 0l-152 295l-20 -295h-185l44 612h200l136 -293l14 293h186l-41 -612h-182zM221 -108q0 21 30 46.5t55 25.5t51.5 -29t24.5 -45q-2 -22 -24.5 -65.5t-68.5 -99.5l-81 33q3 10 25.5 43t23.5 40q0 6 -18.5 23.5t-17.5 27.5z" />
    <glyph glyph-name="ncommaaccent" unicode="&#x146;" horiz-adv-x="528" 
d="M289 322q-8 0 -13.5 -1t-15.5 -9t-17.5 -23t-14.5 -46.5t-11 -75.5l-10 -167h-190l31 445l177 25l6 -85v-2q69 87 149 87q128 0 128 -134q0 -45 -18.5 -181.5t-19.5 -154.5h-190q34 233 34 284q0 38 -25 38zM148 -108q0 21 30 46.5t55 25.5t51.5 -29t24.5 -45
q-2 -22 -24.5 -65.5t-68.5 -99.5l-81 33q3 10 25.5 43t23.5 40q0 6 -18.5 23.5t-17.5 27.5z" />
    <glyph glyph-name="Ncaron" unicode="&#x147;" horiz-adv-x="645" 
d="M452 654h-184l-104 178h138l65 -61l71 61h135zM390 0l-152 295l-20 -295h-185l44 612h200l136 -293l14 293h186l-41 -612h-182z" />
    <glyph glyph-name="ncaron" unicode="&#x148;" horiz-adv-x="528" 
d="M387 504h-184l-104 178h138l65 -61l71 61h135zM289 322q-8 0 -13.5 -1t-15.5 -9t-17.5 -23t-14.5 -46.5t-11 -75.5l-10 -167h-190l31 445l177 25l6 -85v-2q69 87 149 87q128 0 128 -134q0 -45 -18.5 -181.5t-19.5 -154.5h-190q34 233 34 284q0 38 -25 38z" />
    <glyph glyph-name="Eng" unicode="&#x14a;" horiz-adv-x="645" 
d="M365 -180q-77 0 -119 21l31 149q25 -22 80 -22q11 0 25 8t19 24h-11l-152 295l-20 -295h-185l44 612h200l136 -293l14 293h186l-41 -612q-10 -83 -67.5 -131.5t-139.5 -48.5z" />
    <glyph glyph-name="eng" unicode="&#x14b;" horiz-adv-x="532" 
d="M465 -37q-10 -41 -28 -73t-51 -61t-89 -44.5t-132 -14.5l-17 165q20 -4 63 -4q23 0 43.5 10t24.5 30q5 22 20 149.5t15 163.5q0 38 -25 38q-8 0 -13.5 -1t-15.5 -9t-17.5 -23t-14.5 -46.5t-11 -75.5l-10 -167h-190l31 445l177 25l6 -85v-2q69 87 149 87q128 0 128 -134
q0 -48 -17.5 -191t-25.5 -182z" />
    <glyph glyph-name="Omacron" unicode="&#x14c;" horiz-adv-x="645" 
d="M499 789l-1 -15l-40 -113h-277l1 15l39 113h278zM621 353q0 -162 -94 -267.5t-243 -105.5q-132 0 -204.5 77t-72.5 202q0 162 94 267.5t243 105.5q132 0 204.5 -77t72.5 -202zM311 133q24 0 41 8.5t31.5 30.5t22 65.5t7.5 107.5q0 54 -26.5 94t-74.5 40
q-50 0 -74.5 -44.5t-24.5 -167.5q0 -59 25.5 -96.5t72.5 -37.5z" />
    <glyph glyph-name="omacron" unicode="&#x14d;" horiz-adv-x="476" 
d="M430 639l-1 -15l-40 -113h-277l1 15l39 113h278zM467 255q0 -112 -68 -193.5t-190 -81.5q-87 0 -143.5 51.5t-56.5 163.5q0 111 69 193t189 82q200 0 200 -215zM243 98q11 0 18 14t9.5 42.5t3 49t0.5 56.5v6q0 51 -8.5 68.5t-32.5 17.5q-11 0 -18 -14.5t-9.5 -43.5
t-3 -49t-0.5 -55v-6q0 -55 7 -70.5t34 -15.5z" />
    <glyph glyph-name="Obreve" unicode="&#x14e;" horiz-adv-x="645" 
d="M336 760q33 0 53.5 16t29.5 60h110q-8 -88 -69.5 -139t-137.5 -51q-82 0 -128.5 49.5t-39.5 140.5h110q1 -44 19.5 -60t52.5 -16zM621 353q0 -162 -94 -267.5t-243 -105.5q-132 0 -204.5 77t-72.5 202q0 162 94 267.5t243 105.5q132 0 204.5 -77t72.5 -202zM311 133
q24 0 41 8.5t31.5 30.5t22 65.5t7.5 107.5q0 54 -26.5 94t-74.5 40q-50 0 -74.5 -44.5t-24.5 -167.5q0 -59 25.5 -96.5t72.5 -37.5z" />
    <glyph glyph-name="obreve" unicode="&#x14f;" horiz-adv-x="476" 
d="M273 610q33 0 53.5 16t29.5 60h110q-8 -88 -69.5 -139t-137.5 -51q-82 0 -128.5 49.5t-39.5 140.5h110q1 -44 19.5 -60t52.5 -16zM467 255q0 -112 -68 -193.5t-190 -81.5q-87 0 -143.5 51.5t-56.5 163.5q0 111 69 193t189 82q200 0 200 -215zM243 98q11 0 18 14t9.5 42.5
t3 49t0.5 56.5v6q0 51 -8.5 68.5t-32.5 17.5q-11 0 -18 -14.5t-9.5 -43.5t-3 -49t-0.5 -55v-6q0 -55 7 -70.5t34 -15.5z" />
    <glyph glyph-name="Ohungarumlaut" unicode="&#x150;" horiz-adv-x="645" 
d="M314 647l81 129l-127 -129h-160l112 178l186 -32l20 32l191 -33l-143 -145h-160zM621 353q0 -162 -94 -267.5t-243 -105.5q-132 0 -204.5 77t-72.5 202q0 162 94 267.5t243 105.5q132 0 204.5 -77t72.5 -202zM311 133q24 0 41 8.5t31.5 30.5t22 65.5t7.5 107.5
q0 54 -26.5 94t-74.5 40q-50 0 -74.5 -44.5t-24.5 -167.5q0 -59 25.5 -96.5t72.5 -37.5z" />
    <glyph glyph-name="ohungarumlaut" unicode="&#x151;" horiz-adv-x="476" 
d="M259 497l81 129l-127 -129h-160l112 178l186 -32l20 32l191 -33l-143 -145h-160zM467 255q0 -112 -68 -193.5t-190 -81.5q-87 0 -143.5 51.5t-56.5 163.5q0 111 69 193t189 82q200 0 200 -215zM243 98q11 0 18 14t9.5 42.5t3 49t0.5 56.5v6q0 51 -8.5 68.5t-32.5 17.5
q-11 0 -18 -14.5t-9.5 -43.5t-3 -49t-0.5 -55v-6q0 -55 7 -70.5t34 -15.5z" />
    <glyph glyph-name="OE" unicode="&#x152;" horiz-adv-x="853" 
d="M316 133q36 0 63 23l19 278q-35 45 -101 45q-47 0 -65.5 -52.5t-18.5 -159.5q0 -134 103 -134zM784 0h-394q-54 -20 -122 -20q-103 0 -182 72t-79 195q0 47 8.5 94.5t32 101.5t59.5 94.5t96.5 67.5t138.5 27q45 0 91 -20h404l-34 -147l-202 3l-6 -86h205l-36 -148l-179 6
l-6 -89l239 3z" />
    <glyph glyph-name="oe" unicode="&#x153;" horiz-adv-x="700" 
d="M469 -20q-78 0 -126 35q-57 -35 -134 -35q-87 0 -143.5 51.5t-56.5 163.5q0 111 69 193t189 82q81 0 129 -35q62 35 135 35q76 0 118.5 -35.5t42.5 -93.5q0 -66 -61.5 -115.5t-159.5 -64.5q5 -20 15.5 -31t20 -13t24.5 -2q46 0 106 43l40 -109q-99 -69 -208 -69zM501 354
q-28 0 -40 -31q6 -30 6 -66q54 17 54 66q0 31 -20 31zM243 98q24 0 29 76v9q0 16 2 42v41q0 51 -8.5 68.5t-32.5 17.5q-11 0 -18 -14.5t-9.5 -43.5t-3 -49t-0.5 -55v-6q0 -55 7 -70.5t34 -15.5z" />
    <glyph glyph-name="Racute" unicode="&#x154;" horiz-adv-x="577" 
d="M173 647l139 178l191 -33l-170 -145h-160zM278 480h-13l-8 -129h17q45 0 61 18t16 48q0 28 -22.5 45.5t-50.5 17.5zM283 204h-36l-14 -204h-200l40 612h247q114 0 174.5 -47.5t60.5 -133.5q0 -113 -94 -178l121 -253h-216z" />
    <glyph glyph-name="racute" unicode="&#x155;" horiz-adv-x="366" 
d="M89 497l139 178l191 -33l-170 -145h-160zM312 281q-46 0 -64.5 -19.5t-25.5 -63.5l-15 -198h-190l34 445l174 25l5 -120q24 58 62 89t70 31q29 0 41 -4l-38 -194q-18 9 -53 9z" />
    <glyph glyph-name="Rcommaaccent" unicode="&#x156;" horiz-adv-x="577" 
d="M278 480h-13l-8 -129h17q45 0 61 18t16 48q0 28 -22.5 45.5t-50.5 17.5zM283 204h-36l-14 -204h-200l40 612h247q114 0 174.5 -47.5t60.5 -133.5q0 -113 -94 -178l121 -253h-216zM192 -108q0 21 30 46.5t55 25.5t51.5 -29t24.5 -45q-2 -22 -24.5 -65.5t-68.5 -99.5
l-81 33q3 10 25.5 43t23.5 40q0 6 -18.5 23.5t-17.5 27.5z" />
    <glyph glyph-name="rcommaaccent" unicode="&#x157;" horiz-adv-x="366" 
d="M312 281q-46 0 -64.5 -19.5t-25.5 -63.5l-15 -198h-190l34 445l174 25l5 -120q24 58 62 89t70 31q29 0 41 -4l-38 -194q-18 9 -53 9zM23 -108q0 21 30 46.5t55 25.5t51.5 -29t24.5 -45q-2 -22 -24.5 -65.5t-68.5 -99.5l-81 33q3 10 25.5 43t23.5 40q0 6 -18.5 23.5
t-17.5 27.5z" />
    <glyph glyph-name="Rcaron" unicode="&#x158;" horiz-adv-x="577" 
d="M400 654h-184l-104 178h138l65 -61l71 61h135zM278 480h-13l-8 -129h17q45 0 61 18t16 48q0 28 -22.5 45.5t-50.5 17.5zM283 204h-36l-14 -204h-200l40 612h247q114 0 174.5 -47.5t60.5 -133.5q0 -113 -94 -178l121 -253h-216z" />
    <glyph glyph-name="rcaron" unicode="&#x159;" horiz-adv-x="366" 
d="M326 504h-184l-104 178h138l65 -61l71 61h135zM312 281q-46 0 -64.5 -19.5t-25.5 -63.5l-15 -198h-190l34 445l174 25l5 -120q24 58 62 89t70 31q29 0 41 -4l-38 -194q-18 9 -53 9z" />
    <glyph glyph-name="Sacute" unicode="&#x15a;" horiz-adv-x="517" 
d="M173 647l139 178l191 -33l-170 -145h-160zM233 209l-96 47q-43 22 -68 66t-25 91q0 97 71 158t176 61q29 0 59 -3.5t55.5 -9t44 -10.5t35.5 -10t19 -6l-45 -172q-14 11 -77 33.5t-94 22.5q-37 0 -45 -9q-6 -7 -6 -19t12.5 -26t29.5 -22l101 -51q60 -29 81 -71t21 -97
q0 -85 -75.5 -143.5t-185.5 -58.5q-111 0 -211 37l38 169q111 -59 200 -61l6 1q5 1 8 2.5t7.5 4.5t6.5 9.5t2 15.5q0 28 -45 51z" />
    <glyph glyph-name="sacute" unicode="&#x15b;" horiz-adv-x="392" 
d="M78 497l139 178l191 -33l-170 -145h-160zM155 -20q-43 0 -88.5 11.5t-73.5 28.5l48 142q70 -50 129 -50q25 0 25 14q0 3 -1.5 5t-5.5 4t-7.5 3t-12 4.5t-14.5 5.5l-51 24q-43 23 -63.5 55.5t-20.5 83.5q0 66 54 112.5t155 46.5q93 0 157 -33l-42 -131q-63 42 -123 42
q-24 0 -24 -16q0 -12 53 -28l38 -13q46 -22 67.5 -51t21.5 -85q0 -28 -11.5 -56.5t-35.5 -56t-69.5 -45t-104.5 -17.5z" />
    <glyph glyph-name="Scircumflex" unicode="&#x15c;" horiz-adv-x="517" 
d="M352 647l-65 61l-72 -61h-134l120 178h185l103 -178h-137zM233 209l-96 47q-43 22 -68 66t-25 91q0 97 71 158t176 61q29 0 59 -3.5t55.5 -9t44 -10.5t35.5 -10t19 -6l-45 -172q-14 11 -77 33.5t-94 22.5q-37 0 -45 -9q-6 -7 -6 -19t12.5 -26t29.5 -22l101 -51
q60 -29 81 -71t21 -97q0 -85 -75.5 -143.5t-185.5 -58.5q-111 0 -211 37l38 169q111 -59 200 -61l6 1q5 1 8 2.5t7.5 4.5t6.5 9.5t2 15.5q0 28 -45 51z" />
    <glyph glyph-name="scircumflex" unicode="&#x15d;" horiz-adv-x="392" 
d="M290 497l-65 61l-72 -61h-134l120 178h185l103 -178h-137zM155 -20q-43 0 -88.5 11.5t-73.5 28.5l48 142q70 -50 129 -50q25 0 25 14q0 3 -1.5 5t-5.5 4t-7.5 3t-12 4.5t-14.5 5.5l-51 24q-43 23 -63.5 55.5t-20.5 83.5q0 66 54 112.5t155 46.5q93 0 157 -33l-42 -131
q-63 42 -123 42q-24 0 -24 -16q0 -12 53 -28l38 -13q46 -22 67.5 -51t21.5 -85q0 -28 -11.5 -56.5t-35.5 -56t-69.5 -45t-104.5 -17.5z" />
    <glyph glyph-name="Scedilla" unicode="&#x15e;" horiz-adv-x="517" 
d="M132 -244l-17 71q96 7 98 31q2 22 -68 35l-2 5l47 83q-100 5 -180 36l38 169q111 -59 200 -61l6 1q5 1 8 2.5t7.5 4.5t6.5 9.5t2 15.5q0 28 -45 51l-96 47q-43 22 -68 66t-25 91q0 97 71 158t176 61q29 0 59 -3.5t55.5 -9t44 -10.5t35.5 -10t19 -6l-45 -172
q-14 11 -77 33.5t-94 22.5q-37 0 -45 -9q-6 -7 -6 -19t12.5 -26t29.5 -22l101 -51q60 -29 81 -71t21 -97q0 -76 -62.5 -132.5t-158.5 -67.5l-13 -31q88 -26 84 -79q-3 -42 -53.5 -77.5t-146.5 -38.5z" />
    <glyph glyph-name="scedilla" unicode="&#x15f;" horiz-adv-x="392" 
d="M45 -244l-17 71q96 7 98 31q2 22 -68 35l-2 5l49 86q-69 9 -112 36l48 142q70 -50 129 -50q25 0 25 14q0 3 -1.5 5t-5.5 4t-7.5 3t-12 4.5t-14.5 5.5l-51 24q-43 23 -63.5 55.5t-20.5 83.5q0 66 54 112.5t155 46.5q93 0 157 -33l-42 -131q-63 42 -123 42q-24 0 -24 -16
q0 -12 53 -28l38 -13q46 -22 67.5 -51t21.5 -85q0 -26 -10.5 -54t-33 -54.5t-63.5 -45t-95 -21.5l-13 -29q88 -26 84 -79q-3 -42 -53.5 -77.5t-146.5 -38.5z" />
    <glyph glyph-name="Scaron" unicode="&#x160;" horiz-adv-x="517" 
d="M360 654h-184l-104 178h138l65 -61l71 61h135zM233 209l-96 47q-43 22 -68 66t-25 91q0 97 71 158t176 61q29 0 59 -3.5t55.5 -9t44 -10.5t35.5 -10t19 -6l-45 -172q-14 11 -77 33.5t-94 22.5q-37 0 -45 -9q-6 -7 -6 -19t12.5 -26t29.5 -22l101 -51q60 -29 81 -71t21 -97
q0 -85 -75.5 -143.5t-185.5 -58.5q-111 0 -211 37l38 169q111 -59 200 -61l6 1q5 1 8 2.5t7.5 4.5t6.5 9.5t2 15.5q0 28 -45 51z" />
    <glyph glyph-name="scaron" unicode="&#x161;" horiz-adv-x="392" 
d="M309 504h-184l-104 178h138l65 -61l71 61h135zM155 -20q-43 0 -88.5 11.5t-73.5 28.5l48 142q70 -50 129 -50q25 0 25 14q0 3 -1.5 5t-5.5 4t-7.5 3t-12 4.5t-14.5 5.5l-51 24q-43 23 -63.5 55.5t-20.5 83.5q0 66 54 112.5t155 46.5q93 0 157 -33l-42 -131
q-63 42 -123 42q-24 0 -24 -16q0 -12 53 -28l38 -13q46 -22 67.5 -51t21.5 -85q0 -28 -11.5 -56.5t-35.5 -56t-69.5 -45t-104.5 -17.5z" />
    <glyph glyph-name="Tcommaaccent" unicode="&#x162;" horiz-adv-x="502" 
d="M501 453l-137 2l-32 -455h-200l31 456l-165 -3l34 159h502zM143 -108q0 21 30 46.5t55 25.5t51.5 -29t24.5 -45q-2 -22 -24.5 -65.5t-68.5 -99.5l-81 33q3 10 25.5 43t23.5 40q0 6 -18.5 23.5t-17.5 27.5z" />
    <glyph glyph-name="tcommaaccent" unicode="&#x163;" horiz-adv-x="343" 
d="M343 38q-87 -58 -178 -58q-61 0 -102 36.5t-41 113.5q0 44 21 200h-55l9 110l62 10q1 7 4.5 42l5.5 55l191 25q-3 -23 -8 -64t-7 -58h114l-15 -120h-112l-4 -38t-3.5 -32.5t-2.5 -26t-1.5 -20.5t-1.5 -13.5t-1 -7.5t0 -1q1 -22 12 -34.5t30 -12.5q9 0 26.5 4.5t24.5 9.5z
M57 -108q0 21 30 46.5t55 25.5t51.5 -29t24.5 -45q-2 -22 -24.5 -65.5t-68.5 -99.5l-81 33q3 10 25.5 43t23.5 40q0 6 -18.5 23.5t-17.5 27.5z" />
    <glyph glyph-name="Tcaron" unicode="&#x164;" horiz-adv-x="502" 
d="M358 654h-184l-104 178h138l65 -61l71 61h135zM501 453l-137 2l-32 -455h-200l31 456l-165 -3l34 159h502z" />
    <glyph glyph-name="tcaron" unicode="&#x165;" horiz-adv-x="343" 
d="M315 784q1 22 36 40.5t63 18.5q65 0 60 -122q-4 -63 -121 -214l-75 36q39 66 44 144q1 21 -3 51t-4 46zM343 38q-87 -58 -178 -58q-61 0 -102 36.5t-41 113.5q0 44 21 200h-55l9 110l62 10q1 7 4.5 42l5.5 55l191 25q-3 -23 -8 -64t-7 -58h114l-15 -120h-112l-4 -38
t-3.5 -32.5t-2.5 -26t-1.5 -20.5t-1.5 -13.5t-1 -7.5t0 -1q1 -22 12 -34.5t30 -12.5q9 0 26.5 4.5t24.5 9.5z" />
    <glyph glyph-name="Tbar" unicode="&#x166;" horiz-adv-x="502" 
d="M433 235h-84l-17 -235h-200l16 235h-106l-1 26l31 105h85l6 90l-165 -3l34 159h502l-33 -159l-137 2l-6 -89h106v-26z" />
    <glyph glyph-name="tbar" unicode="&#x167;" horiz-adv-x="343" 
d="M343 38q-87 -58 -178 -58q-61 0 -102 36.5t-41 113.5q0 25 3 55h-44l-1 15l33 83h24q4 30 6 47h-55l9 110l62 10q1 7 4.5 42l5.5 55l191 25q-3 -23 -8 -64t-7 -58h114l-15 -120h-112q-1 -7 -2.5 -23t-2.5 -24h93l1 -15l-33 -83h-70q5 -41 42 -41q9 0 26.5 4.5t24.5 9.5z
" />
    <glyph glyph-name="Utilde" unicode="&#x168;" horiz-adv-x="657" 
d="M495 831l60 -65q-11 -34 -64 -78.5t-84 -44.5q-19 0 -70.5 16.5t-63.5 16.5q-17 0 -40 -18.5t-28 -27.5l-51 79l17 21q78 83 114 84q23 0 71 -18t61 -18q29 0 78 53zM75 612h200q-29 -375 -29 -401q0 -44 24 -63t55 -19q63 0 67 84l30 399h192l-27 -376
q-8 -119 -82 -187.5t-212 -68.5q-117 0 -181.5 53t-64.5 151q0 43 28 428z" />
    <glyph glyph-name="utilde" unicode="&#x169;" horiz-adv-x="534" 
d="M440 681l60 -65q-11 -34 -64 -78.5t-84 -44.5q-19 0 -70.5 16.5t-63.5 16.5q-17 0 -40 -18.5t-28 -27.5l-51 79l17 21q78 83 114 84q23 0 71 -18t61 -18q29 0 78 53zM305 -20l-9 79v7q-70 -86 -149 -86q-130 0 -130 134q0 46 17.5 180.5t18.5 148.5l193 29
q-1 -9 -7.5 -58t-12 -90.5t-10.5 -88t-5 -66.5q0 -14 9.5 -27.5t20.5 -13.5q12 0 19 2t17.5 11t18.5 32t13 61l15 211l193 25l-33 -470z" />
    <glyph glyph-name="Umacron" unicode="&#x16a;" horiz-adv-x="657" 
d="M505 789l-1 -15l-40 -113h-277l1 15l39 113h278zM75 612h200q-29 -375 -29 -401q0 -44 24 -63t55 -19q63 0 67 84l30 399h192l-27 -376q-8 -119 -82 -187.5t-212 -68.5q-117 0 -181.5 53t-64.5 151q0 43 28 428z" />
    <glyph glyph-name="umacron" unicode="&#x16b;" horiz-adv-x="534" 
d="M453 639l-1 -15l-40 -113h-277l1 15l39 113h278zM305 -20l-9 79v7q-70 -86 -149 -86q-130 0 -130 134q0 46 17.5 180.5t18.5 148.5l193 29q-1 -9 -7.5 -58t-12 -90.5t-10.5 -88t-5 -66.5q0 -14 9.5 -27.5t20.5 -13.5q12 0 19 2t17.5 11t18.5 32t13 61l15 211l193 25
l-33 -470z" />
    <glyph glyph-name="Ubreve" unicode="&#x16c;" horiz-adv-x="657" 
d="M351 760q33 0 53.5 16t29.5 60h110q-8 -88 -69.5 -139t-137.5 -51q-82 0 -128.5 49.5t-39.5 140.5h110q1 -44 19.5 -60t52.5 -16zM75 612h200q-29 -375 -29 -401q0 -44 24 -63t55 -19q63 0 67 84l30 399h192l-27 -376q-8 -119 -82 -187.5t-212 -68.5q-117 0 -181.5 53
t-64.5 151q0 43 28 428z" />
    <glyph glyph-name="ubreve" unicode="&#x16d;" horiz-adv-x="534" 
d="M310 610q33 0 53.5 16t29.5 60h110q-8 -88 -69.5 -139t-137.5 -51q-82 0 -128.5 49.5t-39.5 140.5h110q1 -44 19.5 -60t52.5 -16zM305 -20l-9 79v7q-70 -86 -149 -86q-130 0 -130 134q0 46 17.5 180.5t18.5 148.5l193 29q-1 -9 -7.5 -58t-12 -90.5t-10.5 -88t-5 -66.5
q0 -14 9.5 -27.5t20.5 -13.5q12 0 19 2t17.5 11t18.5 32t13 61l15 211l193 25l-33 -470z" />
    <glyph glyph-name="Uring" unicode="&#x16e;" horiz-adv-x="657" 
d="M472 739q-5 -45 -41.5 -77.5t-82.5 -32.5q-49 0 -79 30t-27 80q5 46 41.5 79t82.5 33q50 0 79.5 -29.5t26.5 -82.5zM317 739q-2 -16 8 -27.5t28 -11.5t30 11.5t14 27.5q2 18 -9 30t-29 12t-29 -12t-13 -30zM75 612h200q-29 -375 -29 -401q0 -44 24 -63t55 -19q63 0 67 84
l30 399h192l-27 -376q-8 -119 -82 -187.5t-212 -68.5q-117 0 -181.5 53t-64.5 151q0 43 28 428z" />
    <glyph glyph-name="uring" unicode="&#x16f;" horiz-adv-x="534" 
d="M424 589q-5 -45 -41.5 -77.5t-82.5 -32.5q-49 0 -79 30t-27 80q5 46 41.5 79t82.5 33q50 0 79.5 -29.5t26.5 -82.5zM269 589q-2 -16 8 -27.5t28 -11.5t30 11.5t14 27.5q2 18 -9 30t-29 12t-29 -12t-13 -30zM305 -20l-9 79v7q-70 -86 -149 -86q-130 0 -130 134
q0 46 17.5 180.5t18.5 148.5l193 29q-1 -9 -7.5 -58t-12 -90.5t-10.5 -88t-5 -66.5q0 -14 9.5 -27.5t20.5 -13.5q12 0 19 2t17.5 11t18.5 32t13 61l15 211l193 25l-33 -470z" />
    <glyph glyph-name="Uhungarumlaut" unicode="&#x170;" horiz-adv-x="657" 
d="M362 647l81 129l-127 -129h-160l112 178l186 -32l20 32l191 -33l-143 -145h-160zM75 612h200q-29 -375 -29 -401q0 -44 24 -63t55 -19q63 0 67 84l30 399h192l-27 -376q-8 -119 -82 -187.5t-212 -68.5q-117 0 -181.5 53t-64.5 151q0 43 28 428z" />
    <glyph glyph-name="uhungarumlaut" unicode="&#x171;" horiz-adv-x="534" 
d="M285 497l81 129l-127 -129h-160l112 178l186 -32l20 32l191 -33l-143 -145h-160zM305 -20l-9 79v7q-70 -86 -149 -86q-130 0 -130 134q0 46 17.5 180.5t18.5 148.5l193 29q-1 -9 -7.5 -58t-12 -90.5t-10.5 -88t-5 -66.5q0 -14 9.5 -27.5t20.5 -13.5q12 0 19 2t17.5 11
t18.5 32t13 61l15 211l193 25l-33 -470z" />
    <glyph glyph-name="Uogonek" unicode="&#x172;" horiz-adv-x="657" 
d="M360 -223q-55 0 -89 28t-30 77q6 50 71 98h-19q-117 0 -181.5 53t-64.5 151q0 43 28 428h200q-29 -375 -29 -401q0 -44 24 -63t55 -19q63 0 67 84l30 399h192l-27 -376q-10 -152 -121 -216h3q-106 -71 -113 -118q1 -12 11 -21t24 -9q35 0 53 10l19 -79q-15 -8 -49.5 -17
t-53.5 -9z" />
    <glyph glyph-name="uogonek" unicode="&#x173;" horiz-adv-x="534" 
d="M371 -243q-55 0 -89 28t-30 77q8 68 112 125l-59 -7l-9 79v7q-70 -86 -149 -86q-130 0 -130 134q0 46 17.5 180.5t18.5 148.5l193 29q-1 -9 -7.5 -58t-12 -90.5t-10.5 -88t-5 -66.5q0 -14 9.5 -27.5t20.5 -13.5q12 0 19 2t17.5 11t18.5 32t13 61l15 211l193 25l-33 -470
l-5 -1q-105 -70 -112 -117q1 -12 11 -21t24 -9q35 0 53 10l19 -79q-15 -8 -49.5 -17t-53.5 -9z" />
    <glyph glyph-name="Wcircumflex" unicode="&#x174;" horiz-adv-x="872" 
d="M514 647l-65 61l-72 -61h-134l120 178h185l103 -178h-137zM473 0l-57 274l-101 -274h-227l-72 612h213l27 -309l104 309h178l64 -312l71 312h184l-154 -612h-230z" />
    <glyph glyph-name="wcircumflex" unicode="&#x175;" horiz-adv-x="698" 
d="M459 497l-65 61l-72 -61h-134l120 178h185l103 -178h-137zM358 0l-13 90q-43 -72 -71 -91l-209 1l-32 439l193 30l7 -312q48 82 70 201l3 -1l-14 93h188l24 -275q54 131 53 275h181q-4 -59 -16 -114.5t-33.5 -108.5t-36 -83.5t-42.5 -81.5t-34 -62h-218z" />
    <glyph glyph-name="Ycircumflex" unicode="&#x176;" horiz-adv-x="547" 
d="M368 647l-65 61l-72 -61h-134l120 178h185l103 -178h-137zM361 215h-3l-15 -215h-200l15 215h-2l-152 397h211l71 -191l88 191h202z" />
    <glyph glyph-name="ycircumflex" unicode="&#x177;" horiz-adv-x="449" 
d="M318 497l-65 61l-72 -61h-134l120 178h185l103 -178h-137zM-1 -244q-74 0 -107 17l21 156q21 -8 65 -8q95 0 154 72h-91l-45 455l187 21l28 -318q32 92 78 299h181q-4 -40 -13.5 -90.5t-28.5 -119t-44 -133.5t-63 -129.5t-83 -113t-107 -78.5t-132 -30z" />
    <glyph glyph-name="Ydieresis" unicode="&#x178;" horiz-adv-x="547" 
d="M313 721q1 25 38 62.5t64 37.5q28 0 62.5 -31.5t33.5 -59.5q-1 -25 -39 -61.5t-62 -36.5q-28 0 -63 30.5t-34 58.5zM107 721q1 25 38 62.5t64 37.5q28 0 62.5 -31.5t33.5 -59.5q-1 -25 -39 -61.5t-62 -36.5q-28 0 -63 30.5t-34 58.5zM361 215h-3l-15 -215h-200l15 215h-2
l-152 397h211l71 -191l88 191h202z" />
    <glyph glyph-name="Zacute" unicode="&#x179;" horiz-adv-x="548" 
d="M207 647l139 178l191 -33l-170 -145h-160zM493 0h-473l4 118l250 332h-231l23 162h463l-5 -133l-249 -321h243z" />
    <glyph glyph-name="zacute" unicode="&#x17a;" horiz-adv-x="429" 
d="M120 497l139 178l191 -33l-170 -145h-160zM388 0h-389l4 76l176 236l-153 -9l17 147h396l-2 -75l-178 -235l145 8z" />
    <glyph glyph-name="Zdotaccent" unicode="&#x17b;" horiz-adv-x="548" 
d="M192 748q3 30 42.5 70.5t69.5 40.5q29 0 69.5 -34t39.5 -62q-3 -30 -43.5 -70.5t-67.5 -40.5q-30 0 -70.5 34t-39.5 62zM493 0h-473l4 118l250 332h-231l23 162h463l-5 -133l-249 -321h243z" />
    <glyph glyph-name="zdotaccent" unicode="&#x17c;" horiz-adv-x="429" 
d="M155 598q3 30 42.5 70.5t69.5 40.5q29 0 69.5 -34t39.5 -62q-3 -30 -43.5 -70.5t-67.5 -40.5q-30 0 -70.5 34t-39.5 62zM388 0h-389l4 76l176 236l-153 -9l17 147h396l-2 -75l-178 -235l145 8z" />
    <glyph glyph-name="Zcaron" unicode="&#x17d;" horiz-adv-x="548" 
d="M404 654h-184l-104 178h138l65 -61l71 61h135zM493 0h-473l4 118l250 332h-231l23 162h463l-5 -133l-249 -321h243z" />
    <glyph glyph-name="zcaron" unicode="&#x17e;" horiz-adv-x="429" 
d="M346 504h-184l-104 178h138l65 -61l71 61h135zM388 0h-389l4 76l176 236l-153 -9l17 147h396l-2 -75l-178 -235l145 8z" />
    <glyph glyph-name="Acaron" unicode="&#x1cd;" horiz-adv-x="577" 
d="M423 654h-184l-104 178h138l65 -61l71 61h135zM325 217l-33 210l-69 -210h102zM360 0l-11 69h-175l-23 -69h-193l230 612h266l106 -612h-200z" />
    <glyph glyph-name="acaron" unicode="&#x1ce;" 
d="M415 504h-184l-104 178h138l65 -61l71 61h135zM314 -20l-8 70q-82 -70 -155 -70q-64 0 -104 46t-40 138q0 136 84 221t209 85q139 0 215 -39l-30 -431zM242 112q58 0 73 168l1 -3l6 63q-14 4 -27 4q-17 0 -27.5 -2t-23 -11t-19.5 -26.5t-12 -50.5t-5 -81q0 -17 3 -30
t7 -18.5t9.5 -8.5t8 -3.5t6.5 -0.5z" />
    <glyph glyph-name="AEacute" unicode="&#x1fc;" horiz-adv-x="821" 
d="M365 647l139 178l191 -33l-170 -145h-160zM352 458l-95 -225h95l16 225h-16zM336 0l6 86h-147l-36 -86h-185l286 612h545l-34 -147l-202 3l-6 -86h205l-35 -148l-180 6l-6 -89l239 3l-34 -154h-416z" />
    <glyph glyph-name="aeacute" unicode="&#x1fd;" horiz-adv-x="712" 
d="M283 497l139 178l191 -33l-170 -145h-160zM482 -20q-121 0 -170 84q-66 -81 -145 -81q-90 0 -125 51.5t-35 149.5q0 67 22.5 120t55 83t72 50t69 26.5t50.5 6.5q98 0 170 -17q47 17 97 17q76 0 119 -35.5t43 -93.5q0 -66 -62 -115.5t-160 -64.5q5 -21 16 -31.5
t20.5 -12.5t24.5 -2q46 0 105 43l41 -109q-99 -69 -208 -69zM514 354q-52 0 -50 -101q70 15 70 70q0 31 -20 31zM249 112q30 0 36 59v12q0 16 2 46v13l2 -1q7 56 29 98q-9 1 -25.5 0t-20.5 -1q-27 0 -45.5 -29.5t-18.5 -94.5q0 -67 8.5 -84.5t32.5 -17.5z" />
    <glyph glyph-name="Oslashacute" unicode="&#x1fe;" horiz-adv-x="628" 
d="M139 647l139 178l191 -33l-170 -145h-160zM213 267q0 -19 3 -35l107 246q-3 1 -11 1q-50 0 -74.5 -44.5t-24.5 -167.5zM311 133q24 0 41 8.5t31.5 30.5t22 65.5t7.5 107.5q0 22 -4 41l-110 -252q4 -1 12 -1zM284 -20q-27 0 -51 3l-29 -66h-126l46 104q-117 73 -117 238
q0 162 94 267.5t243 105.5q24 0 45 -3l28 64h126l-43 -99q59 -35 90 -97.5t31 -143.5q0 -162 -94 -267.5t-243 -105.5z" />
    <glyph glyph-name="oslashacute" unicode="&#x1ff;" horiz-adv-x="476" 
d="M131 497l139 178l191 -33l-170 -145h-160zM233 352q-36 0 -45 -135l78 124q-12 11 -33 11zM243 98q19 0 30.5 38.5t14.5 93.5l-78 -124q11 -8 33 -8zM209 -20q-41 0 -72 10l-39 -61h-92l63 99q-60 55 -60 167q0 111 69 193t189 82q41 0 75 -9l39 62h92l-63 -99
q57 -54 57 -169q0 -112 -68 -193.5t-190 -81.5z" />
    <glyph glyph-name="Scommaaccent" unicode="&#x218;" horiz-adv-x="517" 
d="M233 209l-96 47q-43 22 -68 66t-25 91q0 97 71 158t176 61q29 0 59 -3.5t55.5 -9t44 -10.5t35.5 -10t19 -6l-45 -172q-14 11 -77 33.5t-94 22.5q-37 0 -45 -9q-6 -7 -6 -19t12.5 -26t29.5 -22l101 -51q60 -29 81 -71t21 -97q0 -85 -75.5 -143.5t-185.5 -58.5
q-111 0 -211 37l38 169q111 -59 200 -61l6 1q5 1 8 2.5t7.5 4.5t6.5 9.5t2 15.5q0 28 -45 51zM165 -108q0 21 30 46.5t55 25.5t51.5 -29t24.5 -45q-2 -22 -24.5 -65.5t-68.5 -99.5l-81 33q3 10 25.5 43t23.5 40q0 6 -18.5 23.5t-17.5 27.5z" />
    <glyph glyph-name="scommaaccent" unicode="&#x219;" horiz-adv-x="392" 
d="M155 -20q-43 0 -88.5 11.5t-73.5 28.5l48 142q70 -50 129 -50q25 0 25 14q0 3 -1.5 5t-5.5 4t-7.5 3t-12 4.5t-14.5 5.5l-51 24q-43 23 -63.5 55.5t-20.5 83.5q0 66 54 112.5t155 46.5q93 0 157 -33l-42 -131q-63 42 -123 42q-24 0 -24 -16q0 -12 53 -28l38 -13
q46 -22 67.5 -51t21.5 -85q0 -28 -11.5 -56.5t-35.5 -56t-69.5 -45t-104.5 -17.5zM102 -108q0 21 30 46.5t55 25.5t51.5 -29t24.5 -45q-2 -22 -24.5 -65.5t-68.5 -99.5l-81 33q3 10 25.5 43t23.5 40q0 6 -18.5 23.5t-17.5 27.5z" />
    <glyph glyph-name="uni021A" unicode="&#x21a;" horiz-adv-x="502" 
d="M201 0h-69l31 456l-165 -3l34 159h502l-33 -159l-137 2l-32 -455h-63l-21 -49q88 -26 84 -79q-3 -42 -53.5 -77.5t-146.5 -38.5l-17 71q96 7 98 31q2 22 -68 35l-2 5z" />
    <glyph glyph-name="uni021B" unicode="&#x21b;" horiz-adv-x="343" 
d="M271 -128q-3 -42 -53.5 -77.5t-146.5 -38.5l-17 71q96 7 98 31q2 22 -68 35l-2 5l48 85q-48 9 -78 45.5t-30 101.5q0 44 21 200h-55l9 110l62 10q1 7 4.5 42l5.5 55l191 25q-3 -23 -8 -64t-7 -58h114l-15 -120h-112l-4 -38t-3.5 -32.5t-2.5 -26t-1.5 -20.5t-1.5 -13.5
t-1 -7.5t0 -1q1 -22 12 -34.5t30 -12.5q9 0 26.5 4.5t24.5 9.5l32 -120q-74 -48 -143 -56l-13 -31q88 -26 84 -79z" />
    <glyph glyph-name="circumflex" unicode="&#x2c6;" horiz-adv-x="501" 
d="M317 497l-65 61l-72 -61h-134l120 178h185l103 -178h-137z" />
    <glyph glyph-name="caron" unicode="&#x2c7;" horiz-adv-x="490" 
d="M328 504h-184l-104 178h138l65 -61l71 61h135z" />
    <glyph glyph-name="breve" unicode="&#x2d8;" horiz-adv-x="506" 
d="M250 610q33 0 53.5 16t29.5 60h110q-8 -88 -69.5 -139t-137.5 -51q-82 0 -128.5 49.5t-39.5 140.5h110q1 -44 19.5 -60t52.5 -16z" />
    <glyph glyph-name="dotaccent" unicode="&#x2d9;" horiz-adv-x="441" 
d="M111 598q3 30 42.5 70.5t69.5 40.5q29 0 69.5 -34t39.5 -62q-3 -30 -43.5 -70.5t-67.5 -40.5q-30 0 -70.5 34t-39.5 62z" />
    <glyph glyph-name="ring" unicode="&#x2da;" horiz-adv-x="403" 
d="M316 589q-5 -45 -41.5 -77.5t-82.5 -32.5q-49 0 -79 30t-27 80q5 46 41.5 79t82.5 33q50 0 79.5 -29.5t26.5 -82.5zM161 589q-2 -16 8 -27.5t28 -11.5t30 11.5t14 27.5q2 18 -9 30t-29 12t-29 -12t-13 -30z" />
    <glyph glyph-name="ogonek" unicode="&#x2db;" horiz-adv-x="349" 
d="M61 -138q4 32 37 69t102 69h89q-106 -69 -113 -116v-2q1 -12 11 -21t24 -9q35 0 53 10l19 -79q-15 -8 -49.5 -17t-53.5 -9q-55 0 -89 28t-30 77z" />
    <glyph glyph-name="tilde" unicode="&#x2dc;" horiz-adv-x="545" 
d="M413 681l60 -65q-11 -34 -64 -78.5t-84 -44.5q-19 0 -70.5 16.5t-63.5 16.5q-17 0 -40 -18.5t-28 -27.5l-51 79l17 21q78 83 114 84q23 0 71 -18t61 -18q29 0 78 53z" />
    <glyph glyph-name="hungarumlaut" unicode="&#x2dd;" horiz-adv-x="523" 
d="M213 497l81 129l-127 -129h-160l112 178l186 -32l20 32l191 -33l-143 -145h-160z" />
    <glyph glyph-name="commaaccent" unicode="&#x326;" horiz-adv-x="264" 
d="M59 -108q0 21 30 46.5t55 25.5t51.5 -29t24.5 -45q-2 -22 -24.5 -65.5t-68.5 -99.5l-81 33q3 10 25.5 43t23.5 40q0 6 -18.5 23.5t-17.5 27.5z" />
    <glyph glyph-name="Wgrave" unicode="&#x1e80;" horiz-adv-x="872" 
d="M561 647h-160l-152 145l193 33zM490 0l-57 274l-101 -274h-227l-72 612h213l27 -309l104 309h178l64 -312l71 312h184l-154 -612h-230z" />
    <glyph glyph-name="wgrave" unicode="&#x1e81;" horiz-adv-x="698" 
d="M491 497h-160l-152 145l193 33zM358 0l-13 90q-43 -72 -71 -91l-209 1l-32 439l193 30l7 -312q48 82 70 201l3 -1l-14 93h188l24 -275q54 131 53 275h181q-4 -59 -16 -114.5t-33.5 -108.5t-36 -83.5t-42.5 -81.5t-34 -62h-218z" />
    <glyph glyph-name="Wacute" unicode="&#x1e82;" horiz-adv-x="872" 
d="M352 647l139 178l191 -33l-170 -145h-160zM490 0l-57 274l-101 -274h-227l-72 612h213l27 -309l104 309h178l64 -312l71 312h184l-154 -612h-230z" />
    <glyph glyph-name="wacute" unicode="&#x1e83;" horiz-adv-x="698" 
d="M246 497l139 178l191 -33l-170 -145h-160zM358 0l-13 90q-43 -72 -71 -91l-209 1l-32 439l193 30l7 -312q48 82 70 201l3 -1l-14 93h188l24 -275q54 131 53 275h181q-4 -59 -16 -114.5t-33.5 -108.5t-36 -83.5t-42.5 -81.5t-34 -62h-218z" />
    <glyph glyph-name="Wdieresis" unicode="&#x1e84;" horiz-adv-x="872" 
d="M476 721q1 25 38.5 62.5t63.5 37.5q28 0 62.5 -31.5t33.5 -59.5q-1 -25 -39 -61.5t-62 -36.5q-28 0 -63 30.5t-34 58.5zM270 721q1 25 38.5 62.5t63.5 37.5q28 0 62.5 -31.5t33.5 -59.5q-1 -25 -39 -61.5t-62 -36.5q-28 0 -63 30.5t-34 58.5zM490 0l-57 274l-101 -274
h-227l-72 612h213l27 -309l104 309h178l64 -312l71 312h184l-154 -612h-230z" />
    <glyph glyph-name="wdieresis" unicode="&#x1e85;" horiz-adv-x="698" 
d="M411 571q1 25 38 62.5t64 37.5q28 0 62.5 -31.5t33.5 -59.5q-1 -25 -39 -61.5t-62 -36.5q-28 0 -63 30.5t-34 58.5zM205 571q1 25 38 62.5t64 37.5q28 0 62.5 -31.5t33.5 -59.5q-1 -25 -39 -61.5t-62 -36.5q-28 0 -63 30.5t-34 58.5zM358 0l-13 90q-43 -72 -71 -91
l-209 1l-32 439l193 30l7 -312q48 82 70 201l3 -1l-14 93h188l24 -275q54 131 53 275h181q-4 -59 -16 -114.5t-33.5 -108.5t-36 -83.5t-42.5 -81.5t-34 -62h-218z" />
    <glyph glyph-name="Ygrave" unicode="&#x1ef2;" horiz-adv-x="547" 
d="M410 647h-160l-152 145l193 33zM361 215h-3l-15 -215h-200l15 215h-2l-152 397h211l71 -191l88 191h202z" />
    <glyph glyph-name="ygrave" unicode="&#x1ef3;" horiz-adv-x="449" 
d="M398 497h-160l-152 145l193 33zM-1 -244q-74 0 -107 17l21 156q21 -8 65 -8q95 0 154 72h-91l-45 455l187 21l28 -318q32 92 78 299h181q-4 -40 -13.5 -90.5t-28.5 -119t-44 -133.5t-63 -129.5t-83 -113t-107 -78.5t-132 -30z" />
    <glyph glyph-name="endash" unicode="&#x2013;" horiz-adv-x="460" 
d="M437 305l-5 -31l-41 -88h-368l6 31l52 88h356z" />
    <glyph glyph-name="emdash" unicode="&#x2014;" horiz-adv-x="690" 
d="M667 305l-6 -31l-40 -88h-598l6 31l52 88h586z" />
    <glyph glyph-name="quoteleft" unicode="&#x2018;" horiz-adv-x="254" 
d="M232 472q-9 -33 -43.5 -59.5t-66.5 -26.5q-36 0 -65 34.5t-20 83.5q28 80 159 213l86 -35q-11 -13 -29.5 -35t-25.5 -31t-16.5 -23.5t-14 -25.5t-6.5 -24q-1 -9 21.5 -32t20.5 -39z" />
    <glyph glyph-name="quoteright" unicode="&#x2019;" horiz-adv-x="254" 
d="M57 609q3 32 34 59t63 27q36 0 70 -35.5t31 -83.5q-12 -79 -121 -212l-92 35q4 7 13.5 20.5t12.5 19t10 16t9.5 15.5t7 13.5t6 13.5t4 12.5t3.5 14t1 13.5q0 9 -26.5 32.5t-25.5 39.5z" />
    <glyph glyph-name="quotesinglbase" unicode="&#x201a;" horiz-adv-x="255" 
d="M10 92q3 32 34 59t63 27q36 0 70 -35.5t31 -83.5q-12 -79 -121 -212l-92 35q4 7 13.5 20.5t12.5 19t10 16t9.5 15.5t7 13.5t6 13.5t4 12.5t3.5 14t1 13.5q0 9 -26.5 32.5t-25.5 39.5z" />
    <glyph glyph-name="quotedblleft" unicode="&#x201c;" horiz-adv-x="437" 
d="M450 472q-4 -33 -34.5 -59.5t-62.5 -26.5q-36 0 -70.5 35t-31.5 83q11 76 122 213l91 -35q-7 -11 -19.5 -30t-17 -26.5t-12 -21t-10 -21t-5.5 -18.5t-3 -22q0 -9 27 -32t26 -39zM232 472q-3 -33 -34 -59.5t-63 -26.5q-36 0 -70 35t-31 83q11 78 121 213l92 -35
q-6 -10 -19.5 -30t-17.5 -27t-12 -20.5t-10.5 -21t-5.5 -18.5t-3 -22q0 -9 27 -32t26 -39z" />
    <glyph glyph-name="quotedblright" unicode="&#x201d;" horiz-adv-x="480" 
d="M283 609q3 32 34 59t63 27q36 0 70 -35.5t31 -83.5q-12 -79 -121 -212l-92 35q4 7 13.5 20.5t12.5 19t10 16t9.5 15.5t7 13.5t6 13.5t4 12.5t3.5 14t1 13.5q0 9 -26.5 32.5t-25.5 39.5zM57 609q3 32 34 59t63 27q36 0 70 -35.5t31 -83.5q-12 -79 -121 -212l-92 35
q4 7 13.5 20.5t12.5 19t10 16t9.5 15.5t7 13.5t6 13.5t4 12.5t3.5 14t1 13.5q0 9 -26.5 32.5t-25.5 39.5z" />
    <glyph glyph-name="quotedblbase" unicode="&#x201e;" horiz-adv-x="483" 
d="M238 92q3 32 34 59t63 27q36 0 70 -35.5t31 -83.5q-12 -79 -121 -212l-92 35q4 7 13.5 20.5t12.5 19t10 16t9.5 15.5t7 13.5t6 13.5t4 12.5t3.5 14t1 13.5q0 9 -26.5 32.5t-25.5 39.5zM10 92q3 32 34 59t63 27q36 0 70 -35.5t31 -83.5q-12 -79 -121 -212l-92 35
q4 7 13.5 20.5t12.5 19t10 16t9.5 15.5t7 13.5t6 13.5t4 12.5t3.5 14t1 13.5q0 9 -26.5 32.5t-25.5 39.5z" />
    <glyph glyph-name="bullet" unicode="&#x2022;" horiz-adv-x="557" 
d="M105 249q4 49 67.5 114t105.5 65q46 0 111.5 -53t63.5 -101q-5 -49 -69 -113t-105 -64q-48 0 -112.5 52t-61.5 100z" />
    <glyph glyph-name="ellipsis" unicode="&#x2026;" horiz-adv-x="710" 
d="M4 37q3 28 45 67t71 39t71.5 -31.5t41.5 -59.5q-3 -27 -46 -66t-69 -39q-30 0 -72.5 32t-41.5 58zM460 37q3 28 45 67t71 39t71 -31.5t41 -59.5q-2 -27 -45.5 -66t-68.5 -39q-30 0 -72.5 32t-41.5 58zM233 37q3 28 45 67t71 39t71 -31.5t41 -59.5q-2 -27 -45 -66t-69 -39
q-30 0 -72.5 32t-41.5 58z" />
    <glyph glyph-name="guilsinglleft" unicode="&#x2039;" horiz-adv-x="332" 
d="M167 -6l-163 238l196 238l111 -49l-106 -189l82 -189z" />
    <glyph glyph-name="guilsinglright" unicode="&#x203a;" horiz-adv-x="332" 
d="M165 470l163 -238l-196 -238l-111 46l106 192l-82 187z" />
    <glyph glyph-name="fraction" unicode="&#x2044;" horiz-adv-x="330" 
d="M-81 1l411 659l81 -54l-411 -658z" />
    <glyph glyph-name="Euro" unicode="&#x20ac;" horiz-adv-x="533" 
d="M499 21q-29 -18 -86 -29.5t-123 -11.5q-199 0 -232 195h-81l32 93l44 18q1 3 1 9q0 4 1 11.5t1 11.5h-62l31 94l39 21h13q60 199 302 199q84 0 168 -22l-43 -160q-86 25 -153 25q-33 0 -50 -9.5t-25 -32.5h181l-40 -115h-156v-2q-1 -9 -1 -27h152l-40 -114h-85
q26 -33 72 -33q70 0 133 21z" />
    <glyph glyph-name="minus" unicode="&#x2212;" horiz-adv-x="533" 
d="M456 325l-9 -119h-372l9 119h372z" />
    <glyph glyph-name="idotaccent" horiz-adv-x="235" 
d="M42 584q0 29 36.5 68t70.5 39q29 0 69 -28.5t40 -56.5q0 -30 -37.5 -68.5t-69.5 -38.5q-30 0 -69.5 28.5t-39.5 56.5zM49 445l190 25l-33 -470h-189z" />
    <glyph glyph-name="caron.alt" horiz-adv-x="277" 
d="M79 637q1 22 36 40.5t63 18.5q65 0 60 -122q-4 -63 -121 -214l-75 36q39 66 44 144q1 21 -3 51t-4 46z" />
    <glyph glyph-name="caron.alt.sc" horiz-adv-x="277" 
d="M79 609q1 22 36 40.5t63 18.5q65 0 60 -121q-4 -64 -121 -215l-75 36q39 67 44 144q1 21 -3 51t-4 46z" />
    <glyph glyph-name="caron.alt.case" horiz-adv-x="277" 
d="M79 557q1 22 36 40.5t63 18.5q65 0 60 -122q-4 -63 -121 -214l-75 36q39 66 44 144q1 21 -3 51t-4 46z" />
    <glyph glyph-name="commaaccent.case" horiz-adv-x="264" 
d="M59 -108q0 21 30 46.5t55 25.5t51.5 -29t24.5 -45q-2 -22 -24.5 -65.5t-68.5 -99.5l-81 33q3 10 25.5 43t23.5 40q0 6 -18.5 23.5t-17.5 27.5z" />
    <glyph glyph-name="acute.case" horiz-adv-x="303" 
d="M-14 647l139 178l191 -33l-170 -145h-160z" />
    <glyph glyph-name="grave.case" horiz-adv-x="307" 
d="M310 647h-160l-152 145l193 33z" />
    <glyph glyph-name="hungarumlaut.case" horiz-adv-x="523" 
d="M213 647l81 129l-127 -129h-160l112 178l186 -32l20 32l191 -33l-143 -145h-160z" />
    <glyph glyph-name="circumflex.case" horiz-adv-x="501" 
d="M317 647l-65 61l-72 -61h-134l120 178h185l103 -178h-137z" />
    <glyph glyph-name="caron.case" horiz-adv-x="490" 
d="M328 654h-184l-104 178h138l65 -61l71 61h135z" />
    <glyph glyph-name="breve.case" horiz-adv-x="506" 
d="M250 760q33 0 53.5 16t29.5 60h110q-8 -88 -69.5 -139t-137.5 -51q-82 0 -128.5 49.5t-39.5 140.5h110q1 -44 19.5 -60t52.5 -16z" />
    <glyph glyph-name="tilde.case" horiz-adv-x="545" 
d="M413 831l60 -65q-11 -34 -64 -78.5t-84 -44.5q-19 0 -70.5 16.5t-63.5 16.5q-17 0 -40 -18.5t-28 -27.5l-51 79l17 21q78 83 114 84q23 0 71 -18t61 -18q29 0 78 53z" />
    <glyph glyph-name="macron.case" horiz-adv-x="422" 
d="M369 789l-1 -15l-40 -113h-277l1 15l39 113h278z" />
    <glyph glyph-name="dieresis.case" horiz-adv-x="593" 
d="M301 721q1 25 38 62.5t64 37.5q28 0 62.5 -31.5t33.5 -59.5q-1 -25 -39 -61.5t-62 -36.5q-28 0 -63 30.5t-34 58.5zM95 721q1 25 38 62.5t64 37.5q28 0 62.5 -31.5t33.5 -59.5q-1 -25 -39 -61.5t-62 -36.5q-28 0 -63 30.5t-34 58.5z" />
    <glyph glyph-name="dotaccent.case" horiz-adv-x="441" 
d="M111 748q3 30 42.5 70.5t69.5 40.5q29 0 69.5 -34t39.5 -62q-3 -30 -43.5 -70.5t-67.5 -40.5q-30 0 -70.5 34t-39.5 62z" />
    <glyph glyph-name="ring.case" horiz-adv-x="403" 
d="M316 739q-5 -45 -41.5 -77.5t-82.5 -32.5q-49 0 -79 30t-27 80q5 46 41.5 79t82.5 33q50 0 79.5 -29.5t26.5 -82.5zM161 739q-2 -16 8 -27.5t28 -11.5t30 11.5t14 27.5q2 18 -9 30t-29 12t-29 -12t-13 -30z" />
    <glyph glyph-name="cedilla.case" horiz-adv-x="308" 
d="M74 -102l58 102h68l-21 -49q88 -26 84 -79q-3 -42 -53.5 -77.5t-146.5 -38.5l-17 71q96 7 98 31q2 22 -68 35z" />
    <glyph glyph-name="ogonek.case" horiz-adv-x="349" 
d="M61 -138q4 32 37 69t102 69h89q-106 -69 -113 -116v-2q1 -12 11 -21t24 -9q35 0 53 10l19 -79q-15 -8 -49.5 -17t-53.5 -9q-55 0 -89 28t-30 77z" />
    <glyph glyph-name="zero.fit" horiz-adv-x="533" 
d="M526 370q2 -191 -79.5 -290.5t-208.5 -99.5q-231 0 -231 251q0 96 18 169.5t46 116.5t68 69.5t78.5 36t82.5 9.5q231 0 226 -262zM253 113q70 6 70 236q2 34 1.5 61.5t-4 47t-13.5 30t-28 10.5q-66 0 -66 -252q0 -5 -0.5 -21t0 -25t1 -24t3 -24t7 -18.5t12 -14.5t17.5 -6
z" />
    <glyph glyph-name="one.fit" horiz-adv-x="405" 
d="M330 0h-206l29 417l-133 -55l-33 164q8 3 117.5 38.5t144.5 47.5h124z" />
    <glyph glyph-name="two.fit" horiz-adv-x="496" 
d="M445 0h-434l7 145q149 116 204.5 176t54.5 99q0 24 -22 36.5t-54 12.5q-57 0 -129 -35l-33 152q115 46 232 46q104 0 159 -45.5t55 -127.5q0 -139 -215 -302l212 4z" />
    <glyph glyph-name="three.fit" horiz-adv-x="472" 
d="M144 -20q-105 0 -162 25l44 164q81 -27 127 -27q92 0 92 44q0 10 -1.5 16t-6.5 14t-18 12t-34 4q-59 0 -82 -6l-22 145q174 0 174 61q0 41 -54 41q-26 0 -65 -12t-65 -28l-31 150q41 23 106 36t121 13q95 0 147.5 -38.5t52.5 -103.5q0 -112 -119 -155q106 -31 106 -141
q0 -101 -88 -157.5t-222 -56.5z" />
    <glyph glyph-name="four.fit" horiz-adv-x="561" 
d="M294 220l12 173l-127 -173h115zM522 77h-52l-5 -77h-187l5 77h-296l10 138l306 397h205l-28 -392h79z" />
    <glyph glyph-name="five.fit" horiz-adv-x="498" 
d="M159 -20q-15 0 -28 0.5t-22.5 1t-22 2t-18 2t-19 3t-17 3.5t-20 4.5t-20.5 4.5l41 156q93 -30 152 -30q17 0 28.5 1.5t26.5 6.5t23 17.5t8 32.5q0 54 -107 54q-59 0 -121 -11l43 384h409l-33 -147h-219l-9 -80q26 6 49 6q88 0 139.5 -42.5t52.5 -120.5
q-1 -125 -91.5 -186.5t-224.5 -61.5z" />
    <glyph glyph-name="six.fit" horiz-adv-x="507" 
d="M504 226q0 -42 -15.5 -83t-46 -78.5t-85.5 -61t-126 -23.5q-224 0 -224 259q0 90 21 160t54.5 113t80 70.5t93.5 38.5t99 11q90 0 145 -21l-34 -162q-78 26 -122 26q-50 0 -78.5 -17t-43.5 -68q42 26 101 26q181 0 181 -190zM262 113q18 0 33 21t15 63q0 32 -16.5 53.5
t-41.5 21.5q-24 0 -45 -12v-41q1 -33 4.5 -53.5t16 -36.5t34.5 -16z" />
    <glyph glyph-name="seven.fit" horiz-adv-x="490" 
d="M239 -27l-203 62l224 407h-252l35 170h462l-12 -143q-16 -31 -42.5 -82.5t-82.5 -160t-93 -181t-36 -72.5z" />
    <glyph glyph-name="eight.fit" horiz-adv-x="516" 
d="M231 -20q-118 0 -176 43t-58 115q0 95 98 160q-57 52 -57 136q0 95 74.5 146.5t182.5 50.5q104 1 158.5 -37.5t54.5 -111.5q0 -34 -22.5 -75t-69.5 -73q49 -32 68.5 -65t19.5 -92q0 -83 -76 -140t-197 -57zM225 464q0 -15 13.5 -27t52.5 -33q34 30 34 63q0 15 -14.5 24
t-33.5 9q-21 0 -33.5 -7.5t-15.5 -14.5t-3 -14zM257 112q17 0 29.5 4.5t18 10.5t8.5 13.5t3 11v7.5q0 5 -6 12.5t-29 22t-59 29.5q-35 -27 -35 -64q0 -20 20 -33.5t50 -13.5z" />
    <glyph glyph-name="nine.fit" horiz-adv-x="512" 
d="M260 336q24 0 44 12q1 12 1 41q-2 51 -13 78.5t-43 27.5q-20 0 -34 -20t-14 -59q0 -80 59 -80zM162 -20q-86 0 -155 21l32 155q40 -19 112 -19q45 0 77 15.5t52 59.5q-42 -20 -91 -20q-95 0 -138.5 52.5t-43.5 141.5q0 42 15.5 83t46 78.5t86 61t126.5 23.5
q224 0 224 -259q0 -89 -22.5 -159.5t-58 -113t-82 -71t-91 -39t-89.5 -10.5z" />
    <glyph glyph-name="zero.osf" horiz-adv-x="560" 
d="M545 314q0 -90 -27.5 -157.5t-72.5 -104.5t-94.5 -54.5t-102.5 -17.5q-102 0 -167.5 63t-65.5 180q0 73 19 132.5t48 96t67.5 61t75 34.5t72.5 10q115 0 181.5 -62t66.5 -181zM275 153q36 0 60 27t24 89q0 60 -23.5 87t-55.5 27t-55.5 -25t-23.5 -87q0 -60 21.5 -89
t52.5 -29z" />
    <glyph glyph-name="one.osf" horiz-adv-x="401" 
d="M351 0h-206l23 344l-134 -56l-33 164q19 7 124 41t138 46h124z" />
    <glyph glyph-name="two.osf" horiz-adv-x="496" 
d="M449 0h-433l7 145q133 76 186.5 118t53.5 74q0 60 -76 60q-58 0 -130 -36l-33 153q117 45 233 45q104 0 159.5 -45t55.5 -128q0 -56 -49 -115.5t-129 -113.5l193 4z" />
    <glyph glyph-name="three.osf" horiz-adv-x="467" 
d="M129 -95q-105 0 -163 25l45 163q85 -26 126 -26q92 0 92 44q0 10 -1 15.5t-6 14t-18 12.5t-34 4q-60 0 -82 -6l-23 145q175 0 175 60q0 42 -54 42q-26 0 -65 -12t-65 -28l-31 150q41 23 106.5 36t120.5 13q95 0 147.5 -38.5t52.5 -103.5q0 -110 -117 -155
q104 -31 104 -142q0 -100 -88 -156.5t-222 -56.5z" />
    <glyph glyph-name="four.osf" horiz-adv-x="549" 
d="M297 143l12 170l-119 -170h107zM517 0h-43l-6 -77h-187l6 77h-286l9 138l297 401h205l-28 -396h69z" />
    <glyph glyph-name="five.osf" horiz-adv-x="496" 
d="M149 -93q-67 0 -167 20l41 157q94 -30 153 -30q14 0 22.5 0.5t22 3.5t21 9t13.5 17.5t6 27.5q0 26 -23.5 39.5t-82.5 13.5q-61 0 -121 -11l43 385h408l-32 -148h-219l-10 -79q25 6 50 6q87 0 139 -42.5t53 -120.5q-1 -85 -47.5 -143t-115 -81.5t-154.5 -23.5z" />
    <glyph glyph-name="six.osf" horiz-adv-x="536" 
d="M518 226q0 -42 -15.5 -83t-46 -78.5t-86 -61t-126.5 -23.5q-224 0 -224 259q0 90 21 160t54.5 113t80 70.5t93.5 38.5t99 11q90 0 145 -21l-33 -162q-78 26 -122 26q-51 0 -79.5 -17t-42.5 -68q40 26 100 26q182 0 182 -190zM276 113q18 0 33 21t15 63q0 32 -17 53.5
t-41 21.5q-25 0 -46 -12v-41q2 -34 5.5 -54t16 -36t34.5 -16z" />
    <glyph glyph-name="seven.osf" horiz-adv-x="484" 
d="M234 -100l-188 62l224 407h-267l36 170h461l-12 -144q-16 -31 -42.5 -82.5t-82.5 -160t-93 -180.5t-36 -72z" />
    <glyph glyph-name="eight.osf" horiz-adv-x="509" 
d="M233 -20q-118 0 -176 43t-58 115q0 95 98 160q-57 52 -57 136q0 95 74.5 146.5t182.5 50.5q104 1 158.5 -37.5t54.5 -111.5q0 -34 -22.5 -75t-69.5 -73q49 -32 68.5 -65t19.5 -92q0 -83 -76 -140t-197 -57zM227 464q0 -15 13.5 -27t52.5 -33q34 30 34 63q0 15 -14.5 24
t-33.5 9q-21 0 -33.5 -7.5t-15.5 -14.5t-3 -14zM259 112q17 0 29.5 4.5t18 10.5t8.5 13.5t3 11v7.5q0 5 -6 12.5t-29 22t-59 29.5q-35 -27 -35 -64q0 -20 20 -33.5t50 -13.5z" />
    <glyph glyph-name="nine.osf" horiz-adv-x="542" 
d="M274 263q26 0 45 12q1 13 1 41q-2 34 -5.5 54t-16 36t-34.5 16q-20 0 -34 -19.5t-14 -58.5q0 -81 58 -81zM176 -93q-88 0 -154 22l32 155q40 -19 112 -19q46 0 78 15.5t51 60.5q-40 -21 -91 -21q-95 0 -138.5 52.5t-43.5 140.5q0 42 15.5 83.5t46 79t86 60.5t126.5 23
q224 0 224 -259q0 -89 -22.5 -159.5t-58 -113t-82.5 -71t-91.5 -39t-89.5 -10.5z" />
    <glyph glyph-name="zero.tosf" 
d="M536 314q0 -90 -27.5 -157.5t-72.5 -104.5t-94.5 -54.5t-102.5 -17.5q-102 0 -167.5 63t-65.5 180q0 73 19 132.5t48 96t67.5 61t75 34.5t72.5 10q115 0 181.5 -62t66.5 -181zM266 153q36 0 60 27t24 89q0 60 -23.5 87t-55.5 27t-55.5 -25t-23.5 -87q0 -60 21.5 -89
t52.5 -29z" />
    <glyph glyph-name="one.tosf" 
d="M461 0h-206l23 344l-134 -56l-33 164q19 7 124 41t138 46h124z" />
    <glyph glyph-name="two.tosf" 
d="M484 0h-433l7 145q133 76 186.5 118t53.5 74q0 60 -76 60q-58 0 -130 -36l-33 153q117 45 233 45q104 0 159.5 -45t55.5 -128q0 -56 -49 -115.5t-129 -113.5l193 4z" />
    <glyph glyph-name="three.tosf" 
d="M180 -95q-105 0 -163 25l45 163q85 -26 126 -26q92 0 92 44q0 10 -1 15.5t-6 14t-18 12.5t-34 4q-59 0 -82 -6l-23 145q175 0 175 60q0 42 -54 42q-26 0 -65 -12t-65 -28l-31 150q41 23 106.5 36t120.5 13q95 0 147.5 -38.5t52.5 -103.5q0 -110 -117 -155
q104 -31 104 -142q0 -100 -88 -156.5t-222 -56.5z" />
    <glyph glyph-name="four.tosf" 
d="M283 143l12 170l-119 -170h107zM503 0h-43l-6 -77h-187l6 77h-286l9 138l297 401h205l-28 -396h69z" />
    <glyph glyph-name="five.tosf" 
d="M170 -93q-67 0 -167 20l41 157q94 -30 153 -30q14 0 22.5 0.5t22 3.5t21 9t13.5 17.5t6 27.5q0 26 -23.5 39.5t-82.5 13.5q-60 0 -121 -11l43 385h408l-32 -148h-219l-10 -79q26 6 50 6q87 0 139 -42.5t53 -120.5q-1 -85 -47.5 -143t-115 -81.5t-154.5 -23.5z" />
    <glyph glyph-name="six.tosf" 
d="M516 226q0 -42 -15.5 -83t-46 -78.5t-86 -61t-126.5 -23.5q-224 0 -224 259q0 90 21 160t54.5 113t80 70.5t93.5 38.5t99 11q90 0 145 -21l-33 -162q-78 26 -122 26q-51 0 -79.5 -17t-42.5 -68q40 26 100 26q182 0 182 -190zM274 113q18 0 33 21t15 63q0 32 -17 53.5
t-41 21.5q-25 0 -46 -12v-41q2 -34 5.5 -54t16 -36t34.5 -16z" />
    <glyph glyph-name="seven.tosf" 
d="M263 -100l-188 62l224 407h-267l36 170h461l-12 -144q-16 -31 -42.5 -82.5t-82.5 -160t-93 -180.5t-36 -72z" />
    <glyph glyph-name="eight.tosf" 
d="M252 -20q-118 0 -176 43t-58 115q0 95 98 160q-57 52 -57 136q0 95 74.5 146.5t182.5 50.5q104 1 158.5 -37.5t54.5 -111.5q0 -34 -22.5 -75t-69.5 -73q49 -32 68.5 -65t19.5 -92q0 -83 -76 -140t-197 -57zM246 464q0 -15 13.5 -27t52.5 -33q34 30 34 63q0 15 -14.5 24
t-33.5 9q-21 0 -33.5 -7.5t-15.5 -14.5t-3 -14zM278 112q17 0 29.5 4.5t18 10.5t8.5 13.5t3 11v7.5q0 5 -6 12.5t-29 22t-59 29.5q-35 -27 -35 -64q0 -20 20 -33.5t50 -13.5z" />
    <glyph glyph-name="nine.tosf" 
d="M268 263q26 0 45 12q1 13 1 41q-2 34 -5.5 54t-16 36t-34.5 16q-20 0 -34 -19.5t-14 -58.5q0 -81 58 -81zM170 -93q-88 0 -154 22l32 155q40 -19 112 -19q46 0 78 15.5t51 60.5q-40 -21 -91 -21q-95 0 -138.5 52.5t-43.5 140.5q0 42 15.5 83.5t46 79t86 60.5t126.5 23
q224 0 224 -259q0 -89 -22.5 -159.5t-58 -113t-82.5 -71t-91.5 -39t-89.5 -10.5z" />
    <glyph glyph-name="A.sc" 
d="M301 221l-26 164l-54 -164h80zM335 0l-11 71h-153l-23 -71h-187l203 539h274l96 -539h-199z" />
    <glyph glyph-name="Agrave.sc" 
d="M441 582h-160l-152 144l193 33zM301 221l-26 164l-54 -164h80zM335 0l-11 71h-153l-23 -71h-187l203 539h274l96 -539h-199z" />
    <glyph glyph-name="Aacute.sc" 
d="M184 582l139 177l191 -33l-170 -144h-160zM301 221l-26 164l-54 -164h80zM335 0l-11 71h-153l-23 -71h-187l203 539h274l96 -539h-199z" />
    <glyph glyph-name="Acircumflex.sc" 
d="M367 582l-65 60l-72 -60h-134l120 177h185l103 -177h-137zM301 221l-26 164l-54 -164h80zM335 0l-11 71h-153l-23 -71h-187l203 539h274l96 -539h-199z" />
    <glyph glyph-name="Atilde.sc" 
d="M441 765l60 -65q-11 -34 -64 -78.5t-84 -44.5q-19 0 -70.5 16.5t-63.5 16.5q-17 0 -40 -18t-28 -27l-51 78l17 21q78 83 114 84q23 0 71 -18t61 -18q29 0 78 53zM301 221l-26 164l-54 -164h80zM335 0l-11 71h-153l-23 -71h-187l203 539h274l96 -539h-199z" />
    <glyph glyph-name="Adieresis.sc" 
d="M315 655q1 25 38 62.5t64 37.5q28 0 62.5 -31.5t33.5 -59.5q-1 -25 -39 -61.5t-62 -36.5q-28 0 -63 30.5t-34 58.5zM109 655q1 25 38 62.5t64 37.5q28 0 62.5 -31.5t33.5 -59.5q-1 -25 -39 -61.5t-62 -36.5q-28 0 -63 30.5t-34 58.5zM301 221l-26 164l-54 -164h80zM335 0
l-11 71h-153l-23 -71h-187l203 539h274l96 -539h-199z" />
    <glyph glyph-name="Aring.sc" 
d="M416 674q-5 -45 -41.5 -78t-82.5 -33q-49 0 -79 30.5t-27 80.5q5 45 41.5 78t82.5 33q50 0 79.5 -29t26.5 -82zM261 674q-2 -17 8 -28.5t28 -11.5t30 11.5t14 28.5t-9 29t-29 12t-29 -11.5t-13 -29.5zM301 221l-26 164l-54 -164h80zM335 0l-11 71h-153l-23 -71h-187
l203 539h274l96 -539h-199z" />
    <glyph glyph-name="Amacron.sc" 
d="M465 723l-1 -15l-40 -113h-277l1 15l39 113h278zM301 221l-26 164l-54 -164h80zM335 0l-11 71h-153l-23 -71h-187l203 539h274l96 -539h-199z" />
    <glyph glyph-name="Abreve.sc" 
d="M310 695q33 0 53.5 15.5t29.5 59.5h110q-8 -88 -69.5 -139t-137.5 -51q-82 0 -128.5 49.5t-39.5 140.5h110q1 -44 19.5 -59.5t52.5 -15.5zM301 221l-26 164l-54 -164h80zM335 0l-11 71h-153l-23 -71h-187l203 539h274l96 -539h-199z" />
    <glyph glyph-name="Aogonek.sc" 
d="M301 221l-26 164l-54 -164h80zM441 0h-106l-11 71h-153l-23 -71h-187l203 539h274l96 -539h-4q-106 -71 -113 -118q1 -12 11 -21t24 -9q35 0 53 10l19 -79q-15 -8 -49.5 -17t-53.5 -9q-55 0 -89 28t-30 77q4 32 37 69t102 69z" />
    <glyph glyph-name="Acaron.sc" 
d="M396 588h-184l-104 178h138l65 -61l71 61h135zM301 221l-26 164l-54 -164h80zM335 0l-11 71h-153l-23 -71h-187l203 539h274l96 -539h-199z" />
    <glyph glyph-name="B.sc" horiz-adv-x="497" 
d="M251 421h-15l-8 -88h18q56 0 56 42q0 14 -14.5 30t-36.5 16zM239 220h-2q-2 0 -7.5 0.5t-10.5 0.5l-9 -104h3q42 0 59 11.5t17 36.5q0 22 -15 38.5t-35 16.5zM9 0l42 539h214q117 0 167 -33t50 -96q0 -33 -21 -67t-60 -59q39 -15 64 -43.5t25 -64.5q0 -85 -68.5 -130.5
t-181.5 -45.5h-231z" />
    <glyph glyph-name="C.sc" horiz-adv-x="488" 
d="M430 156l21 -140q-30 -15 -78.5 -25t-74.5 -8q-151 -2 -220 61.5t-69 202.5q0 153 89.5 232.5t215.5 79.5q129 0 171 -22l-38 -154q-82 24 -122 24q-107 0 -107 -138q0 -71 29 -101t86 -30q7 0 42 5.5t55 12.5z" />
    <glyph glyph-name="Ccedilla.sc" horiz-adv-x="488" 
d="M392 -128q-3 -42 -53.5 -77.5t-146.5 -38.5l-17 71q96 7 98 31q2 22 -68 35l-2 5l49 86q-126 7 -184.5 70.5t-58.5 192.5q0 153 89.5 232.5t215.5 79.5q129 0 171 -22l-38 -154q-82 24 -122 24q-107 0 -107 -138q0 -71 29 -101t86 -30q7 0 42 5.5t55 12.5l21 -140
q-48 -25 -129 -32l-14 -33q88 -26 84 -79z" />
    <glyph glyph-name="Cacute.sc" horiz-adv-x="488" 
d="M219 582l139 177l191 -33l-170 -144h-160zM430 156l21 -140q-30 -15 -78.5 -25t-74.5 -8q-151 -2 -220 61.5t-69 202.5q0 153 89.5 232.5t215.5 79.5q129 0 171 -22l-38 -154q-82 24 -122 24q-107 0 -107 -138q0 -71 29 -101t86 -30q7 0 42 5.5t55 12.5z" />
    <glyph glyph-name="Ccircumflex.sc" horiz-adv-x="488" 
d="M373 582l-65 60l-72 -60h-134l120 177h185l103 -177h-137zM430 156l21 -140q-30 -15 -78.5 -25t-74.5 -8q-151 -2 -220 61.5t-69 202.5q0 153 89.5 232.5t215.5 79.5q129 0 171 -22l-38 -154q-82 24 -122 24q-107 0 -107 -138q0 -71 29 -101t86 -30q7 0 42 5.5t55 12.5z
" />
    <glyph glyph-name="Cdotaccent.sc" horiz-adv-x="488" 
d="M193 682q3 30 42.5 71t69.5 41q29 0 69.5 -34.5t39.5 -62.5q-3 -30 -43.5 -70.5t-67.5 -40.5q-30 0 -70.5 34t-39.5 62zM430 156l21 -140q-30 -15 -78.5 -25t-74.5 -8q-151 -2 -220 61.5t-69 202.5q0 153 89.5 232.5t215.5 79.5q129 0 171 -22l-38 -154q-82 24 -122 24
q-107 0 -107 -138q0 -71 29 -101t86 -30q7 0 42 5.5t55 12.5z" />
    <glyph glyph-name="Ccaron.sc" horiz-adv-x="488" 
d="M393 588h-184l-104 178h138l65 -61l71 61h135zM430 156l21 -140q-30 -15 -78.5 -25t-74.5 -8q-151 -2 -220 61.5t-69 202.5q0 153 89.5 232.5t215.5 79.5q129 0 171 -22l-38 -154q-82 24 -122 24q-107 0 -107 -138q0 -71 29 -101t86 -30q7 0 42 5.5t55 12.5z" />
    <glyph glyph-name="D.sc" horiz-adv-x="561" 
d="M51 539h217q63 0 111 -11t88 -36.5t61.5 -73t21.5 -116.5q0 -137 -90 -219.5t-215 -82.5h-236zM244 402l-19 -267h8q57 0 82.5 31.5t25.5 113.5q0 55 -25 88.5t-54 33.5h-18z" />
    <glyph glyph-name="Dcaron.sc" horiz-adv-x="561" 
d="M394 588h-184l-104 178h138l65 -61l71 61h135zM51 539h217q63 0 111 -11t88 -36.5t61.5 -73t21.5 -116.5q0 -137 -90 -219.5t-215 -82.5h-236zM244 402l-19 -267h8q57 0 82.5 31.5t25.5 113.5q0 55 -25 88.5t-54 33.5h-18z" />
    <glyph glyph-name="E.sc" horiz-adv-x="445" 
d="M9 0l42 539h401l-34 -136l-175 1l-4 -63h177l-38 -137l-150 6l-5 -71l215 2l-36 -141h-393z" />
    <glyph glyph-name="Egrave.sc" horiz-adv-x="445" 
d="M412 582h-160l-152 144l193 33zM9 0l42 539h401l-34 -136l-175 1l-4 -63h177l-38 -137l-150 6l-5 -71l215 2l-36 -141h-393z" />
    <glyph glyph-name="Eacute.sc" horiz-adv-x="445" 
d="M159 582l139 177l191 -33l-170 -144h-160zM9 0l42 539h401l-34 -136l-175 1l-4 -63h177l-38 -137l-150 6l-5 -71l215 2l-36 -141h-393z" />
    <glyph glyph-name="Ecircumflex.sc" horiz-adv-x="445" 
d="M330 582l-65 60l-72 -60h-134l120 177h185l103 -177h-137zM9 0l42 539h401l-34 -136l-175 1l-4 -63h177l-38 -137l-150 6l-5 -71l215 2l-36 -141h-393z" />
    <glyph glyph-name="Edieresis.sc" horiz-adv-x="445" 
d="M274 655q1 25 38.5 62.5t63.5 37.5q28 0 62.5 -31.5t33.5 -59.5q-1 -25 -39 -61.5t-62 -36.5q-28 0 -63 30.5t-34 58.5zM68 655q1 25 38.5 62.5t63.5 37.5q28 0 62.5 -31.5t33.5 -59.5q-1 -25 -39 -61.5t-62 -36.5q-28 0 -63 30.5t-34 58.5zM9 0l42 539h401l-34 -136
l-175 1l-4 -63h177l-38 -137l-150 6l-5 -71l215 2l-36 -141h-393z" />
    <glyph glyph-name="Emacron.sc" horiz-adv-x="445" 
d="M409 723l-1 -15l-40 -113h-277l1 15l39 113h278zM9 0l42 539h401l-34 -136l-175 1l-4 -63h177l-38 -137l-150 6l-5 -71l215 2l-36 -141h-393z" />
    <glyph glyph-name="Ebreve.sc" horiz-adv-x="445" 
d="M250 695q33 0 53.5 15.5t29.5 59.5h110q-8 -88 -69.5 -139t-137.5 -51q-82 0 -128.5 49.5t-39.5 140.5h110q1 -44 19.5 -59.5t52.5 -15.5zM9 0l42 539h401l-34 -136l-175 1l-4 -63h177l-38 -137l-150 6l-5 -71l215 2l-36 -141h-393z" />
    <glyph glyph-name="Edotaccent.sc" horiz-adv-x="445" 
d="M166 682q3 30 42.5 71t69.5 41q29 0 69.5 -34.5t39.5 -62.5q-3 -30 -43.5 -70.5t-67.5 -40.5q-30 0 -70.5 34t-39.5 62zM9 0l42 539h401l-34 -136l-175 1l-4 -63h177l-38 -137l-150 6l-5 -71l215 2l-36 -141h-393z" />
    <glyph glyph-name="Eogonek.sc" horiz-adv-x="445" 
d="M9 0l42 539h401l-34 -136l-175 1l-4 -63h177l-38 -137l-150 6l-5 -71l215 2l-36 -141h-393zM173 -138q4 32 37 69t102 69h89q-106 -71 -113 -118q1 -12 11 -21t24 -9q35 0 53 10l19 -79q-15 -8 -49.5 -17t-53.5 -9q-55 0 -89 28t-30 77z" />
    <glyph glyph-name="Ecaron.sc" horiz-adv-x="445" 
d="M359 588h-184l-104 178h138l65 -61l71 61h135zM12 0l42 539h401l-34 -136l-175 1l-4 -63h177l-38 -137l-150 6l-5 -71l215 2l-36 -141h-393z" />
    <glyph glyph-name="F.sc" horiz-adv-x="435" 
d="M380 183l-153 7l-15 -190h-203l42 539h401l-34 -136l-175 1l-7 -90h180z" />
    <glyph glyph-name="G.sc" horiz-adv-x="541" 
d="M493 19q-21 -13 -78 -25.5t-129 -12.5q-141 0 -209 65t-68 198q0 73 19.5 129.5t51.5 91t76.5 56.5t89.5 30.5t96 8.5q50 0 107 -10t84 -23l-61 -153q-72 30 -121 30q-136 0 -133 -136q-1 -75 23.5 -103.5t72.5 -31.5l12 149h187z" />
    <glyph glyph-name="Gcircumflex.sc" horiz-adv-x="541" 
d="M400 582l-65 60l-72 -60h-134l120 177h185l103 -177h-137zM493 19q-21 -13 -78 -25.5t-129 -12.5q-141 0 -209 65t-68 198q0 73 19.5 129.5t51.5 91t76.5 56.5t89.5 30.5t96 8.5q50 0 107 -10t84 -23l-61 -153q-72 30 -121 30q-136 0 -133 -136q-1 -75 23.5 -103.5
t72.5 -31.5l12 149h187z" />
    <glyph glyph-name="Gbreve.sc" horiz-adv-x="541" 
d="M337 695q33 0 53.5 15.5t29.5 59.5h110q-8 -88 -69.5 -139t-137.5 -51q-82 0 -128.5 49.5t-39.5 140.5h110q1 -44 19.5 -59.5t52.5 -15.5zM493 19q-21 -13 -78 -25.5t-129 -12.5q-141 0 -209 65t-68 198q0 73 19.5 129.5t51.5 91t76.5 56.5t89.5 30.5t96 8.5
q50 0 107 -10t84 -23l-61 -153q-72 30 -121 30q-136 0 -133 -136q-1 -75 23.5 -103.5t72.5 -31.5l12 149h187z" />
    <glyph glyph-name="Gdotaccent.sc" horiz-adv-x="541" 
d="M219 682q3 30 42.5 71t69.5 41q29 0 69.5 -34.5t39.5 -62.5q-3 -30 -43.5 -70.5t-67.5 -40.5q-30 0 -70.5 34t-39.5 62zM493 19q-21 -13 -78 -25.5t-129 -12.5q-141 0 -209 65t-68 198q0 73 19.5 129.5t51.5 91t76.5 56.5t89.5 30.5t96 8.5q50 0 107 -10t84 -23l-61 -153
q-72 30 -121 30q-136 0 -133 -136q-1 -75 23.5 -103.5t72.5 -31.5l12 149h187z" />
    <glyph glyph-name="Gcommaaccent.sc" horiz-adv-x="541" 
d="M493 19q-21 -13 -78 -25.5t-129 -12.5q-141 0 -209 65t-68 198q0 73 19.5 129.5t51.5 91t76.5 56.5t89.5 30.5t96 8.5q50 0 107 -10t84 -23l-61 -153q-72 30 -121 30q-136 0 -133 -136q-1 -75 23.5 -103.5t72.5 -31.5l12 149h187zM179 -108q0 21 30 46.5t55 25.5
t51.5 -29t24.5 -45q-2 -22 -24.5 -65.5t-68.5 -99.5l-81 33q3 10 25.5 43t23.5 40q0 6 -18.5 23.5t-17.5 27.5z" />
    <glyph glyph-name="H.sc" horiz-adv-x="577" 
d="M322 0l15 192h-110l-15 -192h-203l42 539h203l-14 -179h109l14 179h205l-42 -539h-204z" />
    <glyph glyph-name="Hcircumflex.sc" horiz-adv-x="577" 
d="M378 582l-65 60l-72 -60h-134l120 177h185l103 -177h-137zM322 0l15 192h-110l-15 -192h-203l42 539h203l-14 -179h109l14 179h205l-42 -539h-204z" />
    <glyph glyph-name="I.sc" horiz-adv-x="263" 
d="M254 539l-42 -539h-203l42 539h203z" />
    <glyph glyph-name="Igrave.sc" horiz-adv-x="263" 
d="M268 582h-160l-152 144l193 33zM254 539l-42 -539h-203l42 539h203z" />
    <glyph glyph-name="Iacute.sc" horiz-adv-x="263" 
d="M44 582l139 177l191 -33l-170 -144h-160zM254 539l-42 -539h-203l42 539h203z" />
    <glyph glyph-name="Icircumflex.sc" horiz-adv-x="263" 
d="M222 582l-65 60l-72 -60h-134l120 177h185l103 -177h-137zM254 539l-42 -539h-203l42 539h203z" />
    <glyph glyph-name="Idieresis.sc" horiz-adv-x="263" 
d="M173 655q1 25 38 62.5t64 37.5q28 0 62.5 -31.5t33.5 -59.5q-1 -25 -39 -61.5t-62 -36.5q-28 0 -63 30.5t-34 58.5zM-33 655q1 25 38 62.5t64 37.5q28 0 62.5 -31.5t33.5 -59.5q-1 -25 -39 -61.5t-62 -36.5q-28 0 -63 30.5t-34 58.5zM254 539l-42 -539h-203l42 539h203z
" />
    <glyph glyph-name="Itilde.sc" horiz-adv-x="263" 
d="M313 765l60 -65q-11 -34 -64 -78.5t-84 -44.5q-19 0 -70.5 16.5t-63.5 16.5q-17 0 -40 -18t-28 -27l-51 78l17 21q78 83 114 84q23 0 71 -18t61 -18q29 0 78 53zM254 539l-42 -539h-203l42 539h203z" />
    <glyph glyph-name="Imacron.sc" horiz-adv-x="263" 
d="M338 723l-1 -15l-40 -113h-277l1 15l39 113h278zM254 539l-42 -539h-203l42 539h203z" />
    <glyph glyph-name="Ibreve.sc" horiz-adv-x="263" 
d="M179 695q33 0 53.5 15.5t29.5 59.5h110q-8 -88 -69.5 -139t-137.5 -51q-82 0 -128.5 49.5t-39.5 140.5h110q1 -44 19.5 -59.5t52.5 -15.5zM254 539l-42 -539h-203l42 539h203z" />
    <glyph glyph-name="Iogonek.sc" horiz-adv-x="263" 
d="M122 0h-113l42 539h203l-42 -539h-1q-106 -69 -113 -116v-2q1 -12 11 -21t24 -9q35 0 53 10l19 -79q-15 -8 -49.5 -17t-53.5 -9q-55 0 -89 28t-30 77q4 32 37 69t102 69z" />
    <glyph glyph-name="Idotaccent.sc" horiz-adv-x="263" 
d="M59 682q3 30 42.5 71t69.5 41q29 0 69.5 -34.5t39.5 -62.5q-3 -30 -43.5 -70.5t-67.5 -40.5q-30 0 -70.5 34t-39.5 62zM254 539l-42 -539h-203l42 539h203z" />
    <glyph glyph-name="J.sc" horiz-adv-x="368" 
d="M359 539l-29 -384q-4 -73 -66 -123.5t-158 -50.5q-75 0 -125 26l35 161q7 -5 30.5 -9.5t39.5 -4.5q36 0 40 45l27 340h206z" />
    <glyph glyph-name="Jcircumflex.sc" horiz-adv-x="389" 
d="M324 582l-65 60l-72 -60h-134l120 177h185l103 -177h-137zM359 539l-29 -384q-4 -73 -66 -123.5t-158 -50.5q-75 0 -125 26l35 161q7 -5 30.5 -9.5t39.5 -4.5q36 0 40 45l27 340h206z" />
    <glyph glyph-name="K.sc" horiz-adv-x="570" 
d="M330 0q-98 281 -98 284l156 255h211l-167 -247l125 -292h-227zM251 539l-41 -539h-201l42 539h200z" />
    <glyph glyph-name="Kcommaaccent.sc" horiz-adv-x="570" 
d="M330 0q-98 281 -98 284l156 255h211l-167 -247l125 -292h-227zM251 539l-41 -539h-201l42 539h200zM189 -108q0 21 30 46.5t55 25.5t51.5 -29t24.5 -45q-2 -22 -24.5 -65.5t-68.5 -99.5l-81 33q3 10 25.5 43t23.5 40q0 6 -18.5 23.5t-17.5 27.5z" />
    <glyph glyph-name="L.sc" horiz-adv-x="442" 
d="M9 0l42 539h203l-30 -386l210 4l-27 -157h-398z" />
    <glyph glyph-name="Lacute.sc" horiz-adv-x="442" 
d="M42 582l139 177l191 -33l-170 -144h-160zM9 0l42 539h203l-30 -386l210 4l-27 -157h-398z" />
    <glyph glyph-name="Lcommaaccent.sc" horiz-adv-x="442" 
d="M9 0l42 539h203l-30 -386l210 4l-27 -157h-398zM112 -108q0 21 30 46.5t55 25.5t51.5 -29t24.5 -45q-2 -22 -24.5 -65.5t-68.5 -99.5l-81 33q3 10 25.5 43t23.5 40q0 6 -18.5 23.5t-17.5 27.5z" />
    <glyph glyph-name="Lcaron.sc" horiz-adv-x="442" 
d="M292 501q1 22 36 40.5t63 18.5q65 0 60 -121q-4 -64 -121 -215l-75 36q39 67 44 144q1 21 -3 51t-4 46zM9 0l42 539h203l-30 -386l210 4l-27 -157h-398z" />
    <glyph glyph-name="M.sc" horiz-adv-x="782" 
d="M272 0l-47 249l-33 -249h-190l87 539h263l46 -234l73 234h271l-1 -539h-196l2 246l-79 -246h-196z" />
    <glyph glyph-name="N.sc" horiz-adv-x="591" 
d="M359 0l-141 230l-16 -230h-193l42 539h188l137 -241l12 241h194l-39 -539h-184z" />
    <glyph glyph-name="Ntilde.sc" horiz-adv-x="591" 
d="M492 765l60 -65q-11 -34 -64 -78.5t-84 -44.5q-19 0 -70.5 16.5t-63.5 16.5q-17 0 -40 -18t-28 -27l-51 78l17 21q78 83 114 84q23 0 71 -18t61 -18q29 0 78 53zM359 0l-141 230l-16 -230h-193l42 539h188l137 -241l12 241h194l-39 -539h-184z" />
    <glyph glyph-name="Nacute.sc" horiz-adv-x="591" 
d="M191 582l139 177l191 -33l-170 -144h-160zM359 0l-141 230l-16 -230h-193l42 539h188l137 -241l12 241h194l-39 -539h-184z" />
    <glyph glyph-name="Ncommaaccent.sc" horiz-adv-x="591" 
d="M359 0l-141 230l-16 -230h-193l42 539h188l137 -241l12 241h194l-39 -539h-184zM214 -108q0 21 30 46.5t55 25.5t51.5 -29t24.5 -45q-2 -22 -24.5 -65.5t-68.5 -99.5l-81 33q3 10 25.5 43t23.5 40q0 6 -18.5 23.5t-17.5 27.5z" />
    <glyph glyph-name="Ncaron.sc" horiz-adv-x="591" 
d="M440 588h-184l-104 178h138l65 -61l71 61h135zM359 0l-141 230l-16 -230h-193l42 539h188l137 -241l12 241h194l-39 -539h-184z" />
    <glyph glyph-name="O.sc" horiz-adv-x="567" 
d="M558 314q0 -30 -4.5 -62t-15.5 -71t-33.5 -73t-53.5 -63t-80 -45.5t-110 -16.5q-129 -1 -190.5 65t-61.5 179q0 59 14.5 113.5t47 105.5t94 82t145.5 31q126 0 187 -66.5t61 -178.5zM296 126q24 0 38.5 40.5t14.5 113.5q0 75 -20.5 104t-59.5 29q-25 0 -38 -33t-13 -119
q0 -77 17 -106t61 -29z" />
    <glyph glyph-name="Ograve.sc" horiz-adv-x="567" 
d="M436 582h-160l-152 144l193 33zM558 314q0 -30 -4.5 -62t-15.5 -71t-33.5 -73t-53.5 -63t-80 -45.5t-110 -16.5q-129 -1 -190.5 65t-61.5 179q0 59 14.5 113.5t47 105.5t94 82t145.5 31q126 0 187 -66.5t61 -178.5zM296 126q24 0 38.5 40.5t14.5 113.5q0 75 -20.5 104
t-59.5 29q-25 0 -38 -33t-13 -119q0 -77 17 -106t61 -29z" />
    <glyph glyph-name="Oacute.sc" horiz-adv-x="567" 
d="M230 582l139 177l191 -33l-170 -144h-160zM558 314q0 -30 -4.5 -62t-15.5 -71t-33.5 -73t-53.5 -63t-80 -45.5t-110 -16.5q-129 -1 -190.5 65t-61.5 179q0 59 14.5 113.5t47 105.5t94 82t145.5 31q126 0 187 -66.5t61 -178.5zM296 126q24 0 38.5 40.5t14.5 113.5
q0 75 -20.5 104t-59.5 29q-25 0 -38 -33t-13 -119q0 -77 17 -106t61 -29z" />
    <glyph glyph-name="Ocircumflex.sc" horiz-adv-x="567" 
d="M389 582l-65 60l-72 -60h-134l120 177h185l103 -177h-137zM558 314q0 -30 -4.5 -62t-15.5 -71t-33.5 -73t-53.5 -63t-80 -45.5t-110 -16.5q-129 -1 -190.5 65t-61.5 179q0 59 14.5 113.5t47 105.5t94 82t145.5 31q126 0 187 -66.5t61 -178.5zM296 126q24 0 38.5 40.5
t14.5 113.5q0 75 -20.5 104t-59.5 29q-25 0 -38 -33t-13 -119q0 -77 17 -106t61 -29z" />
    <glyph glyph-name="Otilde.sc" horiz-adv-x="567" 
d="M433 765l60 -65q-11 -34 -64 -78.5t-84 -44.5q-19 0 -70.5 16.5t-63.5 16.5q-17 0 -40 -18t-28 -27l-51 78l17 21q78 83 114 84q23 0 71 -18t61 -18q29 0 78 53zM558 314q0 -30 -4.5 -62t-15.5 -71t-33.5 -73t-53.5 -63t-80 -45.5t-110 -16.5q-129 -1 -190.5 65
t-61.5 179q0 59 14.5 113.5t47 105.5t94 82t145.5 31q126 0 187 -66.5t61 -178.5zM296 126q24 0 38.5 40.5t14.5 113.5q0 75 -20.5 104t-59.5 29q-25 0 -38 -33t-13 -119q0 -77 17 -106t61 -29z" />
    <glyph glyph-name="Odieresis.sc" horiz-adv-x="567" 
d="M317 655q1 25 38 62.5t64 37.5q28 0 62.5 -31.5t33.5 -59.5q-1 -25 -39 -61.5t-62 -36.5q-28 0 -63 30.5t-34 58.5zM111 655q1 25 38 62.5t64 37.5q28 0 62.5 -31.5t33.5 -59.5q-1 -25 -39 -61.5t-62 -36.5q-28 0 -63 30.5t-34 58.5zM558 314q0 -30 -4.5 -62t-15.5 -71
t-33.5 -73t-53.5 -63t-80 -45.5t-110 -16.5q-129 -1 -190.5 65t-61.5 179q0 59 14.5 113.5t47 105.5t94 82t145.5 31q126 0 187 -66.5t61 -178.5zM296 126q24 0 38.5 40.5t14.5 113.5q0 75 -20.5 104t-59.5 29q-25 0 -38 -33t-13 -119q0 -77 17 -106t61 -29z" />
    <glyph glyph-name="Omacron.sc" horiz-adv-x="567" 
d="M460 723l-1 -15l-40 -113h-277l1 15l39 113h278zM558 314q0 -30 -4.5 -62t-15.5 -71t-33.5 -73t-53.5 -63t-80 -45.5t-110 -16.5q-129 -1 -190.5 65t-61.5 179q0 59 14.5 113.5t47 105.5t94 82t145.5 31q126 0 187 -66.5t61 -178.5zM296 126q24 0 38.5 40.5t14.5 113.5
q0 75 -20.5 104t-59.5 29q-25 0 -38 -33t-13 -119q0 -77 17 -106t61 -29z" />
    <glyph glyph-name="Obreve.sc" horiz-adv-x="567" 
d="M302 695q33 0 53.5 15.5t29.5 59.5h110q-8 -88 -69.5 -139t-137.5 -51q-82 0 -128.5 49.5t-39.5 140.5h110q1 -44 19.5 -59.5t52.5 -15.5zM558 314q0 -30 -4.5 -62t-15.5 -71t-33.5 -73t-53.5 -63t-80 -45.5t-110 -16.5q-129 -1 -190.5 65t-61.5 179q0 59 14.5 113.5
t47 105.5t94 82t145.5 31q126 0 187 -66.5t61 -178.5zM296 126q24 0 38.5 40.5t14.5 113.5q0 75 -20.5 104t-59.5 29q-25 0 -38 -33t-13 -119q0 -77 17 -106t61 -29z" />
    <glyph glyph-name="Ohungarumlaut.sc" horiz-adv-x="567" 
d="M326 582l81 128l-127 -128h-160l112 177l186 -32l20 32l191 -33l-143 -144h-160zM558 314q0 -30 -4.5 -62t-15.5 -71t-33.5 -73t-53.5 -63t-80 -45.5t-110 -16.5q-129 -1 -190.5 65t-61.5 179q0 59 14.5 113.5t47 105.5t94 82t145.5 31q126 0 187 -66.5t61 -178.5z
M296 126q24 0 38.5 40.5t14.5 113.5q0 75 -20.5 104t-59.5 29q-25 0 -38 -33t-13 -119q0 -77 17 -106t61 -29z" />
    <glyph glyph-name="P.sc" horiz-adv-x="518" 
d="M257 402h-14l-8 -113h22q53 0 53 49q0 28 -15 46t-38 18zM269 157h-45l-12 -157h-203l42 539h234q112 0 169 -46.5t57 -130.5q0 -89 -66.5 -147t-175.5 -58z" />
    <glyph glyph-name="Q.sc" horiz-adv-x="567" 
d="M375 -196q-52 0 -124.5 28t-94.5 28q-15 0 -35.5 -8.5t-28.5 -17.5l-41 110q67 22 119 49q-82 21 -121.5 82.5t-39.5 151.5q0 59 14.5 113.5t47 105.5t94 82t145.5 31q126 0 187 -66.5t61 -178.5q0 -46 -9 -93.5t-40.5 -104t-81.5 -89.5l1 -1q-91 -55 -153 -80
q84 -8 123 -8q56 0 117 27v-126q-59 -35 -140 -35zM296 126q24 0 38.5 40.5t14.5 113.5q0 75 -20.5 104t-59.5 29q-25 0 -38 -33t-13 -119q0 -77 17 -106t61 -29z" />
    <glyph glyph-name="R.sc" horiz-adv-x="531" 
d="M258 402h-15l-7 -93h16q32 0 44.5 10t12.5 30q0 25 -15 39t-36 14zM226 178l-14 -178h-203l42 539h245q117 0 170.5 -47t53.5 -114q0 -105 -93 -158l95 -220h-214l-59 178h-23z" />
    <glyph glyph-name="Racute.sc" horiz-adv-x="531" 
d="M172 582l139 177l191 -33l-170 -144h-160zM258 402h-15l-7 -93h16q32 0 44.5 10t12.5 30q0 25 -15 39t-36 14zM226 178l-14 -178h-203l42 539h245q117 0 170.5 -47t53.5 -114q0 -105 -93 -158l95 -220h-214l-59 178h-23z" />
    <glyph glyph-name="Rcommaaccent.sc" horiz-adv-x="531" 
d="M258 402h-15l-7 -93h16q32 0 44.5 10t12.5 30q0 25 -15 39t-36 14zM226 178l-14 -178h-203l42 539h245q117 0 170.5 -47t53.5 -114q0 -105 -93 -158l95 -220h-214l-59 178h-23zM176 -108q0 21 30 46.5t55 25.5t51.5 -29t24.5 -45q-2 -22 -24.5 -65.5t-68.5 -99.5l-81 33
q3 10 25.5 43t23.5 40q0 6 -18.5 23.5t-17.5 27.5z" />
    <glyph glyph-name="Rcaron.sc" horiz-adv-x="531" 
d="M405 588h-184l-104 178h138l65 -61l71 61h135zM258 402h-15l-7 -93h16q32 0 44.5 10t12.5 30q0 25 -15 39t-36 14zM226 178l-14 -178h-203l42 539h245q117 0 170.5 -47t53.5 -114q0 -105 -93 -158l95 -220h-214l-59 178h-23z" />
    <glyph glyph-name="S.sc" horiz-adv-x="445" 
d="M187 187l-72 35q-95 45 -95 148q0 88 67 138.5t172 50.5q96 0 191 -27l-43 -159q-8 3 -40.5 13.5t-46.5 15t-36.5 9t-39.5 4.5q-13 0 -19.5 -6t-6 -12t1.5 -8q-2 -8 10.5 -19t18.5 -14l89 -42q45 -21 67.5 -53.5t22.5 -90.5q0 -79 -69 -134t-182 -55q-69 0 -186 25
l32 164q117 -47 161 -42q13 -1 20 0.5t9.5 7t3 8.5t0.5 12q0 7 -9 16.5t-21 14.5z" />
    <glyph glyph-name="Sacute.sc" horiz-adv-x="445" 
d="M131 582l139 177l191 -33l-170 -144h-160zM187 187l-72 35q-95 45 -95 148q0 88 67 138.5t172 50.5q96 0 191 -27l-43 -159q-8 3 -40.5 13.5t-46.5 15t-36.5 9t-39.5 4.5q-13 0 -19.5 -6t-6 -12t1.5 -8q-2 -8 10.5 -19t18.5 -14l89 -42q45 -21 67.5 -53.5t22.5 -90.5
q0 -79 -69 -134t-182 -55q-69 0 -186 25l32 164q117 -47 161 -42q13 -1 20 0.5t9.5 7t3 8.5t0.5 12q0 7 -9 16.5t-21 14.5z" />
    <glyph glyph-name="Scircumflex.sc" horiz-adv-x="445" 
d="M314 582l-65 60l-72 -60h-134l120 177h185l103 -177h-137zM187 187l-72 35q-95 45 -95 148q0 88 67 138.5t172 50.5q96 0 191 -27l-43 -159q-8 3 -40.5 13.5t-46.5 15t-36.5 9t-39.5 4.5q-13 0 -19.5 -6t-6 -12t1.5 -8q-2 -8 10.5 -19t18.5 -14l89 -42q45 -21 67.5 -53.5
t22.5 -90.5q0 -79 -69 -134t-182 -55q-69 0 -186 25l32 164q117 -47 161 -42q13 -1 20 0.5t9.5 7t3 8.5t0.5 12q0 7 -9 16.5t-21 14.5z" />
    <glyph glyph-name="Scedilla.sc" horiz-adv-x="445" 
d="M118 -244l-17 71q96 7 98 31q2 22 -68 35l-2 5l47 83q-68 0 -185 25l32 164q117 -47 161 -42q13 -1 20 0.5t9.5 7t3 8.5t0.5 12q0 7 -9 16.5t-21 14.5l-72 35q-95 45 -95 148q0 88 67 138.5t172 50.5q96 0 191 -27l-43 -159q-8 3 -40.5 13.5t-46.5 15t-36.5 9t-39.5 4.5
q-13 0 -19.5 -6t-6 -12t1.5 -8q-2 -8 10.5 -19t18.5 -14l89 -42q45 -21 67.5 -53.5t22.5 -90.5q0 -64 -48 -114.5t-130 -67.5l-16 -37q88 -26 84 -79q-3 -42 -53.5 -77.5t-146.5 -38.5z" />
    <glyph glyph-name="Scaron.sc" horiz-adv-x="445" 
d="M379 588h-184l-104 178h138l65 -61l71 61h135zM187 187l-72 35q-95 45 -95 148q0 88 67 138.5t172 50.5q96 0 191 -27l-43 -159q-8 3 -40.5 13.5t-46.5 15t-36.5 9t-39.5 4.5q-13 0 -19.5 -6t-6 -12t1.5 -8q-2 -8 10.5 -19t18.5 -14l89 -42q45 -21 67.5 -53.5t22.5 -90.5
q0 -79 -69 -134t-182 -55q-69 0 -186 25l32 164q117 -47 161 -42q13 -1 20 0.5t9.5 7t3 8.5t0.5 12q0 7 -9 16.5t-21 14.5z" />
    <glyph glyph-name="Scommaaccent.sc" horiz-adv-x="445" 
d="M187 187l-72 35q-95 45 -95 148q0 88 67 138.5t172 50.5q96 0 191 -27l-43 -159q-8 3 -40.5 13.5t-46.5 15t-36.5 9t-39.5 4.5q-13 0 -19.5 -6t-6 -12t1.5 -8q-2 -8 10.5 -19t18.5 -14l89 -42q45 -21 67.5 -53.5t22.5 -90.5q0 -79 -69 -134t-182 -55q-69 0 -186 25
l32 164q117 -47 161 -42q13 -1 20 0.5t9.5 7t3 8.5t0.5 12q0 7 -9 16.5t-21 14.5zM114 -108q0 21 30 46.5t55 25.5t51.5 -29t24.5 -45q-2 -22 -24.5 -65.5t-68.5 -99.5l-81 33q3 10 25.5 43t23.5 40q0 6 -18.5 23.5t-17.5 27.5z" />
    <glyph glyph-name="T.sc" horiz-adv-x="494" 
d="M491 381l-132 1l-29 -382h-203l29 382l-160 -1l32 158h497z" />
    <glyph glyph-name="Tcommaaccent.sc" horiz-adv-x="494" 
d="M491 381l-132 1l-29 -382h-203l29 382l-160 -1l32 158h497zM138 -108q0 21 30 46.5t55 25.5t51.5 -29t24.5 -45q-2 -22 -24.5 -65.5t-68.5 -99.5l-81 33q3 10 25.5 43t23.5 40q0 6 -18.5 23.5t-17.5 27.5z" />
    <glyph glyph-name="Tcaron.sc" horiz-adv-x="494" 
d="M375 588h-184l-104 178h138l65 -61l71 61h135zM491 381l-132 1l-29 -382h-203l29 382l-160 -1l32 158h497z" />
    <glyph glyph-name="U.sc" horiz-adv-x="557" 
d="M51 539h203q-4 -59 -8 -111t-6 -83.5t-4 -57.5t-3 -39.5t-2 -23t-1 -13.5v-7q0 -24 11.5 -42.5t39.5 -18.5q37 0 41 37l28 359h198l-28 -339q-7 -101 -79 -160t-189 -59q-101 0 -165 46.5t-64 125.5q0 12 0.5 23t2.5 37t5 59.5t8.5 106t11.5 160.5z" />
    <glyph glyph-name="Ugrave.sc" horiz-adv-x="557" 
d="M464 582h-160l-152 144l193 33zM51 539h203q-4 -59 -8 -111t-6 -83.5t-4 -57.5t-3 -39.5t-2 -23t-1 -13.5v-7q0 -24 11.5 -42.5t39.5 -18.5q37 0 41 37l28 359h198l-28 -339q-7 -101 -79 -160t-189 -59q-101 0 -165 46.5t-64 125.5q0 12 0.5 23t2.5 37t5 59.5t8.5 106
t11.5 160.5z" />
    <glyph glyph-name="Uacute.sc" horiz-adv-x="557" 
d="M187 582l139 177l191 -33l-170 -144h-160zM51 539h203q-4 -59 -8 -111t-6 -83.5t-4 -57.5t-3 -39.5t-2 -23t-1 -13.5v-7q0 -24 11.5 -42.5t39.5 -18.5q37 0 41 37l28 359h198l-28 -339q-7 -101 -79 -160t-189 -59q-101 0 -165 46.5t-64 125.5q0 12 0.5 23t2.5 37t5 59.5
t8.5 106t11.5 160.5z" />
    <glyph glyph-name="Ucircumflex.sc" horiz-adv-x="557" 
d="M364 582l-65 60l-72 -60h-134l120 177h185l103 -177h-137zM51 539h203q-4 -59 -8 -111t-6 -83.5t-4 -57.5t-3 -39.5t-2 -23t-1 -13.5v-7q0 -24 11.5 -42.5t39.5 -18.5q37 0 41 37l28 359h198l-28 -339q-7 -101 -79 -160t-189 -59q-101 0 -165 46.5t-64 125.5q0 12 0.5 23
t2.5 37t5 59.5t8.5 106t11.5 160.5z" />
    <glyph glyph-name="Udieresis.sc" horiz-adv-x="557" 
d="M322 655q1 25 38.5 62.5t63.5 37.5q28 0 62.5 -31.5t33.5 -59.5q-1 -25 -39 -61.5t-62 -36.5q-28 0 -63 30.5t-34 58.5zM116 655q1 25 38.5 62.5t63.5 37.5q28 0 62.5 -31.5t33.5 -59.5q-1 -25 -39 -61.5t-62 -36.5q-28 0 -63 30.5t-34 58.5zM51 539h203q-4 -59 -8 -111
t-6 -83.5t-4 -57.5t-3 -39.5t-2 -23t-1 -13.5v-7q0 -24 11.5 -42.5t39.5 -18.5q37 0 41 37l28 359h198l-28 -339q-7 -101 -79 -160t-189 -59q-101 0 -165 46.5t-64 125.5q0 12 0.5 23t2.5 37t5 59.5t8.5 106t11.5 160.5z" />
    <glyph glyph-name="Utilde.sc" horiz-adv-x="557" 
d="M461 765l60 -65q-11 -34 -64 -78.5t-84 -44.5q-19 0 -70.5 16.5t-63.5 16.5q-17 0 -40 -18t-28 -27l-51 78l17 21q78 83 114 84q23 0 71 -18t61 -18q29 0 78 53zM51 539h203q-4 -59 -8 -111t-6 -83.5t-4 -57.5t-3 -39.5t-2 -23t-1 -13.5v-7q0 -24 11.5 -42.5t39.5 -18.5
q37 0 41 37l28 359h198l-28 -339q-7 -101 -79 -160t-189 -59q-101 0 -165 46.5t-64 125.5q0 12 0.5 23t2.5 37t5 59.5t8.5 106t11.5 160.5z" />
    <glyph glyph-name="Umacron.sc" horiz-adv-x="557" 
d="M471 723l-1 -15l-40 -113h-277l1 15l39 113h278zM51 539h203q-4 -59 -8 -111t-6 -83.5t-4 -57.5t-3 -39.5t-2 -23t-1 -13.5v-7q0 -24 11.5 -42.5t39.5 -18.5q37 0 41 37l28 359h198l-28 -339q-7 -101 -79 -160t-189 -59q-101 0 -165 46.5t-64 125.5q0 12 0.5 23t2.5 37
t5 59.5t8.5 106t11.5 160.5z" />
    <glyph glyph-name="Ubreve.sc" horiz-adv-x="557" 
d="M339 695q33 0 53.5 15.5t29.5 59.5h110q-8 -88 -69.5 -139t-137.5 -51q-82 0 -128.5 49.5t-39.5 140.5h110q1 -44 19.5 -59.5t52.5 -15.5zM51 539h203q-4 -59 -8 -111t-6 -83.5t-4 -57.5t-3 -39.5t-2 -23t-1 -13.5v-7q0 -24 11.5 -42.5t39.5 -18.5q37 0 41 37l28 359h198
l-28 -339q-7 -101 -79 -160t-189 -59q-101 0 -165 46.5t-64 125.5q0 12 0.5 23t2.5 37t5 59.5t8.5 106t11.5 160.5z" />
    <glyph glyph-name="Uring.sc" horiz-adv-x="557" 
d="M430 674q-5 -45 -41.5 -78t-82.5 -33q-49 0 -79 30.5t-27 80.5q5 45 41.5 78t82.5 33q50 0 79.5 -29t26.5 -82zM275 674q-2 -17 8 -28.5t28 -11.5t30 11.5t14 28.5t-9 29t-29 12t-29 -11.5t-13 -29.5zM51 539h203q-4 -59 -8 -111t-6 -83.5t-4 -57.5t-3 -39.5t-2 -23
t-1 -13.5v-7q0 -24 11.5 -42.5t39.5 -18.5q37 0 41 37l28 359h198l-28 -339q-7 -101 -79 -160t-189 -59q-101 0 -165 46.5t-64 125.5q0 12 0.5 23t2.5 37t5 59.5t8.5 106t11.5 160.5z" />
    <glyph glyph-name="Uhungarumlaut.sc" horiz-adv-x="557" 
d="M310 582l81 128l-127 -128h-160l112 177l186 -32l20 32l191 -33l-143 -144h-160zM51 539h203q-4 -59 -8 -111t-6 -83.5t-4 -57.5t-3 -39.5t-2 -23t-1 -13.5v-7q0 -24 11.5 -42.5t39.5 -18.5q37 0 41 37l28 359h198l-28 -339q-7 -101 -79 -160t-189 -59q-101 0 -165 46.5
t-64 125.5q0 12 0.5 23t2.5 37t5 59.5t8.5 106t11.5 160.5z" />
    <glyph glyph-name="Uogonek.sc" horiz-adv-x="557" 
d="M308 -223q-55 0 -89 28t-30 77q6 51 72 99h-9q-101 0 -165 46.5t-64 125.5q0 12 0.5 23t2.5 37t5 59.5t8.5 106t11.5 160.5h203q-4 -59 -8 -111t-6 -83.5t-4 -57.5t-3 -39.5t-2 -23t-1 -13.5v-7q0 -24 11.5 -42.5t39.5 -18.5q37 0 41 37l28 359h198l-28 -339
q-8 -122 -108 -180h5q-106 -71 -113 -118q1 -12 11 -21t24 -9q35 0 53 10l19 -79q-15 -8 -49.5 -17t-53.5 -9z" />
    <glyph glyph-name="V.sc" horiz-adv-x="555" 
d="M378 0h-261l-110 539h210l55 -320l114 320h205z" />
    <glyph glyph-name="W.sc" horiz-adv-x="857" 
d="M467 0l-42 270l-90 -270h-246l-72 539h209l30 -290l87 290h231l46 -288l71 288h186l-147 -539h-263z" />
    <glyph glyph-name="Wcircumflex.sc" horiz-adv-x="857" 
d="M528 582l-65 60l-72 -60h-134l120 177h185l103 -177h-137zM467 0l-42 270l-90 -270h-246l-72 539h209l30 -290l87 290h231l46 -288l71 288h186l-147 -539h-263z" />
    <glyph glyph-name="Wgrave.sc" horiz-adv-x="857" 
d="M604 582h-160l-152 144l193 33zM467 0l-42 270l-90 -270h-246l-72 539h209l30 -290l87 290h231l46 -288l71 288h186l-147 -539h-263z" />
    <glyph glyph-name="Wacute.sc" horiz-adv-x="857" 
d="M352 582l139 177l191 -33l-170 -144h-160zM467 0l-42 270l-90 -270h-246l-72 539h209l30 -290l87 290h231l46 -288l71 288h186l-147 -539h-263z" />
    <glyph glyph-name="Wdieresis.sc" horiz-adv-x="857" 
d="M475 655q1 25 38 62.5t64 37.5q28 0 62.5 -31.5t33.5 -59.5q-1 -25 -39 -61.5t-62 -36.5q-28 0 -63 30.5t-34 58.5zM269 655q1 25 38 62.5t64 37.5q28 0 62.5 -31.5t33.5 -59.5q-1 -25 -39 -61.5t-62 -36.5q-28 0 -63 30.5t-34 58.5zM467 0l-42 270l-90 -270h-246
l-72 539h209l30 -290l87 290h231l46 -288l71 288h186l-147 -539h-263z" />
    <glyph glyph-name="X.sc" horiz-adv-x="532" 
d="M309 0l-60 108l-66 -108h-218l189 280l-144 259h217l53 -97l61 97h219l-185 -269l149 -270h-215z" />
    <glyph glyph-name="Y.sc" horiz-adv-x="532" 
d="M356 168h-4l-12 -168h-203l12 168l-151 371h207l73 -169l100 169h203z" />
    <glyph glyph-name="Yacute.sc" horiz-adv-x="532" 
d="M154 582l139 177l191 -33l-170 -144h-160zM356 168h-4l-12 -168h-203l12 168l-151 371h207l73 -169l100 169h203z" />
    <glyph glyph-name="Ycircumflex.sc" horiz-adv-x="532" 
d="M366 582l-65 60l-72 -60h-134l120 177h185l103 -177h-137zM356 168h-4l-12 -168h-203l12 168l-151 371h207l73 -169l100 169h203z" />
    <glyph glyph-name="Ydieresis.sc" horiz-adv-x="532" 
d="M296 655q1 25 38.5 62.5t63.5 37.5q28 0 62.5 -31.5t33.5 -59.5q-1 -25 -39 -61.5t-62 -36.5q-28 0 -63 30.5t-34 58.5zM90 655q1 25 38.5 62.5t63.5 37.5q28 0 62.5 -31.5t33.5 -59.5q-1 -25 -39 -61.5t-62 -36.5q-28 0 -63 30.5t-34 58.5zM356 168h-4l-12 -168h-203
l12 168l-151 371h207l73 -169l100 169h203z" />
    <glyph glyph-name="Ygrave.sc" horiz-adv-x="532" 
d="M438 582h-160l-152 144l193 33zM356 168h-4l-12 -168h-203l12 168l-151 371h207l73 -169l100 169h203z" />
    <glyph glyph-name="Z.sc" horiz-adv-x="496" 
d="M458 0h-457l8 134l217 249h-196l20 156h439l-9 -136l-230 -254h232z" />
    <glyph glyph-name="Zacute.sc" horiz-adv-x="496" 
d="M133 582l139 177l191 -33l-170 -144h-160zM458 0h-457l8 134l217 249h-196l20 156h439l-9 -136l-230 -254h232z" />
    <glyph glyph-name="Zdotaccent.sc" horiz-adv-x="496" 
d="M176 682q3 30 42.5 71t69.5 41q29 0 69.5 -34.5t39.5 -62.5q-3 -30 -43.5 -70.5t-67.5 -40.5q-30 0 -70.5 34t-39.5 62zM458 0h-457l8 134l217 249h-196l20 156h439l-9 -136l-230 -254h232z" />
    <glyph glyph-name="Zcaron.sc" horiz-adv-x="496" 
d="M371 588h-184l-104 178h138l65 -61l71 61h135zM458 0h-457l8 134l217 249h-196l20 156h439l-9 -136l-230 -254h232z" />
    <glyph glyph-name="AE.sc" horiz-adv-x="768" 
d="M328 392l-72 -171h66l13 171h-7zM305 0l5 71h-116l-30 -71h-199l255 539h527l-34 -136l-174 1l-5 -63h178l-38 -137l-150 7l-5 -72l215 2l-37 -141h-392z" />
    <glyph glyph-name="AEacute.sc" horiz-adv-x="768" 
d="M348 582l139 177l191 -33l-170 -144h-160zM328 392l-72 -171h66l13 171h-7zM305 0l5 71h-116l-30 -71h-199l255 539h527l-34 -136l-174 1l-5 -63h178l-38 -137l-150 7l-5 -72l215 2l-37 -141h-392z" />
    <glyph glyph-name="Eth.sc" horiz-adv-x="561" 
d="M269 0h-236l16 201h-54l10 130h54l16 208h217q63 0 111 -11t88 -36.5t61.5 -73t21.5 -116.5q0 -137 -90 -219.5t-215 -82.5zM249 135h8q57 0 82.5 31.5t25.5 113.5q0 55 -25 88.5t-54 33.5h-18l-5 -71h76l-15 -130h-70z" />
    <glyph glyph-name="Oslash.sc" horiz-adv-x="567" 
d="M269 413q-25 0 -38 -31.5t-13 -111.5l78 139q-11 4 -27 4zM296 126q24 0 38.5 40t14.5 111l-83 -147q12 -4 30 -4zM261 -17q-41 0 -74 6l-36 -63h-126l61 108q-77 63 -77 193q0 59 14.5 113.5t47 105.5t94 82t145.5 31q36 0 67 -6l32 58h128l-58 -103q79 -62 79 -194
q0 -30 -4.5 -62t-15.5 -71t-33.5 -73t-53.5 -63t-80 -45.5t-110 -16.5z" />
    <glyph glyph-name="Oslashacute.sc" horiz-adv-x="567" 
d="M176 582l139 177l191 -33l-170 -144h-160zM269 413q-25 0 -38 -31.5t-13 -111.5l78 139q-11 4 -27 4zM296 126q24 0 38.5 40t14.5 111l-83 -147q12 -4 30 -4zM261 -17q-41 0 -74 6l-36 -63h-126l61 108q-77 63 -77 193q0 59 14.5 113.5t47 105.5t94 82t145.5 31
q36 0 67 -6l32 58h128l-58 -103q79 -62 79 -194q0 -30 -4.5 -62t-15.5 -71t-33.5 -73t-53.5 -63t-80 -45.5t-110 -16.5z" />
    <glyph glyph-name="Thorn.sc" horiz-adv-x="522" 
d="M257 328l-19 1l-9 -114h28q15 0 25 2.5t19 14t9 32.5q0 28 -15 45t-38 19zM269 83h-51l-6 -83h-203l42 539h203l-6 -72h39q113 0 170 -46t57 -130q0 -89 -68 -148.5t-177 -59.5z" />
    <glyph glyph-name="Dcroat.sc" horiz-adv-x="561" 
d="M269 0h-236l16 201h-54l10 130h54l16 208h217q63 0 111 -11t88 -36.5t61.5 -73t21.5 -116.5q0 -137 -90 -219.5t-215 -82.5zM249 135h8q57 0 82.5 31.5t25.5 113.5q0 55 -25 88.5t-54 33.5h-18l-5 -71h76l-15 -130h-70z" />
    <glyph glyph-name="Hbar.sc" horiz-adv-x="577" 
d="M349 360l3 30h-110l-2 -30h109zM322 0l15 192h-110l-15 -192h-203l30 390h-54l3 12l28 99h32l3 38h203l-3 -38h109l3 38h205l-3 -38h61l-3 -12l-27 -99h-40l-30 -390h-204z" />
    <glyph glyph-name="IJ.sc" horiz-adv-x="614" 
d="M254 539l-42 -539h-203l42 539h203zM605 539l-29 -384q-4 -73 -66 -123.5t-158 -50.5q-75 0 -125 26l35 161q7 -5 30.5 -9.5t39.5 -4.5q36 0 40 45l27 340h206z" />
    <glyph glyph-name="Ldot.sc" horiz-adv-x="442" 
d="M243 311q3 30 42.5 71t69.5 41q29 0 69.5 -34.5t39.5 -62.5q-3 -30 -43.5 -70.5t-67.5 -40.5q-30 0 -70.5 34t-39.5 62zM9 0l42 539h203l-30 -386l210 4l-27 -157h-398z" />
    <glyph glyph-name="Lslash.sc" horiz-adv-x="442" 
d="M28 0l13 168l-46 -21l7 142l50 23l18 227h203l-10 -133l106 48l-7 -140l-110 -50l-9 -111l210 4l-27 -157h-398z" />
    <glyph glyph-name="Eng.sc" horiz-adv-x="591" 
d="M347 -190q-80 0 -122 23l36 151q21 -18 61 -18q15 0 29.5 8.5t13.5 25.5h-6l-141 230l-16 -230h-193l42 539h188l137 -241l12 241h194l-33 -459h1l-7 -97q-5 -78 -63.5 -125.5t-132.5 -47.5z" />
    <glyph glyph-name="OE.sc" horiz-adv-x="768" 
d="M302 126q18 0 41 15l18 234q-9 18 -27 29t-38 11q-18 0 -29.5 -4t-24 -18.5t-18.5 -48t-6 -86.5q0 -80 21.5 -106t62.5 -26zM725 0h-357q-57 -18 -113 -17q-50 -1 -92 11.5t-77.5 39t-56 74t-20.5 112.5q0 89 23.5 156t66 106t96 58t118.5 19q54 0 109 -20h353l-34 -136
l-175 1l-4 -63h177l-38 -137l-150 6l-5 -71l215 2z" />
    <glyph glyph-name="Tbar.sc" horiz-adv-x="494" 
d="M421 202h-76l-15 -202h-203l15 202h-109l4 30l35 89h79l5 61l-160 -1l32 158h497l-34 -158l-132 1l-5 -61h106l-3 -30z" />
    <glyph glyph-name="commaaccent.sc" horiz-adv-x="264" 
d="M59 -108q0 21 30 46.5t55 25.5t51.5 -29t24.5 -45q-2 -22 -24.5 -65.5t-68.5 -99.5l-81 33q3 10 25.5 43t23.5 40q0 6 -18.5 23.5t-17.5 27.5z" />
    <glyph glyph-name="acute.sc" horiz-adv-x="303" 
d="M-14 582l139 177l191 -33l-170 -144h-160z" />
    <glyph glyph-name="grave.sc" horiz-adv-x="307" 
d="M310 582h-160l-152 144l193 33z" />
    <glyph glyph-name="hungarumlaut.sc" horiz-adv-x="523" 
d="M213 582l81 128l-127 -128h-160l112 177l186 -32l20 32l191 -33l-143 -144h-160z" />
    <glyph glyph-name="circumflex.sc" horiz-adv-x="501" 
d="M317 582l-65 60l-72 -60h-134l120 177h185l103 -177h-137z" />
    <glyph glyph-name="caron.sc" horiz-adv-x="490" 
d="M328 588h-184l-104 178h138l65 -61l71 61h135z" />
    <glyph glyph-name="breve.sc" horiz-adv-x="506" 
d="M250 695q33 0 53.5 15.5t29.5 59.5h110q-8 -88 -69.5 -139t-137.5 -51q-82 0 -128.5 49.5t-39.5 140.5h110q1 -44 19.5 -59.5t52.5 -15.5z" />
    <glyph glyph-name="tilde.sc" horiz-adv-x="545" 
d="M413 765l60 -65q-11 -34 -64 -78.5t-84 -44.5q-19 0 -70.5 16.5t-63.5 16.5q-17 0 -40 -18t-28 -27l-51 78l17 21q78 83 114 84q23 0 71 -18t61 -18q29 0 78 53z" />
    <glyph glyph-name="macron.sc" horiz-adv-x="422" 
d="M369 723l-1 -15l-40 -113h-277l1 15l39 113h278z" />
    <glyph glyph-name="dieresis.sc" horiz-adv-x="593" 
d="M301 655q1 25 38 62.5t64 37.5q28 0 62.5 -31.5t33.5 -59.5q-1 -25 -39 -61.5t-62 -36.5q-28 0 -63 30.5t-34 58.5zM95 655q1 25 38 62.5t64 37.5q28 0 62.5 -31.5t33.5 -59.5q-1 -25 -39 -61.5t-62 -36.5q-28 0 -63 30.5t-34 58.5z" />
    <glyph glyph-name="dotaccent.sc" horiz-adv-x="441" 
d="M111 682q3 30 42.5 71t69.5 41q29 0 69.5 -34.5t39.5 -62.5q-3 -30 -43.5 -70.5t-67.5 -40.5q-30 0 -70.5 34t-39.5 62z" />
    <glyph glyph-name="ring.sc" horiz-adv-x="403" 
d="M316 674q-5 -45 -41.5 -78t-82.5 -33q-49 0 -79 30.5t-27 80.5q5 45 41.5 78t82.5 33q50 0 79.5 -29t26.5 -82zM161 674q-2 -17 8 -28.5t28 -11.5t30 11.5t14 28.5t-9 29t-29 12t-29 -11.5t-13 -29.5z" />
    <glyph glyph-name="cedilla.sc" horiz-adv-x="308" 
d="M74 -102l58 102h68l-21 -49q88 -26 84 -79q-3 -42 -53.5 -77.5t-146.5 -38.5l-17 71q96 7 98 31q2 22 -68 35z" />
    <glyph glyph-name="ogonek.sc" horiz-adv-x="349" 
d="M61 -138q4 32 37 69t102 69h89q-106 -69 -113 -116v-2q1 -12 11 -21t24 -9q35 0 53 10l19 -79q-15 -8 -49.5 -17t-53.5 -9q-55 0 -89 28t-30 77z" />
    <glyph glyph-name="Dotlessi.sc" horiz-adv-x="258" 
d="M287 539l-42 -539h-198l41 539h199z" />
    <glyph glyph-name="Tcedilla.sc" horiz-adv-x="494" 
d="M204 0h-77l29 382l-160 -1l32 158h497l-34 -158l-132 1l-29 -382h-58l-21 -49q88 -26 84 -79q-3 -42 -53.5 -77.5t-146.5 -38.5l-17 71q96 7 98 31q2 22 -68 35l-2 5z" />
    <glyph glyph-name="f_f.sc" horiz-adv-x="872" 
d="M380 183l-153 7l-15 -190h-203l42 539h401l-34 -136l-175 1l-7 -90h180zM817 183l-153 7l-15 -190h-203l42 539h401l-34 -136l-175 1l-7 -90h180z" />
    <glyph glyph-name="f_f_i.sc" horiz-adv-x="1130" 
d="M1121 539l-42 -539h-203l42 539h203zM380 183l-153 7l-15 -190h-203l42 539h401l-34 -136l-175 1l-7 -90h180zM815 183l-153 7l-15 -190h-203l42 539h401l-34 -136l-175 1l-7 -90h180z" />
    <glyph glyph-name="f_f_l.sc" horiz-adv-x="1319" 
d="M380 183l-153 7l-15 -190h-203l42 539h401l-34 -136l-175 1l-7 -90h180zM819 183l-153 7l-15 -190h-203l42 539h401l-34 -136l-175 1l-7 -90h180zM886 0l42 539h203l-30 -386l210 4l-27 -157h-398z" />
    <glyph glyph-name="fi.sc" horiz-adv-x="702" 
d="M693 539l-42 -539h-203l42 539h203zM380 183l-153 7l-15 -190h-203l42 539h401l-34 -136l-175 1l-7 -90h180z" />
    <glyph glyph-name="fl.sc" horiz-adv-x="880" 
d="M380 183l-153 7l-15 -190h-203l42 539h401l-34 -136l-175 1l-7 -90h180zM447 0l42 539h203l-30 -386l210 4l-27 -157h-398z" />
    </font>
</defs>
</svg>
