<?xml version="1.0" standalone="no"?>
<!DOCTYPE svg PUBLIC "-//W3C//DTD SVG 1.1//EN" "http://www.w3.org/Graphics/SVG/1.1/DTD/svg11.dtd" >
<svg xmlns="http://www.w3.org/2000/svg" xmlns:xlink="http://www.w3.org/1999/xlink" version="1.1">
<metadata>
Created by FontForge 20170731 at Sun Apr  3 01:41:32 2016
 By Aleksey,,,
Universidad Nacional de Colombia, Unidad de Medios de Comunicacio'n (Unimedios), 2012-2015.
</metadata>
<defs>
<font id="AncizarSans-ExtraboldItalic" horiz-adv-x="503" >
  <font-face 
    font-family="Ancizar Sans Extrabold"
    font-weight="800"
    font-style="italic"
    font-stretch="normal"
    units-per-em="1000"
    panose-1="2 11 9 2 4 3 0 0 0 3"
    ascent="750"
    descent="-250"
    x-height="450"
    cap-height="612"
    bbox="-115 -265 1267 912"
    underline-thickness="0"
    underline-position="0"
    slope="-4"
    unicode-range="U+0020-FB04"
  />
<missing-glyph horiz-adv-x="667" 
d="M84 0v703h500v-703h-500zM334 397l170 256h-340zM134 608v-513l170 256zM364 351l170 -256v513zM164 50h340l-170 256z" />
    <glyph glyph-name="f_f" unicode="ff" horiz-adv-x="537" 
d="M227 -238q-51 0 -70 13l31 123q20 -13 53 -13q60 0 64 79l24 390h-113l-21 -359q-4 -61 -26.5 -107.5t-56.5 -73t-71 -39.5t-75 -13q-51 0 -70 13l31 123q14 -9 53 -9q60 0 64 75l23 390h-55l2 78l58 17q4 66 26 115t56 74.5t69.5 37.5t72.5 12q48 0 80 -9l-28 -118
q-21 8 -66 8q-23 0 -38.5 -14t-17.5 -42l-4 -63h113l1 16q4 67 26.5 116.5t56 75.5t69 38t72.5 12q50 0 79 -9l-27 -118q-22 8 -66 8q-24 0 -39.5 -14.5t-16.5 -41.5l-5 -83h85l-16 -96h-75l-23 -359q-8 -117 -76.5 -175t-152.5 -58z" />
    <glyph glyph-name="fi" unicode="fi" horiz-adv-x="520" 
d="M-34 -238q-51 0 -70 13l31 123q14 -9 53 -9q60 0 64 75l24 390h-56l2 78l60 17l1 17q7 114 80.5 178t175.5 64q91 0 168 -27l-50 -119q-86 27 -139 27q-79 0 -84 -81l-4 -58h145l121 17l-33 -467h-148l25 354h-115l-22 -359q-4 -61 -26.5 -107.5t-56.5 -73t-71 -39.5
t-75 -13z" />
    <glyph glyph-name="fl" unicode="fl" horiz-adv-x="560" 
d="M-34 -238q-51 0 -70 13l31 123q14 -9 53 -9q60 0 64 75l24 390h-56l2 78l60 17l1 17q7 114 80.5 178t175.5 64q56 0 106 -10l72 10q-11 -155 -23.5 -289.5t-18 -193.5t-5.5 -83q0 -11 6 -21t17 -10q17 0 49 16l18 -97q-84 -47 -143 -47q-45 0 -71.5 26t-26.5 78
q0 33 5 92.5t16 178.5t20 228q-20 3 -42 3q-79 0 -84 -81l-4 -58h79l-16 -96h-68l-22 -359q-4 -61 -26.5 -107.5t-56.5 -73t-71 -39.5t-75 -13z" />
    <glyph glyph-name="f_f_i" unicode="ffi" horiz-adv-x="781" 
d="M227 -238q-51 0 -70 13l31 123q14 -9 53 -9q60 0 64 75l24 390h-113l-21 -359q-4 -61 -26.5 -107.5t-56.5 -73t-71 -39.5t-75 -13q-51 0 -70 13l31 123q14 -9 53 -9q60 0 64 75l23 390h-55l2 78l58 17q4 66 26 115t56 74.5t69.5 37.5t72.5 12q48 0 80 -9l-28 -118
q-21 8 -66 8q-23 0 -38.5 -14t-17.5 -42l-4 -63h113l1 16q7 114 80.5 178t175.5 64q93 0 168 -27l-50 -119q-86 27 -139 27q-79 0 -84 -81l-4 -58h145l121 17l-33 -467h-148l25 354h-115l-22 -359q-4 -61 -26.5 -107.5t-56.5 -73t-71 -39.5t-75 -13z" />
    <glyph glyph-name="f_f_l" unicode="ffl" horiz-adv-x="820" 
d="M225 -238q-52 0 -69 13l31 123q13 -9 53 -9q59 0 64 75l23 390h-111l-21 -359q-4 -61 -26.5 -107.5t-56.5 -73t-71 -39.5t-75 -13q-51 0 -70 13l31 123q14 -9 53 -9q60 0 64 75l23 390h-55l2 78l58 17q4 66 26 115t56 74.5t69.5 37.5t72.5 12q48 0 80 -9l-28 -118
q-21 8 -66 8q-23 0 -38.5 -14t-17.5 -42l-4 -63h111l1 16q7 114 80.5 178t175.5 64q58 0 106 -10l73 10q-12 -153 -24 -289t-17.5 -194.5t-5.5 -82.5q0 -11 6 -21t17 -10q17 0 49 16l18 -97q-84 -47 -143 -47q-46 0 -72.5 26t-26.5 78q0 33 5 92t16.5 179.5t20.5 227.5
q-21 3 -43 3q-79 0 -83 -81l-4 -58h88l-16 -96h-78l-22 -359q-4 -61 -26.5 -107.5t-56.5 -73t-71 -39.5t-75 -13z" />
    <glyph glyph-name=".notdef" horiz-adv-x="667" 
d="M84 0v703h500v-703h-500zM334 397l170 256h-340zM134 608v-513l170 256zM364 351l170 -256v513zM164 50h340l-170 256z" />
    <glyph glyph-name=".null" horiz-adv-x="0" 
 />
    <glyph glyph-name="nonmarkingreturn" horiz-adv-x="333" 
 />
    <glyph glyph-name="space" unicode=" " horiz-adv-x="197" 
 />
    <glyph glyph-name="exclam" unicode="!" horiz-adv-x="321" 
d="M208 181l-116 -19q20 309 11 450l152 31q-40 -366 -47 -462zM54 45q1 22 38 53t57 31q19 0 50.5 -29t30.5 -50q-1 -18 -36.5 -46.5t-53.5 -28.5q-19 0 -53 27t-33 43z" />
    <glyph glyph-name="quotedbl" unicode="&#x22;" horiz-adv-x="371" 
d="M222 444l1 249h138l-36 -249h-103zM61 444l-4 249h138l-31 -249h-103z" />
    <glyph glyph-name="numbersign" unicode="#" horiz-adv-x="612" 
d="M340 247l32 102h-112l-32 -102h112zM263 0l54 173h-112l-54 -173h-85l54 173h-113l1 15l38 59h97l32 102h-126l1 15l38 59h110l59 189h85l-59 -189h112l59 189h85l-59 -189h122l-1 -15l-39 -59h-105l-32 -102h135l-1 -15l-39 -59h-118l-54 -173h-85z" />
    <glyph glyph-name="dollar" unicode="$" horiz-adv-x="520" 
d="M273 -148h-112l20 132q-89 5 -155 31l32 133q104 -49 187 -50q25 1 42 15t17 42q0 45 -58 75l-80 39q-50 25 -76.5 66t-26.5 90q0 73 46 125.5t120 70.5l-2 132h112l-19 -125q86 -4 165 -32l-35 -135q-29 14 -82 30.5t-86 16.5q-67 0 -67 -50q0 -44 58 -72l83 -42
q108 -54 108 -161q0 -72 -54 -125.5t-139 -69.5z" />
    <glyph glyph-name="percent" unicode="%" horiz-adv-x="686" 
d="M346 483q-4 -71 -53 -117t-119 -46q-67 0 -102.5 39t-31.5 110q7 70 55 115.5t118 45.5q66 0 102.5 -38.5t30.5 -108.5zM12 0l554 612h106l-555 -612h-105zM251 475q4 87 -59 87q-27 0 -40 -20.5t-16 -64.5q-4 -88 59 -88q50 0 56 86zM646 146q-6 -71 -54.5 -117
t-118.5 -46q-67 0 -103 39t-30 110q5 69 53.5 115t118.5 46q66 0 102 -38t32 -109zM549 138q7 87 -58 87q-51 0 -57 -85q-4 -87 59 -87q50 0 56 85z" />
    <glyph glyph-name="ampersand" unicode="&#x26;" horiz-adv-x="627" 
d="M570 -17q0 -104 -115 -189l-72 65q45 50 48 92q0 20 -5.5 34.5t-25.5 39.5q-86 -43 -187 -43q-94 0 -145.5 40.5t-51.5 109.5q0 55 31.5 95.5t92.5 78.5q-33 36 -48.5 65.5t-15.5 68.5q0 78 63 133.5t171 55.5q34 0 76 -7.5t62 -20.5l-42 -104q-21 12 -57.5 20.5
t-61.5 8.5q-26 0 -44 -14t-18 -37q0 -21 17.5 -42t59 -59t71.5 -72q18 -21 47 -55t31 -37q13 29 13 63q0 66 -46 123l131 54q17 -17 30 -56.5t13 -84.5q0 -107 -69 -190q47 -68 47 -136zM261 83q41 0 76 15q-54 61 -59 66q-41 46 -80 84q-42 -38 -42 -83q0 -38 32 -60
t73 -22z" />
    <glyph glyph-name="quotesingle" unicode="'" horiz-adv-x="205" 
d="M59 444l-2 249h138l-34 -249h-102z" />
    <glyph glyph-name="parenleft" unicode="(" horiz-adv-x="337" 
d="M311 -96l-59 -56q-99 63 -148 185.5t-40 261.5q9 134 75 253t174 194l53 -57q-89 -69 -145.5 -174.5t-63.5 -215.5q-8 -120 32 -221.5t122 -169.5z" />
    <glyph glyph-name="parenright" unicode=")" horiz-adv-x="337" 
d="M26 686l59 56q99 -63 148 -185.5t40 -261.5q-9 -134 -75 -253t-174 -194l-53 57q89 69 145.5 174.5t63.5 215.5q8 120 -32 221.5t-122 169.5z" />
    <glyph glyph-name="asterisk" unicode="*" horiz-adv-x="393" 
d="M235 683q12 -26 9 -73q-4 -42 -15 -69l-31 -4q-3 72 -41 124zM372 584q-51 -56 -124 -71l-17 20q42 30 90 105zM73 605q78 -12 119 -67l-12 -29q-49 22 -127 18zM347 410q-48 9 -72 24.5t-45 44.5l10 27q57 -24 132 -19zM51 435q23 23 44 37t34.5 19t43.5 15l19 -26
q-50 -34 -86 -99zM186 336q-12 25 -8 73q3 34 15 65l29 6q5 -70 42 -125z" />
    <glyph glyph-name="plus" unicode="+" horiz-adv-x="520" 
d="M456 220h-150l-11 -154h-100l11 154h-152l8 93h150l11 150h100l-11 -150h152z" />
    <glyph glyph-name="comma" unicode="," horiz-adv-x="245" 
d="M24 71q2 26 28 48.5t52 22.5q29 0 58.5 -30t26.5 -70q-8 -67 -106 -200l-76 29q24 40 33.5 57t18.5 39t10 39q0 7 -23 28.5t-22 36.5z" />
    <glyph glyph-name="hyphen" unicode="-" horiz-adv-x="348" 
d="M317 292l-4 -25l-32 -71h-249l3 25l40 71h242z" />
    <glyph glyph-name="period" unicode="." horiz-adv-x="245" 
d="M16 55q1 23 36 54t59 31t59 -25t34 -48q-2 -23 -37.5 -53.5t-57.5 -30.5q-25 0 -59.5 25t-33.5 47z" />
    <glyph glyph-name="slash" unicode="/" horiz-adv-x="371" 
d="M15 -110l250 803h90l-250 -803h-90z" />
    <glyph glyph-name="zero" unicode="0" horiz-adv-x="520" 
d="M502 376q1 -196 -75.5 -294.5t-197.5 -98.5q-107 0 -159.5 66t-52.5 182q0 91 16 161.5t42 114t62.5 72t74.5 39.5t81 11q106 0 158.5 -66.5t50.5 -186.5zM251 89q93 4 93 260q1 86 -15.5 129.5t-59.5 43.5q-25 0 -43 -17t-33 -80t-15 -172q0 -162 73 -164z" />
    <glyph glyph-name="one" unicode="1" horiz-adv-x="520" 
d="M379 0h-159l32 461l-142 -59l-26 130l240 80h98z" />
    <glyph glyph-name="two" unicode="2" horiz-adv-x="520" 
d="M442 0h-409l7 114q154 129 213.5 197.5t58.5 117.5q0 34 -25.5 53t-63.5 19q-54 0 -131 -37l-27 120q103 45 210 45q94 0 147.5 -44.5t53.5 -123.5q0 -142 -247 -339l242 5z" />
    <glyph glyph-name="three" unicode="3" horiz-adv-x="520" 
d="M178 -17q-96 0 -156 23l36 129q81 -25 135 -25q49 0 79.5 17.5t30.5 52.5q0 73 -90 73q-50 0 -75 -5l-17 114q187 0 187 82q0 30 -20 45t-52 15q-63 0 -128 -37l-27 117q38 20 97.5 32.5t109.5 12.5q86 0 134.5 -38t48.5 -101q0 -47 -30.5 -90.5t-91.5 -65.5
q58 -14 86.5 -52.5t28.5 -91.5q0 -93 -80.5 -150t-205.5 -57z" />
    <glyph glyph-name="four" unicode="4" horiz-adv-x="520" 
d="M285 211l15 223l-167 -223h152zM484 98h-61l-7 -98h-146l7 98h-295l7 107l313 407h157l-28 -401h85z" />
    <glyph glyph-name="five" unicode="5" horiz-adv-x="520" 
d="M166 -17q-68 0 -151 20l35 124q84 -28 152 -28q46 0 76.5 20t30.5 63q0 79 -127 79q-57 0 -112 -11l43 362h374l-26 -117h-227l-15 -120q33 7 56 7q86 0 138.5 -43t53.5 -120q-1 -115 -85.5 -175.5t-215.5 -60.5z" />
    <glyph glyph-name="six" unicode="6" horiz-adv-x="520" 
d="M488 223q0 -97 -67 -168.5t-183 -71.5q-104 0 -157 66.5t-53 187.5q0 106 27 184.5t74 122.5t103.5 64.5t123.5 20.5q79 0 133 -19l-28 -129q-67 25 -128 25q-58 0 -92 -30.5t-47 -110.5q56 36 121 36q87 0 130 -48t43 -130zM264 89q31 0 52 26.5t21 79.5q0 41 -22 67
t-58 26q-38 0 -72 -23q-1 -13 -1 -42q2 -62 22 -98t58 -36z" />
    <glyph glyph-name="seven" unicode="7" horiz-adv-x="520" 
d="M235 -21l-158 47l245 453h-280l29 133h437l-9 -113q-17 -33 -44.5 -87t-85.5 -167.5t-96 -189.5z" />
    <glyph glyph-name="eight" unicode="8" horiz-adv-x="520" 
d="M232 -17q-105 0 -160 41t-55 113q0 96 114 167q-70 53 -70 140t68 136t165 48q92 1 143 -35.5t51 -103.5q0 -39 -27.5 -81t-78.5 -75q58 -34 81 -67t23 -90q0 -81 -73 -137t-181 -56zM206 470q0 -22 17 -39.5t63 -43.5q59 42 59 86q0 22 -20.5 36.5t-51.5 14.5
q-33 0 -50 -16t-17 -38zM259 88q40 0 60.5 21t20.5 44q0 21 -24 42.5t-87 51.5q-35 -24 -49 -44.5t-14 -46.5q0 -29 26.5 -48.5t66.5 -19.5z" />
    <glyph glyph-name="nine" unicode="9" horiz-adv-x="520" 
d="M264 321q38 0 72 23q1 13 1 42q-3 134 -80 134q-33 0 -53 -25.5t-20 -77.5q0 -44 20.5 -70t59.5 -26zM163 -17q-75 0 -136 19l28 123q46 -19 107 -19q127 0 160 135q-54 -33 -116 -33q-87 0 -130 49.5t-43 131.5q0 97 67 168.5t184 71.5q104 0 156.5 -66t52.5 -188
q0 -85 -20 -153t-52.5 -112t-76.5 -73t-89 -41.5t-92 -12.5z" />
    <glyph glyph-name="colon" unicode=":" horiz-adv-x="245" 
d="M28 335q1 23 36 54t59 31t59 -25t34 -48q-2 -23 -37.5 -53.5t-57.5 -30.5q-25 0 -59.5 25t-33.5 47zM8 55q1 23 36 54t59 31t59 -25t34 -48q-2 -23 -37.5 -53.5t-57.5 -30.5q-25 0 -59.5 25t-33.5 47z" />
    <glyph glyph-name="semicolon" unicode=";" horiz-adv-x="245" 
d="M25 335q1 23 36 54t59 31t59 -25t34 -48q-2 -23 -37.5 -53.5t-57.5 -30.5q-25 0 -59.5 25t-33.5 47zM14 71q2 26 28 48.5t52 22.5q29 0 58.5 -30t26.5 -70q-8 -67 -106 -200l-76 29q24 40 33.5 57t18.5 39t10 39q0 7 -23 28.5t-22 36.5z" />
    <glyph glyph-name="equal" unicode="=" horiz-adv-x="520" 
d="M444 385l1 -15l-25 -77h-336v15l24 77h336zM436 237l1 -15l-25 -78h-336v15l24 78h336z" />
    <glyph glyph-name="question" unicode="?" horiz-adv-x="445" 
d="M274 193l-135 -32q-32 49 -32 77q2 29 17.5 48.5t58.5 53.5q47 38 65.5 62.5t19.5 60.5q2 22 -18 42.5t-48 20.5t-50 -9t-72 -37l-40 104q112 57 199 57t141.5 -46.5t48.5 -119.5q-1 -29 -22 -60t-40.5 -48.5t-51.5 -41.5q-60 -44 -61 -70q0 -13 20 -62zM104 40
q1 23 35 54t56 31q19 0 49.5 -28.5t29.5 -51.5t-36.5 -53.5t-54.5 -30.5q-22 0 -51 28.5t-28 50.5z" />
    <glyph glyph-name="at" unicode="@" horiz-adv-x="812" 
d="M348 -151q-48 0 -94 10.5t-92.5 37.5t-79 68.5t-50.5 109.5t-12 154q6 91 36.5 166.5t75 125t101.5 84t115.5 49.5t116.5 15q155 0 247 -79.5t82 -213.5q-9 -125 -102.5 -217t-220.5 -117l-18 123q-35 -53 -63.5 -78t-62.5 -25q-49 0 -76 44t-20 132q7 94 66.5 166
t164.5 72q18 0 35 -2.5t27 -5.5t29 -9t27 -9l-21 -294q109 71 118 214q5 92 -58.5 144.5t-176.5 52.5q-123 0 -205 -88t-94 -230q-12 -153 56.5 -228t183.5 -75q18 0 35 1.5t33 4.5t27.5 5.5t26.5 8t21 8t20 8t15 6.5l28 -85q-129 -54 -241 -54zM381 156q8 0 17 5t21 18
t22.5 42t16.5 70l7 102q-15 3 -36 3q-42 0 -58.5 -37t-23.5 -114q-7 -89 34 -89z" />
    <glyph glyph-name="A" unicode="A" horiz-adv-x="562" 
d="M336 233l-46 237l-86 -237h132zM381 0l-22 116h-197l-42 -116h-152l242 612h204l124 -612h-157z" />
    <glyph glyph-name="B" unicode="B" horiz-adv-x="539" 
d="M260 514h-30l-12 -154h37q44 0 68 18.5t24 53.5q0 36 -24 59t-63 23zM252 100q44 0 72 20.5t28 57.5q0 38 -27 63t-78 25h-35l-13 -166h53zM42 0l43 612h204q202 0 202 -144q0 -83 -80 -139q99 -34 99 -133q0 -95 -80 -145.5t-192 -50.5h-196z" />
    <glyph glyph-name="C" unicode="C" horiz-adv-x="491" 
d="M439 128l19 -106q-81 -37 -182 -37q-117 0 -188 76t-71 209q0 70 20.5 133t60.5 114.5t105 81.5t147 30q77 0 142 -26l-35 -124q-82 25 -135 25q-70 0 -106.5 -58t-36.5 -166q0 -84 43 -128.5t99 -44.5q60 0 118 21z" />
    <glyph glyph-name="D" unicode="D" horiz-adv-x="607" 
d="M85 612h224q125 0 199.5 -70.5t75.5 -198.5q-2 -151 -97 -247t-246 -96h-199zM235 493l-28 -374h37q77 0 126.5 49t49.5 150q0 89 -40.5 132t-105.5 43h-39z" />
    <glyph glyph-name="E" unicode="E" horiz-adv-x="496" 
d="M42 0l43 612h389l-27 -117l-213 3l-9 -128h209l-27 -117l-190 6l-10 -140l247 3l-27 -122h-385z" />
    <glyph glyph-name="F" unicode="F" horiz-adv-x="477" 
d="M404 237l-188 6l-17 -243h-157l43 612h389l-27 -117l-213 3l-10 -144h206z" />
    <glyph glyph-name="G" unicode="G" horiz-adv-x="566" 
d="M500 27q-40 -19 -99 -31.5t-111 -12.5q-129 0 -201 73.5t-72 214.5q0 51 12.5 101t39.5 97t65 83t93.5 57.5t120.5 21.5q55 0 110.5 -10t82.5 -27l-33 -129q-94 39 -183 39q-148 0 -148 -229q0 -86 41.5 -128.5t102.5 -42.5q27 0 48 3l13 197h137z" />
    <glyph glyph-name="H" unicode="H" horiz-adv-x="629" 
d="M387 0l17 247h-188l-17 -247h-157l43 612h157l-17 -236h188l17 236h157l-43 -612h-157z" />
    <glyph glyph-name="I" unicode="I" horiz-adv-x="284" 
d="M242 612l-43 -612h-157l43 612h157z" />
    <glyph glyph-name="J" unicode="J" horiz-adv-x="361" 
d="M319 612l-30 -436q-6 -87 -67 -140t-146 -53q-66 0 -106 20l34 127q30 -18 67 -18q57 0 62 79l29 421h157z" />
    <glyph glyph-name="K" unicode="K" horiz-adv-x="595" 
d="M396 0l-175 327l-23 -327h-156l43 612h156l-20 -281l216 281h175l-230 -284l196 -328h-182z" />
    <glyph glyph-name="L" unicode="L" horiz-adv-x="469" 
d="M42 0l43 612h157l-34 -488l247 3l-28 -127h-385z" />
    <glyph glyph-name="M" unicode="M" horiz-adv-x="829" 
d="M315 0l-97 403l-55 -403h-143l93 612h200l96 -377l139 377h213v-612h-156l2 414l-154 -414h-138z" />
    <glyph glyph-name="N" unicode="N" horiz-adv-x="629" 
d="M405 0l-194 366l-25 -366h-144l44 612h154l182 -364l21 364h144l-42 -612h-140z" />
    <glyph glyph-name="O" unicode="O" horiz-adv-x="607" 
d="M590 354q0 -170 -91 -270.5t-227 -100.5q-119 0 -187 75t-68 200q0 170 91 270.5t227 100.5q119 0 187 -75t68 -200zM302 104q126 0 126 235q0 79 -34.5 124t-91.5 45q-123 0 -123 -235q0 -82 33.5 -125.5t89.5 -43.5z" />
    <glyph glyph-name="P" unicode="P" horiz-adv-x="530" 
d="M266 507h-33l-13 -193h42q51 0 75.5 26t24.5 65q0 46 -25.5 74t-70.5 28zM254 200h-42l-13 -200h-157l41 612h210q112 0 170.5 -48.5t58.5 -135.5q0 -99 -73.5 -163.5t-194.5 -64.5z" />
    <glyph glyph-name="Q" unicode="Q" horiz-adv-x="607" 
d="M426 -213q-42 0 -126 35.5t-115 35.5q-10 0 -16.5 -1t-15.5 -4.5t-14.5 -6t-20.5 -10.5t-26 -13l-19 96q1 0 1 0.5t1 0.5l-2 2q79 29 151 65q-98 15 -152.5 87t-54.5 184q0 170 91 270.5t227 100.5q119 0 187 -75t68 -200q0 -115 -43.5 -200t-118.5 -129
q-51 -37 -150 -86q137 -33 169 -33q54 0 105 32l-7 -116q-49 -35 -119 -35zM302 104q126 0 126 235q0 79 -34.5 124t-91.5 45q-123 0 -123 -235q0 -82 33.5 -125.5t89.5 -43.5z" />
    <glyph glyph-name="R" unicode="R" horiz-adv-x="550" 
d="M263 507h-30l-11 -169h40q95 0 95 85q0 39 -26 61.5t-68 22.5zM258 223h-44l-15 -223h-157l41 612h215q105 0 162 -45.5t57 -126.5q0 -56 -27.5 -103t-78.5 -76l128 -261h-171l-97 223h-13z" />
    <glyph glyph-name="S" unicode="S" horiz-adv-x="487" 
d="M233 230l-80 39q-50 25 -76.5 66t-26.5 90q0 89 67 146.5t165 57.5q99 0 190 -33l-35 -135q-29 14 -82 30.5t-86 16.5q-67 0 -67 -50q0 -44 58 -72l83 -42q108 -54 108 -161q0 -86 -73 -143t-181 -57q-102 0 -184 32l32 133q104 -49 187 -50q25 1 42 15t17 42
q0 45 -58 75z" />
    <glyph glyph-name="T" unicode="T" horiz-adv-x="502" 
d="M495 487l-151 3l-34 -490h-157l34 490l-173 -3l27 125h481z" />
    <glyph glyph-name="U" unicode="U" horiz-adv-x="627" 
d="M84 612h157q-29 -382 -29 -407q0 -54 29 -78.5t72 -24.5q86 0 92 110l29 400h151l-27 -382q-8 -117 -78 -182t-197 -65q-106 0 -166.5 50.5t-60.5 144.5q0 49 28 434z" />
    <glyph glyph-name="V" unicode="V" horiz-adv-x="572" 
d="M353 0h-186l-144 612h163l94 -443l166 443h155z" />
    <glyph glyph-name="W" unicode="W" horiz-adv-x="857" 
d="M511 0l-80 356l-136 -356h-174l-79 612h164l42 -389l139 389h140l85 -390l99 390h144l-167 -612h-177z" />
    <glyph glyph-name="X" unicode="X" horiz-adv-x="544" 
d="M359 0l-107 196l-117 -196h-172l218 328l-155 284h173l94 -173l104 173h172l-205 -303l168 -309h-173z" />
    <glyph glyph-name="Y" unicode="Y" horiz-adv-x="521" 
d="M337 225l-16 -225h-157l16 225h-2l-162 387h167l97 -231l119 231h158z" />
    <glyph glyph-name="Z" unicode="Z" horiz-adv-x="536" 
d="M474 0h-448l4 96l284 388h-261l22 128h435l-5 -108l-283 -380h274z" />
    <glyph glyph-name="bracketleft" unicode="[" horiz-adv-x="337" 
d="M296 -59l-4 -73h-218l59 855h219l-4 -73h-128l-49 -709h125z" />
    <glyph glyph-name="backslash" unicode="\" horiz-adv-x="371" 
d="M161 693l138 -803h-90l-138 803h90z" />
    <glyph glyph-name="bracketright" unicode="]" horiz-adv-x="337" 
d="M204 -132h-219l4 73h128l49 709h-125l4 73h218z" />
    <glyph glyph-name="underscore" unicode="_" horiz-adv-x="440" 
d="M430 -101v-88h-440v88h440z" />
    <glyph glyph-name="grave" unicode="`" horiz-adv-x="316" 
d="M294 503h-125l-147 138l153 27z" />
    <glyph glyph-name="a" unicode="a" horiz-adv-x="496" 
d="M305 -17l-7 85q-77 -85 -151 -85q-58 0 -94 45t-36 136q0 130 76 216.5t191 86.5q116 0 183 -36l-30 -431zM217 90q17 0 33.5 13.5t34 57.5t23.5 114l7 79q-19 12 -44 12q-46 0 -71.5 -41t-25.5 -152q0 -83 43 -83z" />
    <glyph glyph-name="b" unicode="b" horiz-adv-x="494" 
d="M244 87q76 0 76 182q0 93 -42 93q-28 0 -52.5 -43t-33.5 -118l-7 -106q26 -8 59 -8zM220 -15q-40 0 -100 16l-58 -25l-31 20l48 701l149 21l-23 -328q63 77 140 77q131 0 131 -176q0 -77 -25.5 -138.5t-65 -96.5t-82 -53t-83.5 -18z" />
    <glyph glyph-name="c" unicode="c" horiz-adv-x="379" 
d="M326 135l34 -89q-86 -63 -177 -63q-70 0 -116.5 47t-46.5 151q0 135 66.5 210.5t166.5 75.5q33 0 72.5 -11t59.5 -26l-48 -107q-5 8 -36 23.5t-54 15.5q-28 0 -49.5 -41.5t-21.5 -126.5q0 -51 17.5 -74.5t40.5 -23.5q41 0 92 39z" />
    <glyph glyph-name="d" unicode="d" horiz-adv-x="495" 
d="M297 -17l-3 84q-65 -82 -145 -82q-131 0 -131 176q0 77 25.5 138.5t65 96.5t82.5 53t84 18q23 0 43 -4l17 235l149 21l-49 -719zM217 90q28 0 52.5 42t33.5 117l7 108q-29 9 -59 9q-77 0 -77 -183q0 -93 43 -93z" />
    <glyph glyph-name="e" unicode="e" horiz-adv-x="412" 
d="M198 -17q-81 0 -128 49t-47 145q0 75 21.5 133.5t57 91t75 49t81.5 16.5q66 0 104 -33.5t38 -85.5q0 -67 -64.5 -114t-160.5 -58q4 -50 22 -67.5t46 -17.5q45 0 111 49l34 -84q-93 -73 -190 -73zM233 373q-55 0 -60 -121q43 8 67 28.5t24 52.5q0 40 -31 40z" />
    <glyph glyph-name="f" unicode="f" horiz-adv-x="276" 
d="M-34 -238q-51 0 -70 13l31 123q14 -9 53 -9q60 0 64 75l24 390h-56l2 78l60 17l1 17q4 67 26.5 116.5t56 75.5t69 38t72.5 12q50 0 79 -9l-27 -118q-22 8 -66 8q-24 0 -39.5 -14.5t-16.5 -41.5l-5 -83h85l-16 -96h-75l-23 -359q-8 -117 -76.5 -175t-152.5 -58z" />
    <glyph glyph-name="g" unicode="g" horiz-adv-x="403" 
d="M213 244q19 0 30.5 17t11.5 43q0 76 -51 76q-45 0 -45 -61q0 -75 54 -75zM393 -29q0 -78 -79 -141.5t-181 -63.5q-86 0 -130.5 30.5t-44.5 78.5q0 40 25 72.5t91 67.5l1 1q-40 26 -38 68q-1 18 15.5 42t45.5 45q-75 29 -75 126q0 76 61 123t147 47q37 0 62 -7l79 116
l77 -76l-11 -25l-80 -50q33 -36 33 -99q0 -71 -57.5 -120t-151.5 -49h-7q-9 -9 -9 -17q0 -16 19 -25t83 -20q71 -12 98 -42.5t27 -81.5zM170 -128q49 0 74.5 15.5t25.5 39.5q0 23 -18.5 32t-85.5 23q-14 2 -33 8q-47 -33 -47 -66q0 -22 21 -37t63 -15z" />
    <glyph glyph-name="h" unicode="h" 
d="M282 349q-11 0 -21.5 -5.5t-24.5 -20t-25.5 -47t-17.5 -78.5l-14 -198h-149l49 697l152 21l-25 -347q69 96 148 96q114 0 114 -128q0 -46 -17.5 -186t-18.5 -153h-149q32 256 32 293q0 56 -33 56z" />
    <glyph glyph-name="i" unicode="i" horiz-adv-x="241" 
d="M58 590q0 24 30 56.5t57 32.5q23 0 54.5 -24.5t31.5 -47.5q0 -24 -30.5 -56.5t-55.5 -32.5q-24 0 -55.5 24t-31.5 48zM62 446l149 21l-33 -467h-148z" />
    <glyph glyph-name="j" unicode="j" horiz-adv-x="231" 
d="M54 590q0 24 30 56.5t56 32.5q24 0 55.5 -24.5t31.5 -47.5q0 -24 -31 -56.5t-56 -32.5q-23 0 -54.5 24.5t-31.5 47.5zM-92 -230l-14 131q16 -4 50 -4q72 0 80 97l33 452l149 20l-32 -457q-9 -115 -75 -177.5t-191 -61.5z" />
    <glyph glyph-name="k" unicode="k" horiz-adv-x="469" 
d="M333 -11q-37 49 -137 260l-18 -249h-148l51 702l149 14l-34 -467q78 75 142 201h150q-17 -42 -59 -100.5t-89 -106.5q102 -173 142 -219z" />
    <glyph glyph-name="l" unicode="l" horiz-adv-x="281" 
d="M255 127l18 -97q-84 -47 -143 -47q-46 0 -72 26t-26 78q0 36 6 109.5t19.5 218.5t23.5 283l149 21q-12 -152 -24 -292t-17.5 -200t-5.5 -85q0 -11 6 -21t17 -10q17 0 49 16z" />
    <glyph glyph-name="m" unicode="m" horiz-adv-x="762" 
d="M191 155l-11 -155h-150l31 446l136 21l6 -103q70 103 152 103q100 0 111 -99q72 99 151 99q113 0 113 -128q0 -47 -19 -189t-20 -150h-149q1 6 11 79t17 131.5t7 82.5q0 56 -32 56q-10 0 -20.5 -5t-23.5 -18t-24 -42t-18 -70q-4 -35 -9.5 -84t-9.5 -82.5t-5 -47.5l-149 2
q29 232 29 293q0 54 -32 54q-12 0 -24 -7t-27 -25.5t-26 -60t-15 -101.5z" />
    <glyph glyph-name="n" unicode="n" horiz-adv-x="502" 
d="M282 349q-11 0 -22.5 -6.5t-26 -23t-26 -54t-16.5 -90.5l-12 -175h-149l31 446l136 21l6 -100q70 100 151 100q114 0 114 -128q0 -46 -17.5 -186t-18.5 -153h-149q32 256 32 293q0 56 -33 56z" />
    <glyph glyph-name="o" unicode="o" horiz-adv-x="461" 
d="M442 261q0 -71 -25.5 -132.5t-82 -103.5t-134.5 -42q-79 0 -130 50.5t-51 155.5q0 70 26 132t82.5 104t133.5 42q84 0 132.5 -50t48.5 -156zM231 77q59 0 59 189q0 56 -13.5 81.5t-46.5 25.5q-59 0 -59 -189q0 -60 13 -83.5t47 -23.5z" />
    <glyph glyph-name="p" unicode="p" horiz-adv-x="496" 
d="M246 87q76 0 76 182q0 93 -42 93q-27 0 -50.5 -37.5t-33.5 -105.5l-8 -124q26 -8 58 -8zM166 -218l-148 -20l43 684l138 21l4 -82q64 82 144 82q131 0 131 -176q0 -77 -25.5 -138.5t-65 -96.5t-82 -53t-83.5 -18q-22 0 -42 4z" />
    <glyph glyph-name="q" unicode="q" horiz-adv-x="492" 
d="M269 -238l21 300q-64 -77 -141 -77q-131 0 -131 176q0 77 25.5 138.5t65 96.5t82.5 53t84 18q39 0 93 -15l65 24l31 -26l-46 -668zM217 90q28 0 52 41.5t33 115.5l8 110q-31 9 -59 9q-77 0 -77 -183q0 -93 43 -93z" />
    <glyph glyph-name="r" unicode="r" horiz-adv-x="344" 
d="M300 318q-48 0 -72 -28t-34 -100l-15 -190h-149l33 446l134 21l5 -127q24 63 63.5 95t75.5 32q22 0 31 -3l-29 -152q-16 6 -43 6z" />
    <glyph glyph-name="s" unicode="s" horiz-adv-x="374" 
d="M154 -17q-88 0 -152 35l38 114q69 -44 130 -44q12 0 23.5 8t11.5 21q0 10 -9 18.5t-33 22.5l-54 33q-39 25 -56.5 54.5t-17.5 74.5q0 63 50 105t134 42q88 0 142 -29l-34 -106q-63 37 -119 37q-34 0 -34 -30q0 -14 50 -44l45 -26q42 -25 60 -51.5t18 -72.5
q0 -63 -51.5 -112.5t-141.5 -49.5z" />
    <glyph glyph-name="t" unicode="t" horiz-adv-x="336" 
d="M327 44q-83 -61 -168 -61q-51 0 -86 32t-35 96q0 24 26 243h-63l8 86l66 10q8 79 10 95l149 21q-2 -14 -7 -54.5t-7 -61.5h126l-15 -96h-122q-19 -178 -19 -193q0 -49 43 -49q33 0 68 24z" />
    <glyph glyph-name="u" unicode="u" 
d="M304 -17l-8 100q-70 -100 -151 -100q-115 0 -115 128q0 46 17 183.5t18 150.5l151 23q-1 -11 -10 -83t-16 -136t-7 -90t10 -42t26 -16q69 0 89 149l14 196l151 21l-33 -467z" />
    <glyph glyph-name="v" unicode="v" horiz-adv-x="432" 
d="M256 0h-193l-32 444l150 24l13 -348q82 161 100 330h140q-15 -133 -63 -252t-115 -198z" />
    <glyph glyph-name="w" unicode="w" horiz-adv-x="685" 
d="M346 0l-16 134q-49 -94 -94 -135l-161 1l-32 443l149 23l13 -345q71 98 95 253l-9 76h145l27 -327q77 143 84 327h140q-10 -129 -60.5 -248.5t-114.5 -201.5h-166z" />
    <glyph glyph-name="x" unicode="x" horiz-adv-x="411" 
d="M243 -10q-12 30 -68 142q-2 -4 -65 -132h-137q46 114 150 237q-69 135 -99 203l150 21q13 -38 61 -134q11 16 63 123h135q-64 -127 -147 -223q90 -178 106 -216z" />
    <glyph glyph-name="y" unicode="y" horiz-adv-x="434" 
d="M-20 -238q-58 0 -87 12l17 125q24 -7 64 -7q101 0 172 99h-71l-53 456l146 19l39 -359q49 123 91 343h141q-6 -63 -23.5 -142.5t-54.5 -178t-86.5 -178.5t-127 -134.5t-167.5 -54.5z" />
    <glyph glyph-name="z" unicode="z" horiz-adv-x="405" 
d="M363 0h-358l4 67l198 275l-172 -8l14 116h355l-4 -68l-198 -273l175 8z" />
    <glyph glyph-name="braceleft" unicode="{" horiz-adv-x="337" 
d="M67 336q35 -2 56.5 16t23.5 46q2 23 -3 94t-2 120q5 60 60 95t137 35l-4 -77q-38 0 -66.5 -17.5t-29.5 -50.5q-3 -37 -1 -110.5t0 -101.5q-2 -34 -24 -58.5t-52 -32.5q28 -8 47 -33t17 -58q-2 -28 -14.5 -101.5t-15.5 -109.5q-2 -33 23 -50.5t63 -17.5l-4 -76
q-82 0 -133 35.5t-46 94.5q3 49 17 119.5t16 92.5q2 28 -17 46t-52 16z" />
    <glyph glyph-name="bar" unicode="|" horiz-adv-x="338" 
d="M90 -220l64 913h94l-64 -913h-94z" />
    <glyph glyph-name="braceright" unicode="}" horiz-adv-x="337" 
d="M175 297q-28 8 -47 33t-17 58q2 28 14.5 101.5t15.5 109.5q2 33 -23 50.5t-63 17.5l4 76q82 0 133 -35.5t46 -94.5q-3 -49 -17 -119.5t-16 -92.5q-2 -28 17 -46t52 -16l-4 -84q-35 2 -56.5 -16t-23.5 -46q-2 -23 3 -94t2 -120q-5 -60 -60 -95t-137 -35l4 77
q38 0 66.5 17.5t29.5 50.5q3 37 1 110.5t0 101.5q2 34 24 58.5t52 32.5z" />
    <glyph glyph-name="exclamdown" unicode="&#xa1;" horiz-adv-x="321" 
d="M252 408q-1 -22 -38 -53t-57 -31q-19 0 -50.5 29t-30.5 50q1 18 36.5 46.5t53.5 28.5q19 0 53 -27t33 -43zM98 272l116 19q-20 -309 -11 -450l-152 -31q40 366 47 462z" />
    <glyph glyph-name="cent" unicode="&#xa2;" horiz-adv-x="520" 
d="M430 126q-51 -38 -106 -53l4 -141h-115l23 132q-64 5 -105 52.5t-41 144.5q0 116 50.5 188.5t130.5 91.5l-4 132h115l-23 -129q68 -11 96 -34l-48 -107q-5 8 -36 23.5t-54 15.5q-28 0 -49.5 -41.5t-21.5 -126.5q0 -51 17.5 -74.5t40.5 -23.5q41 0 92 39z" />
    <glyph glyph-name="sterling" unicode="&#xa3;" horiz-adv-x="520" 
d="M485 125l-29 -125h-421h-1l-19 99q55 9 80.5 26.5t28.5 61.5q1 26 -5 68h-94l1 13l21 61l40 19h19q-4 49 -2 70q6 94 74 152.5t169 58.5q89 0 148 -28l-46 -112q-12 4 -31 10.5t-28 9t-25.5 5t-34.5 2.5q-29 0 -51.5 -18t-25.5 -55q-3 -38 1 -95h172l-34 -93h-130
q2 -41 1 -56q-3 -45 -37 -85z" />
    <glyph glyph-name="section" unicode="&#xa7;" horiz-adv-x="481" 
d="M161 311q-1 -22 14.5 -36.5t51.5 -29.5q43 4 67 20.5t26 39.5q1 22 -14.5 36.5t-51.5 29.5q-43 -3 -67 -19.5t-26 -40.5zM180 -103q-91 0 -152 32l45 113q7 -3 26 -10.5t28.5 -10.5t24.5 -8t26.5 -7t22.5 -2q52 0 57 39q2 19 -7 31.5t-37 22.5l-68 24q-72 25 -106 60
t-30 99q9 100 120 151q-65 45 -59 118q5 73 71.5 122t158.5 49q95 0 151 -31l-45 -113q-9 3 -32.5 12t-35.5 13t-29 8t-30 4q-52 0 -57 -39q-4 -39 44 -54l68 -24q71 -25 105.5 -60.5t30.5 -99.5q-9 -99 -119 -150q64 -46 58 -118q-5 -73 -71.5 -122t-158.5 -49z" />
    <glyph glyph-name="dieresis" unicode="&#xa8;" horiz-adv-x="530" 
d="M282 580q1 21 31.5 51.5t51.5 30.5q22 0 51.5 -25t28.5 -48q-1 -21 -32.5 -51t-51.5 -30q-22 0 -51 25t-28 47zM86 580q1 21 31.5 51.5t51.5 30.5q22 0 51.5 -25t28.5 -48q-1 -21 -32 -51t-51 -30q-23 0 -52 25t-28 47z" />
    <glyph glyph-name="copyright" unicode="&#xa9;" horiz-adv-x="644" 
d="M46 259q9 125 95.5 200.5t200.5 75.5q126 0 195.5 -78t60.5 -198q-9 -125 -95.5 -200.5t-200.5 -75.5q-127 0 -196 78t-60 198zM104 261q-8 -105 51 -165.5t155 -60.5q99 0 162.5 65t69.5 161q8 102 -49.5 163t-152.5 61q-102 0 -165.5 -62t-70.5 -162zM424 186l9 -58
q-50 -29 -125 -29q-68 0 -109.5 41t-36.5 113q5 78 56.5 128t134.5 50q70 0 95 -17l-23 -68q-41 15 -78 15q-79 0 -89 -94q-2 -44 21 -69.5t69 -25.5q40 0 76 14z" />
    <glyph glyph-name="ordfeminine" unicode="&#xaa;" horiz-adv-x="316" 
d="M193 341l-4 39q-37 -39 -84 -39q-37 0 -60 22.5t-23 68.5q0 68 43 110t130 42q51 0 100 -18l-18 -213zM145 396q38 0 49 79l6 63h-21q-31 0 -43.5 -33t-12.5 -68q0 -21 7 -31t15 -10z" />
    <glyph glyph-name="guillemotleft" unicode="&#xab;" horiz-adv-x="535" 
d="M388 9l-165 223l196 223l85 -43l-118 -180l94 -180zM181 9l-164 223l196 223l84 -43l-118 -180l94 -180z" />
    <glyph glyph-name="registered" unicode="&#xae;" horiz-adv-x="644" 
d="M56 521q9 125 95.5 200.5t200.5 75.5q126 0 195.5 -78t60.5 -198q-9 -125 -95.5 -200.5t-200.5 -75.5q-127 0 -196 78t-60 198zM114 523q-8 -105 51 -165.5t155 -60.5q99 0 162.5 65t69.5 161q8 102 -49.5 163t-152.5 61q-102 0 -165.5 -62t-70.5 -162zM331 541
q15 0 27.5 10t13.5 28q2 21 -13 35.5t-48 14.5h-4l-6 -87q3 0 12.5 -0.5t17.5 -0.5zM312 484h-15l-7 -110h-98l21 313h135q64 0 96.5 -24.5t29.5 -69.5q-3 -51 -55 -82l61 -137h-102l-39 111q-9 -1 -27 -1z" />
    <glyph glyph-name="macron" unicode="&#xaf;" horiz-adv-x="426" 
d="M362 630l-1 -15l-33 -88h-265l1 15l33 88h265z" />
    <glyph glyph-name="twosuperior" unicode="&#xb2;" horiz-adv-x="286" 
d="M256 390h-235l5 60q81 48 116.5 84t36.5 57q6 43 -40 43q-48 0 -89 -23l-15 68q65 26 131 26q59 0 87 -25.5t26 -69.5q-3 -39 -36.5 -73.5t-104.5 -78.5l138 6z" />
    <glyph glyph-name="threesuperior" unicode="&#xb3;" horiz-adv-x="281" 
d="M113 381q-58 0 -98 10l22 63q50 -11 78 -11q57 0 60 37q1 16 -12 26t-38 10q-16 0 -38 -2l-4 61q50 0 72 8t25 27q0 32 -44 32q-38 0 -75 -16l-15 57q52 22 122 22q47 0 77 -19.5t27 -52.5q-1 -28 -24 -49t-57 -31q88 -11 85 -71q-3 -47 -54.5 -74t-108.5 -27z" />
    <glyph glyph-name="acute" unicode="&#xb4;" horiz-adv-x="315" 
d="M12 503l139 165l152 -27l-166 -138h-125z" />
    <glyph glyph-name="paragraph" unicode="&#xb6;" horiz-adv-x="568" 
d="M328 494l-24 -331h-68q-105 0 -163.5 56t-50.5 163q7 107 75 168.5t173 61.5h264l-39 -574q-6 -81 -67 -127.5t-144 -46.5q-64 0 -109 17l26 115q57 -21 90.5 -15.5t47 25t16.5 57.5l31 431h-58z" />
    <glyph glyph-name="cedilla" unicode="&#xb8;" horiz-adv-x="301" 
d="M80 -98l54 98h60l-24 -51q40 -14 61 -32t19 -45q-3 -40 -50 -73t-135 -37l-13 59q49 5 73.5 13t25.5 24q1 12 -16.5 21.5t-52.5 17.5z" />
    <glyph glyph-name="onesuperior" unicode="&#xb9;" horiz-adv-x="234" 
d="M180 390h-96l16 221l-59 -22l-16 73q46 15 121 34h56z" />
    <glyph glyph-name="ordmasculine" unicode="&#xba;" horiz-adv-x="316" 
d="M288 480q0 -62 -39.5 -100.5t-110.5 -38.5q-50 0 -80.5 25.5t-30.5 78.5q0 62 40 100.5t110 38.5q111 0 111 -104zM157 388q37 0 37 92q0 26 -10 41t-26 15q-37 0 -37 -91q0 -57 36 -57z" />
    <glyph glyph-name="guillemotright" unicode="&#xbb;" horiz-adv-x="535" 
d="M354 455l165 -223l-196 -223l-85 41l118 182l-94 178zM147 455l165 -223l-196 -223l-85 41l118 182l-94 178z" />
    <glyph glyph-name="questiondown" unicode="&#xbf;" horiz-adv-x="398" 
d="M306 408q-1 -23 -35 -54t-56 -31q-19 0 -49.5 28.5t-29.5 51.5t36.5 53.5t54.5 30.5q22 0 51 -28.5t28 -50.5zM136 255l135 32q32 -49 32 -77q-2 -29 -17.5 -48.5t-58.5 -53.5q-47 -38 -65.5 -62.5t-19.5 -60.5q-2 -22 18 -42.5t48 -20.5t50 9t72 37l40 -104
q-112 -57 -199 -57t-141.5 46.5t-48.5 119.5q1 29 22 60t40.5 48.5t51.5 41.5q60 44 61 70q0 13 -20 62z" />
    <glyph glyph-name="Agrave" unicode="&#xc0;" horiz-adv-x="562" 
d="M420 653h-125l-147 138l153 27zM336 233l-46 237l-86 -237h132zM381 0l-22 116h-197l-42 -116h-152l242 612h204l124 -612h-157z" />
    <glyph glyph-name="Aacute" unicode="&#xc1;" horiz-adv-x="562" 
d="M210 653l139 165l152 -27l-166 -138h-125zM336 233l-46 237l-86 -237h132zM381 0l-22 116h-197l-42 -116h-152l242 612h204l124 -612h-157z" />
    <glyph glyph-name="Acircumflex" unicode="&#xc2;" horiz-adv-x="562" 
d="M390 653l-71 66l-79 -66h-109l126 165h136l108 -165h-111zM336 233l-46 237l-86 -237h132zM381 0l-22 116h-197l-42 -116h-152l242 612h204l124 -612h-157z" />
    <glyph glyph-name="Atilde" unicode="&#xc3;" horiz-adv-x="562" 
d="M446 810l49 -53q-15 -31 -58.5 -66.5t-73.5 -35.5q-19 0 -67.5 16.5t-60.5 16.5q-17 0 -40 -17t-28 -25l-42 62q2 4 22.5 25t50.5 43t49 22q23 0 67.5 -16.5t57.5 -16.5q31 0 74 45zM336 233l-46 237l-86 -237h132zM381 0l-22 116h-197l-42 -116h-152l242 612h204
l124 -612h-157z" />
    <glyph glyph-name="Adieresis" unicode="&#xc4;" horiz-adv-x="562" 
d="M335 730q1 21 31 51.5t52 30.5t51.5 -25t28.5 -48q-1 -21 -32.5 -51t-51.5 -30q-22 0 -51 25t-28 47zM139 730q1 21 31 51.5t52 30.5t51.5 -25t28.5 -48q-1 -21 -32 -51t-51 -30q-23 0 -52 25t-28 47zM336 233l-46 237l-86 -237h132zM381 0l-22 116h-197l-42 -116h-152
l242 612h204l124 -612h-157z" />
    <glyph glyph-name="Aring" unicode="&#xc5;" horiz-adv-x="562" 
d="M429 755q-3 -42 -37 -72.5t-78 -30.5q-45 0 -73 28t-25 75q3 42 37 72.5t78 30.5q46 0 73.5 -27t24.5 -76zM280 755q-1 -18 10 -30t29 -12t31.5 12t14.5 30q1 19 -10.5 31t-29.5 12t-31 -12t-14 -31zM336 233l-46 237l-86 -237h132zM381 0l-22 116h-197l-42 -116h-152
l242 612h204l124 -612h-157z" />
    <glyph glyph-name="AE" unicode="&#xc6;" horiz-adv-x="786" 
d="M354 492l-121 -249h116l18 249h-13zM332 0l9 126h-165l-61 -126h-147l314 612h482l-27 -117l-213 3l-9 -128h209l-28 -117l-189 6l-10 -140l246 3l-26 -122h-385z" />
    <glyph glyph-name="Ccedilla" unicode="&#xc7;" horiz-adv-x="491" 
d="M381 -128q-3 -40 -50 -73t-135 -37l-13 59q49 5 73.5 13t25.5 24q1 12 -16.5 21.5t-52.5 17.5l-2 5l46 84q-109 6 -174.5 81.5t-65.5 202.5q0 70 20.5 133t60.5 114.5t105 81.5t147 30q77 0 142 -26l-35 -124q-82 25 -135 25q-70 0 -106.5 -58t-36.5 -166
q0 -84 43 -128.5t99 -44.5q60 0 118 21l19 -106q-68 -30 -139 -35l-18 -38q40 -14 61 -32t19 -45z" />
    <glyph glyph-name="Egrave" unicode="&#xc8;" horiz-adv-x="496" 
d="M411 653h-125l-147 138l153 27zM42 0l43 612h389l-27 -117l-213 3l-9 -128h209l-27 -117l-190 6l-10 -140l247 3l-27 -122h-385z" />
    <glyph glyph-name="Eacute" unicode="&#xc9;" horiz-adv-x="496" 
d="M168 653l139 165l152 -27l-166 -138h-125zM42 0l43 612h389l-27 -117l-213 3l-9 -128h209l-27 -117l-190 6l-10 -140l247 3l-27 -122h-385z" />
    <glyph glyph-name="Ecircumflex" unicode="&#xca;" horiz-adv-x="496" 
d="M361 653l-71 66l-79 -66h-109l126 165h136l108 -165h-111zM42 0l43 612h389l-27 -117l-213 3l-9 -128h209l-27 -117l-190 6l-10 -140l247 3l-27 -122h-385z" />
    <glyph glyph-name="Edieresis" unicode="&#xcb;" horiz-adv-x="496" 
d="M310 730q1 21 31.5 51.5t51.5 30.5q22 0 51.5 -25t28.5 -48q-1 -21 -32.5 -51t-51.5 -30q-22 0 -51 25t-28 47zM114 730q1 21 31.5 51.5t51.5 30.5q22 0 51.5 -25t28.5 -48q-1 -21 -32 -51t-51 -30q-23 0 -52 25t-28 47zM42 0l43 612h389l-27 -117l-213 3l-9 -128h209
l-27 -117l-190 6l-10 -140l247 3l-27 -122h-385z" />
    <glyph glyph-name="Igrave" unicode="&#xcc;" horiz-adv-x="283" 
d="M260 653h-125l-147 138l153 27zM242 612l-43 -612h-157l43 612h157z" />
    <glyph glyph-name="Iacute" unicode="&#xcd;" horiz-adv-x="283" 
d="M77 653l139 165l152 -27l-166 -138h-125zM242 612l-43 -612h-157l43 612h157z" />
    <glyph glyph-name="Icircumflex" unicode="&#xce;" horiz-adv-x="283" 
d="M251 653l-71 66l-79 -66h-109l126 165h136l108 -165h-111zM242 612l-43 -612h-157l43 612h157z" />
    <glyph glyph-name="Idieresis" unicode="&#xcf;" horiz-adv-x="283" 
d="M187 730q1 21 31 51.5t52 30.5t51 -25t28 -48q-1 -21 -32 -51t-51 -30q-22 0 -51 25t-28 47zM-12 730q1 21 31.5 51.5t51.5 30.5q22 0 51 -25t28 -48q-1 -21 -32 -51t-51 -30q-22 0 -51 25t-28 47zM242 612l-43 -612h-157l43 612h157z" />
    <glyph glyph-name="Eth" unicode="&#xd0;" horiz-adv-x="601" 
d="M235 0h-199l18 256h-58v22l23 87h43l17 247h224q125 0 199.5 -70.5t75.5 -198.5q-2 -151 -97 -247t-246 -96zM201 119h37q77 0 126.5 49t49.5 150q0 89 -40.5 132t-105.5 43h-39l-10 -128h123v-22l-23 -87h-108z" />
    <glyph glyph-name="Ntilde" unicode="&#xd1;" horiz-adv-x="629" 
d="M493 810l49 -53q-15 -31 -58.5 -66.5t-73.5 -35.5q-19 0 -67.5 16.5t-60.5 16.5q-17 0 -40 -17t-28 -25l-42 62q2 4 22.5 25t50.5 43t49 22q23 0 67.5 -16.5t57.5 -16.5q31 0 74 45zM405 0l-194 366l-25 -366h-144l44 612h154l182 -364l21 364h144l-42 -612h-140z" />
    <glyph glyph-name="Ograve" unicode="&#xd2;" horiz-adv-x="614" 
d="M466 653h-125l-147 138l153 27zM590 354q0 -170 -91 -270.5t-227 -100.5q-119 0 -187 75t-68 200q0 170 91 270.5t227 100.5q119 0 187 -75t68 -200zM302 104q126 0 126 235q0 79 -34.5 124t-91.5 45q-123 0 -123 -235q0 -82 33.5 -125.5t89.5 -43.5z" />
    <glyph glyph-name="Oacute" unicode="&#xd3;" horiz-adv-x="614" 
d="M206 653l139 165l152 -27l-166 -138h-125zM590 354q0 -170 -91 -270.5t-227 -100.5q-119 0 -187 75t-68 200q0 170 91 270.5t227 100.5q119 0 187 -75t68 -200zM302 104q126 0 126 235q0 79 -34.5 124t-91.5 45q-123 0 -123 -235q0 -82 33.5 -125.5t89.5 -43.5z" />
    <glyph glyph-name="Ocircumflex" unicode="&#xd4;" horiz-adv-x="614" 
d="M407 653l-71 66l-79 -66h-109l126 165h136l108 -165h-111zM590 354q0 -170 -91 -270.5t-227 -100.5q-119 0 -187 75t-68 200q0 170 91 270.5t227 100.5q119 0 187 -75t68 -200zM302 104q126 0 126 235q0 79 -34.5 124t-91.5 45q-123 0 -123 -235q0 -82 33.5 -125.5
t89.5 -43.5z" />
    <glyph glyph-name="Otilde" unicode="&#xd5;" horiz-adv-x="614" 
d="M460 810l49 -53q-15 -31 -58.5 -66.5t-73.5 -35.5q-19 0 -67.5 16.5t-60.5 16.5q-17 0 -40 -17t-28 -25l-42 62q2 4 22.5 25t50.5 43t49 22q23 0 67.5 -16.5t57.5 -16.5q31 0 74 45zM590 354q0 -170 -91 -270.5t-227 -100.5q-119 0 -187 75t-68 200q0 170 91 270.5
t227 100.5q119 0 187 -75t68 -200zM302 104q126 0 126 235q0 79 -34.5 124t-91.5 45q-123 0 -123 -235q0 -82 33.5 -125.5t89.5 -43.5z" />
    <glyph glyph-name="Odieresis" unicode="&#xd6;" horiz-adv-x="614" 
d="M346 730q1 21 31.5 51.5t51.5 30.5q22 0 51.5 -25t28.5 -48q-1 -21 -32.5 -51t-51.5 -30q-22 0 -51 25t-28 47zM150 730q1 21 31.5 51.5t51.5 30.5q22 0 51.5 -25t28.5 -48q-1 -21 -32 -51t-51 -30q-23 0 -52 25t-28 47zM590 354q0 -170 -91 -270.5t-227 -100.5
q-119 0 -187 75t-68 200q0 170 91 270.5t227 100.5q119 0 187 -75t68 -200zM302 104q126 0 126 235q0 79 -34.5 124t-91.5 45q-123 0 -123 -235q0 -82 33.5 -125.5t89.5 -43.5z" />
    <glyph glyph-name="multiply" unicode="&#xd7;" horiz-adv-x="520" 
d="M361 87l-105 113l-121 -113l-60 67l119 112l-105 112l71 66l105 -112l119 112l62 -66l-120 -112l105 -112z" />
    <glyph glyph-name="Oslash" unicode="&#xd8;" horiz-adv-x="607" 
d="M179 273q0 -59 18 -98l139 328q-17 5 -34 5q-123 0 -123 -235zM302 104q126 0 126 235q0 57 -19 98l-140 -329q15 -4 33 -4zM272 -17q-26 0 -54 5l-30 -71h-101l44 103q-55 34 -84.5 95.5t-29.5 142.5q0 170 91 270.5t227 100.5q30 0 53 -4l29 68h101l-43 -100
q115 -70 115 -239q0 -170 -91 -270.5t-227 -100.5z" />
    <glyph glyph-name="Ugrave" unicode="&#xd9;" horiz-adv-x="631" 
d="M457 653h-125l-147 138l153 27zM84 612h157q-29 -382 -29 -407q0 -54 29 -78.5t72 -24.5q86 0 92 110l29 400h151l-27 -382q-8 -117 -78 -182t-197 -65q-106 0 -166.5 50.5t-60.5 144.5q0 49 28 434z" />
    <glyph glyph-name="Uacute" unicode="&#xda;" horiz-adv-x="631" 
d="M210 653l139 165l152 -27l-166 -138h-125zM84 612h157q-29 -382 -29 -407q0 -54 29 -78.5t72 -24.5q86 0 92 110l29 400h151l-27 -382q-8 -117 -78 -182t-197 -65q-106 0 -166.5 50.5t-60.5 144.5q0 49 28 434z" />
    <glyph glyph-name="Ucircumflex" unicode="&#xdb;" horiz-adv-x="631" 
d="M425 653l-71 66l-79 -66h-109l126 165h136l108 -165h-111zM84 612h157q-29 -382 -29 -407q0 -54 29 -78.5t72 -24.5q86 0 92 110l29 400h151l-27 -382q-8 -117 -78 -182t-197 -65q-106 0 -166.5 50.5t-60.5 144.5q0 49 28 434z" />
    <glyph glyph-name="Udieresis" unicode="&#xdc;" horiz-adv-x="631" 
d="M381 730q1 21 31 51.5t52 30.5t51.5 -25t28.5 -48q-1 -21 -32.5 -51t-51.5 -30q-22 0 -51 25t-28 47zM185 730q1 21 31 51.5t52 30.5t51.5 -25t28.5 -48q-1 -21 -32 -51t-51 -30q-23 0 -52 25t-28 47zM84 612h157q-29 -382 -29 -407q0 -54 29 -78.5t72 -24.5q86 0 92 110
l29 400h151l-27 -382q-8 -117 -78 -182t-197 -65q-106 0 -166.5 50.5t-60.5 144.5q0 49 28 434z" />
    <glyph glyph-name="Yacute" unicode="&#xdd;" horiz-adv-x="531" 
d="M192 653l139 165l152 -27l-166 -138h-125zM337 225l-16 -225h-157l16 225h-2l-162 387h167l97 -231l119 231h158z" />
    <glyph glyph-name="Thorn" unicode="&#xde;" horiz-adv-x="530" 
d="M266 407h-40l-13 -193h49q50 0 75 26.5t25 64.5q0 46 -25.5 74t-70.5 28zM254 100h-48l-7 -100h-157l41 612h157l-7 -100h60q112 0 170.5 -48.5t58.5 -134.5q0 -99 -73 -164t-195 -65z" />
    <glyph glyph-name="germandbls" unicode="&#xdf;" horiz-adv-x="514" 
d="M316 -17q-59 0 -108 17l26 118q37 -25 81 -25q40 0 43 31q3 32 -49 75q-47 40 -62 65.5t-15 61.5q0 27 16 55t35 47.5t35 44t16 44.5q0 37 -21 55t-47 17q-51 2 -56 -89l-24 -506q-3 -54 -21 -97t-42.5 -67.5t-55.5 -40.5t-57 -21.5t-50 -5.5q-55 0 -75 13l29 114
q28 -15 55 -15q32 0 48 23t19 84l24 498q4 106 72 167.5t161 61.5q76 0 126.5 -40.5t50.5 -103.5q0 -33 -16.5 -62t-36.5 -46.5t-36.5 -38.5t-16.5 -40q0 -21 9.5 -36t45.5 -47q50 -44 70 -74.5t19 -71.5q0 -76 -59 -120.5t-133 -44.5z" />
    <glyph glyph-name="agrave" unicode="&#xe0;" 
d="M481 503h-125l-147 138l153 27zM305 -17l-7 85q-77 -85 -151 -85q-58 0 -94 45t-36 136q0 130 76 216.5t191 86.5q116 0 183 -36l-30 -431zM217 90q17 0 33.5 13.5t34 57.5t23.5 114l7 79q-19 12 -44 12q-46 0 -71.5 -41t-25.5 -152q0 -83 43 -83z" />
    <glyph glyph-name="aacute" unicode="&#xe1;" 
d="M211 503l139 165l152 -27l-166 -138h-125zM305 -17l-7 85q-77 -85 -151 -85q-58 0 -94 45t-36 136q0 130 76 216.5t191 86.5q116 0 183 -36l-30 -431zM217 90q17 0 33.5 13.5t34 57.5t23.5 114l7 79q-19 12 -44 12q-46 0 -71.5 -41t-25.5 -152q0 -83 43 -83z" />
    <glyph glyph-name="acircumflex" unicode="&#xe2;" 
d="M383 503l-71 66l-79 -66h-109l126 165h136l108 -165h-111zM305 -17l-7 85q-77 -85 -151 -85q-58 0 -94 45t-36 136q0 130 76 216.5t191 86.5q116 0 183 -36l-30 -431zM217 90q17 0 33.5 13.5t34 57.5t23.5 114l7 79q-19 12 -44 12q-46 0 -71.5 -41t-25.5 -152
q0 -83 43 -83z" />
    <glyph glyph-name="atilde" unicode="&#xe3;" 
d="M449 660l49 -53q-15 -31 -58.5 -66.5t-73.5 -35.5q-19 0 -67.5 16.5t-60.5 16.5q-17 0 -40 -17t-28 -25l-42 62q2 4 22.5 25t50.5 43t49 22q23 0 67.5 -16.5t57.5 -16.5q31 0 74 45zM305 -17l-7 85q-77 -85 -151 -85q-58 0 -94 45t-36 136q0 130 76 216.5t191 86.5
q116 0 183 -36l-30 -431zM217 90q17 0 33.5 13.5t34 57.5t23.5 114l7 79q-19 12 -44 12q-46 0 -71.5 -41t-25.5 -152q0 -83 43 -83z" />
    <glyph glyph-name="adieresis" unicode="&#xe4;" 
d="M328 580q1 21 31.5 51.5t51.5 30.5q22 0 51.5 -25t28.5 -48q-1 -21 -32.5 -51t-51.5 -30q-22 0 -51 25t-28 47zM132 580q1 21 31.5 51.5t51.5 30.5q22 0 51.5 -25t28.5 -48q-1 -21 -32 -51t-51 -30q-23 0 -52 25t-28 47zM305 -17l-7 85q-77 -85 -151 -85q-58 0 -94 45
t-36 136q0 130 76 216.5t191 86.5q116 0 183 -36l-30 -431zM217 90q17 0 33.5 13.5t34 57.5t23.5 114l7 79q-19 12 -44 12q-46 0 -71.5 -41t-25.5 -152q0 -83 43 -83z" />
    <glyph glyph-name="aring" unicode="&#xe5;" 
d="M411 595q-3 -42 -37 -72.5t-78 -30.5q-45 0 -73 28t-25 75q3 42 37 72.5t78 30.5q46 0 73.5 -27t24.5 -76zM262 595q-1 -18 10 -30t29 -12t31.5 12t14.5 30q1 19 -10.5 31t-29.5 12t-31 -12t-14 -31zM305 -17l-7 85q-77 -85 -151 -85q-58 0 -94 45t-36 136
q0 130 76 216.5t191 86.5q116 0 183 -36l-30 -431zM217 90q17 0 33.5 13.5t34 57.5t23.5 114l7 79q-19 12 -44 12q-46 0 -71.5 -41t-25.5 -152q0 -83 43 -83z" />
    <glyph glyph-name="ae" unicode="&#xe6;" horiz-adv-x="678" 
d="M463 -17q-119 0 -159 98q-68 -96 -149 -96q-73 0 -105.5 47.5t-32.5 139.5q0 75 26.5 135t67 93t82 50t77.5 17q84 0 156 -23q46 23 98 23q66 0 103.5 -33.5t37.5 -85.5q0 -67 -63.5 -113.5t-160.5 -58.5q4 -50 22 -67.5t46 -17.5q45 0 110 49l34 -84q-91 -73 -190 -73z
M498 373q-54 0 -59 -121q43 8 67 28.5t24 52.5q0 40 -32 40zM221 90q49 0 67 106q4 92 42 158q-31 9 -71 9q-37 0 -61 -42t-24 -126q0 -61 11.5 -83t35.5 -22z" />
    <glyph glyph-name="ccedilla" unicode="&#xe7;" horiz-adv-x="385" 
d="M287 -128q-3 -40 -50 -73t-135 -37l-13 59q49 5 73.5 13t25.5 24q1 12 -16.5 21.5t-52.5 17.5l-2 5l45 82q-63 7 -102.5 54t-39.5 143q0 135 66.5 210.5t166.5 75.5q33 0 72.5 -11t59.5 -26l-48 -107q-5 8 -36 23.5t-54 15.5q-28 0 -49.5 -41.5t-21.5 -126.5
q0 -51 17.5 -74.5t40.5 -23.5q41 0 92 39l34 -89q-64 -47 -135 -60l-18 -37q40 -14 61 -32t19 -45z" />
    <glyph glyph-name="egrave" unicode="&#xe8;" horiz-adv-x="413" 
d="M358 503h-125l-147 138l153 27zM198 -17q-81 0 -128 49t-47 145q0 75 21.5 133.5t57 91t75 49t81.5 16.5q66 0 104 -33.5t38 -85.5q0 -67 -64.5 -114t-160.5 -58q4 -50 22 -67.5t46 -17.5q45 0 111 49l34 -84q-93 -73 -190 -73zM233 373q-55 0 -60 -121q43 8 67 28.5
t24 52.5q0 40 -31 40z" />
    <glyph glyph-name="eacute" unicode="&#xe9;" horiz-adv-x="413" 
d="M155 503l139 165l152 -27l-166 -138h-125zM198 -17q-81 0 -128 49t-47 145q0 75 21.5 133.5t57 91t75 49t81.5 16.5q66 0 104 -33.5t38 -85.5q0 -67 -64.5 -114t-160.5 -58q4 -50 22 -67.5t46 -17.5q45 0 111 49l34 -84q-93 -73 -190 -73zM233 373q-55 0 -60 -121
q43 8 67 28.5t24 52.5q0 40 -31 40z" />
    <glyph glyph-name="ecircumflex" unicode="&#xea;" horiz-adv-x="413" 
d="M322 503l-71 66l-79 -66h-109l126 165h136l108 -165h-111zM198 -17q-81 0 -128 49t-47 145q0 75 21.5 133.5t57 91t75 49t81.5 16.5q66 0 104 -33.5t38 -85.5q0 -67 -64.5 -114t-160.5 -58q4 -50 22 -67.5t46 -17.5q45 0 111 49l34 -84q-93 -73 -190 -73zM233 373
q-55 0 -60 -121q43 8 67 28.5t24 52.5q0 40 -31 40z" />
    <glyph glyph-name="edieresis" unicode="&#xeb;" horiz-adv-x="413" 
d="M276 580q1 21 31.5 51.5t51.5 30.5q22 0 51.5 -25t28.5 -48q-1 -21 -32.5 -51t-51.5 -30q-22 0 -51 25t-28 47zM80 580q1 21 31.5 51.5t51.5 30.5q22 0 51.5 -25t28.5 -48q-1 -21 -32 -51t-51 -30q-23 0 -52 25t-28 47zM198 -17q-81 0 -128 49t-47 145q0 75 21.5 133.5
t57 91t75 49t81.5 16.5q66 0 104 -33.5t38 -85.5q0 -67 -64.5 -114t-160.5 -58q4 -50 22 -67.5t46 -17.5q45 0 111 49l34 -84q-93 -73 -190 -73zM233 373q-55 0 -60 -121q43 8 67 28.5t24 52.5q0 40 -31 40z" />
    <glyph glyph-name="igrave" unicode="&#xec;" horiz-adv-x="243" 
d="M232 502h-125l-147 138l153 27zM212 467l-33 -467h-147l32 446z" />
    <glyph glyph-name="iacute" unicode="&#xed;" horiz-adv-x="243" 
d="M65 502l139 165l152 -27l-166 -138h-125zM212 467l-33 -467h-147l32 446z" />
    <glyph glyph-name="icircumflex" unicode="&#xee;" horiz-adv-x="243" 
d="M225 502l-71 66l-79 -66h-109l126 165h136l108 -165h-111zM212 467l-33 -467h-147l32 446z" />
    <glyph glyph-name="idieresis" unicode="&#xef;" horiz-adv-x="243" 
d="M170 580q1 21 31.5 51.5t51.5 30.5q22 0 51.5 -25t28.5 -48q-1 -21 -32 -51t-51 -30q-23 0 -52 25t-28 47zM-25 580q1 21 31 51.5t52 30.5t51 -25t28 -48q-1 -21 -32 -51t-51 -30q-22 0 -51 25t-28 47zM212 467l-33 -467h-147l32 446z" />
    <glyph glyph-name="eth" unicode="&#xf0;" horiz-adv-x="472" 
d="M169 -17q-64 0 -107.5 47.5t-43.5 133.5q0 69 22.5 128t58.5 96t79 58t85 21q9 0 15 -1q-19 46 -50 81l-102 -61l-51 57l94 57q-43 29 -89 49l57 63q73 -20 131 -53l97 58l50 -57l-81 -49q121 -106 121 -280q0 -153 -89.5 -250.5t-196.5 -97.5zM219 92q30 1 57 59.5
t27 153.5q0 21 -2 57q-17 5 -47 5q-38 0 -60.5 -46.5t-22.5 -143.5q0 -48 12 -66t36 -19z" />
    <glyph glyph-name="ntilde" unicode="&#xf1;" horiz-adv-x="500" 
d="M432 660l49 -53q-15 -31 -58.5 -66.5t-73.5 -35.5q-19 0 -67.5 16.5t-60.5 16.5q-17 0 -40 -17t-28 -25l-42 62q2 4 22.5 25t50.5 43t49 22q23 0 67.5 -16.5t57.5 -16.5q31 0 74 45zM282 349q-11 0 -22.5 -6.5t-26 -23t-26 -54t-16.5 -90.5l-12 -175h-149l31 446l136 21
l6 -100q70 100 151 100q114 0 114 -128q0 -46 -17.5 -186t-18.5 -153h-149q32 256 32 293q0 56 -33 56z" />
    <glyph glyph-name="ograve" unicode="&#xf2;" horiz-adv-x="461" 
d="M377 503h-125l-147 138l153 27zM442 261q0 -71 -25.5 -132.5t-82 -103.5t-134.5 -42q-79 0 -130 50.5t-51 155.5q0 70 26 132t82.5 104t133.5 42q84 0 132.5 -50t48.5 -156zM231 77q59 0 59 189q0 56 -13.5 81.5t-46.5 25.5q-59 0 -59 -189q0 -60 13 -83.5t47 -23.5z" />
    <glyph glyph-name="oacute" unicode="&#xf3;" horiz-adv-x="461" 
d="M150 503l139 165l152 -27l-166 -138h-125zM442 261q0 -71 -25.5 -132.5t-82 -103.5t-134.5 -42q-79 0 -130 50.5t-51 155.5q0 70 26 132t82.5 104t133.5 42q84 0 132.5 -50t48.5 -156zM231 77q59 0 59 189q0 56 -13.5 81.5t-46.5 25.5q-59 0 -59 -189q0 -60 13 -83.5
t47 -23.5z" />
    <glyph glyph-name="ocircumflex" unicode="&#xf4;" horiz-adv-x="461" 
d="M335 503l-71 66l-79 -66h-109l126 165h136l108 -165h-111zM442 261q0 -71 -25.5 -132.5t-82 -103.5t-134.5 -42q-79 0 -130 50.5t-51 155.5q0 70 26 132t82.5 104t133.5 42q84 0 132.5 -50t48.5 -156zM231 77q59 0 59 189q0 56 -13.5 81.5t-46.5 25.5q-59 0 -59 -189
q0 -60 13 -83.5t47 -23.5z" />
    <glyph glyph-name="otilde" unicode="&#xf5;" horiz-adv-x="461" 
d="M381 660l49 -53q-15 -31 -58.5 -66.5t-73.5 -35.5q-19 0 -67.5 16.5t-60.5 16.5q-17 0 -40 -17t-28 -25l-42 62q2 4 22.5 25t50.5 43t49 22q23 0 67.5 -16.5t57.5 -16.5q31 0 74 45zM442 261q0 -71 -25.5 -132.5t-82 -103.5t-134.5 -42q-79 0 -130 50.5t-51 155.5
q0 70 26 132t82.5 104t133.5 42q84 0 132.5 -50t48.5 -156zM231 77q59 0 59 189q0 56 -13.5 81.5t-46.5 25.5q-59 0 -59 -189q0 -60 13 -83.5t47 -23.5z" />
    <glyph glyph-name="odieresis" unicode="&#xf6;" horiz-adv-x="461" 
d="M272 580q1 21 31.5 51.5t51.5 30.5q22 0 51.5 -25t28.5 -48q-1 -21 -32.5 -51t-51.5 -30q-22 0 -51 25t-28 47zM76 580q1 21 31.5 51.5t51.5 30.5q22 0 51.5 -25t28.5 -48q-1 -21 -32 -51t-51 -30q-23 0 -52 25t-28 47zM442 261q0 -71 -25.5 -132.5t-82 -103.5
t-134.5 -42q-79 0 -130 50.5t-51 155.5q0 70 26 132t82.5 104t133.5 42q84 0 132.5 -50t48.5 -156zM231 77q59 0 59 189q0 56 -13.5 81.5t-46.5 25.5q-59 0 -59 -189q0 -60 13 -83.5t47 -23.5z" />
    <glyph glyph-name="divide" unicode="&#xf7;" horiz-adv-x="520" 
d="M190 429q1 29 28 55.5t54 26.5t55.5 -21.5t27.5 -48.5q-4 -30 -31 -55.5t-54 -25.5q-29 0 -55 20.5t-25 48.5zM476 313l-8 -92h-426l8 92h426zM166 94q2 30 28.5 56t53.5 26q28 0 56 -21t27 -48q-1 -29 -29 -55t-56 -26q-29 0 -55 20t-25 48z" />
    <glyph glyph-name="oslash" unicode="&#xf8;" horiz-adv-x="461" 
d="M160 184q0 -14 1 -20l106 198q-16 11 -37 11q-25 0 -41.5 -34t-22.5 -74.5t-6 -80.5zM231 77q36 0 53 60t17 129q0 12 -1 17l-106 -197q16 -9 37 -9zM200 -17q-32 0 -57 7l-33 -61h-76l50 92q-65 52 -65 168q0 70 26 132t82.5 104t133.5 42q34 0 59 -7l34 63h76l-50 -93
q62 -51 62 -169q0 -71 -25.5 -132.5t-82 -103.5t-134.5 -42z" />
    <glyph glyph-name="ugrave" unicode="&#xf9;" 
d="M424 503h-125l-147 138l153 27zM304 -17l-8 100q-70 -100 -151 -100q-115 0 -115 128q0 46 17 183.5t18 150.5l151 23q-1 -11 -10 -83t-16 -136t-7 -90t10 -42t26 -16q69 0 89 149l14 196l151 21l-33 -467z" />
    <glyph glyph-name="uacute" unicode="&#xfa;" 
d="M180 503l139 165l152 -27l-166 -138h-125zM304 -17l-8 100q-70 -100 -151 -100q-115 0 -115 128q0 46 17 183.5t18 150.5l151 23q-1 -11 -10 -83t-16 -136t-7 -90t10 -42t26 -16q69 0 89 149l14 196l151 21l-33 -467z" />
    <glyph glyph-name="ucircumflex" unicode="&#xfb;" 
d="M347 503l-71 66l-79 -66h-109l126 165h136l108 -165h-111zM304 -17l-8 100q-70 -100 -151 -100q-115 0 -115 128q0 46 17 183.5t18 150.5l151 23q-1 -11 -10 -83t-16 -136t-7 -90t10 -42t26 -16q69 0 89 149l14 196l151 21l-33 -467z" />
    <glyph glyph-name="udieresis" unicode="&#xfc;" 
d="M299 580q1 21 31 51.5t52 30.5t51.5 -25t28.5 -48q-1 -21 -32.5 -51t-51.5 -30q-22 0 -51 25t-28 47zM103 580q1 21 31 51.5t52 30.5t51.5 -25t28.5 -48q-1 -21 -32 -51t-51 -30q-23 0 -52 25t-28 47zM304 -17l-8 100q-70 -100 -151 -100q-115 0 -115 128q0 46 17 183.5
t18 150.5l151 23q-1 -11 -10 -83t-16 -136t-7 -90t10 -42t26 -16q69 0 89 149l14 196l151 21l-33 -467z" />
    <glyph glyph-name="yacute" unicode="&#xfd;" horiz-adv-x="434" 
d="M118 503l139 165l152 -27l-166 -138h-125zM-20 -238q-58 0 -87 12l17 125q24 -7 64 -7q101 0 172 99h-71l-53 456l146 19l39 -359q49 123 91 343h141q-6 -63 -23.5 -142.5t-54.5 -178t-86.5 -178.5t-127 -134.5t-167.5 -54.5z" />
    <glyph glyph-name="thorn" unicode="&#xfe;" horiz-adv-x="497" 
d="M246 87q77 0 77 182q0 93 -43 93q-29 0 -54 -45.5t-33 -125.5l-6 -96q27 -8 59 -8zM167 -218l-149 -20l60 935l149 21l-21 -331q62 80 142 80q131 0 131 -176q0 -77 -25.5 -138.5t-65 -96.5t-82.5 -53t-84 -18q-22 0 -42 4z" />
    <glyph glyph-name="ydieresis" unicode="&#xff;" horiz-adv-x="434" 
d="M258 580q1 21 31.5 51.5t51.5 30.5q22 0 51.5 -25t28.5 -48q-1 -21 -32.5 -51t-51.5 -30q-22 0 -51 25t-28 47zM62 580q1 21 31.5 51.5t51.5 30.5q22 0 51.5 -25t28.5 -48q-1 -21 -32 -51t-51 -30q-23 0 -52 25t-28 47zM-20 -238q-58 0 -87 12l17 125q24 -7 64 -7
q101 0 172 99h-71l-53 456l146 19l39 -359q49 123 91 343h141q-6 -63 -23.5 -142.5t-54.5 -178t-86.5 -178.5t-127 -134.5t-167.5 -54.5z" />
    <glyph glyph-name="Amacron" unicode="&#x100;" horiz-adv-x="562" 
d="M466 780l-1 -15l-33 -88h-265l1 15l33 88h265zM336 233l-46 237l-86 -237h132zM381 0l-22 116h-197l-42 -116h-152l242 612h204l124 -612h-157z" />
    <glyph glyph-name="amacron" unicode="&#x101;" 
d="M459 630l-1 -15l-33 -88h-265l1 15l33 88h265zM305 -17l-7 85q-77 -85 -151 -85q-58 0 -94 45t-36 136q0 130 76 216.5t191 86.5q116 0 183 -36l-30 -431zM217 90q17 0 33.5 13.5t34 57.5t23.5 114l7 79q-19 12 -44 12q-46 0 -71.5 -41t-25.5 -152q0 -83 43 -83z" />
    <glyph glyph-name="Abreve" unicode="&#x102;" horiz-adv-x="562" 
d="M317 748q71 0 89 81h86q-6 -79 -62 -128t-126 -49q-75 0 -116.5 48t-35.5 129h87q5 -81 78 -81zM336 233l-46 237l-86 -237h132zM381 0l-22 116h-197l-42 -116h-152l242 612h204l124 -612h-157z" />
    <glyph glyph-name="abreve" unicode="&#x103;" 
d="M294 598q71 0 89 81h86q-6 -79 -62 -128t-126 -49q-75 0 -116.5 48t-35.5 129h87q5 -81 78 -81zM305 -17l-7 85q-77 -85 -151 -85q-58 0 -94 45t-36 136q0 130 76 216.5t191 86.5q116 0 183 -36l-30 -431zM217 90q17 0 33.5 13.5t34 57.5t23.5 114l7 79q-19 12 -44 12
q-46 0 -71.5 -41t-25.5 -152q0 -83 43 -83z" />
    <glyph glyph-name="Aogonek" unicode="&#x104;" horiz-adv-x="562" 
d="M336 233l-46 237l-86 -237h132zM459 0h-78l-22 116h-197l-42 -116h-152l242 612h204l124 -612h-2q-103 -69 -108 -121q-1 -15 10 -24.5t26 -9.5q28 0 49 11l16 -64q-47 -25 -93 -25q-49 0 -77.5 26t-25.5 70q3 34 36 71t90 66z" />
    <glyph glyph-name="aogonek" unicode="&#x105;" 
d="M337 -233q-49 0 -77.5 26t-25.5 70q3 30 29.5 63t72.5 61l-31 -4l-7 85q-77 -85 -151 -85q-58 0 -94 45t-36 136q0 130 76 216.5t191 86.5q116 0 183 -36l-30 -431q-103 -69 -108 -121q-1 -15 10 -24.5t26 -9.5q28 0 49 11l16 -64q-48 -25 -93 -25zM217 90
q17 0 33.5 13.5t34 57.5t23.5 114l7 79q-19 12 -44 12q-46 0 -71.5 -41t-25.5 -152q0 -83 43 -83z" />
    <glyph glyph-name="Cacute" unicode="&#x106;" horiz-adv-x="491" 
d="M221 653l139 165l152 -27l-166 -138h-125zM439 128l19 -106q-81 -37 -182 -37q-117 0 -188 76t-71 209q0 70 20.5 133t60.5 114.5t105 81.5t147 30q77 0 142 -26l-35 -124q-82 25 -135 25q-70 0 -106.5 -58t-36.5 -166q0 -84 43 -128.5t99 -44.5q60 0 118 21z" />
    <glyph glyph-name="cacute" unicode="&#x107;" horiz-adv-x="385" 
d="M157 503l139 165l152 -27l-166 -138h-125zM326 135l34 -89q-86 -63 -177 -63q-70 0 -116.5 47t-46.5 151q0 135 66.5 210.5t166.5 75.5q33 0 72.5 -11t59.5 -26l-48 -107q-5 8 -36 23.5t-54 15.5q-28 0 -49.5 -41.5t-21.5 -126.5q0 -51 17.5 -74.5t40.5 -23.5q41 0 92 39
z" />
    <glyph glyph-name="Ccircumflex" unicode="&#x108;" horiz-adv-x="491" 
d="M397 653l-71 66l-79 -66h-109l126 165h136l108 -165h-111zM439 128l19 -106q-81 -37 -182 -37q-117 0 -188 76t-71 209q0 70 20.5 133t60.5 114.5t105 81.5t147 30q77 0 142 -26l-35 -124q-82 25 -135 25q-70 0 -106.5 -58t-36.5 -166q0 -84 43 -128.5t99 -44.5
q60 0 118 21z" />
    <glyph glyph-name="ccircumflex" unicode="&#x109;" horiz-adv-x="385" 
d="M327 503l-71 66l-79 -66h-109l126 165h136l108 -165h-111zM326 135l34 -89q-86 -63 -177 -63q-70 0 -116.5 47t-46.5 151q0 135 66.5 210.5t166.5 75.5q33 0 72.5 -11t59.5 -26l-48 -107q-5 8 -36 23.5t-54 15.5q-28 0 -49.5 -41.5t-21.5 -126.5q0 -51 17.5 -74.5
t40.5 -23.5q41 0 92 39z" />
    <glyph glyph-name="Cdotaccent" unicode="&#x10a;" horiz-adv-x="491" 
d="M240 745q2 25 35 58.5t57 33.5t57.5 -28t32.5 -52q-2 -24 -36 -57t-56 -33q-24 0 -57.5 27.5t-32.5 50.5zM439 128l19 -106q-81 -37 -182 -37q-117 0 -188 76t-71 209q0 70 20.5 133t60.5 114.5t105 81.5t147 30q77 0 142 -26l-35 -124q-82 25 -135 25q-70 0 -106.5 -58
t-36.5 -166q0 -84 43 -128.5t99 -44.5q60 0 118 21z" />
    <glyph glyph-name="cdotaccent" unicode="&#x10b;" horiz-adv-x="385" 
d="M177 595q2 25 35 58.5t57 33.5t57.5 -28t32.5 -52q-2 -24 -36 -57t-56 -33q-24 0 -57.5 27.5t-32.5 50.5zM326 135l34 -89q-86 -63 -177 -63q-70 0 -116.5 47t-46.5 151q0 135 66.5 210.5t166.5 75.5q33 0 72.5 -11t59.5 -26l-48 -107q-5 8 -36 23.5t-54 15.5
q-28 0 -49.5 -41.5t-21.5 -126.5q0 -51 17.5 -74.5t40.5 -23.5q41 0 92 39z" />
    <glyph glyph-name="Ccaron" unicode="&#x10c;" horiz-adv-x="491" 
d="M387 658h-137l-107 165h110l71 -67l80 67h108zM439 128l19 -106q-81 -37 -182 -37q-117 0 -188 76t-71 209q0 70 20.5 133t60.5 114.5t105 81.5t147 30q77 0 142 -26l-35 -124q-82 25 -135 25q-70 0 -106.5 -58t-36.5 -166q0 -84 43 -128.5t99 -44.5q60 0 118 21z" />
    <glyph glyph-name="ccaron" unicode="&#x10d;" horiz-adv-x="385" 
d="M313 508h-137l-107 165h110l71 -67l80 67h108zM326 135l34 -89q-86 -63 -177 -63q-70 0 -116.5 47t-46.5 151q0 135 66.5 210.5t166.5 75.5q33 0 72.5 -11t59.5 -26l-48 -107q-5 8 -36 23.5t-54 15.5q-28 0 -49.5 -41.5t-21.5 -126.5q0 -51 17.5 -74.5t40.5 -23.5
q41 0 92 39z" />
    <glyph glyph-name="Dcaron" unicode="&#x10e;" horiz-adv-x="607" 
d="M378 658h-137l-107 165h110l71 -67l80 67h108zM85 612h224q125 0 199.5 -70.5t75.5 -198.5q-2 -151 -97 -247t-246 -96h-199zM235 493l-28 -374h37q77 0 126.5 49t49.5 150q0 89 -40.5 132t-105.5 43h-39z" />
    <glyph glyph-name="dcaron" unicode="&#x10f;" horiz-adv-x="642" 
d="M530 646q1 18 29.5 33.5t51.5 15.5q29 0 40.5 -33t9.5 -72q-4 -61 -106 -190l-59 30q41 69 45 128q1 20 -5 48.5t-6 39.5zM297 -17l-3 84q-65 -82 -145 -82q-131 0 -131 176q0 77 25.5 138.5t65 96.5t82.5 53t84 18q23 0 43 -4l17 235l149 21l-49 -719zM217 90
q28 0 52.5 42t33.5 117l7 108q-29 9 -59 9q-77 0 -77 -183q0 -93 43 -93z" />
    <glyph glyph-name="Dcroat" unicode="&#x110;" horiz-adv-x="600" 
d="M234 0h-199l18 256h-57v22l23 87h42l17 247h224q125 0 199.5 -70.5t75.5 -198.5q-2 -151 -97 -247t-246 -96zM200 119h37q77 0 126.5 49t49.5 150q0 89 -40.5 132t-105.5 43h-39l-10 -128h124v-22l-23 -87h-109z" />
    <glyph glyph-name="dcroat" unicode="&#x111;" horiz-adv-x="494" 
d="M297 -17l-3 84q-65 -82 -145 -82q-131 0 -131 176q0 77 25.5 138.5t65 96.5t82.5 53t84 18q23 0 43 -4l5 76h-102l1 15l30 60h77l6 84l149 21l-7 -105h98v-15l-30 -60h-73l-37 -539zM217 90q28 0 52.5 42t33.5 117l7 108q-29 9 -59 9q-77 0 -77 -183q0 -93 43 -93z" />
    <glyph glyph-name="Emacron" unicode="&#x112;" horiz-adv-x="496" 
d="M436 780l-1 -15l-33 -88h-265l1 15l33 88h265zM42 0l43 612h389l-27 -117l-213 3l-9 -128h209l-27 -117l-190 6l-10 -140l247 3l-27 -122h-385z" />
    <glyph glyph-name="emacron" unicode="&#x113;" horiz-adv-x="413" 
d="M404 630l-1 -15l-33 -88h-265l1 15l33 88h265zM198 -17q-81 0 -128 49t-47 145q0 75 21.5 133.5t57 91t75 49t81.5 16.5q66 0 104 -33.5t38 -85.5q0 -67 -64.5 -114t-160.5 -58q4 -50 22 -67.5t46 -17.5q45 0 111 49l34 -84q-93 -73 -190 -73zM233 373q-55 0 -60 -121
q43 8 67 28.5t24 52.5q0 40 -31 40z" />
    <glyph glyph-name="Ebreve" unicode="&#x114;" horiz-adv-x="496" 
d="M291 748q71 0 89 81h86q-6 -79 -62 -128t-126 -49q-75 0 -116.5 48t-35.5 129h87q5 -81 78 -81zM42 0l43 612h389l-27 -117l-213 3l-9 -128h209l-27 -117l-190 6l-10 -140l247 3l-27 -122h-385z" />
    <glyph glyph-name="ebreve" unicode="&#x115;" horiz-adv-x="413" 
d="M258 598q71 0 89 81h86q-6 -79 -62 -128t-126 -49q-75 0 -116.5 48t-35.5 129h87q5 -81 78 -81zM198 -17q-81 0 -128 49t-47 145q0 75 21.5 133.5t57 91t75 49t81.5 16.5q66 0 104 -33.5t38 -85.5q0 -67 -64.5 -114t-160.5 -58q4 -50 22 -67.5t46 -17.5q45 0 111 49
l34 -84q-93 -73 -190 -73zM233 373q-55 0 -60 -121q43 8 67 28.5t24 52.5q0 40 -31 40z" />
    <glyph glyph-name="Edotaccent" unicode="&#x116;" horiz-adv-x="496" 
d="M205 745q2 25 35 58.5t57 33.5t57.5 -28t32.5 -52q-2 -24 -36 -57t-56 -33q-24 0 -57.5 27.5t-32.5 50.5zM42 0l43 612h389l-27 -117l-213 3l-9 -128h209l-27 -117l-190 6l-10 -140l247 3l-27 -122h-385z" />
    <glyph glyph-name="edotaccent" unicode="&#x117;" horiz-adv-x="413" 
d="M151 595q2 25 35 58.5t57 33.5t57.5 -28t32.5 -52q-2 -24 -36 -57t-56 -33q-24 0 -57.5 27.5t-32.5 50.5zM198 -17q-81 0 -128 49t-47 145q0 75 21.5 133.5t57 91t75 49t81.5 16.5q66 0 104 -33.5t38 -85.5q0 -67 -64.5 -114t-160.5 -58q4 -50 22 -67.5t46 -17.5
q45 0 111 49l34 -84q-93 -73 -190 -73zM233 373q-55 0 -60 -121q43 8 67 28.5t24 52.5q0 40 -31 40z" />
    <glyph glyph-name="Eogonek" unicode="&#x118;" horiz-adv-x="496" 
d="M42 0l43 612h389l-27 -117l-213 3l-9 -128h209l-27 -117l-190 6l-10 -140l247 3l-27 -122h-385zM224 -137q3 34 36 71t90 66h77q-103 -69 -108 -121q-1 -15 10 -24.5t26 -9.5q28 0 49 11l16 -64q-47 -25 -93 -25q-49 0 -77.5 26t-25.5 70z" />
    <glyph glyph-name="eogonek" unicode="&#x119;" horiz-adv-x="413" 
d="M241 -210q-49 0 -77.5 26t-25.5 70q5 49 63 97h-3q-81 0 -128 49t-47 145q0 75 21.5 133.5t57 91t75 49t81.5 16.5q66 0 104 -33.5t38 -85.5q0 -67 -64.5 -114t-160.5 -58q4 -50 22 -67.5t46 -17.5q45 0 111 49l34 -84q-25 -20 -49 -33h2q-103 -69 -108 -121
q-1 -15 10 -24.5t26 -9.5q28 0 49 11l16 -64q-48 -25 -93 -25zM233 373q-55 0 -60 -121q43 8 67 28.5t24 52.5q0 40 -31 40z" />
    <glyph glyph-name="Ecaron" unicode="&#x11a;" horiz-adv-x="496" 
d="M351 658h-137l-107 165h110l71 -67l80 67h108zM42 0l43 612h389l-27 -117l-213 3l-9 -128h209l-27 -117l-190 6l-10 -140l247 3l-27 -122h-385z" />
    <glyph glyph-name="ecaron" unicode="&#x11b;" horiz-adv-x="413" 
d="M319 508h-137l-107 165h110l71 -67l80 67h108zM198 -17q-81 0 -128 49t-47 145q0 75 21.5 133.5t57 91t75 49t81.5 16.5q66 0 104 -33.5t38 -85.5q0 -67 -64.5 -114t-160.5 -58q4 -50 22 -67.5t46 -17.5q45 0 111 49l34 -84q-93 -73 -190 -73zM233 373q-55 0 -60 -121
q43 8 67 28.5t24 52.5q0 40 -31 40z" />
    <glyph glyph-name="Gcircumflex" unicode="&#x11c;" horiz-adv-x="569" 
d="M427 653l-71 66l-79 -66h-109l126 165h136l108 -165h-111zM500 27q-40 -19 -99 -31.5t-111 -12.5q-129 0 -201 73.5t-72 214.5q0 51 12.5 101t39.5 97t65 83t93.5 57.5t120.5 21.5q55 0 110.5 -10t82.5 -27l-33 -129q-94 39 -183 39q-148 0 -148 -229q0 -86 41.5 -128.5
t102.5 -42.5q27 0 48 3l13 197h137z" />
    <glyph glyph-name="gcircumflex" unicode="&#x11d;" horiz-adv-x="403" 
d="M213 244q19 0 30.5 17t11.5 43q0 76 -51 76q-45 0 -45 -61q0 -75 54 -75zM393 -29q0 -78 -79 -141.5t-181 -63.5q-86 0 -130.5 30.5t-44.5 78.5q0 40 25 72.5t91 67.5l1 1q-40 26 -38 68q-1 18 15.5 42t45.5 45q-75 29 -75 126q0 76 61 123t147 47q37 0 62 -7l29 43h-26
l-71 66l-79 -66h-109l126 165h136l66 -102l7 10l77 -76l-11 -25l-80 -50q33 -36 33 -99q0 -71 -57.5 -120t-151.5 -49h-7q-9 -9 -9 -17q0 -16 19 -25t83 -20q71 -12 98 -42.5t27 -81.5zM170 -128q49 0 74.5 15.5t25.5 39.5q0 23 -18.5 32t-85.5 23q-14 2 -33 8
q-47 -33 -47 -66q0 -22 21 -37t63 -15z" />
    <glyph glyph-name="Gbreve" unicode="&#x11e;" horiz-adv-x="569" 
d="M341 748q71 0 89 81h86q-6 -79 -62 -128t-126 -49q-75 0 -116.5 48t-35.5 129h87q5 -81 78 -81zM500 27q-40 -19 -99 -31.5t-111 -12.5q-129 0 -201 73.5t-72 214.5q0 51 12.5 101t39.5 97t65 83t93.5 57.5t120.5 21.5q55 0 110.5 -10t82.5 -27l-33 -129q-94 39 -183 39
q-148 0 -148 -229q0 -86 41.5 -128.5t102.5 -42.5q27 0 48 3l13 197h137z" />
    <glyph glyph-name="gbreve" unicode="&#x11f;" horiz-adv-x="403" 
d="M224 598q71 0 89 81h86q-6 -79 -62 -128t-126 -49q-75 0 -116.5 48t-35.5 129h87q5 -81 78 -81zM213 244q19 0 30.5 17t11.5 43q0 76 -51 76q-45 0 -45 -61q0 -75 54 -75zM393 -29q0 -78 -79 -141.5t-181 -63.5q-86 0 -130.5 30.5t-44.5 78.5q0 40 25 72.5t91 67.5l1 1
q-40 26 -38 68q-1 18 15.5 42t45.5 45q-75 29 -75 126q0 76 61 123t147 47q37 0 62 -7l79 116l77 -76l-11 -25l-80 -50q33 -36 33 -99q0 -71 -57.5 -120t-151.5 -49h-7q-9 -9 -9 -17q0 -16 19 -25t83 -20q71 -12 98 -42.5t27 -81.5zM170 -128q49 0 74.5 15.5t25.5 39.5
q0 23 -18.5 32t-85.5 23q-14 2 -33 8q-47 -33 -47 -66q0 -22 21 -37t63 -15z" />
    <glyph glyph-name="Gdotaccent" unicode="&#x120;" horiz-adv-x="569" 
d="M265 745q2 25 35 58.5t57 33.5t57.5 -28t32.5 -52q-2 -24 -36 -57t-56 -33q-24 0 -57.5 27.5t-32.5 50.5zM500 27q-40 -19 -99 -31.5t-111 -12.5q-129 0 -201 73.5t-72 214.5q0 51 12.5 101t39.5 97t65 83t93.5 57.5t120.5 21.5q55 0 110.5 -10t82.5 -27l-33 -129
q-94 39 -183 39q-148 0 -148 -229q0 -86 41.5 -128.5t102.5 -42.5q27 0 48 3l13 197h137z" />
    <glyph glyph-name="gdotaccent" unicode="&#x121;" horiz-adv-x="403" 
d="M137 595q2 25 35 58.5t57 33.5t57.5 -28t32.5 -52q-2 -24 -36 -57t-56 -33q-24 0 -57.5 27.5t-32.5 50.5zM213 244q19 0 30.5 17t11.5 43q0 76 -51 76q-45 0 -45 -61q0 -75 54 -75zM393 -29q0 -78 -79 -141.5t-181 -63.5q-86 0 -130.5 30.5t-44.5 78.5q0 40 25 72.5
t91 67.5l1 1q-40 26 -38 68q-1 18 15.5 42t45.5 45q-75 29 -75 126q0 76 61 123t147 47q37 0 62 -7l79 116l77 -76l-11 -25l-80 -50q33 -36 33 -99q0 -71 -57.5 -120t-151.5 -49h-7q-9 -9 -9 -17q0 -16 19 -25t83 -20q71 -12 98 -42.5t27 -81.5zM170 -128q49 0 74.5 15.5
t25.5 39.5q0 23 -18.5 32t-85.5 23q-14 2 -33 8q-47 -33 -47 -66q0 -22 21 -37t63 -15z" />
    <glyph glyph-name="Gcommaaccent" unicode="&#x122;" horiz-adv-x="569" 
d="M500 27q-40 -19 -99 -31.5t-111 -12.5q-129 0 -201 73.5t-72 214.5q0 51 12.5 101t39.5 97t65 83t93.5 57.5t120.5 21.5q55 0 110.5 -10t82.5 -27l-33 -129q-94 39 -183 39q-148 0 -148 -229q0 -86 41.5 -128.5t102.5 -42.5q27 0 48 3l13 197h137zM237 -99
q0 19 24.5 39.5t45.5 20.5t44.5 -26t21.5 -43q-4 -48 -84 -157l-67 27q6 12 18.5 33t21 35.5t8.5 20.5t-17 23t-16 27z" />
    <glyph glyph-name="gcommaaccent" unicode="&#x123;" horiz-adv-x="403" 
d="M272 550q0 -19 -24.5 -39.5t-45.5 -20.5t-44.5 26t-21.5 43q4 50 84 157l66 -27q-6 -13 -18 -33.5t-20.5 -35t-8.5 -20.5t17 -23t16 -27zM213 244q19 0 30.5 17t11.5 43q0 76 -51 76q-45 0 -45 -61q0 -75 54 -75zM393 -29q0 -78 -79 -141.5t-181 -63.5q-86 0 -130.5 30.5
t-44.5 78.5q0 40 25 72.5t91 67.5l1 1q-40 26 -38 68q-1 18 15.5 42t45.5 45q-75 29 -75 126q0 76 61 123t147 47q37 0 62 -7l79 116l77 -76l-11 -25l-80 -50q33 -36 33 -99q0 -71 -57.5 -120t-151.5 -49h-7q-9 -9 -9 -17q0 -16 19 -25t83 -20q71 -12 98 -42.5t27 -81.5z
M170 -128q49 0 74.5 15.5t25.5 39.5q0 23 -18.5 32t-85.5 23q-14 2 -33 8q-47 -33 -47 -66q0 -22 21 -37t63 -15z" />
    <glyph glyph-name="Hcircumflex" unicode="&#x124;" horiz-adv-x="633" 
d="M416 653l-71 66l-79 -66h-109l126 165h136l108 -165h-111zM387 0l17 247h-188l-17 -247h-157l43 612h157l-17 -236h188l17 236h157l-43 -612h-157z" />
    <glyph glyph-name="hcircumflex" unicode="&#x125;" horiz-adv-x="501" 
d="M247 716l-71 66l-79 -66h-109l126 165h136l108 -165h-111zM282 349q-11 0 -21.5 -5.5t-24.5 -20t-25.5 -47t-17.5 -78.5l-14 -198h-149l49 697l152 21l-25 -347q69 96 148 96q114 0 114 -128q0 -46 -17.5 -186t-18.5 -153h-149q32 256 32 293q0 56 -33 56z" />
    <glyph glyph-name="Hbar" unicode="&#x126;" horiz-adv-x="620" 
d="M410 376l5 68h-188l-5 -68h188zM384 0l17 247h-188l-17 -247h-157l31 444h-64l2 21l24 75h45l5 72h157l-5 -72h188l5 72h157l-5 -72h62l-2 -22l-25 -74h-42l-31 -444h-157z" />
    <glyph glyph-name="hbar" unicode="&#x127;" horiz-adv-x="516" 
d="M282 349q-11 0 -21.5 -5.5t-24.5 -20t-25.5 -47t-17.5 -78.5l-14 -198h-149l38 539h-61v15l30 60h36l6 83l152 21l-8 -104h138l-1 -15l-30 -60h-112l-12 -168q69 96 148 96q114 0 114 -128q0 -46 -17.5 -186t-18.5 -153h-149q32 256 32 293q0 56 -33 56z" />
    <glyph glyph-name="Itilde" unicode="&#x128;" horiz-adv-x="283" 
d="M313 810l48 -53q-15 -31 -56.5 -66.5t-71.5 -35.5q-19 0 -67 16.5t-60 16.5q-17 0 -38.5 -16.5t-26.5 -25.5l-42 62q2 4 21.5 25t49 43t48.5 22q23 0 66.5 -16.5t56.5 -16.5q29 0 72 45zM242 612l-43 -612h-157l43 612h157z" />
    <glyph glyph-name="itilde" unicode="&#x129;" horiz-adv-x="243" 
d="M282 660l49 -53q-15 -31 -58.5 -66.5t-73.5 -35.5q-19 0 -67.5 16.5t-60.5 16.5q-17 0 -40 -17t-28 -25l-42 62q2 4 22.5 25t50.5 43t49 22q23 0 67.5 -16.5t57.5 -16.5q31 0 74 45zM212 467l-33 -467h-147l32 446z" />
    <glyph glyph-name="Imacron" unicode="&#x12a;" horiz-adv-x="283" 
d="M325 780l-1 -15l-33 -88h-265l1 15l33 88h265zM242 612l-43 -612h-157l43 612h157z" />
    <glyph glyph-name="imacron" unicode="&#x12b;" horiz-adv-x="243" 
d="M298 630l-1 -15l-33 -88h-265l1 15l33 88h265zM212 469l-33 -467h-147l32 446z" />
    <glyph glyph-name="Ibreve" unicode="&#x12c;" horiz-adv-x="283" 
d="M169 748q71 0 89 81h86q-6 -79 -62 -128t-126 -49q-75 0 -116.5 48t-35.5 129h87q5 -81 78 -81zM242 612l-43 -612h-157l43 612h157z" />
    <glyph glyph-name="ibreve" unicode="&#x12d;" horiz-adv-x="243" 
d="M146 598q71 0 89 81h86q-6 -79 -62 -128t-126 -49q-75 0 -116.5 48t-35.5 129h87q5 -81 78 -81zM212 467l-33 -467h-147l32 446z" />
    <glyph glyph-name="Iogonek" unicode="&#x12e;" horiz-adv-x="283" 
d="M119 0h-77l43 612h157l-43 -612h-3q-103 -69 -108 -121q-1 -15 10 -24.5t26 -9.5q28 0 49 11l16 -64q-48 -25 -93 -25q-49 0 -77.5 26t-25.5 70q3 34 36 71t90 66z" />
    <glyph glyph-name="iogonek" unicode="&#x12f;" horiz-adv-x="243" 
d="M58 590q0 24 30 56.5t57 32.5q23 0 54.5 -24.5t31.5 -47.5q0 -24 -30.5 -56.5t-55.5 -32.5q-24 0 -55.5 24t-31.5 48zM101 0h-71l32 446l149 21l-33 -467q-103 -69 -108 -121q-1 -15 10 -24.5t26 -9.5q28 0 49 11l16 -64q-47 -25 -93 -25q-49 0 -77.5 26t-25.5 70
q3 34 36 71t90 66z" />
    <glyph glyph-name="Idotaccent" unicode="&#x130;" horiz-adv-x="283" 
d="M78 745q2 25 35 58.5t57 33.5t57.5 -28t32.5 -52q-2 -24 -36 -57t-56 -33q-24 0 -57.5 27.5t-32.5 50.5zM242 612l-43 -612h-157l43 612h157z" />
    <glyph glyph-name="dotlessi" unicode="&#x131;" horiz-adv-x="262" 
d="M229 467l-33 -467h-147l32 446z" />
    <glyph glyph-name="IJ" unicode="&#x132;" horiz-adv-x="644" 
d="M242 612l-43 -612h-157l43 612h157zM602 612l-30 -436q-6 -87 -67 -140t-146 -53q-66 0 -106 20l34 127q30 -18 67 -18q57 0 62 79l29 421h157z" />
    <glyph glyph-name="ij" unicode="&#x133;" horiz-adv-x="473" 
d="M287 590q0 24 30 56.5t56 32.5q24 0 55.5 -24.5t31.5 -47.5q0 -24 -31 -56.5t-56 -32.5q-23 0 -54.5 24.5t-31.5 47.5zM58 590q0 24 30 56.5t57 32.5q23 0 54.5 -24.5t31.5 -47.5q0 -24 -30.5 -56.5t-55.5 -32.5q-24 0 -55.5 24t-31.5 48zM62 446l149 21l-33 -467h-148z
M141 -230l-14 131q16 -4 50 -4q72 0 80 97l33 452l149 20l-32 -457q-9 -115 -75 -177.5t-191 -61.5z" />
    <glyph glyph-name="Jcircumflex" unicode="&#x134;" horiz-adv-x="366" 
d="M312 653l-71 66l-79 -66h-109l126 165h136l108 -165h-111zM319 612l-30 -436q-6 -87 -67 -140t-146 -53q-66 0 -106 20l34 127q30 -18 67 -18q57 0 62 79l29 421h157z" />
    <glyph glyph-name="jcircumflex" unicode="&#x135;" horiz-adv-x="231" 
d="M209 503l-71 66l-79 -66h-109l126 165h136l108 -165h-111zM-92 -230l-14 131q16 -4 50 -4q72 0 80 97l33 452l149 20l-32 -457q-9 -115 -75 -177.5t-191 -61.5z" />
    <glyph glyph-name="Kcommaaccent" unicode="&#x136;" horiz-adv-x="595" 
d="M396 0l-175 327l-23 -327h-156l43 612h156l-20 -281l216 281h175l-230 -284l196 -328h-182zM215 -99q0 19 24.5 39.5t45.5 20.5t44.5 -26t21.5 -43q-4 -48 -84 -157l-67 27q6 12 18.5 33t21 35.5t8.5 20.5t-17 23t-16 27z" />
    <glyph glyph-name="kcommaaccent" unicode="&#x137;" horiz-adv-x="483" 
d="M333 -11q-37 49 -137 260l-18 -249h-148l51 702l149 14l-34 -467q78 75 142 201h150q-17 -42 -59 -100.5t-89 -106.5q102 -173 142 -219zM169 -99q0 19 24.5 39.5t45.5 20.5t44.5 -26t21.5 -43q-4 -48 -84 -157l-67 27q6 12 18.5 33t21 35.5t8.5 20.5t-17 23t-16 27z" />
    <glyph glyph-name="Lacute" unicode="&#x139;" horiz-adv-x="475" 
d="M79 653l139 165l152 -27l-166 -138h-125zM42 0l43 612h157l-34 -488l247 3l-28 -127h-385z" />
    <glyph glyph-name="lacute" unicode="&#x13a;" horiz-adv-x="277" 
d="M83 747l139 165l152 -27l-166 -138h-125zM255 127l18 -97q-84 -47 -143 -47q-46 0 -72 26t-26 78q0 36 6 109.5t19.5 218.5t23.5 283l149 21q-12 -152 -24 -292t-17.5 -200t-5.5 -85q0 -11 6 -21t17 -10q17 0 49 16z" />
    <glyph glyph-name="Lcommaaccent" unicode="&#x13b;" horiz-adv-x="475" 
d="M42 0l43 612h157l-34 -488l247 3l-28 -127h-385zM180 -99q0 19 24.5 39.5t45.5 20.5t44.5 -26t21.5 -43q-4 -48 -84 -157l-67 27q6 12 18.5 33t21 35.5t8.5 20.5t-17 23t-16 27z" />
    <glyph glyph-name="lcommaaccent" unicode="&#x13c;" horiz-adv-x="277" 
d="M255 127l18 -97q-84 -47 -143 -47q-46 0 -72 26t-26 78q0 36 6 109.5t19.5 218.5t23.5 283l149 21q-12 -152 -24 -292t-17.5 -200t-5.5 -85q0 -11 6 -21t17 -10q17 0 49 16zM64 -99q0 19 24.5 39.5t45.5 20.5t44.5 -26t21.5 -43q-4 -48 -84 -157l-67 27q6 12 18.5 33
t21 35.5t8.5 20.5t-17 23t-16 27z" />
    <glyph glyph-name="Lcaron" unicode="&#x13d;" horiz-adv-x="470" 
d="M334 646q1 18 29.5 33.5t51.5 15.5q29 0 40.5 -33t9.5 -72q-4 -61 -106 -190l-59 30q41 69 45 128q1 20 -5 48.5t-6 39.5zM42 0l43 612h157l-34 -488l247 3l-28 -127h-385z" />
    <glyph glyph-name="lcaron" unicode="&#x13e;" horiz-adv-x="380" 
d="M255 127l18 -97q-84 -47 -143 -47q-46 0 -72 26t-26 78q0 36 6 109.5t19.5 218.5t23.5 283l149 21q-12 -152 -24 -292t-17.5 -200t-5.5 -85q0 -11 6 -21t17 -10q17 0 49 16zM271 646q1 18 29.5 33.5t51.5 15.5q29 0 40.5 -33t9.5 -72q-4 -61 -106 -190l-59 30
q41 69 45 128q1 20 -5 48.5t-6 39.5z" />
    <glyph glyph-name="Ldot" unicode="&#x13f;" horiz-adv-x="475" 
d="M296 351q2 25 35 58.5t57 33.5t57.5 -28t32.5 -52q-2 -24 -36 -57t-56 -33q-24 0 -57.5 27.5t-32.5 50.5zM42 0l43 612h157l-34 -488l247 3l-28 -127h-385z" />
    <glyph glyph-name="ldot" unicode="&#x140;" horiz-adv-x="374" 
d="M255 127l18 -97q-84 -47 -143 -47q-46 0 -72 26t-26 78q0 36 6 109.5t19.5 218.5t23.5 283l149 21q-12 -152 -24 -292t-17.5 -200t-5.5 -85q0 -11 6 -21t17 -10q17 0 49 16zM217 276q2 25 35 58.5t57 33.5t57.5 -28t32.5 -52q-2 -24 -36 -57t-56 -33q-24 0 -57.5 27.5
t-32.5 50.5z" />
    <glyph glyph-name="Lslash" unicode="&#x141;" horiz-adv-x="465" 
d="M48 0l16 229l-54 -23l6 107l56 24l19 275h157l-14 -205l112 48l-7 -107l-113 -49l-12 -175l247 3l-28 -127h-385z" />
    <glyph glyph-name="lslash" unicode="&#x142;" horiz-adv-x="290" 
d="M130 -17q-46 0 -72 26t-26 78q0 46 11 170l-46 -19l7 109l49 20q19 212 28 331l149 21q-12 -156 -24 -288l74 30l-7 -109l-76 -32q-14 -146 -14 -178q0 -11 6 -21t17 -10q17 0 49 16l18 -97q-84 -47 -143 -47z" />
    <glyph glyph-name="Nacute" unicode="&#x143;" horiz-adv-x="629" 
d="M251 653l139 165l152 -27l-166 -138h-125zM405 0l-194 366l-25 -366h-144l44 612h154l182 -364l21 364h144l-42 -612h-140z" />
    <glyph glyph-name="nacute" unicode="&#x144;" horiz-adv-x="500" 
d="M185 503l139 165l152 -27l-166 -138h-125zM282 349q-11 0 -22.5 -6.5t-26 -23t-26 -54t-16.5 -90.5l-12 -175h-149l31 446l136 21l6 -100q70 100 151 100q114 0 114 -128q0 -46 -17.5 -186t-18.5 -153h-149q32 256 32 293q0 56 -33 56z" />
    <glyph glyph-name="Ncommaaccent" unicode="&#x145;" horiz-adv-x="629" 
d="M405 0l-194 366l-25 -366h-144l44 612h154l182 -364l21 364h144l-42 -612h-140zM230 -99q0 19 24.5 39.5t45.5 20.5t44.5 -26t21.5 -43q-4 -48 -84 -157l-67 27q6 12 18.5 33t21 35.5t8.5 20.5t-17 23t-16 27z" />
    <glyph glyph-name="ncommaaccent" unicode="&#x146;" horiz-adv-x="500" 
d="M282 349q-11 0 -22.5 -6.5t-26 -23t-26 -54t-16.5 -90.5l-12 -175h-149l31 446l136 21l6 -100q70 100 151 100q114 0 114 -128q0 -46 -17.5 -186t-18.5 -153h-149q32 256 32 293q0 56 -33 56zM153 -99q0 19 24.5 39.5t45.5 20.5t44.5 -26t21.5 -43q-4 -48 -84 -157
l-67 27q6 12 18.5 33t21 35.5t8.5 20.5t-17 23t-16 27z" />
    <glyph glyph-name="Ncaron" unicode="&#x147;" horiz-adv-x="629" 
d="M413 658h-137l-107 165h110l71 -67l80 67h108zM405 0l-194 366l-25 -366h-144l44 612h154l182 -364l21 364h144l-42 -612h-140z" />
    <glyph glyph-name="ncaron" unicode="&#x148;" horiz-adv-x="500" 
d="M346 508h-137l-107 165h110l71 -67l80 67h108zM282 349q-11 0 -22.5 -6.5t-26 -23t-26 -54t-16.5 -90.5l-12 -175h-149l31 446l136 21l6 -100q70 100 151 100q114 0 114 -128q0 -46 -17.5 -186t-18.5 -153h-149q32 256 32 293q0 56 -33 56z" />
    <glyph glyph-name="Eng" unicode="&#x14a;" horiz-adv-x="629" 
d="M350 -180q-61 0 -102 19l27 120q31 -21 79 -21q21 0 38 15t20 45v2h-7l-194 366l-25 -366h-144l44 612h154l182 -364l21 364h144l-39 -567l-2 -32q0 -2 -0.5 -5.5t-0.5 -5.5v-2q-9 -83 -63 -131.5t-132 -48.5z" />
    <glyph glyph-name="eng" unicode="&#x14b;" horiz-adv-x="502" 
d="M431 -15q-34 -218 -264 -215l-15 131q17 -4 50 -4q71 0 83 89q6 45 18 158t12 149q0 56 -33 56q-11 0 -22.5 -6.5t-26 -23t-26 -54t-16.5 -90.5l-12 -175h-149l31 446l136 21l6 -100q70 100 151 100q114 0 114 -128q0 -47 -14 -171t-23 -183z" />
    <glyph glyph-name="Omacron" unicode="&#x14c;" horiz-adv-x="614" 
d="M480 780l-1 -15l-33 -88h-265l1 15l33 88h265zM590 354q0 -170 -91 -270.5t-227 -100.5q-119 0 -187 75t-68 200q0 170 91 270.5t227 100.5q119 0 187 -75t68 -200zM302 104q126 0 126 235q0 79 -34.5 124t-91.5 45q-123 0 -123 -235q0 -82 33.5 -125.5t89.5 -43.5z" />
    <glyph glyph-name="omacron" unicode="&#x14d;" horiz-adv-x="461" 
d="M414 630l-1 -15l-33 -88h-265l1 15l33 88h265zM442 261q0 -71 -25.5 -132.5t-82 -103.5t-134.5 -42q-79 0 -130 50.5t-51 155.5q0 70 26 132t82.5 104t133.5 42q84 0 132.5 -50t48.5 -156zM231 77q59 0 59 189q0 56 -13.5 81.5t-46.5 25.5q-59 0 -59 -189q0 -60 13 -83.5
t47 -23.5z" />
    <glyph glyph-name="Obreve" unicode="&#x14e;" horiz-adv-x="614" 
d="M324 748q71 0 89 81h86q-6 -79 -62 -128t-126 -49q-75 0 -116.5 48t-35.5 129h87q5 -81 78 -81zM590 354q0 -170 -91 -270.5t-227 -100.5q-119 0 -187 75t-68 200q0 170 91 270.5t227 100.5q119 0 187 -75t68 -200zM302 104q126 0 126 235q0 79 -34.5 124t-91.5 45
q-123 0 -123 -235q0 -82 33.5 -125.5t89.5 -43.5z" />
    <glyph glyph-name="obreve" unicode="&#x14f;" horiz-adv-x="461" 
d="M266 598q71 0 89 81h86q-6 -79 -62 -128t-126 -49q-75 0 -116.5 48t-35.5 129h87q5 -81 78 -81zM442 261q0 -71 -25.5 -132.5t-82 -103.5t-134.5 -42q-79 0 -130 50.5t-51 155.5q0 70 26 132t82.5 104t133.5 42q84 0 132.5 -50t48.5 -156zM231 77q59 0 59 189
q0 56 -13.5 81.5t-46.5 25.5q-59 0 -59 -189q0 -60 13 -83.5t47 -23.5z" />
    <glyph glyph-name="Ohungarumlaut" unicode="&#x150;" horiz-adv-x="614" 
d="M301 653l122 165l152 -27l-149 -138h-125zM126 653l122 165l152 -27l-149 -138h-125zM590 354q0 -170 -91 -270.5t-227 -100.5q-119 0 -187 75t-68 200q0 170 91 270.5t227 100.5q119 0 187 -75t68 -200zM302 104q126 0 126 235q0 79 -34.5 124t-91.5 45
q-123 0 -123 -235q0 -82 33.5 -125.5t89.5 -43.5z" />
    <glyph glyph-name="ohungarumlaut" unicode="&#x151;" horiz-adv-x="461" 
d="M256 503l122 165l152 -27l-149 -138h-125zM81 503l122 165l152 -27l-149 -138h-125zM442 261q0 -71 -25.5 -132.5t-82 -103.5t-134.5 -42q-79 0 -130 50.5t-51 155.5q0 70 26 132t82.5 104t133.5 42q84 0 132.5 -50t48.5 -156zM231 77q59 0 59 189q0 56 -13.5 81.5
t-46.5 25.5q-59 0 -59 -189q0 -60 13 -83.5t47 -23.5z" />
    <glyph glyph-name="OE" unicode="&#x152;" horiz-adv-x="819" 
d="M304 104q43 0 70 27l23 330q-36 47 -104 47q-114 0 -114 -235q0 -169 125 -169zM750 0h-383q-47 -17 -105 -17q-102 0 -173.5 72.5t-71.5 197.5q0 55 11.5 108t36.5 102t61 85.5t89.5 58.5t117.5 22q44 0 84 -17h380l-27 -117l-213 3l-9 -128h209l-27 -117l-190 6
l-10 -140l247 3z" />
    <glyph glyph-name="oe" unicode="&#x153;" horiz-adv-x="678" 
d="M463 -17q-79 0 -124 45q-59 -45 -139 -45q-79 0 -130 50.5t-51 155.5q0 70 26 132t82.5 104t133.5 42q82 0 128 -46q59 46 134 46q66 0 104 -33.5t38 -85.5q0 -67 -64.5 -114t-160.5 -58q4 -50 22 -67.5t46 -17.5q45 0 111 49l34 -84q-93 -73 -190 -73zM231 77
q59 0 59 189q0 56 -13.5 81.5t-46.5 25.5q-59 0 -59 -189q0 -60 13 -83.5t47 -23.5zM442 261v-8q41 8 64 28.5t23 51.5q0 40 -31 40q-45 0 -57 -84q1 -9 1 -28z" />
    <glyph glyph-name="Racute" unicode="&#x154;" horiz-adv-x="550" 
d="M173 653l139 165l152 -27l-166 -138h-125zM263 507h-30l-11 -169h40q95 0 95 85q0 39 -26 61.5t-68 22.5zM258 223h-44l-15 -223h-157l41 612h215q105 0 162 -45.5t57 -126.5q0 -56 -27.5 -103t-78.5 -76l128 -261h-171l-97 223h-13z" />
    <glyph glyph-name="racute" unicode="&#x155;" horiz-adv-x="344" 
d="M112 503l139 165l152 -27l-166 -138h-125zM300 318q-48 0 -72 -28t-34 -100l-15 -190h-149l33 446l134 21l5 -127q24 63 63.5 95t75.5 32q22 0 31 -3l-29 -152q-16 6 -43 6z" />
    <glyph glyph-name="Rcommaaccent" unicode="&#x156;" horiz-adv-x="550" 
d="M263 507h-30l-11 -169h40q95 0 95 85q0 39 -26 61.5t-68 22.5zM258 223h-44l-15 -223h-157l41 612h215q105 0 162 -45.5t57 -126.5q0 -56 -27.5 -103t-78.5 -76l128 -261h-171l-97 223h-13zM194 -99q0 19 24.5 39.5t45.5 20.5t44.5 -26t21.5 -43q-4 -48 -84 -157l-67 27
q6 12 18.5 33t21 35.5t8.5 20.5t-17 23t-16 27z" />
    <glyph glyph-name="rcommaaccent" unicode="&#x157;" horiz-adv-x="344" 
d="M300 318q-48 0 -72 -28t-34 -100l-15 -190h-149l33 446l134 21l5 -127q24 63 63.5 95t75.5 32q22 0 31 -3l-29 -152q-16 6 -43 6zM31 -99q0 19 24.5 39.5t45.5 20.5t44.5 -26t21.5 -43q-4 -48 -84 -157l-67 27q6 12 18.5 33t21 35.5t8.5 20.5t-17 23t-16 27z" />
    <glyph glyph-name="Rcaron" unicode="&#x158;" horiz-adv-x="550" 
d="M356 658h-137l-107 165h110l71 -67l80 67h108zM263 507h-30l-11 -169h40q95 0 95 85q0 39 -26 61.5t-68 22.5zM258 223h-44l-15 -223h-157l41 612h215q105 0 162 -45.5t57 -126.5q0 -56 -27.5 -103t-78.5 -76l128 -261h-171l-97 223h-13z" />
    <glyph glyph-name="rcaron" unicode="&#x159;" horiz-adv-x="344" 
d="M290 508h-137l-107 165h110l71 -67l80 67h108zM300 318q-48 0 -72 -28t-34 -100l-15 -190h-149l33 446l134 21l5 -127q24 63 63.5 95t75.5 32q22 0 31 -3l-29 -152q-16 6 -43 6z" />
    <glyph glyph-name="Sacute" unicode="&#x15a;" horiz-adv-x="488" 
d="M178 653l139 165l152 -27l-166 -138h-125zM233 230l-80 39q-50 25 -76.5 66t-26.5 90q0 89 67 146.5t165 57.5q99 0 190 -33l-35 -135q-29 14 -82 30.5t-86 16.5q-67 0 -67 -50q0 -44 58 -72l83 -42q108 -54 108 -161q0 -86 -73 -143t-181 -57q-102 0 -184 32l32 133
q104 -49 187 -50q25 1 42 15t17 42q0 45 -58 75z" />
    <glyph glyph-name="sacute" unicode="&#x15b;" horiz-adv-x="374" 
d="M105 503l139 165l152 -27l-166 -138h-125zM154 -17q-88 0 -152 35l38 114q69 -44 130 -44q12 0 23.5 8t11.5 21q0 10 -9 18.5t-33 22.5l-54 33q-39 25 -56.5 54.5t-17.5 74.5q0 63 50 105t134 42q88 0 142 -29l-34 -106q-63 37 -119 37q-34 0 -34 -30q0 -14 50 -44
l45 -26q42 -25 60 -51.5t18 -72.5q0 -63 -51.5 -112.5t-141.5 -49.5z" />
    <glyph glyph-name="Scircumflex" unicode="&#x15c;" horiz-adv-x="488" 
d="M356 653l-71 66l-79 -66h-109l126 165h136l108 -165h-111zM233 230l-80 39q-50 25 -76.5 66t-26.5 90q0 89 67 146.5t165 57.5q99 0 190 -33l-35 -135q-29 14 -82 30.5t-86 16.5q-67 0 -67 -50q0 -44 58 -72l83 -42q108 -54 108 -161q0 -86 -73 -143t-181 -57
q-102 0 -184 32l32 133q104 -49 187 -50q25 1 42 15t17 42q0 45 -58 75z" />
    <glyph glyph-name="scircumflex" unicode="&#x15d;" horiz-adv-x="374" 
d="M293 503l-71 66l-79 -66h-109l126 165h136l108 -165h-111zM154 -17q-88 0 -152 35l38 114q69 -44 130 -44q12 0 23.5 8t11.5 21q0 10 -9 18.5t-33 22.5l-54 33q-39 25 -56.5 54.5t-17.5 74.5q0 63 50 105t134 42q88 0 142 -29l-34 -106q-63 37 -119 37q-34 0 -34 -30
q0 -14 50 -44l45 -26q42 -25 60 -51.5t18 -72.5q0 -63 -51.5 -112.5t-141.5 -49.5z" />
    <glyph glyph-name="Scedilla" unicode="&#x15e;" horiz-adv-x="488" 
d="M118 -238l-13 59q49 5 73.5 13t25.5 24q1 12 -16.5 21.5t-52.5 17.5l-2 5l45 81q-94 4 -165 32l32 133q104 -49 187 -50q25 1 42 15t17 42q0 45 -58 75l-80 39q-50 25 -76.5 66t-26.5 90q0 89 67 146.5t165 57.5q99 0 190 -33l-35 -135q-29 14 -82 30.5t-86 16.5
q-67 0 -67 -50q0 -44 58 -72l83 -42q108 -54 108 -161q0 -77 -59.5 -131.5t-151.5 -65.5l-17 -37q40 -14 61 -32t19 -45q-3 -40 -50 -73t-135 -37z" />
    <glyph glyph-name="scedilla" unicode="&#x15f;" horiz-adv-x="374" 
d="M50 -238l-13 59q49 5 73.5 13t25.5 24q1 12 -16.5 21.5t-52.5 17.5l-2 5l46 84q-65 7 -109 32l38 114q69 -44 130 -44q12 0 23.5 8t11.5 21q0 10 -9 18.5t-33 22.5l-54 33q-39 25 -56.5 54.5t-17.5 74.5q0 63 50 105t134 42q88 0 142 -29l-34 -106q-63 37 -119 37
q-34 0 -34 -30q0 -14 50 -44l45 -26q42 -25 60 -51.5t18 -72.5q0 -60 -46.5 -108t-129.5 -53l-16 -35q40 -14 61 -32t19 -45q-3 -40 -50 -73t-135 -37z" />
    <glyph glyph-name="Scaron" unicode="&#x160;" horiz-adv-x="488" 
d="M338 658h-137l-107 165h110l71 -67l80 67h108zM233 230l-80 39q-50 25 -76.5 66t-26.5 90q0 89 67 146.5t165 57.5q99 0 190 -33l-35 -135q-29 14 -82 30.5t-86 16.5q-67 0 -67 -50q0 -44 58 -72l83 -42q108 -54 108 -161q0 -86 -73 -143t-181 -57q-102 0 -184 32l32 133
q104 -49 187 -50q25 1 42 15t17 42q0 45 -58 75z" />
    <glyph glyph-name="scaron" unicode="&#x161;" horiz-adv-x="374" 
d="M283 508h-137l-107 165h110l71 -67l80 67h108zM154 -17q-88 0 -152 35l38 114q69 -44 130 -44q12 0 23.5 8t11.5 21q0 10 -9 18.5t-33 22.5l-54 33q-39 25 -56.5 54.5t-17.5 74.5q0 63 50 105t134 42q88 0 142 -29l-34 -106q-63 37 -119 37q-34 0 -34 -30q0 -14 50 -44
l45 -26q42 -25 60 -51.5t18 -72.5q0 -63 -51.5 -112.5t-141.5 -49.5z" />
    <glyph glyph-name="Tcommaaccent" unicode="&#x162;" horiz-adv-x="502" 
d="M495 487l-151 3l-34 -490h-157l34 490l-173 -3l27 125h481zM152 -99q0 19 24.5 39.5t45.5 20.5t44.5 -26t21.5 -43q-4 -48 -84 -157l-67 27q6 12 18.5 33t21 35.5t8.5 20.5t-17 23t-16 27z" />
    <glyph glyph-name="tcommaaccent" unicode="&#x163;" horiz-adv-x="336" 
d="M327 44q-83 -61 -168 -61q-51 0 -86 32t-35 96q0 24 26 243h-63l8 86l66 10q8 79 10 95l149 21q-2 -14 -7 -54.5t-7 -61.5h126l-15 -96h-122q-19 -178 -19 -193q0 -49 43 -49q33 0 68 24zM79 -99q0 19 24.5 39.5t45.5 20.5t44.5 -26t21.5 -43q-4 -48 -84 -157l-67 27
q6 12 18.5 33t21 35.5t8.5 20.5t-17 23t-16 27z" />
    <glyph glyph-name="Tcaron" unicode="&#x164;" horiz-adv-x="502" 
d="M338 658h-137l-107 165h110l71 -67l80 67h108zM495 487l-151 3l-34 -490h-157l34 490l-173 -3l27 125h481z" />
    <glyph glyph-name="tcaron" unicode="&#x165;" horiz-adv-x="336" 
d="M293 746q1 18 29.5 33.5t51.5 15.5q29 0 40.5 -33t9.5 -72q-4 -61 -106 -190l-59 30q41 69 45 128q1 20 -5 48.5t-6 39.5zM327 44q-83 -61 -168 -61q-51 0 -86 32t-35 96q0 24 26 243h-63l8 86l66 10q8 79 10 95l149 21q-2 -14 -7 -54.5t-7 -61.5h126l-15 -96h-122
q-19 -178 -19 -193q0 -49 43 -49q33 0 68 24z" />
    <glyph glyph-name="Tbar" unicode="&#x166;" horiz-adv-x="502" 
d="M431 263h-103l-18 -263h-157l18 263h-125l1 22l26 81h105l9 124l-173 -3l27 125h481l-27 -125l-151 3l-9 -124h123v-22z" />
    <glyph glyph-name="tbar" unicode="&#x167;" horiz-adv-x="336" 
d="M327 44q-83 -61 -168 -61q-51 0 -86 32t-35 96q0 33 7 89h-52v15l29 65h33q3 30 9 74h-63l8 86l66 10q8 79 10 95l149 21q-2 -14 -7 -54.5t-7 -61.5h126l-15 -96h-122q-8 -72 -8 -74h107v-15l-29 -65h-86q-3 -36 -3 -39q0 -49 43 -49q33 0 68 24z" />
    <glyph glyph-name="Utilde" unicode="&#x168;" horiz-adv-x="631" 
d="M480 810l49 -53q-15 -31 -58.5 -66.5t-73.5 -35.5q-19 0 -67.5 16.5t-60.5 16.5q-17 0 -40 -17t-28 -25l-42 62q2 4 22.5 25t50.5 43t49 22q23 0 67.5 -16.5t57.5 -16.5q31 0 74 45zM84 612h157q-29 -382 -29 -407q0 -54 29 -78.5t72 -24.5q86 0 92 110l29 400h151
l-27 -382q-8 -117 -78 -182t-197 -65q-106 0 -166.5 50.5t-60.5 144.5q0 49 28 434z" />
    <glyph glyph-name="utilde" unicode="&#x169;" 
d="M419 660l49 -53q-15 -31 -58.5 -66.5t-73.5 -35.5q-19 0 -67.5 16.5t-60.5 16.5q-17 0 -40 -17t-28 -25l-42 62q2 4 22.5 25t50.5 43t49 22q23 0 67.5 -16.5t57.5 -16.5q31 0 74 45zM304 -17l-8 100q-70 -100 -151 -100q-115 0 -115 128q0 46 17 183.5t18 150.5l151 23
q-1 -11 -10 -83t-16 -136t-7 -90t10 -42t26 -16q69 0 89 149l14 196l151 21l-33 -467z" />
    <glyph glyph-name="Umacron" unicode="&#x16a;" horiz-adv-x="631" 
d="M486 780l-1 -15l-33 -88h-265l1 15l33 88h265zM84 612h157q-29 -382 -29 -407q0 -54 29 -78.5t72 -24.5q86 0 92 110l29 400h151l-27 -382q-8 -117 -78 -182t-197 -65q-106 0 -166.5 50.5t-60.5 144.5q0 49 28 434z" />
    <glyph glyph-name="umacron" unicode="&#x16b;" 
d="M430 630l-1 -15l-33 -88h-265l1 15l33 88h265zM304 -17l-8 100q-70 -100 -151 -100q-115 0 -115 128q0 46 17 183.5t18 150.5l151 23q-1 -11 -10 -83t-16 -136t-7 -90t10 -42t26 -16q69 0 89 149l14 196l151 21l-33 -467z" />
    <glyph glyph-name="Ubreve" unicode="&#x16c;" horiz-adv-x="631" 
d="M344 748q71 0 89 81h86q-6 -79 -62 -128t-126 -49q-75 0 -116.5 48t-35.5 129h87q5 -81 78 -81zM84 612h157q-29 -382 -29 -407q0 -54 29 -78.5t72 -24.5q86 0 92 110l29 400h151l-27 -382q-8 -117 -78 -182t-197 -65q-106 0 -166.5 50.5t-60.5 144.5q0 49 28 434z" />
    <glyph glyph-name="ubreve" unicode="&#x16d;" 
d="M290 598q71 0 89 81h86q-6 -79 -62 -128t-126 -49q-75 0 -116.5 48t-35.5 129h87q5 -81 78 -81zM304 -17l-8 100q-70 -100 -151 -100q-115 0 -115 128q0 46 17 183.5t18 150.5l151 23q-1 -11 -10 -83t-16 -136t-7 -90t10 -42t26 -16q69 0 89 149l14 196l151 21l-33 -467z
" />
    <glyph glyph-name="Uring" unicode="&#x16e;" horiz-adv-x="631" 
d="M454 745q-3 -42 -37 -72.5t-78 -30.5q-45 0 -73 28t-25 75q3 42 37 72.5t78 30.5q46 0 73.5 -27t24.5 -76zM305 745q-1 -18 10 -30t29 -12t31.5 12t14.5 30q1 19 -10.5 31t-29.5 12t-31 -12t-14 -31zM84 612h157q-29 -382 -29 -407q0 -54 29 -78.5t72 -24.5q86 0 92 110
l29 400h151l-27 -382q-8 -117 -78 -182t-197 -65q-106 0 -166.5 50.5t-60.5 144.5q0 49 28 434z" />
    <glyph glyph-name="uring" unicode="&#x16f;" 
d="M394 595q-3 -42 -37 -72.5t-78 -30.5q-45 0 -73 28t-25 75q3 42 37 72.5t78 30.5q46 0 73.5 -27t24.5 -76zM245 595q-1 -18 10 -30t29 -12t31.5 12t14.5 30q1 19 -10.5 31t-29.5 12t-31 -12t-14 -31zM304 -17l-8 100q-70 -100 -151 -100q-115 0 -115 128q0 46 17 183.5
t18 150.5l151 23q-1 -11 -10 -83t-16 -136t-7 -90t10 -42t26 -16q69 0 89 149l14 196l151 21l-33 -467z" />
    <glyph glyph-name="Uhungarumlaut" unicode="&#x170;" horiz-adv-x="631" 
d="M335 653l122 165l152 -27l-149 -138h-125zM160 653l122 165l152 -27l-149 -138h-125zM84 612h157q-29 -382 -29 -407q0 -54 29 -78.5t72 -24.5q86 0 92 110l29 400h151l-27 -382q-8 -117 -78 -182t-197 -65q-106 0 -166.5 50.5t-60.5 144.5q0 49 28 434z" />
    <glyph glyph-name="uhungarumlaut" unicode="&#x171;" 
d="M270 503l122 165l152 -27l-149 -138h-125zM95 503l122 165l152 -27l-149 -138h-125zM304 -17l-8 100q-70 -100 -151 -100q-115 0 -115 128q0 46 17 183.5t18 150.5l151 23q-1 -11 -10 -83t-16 -136t-7 -90t10 -42t26 -16q69 0 89 149l14 196l151 21l-33 -467z" />
    <glyph glyph-name="Uogonek" unicode="&#x172;" horiz-adv-x="631" 
d="M341 -213q-49 0 -77.5 26t-25.5 70q5 51 68 101q-8 -1 -23 -1q-106 0 -166.5 50.5t-60.5 144.5q0 49 28 434h157q-29 -382 -29 -407q0 -54 29 -78.5t72 -24.5q86 0 92 110l29 400h151l-27 -382q-9 -153 -122 -213q-98 -67 -103 -118q-1 -15 10 -24.5t26 -9.5q28 0 49 11
l16 -64q-47 -25 -93 -25z" />
    <glyph glyph-name="uogonek" unicode="&#x173;" 
d="M337 -233q-49 0 -77.5 26t-25.5 70q3 30 29.5 63t72.5 61l-32 -4l-8 100q-70 -100 -151 -100q-115 0 -115 128q0 46 17 183.5t18 150.5l151 23q-1 -11 -10 -83t-16 -136t-7 -90t10 -42t26 -16q69 0 89 149l14 196l151 21l-33 -467h-4q-102 -69 -107 -121q-1 -15 10 -24.5
t26 -9.5q28 0 49 11l16 -64q-48 -25 -93 -25z" />
    <glyph glyph-name="Wcircumflex" unicode="&#x174;" horiz-adv-x="857" 
d="M523 653l-71 66l-79 -66h-109l126 165h136l108 -165h-111zM504 0l-80 356l-136 -356h-174l-79 612h164l42 -389l139 389h140l85 -390l99 390h144l-167 -612h-177z" />
    <glyph glyph-name="wcircumflex" unicode="&#x175;" horiz-adv-x="674" 
d="M447 503l-71 66l-79 -66h-109l126 165h136l108 -165h-111zM346 0l-16 134q-49 -94 -94 -135l-161 1l-32 443l149 23l13 -345q71 98 95 253l-9 76h145l27 -327q77 143 84 327h140q-10 -129 -60.5 -248.5t-114.5 -201.5h-166z" />
    <glyph glyph-name="Ycircumflex" unicode="&#x176;" horiz-adv-x="531" 
d="M371 653l-71 66l-79 -66h-109l126 165h136l108 -165h-111zM337 225l-16 -225h-157l16 225h-2l-162 387h167l97 -231l119 231h158z" />
    <glyph glyph-name="ycircumflex" unicode="&#x177;" horiz-adv-x="434" 
d="M318 503l-71 66l-79 -66h-109l126 165h136l108 -165h-111zM-20 -238q-58 0 -87 12l17 125q24 -7 64 -7q101 0 172 99h-71l-53 456l146 19l39 -359q49 123 91 343h141q-6 -63 -23.5 -142.5t-54.5 -178t-86.5 -178.5t-127 -134.5t-167.5 -54.5z" />
    <glyph glyph-name="Ydieresis" unicode="&#x178;" horiz-adv-x="531" 
d="M316 730q1 21 31.5 51.5t51.5 30.5q22 0 51.5 -25t28.5 -48q-1 -21 -32.5 -51t-51.5 -30q-22 0 -51 25t-28 47zM120 730q1 21 31.5 51.5t51.5 30.5q22 0 51.5 -25t28.5 -48q-1 -21 -32 -51t-51 -30q-23 0 -52 25t-28 47zM337 225l-16 -225h-157l16 225h-2l-162 387h167
l97 -231l119 231h158z" />
    <glyph glyph-name="Zacute" unicode="&#x179;" horiz-adv-x="536" 
d="M196 653l139 165l152 -27l-166 -138h-125zM474 0h-448l4 96l284 388h-261l22 128h435l-5 -108l-283 -380h274z" />
    <glyph glyph-name="zacute" unicode="&#x17a;" horiz-adv-x="405" 
d="M127 503l139 165l152 -27l-166 -138h-125zM363 0h-358l4 67l198 275l-172 -8l14 116h355l-4 -68l-198 -273l175 8z" />
    <glyph glyph-name="Zdotaccent" unicode="&#x17b;" horiz-adv-x="536" 
d="M205 745q2 25 35 58.5t57 33.5t57.5 -28t32.5 -52q-2 -24 -36 -57t-56 -33q-24 0 -57.5 27.5t-32.5 50.5zM474 0h-448l4 96l284 388h-261l22 128h435l-5 -108l-283 -380h274z" />
    <glyph glyph-name="zdotaccent" unicode="&#x17c;" horiz-adv-x="405" 
d="M150 595q2 25 35 58.5t57 33.5t57.5 -28t32.5 -52q-2 -24 -36 -57t-56 -33q-24 0 -57.5 27.5t-32.5 50.5zM363 0h-358l4 67l198 275l-172 -8l14 116h355l-4 -68l-198 -273l175 8z" />
    <glyph glyph-name="Zcaron" unicode="&#x17d;" horiz-adv-x="536" 
d="M364 658h-137l-107 165h110l71 -67l80 67h108zM474 0h-448l4 96l284 388h-261l22 128h435l-5 -108l-283 -380h274z" />
    <glyph glyph-name="zcaron" unicode="&#x17e;" horiz-adv-x="405" 
d="M305 508h-137l-107 165h110l71 -67l80 67h108zM363 0h-358l4 67l198 275l-172 -8l14 116h355l-4 -68l-198 -273l175 8z" />
    <glyph glyph-name="Acaron" unicode="&#x1cd;" horiz-adv-x="562" 
d="M387 658h-137l-107 165h110l71 -67l80 67h108zM336 233l-46 237l-86 -237h132zM381 0l-22 116h-197l-42 -116h-152l242 612h204l124 -612h-157z" />
    <glyph glyph-name="acaron" unicode="&#x1ce;" 
d="M367 508h-137l-107 165h110l71 -67l80 67h108zM305 -17l-7 85q-77 -85 -151 -85q-58 0 -94 45t-36 136q0 130 76 216.5t191 86.5q116 0 183 -36l-30 -431zM217 90q17 0 33.5 13.5t34 57.5t23.5 114l7 79q-19 12 -44 12q-46 0 -71.5 -41t-25.5 -152q0 -83 43 -83z" />
    <glyph glyph-name="AEacute" unicode="&#x1fc;" horiz-adv-x="786" 
d="M369 653l139 165l152 -27l-166 -138h-125zM354 492l-121 -249h116l18 249h-13zM332 0l9 126h-165l-61 -126h-147l314 612h482l-27 -117l-213 3l-9 -128h209l-28 -117l-189 6l-10 -140l246 3l-26 -122h-385z" />
    <glyph glyph-name="aeacute" unicode="&#x1fd;" horiz-adv-x="678" 
d="M300 503l139 165l152 -27l-166 -138h-125zM463 -17q-119 0 -159 98q-68 -96 -149 -96q-73 0 -105.5 47.5t-32.5 139.5q0 75 26.5 135t67 93t82 50t77.5 17q84 0 156 -23q46 23 98 23q66 0 103.5 -33.5t37.5 -85.5q0 -67 -63.5 -113.5t-160.5 -58.5q4 -50 22 -67.5
t46 -17.5q45 0 110 49l34 -84q-91 -73 -190 -73zM498 373q-54 0 -59 -121q43 8 67 28.5t24 52.5q0 40 -32 40zM221 90q49 0 67 106q4 92 42 158q-31 9 -71 9q-37 0 -61 -42t-24 -126q0 -61 11.5 -83t35.5 -22z" />
    <glyph glyph-name="Oslashacute" unicode="&#x1fe;" horiz-adv-x="607" 
d="M174 653l139 165l152 -27l-166 -138h-125zM179 273q0 -59 18 -98l139 328q-17 5 -34 5q-123 0 -123 -235zM302 104q126 0 126 235q0 57 -19 98l-140 -329q15 -4 33 -4zM272 -17q-26 0 -54 5l-30 -71h-101l44 103q-55 34 -84.5 95.5t-29.5 142.5q0 170 91 270.5t227 100.5
q30 0 53 -4l29 68h101l-43 -100q115 -70 115 -239q0 -170 -91 -270.5t-227 -100.5z" />
    <glyph glyph-name="oslashacute" unicode="&#x1ff;" horiz-adv-x="461" 
d="M145 503l139 165l152 -27l-166 -138h-125zM160 184q0 -14 1 -20l106 198q-16 11 -37 11q-25 0 -41.5 -34t-22.5 -74.5t-6 -80.5zM231 77q36 0 53 60t17 129q0 12 -1 17l-106 -197q16 -9 37 -9zM200 -17q-32 0 -57 7l-33 -61h-76l50 92q-65 52 -65 168q0 70 26 132
t82.5 104t133.5 42q34 0 59 -7l34 63h76l-50 -93q62 -51 62 -169q0 -71 -25.5 -132.5t-82 -103.5t-134.5 -42z" />
    <glyph glyph-name="Scommaaccent" unicode="&#x218;" horiz-adv-x="488" 
d="M233 230l-80 39q-50 25 -76.5 66t-26.5 90q0 89 67 146.5t165 57.5q99 0 190 -33l-35 -135q-29 14 -82 30.5t-86 16.5q-67 0 -67 -50q0 -44 58 -72l83 -42q108 -54 108 -161q0 -86 -73 -143t-181 -57q-102 0 -184 32l32 133q104 -49 187 -50q25 1 42 15t17 42
q0 45 -58 75zM159 -99q0 19 24.5 39.5t45.5 20.5t44.5 -26t21.5 -43q-4 -48 -84 -157l-67 27q6 12 18.5 33t21 35.5t8.5 20.5t-17 23t-16 27z" />
    <glyph glyph-name="scommaaccent" unicode="&#x219;" horiz-adv-x="374" 
d="M154 -17q-88 0 -152 35l38 114q69 -44 130 -44q12 0 23.5 8t11.5 21q0 10 -9 18.5t-33 22.5l-54 33q-39 25 -56.5 54.5t-17.5 74.5q0 63 50 105t134 42q88 0 142 -29l-34 -106q-63 37 -119 37q-34 0 -34 -30q0 -14 50 -44l45 -26q42 -25 60 -51.5t18 -72.5
q0 -63 -51.5 -112.5t-141.5 -49.5zM98 -99q0 19 24.5 39.5t45.5 20.5t44.5 -26t21.5 -43q-4 -48 -84 -157l-67 27q6 12 18.5 33t21 35.5t8.5 20.5t-17 23t-16 27z" />
    <glyph glyph-name="uni021A" unicode="&#x21a;" horiz-adv-x="502" 
d="M203 0h-50l34 490l-173 -3l27 125h481l-27 -125l-151 3l-34 -490h-47l-24 -51q40 -14 61 -32t19 -45q-3 -40 -50 -73t-135 -37l-13 59q49 5 73.5 13t25.5 24q1 12 -16.5 21.5t-52.5 17.5l-2 5z" />
    <glyph glyph-name="uni021B" unicode="&#x21b;" horiz-adv-x="336" 
d="M259 -128q-3 -40 -50 -73t-135 -37l-13 59q49 5 73.5 13t25.5 24q1 12 -16.5 21.5t-52.5 17.5l-2 5l46 83q-43 7 -70 38.5t-27 87.5q0 24 26 243h-63l8 86l66 10q8 79 10 95l149 21q-2 -14 -7 -54.5t-7 -61.5h126l-15 -96h-122q-19 -178 -19 -193q0 -49 43 -49
q33 0 68 24l26 -92q-66 -48 -131 -58l-17 -37q40 -14 61 -32t19 -45z" />
    <glyph glyph-name="circumflex" unicode="&#x2c6;" horiz-adv-x="469" 
d="M308 503l-71 66l-79 -66h-109l126 165h136l108 -165h-111z" />
    <glyph glyph-name="caron" unicode="&#x2c7;" horiz-adv-x="462" 
d="M290 508h-137l-107 165h110l71 -67l80 67h108z" />
    <glyph glyph-name="breve" unicode="&#x2d8;" horiz-adv-x="476" 
d="M234 598q71 0 89 81h86q-6 -79 -62 -128t-126 -49q-75 0 -116.5 48t-35.5 129h87q5 -81 78 -81z" />
    <glyph glyph-name="dotaccent" unicode="&#x2d9;" horiz-adv-x="356" 
d="M87 595q2 25 35 58.5t57 33.5t57.5 -28t32.5 -52q-2 -24 -36 -57t-56 -33q-24 0 -57.5 27.5t-32.5 50.5z" />
    <glyph glyph-name="ring" unicode="&#x2da;" horiz-adv-x="378" 
d="M295 595q-3 -42 -37 -72.5t-78 -30.5q-45 0 -73 28t-25 75q3 42 37 72.5t78 30.5q46 0 73.5 -27t24.5 -76zM146 595q-1 -18 10 -30t29 -12t31.5 12t14.5 30q1 19 -10.5 31t-29.5 12t-31 -12t-14 -31z" />
    <glyph glyph-name="ogonek" unicode="&#x2db;" horiz-adv-x="333" 
d="M65 -137q3 34 36 71t90 66h77q-103 -69 -108 -121q-1 -15 10 -24.5t26 -9.5q28 0 49 11l16 -64q-48 -25 -93 -25q-49 0 -77.5 26t-25.5 70z" />
    <glyph glyph-name="tilde" unicode="&#x2dc;" horiz-adv-x="494" 
d="M383 660l49 -53q-15 -31 -58.5 -66.5t-73.5 -35.5q-19 0 -67.5 16.5t-60.5 16.5q-17 0 -40 -17t-28 -25l-42 62q2 4 22.5 25t50.5 43t49 22q23 0 67.5 -16.5t57.5 -16.5q31 0 74 45z" />
    <glyph glyph-name="hungarumlaut" unicode="&#x2dd;" horiz-adv-x="501" 
d="M201 503l122 165l152 -27l-149 -138h-125zM26 503l122 165l152 -27l-149 -138h-125z" />
    <glyph glyph-name="commaaccent" unicode="&#x326;" horiz-adv-x="257" 
d="M68 -99q0 19 24.5 39.5t45.5 20.5t44.5 -26t21.5 -43q-4 -48 -84 -157l-67 27q6 12 18.5 33t21 35.5t8.5 20.5t-17 23t-16 27z" />
    <glyph glyph-name="Wgrave" unicode="&#x1e80;" horiz-adv-x="857" 
d="M539 653h-125l-147 138l153 27zM511 0l-80 356l-136 -356h-174l-79 612h164l42 -389l139 389h140l85 -390l99 390h144l-167 -612h-177z" />
    <glyph glyph-name="wgrave" unicode="&#x1e81;" horiz-adv-x="674" 
d="M459 503h-125l-147 138l153 27zM346 0l-16 134q-49 -94 -94 -135l-161 1l-32 443l149 23l13 -345q71 98 95 253l-9 76h145l27 -327q77 143 84 327h140q-10 -129 -60.5 -248.5t-114.5 -201.5h-166z" />
    <glyph glyph-name="Wacute" unicode="&#x1e82;" horiz-adv-x="857" 
d="M366 653l139 165l152 -27l-166 -138h-125zM511 0l-80 356l-136 -356h-174l-79 612h164l42 -389l139 389h140l85 -390l99 390h144l-167 -612h-177z" />
    <glyph glyph-name="wacute" unicode="&#x1e83;" horiz-adv-x="674" 
d="M262 503l139 165l152 -27l-166 -138h-125zM346 0l-16 134q-49 -94 -94 -135l-161 1l-32 443l149 23l13 -345q71 98 95 253l-9 76h145l27 -327q77 143 84 327h140q-10 -129 -60.5 -248.5t-114.5 -201.5h-166z" />
    <glyph glyph-name="Wdieresis" unicode="&#x1e84;" horiz-adv-x="857" 
d="M479 730q1 21 31 51.5t52 30.5t51.5 -25t28.5 -48q-1 -21 -32.5 -51t-51.5 -30q-22 0 -51 25t-28 47zM283 730q1 21 31 51.5t52 30.5t51.5 -25t28.5 -48q-1 -21 -32 -51t-51 -30q-23 0 -52 25t-28 47zM511 0l-80 356l-136 -356h-174l-79 612h164l42 -389l139 389h140
l85 -390l99 390h144l-167 -612h-177z" />
    <glyph glyph-name="wdieresis" unicode="&#x1e85;" horiz-adv-x="674" 
d="M399 580q1 21 31 51.5t52 30.5t51.5 -25t28.5 -48q-1 -21 -32.5 -51t-51.5 -30q-22 0 -51 25t-28 47zM203 580q1 21 31 51.5t52 30.5t51.5 -25t28.5 -48q-1 -21 -32 -51t-51 -30q-23 0 -52 25t-28 47zM346 0l-16 134q-49 -94 -94 -135l-161 1l-32 443l149 23l13 -345
q71 98 95 253l-9 76h145l27 -327q77 143 84 327h140q-10 -129 -60.5 -248.5t-114.5 -201.5h-166z" />
    <glyph glyph-name="Ygrave" unicode="&#x1ef2;" horiz-adv-x="531" 
d="M398 653h-125l-147 138l153 27zM337 225l-16 -225h-157l16 225h-2l-162 387h167l97 -231l119 231h158z" />
    <glyph glyph-name="ygrave" unicode="&#x1ef3;" horiz-adv-x="434" 
d="M369 503h-125l-147 138l153 27zM-20 -238q-58 0 -87 12l17 125q24 -7 64 -7q101 0 172 99h-71l-53 456l146 19l39 -359q49 123 91 343h141q-6 -63 -23.5 -142.5t-54.5 -178t-86.5 -178.5t-127 -134.5t-167.5 -54.5z" />
    <glyph glyph-name="endash" unicode="&#x2013;" horiz-adv-x="458" 
d="M427 293l-4 -25l-32 -72h-359l3 25l40 72h352z" />
    <glyph glyph-name="emdash" unicode="&#x2014;" horiz-adv-x="677" 
d="M645 293l-3 -25l-33 -72h-577l3 25l40 72h570z" />
    <glyph glyph-name="quoteleft" unicode="&#x2018;" horiz-adv-x="245" 
d="M213 484q-7 -26 -35.5 -48.5t-53.5 -22.5q-29 0 -55 30t-20 70q19 68 129 200l73 -29q-6 -9 -19.5 -28.5t-18.5 -27t-14 -21.5t-12.5 -22t-7.5 -17.5t-5 -18.5q-1 -8 19.5 -29t19.5 -36z" />
    <glyph glyph-name="quoteright" unicode="&#x2019;" horiz-adv-x="245" 
d="M69 622q3 27 29 49.5t52 22.5q29 0 58 -30t26 -70q-6 -63 -106 -200l-76 29q26 43 34 57.5t18 37.5t11 40q0 7 -23.5 28t-22.5 36z" />
    <glyph glyph-name="quotesinglbase" unicode="&#x201a;" horiz-adv-x="245" 
d="M24 75q3 27 29 49.5t52 22.5q29 0 58 -30t26 -70q-6 -63 -106 -200l-76 29q26 43 34 57.5t18 37.5t11 40q0 7 -23.5 28t-22.5 36z" />
    <glyph glyph-name="quotedblleft" unicode="&#x201c;" horiz-adv-x="418" 
d="M407 484q-2 -26 -28 -48.5t-52 -22.5q-29 0 -58.5 30t-26.5 70q8 65 106 200l76 -29q-52 -88 -59 -115q-2 -10 -3 -20q0 -7 23 -28.5t22 -36.5zM213 484q-3 -26 -29.5 -48.5t-51.5 -22.5q-29 0 -58 30t-27 70q8 63 106 200l76 -29q-4 -8 -14 -25t-14 -23.5t-11 -19.5
t-9.5 -19.5t-6.5 -16t-5.5 -17t-1.5 -14.5t23.5 -28.5t22.5 -36.5z" />
    <glyph glyph-name="quotedblright" unicode="&#x201d;" horiz-adv-x="443" 
d="M267 622q3 27 29 49.5t52 22.5q29 0 58 -30t26 -70q-6 -63 -106 -200l-76 29q26 43 34 57.5t18 37.5t11 40q0 7 -23.5 28t-22.5 36zM69 622q3 27 29 49.5t52 22.5q29 0 58 -30t26 -70q-6 -63 -106 -200l-76 29q26 43 34 57.5t18 37.5t11 40q0 7 -23.5 28t-22.5 36z" />
    <glyph glyph-name="quotedblbase" unicode="&#x201e;" horiz-adv-x="445" 
d="M224 75q3 27 29 49.5t52 22.5q29 0 58 -30t26 -70q-6 -63 -106 -200l-76 29q26 43 34 57.5t18 37.5t11 40q0 7 -23.5 28t-22.5 36zM24 75q3 27 29 49.5t52 22.5q29 0 58 -30t26 -70q-6 -63 -106 -200l-76 29q26 43 34 57.5t18 37.5t11 40q0 7 -23.5 28t-22.5 36z" />
    <glyph glyph-name="bullet" unicode="&#x2022;" horiz-adv-x="462" 
d="M86 255q3 40 56.5 94.5t88.5 54.5q38 0 93 -44t53 -85q-4 -41 -58 -94.5t-88 -53.5q-40 0 -94 44t-51 84z" />
    <glyph glyph-name="ellipsis" unicode="&#x2026;" horiz-adv-x="720" 
d="M16 38q1 24 36 56.5t59 32.5t59 -26.5t34 -49.5q-2 -23 -37.5 -55.5t-57.5 -32.5q-25 0 -59.5 26.5t-33.5 48.5zM491 38q2 24 37 56.5t58 32.5q24 0 59 -26.5t34 -49.5q-2 -24 -37.5 -56t-57.5 -32q-24 0 -59 26.5t-34 48.5zM254 38q1 24 36 56.5t59 32.5t59 -26.5
t34 -49.5q-2 -23 -37.5 -55.5t-57.5 -32.5q-25 0 -59.5 26.5t-33.5 48.5z" />
    <glyph glyph-name="guilsinglleft" unicode="&#x2039;" horiz-adv-x="332" 
d="M185 9l-165 223l196 223l85 -43l-118 -180l94 -180z" />
    <glyph glyph-name="guilsinglright" unicode="&#x203a;" horiz-adv-x="332" 
d="M147 455l165 -223l-196 -223l-85 41l118 182l-94 178z" />
    <glyph glyph-name="fraction" unicode="&#x2044;" horiz-adv-x="284" 
d="M-81 2l377 648l69 -43l-377 -647z" />
    <glyph glyph-name="Euro" unicode="&#x20ac;" horiz-adv-x="520" 
d="M490 24q-29 -17 -84 -29t-115 -12q-205 0 -232 204h-80l27 77l50 16q0 2 0.5 7t0.5 8q1 5 2 14.5t1 14.5h-67l26 76l44 17h14q61 212 290 212q94 0 165 -25l-37 -127q-79 27 -156 27q-45 0 -68.5 -19t-35.5 -68h206l-33 -93h-186l-1 -8q-1 -12 -1 -36h179l-33 -93h-133
q27 -75 110 -75q78 0 140 26z" />
    <glyph glyph-name="minus" unicode="&#x2212;" horiz-adv-x="520" 
d="M449 315l-8 -99h-372l8 99h372z" />
    <glyph glyph-name="idotaccent" horiz-adv-x="233" 
d="M58 590q0 24 30 56.5t57 32.5q23 0 54.5 -24.5t31.5 -47.5q0 -24 -30.5 -56.5t-55.5 -32.5q-24 0 -55.5 24t-31.5 48zM62 446l149 21l-33 -467h-148z" />
    <glyph glyph-name="caron.alt" horiz-adv-x="277" 
d="M91 646q1 18 29.5 33.5t51.5 15.5q29 0 40.5 -33t9.5 -72q-4 -61 -106 -190l-59 30q41 69 45 128q1 20 -5 48.5t-6 39.5z" />
    <glyph glyph-name="caron.alt.sc" horiz-adv-x="277" 
d="M91 556q1 18 29.5 33.5t51.5 15.5q29 0 40.5 -33t9.5 -72q-4 -61 -106 -190l-59 30q41 69 45 128q1 20 -5 48.5t-6 39.5z" />
    <glyph glyph-name="caron.alt.case" horiz-adv-x="277" 
d="M91 566q1 18 29.5 33.5t51.5 15.5q29 0 40.5 -33t9.5 -72q-4 -61 -106 -190l-59 30q41 69 45 128q1 20 -5 48.5t-6 39.5z" />
    <glyph glyph-name="commaaccent.case" horiz-adv-x="257" 
d="M68 -99q0 19 24.5 39.5t45.5 20.5t44.5 -26t21.5 -43q-4 -48 -84 -157l-67 27q6 12 18.5 33t21 35.5t8.5 20.5t-17 23t-16 27z" />
    <glyph glyph-name="acute.case" horiz-adv-x="315" 
d="M12 653l139 165l152 -27l-166 -138h-125z" />
    <glyph glyph-name="grave.case" horiz-adv-x="316" 
d="M294 653h-125l-147 138l153 27z" />
    <glyph glyph-name="hungarumlaut.case" horiz-adv-x="501" 
d="M201 653l122 165l152 -27l-149 -138h-125zM26 653l122 165l152 -27l-149 -138h-125z" />
    <glyph glyph-name="circumflex.case" horiz-adv-x="469" 
d="M308 653l-71 66l-79 -66h-109l126 165h136l108 -165h-111z" />
    <glyph glyph-name="caron.case" horiz-adv-x="462" 
d="M290 658h-137l-107 165h110l71 -67l80 67h108z" />
    <glyph glyph-name="breve.case" horiz-adv-x="476" 
d="M234 748q71 0 89 81h86q-6 -79 -62 -128t-126 -49q-75 0 -116.5 48t-35.5 129h87q5 -81 78 -81z" />
    <glyph glyph-name="tilde.case" horiz-adv-x="494" 
d="M383 810l49 -53q-15 -31 -58.5 -66.5t-73.5 -35.5q-19 0 -67.5 16.5t-60.5 16.5q-17 0 -40 -17t-28 -25l-42 62q2 4 22.5 25t50.5 43t49 22q23 0 67.5 -16.5t57.5 -16.5q31 0 74 45z" />
    <glyph glyph-name="macron.case" horiz-adv-x="426" 
d="M362 780l-1 -15l-33 -88h-265l1 15l33 88h265z" />
    <glyph glyph-name="dieresis.case" horiz-adv-x="530" 
d="M282 730q1 21 31.5 51.5t51.5 30.5q22 0 51.5 -25t28.5 -48q-1 -21 -32.5 -51t-51.5 -30q-22 0 -51 25t-28 47zM86 730q1 21 31.5 51.5t51.5 30.5q22 0 51.5 -25t28.5 -48q-1 -21 -32 -51t-51 -30q-23 0 -52 25t-28 47z" />
    <glyph glyph-name="dotaccent.case" horiz-adv-x="356" 
d="M87 745q2 25 35 58.5t57 33.5t57.5 -28t32.5 -52q-2 -24 -36 -57t-56 -33q-24 0 -57.5 27.5t-32.5 50.5z" />
    <glyph glyph-name="ring.case" horiz-adv-x="378" 
d="M295 745q-3 -42 -37 -72.5t-78 -30.5q-45 0 -73 28t-25 75q3 42 37 72.5t78 30.5q46 0 73.5 -27t24.5 -76zM146 745q-1 -18 10 -30t29 -12t31.5 12t14.5 30q1 19 -10.5 31t-29.5 12t-31 -12t-14 -31z" />
    <glyph glyph-name="cedilla.case" horiz-adv-x="301" 
d="M80 -98l54 98h60l-24 -51q40 -14 61 -32t19 -45q-3 -40 -50 -73t-135 -37l-13 59q49 5 73.5 13t25.5 24q1 12 -16.5 21.5t-52.5 17.5z" />
    <glyph glyph-name="ogonek.case" horiz-adv-x="333" 
d="M65 -137q3 34 36 71t90 66h77q-103 -69 -108 -121q-1 -15 10 -24.5t26 -9.5q28 0 49 11l16 -64q-48 -25 -93 -25q-49 0 -77.5 26t-25.5 70z" />
    <glyph glyph-name="zero.fit" horiz-adv-x="520" 
d="M502 376q1 -196 -75.5 -294.5t-197.5 -98.5q-107 0 -159.5 66t-52.5 182q0 91 16 161.5t42 114t62.5 72t74.5 39.5t81 11q106 0 158.5 -66.5t50.5 -186.5zM251 89q93 4 93 260q1 86 -15.5 129.5t-59.5 43.5q-25 0 -43 -17t-33 -80t-15 -172q0 -162 73 -164z" />
    <glyph glyph-name="one.fit" horiz-adv-x="386" 
d="M301 0h-159l32 461l-142 -59l-26 130q12 4 65 21.5t100 33t75 25.5h98z" />
    <glyph glyph-name="two.fit" horiz-adv-x="489" 
d="M429 0h-409l7 114q154 129 213.5 197.5t58.5 117.5q0 34 -25.5 53t-63.5 19q-54 0 -131 -37l-27 120q103 45 210 45q94 0 147.5 -44.5t53.5 -123.5q0 -142 -247 -339l242 5z" />
    <glyph glyph-name="three.fit" horiz-adv-x="460" 
d="M147 -17q-96 0 -156 23l36 129q81 -25 135 -25q49 0 79.5 17.5t30.5 52.5q0 73 -90 73q-50 0 -75 -5l-17 114q187 0 187 82q0 30 -20 45t-52 15q-63 0 -128 -37l-27 117q38 20 97.5 32.5t109.5 12.5q86 0 134.5 -38t48.5 -101q0 -47 -30.5 -90.5t-91.5 -65.5
q58 -14 86.5 -52.5t28.5 -91.5q0 -93 -80.5 -150t-205.5 -57z" />
    <glyph glyph-name="four.fit" horiz-adv-x="549" 
d="M302 211l15 223l-167 -223h152zM501 98h-61l-7 -98h-146l7 98h-295l7 107l313 407h157l-28 -401h85z" />
    <glyph glyph-name="five.fit" horiz-adv-x="492" 
d="M155 -17q-68 0 -151 20l35 124q84 -28 152 -28q46 0 76.5 20t30.5 63q0 79 -127 79q-57 0 -112 -11l43 362h374l-26 -117h-227l-15 -120q33 7 56 7q86 0 138.5 -43t53.5 -120q-1 -115 -85.5 -175.5t-215.5 -60.5z" />
    <glyph glyph-name="six.fit" horiz-adv-x="495" 
d="M477 223q0 -97 -67 -168.5t-183 -71.5q-104 0 -157 66.5t-53 187.5q0 106 27 184.5t74 122.5t103.5 64.5t123.5 20.5q79 0 133 -19l-28 -129q-67 25 -128 25q-58 0 -92 -30.5t-47 -110.5q56 36 121 36q87 0 130 -48t43 -130zM253 89q31 0 52 26.5t21 79.5q0 41 -22 67
t-58 26q-38 0 -72 -23q-1 -13 -1 -42q2 -62 22 -98t58 -36z" />
    <glyph glyph-name="seven.fit" horiz-adv-x="484" 
d="M213 -21l-158 47l245 453h-280l29 133h437l-9 -113q-17 -33 -44.5 -87t-85.5 -167.5t-96 -189.5z" />
    <glyph glyph-name="eight.fit" horiz-adv-x="501" 
d="M224 -17q-105 0 -160 41t-55 113q0 96 114 167q-70 53 -70 140t68 136t165 48q92 1 143 -35.5t51 -103.5q0 -39 -27.5 -81t-78.5 -75q58 -34 81 -67t23 -90q0 -81 -73 -137t-181 -56zM198 470q0 -22 17 -39.5t63 -43.5q59 42 59 86q0 22 -20.5 36.5t-51.5 14.5
q-33 0 -50 -16t-17 -38zM251 88q40 0 60.5 21t20.5 44q0 21 -24 42.5t-87 51.5q-35 -24 -49 -44.5t-14 -46.5q0 -29 26.5 -48.5t66.5 -19.5z" />
    <glyph glyph-name="nine.fit" horiz-adv-x="500" 
d="M254 321q38 0 72 23q1 13 1 42q-3 134 -80 134q-33 0 -53 -25.5t-20 -77.5q0 -44 20.5 -70t59.5 -26zM153 -17q-75 0 -136 19l28 123q46 -19 107 -19q127 0 160 135q-54 -33 -116 -33q-87 0 -130 49.5t-43 131.5q0 97 67 168.5t184 71.5q104 0 156.5 -66t52.5 -188
q0 -85 -20 -153t-52.5 -112t-76.5 -73t-89 -41.5t-92 -12.5z" />
    <glyph glyph-name="zero.osf" horiz-adv-x="532" 
d="M511 302q0 -156 -81.5 -237.5t-193.5 -81.5q-95 0 -155 61t-60 172q0 81 24 144.5t63 100t84.5 55.5t92.5 19q104 0 165 -60.5t61 -172.5zM265 116q43 0 71.5 37.5t28.5 111.5q0 69 -28.5 102.5t-72.5 33.5q-41 0 -69.5 -36t-28.5 -110q0 -69 27.5 -104t71.5 -35z" />
    <glyph glyph-name="one.osf" horiz-adv-x="374" 
d="M308 0h-159l26 369l-142 -59l-26 130q12 4 65 21.5t100 33t75 25.5h97z" />
    <glyph glyph-name="two.osf" horiz-adv-x="477" 
d="M428 0h-409l7 114q138 81 195.5 132t57.5 90q0 37 -25 55t-65 18q-55 0 -131 -38l-27 121q103 45 210 45q95 0 148 -43.5t53 -122.5q0 -117 -206 -249l222 5z" />
    <glyph glyph-name="three.osf" horiz-adv-x="448" 
d="M131 -111q-98 0 -156 23l36 130q78 -26 135 -26q49 0 79 17.5t30 52.5q0 73 -89 73q-50 0 -75 -5l-17 114q187 0 187 82q0 30 -20 45t-52 15q-64 0 -129 -37l-26 117q38 20 97 32.5t109 12.5q86 0 135 -38t49 -101q0 -47 -30.5 -90.5t-92.5 -65.5q116 -29 116 -144
q0 -93 -80.5 -150t-205.5 -57z" />
    <glyph glyph-name="four.osf" horiz-adv-x="515" 
d="M290 114l15 224l-161 -224h146zM485 0h-57l-7 -98h-146l7 98h-288l7 107l307 413h157l-29 -406h80z" />
    <glyph glyph-name="five.osf" horiz-adv-x="468" 
d="M133 -109q-68 0 -151 20l35 125q87 -29 152 -29q46 0 76.5 20t30.5 63q0 79 -127 79q-57 0 -112 -11l43 362h374l-26 -117h-227l-15 -120q33 7 56 7q86 0 138.5 -43t53.5 -120q-1 -115 -85.5 -175.5t-215.5 -60.5z" />
    <glyph glyph-name="six.osf" horiz-adv-x="514" 
d="M489 223q0 -97 -67.5 -168.5t-183.5 -71.5q-104 0 -156.5 66t-52.5 188q0 106 27 184.5t74 122.5t103 64.5t123 20.5q79 0 133 -19l-28 -129q-67 25 -128 25q-58 0 -91.5 -30.5t-47.5 -110.5q58 36 121 36q87 0 130.5 -48t43.5 -130zM264 89q31 0 52 26.5t21 79.5
q0 41 -22 67t-58 26q-35 0 -71 -22q-1 -13 -1 -43q2 -134 79 -134z" />
    <glyph glyph-name="seven.osf" horiz-adv-x="465" 
d="M202 -113l-147 47l245 453h-291l29 133h437l-9 -113q-17 -33 -44.5 -87t-85.5 -167.5t-96 -189.5z" />
    <glyph glyph-name="eight.osf" horiz-adv-x="497" 
d="M226 -17q-105 0 -160 41t-55 113q0 96 114 167q-70 53 -70 140t68 136t165 48q92 1 143 -35.5t51 -103.5q0 -39 -27.5 -81t-78.5 -75q58 -34 81 -67t23 -90q0 -81 -73 -137t-181 -56zM200 470q0 -22 17 -39.5t63 -43.5q59 42 59 86q0 22 -20.5 36.5t-51.5 14.5
q-33 0 -50 -16t-17 -38zM253 88q40 0 60.5 21t20.5 44q0 21 -24 42.5t-87 51.5q-35 -24 -49 -44.5t-14 -46.5q0 -29 26.5 -48.5t66.5 -19.5z" />
    <glyph glyph-name="nine.osf" horiz-adv-x="516" 
d="M258 229q35 0 71 22q1 13 1 43q-2 134 -79 134q-33 0 -53 -25.5t-20 -77.5q0 -44 20 -70t60 -26zM157 -109q-82 0 -136 19l27 123q46 -19 108 -19q59 0 99.5 29.5t60.5 105.5q-54 -33 -116 -33q-87 0 -130.5 49t-43.5 132q0 97 67.5 168.5t183.5 71.5q104 0 156.5 -66.5
t52.5 -188.5q0 -104 -29.5 -183t-79 -122.5t-105 -64.5t-115.5 -21z" />
    <glyph glyph-name="zero.tosf" horiz-adv-x="517" 
d="M503 302q0 -156 -81.5 -237.5t-193.5 -81.5q-95 0 -155 61t-60 172q0 81 24 144.5t63 100t84.5 55.5t92.5 19q104 0 165 -60.5t61 -172.5zM257 116q43 0 71.5 37.5t28.5 111.5q0 69 -28.5 102.5t-72.5 33.5q-41 0 -69.5 -36t-28.5 -110q0 -69 27.5 -104t71.5 -35z" />
    <glyph glyph-name="one.tosf" horiz-adv-x="517" 
d="M411 0h-159l26 369l-142 -59l-26 130q12 4 65 21.5t100 33t75 25.5h97z" />
    <glyph glyph-name="two.tosf" horiz-adv-x="517" 
d="M456 0h-409l7 114q138 81 195.5 132t57.5 90q0 37 -25 55t-65 18q-55 0 -131 -38l-27 121q103 45 210 45q95 0 148 -43.5t53 -122.5q0 -117 -206 -249l222 5z" />
    <glyph glyph-name="three.tosf" horiz-adv-x="517" 
d="M173 -111q-98 0 -156 23l36 130q78 -26 135 -26q49 0 79 17.5t30 52.5q0 73 -89 73q-50 0 -75 -5l-17 114q187 0 187 82q0 30 -20 45t-52 15q-64 0 -129 -37l-26 117q38 20 97 32.5t109 12.5q86 0 135 -38t49 -101q0 -47 -30.5 -90.5t-92.5 -65.5q116 -29 116 -144
q0 -93 -80.5 -150t-205.5 -57z" />
    <glyph glyph-name="four.tosf" horiz-adv-x="517" 
d="M285 114l15 224l-161 -224h146zM480 0h-57l-7 -98h-146l7 98h-288l7 107l307 413h157l-29 -406h80z" />
    <glyph glyph-name="five.tosf" horiz-adv-x="517" 
d="M157 -109q-68 0 -151 20l35 125q87 -29 152 -29q46 0 76.5 20t30.5 63q0 79 -127 79q-57 0 -112 -11l43 362h374l-26 -117h-227l-15 -120q33 7 56 7q86 0 138.5 -43t53.5 -120q-1 -115 -85.5 -175.5t-215.5 -60.5z" />
    <glyph glyph-name="six.tosf" horiz-adv-x="517" 
d="M489 223q0 -97 -67.5 -168.5t-183.5 -71.5q-104 0 -156.5 66t-52.5 188q0 106 27 184.5t74 122.5t103 64.5t123 20.5q79 0 133 -19l-28 -129q-67 25 -128 25q-58 0 -91.5 -30.5t-47.5 -110.5q58 36 121 36q87 0 130.5 -48t43.5 -130zM264 89q31 0 52 26.5t21 79.5
q0 41 -22 67t-58 26q-35 0 -71 -22q-1 -13 -1 -43q2 -134 79 -134z" />
    <glyph glyph-name="seven.tosf" horiz-adv-x="517" 
d="M231 -113l-147 47l245 453h-291l29 133h437l-9 -113q-17 -33 -44.5 -87t-85.5 -167.5t-96 -189.5z" />
    <glyph glyph-name="eight.tosf" horiz-adv-x="517" 
d="M236 -17q-105 0 -160 41t-55 113q0 96 114 167q-70 53 -70 140t68 136t165 48q92 1 143 -35.5t51 -103.5q0 -39 -27.5 -81t-78.5 -75q58 -34 81 -67t23 -90q0 -81 -73 -137t-181 -56zM210 470q0 -22 17 -39.5t63 -43.5q59 42 59 86q0 22 -20.5 36.5t-51.5 14.5
q-33 0 -50 -16t-17 -38zM263 88q40 0 60.5 21t20.5 44q0 21 -24 42.5t-87 51.5q-35 -24 -49 -44.5t-14 -46.5q0 -29 26.5 -48.5t66.5 -19.5z" />
    <glyph glyph-name="nine.tosf" horiz-adv-x="517" 
d="M256 229q35 0 71 22q1 13 1 43q-2 134 -79 134q-33 0 -53 -25.5t-20 -77.5q0 -44 20 -70t60 -26zM155 -109q-82 0 -136 19l27 123q46 -19 108 -19q59 0 99.5 29.5t60.5 105.5q-54 -33 -116 -33q-87 0 -130.5 49t-43.5 132q0 97 67.5 168.5t183.5 71.5q104 0 156.5 -66.5
t52.5 -188.5q0 -104 -29.5 -183t-79 -122.5t-105 -64.5t-115.5 -21z" />
    <glyph glyph-name="A.sc" horiz-adv-x="508" 
d="M295 212l-35 189l-68 -189h103zM334 0l-18 97h-165l-35 -97h-146l207 520h208l105 -520h-156z" />
    <glyph glyph-name="Agrave.sc" horiz-adv-x="508" 
d="M390 566h-125l-147 138l153 27zM295 212l-35 189l-68 -189h103zM334 0l-18 97h-165l-35 -97h-146l207 520h208l105 -520h-156z" />
    <glyph glyph-name="Aacute.sc" horiz-adv-x="508" 
d="M191 566l139 165l152 -27l-166 -138h-125zM295 212l-35 189l-68 -189h103zM334 0l-18 97h-165l-35 -97h-146l207 520h208l105 -520h-156z" />
    <glyph glyph-name="Acircumflex.sc" horiz-adv-x="508" 
d="M358 566l-71 66l-79 -66h-109l126 165h136l108 -165h-111zM295 212l-35 189l-68 -189h103zM334 0l-18 97h-165l-35 -97h-146l207 520h208l105 -520h-156z" />
    <glyph glyph-name="Atilde.sc" horiz-adv-x="508" 
d="M421 724l49 -54q-15 -31 -58.5 -66.5t-73.5 -35.5q-19 0 -67.5 16.5t-60.5 16.5q-17 0 -40 -17t-28 -25l-42 62q2 4 22.5 25t50.5 43t49 22q23 0 67.5 -16.5t57.5 -16.5q30 0 74 46zM295 212l-35 189l-68 -189h103zM334 0l-18 97h-165l-35 -97h-146l207 520h208l105 -520
h-156z" />
    <glyph glyph-name="Adieresis.sc" horiz-adv-x="508" 
d="M306 643q1 22 31 52.5t52 30.5t51.5 -25.5t28.5 -48.5q-1 -21 -32.5 -50.5t-51.5 -29.5q-22 0 -51 24.5t-28 46.5zM110 643q1 22 31 52.5t52 30.5t51.5 -25.5t28.5 -48.5q-1 -21 -32 -50.5t-51 -29.5q-23 0 -52 24.5t-28 46.5zM295 212l-35 189l-68 -189h103zM334 0
l-18 97h-165l-35 -97h-146l207 520h208l105 -520h-156z" />
    <glyph glyph-name="Aring.sc" horiz-adv-x="508" 
d="M393 658q-3 -42 -37 -72t-78 -30q-45 0 -73 27.5t-25 74.5q3 42 37 72.5t78 30.5q46 0 73.5 -27t24.5 -76zM244 658q-1 -18 10 -30t29 -12t31.5 12t14.5 30q1 19 -10.5 31.5t-29.5 12.5t-31 -12.5t-14 -31.5zM295 212l-35 189l-68 -189h103zM334 0l-18 97h-165l-35 -97
h-146l207 520h208l105 -520h-156z" />
    <glyph glyph-name="Amacron.sc" horiz-adv-x="508" 
d="M439 693l-1 -15l-33 -87h-265l1 15l33 87h265zM295 212l-35 189l-68 -189h103zM334 0l-18 97h-165l-35 -97h-146l207 520h208l105 -520h-156z" />
    <glyph glyph-name="Abreve.sc" horiz-adv-x="508" 
d="M292 661q71 0 89 81h86q-6 -79 -62 -128t-126 -49q-75 0 -116.5 48t-35.5 129h87q6 -81 78 -81zM295 212l-35 189l-68 -189h103zM334 0l-18 97h-165l-35 -97h-146l207 520h208l105 -520h-156z" />
    <glyph glyph-name="Aogonek.sc" horiz-adv-x="508" 
d="M295 212l-35 189l-68 -189h103zM410 0h-76l-18 97h-165l-35 -97h-146l207 520h208l105 -520h-3q-103 -69 -108 -121q-1 -15 10 -24.5t26 -9.5q28 0 49 11l16 -64q-47 -25 -93 -25q-49 0 -77.5 26t-25.5 70q3 34 36 71t90 66z" />
    <glyph glyph-name="Acaron.sc" horiz-adv-x="508" 
d="M355 572h-137l-107 165h110l71 -67l80 67h108zM295 212l-35 189l-68 -189h103zM334 0l-18 97h-165l-35 -97h-146l207 520h208l105 -520h-156z" />
    <glyph glyph-name="B.sc" horiz-adv-x="484" 
d="M242 427h-26l-9 -116h33q69 0 69 55q0 24 -19 42.5t-48 18.5zM235 221h-36l-10 -128h34q84 0 84 60q0 29 -20.5 48.5t-51.5 19.5zM31 0l39 520h189q193 0 193 -125q0 -72 -79 -121q40 -13 65.5 -40.5t25.5 -66.5q0 -79 -65 -123t-174 -44h-194z" />
    <glyph glyph-name="C.sc" horiz-adv-x="469" 
d="M411 127l18 -109q-31 -15 -76 -24.5t-77 -8.5q-129 -1 -193.5 60t-64.5 189q0 99 41 169t104.5 102t141.5 32q104 0 155 -22l-32 -122q-78 24 -127 24q-120 0 -120 -166q0 -144 125 -144q49 0 105 20z" />
    <glyph glyph-name="Ccedilla.sc" horiz-adv-x="469" 
d="M366 -128q-3 -40 -50 -73t-135 -37l-13 59q49 5 73.5 13t25.5 24q1 12 -16.5 21.5t-52.5 17.5l-2 5l46 84q-112 7 -168 67.5t-56 180.5q0 99 41 169t104.5 102t141.5 32q104 0 155 -22l-32 -122q-78 24 -127 24q-120 0 -120 -166q0 -144 125 -144q49 0 105 20l18 -109
q-53 -25 -126 -32l-17 -37q40 -14 61 -32t19 -45z" />
    <glyph glyph-name="Cacute.sc" horiz-adv-x="469" 
d="M211 566l139 165l152 -27l-166 -138h-125zM411 127l18 -109q-31 -15 -76 -24.5t-77 -8.5q-129 -1 -193.5 60t-64.5 189q0 99 41 169t104.5 102t141.5 32q104 0 155 -22l-32 -122q-78 24 -127 24q-120 0 -120 -166q0 -144 125 -144q49 0 105 20z" />
    <glyph glyph-name="Ccircumflex.sc" horiz-adv-x="469" 
d="M373 566l-71 66l-79 -66h-109l126 165h136l108 -165h-111zM411 127l18 -109q-31 -15 -76 -24.5t-77 -8.5q-129 -1 -193.5 60t-64.5 189q0 99 41 169t104.5 102t141.5 32q104 0 155 -22l-32 -122q-78 24 -127 24q-120 0 -120 -166q0 -144 125 -144q49 0 105 20z" />
    <glyph glyph-name="Cdotaccent.sc" horiz-adv-x="469" 
d="M207 658q2 25 35 58.5t57 33.5t57.5 -27.5t32.5 -51.5q-2 -24 -36 -57.5t-56 -33.5q-24 0 -57.5 27.5t-32.5 50.5zM411 127l18 -109q-31 -15 -76 -24.5t-77 -8.5q-129 -1 -193.5 60t-64.5 189q0 99 41 169t104.5 102t141.5 32q104 0 155 -22l-32 -122q-78 24 -127 24
q-120 0 -120 -166q0 -144 125 -144q49 0 105 20z" />
    <glyph glyph-name="Ccaron.sc" horiz-adv-x="469" 
d="M364 572h-137l-107 165h110l71 -67l80 67h108zM411 127l18 -109q-31 -15 -76 -24.5t-77 -8.5q-129 -1 -193.5 60t-64.5 189q0 99 41 169t104.5 102t141.5 32q104 0 155 -22l-32 -122q-78 24 -127 24q-120 0 -120 -166q0 -144 125 -144q49 0 105 20z" />
    <glyph glyph-name="D.sc" horiz-adv-x="543" 
d="M70 520h195q120 0 189.5 -54t69.5 -171q0 -136 -85.5 -215.5t-209.5 -79.5h-198zM222 414l-23 -308h34q63 0 95 39t32 128q0 66 -31 103.5t-76 37.5h-31z" />
    <glyph glyph-name="Dcaron.sc" horiz-adv-x="543" 
d="M358 572h-137l-107 165h110l71 -67l80 67h108zM70 520h195q120 0 189.5 -54t69.5 -171q0 -136 -85.5 -215.5t-209.5 -79.5h-198zM222 414l-23 -308h34q63 0 95 39t32 128q0 66 -31 103.5t-76 37.5h-31z" />
    <glyph glyph-name="E.sc" horiz-adv-x="442" 
d="M31 0l39 520h360l-27 -108l-182 2l-7 -95h180l-29 -108l-159 6l-8 -107l216 2l-28 -112h-355z" />
    <glyph glyph-name="Egrave.sc" horiz-adv-x="442" 
d="M393 566h-125l-147 138l153 27zM31 0l39 520h360l-27 -108l-182 2l-7 -95h180l-29 -108l-159 6l-8 -107l216 2l-28 -112h-355z" />
    <glyph glyph-name="Eacute.sc" horiz-adv-x="442" 
d="M154 566l139 165l152 -27l-166 -138h-125zM31 0l39 520h360l-27 -108l-182 2l-7 -95h180l-29 -108l-159 6l-8 -107l216 2l-28 -112h-355z" />
    <glyph glyph-name="Ecircumflex.sc" horiz-adv-x="442" 
d="M333 566l-71 66l-79 -66h-109l126 165h136l108 -165h-111zM31 0l39 520h360l-27 -108l-182 2l-7 -95h180l-29 -108l-159 6l-8 -107l216 2l-28 -112h-355z" />
    <glyph glyph-name="Edieresis.sc" horiz-adv-x="442" 
d="M281 643q1 22 31 52.5t52 30.5t51.5 -25.5t28.5 -48.5q-1 -21 -32.5 -50.5t-51.5 -29.5q-22 0 -51 24.5t-28 46.5zM85 643q1 22 31 52.5t52 30.5t51.5 -25.5t28.5 -48.5q-1 -21 -32 -50.5t-51 -29.5q-23 0 -52 24.5t-28 46.5zM31 0l39 520h360l-27 -108l-182 2l-7 -95
h180l-29 -108l-159 6l-8 -107l216 2l-28 -112h-355z" />
    <glyph glyph-name="Emacron.sc" horiz-adv-x="442" 
d="M402 693l-1 -15l-33 -87h-265l1 15l33 87h265zM31 0l39 520h360l-27 -108l-182 2l-7 -95h180l-29 -108l-159 6l-8 -107l216 2l-28 -112h-355z" />
    <glyph glyph-name="Ebreve.sc" horiz-adv-x="442" 
d="M253 661q71 0 89 81h86q-6 -79 -62 -128t-126 -49q-75 0 -116.5 48t-35.5 129h87q6 -81 78 -81zM31 0l39 520h360l-27 -108l-182 2l-7 -95h180l-29 -108l-159 6l-8 -107l216 2l-28 -112h-355z" />
    <glyph glyph-name="Edotaccent.sc" horiz-adv-x="442" 
d="M176 658q2 25 35 58.5t57 33.5t57.5 -27.5t32.5 -51.5q-2 -24 -36 -57.5t-56 -33.5q-24 0 -57.5 27.5t-32.5 50.5zM31 0l39 520h360l-27 -108l-182 2l-7 -95h180l-29 -108l-159 6l-8 -107l216 2l-28 -112h-355z" />
    <glyph glyph-name="Eogonek.sc" horiz-adv-x="442" 
d="M31 0l39 520h360l-27 -108l-182 2l-7 -95h180l-29 -108l-159 6l-8 -107l216 2l-28 -112h-355zM183 -137q3 34 36 71t90 66h77q-103 -69 -108 -121q-1 -15 10 -24.5t26 -9.5q28 0 49 11l16 -64q-47 -25 -93 -25q-49 0 -77.5 26t-25.5 70z" />
    <glyph glyph-name="Ecaron.sc" horiz-adv-x="442" 
d="M330 572h-137l-107 165h110l71 -67l80 67h108zM33 0l39 520h360l-27 -108l-182 2l-7 -95h180l-29 -108l-159 6l-8 -107l216 2l-28 -112h-355z" />
    <glyph glyph-name="F.sc" horiz-adv-x="429" 
d="M365 195l-160 5l-15 -200h-159l39 520h360l-27 -108l-182 2l-9 -115h182z" />
    <glyph glyph-name="G.sc" horiz-adv-x="513" 
d="M461 21q-25 -14 -77.5 -25.5t-113.5 -11.5q-123 0 -187.5 62.5t-64.5 185.5q0 81 25 142t68.5 95.5t96.5 51.5t115 17q47 0 99 -9.5t77 -22.5l-49 -120q-76 30 -133 30q-136 0 -136 -163q0 -151 124 -151q10 0 16 1l12 167h146z" />
    <glyph glyph-name="Gcircumflex.sc" horiz-adv-x="513" 
d="M389 566l-71 66l-79 -66h-109l126 165h136l108 -165h-111zM461 21q-25 -14 -77.5 -25.5t-113.5 -11.5q-123 0 -187.5 62.5t-64.5 185.5q0 81 25 142t68.5 95.5t96.5 51.5t115 17q47 0 99 -9.5t77 -22.5l-49 -120q-76 30 -133 30q-136 0 -136 -163q0 -151 124 -151
q10 0 16 1l12 167h146z" />
    <glyph glyph-name="Gbreve.sc" horiz-adv-x="513" 
d="M319 661q71 0 89 81h86q-6 -79 -62 -128t-126 -49q-75 0 -116.5 48t-35.5 129h87q6 -81 78 -81zM461 21q-25 -14 -77.5 -25.5t-113.5 -11.5q-123 0 -187.5 62.5t-64.5 185.5q0 81 25 142t68.5 95.5t96.5 51.5t115 17q47 0 99 -9.5t77 -22.5l-49 -120q-76 30 -133 30
q-136 0 -136 -163q0 -151 124 -151q10 0 16 1l12 167h146z" />
    <glyph glyph-name="Gdotaccent.sc" horiz-adv-x="513" 
d="M224 658q2 25 35 58.5t57 33.5t57.5 -27.5t32.5 -51.5q-2 -24 -36 -57.5t-56 -33.5q-24 0 -57.5 27.5t-32.5 50.5zM461 21q-25 -14 -77.5 -25.5t-113.5 -11.5q-123 0 -187.5 62.5t-64.5 185.5q0 81 25 142t68.5 95.5t96.5 51.5t115 17q47 0 99 -9.5t77 -22.5l-49 -120
q-76 30 -133 30q-136 0 -136 -163q0 -151 124 -151q10 0 16 1l12 167h146z" />
    <glyph glyph-name="Gcommaaccent.sc" horiz-adv-x="513" 
d="M461 21q-25 -14 -77.5 -25.5t-113.5 -11.5q-123 0 -187.5 62.5t-64.5 185.5q0 81 25 142t68.5 95.5t96.5 51.5t115 17q47 0 99 -9.5t77 -22.5l-49 -120q-76 30 -133 30q-136 0 -136 -163q0 -151 124 -151q10 0 16 1l12 167h146zM188 -99q0 19 24.5 39.5t45.5 20.5
t44.5 -26t21.5 -43q-4 -48 -84 -157l-67 27q6 12 18.5 33t21 35.5t8.5 20.5t-17 23t-16 27z" />
    <glyph glyph-name="H.sc" horiz-adv-x="565" 
d="M335 0l16 204h-146l-15 -204h-159l39 520h159l-14 -188h146l14 188h159l-39 -520h-160z" />
    <glyph glyph-name="Hcircumflex.sc" horiz-adv-x="565" 
d="M381 566l-71 66l-79 -66h-109l126 165h136l108 -165h-111zM335 0l16 204h-146l-15 -204h-159l39 520h159l-14 -188h146l14 188h159l-39 -520h-160z" />
    <glyph glyph-name="I.sc" horiz-adv-x="260" 
d="M229 520l-39 -520h-159l39 520h159z" />
    <glyph glyph-name="Igrave.sc" horiz-adv-x="260" 
d="M243 566h-125l-147 138l153 27zM229 520l-39 -520h-159l39 520h159z" />
    <glyph glyph-name="Iacute.sc" horiz-adv-x="260" 
d="M64 566l139 165l152 -27l-166 -138h-125zM229 520l-39 -520h-159l39 520h159z" />
    <glyph glyph-name="Icircumflex.sc" horiz-adv-x="260" 
d="M229 566l-71 66l-79 -66h-109l126 165h136l108 -165h-111zM229 520l-39 -520h-159l39 520h159z" />
    <glyph glyph-name="Idieresis.sc" horiz-adv-x="260" 
d="M179 643q1 22 31 52.5t52 30.5t51.5 -25.5t28.5 -48.5q-1 -21 -32.5 -50.5t-51.5 -29.5q-22 0 -51 24.5t-28 46.5zM-17 643q1 22 31 52.5t52 30.5t51.5 -25.5t28.5 -48.5q-1 -21 -32 -50.5t-51 -29.5q-23 0 -52 24.5t-28 46.5zM229 520l-39 -520h-159l39 520h159z" />
    <glyph glyph-name="Itilde.sc" horiz-adv-x="260" 
d="M301 724l49 -54q-15 -31 -58.5 -66.5t-73.5 -35.5q-19 0 -67.5 16.5t-60.5 16.5q-17 0 -40 -17t-28 -25l-42 62q2 4 22.5 25t50.5 43t49 22q23 0 67.5 -16.5t57.5 -16.5q30 0 74 46zM229 520l-39 -520h-159l39 520h159z" />
    <glyph glyph-name="Imacron.sc" horiz-adv-x="260" 
d="M319 693l-1 -15l-33 -87h-265l1 15l33 87h265zM229 520l-39 -520h-159l39 520h159z" />
    <glyph glyph-name="Ibreve.sc" horiz-adv-x="260" 
d="M170 661q71 0 89 81h86q-6 -79 -62 -128t-126 -49q-75 0 -116.5 48t-35.5 129h87q6 -81 78 -81zM229 520l-39 -520h-159l39 520h159z" />
    <glyph glyph-name="Iogonek.sc" horiz-adv-x="260" 
d="M111 0h-80l39 520h159l-39 -520h-2q-103 -69 -108 -121q-1 -15 10 -24.5t26 -9.5q28 0 49 11l16 -64q-48 -25 -93 -25q-49 0 -77.5 26t-25.5 70q3 34 36 71t90 66z" />
    <glyph glyph-name="Idotaccent.sc" horiz-adv-x="260" 
d="M72 658q2 25 35 58.5t57 33.5t57.5 -27.5t32.5 -51.5q-2 -24 -36 -57.5t-56 -33.5q-24 0 -57.5 27.5t-32.5 50.5zM229 520l-39 -520h-159l39 520h159z" />
    <glyph glyph-name="J.sc" horiz-adv-x="352" 
d="M321 520l-28 -371q-5 -73 -60 -119t-140 -46q-61 0 -105 21l30 126q28 -14 68 -14q43 0 47 52l27 351h161z" />
    <glyph glyph-name="Jcircumflex.sc" horiz-adv-x="357" 
d="M317 566l-71 66l-79 -66h-109l126 165h136l108 -165h-111zM321 520l-28 -371q-5 -73 -60 -119t-140 -46q-61 0 -105 21l30 126q28 -14 68 -14q43 0 47 52l27 351h161z" />
    <glyph glyph-name="K.sc" horiz-adv-x="538" 
d="M336 0q-126 274 -126 275l175 245h170l-186 -237l148 -283h-181zM227 520l-39 -520h-157l39 520h157z" />
    <glyph glyph-name="Kcommaaccent.sc" horiz-adv-x="538" 
d="M336 0q-126 274 -126 275l175 245h170l-186 -237l148 -283h-181zM227 520l-39 -520h-157l39 520h157zM186 -99q0 19 24.5 39.5t45.5 20.5t44.5 -26t21.5 -43q-4 -48 -84 -157l-67 27q6 12 18.5 33t21 35.5t8.5 20.5t-17 23t-16 27z" />
    <glyph glyph-name="L.sc" horiz-adv-x="427" 
d="M31 0l39 520h159l-30 -401l214 4l-22 -123h-360z" />
    <glyph glyph-name="Lacute.sc" horiz-adv-x="427" 
d="M67 566l139 165l152 -27l-166 -138h-125zM31 0l39 520h159l-30 -401l214 4l-22 -123h-360z" />
    <glyph glyph-name="Lcommaaccent.sc" horiz-adv-x="427" 
d="M31 0l39 520h159l-30 -401l214 4l-22 -123h-360zM131 -99q0 19 24.5 39.5t45.5 20.5t44.5 -26t21.5 -43q-4 -48 -84 -157l-67 27q6 12 18.5 33t21 35.5t8.5 20.5t-17 23t-16 27z" />
    <glyph glyph-name="Lcaron.sc" horiz-adv-x="427" 
d="M292 489q1 18 29.5 33.5t51.5 15.5q29 0 40.5 -33t9.5 -72q-4 -61 -106 -190l-59 30q41 69 45 128q1 20 -5 48.5t-6 39.5zM31 0l39 520h159l-30 -401l214 4l-22 -123h-360z" />
    <glyph glyph-name="M.sc" horiz-adv-x="742" 
d="M276 0l-71 311l-43 -311h-148l85 520h202l71 -297l106 297h207l5 -520h-154l-1 309l-111 -309h-148z" />
    <glyph glyph-name="N.sc" horiz-adv-x="579" 
d="M369 0l-170 279l-19 -279h-149l39 520h147l166 -286l17 286h148l-37 -520h-142z" />
    <glyph glyph-name="Ntilde.sc" horiz-adv-x="579" 
d="M471 724l49 -54q-15 -31 -58.5 -66.5t-73.5 -35.5q-19 0 -67.5 16.5t-60.5 16.5q-17 0 -40 -17t-28 -25l-42 62q2 4 22.5 25t50.5 43t49 22q23 0 67.5 -16.5t57.5 -16.5q30 0 74 46zM369 0l-170 279l-19 -279h-149l39 520h147l166 -286l17 286h148l-37 -520h-142z" />
    <glyph glyph-name="Nacute.sc" horiz-adv-x="579" 
d="M205 566l139 165l152 -27l-166 -138h-125zM369 0l-170 279l-19 -279h-149l39 520h147l166 -286l17 286h148l-37 -520h-142z" />
    <glyph glyph-name="Ncommaaccent.sc" horiz-adv-x="579" 
d="M369 0l-170 279l-19 -279h-149l39 520h147l166 -286l17 286h148l-37 -520h-142zM210 -99q0 19 24.5 39.5t45.5 20.5t44.5 -26t21.5 -43q-4 -48 -84 -157l-67 27q6 12 18.5 33t21 35.5t8.5 20.5t-17 23t-16 27z" />
    <glyph glyph-name="Ncaron.sc" horiz-adv-x="579" 
d="M396 572h-137l-107 165h110l71 -67l80 67h108zM369 0l-170 279l-19 -279h-149l39 520h147l166 -286l17 286h148l-37 -520h-142z" />
    <glyph glyph-name="O.sc" horiz-adv-x="541" 
d="M523 299q0 -55 -14.5 -107t-44.5 -100t-86 -77.5t-130 -29.5q-115 -1 -172.5 63.5t-57.5 172.5q0 61 16.5 116t48.5 100.5t87 72.5t125 27q114 0 171 -64.5t57 -173.5zM280 98q37 0 58 45t21 131q0 148 -97 148q-81 0 -81 -176q0 -79 24.5 -113.5t74.5 -34.5z" />
    <glyph glyph-name="Ograve.sc" horiz-adv-x="541" 
d="M417 566h-125l-147 138l153 27zM523 299q0 -55 -14.5 -107t-44.5 -100t-86 -77.5t-130 -29.5q-115 -1 -172.5 63.5t-57.5 172.5q0 61 16.5 116t48.5 100.5t87 72.5t125 27q114 0 171 -64.5t57 -173.5zM280 98q37 0 58 45t21 131q0 148 -97 148q-81 0 -81 -176
q0 -79 24.5 -113.5t74.5 -34.5z" />
    <glyph glyph-name="Oacute.sc" horiz-adv-x="541" 
d="M215 566l139 165l152 -27l-166 -138h-125zM523 299q0 -55 -14.5 -107t-44.5 -100t-86 -77.5t-130 -29.5q-115 -1 -172.5 63.5t-57.5 172.5q0 61 16.5 116t48.5 100.5t87 72.5t125 27q114 0 171 -64.5t57 -173.5zM280 98q37 0 58 45t21 131q0 148 -97 148q-81 0 -81 -176
q0 -79 24.5 -113.5t74.5 -34.5z" />
    <glyph glyph-name="Ocircumflex.sc" horiz-adv-x="541" 
d="M379 566l-71 66l-79 -66h-109l126 165h136l108 -165h-111zM523 299q0 -55 -14.5 -107t-44.5 -100t-86 -77.5t-130 -29.5q-115 -1 -172.5 63.5t-57.5 172.5q0 61 16.5 116t48.5 100.5t87 72.5t125 27q114 0 171 -64.5t57 -173.5zM280 98q37 0 58 45t21 131q0 148 -97 148
q-81 0 -81 -176q0 -79 24.5 -113.5t74.5 -34.5z" />
    <glyph glyph-name="Otilde.sc" horiz-adv-x="541" 
d="M424 724l49 -54q-15 -31 -58.5 -66.5t-73.5 -35.5q-19 0 -67.5 16.5t-60.5 16.5q-17 0 -40 -17t-28 -25l-42 62q2 4 22.5 25t50.5 43t49 22q23 0 67.5 -16.5t57.5 -16.5q30 0 74 46zM523 299q0 -55 -14.5 -107t-44.5 -100t-86 -77.5t-130 -29.5q-115 -1 -172.5 63.5
t-57.5 172.5q0 61 16.5 116t48.5 100.5t87 72.5t125 27q114 0 171 -64.5t57 -173.5zM280 98q37 0 58 45t21 131q0 148 -97 148q-81 0 -81 -176q0 -79 24.5 -113.5t74.5 -34.5z" />
    <glyph glyph-name="Odieresis.sc" horiz-adv-x="541" 
d="M319 643q1 22 31 52.5t52 30.5t51.5 -25.5t28.5 -48.5q-1 -21 -32.5 -50.5t-51.5 -29.5q-22 0 -51 24.5t-28 46.5zM123 643q1 22 31 52.5t52 30.5t51.5 -25.5t28.5 -48.5q-1 -21 -32 -50.5t-51 -29.5q-23 0 -52 24.5t-28 46.5zM523 299q0 -55 -14.5 -107t-44.5 -100
t-86 -77.5t-130 -29.5q-115 -1 -172.5 63.5t-57.5 172.5q0 61 16.5 116t48.5 100.5t87 72.5t125 27q114 0 171 -64.5t57 -173.5zM280 98q37 0 58 45t21 131q0 148 -97 148q-81 0 -81 -176q0 -79 24.5 -113.5t74.5 -34.5z" />
    <glyph glyph-name="Omacron.sc" horiz-adv-x="541" 
d="M443 693l-1 -15l-33 -87h-265l1 15l33 87h265zM523 299q0 -55 -14.5 -107t-44.5 -100t-86 -77.5t-130 -29.5q-115 -1 -172.5 63.5t-57.5 172.5q0 61 16.5 116t48.5 100.5t87 72.5t125 27q114 0 171 -64.5t57 -173.5zM280 98q37 0 58 45t21 131q0 148 -97 148
q-81 0 -81 -176q0 -79 24.5 -113.5t74.5 -34.5z" />
    <glyph glyph-name="Obreve.sc" horiz-adv-x="541" 
d="M293 661q71 0 89 81h86q-6 -79 -62 -128t-126 -49q-75 0 -116.5 48t-35.5 129h87q6 -81 78 -81zM523 299q0 -55 -14.5 -107t-44.5 -100t-86 -77.5t-130 -29.5q-115 -1 -172.5 63.5t-57.5 172.5q0 61 16.5 116t48.5 100.5t87 72.5t125 27q114 0 171 -64.5t57 -173.5z
M280 98q37 0 58 45t21 131q0 148 -97 148q-81 0 -81 -176q0 -79 24.5 -113.5t74.5 -34.5z" />
    <glyph glyph-name="Ohungarumlaut.sc" horiz-adv-x="541" 
d="M304 566l122 165l152 -27l-149 -138h-125zM129 566l122 165l152 -27l-149 -138h-125zM523 299q0 -55 -14.5 -107t-44.5 -100t-86 -77.5t-130 -29.5q-115 -1 -172.5 63.5t-57.5 172.5q0 61 16.5 116t48.5 100.5t87 72.5t125 27q114 0 171 -64.5t57 -173.5zM280 98
q37 0 58 45t21 131q0 148 -97 148q-81 0 -81 -176q0 -79 24.5 -113.5t74.5 -34.5z" />
    <glyph glyph-name="P.sc" horiz-adv-x="487" 
d="M245 414h-24l-11 -143h38q71 0 71 66q0 35 -20 56t-54 21zM243 167h-40l-13 -167h-159l39 520h196q104 0 157.5 -41.5t53.5 -119.5q0 -83 -65.5 -137.5t-168.5 -54.5z" />
    <glyph glyph-name="Q.sc" horiz-adv-x="541" 
d="M366 -178q-47 0 -118.5 26.5t-89.5 26.5q-35 0 -60 -25l-35 91q61 18 122 50q-83 16 -125 77t-42 153q0 61 16.5 116t48.5 100.5t87 72.5t125 27q114 0 171 -64.5t57 -173.5q0 -78 -28.5 -151.5t-89.5 -116.5l1 -1q-81 -54 -161 -87q92 -12 140 -12q51 0 101 24v-101
q-49 -32 -120 -32zM280 98q37 0 58 45t21 131q0 148 -97 148q-81 0 -81 -176q0 -79 24.5 -113.5t74.5 -34.5z" />
    <glyph glyph-name="R.sc" horiz-adv-x="510" 
d="M246 414h-25l-9 -124h31q73 0 73 57q0 31 -19.5 49t-50.5 18zM219 187h-15l-14 -187h-159l39 520h210q102 0 151 -42t49 -107q0 -99 -95 -149l107 -222h-169l-76 188q-9 -1 -28 -1z" />
    <glyph glyph-name="Racute.sc" horiz-adv-x="510" 
d="M174 566l139 165l152 -27l-166 -138h-125zM246 414h-25l-9 -124h31q73 0 73 57q0 31 -19.5 49t-50.5 18zM219 187h-15l-14 -187h-159l39 520h210q102 0 151 -42t49 -107q0 -99 -95 -149l107 -222h-169l-76 188q-9 -1 -28 -1z" />
    <glyph glyph-name="Rcommaaccent.sc" horiz-adv-x="510" 
d="M246 414h-25l-9 -124h31q73 0 73 57q0 31 -19.5 49t-50.5 18zM219 187h-15l-14 -187h-159l39 520h210q102 0 151 -42t49 -107q0 -99 -95 -149l107 -222h-169l-76 188q-9 -1 -28 -1zM175 -99q0 19 24.5 39.5t45.5 20.5t44.5 -26t21.5 -43q-4 -48 -84 -157l-67 27
q6 12 18.5 33t21 35.5t8.5 20.5t-17 23t-16 27z" />
    <glyph glyph-name="Rcaron.sc" horiz-adv-x="510" 
d="M357 572h-137l-107 165h110l71 -67l80 67h108zM246 414h-25l-9 -124h31q73 0 73 57q0 31 -19.5 49t-50.5 18zM219 187h-15l-14 -187h-159l39 520h210q102 0 151 -42t49 -107q0 -99 -95 -149l107 -222h-169l-76 188q-9 -1 -28 -1z" />
    <glyph glyph-name="S.sc" horiz-adv-x="433" 
d="M200 193l-66 31q-98 46 -98 142q0 78 61.5 124.5t155.5 46.5q85 0 171 -24l-35 -125q-112 36 -154 36q-22 0 -34 -12.5t-10 -26.5q-1 -14 13 -29t30 -22l77 -36q48 -23 71.5 -54.5t23.5 -82.5q0 -75 -65 -126t-170 -51q-82 0 -165 23l27 129q102 -40 157 -37q53 -3 53 42
q0 31 -43 52z" />
    <glyph glyph-name="Sacute.sc" horiz-adv-x="433" 
d="M145 566l139 165l152 -27l-166 -138h-125zM200 193l-66 31q-98 46 -98 142q0 78 61.5 124.5t155.5 46.5q85 0 171 -24l-35 -125q-112 36 -154 36q-22 0 -34 -12.5t-10 -26.5q-1 -14 13 -29t30 -22l77 -36q48 -23 71.5 -54.5t23.5 -82.5q0 -75 -65 -126t-170 -51
q-82 0 -165 23l27 129q102 -40 157 -37q53 -3 53 42q0 31 -43 52z" />
    <glyph glyph-name="Scircumflex.sc" horiz-adv-x="433" 
d="M324 566l-71 66l-79 -66h-109l126 165h136l108 -165h-111zM200 193l-66 31q-98 46 -98 142q0 78 61.5 124.5t155.5 46.5q85 0 171 -24l-35 -125q-112 36 -154 36q-22 0 -34 -12.5t-10 -26.5q-1 -14 13 -29t30 -22l77 -36q48 -23 71.5 -54.5t23.5 -82.5q0 -75 -65 -126
t-170 -51q-82 0 -165 23l27 129q102 -40 157 -37q53 -3 53 42q0 31 -43 52z" />
    <glyph glyph-name="Scedilla.sc" horiz-adv-x="433" 
d="M108 -238l-13 59q49 5 73.5 13t25.5 24q1 12 -16.5 21.5t-52.5 17.5l-2 5l45 82q-79 0 -162 23l27 129q102 -40 157 -37q53 -3 53 42q0 31 -43 52l-66 31q-98 46 -98 142q0 78 61.5 124.5t155.5 46.5q85 0 171 -24l-35 -125q-112 36 -154 36q-22 0 -34 -12.5t-10 -26.5
q-1 -14 13 -29t30 -22l77 -36q48 -23 71.5 -54.5t23.5 -82.5q0 -63 -47 -110.5t-127 -61.5l-19 -40q40 -14 61 -32t19 -45q-3 -40 -50 -73t-135 -37z" />
    <glyph glyph-name="Scaron.sc" horiz-adv-x="433" 
d="M339 572h-137l-107 165h110l71 -67l80 67h108zM200 193l-66 31q-98 46 -98 142q0 78 61.5 124.5t155.5 46.5q85 0 171 -24l-35 -125q-112 36 -154 36q-22 0 -34 -12.5t-10 -26.5q-1 -14 13 -29t30 -22l77 -36q48 -23 71.5 -54.5t23.5 -82.5q0 -75 -65 -126t-170 -51
q-82 0 -165 23l27 129q102 -40 157 -37q53 -3 53 42q0 31 -43 52z" />
    <glyph glyph-name="Scommaaccent.sc" horiz-adv-x="433" 
d="M200 193l-66 31q-98 46 -98 142q0 78 61.5 124.5t155.5 46.5q85 0 171 -24l-35 -125q-112 36 -154 36q-22 0 -34 -12.5t-10 -26.5q-1 -14 13 -29t30 -22l77 -36q48 -23 71.5 -54.5t23.5 -82.5q0 -75 -65 -126t-170 -51q-82 0 -165 23l27 129q102 -40 157 -37q53 -3 53 42
q0 31 -43 52zM121 -99q0 19 24.5 39.5t45.5 20.5t44.5 -26t21.5 -43q-4 -48 -84 -157l-67 27q6 12 18.5 33t21 35.5t8.5 20.5t-17 23t-16 27z" />
    <glyph glyph-name="T.sc" horiz-adv-x="466" 
d="M462 397l-137 1l-30 -398h-159l30 398l-158 -1l26 123h454z" />
    <glyph glyph-name="Tcommaaccent.sc" horiz-adv-x="466" 
d="M462 397l-137 1l-30 -398h-159l30 398l-158 -1l26 123h454zM140 -99q0 19 24.5 39.5t45.5 20.5t44.5 -26t21.5 -43q-4 -48 -84 -157l-67 27q6 12 18.5 33t21 35.5t8.5 20.5t-17 23t-16 27z" />
    <glyph glyph-name="Tcaron.sc" horiz-adv-x="466" 
d="M333 572h-137l-107 165h110l71 -67l80 67h108zM462 397l-137 1l-30 -398h-159l30 398l-158 -1l26 123h454z" />
    <glyph glyph-name="U.sc" horiz-adv-x="553" 
d="M69 520h158q-23 -330 -23 -332q0 -35 19 -56t55 -21q59 0 63 63l27 346h154l-26 -327q-7 -98 -72 -153.5t-175 -55.5q-93 0 -150 43t-57 120q0 3 27 373z" />
    <glyph glyph-name="Ugrave.sc" horiz-adv-x="553" 
d="M438 566h-125l-147 138l153 27zM69 520h158q-23 -330 -23 -332q0 -35 19 -56t55 -21q59 0 63 63l27 346h154l-26 -327q-7 -98 -72 -153.5t-175 -55.5q-93 0 -150 43t-57 120q0 3 27 373z" />
    <glyph glyph-name="Uacute.sc" horiz-adv-x="553" 
d="M195 566l139 165l152 -27l-166 -138h-125zM69 520h158q-23 -330 -23 -332q0 -35 19 -56t55 -21q59 0 63 63l27 346h154l-26 -327q-7 -98 -72 -153.5t-175 -55.5q-93 0 -150 43t-57 120q0 3 27 373z" />
    <glyph glyph-name="Ucircumflex.sc" horiz-adv-x="553" 
d="M373 566l-71 66l-79 -66h-109l126 165h136l108 -165h-111zM69 520h158q-23 -330 -23 -332q0 -35 19 -56t55 -21q59 0 63 63l27 346h154l-26 -327q-7 -98 -72 -153.5t-175 -55.5q-93 0 -150 43t-57 120q0 3 27 373z" />
    <glyph glyph-name="Udieresis.sc" horiz-adv-x="553" 
d="M329 643q1 22 31 52.5t52 30.5t51.5 -25.5t28.5 -48.5q-1 -21 -32.5 -50.5t-51.5 -29.5q-22 0 -51 24.5t-28 46.5zM133 643q1 22 31 52.5t52 30.5t51.5 -25.5t28.5 -48.5q-1 -21 -32 -50.5t-51 -29.5q-23 0 -52 24.5t-28 46.5zM69 520h158q-23 -330 -23 -332
q0 -35 19 -56t55 -21q59 0 63 63l27 346h154l-26 -327q-7 -98 -72 -153.5t-175 -55.5q-93 0 -150 43t-57 120q0 3 27 373z" />
    <glyph glyph-name="Utilde.sc" horiz-adv-x="553" 
d="M447 724l49 -54q-15 -31 -58.5 -66.5t-73.5 -35.5q-19 0 -67.5 16.5t-60.5 16.5q-17 0 -40 -17t-28 -25l-42 62q2 4 22.5 25t50.5 43t49 22q23 0 67.5 -16.5t57.5 -16.5q30 0 74 46zM69 520h158q-23 -330 -23 -332q0 -35 19 -56t55 -21q59 0 63 63l27 346h154l-26 -327
q-7 -98 -72 -153.5t-175 -55.5q-93 0 -150 43t-57 120q0 3 27 373z" />
    <glyph glyph-name="Umacron.sc" horiz-adv-x="553" 
d="M457 693l-1 -15l-33 -87h-265l1 15l33 87h265zM69 520h158q-23 -330 -23 -332q0 -35 19 -56t55 -21q59 0 63 63l27 346h154l-26 -327q-7 -98 -72 -153.5t-175 -55.5q-93 0 -150 43t-57 120q0 3 27 373z" />
    <glyph glyph-name="Ubreve.sc" horiz-adv-x="553" 
d="M323 661q71 0 89 81h86q-6 -79 -62 -128t-126 -49q-75 0 -116.5 48t-35.5 129h87q6 -81 78 -81zM69 520h158q-23 -330 -23 -332q0 -35 19 -56t55 -21q59 0 63 63l27 346h154l-26 -327q-7 -98 -72 -153.5t-175 -55.5q-93 0 -150 43t-57 120q0 3 27 373z" />
    <glyph glyph-name="Uring.sc" horiz-adv-x="553" 
d="M416 658q-3 -42 -37 -72t-78 -30q-45 0 -73 27.5t-25 74.5q3 42 37 72.5t78 30.5q46 0 73.5 -27t24.5 -76zM267 658q-1 -18 10 -30t29 -12t31.5 12t14.5 30q1 19 -10.5 31.5t-29.5 12.5t-31 -12.5t-14 -31.5zM69 520h158q-23 -330 -23 -332q0 -35 19 -56t55 -21
q59 0 63 63l27 346h154l-26 -327q-7 -98 -72 -153.5t-175 -55.5q-93 0 -150 43t-57 120q0 3 27 373z" />
    <glyph glyph-name="Uhungarumlaut.sc" horiz-adv-x="553" 
d="M301 566l122 165l152 -27l-149 -138h-125zM126 566l122 165l152 -27l-149 -138h-125zM69 520h158q-23 -330 -23 -332q0 -35 19 -56t55 -21q59 0 63 63l27 346h154l-26 -327q-7 -98 -72 -153.5t-175 -55.5q-93 0 -150 43t-57 120q0 3 27 373z" />
    <glyph glyph-name="Uogonek.sc" horiz-adv-x="553" 
d="M299 -213q-49 0 -77.5 26t-25.5 70q5 52 69 101h-16q-93 0 -150 43t-57 120q0 3 27 373h158q-23 -330 -23 -332q0 -35 19 -56t55 -21q59 0 63 63l27 346h154l-26 -327q-8 -119 -99 -173h2q-103 -69 -108 -121q-1 -15 10 -24.5t26 -9.5q28 0 49 11l16 -64q-48 -25 -93 -25
z" />
    <glyph glyph-name="V.sc" horiz-adv-x="527" 
d="M334 0h-196l-122 520h164l74 -357l138 357h159z" />
    <glyph glyph-name="W.sc" horiz-adv-x="806" 
d="M466 0l-62 320l-115 -320h-185l-75 520h163l40 -336l112 336h173l64 -333l88 333h145l-150 -520h-198z" />
    <glyph glyph-name="Wcircumflex.sc" horiz-adv-x="806" 
d="M507 566l-71 66l-79 -66h-109l126 165h136l108 -165h-111zM466 0l-62 320l-115 -320h-185l-75 520h163l40 -336l112 336h173l64 -333l88 333h145l-150 -520h-198z" />
    <glyph glyph-name="Wgrave.sc" horiz-adv-x="806" 
d="M544 566h-125l-147 138l153 27zM466 0l-62 320l-115 -320h-185l-75 520h163l40 -336l112 336h173l64 -333l88 333h145l-150 -520h-198z" />
    <glyph glyph-name="Wacute.sc" horiz-adv-x="806" 
d="M348 566l139 165l152 -27l-166 -138h-125zM466 0l-62 320l-115 -320h-185l-75 520h163l40 -336l112 336h173l64 -333l88 333h145l-150 -520h-198z" />
    <glyph glyph-name="Wdieresis.sc" horiz-adv-x="806" 
d="M460 643q1 22 31 52.5t52 30.5t51.5 -25.5t28.5 -48.5q-1 -21 -32.5 -50.5t-51.5 -29.5q-22 0 -51 24.5t-28 46.5zM264 643q1 22 31 52.5t52 30.5t51.5 -25.5t28.5 -48.5q-1 -21 -32 -50.5t-51 -29.5q-23 0 -52 24.5t-28 46.5zM466 0l-62 320l-115 -320h-185l-75 520h163
l40 -336l112 336h173l64 -333l88 333h145l-150 -520h-198z" />
    <glyph glyph-name="X.sc" 
d="M315 0l-78 140l-89 -140h-171l187 272l-139 248h170l69 -124l80 124h172l-179 -255l147 -265h-169z" />
    <glyph glyph-name="Y.sc" horiz-adv-x="501" 
d="M321 177h-2l-13 -177h-159l13 178l-149 342h164l86 -189l111 189h159z" />
    <glyph glyph-name="Yacute.sc" horiz-adv-x="501" 
d="M171 566l139 165l152 -27l-166 -138h-125zM321 177h-2l-13 -177h-159l13 178l-149 342h164l86 -189l111 189h159z" />
    <glyph glyph-name="Ycircumflex.sc" horiz-adv-x="501" 
d="M354 566l-71 66l-79 -66h-109l126 165h136l108 -165h-111zM321 177h-2l-13 -177h-159l13 178l-149 342h164l86 -189l111 189h159z" />
    <glyph glyph-name="Ydieresis.sc" horiz-adv-x="501" 
d="M296 643q1 22 31 52.5t52 30.5t51.5 -25.5t28.5 -48.5q-1 -21 -32.5 -50.5t-51.5 -29.5q-22 0 -51 24.5t-28 46.5zM100 643q1 22 31 52.5t52 30.5t51.5 -25.5t28.5 -48.5q-1 -21 -32 -50.5t-51 -29.5q-23 0 -52 24.5t-28 46.5zM321 177h-2l-13 -177h-159l13 178l-149 342
h164l86 -189l111 189h159z" />
    <glyph glyph-name="Ygrave.sc" horiz-adv-x="501" 
d="M410 566h-125l-147 138l153 27zM321 177h-2l-13 -177h-159l13 178l-149 342h164l86 -189l111 189h159z" />
    <glyph glyph-name="Z.sc" horiz-adv-x="480" 
d="M429 0h-415l7 106l242 293h-220l19 121h400l-7 -108l-252 -295h247z" />
    <glyph glyph-name="Zacute.sc" horiz-adv-x="480" 
d="M150 566l139 165l152 -27l-166 -138h-125zM429 0h-415l7 106l242 293h-220l19 121h400l-7 -108l-252 -295h247z" />
    <glyph glyph-name="Zdotaccent.sc" horiz-adv-x="480" 
d="M183 658q2 25 35 58.5t57 33.5t57.5 -27.5t32.5 -51.5q-2 -24 -36 -57.5t-56 -33.5q-24 0 -57.5 27.5t-32.5 50.5zM429 0h-415l7 106l242 293h-220l19 121h400l-7 -108l-252 -295h247z" />
    <glyph glyph-name="Zcaron.sc" horiz-adv-x="480" 
d="M339 572h-137l-107 165h110l71 -67l80 67h108zM429 0h-415l7 106l242 293h-220l19 121h400l-7 -108l-252 -295h247z" />
    <glyph glyph-name="AE.sc" horiz-adv-x="718" 
d="M321 407l-94 -195h85l15 195h-6zM296 0l7 97h-132l-47 -97h-156l271 520h457l-27 -108l-182 2l-7 -95h179l-29 -108l-158 6l-9 -108l217 3l-29 -112h-355z" />
    <glyph glyph-name="AEacute.sc" horiz-adv-x="718" 
d="M340 566l139 165l152 -27l-166 -138h-125zM321 407l-94 -195h85l15 195h-6zM296 0l7 97h-132l-47 -97h-156l271 520h457l-27 -108l-182 2l-7 -95h179l-29 -108l-158 6l-9 -108l217 3l-29 -112h-355z" />
    <glyph glyph-name="Eth.sc" horiz-adv-x="543" 
d="M244 0h-198l16 210h-52l7 102h52l16 208h195q120 0 189.5 -54t69.5 -171q0 -136 -85.5 -215.5t-209.5 -79.5zM214 106h34q63 0 95 39t32 128q0 66 -31 103.5t-76 37.5h-31l-8 -102h94l-14 -102h-87z" />
    <glyph glyph-name="Oslash.sc" horiz-adv-x="541" 
d="M181 246q0 -30 3 -52l116 221q-17 7 -38 7q-81 0 -81 -176zM280 98q37 0 58 45t21 131q0 32 -4 52l-116 -221q17 -7 41 -7zM248 -15q-40 0 -68 7l-33 -63h-101l52 99q-80 61 -80 193q0 61 16.5 116t48.5 100.5t87 72.5t125 27q38 0 65 -7l31 59h102l-50 -96
q80 -61 80 -194q0 -55 -14.5 -107t-44.5 -100t-86 -77.5t-130 -29.5z" />
    <glyph glyph-name="Oslashacute.sc" horiz-adv-x="541" 
d="M181 566l139 165l152 -27l-166 -138h-125zM181 246q0 -30 3 -52l116 221q-17 7 -38 7q-81 0 -81 -176zM280 98q37 0 58 45t21 131q0 32 -4 52l-116 -221q17 -7 41 -7zM248 -15q-40 0 -68 7l-33 -63h-101l52 99q-80 61 -80 193q0 61 16.5 116t48.5 100.5t87 72.5t125 27
q38 0 65 -7l31 59h102l-50 -96q80 -61 80 -194q0 -55 -14.5 -107t-44.5 -100t-86 -77.5t-130 -29.5z" />
    <glyph glyph-name="Thorn.sc" horiz-adv-x="493" 
d="M245 335l-30 1l-11 -143h44q71 0 71 65q0 35 -20 55.5t-54 21.5zM243 89h-46l-7 -89h-159l39 520h159l-6 -77h45q104 0 157.5 -41.5t53.5 -119.5q0 -83 -66.5 -138t-169.5 -55z" />
    <glyph glyph-name="Dcroat.sc" horiz-adv-x="543" 
d="M244 0h-198l16 210h-52l7 102h52l16 208h195q120 0 189.5 -54t69.5 -171q0 -136 -85.5 -215.5t-209.5 -79.5zM214 106h34q63 0 95 39t32 128q0 66 -31 103.5t-76 37.5h-31l-8 -102h94l-14 -102h-87z" />
    <glyph glyph-name="Hbar.sc" horiz-adv-x="565" 
d="M361 332l3 46h-146l-3 -46h146zM335 0l16 204h-146l-15 -204h-159l28 378h-59l1 14l24 75h41l4 53h159l-4 -53h146l4 53h159l-4 -53h65l-2 -13l-23 -76h-47l-28 -378h-160z" />
    <glyph glyph-name="IJ.sc" horiz-adv-x="584" 
d="M229 520l-39 -520h-159l39 520h159zM554 520l-28 -371q-5 -73 -60 -119t-140 -46q-61 0 -105 21l30 126q28 -14 68 -14q43 0 47 52l27 351h161z" />
    <glyph glyph-name="Ldot.sc" horiz-adv-x="427" 
d="M253 297q2 25 35 58.5t57 33.5t57.5 -27.5t32.5 -51.5q-2 -24 -36 -57.5t-56 -33.5q-24 0 -57.5 27.5t-32.5 50.5zM31 0l39 520h159l-30 -401l214 4l-22 -123h-360z" />
    <glyph glyph-name="Lslash.sc" horiz-adv-x="427" 
d="M43 0l14 182l-52 -23l6 111l54 23l17 227h159l-12 -156l109 47l-6 -109l-111 -49l-10 -134l214 4l-22 -123h-360z" />
    <glyph glyph-name="Eng.sc" horiz-adv-x="579" 
d="M331 -174q-66 0 -103 19l30 120q25 -18 64 -18q19 0 33.5 13t15.5 38v2h-2l-170 279l-19 -279h-149l39 520h147l166 -286l17 286h148l-33 -468l-4 -60q-5 -74 -58 -120t-122 -46z" />
    <glyph glyph-name="OE.sc" horiz-adv-x="737" 
d="M283 98q25 0 52 19l20 266q-27 41 -75 41t-73.5 -39.5t-25.5 -139.5q0 -84 27 -115.5t75 -31.5zM681 0h-339q-45 -15 -99 -15q-99 -1 -162 58.5t-63 172.5q0 157 78 239t202 82q49 0 94 -17h333l-27 -108l-182 2l-7 -95h180l-29 -108l-159 6l-8 -107l216 2z" />
    <glyph glyph-name="Tbar.sc" horiz-adv-x="466" 
d="M399 220h-88l-16 -220h-159l16 220h-116l3 24l29 70h91l7 84l-158 -1l26 123h454l-26 -123l-137 1l-7 -84h112l-2 -24z" />
    <glyph glyph-name="commaaccent.sc" horiz-adv-x="257" 
d="M68 -99q0 19 24.5 39.5t45.5 20.5t44.5 -26t21.5 -43q-4 -48 -84 -157l-67 27q6 12 18.5 33t21 35.5t8.5 20.5t-17 23t-16 27z" />
    <glyph glyph-name="acute.sc" horiz-adv-x="315" 
d="M12 566l139 165l152 -27l-166 -138h-125z" />
    <glyph glyph-name="grave.sc" horiz-adv-x="316" 
d="M294 566h-125l-147 138l153 27z" />
    <glyph glyph-name="hungarumlaut.sc" horiz-adv-x="501" 
d="M201 566l122 165l152 -27l-149 -138h-125zM26 566l122 165l152 -27l-149 -138h-125z" />
    <glyph glyph-name="circumflex.sc" horiz-adv-x="469" 
d="M308 566l-71 66l-79 -66h-109l126 165h136l108 -165h-111z" />
    <glyph glyph-name="caron.sc" horiz-adv-x="462" 
d="M290 572h-137l-107 165h110l71 -67l80 67h108z" />
    <glyph glyph-name="breve.sc" horiz-adv-x="476" 
d="M234 661q71 0 89 81h86q-6 -79 -62 -128t-126 -49q-75 0 -116.5 48t-35.5 129h87q6 -81 78 -81z" />
    <glyph glyph-name="tilde.sc" horiz-adv-x="494" 
d="M383 724l49 -54q-15 -31 -58.5 -66.5t-73.5 -35.5q-19 0 -67.5 16.5t-60.5 16.5q-17 0 -40 -17t-28 -25l-42 62q2 4 22.5 25t50.5 43t49 22q23 0 67.5 -16.5t57.5 -16.5q30 0 74 46z" />
    <glyph glyph-name="macron.sc" horiz-adv-x="426" 
d="M362 693l-1 -15l-33 -87h-265l1 15l33 87h265z" />
    <glyph glyph-name="dieresis.sc" horiz-adv-x="530" 
d="M282 643q1 22 31 52.5t52 30.5t51.5 -25.5t28.5 -48.5q-1 -21 -32.5 -50.5t-51.5 -29.5q-22 0 -51 24.5t-28 46.5zM86 643q1 22 31 52.5t52 30.5t51.5 -25.5t28.5 -48.5q-1 -21 -32 -50.5t-51 -29.5q-23 0 -52 24.5t-28 46.5z" />
    <glyph glyph-name="dotaccent.sc" horiz-adv-x="356" 
d="M87 658q2 25 35 58.5t57 33.5t57.5 -27.5t32.5 -51.5q-2 -24 -36 -57.5t-56 -33.5q-24 0 -57.5 27.5t-32.5 50.5z" />
    <glyph glyph-name="ring.sc" horiz-adv-x="378" 
d="M295 658q-3 -42 -37 -72t-78 -30q-45 0 -73 27.5t-25 74.5q3 42 37 72.5t78 30.5q46 0 73.5 -27t24.5 -76zM146 658q-1 -18 10 -30t29 -12t31.5 12t14.5 30q1 19 -10.5 31.5t-29.5 12.5t-31 -12.5t-14 -31.5z" />
    <glyph glyph-name="cedilla.sc" horiz-adv-x="301" 
d="M80 -98l54 98h60l-24 -51q40 -14 61 -32t19 -45q-3 -40 -50 -73t-135 -37l-13 59q49 5 73.5 13t25.5 24q1 12 -16.5 21.5t-52.5 17.5z" />
    <glyph glyph-name="ogonek.sc" horiz-adv-x="333" 
d="M65 -137q3 34 36 71t90 66h77q-103 -69 -108 -121q-1 -15 10 -24.5t26 -9.5q28 0 49 11l16 -64q-48 -25 -93 -25q-49 0 -77.5 26t-25.5 70z" />
    <glyph glyph-name="Dotlessi.sc" horiz-adv-x="258" 
d="M250 520l-39 -520h-157l40 520h156z" />
    <glyph glyph-name="Tcedilla.sc" horiz-adv-x="466" 
d="M191 0h-55l30 398l-158 -1l26 123h454l-26 -123l-137 1l-30 -398h-44l-24 -51q40 -14 61 -32t19 -45q-3 -40 -50 -73t-135 -37l-13 59q49 5 73.5 13t25.5 24q1 12 -16.5 21.5t-52.5 17.5l-2 5z" />
    <glyph glyph-name="f_f.sc" horiz-adv-x="853" 
d="M365 195l-160 5l-15 -200h-159l39 520h360l-27 -108l-182 2l-9 -115h182zM789 195l-160 5l-15 -200h-159l39 520h360l-27 -108l-182 2l-9 -115h182z" />
    <glyph glyph-name="f_f_i.sc" horiz-adv-x="1105" 
d="M1074 520l-39 -520h-159l39 520h159zM365 195l-160 5l-15 -200h-159l39 520h360l-27 -108l-182 2l-9 -115h182zM789 195l-160 5l-15 -200h-159l39 520h360l-27 -108l-182 2l-9 -115h182z" />
    <glyph glyph-name="f_f_l.sc" horiz-adv-x="1281" 
d="M365 195l-160 5l-15 -200h-159l39 520h360l-27 -108l-182 2l-9 -115h182zM793 195l-160 5l-15 -200h-159l39 520h360l-27 -108l-182 2l-9 -115h182zM885 0l39 520h159l-30 -401l214 4l-22 -123h-360z" />
    <glyph glyph-name="fi.sc" horiz-adv-x="685" 
d="M654 520l-39 -520h-159l39 520h159zM365 195l-160 5l-15 -200h-159l39 520h360l-27 -108l-182 2l-9 -115h182z" />
    <glyph glyph-name="fl.sc" horiz-adv-x="855" 
d="M365 195l-160 5l-15 -200h-159l39 520h360l-27 -108l-182 2l-9 -115h182zM459 0l39 520h159l-30 -401l214 4l-22 -123h-360z" />
    </font>
</defs>
</svg>
