<svg xmlns="http://www.w3.org/2000/svg" viewBox="0 0 21.833 28.139">
  <defs>
    <style>
      .cls-1 {
        fill: #fff;
      }
    </style>
  </defs>
  <g id="Articulo" transform="translate(-52.1)">
    <path id="Path_214" data-name="Path 214" class="cls-1" d="M388.959,0h-.605a.457.457,0,0,0-.454.454.457.457,0,0,0,.454.454h.151V27.231h-.151a.454.454,0,1,0,0,.908h.605a.457.457,0,0,0,.454-.454V.454A.453.453,0,0,0,388.959,0Z" transform="translate(-315.479 0)"/>
    <path id="Path_215" data-name="Path 215" class="cls-1" d="M115.008,140H102.554a.454.454,0,0,0,0,.908h12.46a.454.454,0,1,0-.006-.908Z" transform="translate(-46.974 -131.528)"/>
    <path id="Path_216" data-name="Path 216" class="cls-1" d="M115.008,260H102.554a.454.454,0,0,0,0,.908h12.46a.454.454,0,1,0-.006-.908Z" transform="translate(-46.974 -244.266)"/>
    <path id="Path_217" data-name="Path 217" class="cls-1" d="M230.47,300h-5.017a.454.454,0,0,0,0,.908h5.017a.454.454,0,1,0,0-.908Z" transform="translate(-162.437 -281.846)"/>
    <path id="Path_218" data-name="Path 218" class="cls-1" d="M71.059,0H56.747a.262.262,0,0,0-.03.006h-.012a.086.086,0,0,0-.036.012h-.006c-.012.006-.024.006-.036.012H56.62l-.036.018h-.006c-.012.006-.018.012-.03.018a.006.006,0,0,0-.006.006.084.084,0,0,0-.024.018L56.511.1c-.012.006-.018.018-.03.03h0L52.245,4.363l-.006.006a.106.106,0,0,0-.024.03c0,.006-.006.006-.006.012s-.012.018-.018.024a.021.021,0,0,0-.006.012c-.024.006-.03.018-.03.03a.006.006,0,0,1-.006.006l-.018.036v.006a.086.086,0,0,0-.012.036v.006c-.006.012-.006.024-.012.036v.012a.262.262,0,0,1-.006.03V27.685a.457.457,0,0,0,.454.454H71.065a.457.457,0,0,0,.454-.454V.454A.462.462,0,0,0,71.059,0ZM56.336,1.549V4.236H53.649ZM70.605,27.231h-17.6V5.144H56.79a.457.457,0,0,0,.454-.454V.908H70.611l-.006,26.324Z" transform="translate(0 0)"/>
    <path id="Path_219" data-name="Path 219" class="cls-1" d="M152.554,70.908h9.434a.454.454,0,0,0,0-.908h-9.434a.454.454,0,0,0,0,.908Z" transform="translate(-93.949 -65.764)"/>
    <path id="Path_220" data-name="Path 220" class="cls-1" d="M230.47,180h-5.017a.454.454,0,1,0,0,.908h5.017a.454.454,0,1,0,0-.908Z" transform="translate(-162.437 -169.108)"/>
    <path id="Path_221" data-name="Path 221" class="cls-1" d="M230.47,220h-5.017a.454.454,0,1,0,0,.908h5.017a.454.454,0,1,0,0-.908Z" transform="translate(-162.437 -206.687)"/>
    <path id="Path_222" data-name="Path 222" class="cls-1" d="M107.57,300.908a.454.454,0,0,0,0-.908h-5.017a.457.457,0,0,0-.454.454v4.841a.457.457,0,0,0,.454.454h5.017a.457.457,0,0,0,.454-.454v-3.026a.454.454,0,1,0-.908,0v2.572h-4.109v-3.933Z" transform="translate(-46.974 -281.846)"/>
    <path id="Path_223" data-name="Path 223" class="cls-1" d="M102.554,220.908h5.017a.454.454,0,0,0,0-.908h-5.017a.454.454,0,0,0,0,.908Z" transform="translate(-46.974 -206.687)"/>
    <path id="Path_224" data-name="Path 224" class="cls-1" d="M227.445,380h-1.991a.454.454,0,1,0,0,.908h1.991a.454.454,0,1,0,0-.908Z" transform="translate(-162.437 -357.005)"/>
    <path id="Path_225" data-name="Path 225" class="cls-1" d="M230.47,340h-5.017a.454.454,0,1,0,0,.908h5.017a.454.454,0,1,0,0-.908Z" transform="translate(-162.437 -319.425)"/>
    <path id="Path_226" data-name="Path 226" class="cls-1" d="M102.554,180.908h5.017a.454.454,0,0,0,0-.908h-5.017a.454.454,0,0,0,0,.908Z" transform="translate(-46.974 -169.108)"/>
  </g>
</svg>
