<svg xmlns="http://www.w3.org/2000/svg" viewBox="0 0 29.481 29.275">
  <defs>
    <style>
      .cls-1 {
        fill: #fff;
      }
    </style>
  </defs>
  <g id="Libro" transform="translate(-8.775 -9.325)">
    <g id="Group_7" data-name="Group 7" transform="translate(8.775 9.325)">
      <g id="Group_6" data-name="Group 6">
        <path id="Path_199" data-name="Path 199" class="cls-1" d="M20.915,20.192c.138.138.275.275.413.275H21.6a36.447,36.447,0,0,1,4.266-1.926c.275-.138.413-.413.275-.55-.138-.275-.413-.413-.55-.275a31.77,31.77,0,0,0-4.4,1.926C20.915,19.641,20.777,19.916,20.915,20.192Z" transform="translate(-4.23 -6.191)"/>
        <path id="Path_200" data-name="Path 200" class="cls-1" d="M21.313,16.167h.275a36.447,36.447,0,0,1,4.266-1.926c.275-.138.413-.413.275-.55-.138-.275-.413-.413-.55-.275a31.77,31.77,0,0,0-4.4,1.926c-.275.138-.275.413-.275.688C21.038,16.029,21.175,16.167,21.313,16.167Z" transform="translate(-4.216 -7.807)"/>
        <path id="Path_201" data-name="Path 201" class="cls-1" d="M37.706,16.721a.592.592,0,0,0-.55.55V36.261a1.527,1.527,0,0,1-1.514,1.514h-11.7v-1.1a13.806,13.806,0,0,1,4.4-.826,24.8,24.8,0,0,1,7.155.963h.413a.505.505,0,0,0,.138-.413v-21.6a.365.365,0,0,0-.413-.413,3.808,3.808,0,0,0-1.1-.138c-.275,0-.55.138-.55.413s.138.55.413.55.413.138.688.138v20.5a28.375,28.375,0,0,0-6.88-.826,13.629,13.629,0,0,0-4.816.963,10.92,10.92,0,0,0-4.4-.963,32.891,32.891,0,0,0-7.293.826V15.07a30.636,30.636,0,0,1,7.293-.826,9.428,9.428,0,0,1,3.853.826V34.334c0,.138.138.275.275.413s.275.138.55,0a65.7,65.7,0,0,1,9.219-4.4c.138,0,.275-.275.275-.413V9.841c0-.138-.138-.275-.275-.413a.258.258,0,0,0-.413,0,56.95,56.95,0,0,0-7.843,3.99c-.275.138-.275.413-.138.688s.413.275.688.138A45.1,45.1,0,0,1,32.2,10.667V29.518a47.91,47.91,0,0,0-8.256,3.853V14.795c0-.138-.138-.413-.275-.413a13.143,13.143,0,0,0-4.678-.963,35.7,35.7,0,0,0-7.981.963.439.439,0,0,0-.413.413V36.261c0,.138.138.275.138.413.138,0,.138.138.275.138h.138a31.783,31.783,0,0,1,7.706-.963,9.428,9.428,0,0,1,3.853.826v1.1h-11.7A1.527,1.527,0,0,1,9.5,36.261V17.134a.592.592,0,0,0-.55-.55c-.275,0-.138.275-.138.55V36.123A2.467,2.467,0,0,0,11.286,38.6H35.78a2.467,2.467,0,0,0,2.477-2.477V17.134C38.119,16.859,37.981,16.721,37.706,16.721Z" transform="translate(-8.775 -9.325)"/>
        <path id="Path_202" data-name="Path 202" class="cls-1" d="M20.915,17.992c.138.138.275.275.413.275H21.6a36.447,36.447,0,0,1,4.266-1.926c.275-.138.413-.413.275-.55-.138-.275-.413-.413-.55-.275a31.77,31.77,0,0,0-4.4,1.926C20.915,17.441,20.777,17.716,20.915,17.992Z" transform="translate(-4.23 -7.018)"/>
        <path id="Path_203" data-name="Path 203" class="cls-1" d="M20.915,22.292c.138.138.275.275.413.275H21.6a36.447,36.447,0,0,1,4.266-1.926c.275-.138.413-.413.275-.55-.138-.275-.413-.413-.55-.275a31.77,31.77,0,0,0-4.4,1.926C20.915,21.741,20.777,22.016,20.915,22.292Z" transform="translate(-4.23 -5.401)"/>
        <path id="Path_204" data-name="Path 204" class="cls-1" d="M19.318,15.974a14.015,14.015,0,0,0-6.6.275c-.275.138-.413.275-.413.55a.439.439,0,0,0,.413.413h.138a16.241,16.241,0,0,1,6.055-.275c.275,0,.55-.138.55-.413C19.731,16.387,19.593,16.111,19.318,15.974Z" transform="translate(-7.45 -6.927)"/>
        <path id="Path_205" data-name="Path 205" class="cls-1" d="M19.318,18.174a14.015,14.015,0,0,0-6.6.275c-.275.138-.413.275-.413.55a.439.439,0,0,0,.413.413h.138a16.241,16.241,0,0,1,6.055-.275c.275,0,.55-.138.55-.413C19.731,18.449,19.593,18.174,19.318,18.174Z" transform="translate(-7.45 -6.099)"/>
        <path id="Path_206" data-name="Path 206" class="cls-1" d="M20.915,24.392c.138.138.275.275.413.275H21.6a36.447,36.447,0,0,1,4.266-1.926c.275-.138.413-.413.275-.55-.138-.275-.413-.413-.55-.275a31.77,31.77,0,0,0-4.4,1.926C20.915,23.841,20.777,24.116,20.915,24.392Z" transform="translate(-4.23 -4.611)"/>
        <path id="Path_207" data-name="Path 207" class="cls-1" d="M19.318,20.274a14.015,14.015,0,0,0-6.6.275c-.275.138-.413.275-.413.55a.439.439,0,0,0,.413.413h.138a16.242,16.242,0,0,1,6.055-.275c.275,0,.55-.138.55-.413C19.731,20.549,19.593,20.274,19.318,20.274Z" transform="translate(-7.45 -5.31)"/>
        <path id="Path_208" data-name="Path 208" class="cls-1" d="M19.318,24.574a14.015,14.015,0,0,0-6.6.275c-.275.138-.413.275-.413.55a.439.439,0,0,0,.413.413h.138a16.241,16.241,0,0,1,6.055-.275c.275,0,.55-.138.55-.413C19.731,24.849,19.593,24.574,19.318,24.574Z" transform="translate(-7.45 -3.693)"/>
        <path id="Path_209" data-name="Path 209" class="cls-1" d="M19.318,22.374a14.015,14.015,0,0,0-6.6.275c-.275.138-.413.275-.413.55a.439.439,0,0,0,.413.413h.138a16.242,16.242,0,0,1,6.055-.275c.275,0,.55-.138.55-.413C19.731,22.787,19.593,22.511,19.318,22.374Z" transform="translate(-7.45 -4.52)"/>
      </g>
    </g>
  </g>
</svg>
