<svg xmlns="http://www.w3.org/2000/svg" viewBox="0 0 24.333 30.417">
  <defs>
    <style>
      .cls-1 {
        fill: #fff;
      }
    </style>
  </defs>
  <g id="Tesis" transform="translate(-6)">
    <path id="Path_211" data-name="Path 211" class="cls-1" d="M30.181,29.555l-1.369-1.369V10.443l-.253-.253L26.278,7.908V0H6V26.361H8.535V28.9H28.1l1.369,1.369a.49.49,0,0,0,.71,0A.49.49,0,0,0,30.181,29.555ZM27.089,10.139H21.208V4.258l5.069,5.069ZM7.014,25.347V1.014h18.25V6.894L21.158,2.788,20.9,2.535H8.535V25.347Zm2.535,2.535V3.549H20.194v7.6h7.6V27.172L24,23.37a6.1,6.1,0,0,0,1.419-3.853,6.007,6.007,0,1,0-2.129,4.562l3.8,3.8Zm9.885-3.4A4.968,4.968,0,1,1,24.4,19.517,4.976,4.976,0,0,1,19.434,24.485Z"/>
    <path id="Path_212" data-name="Path 212" class="cls-1" d="M26.107,35.014h3.042a.507.507,0,1,0,0-1.014H26.107a.479.479,0,0,0-.507.507A.508.508,0,0,0,26.107,35.014Z" transform="translate(-9.664 -16.764)"/>
    <path id="Path_213" data-name="Path 213" class="cls-1" d="M32.19,40H26.107a.507.507,0,1,0,0,1.014H32.19a.507.507,0,1,0,0-1.014Z" transform="translate(-9.664 -19.722)"/>
  </g>
</svg>
